G04 #@! TF.GenerationSoftware,KiCad,Pcbnew,5.0.2-bee76a0~70~ubuntu18.04.1*
G04 #@! TF.CreationDate,2018-11-29T20:18:27+08:00*
G04 #@! TF.ProjectId,backplane,6261636b-706c-4616-9e65-2e6b69636164,rev?*
G04 #@! TF.SameCoordinates,Original*
G04 #@! TF.FileFunction,Legend,Top*
G04 #@! TF.FilePolarity,Positive*
%FSLAX46Y46*%
G04 Gerber Fmt 4.6, Leading zero omitted, Abs format (unit mm)*
G04 Created by KiCad (PCBNEW 5.0.2-bee76a0~70~ubuntu18.04.1) date Thursday, November 29, 2018 PM08:18:27 HKT*
%MOMM*%
%LPD*%
G01*
G04 APERTURE LIST*
%ADD10C,1.000000*%
%ADD11C,0.300000*%
%ADD12C,0.500000*%
%ADD13C,0.120000*%
%ADD14C,0.508000*%
%ADD15C,0.254000*%
%ADD16C,0.304800*%
%ADD17C,0.203200*%
%ADD18C,0.150000*%
G04 APERTURE END LIST*
D10*
X73110000Y-264100000D02*
G75*
G02X74110000Y-265100000I0J-1000000D01*
G01*
X73109999Y-294100001D02*
G75*
G02X72110000Y-293100000I1J1000000D01*
G01*
X72110000Y-293100000D02*
X72110000Y-265100000D01*
X74110000Y-265100000D02*
X74110000Y-293100000D01*
X74109998Y-293100001D02*
G75*
G02X73110000Y-294099999I-999998J0D01*
G01*
X72110000Y-265100000D02*
G75*
G02X73110000Y-264100000I1000000J0D01*
G01*
X15100000Y-234300000D02*
G75*
G02X14100000Y-233300000I0J1000000D01*
G01*
X14100000Y-233300000D02*
G75*
G02X15100000Y-232300000I1000000J0D01*
G01*
X44100000Y-233300000D02*
G75*
G02X43100000Y-234300000I-1000000J0D01*
G01*
X43100000Y-232300000D02*
G75*
G02X44100000Y-233300000I0J-1000000D01*
G01*
X43100000Y-234300000D02*
X15100000Y-234300000D01*
X15100000Y-232300000D02*
X43100000Y-232300000D01*
X0Y-5000000D02*
G75*
G02X5000000Y0I5000000J0D01*
G01*
X195000000Y0D02*
G75*
G02X200000000Y-5000000I0J-5000000D01*
G01*
X200000000Y-295000000D02*
G75*
G02X195000000Y-300000000I-5000000J0D01*
G01*
X5000000Y-300000000D02*
G75*
G02X0Y-295000000I0J5000000D01*
G01*
D11*
X41380761Y-271753809D02*
X39380761Y-271753809D01*
X41380761Y-270610952D01*
X39380761Y-270610952D01*
X31476000Y-270706190D02*
X31380761Y-270896666D01*
X31380761Y-271182381D01*
X31476000Y-271468095D01*
X31666476Y-271658571D01*
X31856952Y-271753809D01*
X32237904Y-271849047D01*
X32523619Y-271849047D01*
X32904571Y-271753809D01*
X33095047Y-271658571D01*
X33285523Y-271468095D01*
X33380761Y-271182381D01*
X33380761Y-270991904D01*
X33285523Y-270706190D01*
X33190285Y-270610952D01*
X32523619Y-270610952D01*
X32523619Y-270991904D01*
X33380761Y-269753809D02*
X31380761Y-269753809D01*
X33380761Y-268610952D01*
X31380761Y-268610952D01*
X33380761Y-267658571D02*
X31380761Y-267658571D01*
X31380761Y-267182381D01*
X31476000Y-266896666D01*
X31666476Y-266706190D01*
X31856952Y-266610952D01*
X32237904Y-266515714D01*
X32523619Y-266515714D01*
X32904571Y-266610952D01*
X33095047Y-266706190D01*
X33285523Y-266896666D01*
X33380761Y-267182381D01*
X33380761Y-267658571D01*
X26380761Y-270801428D02*
X26380761Y-271753809D01*
X24380761Y-271753809D01*
D10*
X0Y-5000000D02*
X0Y-295000000D01*
X5000000Y-300000000D02*
X195000000Y-300000000D01*
X200000000Y-5000000D02*
X200000000Y-295000000D01*
X5000000Y0D02*
X195000000Y0D01*
D12*
X51019285Y-273257142D02*
X52733571Y-273257142D01*
X51876428Y-276257142D02*
X51876428Y-273257142D01*
X54305000Y-273257142D02*
X54876428Y-273257142D01*
X55162142Y-273400000D01*
X55447857Y-273685714D01*
X55590714Y-274257142D01*
X55590714Y-275257142D01*
X55447857Y-275828571D01*
X55162142Y-276114285D01*
X54876428Y-276257142D01*
X54305000Y-276257142D01*
X54019285Y-276114285D01*
X53733571Y-275828571D01*
X53590714Y-275257142D01*
X53590714Y-274257142D01*
X53733571Y-273685714D01*
X54019285Y-273400000D01*
X54305000Y-273257142D01*
X59162142Y-276257142D02*
X59162142Y-273257142D01*
X60305000Y-273257142D01*
X60590714Y-273400000D01*
X60733571Y-273542857D01*
X60876428Y-273828571D01*
X60876428Y-274257142D01*
X60733571Y-274542857D01*
X60590714Y-274685714D01*
X60305000Y-274828571D01*
X59162142Y-274828571D01*
X63876428Y-275971428D02*
X63733571Y-276114285D01*
X63305000Y-276257142D01*
X63019285Y-276257142D01*
X62590714Y-276114285D01*
X62305000Y-275828571D01*
X62162142Y-275542857D01*
X62019285Y-274971428D01*
X62019285Y-274542857D01*
X62162142Y-273971428D01*
X62305000Y-273685714D01*
X62590714Y-273400000D01*
X63019285Y-273257142D01*
X63305000Y-273257142D01*
X63733571Y-273400000D01*
X63876428Y-273542857D01*
X66162142Y-274685714D02*
X66590714Y-274828571D01*
X66733571Y-274971428D01*
X66876428Y-275257142D01*
X66876428Y-275685714D01*
X66733571Y-275971428D01*
X66590714Y-276114285D01*
X66305000Y-276257142D01*
X65162142Y-276257142D01*
X65162142Y-273257142D01*
X66162142Y-273257142D01*
X66447857Y-273400000D01*
X66590714Y-273542857D01*
X66733571Y-273828571D01*
X66733571Y-274114285D01*
X66590714Y-274400000D01*
X66447857Y-274542857D01*
X66162142Y-274685714D01*
X65162142Y-274685714D01*
X69733571Y-276257142D02*
X68019285Y-276257142D01*
X68876428Y-276257142D02*
X68876428Y-273257142D01*
X68590714Y-273685714D01*
X68305000Y-273971428D01*
X68019285Y-274114285D01*
D13*
G04 #@! TO.C,U3*
X41270000Y-5550000D02*
X41270000Y-4220000D01*
X41270000Y-4220000D02*
X42600000Y-4220000D01*
X41270000Y-6820000D02*
X43870000Y-6820000D01*
X43870000Y-6820000D02*
X43870000Y-4220000D01*
X43870000Y-4220000D02*
X51550000Y-4220000D01*
X51550000Y-9420000D02*
X51550000Y-4220000D01*
X41270000Y-9420000D02*
X51550000Y-9420000D01*
X41270000Y-9420000D02*
X41270000Y-6820000D01*
D14*
G04 #@! TO.C,K1*
X30722500Y-225251000D02*
X30722500Y-229061000D01*
X27420500Y-225251000D02*
X30722500Y-225251000D01*
X27420500Y-229061000D02*
X27420500Y-225251000D01*
X30722500Y-229061000D02*
X27420500Y-229061000D01*
X30722500Y-225251000D02*
X27420500Y-229061000D01*
X30722500Y-227156000D02*
X34215000Y-227156000D01*
X23928000Y-227156000D02*
X27420500Y-227156000D01*
X19102000Y-239856000D02*
G75*
G03X20372000Y-238586000I0J1270000D01*
G01*
X16054000Y-239856000D02*
G75*
G03X14784000Y-241126000I0J-1270000D01*
G01*
X14784000Y-251286000D02*
G75*
G03X16054000Y-252556000I1270000J0D01*
G01*
X40946000Y-252556000D02*
G75*
G03X42216000Y-251286000I0J1270000D01*
G01*
X40438000Y-221314000D02*
G75*
G03X39168000Y-220044000I-1270000J0D01*
G01*
X21642000Y-220044000D02*
G75*
G03X20372000Y-221314000I0J-1270000D01*
G01*
X42216000Y-235792000D02*
G75*
G03X41454000Y-235030000I-762000J0D01*
G01*
X40438000Y-234268000D02*
G75*
G03X41200000Y-235030000I762000J0D01*
G01*
X40438000Y-234268000D02*
X40438000Y-221314000D01*
X39168000Y-220044000D02*
X21642000Y-220044000D01*
X20372000Y-221314000D02*
X20372000Y-238586000D01*
X19102000Y-239856000D02*
X16054000Y-239856000D01*
X14784000Y-241126000D02*
X14784000Y-251286000D01*
X16054000Y-252556000D02*
X40946000Y-252556000D01*
X42216000Y-251286000D02*
X42216000Y-235792000D01*
X41454000Y-235030000D02*
X41200000Y-235030000D01*
D13*
G04 #@! TO.C,J7*
X119800000Y-10190000D02*
X120100000Y-9590000D01*
X120400000Y-10190000D02*
X119800000Y-10190000D01*
X120100000Y-9590000D02*
X120400000Y-10190000D01*
X114850000Y-6490000D02*
X115350000Y-6490000D01*
X114850000Y-990000D02*
X114850000Y-6490000D01*
X115350000Y-990000D02*
X114850000Y-990000D01*
X115350000Y-6490000D02*
X115350000Y-990000D01*
X117350000Y-6490000D02*
X117850000Y-6490000D01*
X117350000Y-990000D02*
X117350000Y-6490000D01*
X117850000Y-990000D02*
X117350000Y-990000D01*
X117850000Y-6490000D02*
X117850000Y-990000D01*
X119850000Y-6490000D02*
X120350000Y-6490000D01*
X119850000Y-990000D02*
X119850000Y-6490000D01*
X120350000Y-990000D02*
X119850000Y-990000D01*
X120350000Y-6490000D02*
X120350000Y-990000D01*
X113960000Y-12100000D02*
X113960000Y-7600000D01*
X112540000Y-12100000D02*
X113960000Y-12100000D01*
X112540000Y-380000D02*
X112540000Y-12100000D01*
X117600000Y-380000D02*
X112540000Y-380000D01*
X121240000Y-12100000D02*
X121240000Y-7600000D01*
X122660000Y-12100000D02*
X121240000Y-12100000D01*
X122660000Y-380000D02*
X122660000Y-12100000D01*
X117600000Y-380000D02*
X122660000Y-380000D01*
G04 #@! TO.C,J11*
X97550000Y-10190000D02*
X97850000Y-9590000D01*
X98150000Y-10190000D02*
X97550000Y-10190000D01*
X97850000Y-9590000D02*
X98150000Y-10190000D01*
X90100000Y-6490000D02*
X90600000Y-6490000D01*
X90100000Y-990000D02*
X90100000Y-6490000D01*
X90600000Y-990000D02*
X90100000Y-990000D01*
X90600000Y-6490000D02*
X90600000Y-990000D01*
X92600000Y-6490000D02*
X93100000Y-6490000D01*
X92600000Y-990000D02*
X92600000Y-6490000D01*
X93100000Y-990000D02*
X92600000Y-990000D01*
X93100000Y-6490000D02*
X93100000Y-990000D01*
X95100000Y-6490000D02*
X95600000Y-6490000D01*
X95100000Y-990000D02*
X95100000Y-6490000D01*
X95600000Y-990000D02*
X95100000Y-990000D01*
X95600000Y-6490000D02*
X95600000Y-990000D01*
X97600000Y-6490000D02*
X98100000Y-6490000D01*
X97600000Y-990000D02*
X97600000Y-6490000D01*
X98100000Y-990000D02*
X97600000Y-990000D01*
X98100000Y-6490000D02*
X98100000Y-990000D01*
X89210000Y-12100000D02*
X89210000Y-7600000D01*
X87790000Y-12100000D02*
X89210000Y-12100000D01*
X87790000Y-380000D02*
X87790000Y-12100000D01*
X94100000Y-380000D02*
X87790000Y-380000D01*
X98990000Y-12100000D02*
X98990000Y-7600000D01*
X100410000Y-12100000D02*
X98990000Y-12100000D01*
X100410000Y-380000D02*
X100410000Y-12100000D01*
X94100000Y-380000D02*
X100410000Y-380000D01*
G04 #@! TO.C,J6*
X81300000Y-10190000D02*
X81600000Y-9590000D01*
X81900000Y-10190000D02*
X81300000Y-10190000D01*
X81600000Y-9590000D02*
X81900000Y-10190000D01*
X78850000Y-6490000D02*
X79350000Y-6490000D01*
X78850000Y-990000D02*
X78850000Y-6490000D01*
X79350000Y-990000D02*
X78850000Y-990000D01*
X79350000Y-6490000D02*
X79350000Y-990000D01*
X81350000Y-6490000D02*
X81850000Y-6490000D01*
X81350000Y-990000D02*
X81350000Y-6490000D01*
X81850000Y-990000D02*
X81350000Y-990000D01*
X81850000Y-6490000D02*
X81850000Y-990000D01*
X77960000Y-12100000D02*
X77960000Y-7600000D01*
X76540000Y-12100000D02*
X77960000Y-12100000D01*
X76540000Y-380000D02*
X76540000Y-12100000D01*
X80350000Y-380000D02*
X76540000Y-380000D01*
X82740000Y-12100000D02*
X82740000Y-7600000D01*
X84160000Y-12100000D02*
X82740000Y-12100000D01*
X84160000Y-380000D02*
X84160000Y-12100000D01*
X80350000Y-380000D02*
X84160000Y-380000D01*
G04 #@! TO.C,J22*
X37300000Y-10190000D02*
X37600000Y-9590000D01*
X37900000Y-10190000D02*
X37300000Y-10190000D01*
X37600000Y-9590000D02*
X37900000Y-10190000D01*
X32350000Y-6490000D02*
X32850000Y-6490000D01*
X32350000Y-990000D02*
X32350000Y-6490000D01*
X32850000Y-990000D02*
X32350000Y-990000D01*
X32850000Y-6490000D02*
X32850000Y-990000D01*
X34850000Y-6490000D02*
X35350000Y-6490000D01*
X34850000Y-990000D02*
X34850000Y-6490000D01*
X35350000Y-990000D02*
X34850000Y-990000D01*
X35350000Y-6490000D02*
X35350000Y-990000D01*
X37350000Y-6490000D02*
X37850000Y-6490000D01*
X37350000Y-990000D02*
X37350000Y-6490000D01*
X37850000Y-990000D02*
X37350000Y-990000D01*
X37850000Y-6490000D02*
X37850000Y-990000D01*
X31460000Y-12100000D02*
X31460000Y-7600000D01*
X30040000Y-12100000D02*
X31460000Y-12100000D01*
X30040000Y-380000D02*
X30040000Y-12100000D01*
X35100000Y-380000D02*
X30040000Y-380000D01*
X38740000Y-12100000D02*
X38740000Y-7600000D01*
X40160000Y-12100000D02*
X38740000Y-12100000D01*
X40160000Y-380000D02*
X40160000Y-12100000D01*
X35100000Y-380000D02*
X40160000Y-380000D01*
D15*
G04 #@! TO.C,J16*
X14782800Y-178430980D02*
X14782800Y-167829020D01*
X14384020Y-167829020D02*
X14384020Y-178430980D01*
X9083040Y-167829020D02*
X9083040Y-178430980D01*
X8585200Y-178430980D02*
X8585200Y-167829020D01*
X9083040Y-175626820D02*
X8585200Y-175626820D01*
X9083040Y-173130000D02*
X8585200Y-173130000D01*
X8585200Y-168032220D02*
X9083040Y-168032220D01*
X9083040Y-178230320D02*
X8585200Y-178230320D01*
X8585200Y-170633180D02*
X9083040Y-170633180D01*
X8585200Y-178428440D02*
X14782800Y-178428440D01*
X14782800Y-167834100D02*
X8585200Y-167834100D01*
G04 #@! TO.C,J15*
X14782800Y-180834100D02*
X8585200Y-180834100D01*
X8585200Y-191428440D02*
X14782800Y-191428440D01*
X8585200Y-183633180D02*
X9083040Y-183633180D01*
X9083040Y-191230320D02*
X8585200Y-191230320D01*
X8585200Y-181032220D02*
X9083040Y-181032220D01*
X9083040Y-186130000D02*
X8585200Y-186130000D01*
X9083040Y-188626820D02*
X8585200Y-188626820D01*
X8585200Y-191430980D02*
X8585200Y-180829020D01*
X9083040Y-180829020D02*
X9083040Y-191430980D01*
X14384020Y-180829020D02*
X14384020Y-191430980D01*
X14782800Y-191430980D02*
X14782800Y-180829020D01*
G04 #@! TO.C,J13*
X9083040Y-203237840D02*
X8585200Y-203237840D01*
X8585200Y-206036920D02*
X8585200Y-192839080D01*
X9083040Y-192839080D02*
X9083040Y-206036920D01*
X14384020Y-192839080D02*
X14384020Y-206036920D01*
X14782800Y-206036920D02*
X14782800Y-192839080D01*
X9083040Y-200735940D02*
X8585200Y-200735940D01*
X9083040Y-198137520D02*
X8585200Y-198137520D01*
X8585200Y-193039740D02*
X9083040Y-193039740D01*
X9083040Y-205836260D02*
X8585200Y-205836260D01*
X8585200Y-195640700D02*
X9083040Y-195640700D01*
X8585200Y-206034380D02*
X14782800Y-206034380D01*
X14782800Y-192841620D02*
X8585200Y-192841620D01*
G04 #@! TO.C,J17*
X14782800Y-163430980D02*
X14782800Y-152829020D01*
X14384020Y-152829020D02*
X14384020Y-163430980D01*
X9083040Y-152829020D02*
X9083040Y-163430980D01*
X8585200Y-163430980D02*
X8585200Y-152829020D01*
X9083040Y-160626820D02*
X8585200Y-160626820D01*
X9083040Y-158130000D02*
X8585200Y-158130000D01*
X8585200Y-153032220D02*
X9083040Y-153032220D01*
X9083040Y-163230320D02*
X8585200Y-163230320D01*
X8585200Y-155633180D02*
X9083040Y-155633180D01*
X8585200Y-163428440D02*
X14782800Y-163428440D01*
X14782800Y-152834100D02*
X8585200Y-152834100D01*
G04 #@! TO.C,J3*
X42499080Y-128100960D02*
X36900920Y-128100960D01*
X37099040Y-128598800D02*
X37099040Y-128100960D01*
X42300960Y-128100960D02*
X42300960Y-128598800D01*
X39700000Y-128598800D02*
X39700000Y-128100960D01*
X36900920Y-122799980D02*
X42499080Y-122799980D01*
X36900920Y-128598800D02*
X42499080Y-128598800D01*
X42499080Y-128598800D02*
X42499080Y-122401200D01*
X42499080Y-122401200D02*
X36900920Y-122401200D01*
X36900920Y-122401200D02*
X36900920Y-128598800D01*
D16*
G04 #@! TO.C,U1*
X39053594Y-115415778D02*
G75*
G03X38553214Y-114915398I-500380J0D01*
G01*
X15053974Y-114915398D02*
G75*
G03X14553594Y-115415778I0J-500380D01*
G01*
X37096872Y-117881710D02*
X37096872Y-118881710D01*
X33396872Y-117881710D02*
X33396872Y-118881710D01*
X36096872Y-118881710D02*
X37096872Y-118881710D01*
X34496872Y-118881710D02*
X33396872Y-118881710D01*
X34496872Y-119981710D02*
X36096872Y-117781710D01*
X36096872Y-117781710D02*
X34496872Y-117781710D01*
X34496872Y-117781710D02*
X34496872Y-119981710D01*
X34496872Y-119981710D02*
X36096872Y-119981710D01*
X36096872Y-119981710D02*
X36096872Y-117781710D01*
X25366353Y-117946663D02*
X25366353Y-119346663D01*
X21066353Y-119346663D02*
X25366353Y-119346663D01*
X15366353Y-119346663D02*
X19666353Y-119346663D01*
X20366353Y-118246663D02*
X19366353Y-119546663D01*
X15366353Y-117946663D02*
X15366353Y-119346663D01*
X14553594Y-119915018D02*
X14553594Y-115415778D01*
X39053594Y-119915018D02*
X39053594Y-115415778D01*
X38553214Y-114915398D02*
X15053974Y-114915398D01*
X38553214Y-120415398D02*
X15053974Y-120415398D01*
X38553214Y-120415398D02*
G75*
G03X39053594Y-119915018I0J500380D01*
G01*
X14553594Y-119915018D02*
G75*
G03X15053974Y-120415398I500380J0D01*
G01*
G04 #@! TO.C,U2*
X39053594Y-102138179D02*
G75*
G03X38553214Y-101637799I-500380J0D01*
G01*
X15053974Y-101637799D02*
G75*
G03X14553594Y-102138179I0J-500380D01*
G01*
X37096872Y-104604111D02*
X37096872Y-105604111D01*
X33396872Y-104604111D02*
X33396872Y-105604111D01*
X36096872Y-105604111D02*
X37096872Y-105604111D01*
X34496872Y-105604111D02*
X33396872Y-105604111D01*
X34496872Y-106704111D02*
X36096872Y-104504111D01*
X36096872Y-104504111D02*
X34496872Y-104504111D01*
X34496872Y-104504111D02*
X34496872Y-106704111D01*
X34496872Y-106704111D02*
X36096872Y-106704111D01*
X36096872Y-106704111D02*
X36096872Y-104504111D01*
X25366353Y-104669064D02*
X25366353Y-106069064D01*
X21066353Y-106069064D02*
X25366353Y-106069064D01*
X15366353Y-106069064D02*
X19666353Y-106069064D01*
X20366353Y-104969064D02*
X19366353Y-106269064D01*
X15366353Y-104669064D02*
X15366353Y-106069064D01*
X14553594Y-106637419D02*
X14553594Y-102138179D01*
X39053594Y-106637419D02*
X39053594Y-102138179D01*
X38553214Y-101637799D02*
X15053974Y-101637799D01*
X38553214Y-107137799D02*
X15053974Y-107137799D01*
X38553214Y-107137799D02*
G75*
G03X39053594Y-106637419I0J500380D01*
G01*
X14553594Y-106637419D02*
G75*
G03X15053974Y-107137799I500380J0D01*
G01*
D13*
G04 #@! TO.C,R14*
X48221267Y-125160000D02*
X47878733Y-125160000D01*
X48221267Y-124140000D02*
X47878733Y-124140000D01*
G04 #@! TO.C,D11*
X40150000Y-134300000D02*
X40150000Y-136300000D01*
X40150000Y-136300000D02*
X44050000Y-136300000D01*
X40150000Y-134300000D02*
X44050000Y-134300000D01*
G04 #@! TO.C,J28*
X11563501Y-80372770D02*
X10963501Y-80072770D01*
X11563501Y-79772770D02*
X11563501Y-80372770D01*
X10963501Y-80072770D02*
X11563501Y-79772770D01*
X6263501Y-97822770D02*
X6263501Y-97322770D01*
X763501Y-97822770D02*
X6263501Y-97822770D01*
X763501Y-97322770D02*
X763501Y-97822770D01*
X6263501Y-97322770D02*
X763501Y-97322770D01*
X6263501Y-95322770D02*
X6263501Y-94822770D01*
X763501Y-95322770D02*
X6263501Y-95322770D01*
X763501Y-94822770D02*
X763501Y-95322770D01*
X6263501Y-94822770D02*
X763501Y-94822770D01*
X6263501Y-92822770D02*
X6263501Y-92322770D01*
X763501Y-92822770D02*
X6263501Y-92822770D01*
X763501Y-92322770D02*
X763501Y-92822770D01*
X6263501Y-92322770D02*
X763501Y-92322770D01*
X6263501Y-90322770D02*
X6263501Y-89822770D01*
X763501Y-90322770D02*
X6263501Y-90322770D01*
X763501Y-89822770D02*
X763501Y-90322770D01*
X6263501Y-89822770D02*
X763501Y-89822770D01*
X6263501Y-87822770D02*
X6263501Y-87322770D01*
X763501Y-87822770D02*
X6263501Y-87822770D01*
X763501Y-87322770D02*
X763501Y-87822770D01*
X6263501Y-87322770D02*
X763501Y-87322770D01*
X6263501Y-85322770D02*
X6263501Y-84822770D01*
X763501Y-85322770D02*
X6263501Y-85322770D01*
X763501Y-84822770D02*
X763501Y-85322770D01*
X6263501Y-84822770D02*
X763501Y-84822770D01*
X6263501Y-82822770D02*
X6263501Y-82322770D01*
X763501Y-82822770D02*
X6263501Y-82822770D01*
X763501Y-82322770D02*
X763501Y-82822770D01*
X6263501Y-82322770D02*
X763501Y-82322770D01*
X6263501Y-80322770D02*
X6263501Y-79822770D01*
X763501Y-80322770D02*
X6263501Y-80322770D01*
X763501Y-79822770D02*
X763501Y-80322770D01*
X6263501Y-79822770D02*
X763501Y-79822770D01*
X7373501Y-98712770D02*
X7373501Y-88822770D01*
X11873501Y-98712770D02*
X7373501Y-98712770D01*
X11873501Y-100132770D02*
X11873501Y-98712770D01*
X153501Y-100132770D02*
X11873501Y-100132770D01*
X153501Y-88822770D02*
X153501Y-100132770D01*
X7373501Y-78932770D02*
X7373501Y-88822770D01*
X11873501Y-78932770D02*
X7373501Y-78932770D01*
X11873501Y-77512770D02*
X11873501Y-78932770D01*
X153501Y-77512770D02*
X11873501Y-77512770D01*
X153501Y-88822770D02*
X153501Y-77512770D01*
G04 #@! TO.C,J4*
X11530000Y-30470000D02*
X10930000Y-30170000D01*
X11530000Y-29870000D02*
X11530000Y-30470000D01*
X10930000Y-30170000D02*
X11530000Y-29870000D01*
X6230000Y-47920000D02*
X6230000Y-47420000D01*
X730000Y-47920000D02*
X6230000Y-47920000D01*
X730000Y-47420000D02*
X730000Y-47920000D01*
X6230000Y-47420000D02*
X730000Y-47420000D01*
X6230000Y-45420000D02*
X6230000Y-44920000D01*
X730000Y-45420000D02*
X6230000Y-45420000D01*
X730000Y-44920000D02*
X730000Y-45420000D01*
X6230000Y-44920000D02*
X730000Y-44920000D01*
X6230000Y-42920000D02*
X6230000Y-42420000D01*
X730000Y-42920000D02*
X6230000Y-42920000D01*
X730000Y-42420000D02*
X730000Y-42920000D01*
X6230000Y-42420000D02*
X730000Y-42420000D01*
X6230000Y-40420000D02*
X6230000Y-39920000D01*
X730000Y-40420000D02*
X6230000Y-40420000D01*
X730000Y-39920000D02*
X730000Y-40420000D01*
X6230000Y-39920000D02*
X730000Y-39920000D01*
X6230000Y-37920000D02*
X6230000Y-37420000D01*
X730000Y-37920000D02*
X6230000Y-37920000D01*
X730000Y-37420000D02*
X730000Y-37920000D01*
X6230000Y-37420000D02*
X730000Y-37420000D01*
X6230000Y-35420000D02*
X6230000Y-34920000D01*
X730000Y-35420000D02*
X6230000Y-35420000D01*
X730000Y-34920000D02*
X730000Y-35420000D01*
X6230000Y-34920000D02*
X730000Y-34920000D01*
X6230000Y-32920000D02*
X6230000Y-32420000D01*
X730000Y-32920000D02*
X6230000Y-32920000D01*
X730000Y-32420000D02*
X730000Y-32920000D01*
X6230000Y-32420000D02*
X730000Y-32420000D01*
X6230000Y-30420000D02*
X6230000Y-29920000D01*
X730000Y-30420000D02*
X6230000Y-30420000D01*
X730000Y-29920000D02*
X730000Y-30420000D01*
X6230000Y-29920000D02*
X730000Y-29920000D01*
X7340000Y-48810000D02*
X7340000Y-38920000D01*
X11840000Y-48810000D02*
X7340000Y-48810000D01*
X11840000Y-50230000D02*
X11840000Y-48810000D01*
X120000Y-50230000D02*
X11840000Y-50230000D01*
X120000Y-38920000D02*
X120000Y-50230000D01*
X7340000Y-29030000D02*
X7340000Y-38920000D01*
X11840000Y-29030000D02*
X7340000Y-29030000D01*
X11840000Y-27610000D02*
X11840000Y-29030000D01*
X120000Y-27610000D02*
X11840000Y-27610000D01*
X120000Y-38920000D02*
X120000Y-27610000D01*
G04 #@! TO.C,J9*
X11613501Y-104267920D02*
X11013501Y-103967920D01*
X11613501Y-103667920D02*
X11613501Y-104267920D01*
X11013501Y-103967920D02*
X11613501Y-103667920D01*
X6313501Y-106717920D02*
X6313501Y-106217920D01*
X813501Y-106717920D02*
X6313501Y-106717920D01*
X813501Y-106217920D02*
X813501Y-106717920D01*
X6313501Y-106217920D02*
X813501Y-106217920D01*
X6313501Y-104217920D02*
X6313501Y-103717920D01*
X813501Y-104217920D02*
X6313501Y-104217920D01*
X813501Y-103717920D02*
X813501Y-104217920D01*
X6313501Y-103717920D02*
X813501Y-103717920D01*
X7423501Y-107607920D02*
X7423501Y-105217920D01*
X11923501Y-107607920D02*
X7423501Y-107607920D01*
X11923501Y-109027920D02*
X11923501Y-107607920D01*
X203501Y-109027920D02*
X11923501Y-109027920D01*
X203501Y-105217920D02*
X203501Y-109027920D01*
X7423501Y-102827920D02*
X7423501Y-105217920D01*
X11923501Y-102827920D02*
X7423501Y-102827920D01*
X11923501Y-101407920D02*
X11923501Y-102827920D01*
X203501Y-101407920D02*
X11923501Y-101407920D01*
X203501Y-105217920D02*
X203501Y-101407920D01*
G04 #@! TO.C,J8*
X11613501Y-117387920D02*
X11013501Y-117087920D01*
X11613501Y-116787920D02*
X11613501Y-117387920D01*
X11013501Y-117087920D02*
X11613501Y-116787920D01*
X6313501Y-119837920D02*
X6313501Y-119337920D01*
X813501Y-119837920D02*
X6313501Y-119837920D01*
X813501Y-119337920D02*
X813501Y-119837920D01*
X6313501Y-119337920D02*
X813501Y-119337920D01*
X6313501Y-117337920D02*
X6313501Y-116837920D01*
X813501Y-117337920D02*
X6313501Y-117337920D01*
X813501Y-116837920D02*
X813501Y-117337920D01*
X6313501Y-116837920D02*
X813501Y-116837920D01*
X7423501Y-120727920D02*
X7423501Y-118337920D01*
X11923501Y-120727920D02*
X7423501Y-120727920D01*
X11923501Y-122147920D02*
X11923501Y-120727920D01*
X203501Y-122147920D02*
X11923501Y-122147920D01*
X203501Y-118337920D02*
X203501Y-122147920D01*
X7423501Y-115947920D02*
X7423501Y-118337920D01*
X11923501Y-115947920D02*
X7423501Y-115947920D01*
X11923501Y-114527920D02*
X11923501Y-115947920D01*
X203501Y-114527920D02*
X11923501Y-114527920D01*
X203501Y-118337920D02*
X203501Y-114527920D01*
G04 #@! TO.C,R18*
X38188733Y-33800000D02*
X38531267Y-33800000D01*
X38188733Y-34820000D02*
X38531267Y-34820000D01*
G04 #@! TO.C,U6*
X95800000Y-18650000D02*
X97600000Y-18650000D01*
X97600000Y-15430000D02*
X95150000Y-15430000D01*
G04 #@! TO.C,D10*
X45200000Y-109635896D02*
X45200000Y-111335896D01*
X45200000Y-111335896D02*
X48350000Y-111335896D01*
X45200000Y-109635896D02*
X48350000Y-109635896D01*
G04 #@! TO.C,R28*
X46578733Y-113030000D02*
X46921267Y-113030000D01*
X46578733Y-114050000D02*
X46921267Y-114050000D01*
G04 #@! TO.C,U4*
X52408500Y-32877230D02*
X52408500Y-33297230D01*
X52408500Y-39997230D02*
X52408500Y-39577230D01*
X45288500Y-39997230D02*
X45288500Y-39577230D01*
X45288500Y-32877230D02*
X45708500Y-32877230D01*
X52408500Y-39997230D02*
X51988500Y-39997230D01*
X52408500Y-32877230D02*
X51988500Y-32877230D01*
X45288500Y-33297230D02*
X43908500Y-33297230D01*
X45288500Y-32877230D02*
X45288500Y-33297230D01*
X45288500Y-39997230D02*
X45708500Y-39997230D01*
G04 #@! TO.C,SW1*
X19362769Y-39368500D02*
X19332769Y-39368500D01*
X12902769Y-39368500D02*
X12932769Y-39368500D01*
X12902769Y-32908500D02*
X12932769Y-32908500D01*
X19332769Y-32908500D02*
X19362769Y-32908500D01*
X17432769Y-39368500D02*
X14832769Y-39368500D01*
X19362769Y-32908500D02*
X19362769Y-39368500D01*
X17432769Y-32908500D02*
X14832769Y-32908500D01*
X12902769Y-32908500D02*
X12902769Y-39368500D01*
G04 #@! TO.C,C7*
X28575000Y-14715000D02*
X28575000Y-15965000D01*
X27950000Y-15340000D02*
X29200000Y-15340000D01*
X29440000Y-22395563D02*
X30504437Y-23460000D01*
X29440000Y-13804437D02*
X30504437Y-12740000D01*
X29440000Y-13804437D02*
X29440000Y-16590000D01*
X29440000Y-22395563D02*
X29440000Y-19610000D01*
X30504437Y-23460000D02*
X40160000Y-23460000D01*
X30504437Y-12740000D02*
X40160000Y-12740000D01*
X40160000Y-12740000D02*
X40160000Y-16590000D01*
X40160000Y-23460000D02*
X40160000Y-19610000D01*
G04 #@! TO.C,C1*
X42140000Y-17340000D02*
X42140000Y-21190000D01*
X42140000Y-28060000D02*
X42140000Y-24210000D01*
X51795563Y-28060000D02*
X42140000Y-28060000D01*
X51795563Y-17340000D02*
X42140000Y-17340000D01*
X52860000Y-18404437D02*
X52860000Y-21190000D01*
X52860000Y-26995563D02*
X52860000Y-24210000D01*
X52860000Y-26995563D02*
X51795563Y-28060000D01*
X52860000Y-18404437D02*
X51795563Y-17340000D01*
X54350000Y-25460000D02*
X53100000Y-25460000D01*
X53725000Y-26085000D02*
X53725000Y-24835000D01*
G04 #@! TO.C,C21*
X15000000Y-92710000D02*
X15000000Y-95060000D01*
X15000000Y-99530000D02*
X15000000Y-97180000D01*
X20755563Y-99530000D02*
X15000000Y-99530000D01*
X20755563Y-92710000D02*
X15000000Y-92710000D01*
X21820000Y-93774437D02*
X21820000Y-95060000D01*
X21820000Y-98465563D02*
X21820000Y-97180000D01*
X21820000Y-98465563D02*
X20755563Y-99530000D01*
X21820000Y-93774437D02*
X20755563Y-92710000D01*
X22847500Y-97967500D02*
X22060000Y-97967500D01*
X22453750Y-98361250D02*
X22453750Y-97573750D01*
G04 #@! TO.C,C4*
X40361267Y-39510000D02*
X40018733Y-39510000D01*
X40361267Y-38490000D02*
X40018733Y-38490000D01*
G04 #@! TO.C,C6*
X52538500Y-41965963D02*
X52538500Y-42308497D01*
X53558500Y-41965963D02*
X53558500Y-42308497D01*
G04 #@! TO.C,C10*
X23171267Y-31410000D02*
X22828733Y-31410000D01*
X23171267Y-30390000D02*
X22828733Y-30390000D01*
G04 #@! TO.C,C11*
X16161503Y-42848500D02*
X16504037Y-42848500D01*
X16161503Y-41828500D02*
X16504037Y-41828500D01*
G04 #@! TO.C,C2*
X38491267Y-25120000D02*
X38148733Y-25120000D01*
X38491267Y-24100000D02*
X38148733Y-24100000D01*
G04 #@! TO.C,C3*
X45158500Y-30908497D02*
X45158500Y-30565963D01*
X44138500Y-30908497D02*
X44138500Y-30565963D01*
G04 #@! TO.C,C13*
X30858500Y-36265963D02*
X30858500Y-36608497D01*
X29838500Y-36265963D02*
X29838500Y-36608497D01*
G04 #@! TO.C,C14*
X32216487Y-29894540D02*
X31873953Y-29894540D01*
X32216487Y-30914540D02*
X31873953Y-30914540D01*
G04 #@! TO.C,C15*
X32216487Y-25414540D02*
X31873953Y-25414540D01*
X32216487Y-24394540D02*
X31873953Y-24394540D01*
G04 #@! TO.C,C5*
X54477233Y-32347230D02*
X54819767Y-32347230D01*
X54477233Y-31327230D02*
X54819767Y-31327230D01*
G04 #@! TO.C,C12*
X29838500Y-41808497D02*
X29838500Y-41465963D01*
X30858500Y-41808497D02*
X30858500Y-41465963D01*
G04 #@! TO.C,C18*
X12638748Y-56790000D02*
X13161252Y-56790000D01*
X12638748Y-58210000D02*
X13161252Y-58210000D01*
G04 #@! TO.C,C16*
X3298500Y-60225978D02*
X3298500Y-60748482D01*
X4718500Y-60225978D02*
X4718500Y-60748482D01*
G04 #@! TO.C,C17*
X4710000Y-64063748D02*
X4710000Y-64586252D01*
X3290000Y-64063748D02*
X3290000Y-64586252D01*
G04 #@! TO.C,C19*
X6690000Y-56338748D02*
X6690000Y-56861252D01*
X8110000Y-56338748D02*
X8110000Y-56861252D01*
G04 #@! TO.C,C20*
X3290000Y-68461252D02*
X3290000Y-67938748D01*
X4710000Y-68461252D02*
X4710000Y-67938748D01*
G04 #@! TO.C,C8*
X25485000Y-32465000D02*
X21400000Y-32465000D01*
X25485000Y-34335000D02*
X25485000Y-32465000D01*
X21400000Y-34335000D02*
X25485000Y-34335000D01*
G04 #@! TO.C,C9*
X21400000Y-29535000D02*
X25485000Y-29535000D01*
X25485000Y-29535000D02*
X25485000Y-27665000D01*
X25485000Y-27665000D02*
X21400000Y-27665000D01*
G04 #@! TO.C,J14*
X62341000Y-7802530D02*
X61516000Y-7802530D01*
X70471000Y-7802530D02*
X70471000Y-9602530D01*
X71296000Y-7802530D02*
X70471000Y-7802530D01*
X73451000Y-3292530D02*
X73451000Y-3832530D01*
X74476000Y-3292530D02*
X73451000Y-3292530D01*
X74476000Y-2182530D02*
X74476000Y-3292530D01*
X58336000Y-2182530D02*
X74476000Y-2182530D01*
X58336000Y-3292530D02*
X58336000Y-2182530D01*
X59361000Y-3292530D02*
X58336000Y-3292530D01*
X59361000Y-3832530D02*
X59361000Y-3292530D01*
G04 #@! TO.C,D4*
X73838500Y-19337230D02*
X73838500Y-17637230D01*
X73838500Y-17637230D02*
X70688500Y-17637230D01*
X73838500Y-19337230D02*
X70688500Y-19337230D01*
G04 #@! TO.C,BOOT1*
X41903231Y-53993500D02*
X42203231Y-53693500D01*
X41903231Y-53393500D02*
X41903231Y-53993500D01*
X42203231Y-53693500D02*
X41903231Y-53393500D01*
X42453231Y-52343500D02*
X44403231Y-52343500D01*
X42453231Y-57843500D02*
X42453231Y-52343500D01*
X44403231Y-57843500D02*
X42453231Y-57843500D01*
X44403231Y-52343500D02*
X44403231Y-57843500D01*
G04 #@! TO.C,BOOT0*
X40562771Y-25858500D02*
X40562771Y-31358500D01*
X40562771Y-31358500D02*
X38612771Y-31358500D01*
X38612771Y-31358500D02*
X38612771Y-25858500D01*
X38612771Y-25858500D02*
X40562771Y-25858500D01*
X38362771Y-27208500D02*
X38062771Y-26908500D01*
X38062771Y-26908500D02*
X38062771Y-27508500D01*
X38062771Y-27508500D02*
X38362771Y-27208500D01*
G04 #@! TO.C,D5*
X39180000Y-31865000D02*
X36720000Y-31865000D01*
X36720000Y-31865000D02*
X36720000Y-33335000D01*
X36720000Y-33335000D02*
X39180000Y-33335000D01*
G04 #@! TO.C,D9*
X29768500Y-45627230D02*
X26908500Y-45627230D01*
X29768500Y-47547230D02*
X29768500Y-45627230D01*
X26908500Y-47547230D02*
X29768500Y-47547230D01*
G04 #@! TO.C,D8*
X26908500Y-50547230D02*
X29768500Y-50547230D01*
X29768500Y-50547230D02*
X29768500Y-48627230D01*
X29768500Y-48627230D02*
X26908500Y-48627230D01*
G04 #@! TO.C,D7*
X1799244Y-23885318D02*
X1799244Y-26745318D01*
X1799244Y-26745318D02*
X3719244Y-26745318D01*
X3719244Y-26745318D02*
X3719244Y-23885318D01*
G04 #@! TO.C,D6*
X10132991Y-26745318D02*
X10132991Y-23885318D01*
X8212991Y-26745318D02*
X10132991Y-26745318D01*
X8212991Y-23885318D02*
X8212991Y-26745318D01*
G04 #@! TO.C,D3*
X49300000Y-125940000D02*
X46440000Y-125940000D01*
X46440000Y-125940000D02*
X46440000Y-127860000D01*
X46440000Y-127860000D02*
X49300000Y-127860000D01*
G04 #@! TO.C,D1*
X15250420Y-124896499D02*
X18110420Y-124896499D01*
X15250420Y-122976499D02*
X15250420Y-124896499D01*
X18110420Y-122976499D02*
X15250420Y-122976499D01*
G04 #@! TO.C,D2*
X18110420Y-109806499D02*
X15250420Y-109806499D01*
X15250420Y-109806499D02*
X15250420Y-111726499D01*
X15250420Y-111726499D02*
X18110420Y-111726499D01*
G04 #@! TO.C,U5*
X26910000Y-17390000D02*
X25650000Y-17390000D01*
X20090000Y-17390000D02*
X21350000Y-17390000D01*
X26910000Y-21150000D02*
X26910000Y-17390000D01*
X20090000Y-23400000D02*
X20090000Y-17390000D01*
G04 #@! TO.C,Q3*
X45626530Y-105232500D02*
X45626530Y-103772500D01*
X48786530Y-105232500D02*
X48786530Y-102072500D01*
X48786530Y-105232500D02*
X47856530Y-105232500D01*
X45626530Y-105232500D02*
X46556530Y-105232500D01*
G04 #@! TO.C,Q2*
X30933593Y-86757799D02*
X30933593Y-87687799D01*
X30933593Y-89917799D02*
X30933593Y-88987799D01*
X30933593Y-89917799D02*
X34093593Y-89917799D01*
X30933593Y-86757799D02*
X32393593Y-86757799D01*
G04 #@! TO.C,Q1*
X44523593Y-116947800D02*
X45983593Y-116947800D01*
X44523593Y-120107800D02*
X47683593Y-120107800D01*
X44523593Y-120107800D02*
X44523593Y-119177800D01*
X44523593Y-116947800D02*
X44523593Y-117877800D01*
G04 #@! TO.C,Q4*
X82840000Y-19440000D02*
X81910000Y-19440000D01*
X79680000Y-19440000D02*
X80610000Y-19440000D01*
X79680000Y-19440000D02*
X79680000Y-22600000D01*
X82840000Y-19440000D02*
X82840000Y-20900000D01*
G04 #@! TO.C,R7*
X16939153Y-121426499D02*
X17281687Y-121426499D01*
X16939153Y-122446499D02*
X17281687Y-122446499D01*
G04 #@! TO.C,R4*
X36624733Y-89980000D02*
X36967267Y-89980000D01*
X36624733Y-88960000D02*
X36967267Y-88960000D01*
G04 #@! TO.C,R8*
X16939152Y-108256499D02*
X17281686Y-108256499D01*
X16939152Y-109276499D02*
X17281686Y-109276499D01*
G04 #@! TO.C,R19*
X41452769Y-29837233D02*
X41452769Y-30179767D01*
X42472769Y-29837233D02*
X42472769Y-30179767D01*
G04 #@! TO.C,R3*
X51337327Y-120037801D02*
X51679861Y-120037801D01*
X51337327Y-119017801D02*
X51679861Y-119017801D01*
G04 #@! TO.C,R2*
X54707233Y-5787230D02*
X55049767Y-5787230D01*
X54707233Y-6807230D02*
X55049767Y-6807230D01*
G04 #@! TO.C,R17*
X76697233Y-16597230D02*
X77039767Y-16597230D01*
X76697233Y-15577230D02*
X77039767Y-15577230D01*
G04 #@! TO.C,R1*
X54707233Y-7667230D02*
X55049767Y-7667230D01*
X54707233Y-8687230D02*
X55049767Y-8687230D01*
G04 #@! TO.C,R16*
X72309767Y-14977230D02*
X71967233Y-14977230D01*
X72309767Y-15997230D02*
X71967233Y-15997230D01*
G04 #@! TO.C,R5*
X51254860Y-117737799D02*
X50912326Y-117737799D01*
X51254860Y-116717799D02*
X50912326Y-116717799D01*
G04 #@! TO.C,R15*
X77339767Y-18977230D02*
X76997233Y-18977230D01*
X77339767Y-19997230D02*
X76997233Y-19997230D01*
G04 #@! TO.C,R6*
X37177267Y-86530000D02*
X36834733Y-86530000D01*
X37177267Y-87550000D02*
X36834733Y-87550000D01*
G04 #@! TO.C,R23*
X4849244Y-25301585D02*
X4849244Y-24959051D01*
X5869244Y-25301585D02*
X5869244Y-24959051D01*
G04 #@! TO.C,R24*
X22437233Y-49077230D02*
X22779767Y-49077230D01*
X22437233Y-50097230D02*
X22779767Y-50097230D01*
G04 #@! TO.C,R25*
X22437233Y-47097230D02*
X22779767Y-47097230D01*
X22437233Y-46077230D02*
X22779767Y-46077230D01*
G04 #@! TO.C,R26*
X18118733Y-84530000D02*
X18461267Y-84530000D01*
X18118733Y-83510000D02*
X18461267Y-83510000D01*
G04 #@! TO.C,R27*
X14621267Y-75700000D02*
X14278733Y-75700000D01*
X14621267Y-74680000D02*
X14278733Y-74680000D01*
G04 #@! TO.C,R22*
X16504037Y-43690000D02*
X16161503Y-43690000D01*
X16504037Y-44710000D02*
X16161503Y-44710000D01*
G04 #@! TO.C,R21*
X11262991Y-25301585D02*
X11262991Y-24959051D01*
X12282991Y-25301585D02*
X12282991Y-24959051D01*
G04 #@! TO.C,R9*
X42307267Y-111500000D02*
X41964733Y-111500000D01*
X42307267Y-112520000D02*
X41964733Y-112520000D01*
G04 #@! TO.C,R10*
X27067267Y-87150000D02*
X26724733Y-87150000D01*
X27067267Y-88170000D02*
X26724733Y-88170000D01*
G04 #@! TO.C,R11*
X51335261Y-104382500D02*
X51677795Y-104382500D01*
X51335261Y-103362500D02*
X51677795Y-103362500D01*
G04 #@! TO.C,R12*
X47377795Y-100482501D02*
X47035261Y-100482501D01*
X47377795Y-99462501D02*
X47035261Y-99462501D01*
G04 #@! TO.C,R20*
X47213231Y-56464767D02*
X47213231Y-56122233D01*
X46193231Y-56464767D02*
X46193231Y-56122233D01*
G04 #@! TO.C,R13*
X47928733Y-128990000D02*
X48271267Y-128990000D01*
X47928733Y-130010000D02*
X48271267Y-130010000D01*
D17*
G04 #@! TO.C,Y2*
X35820220Y-28154540D02*
G75*
G02X35820220Y-27154540I0J500000D01*
G01*
X30620220Y-26154540D02*
X33420220Y-26154540D01*
X33420220Y-29154540D02*
X30620220Y-29154540D01*
D13*
G04 #@! TO.C,U7*
X8978500Y-58522231D02*
X8978500Y-58922231D01*
X8978500Y-58922231D02*
X7578500Y-58922231D01*
X8978500Y-58522231D02*
X13778500Y-58522231D01*
X8978500Y-69322231D02*
X13778500Y-69322231D01*
G04 #@! TO.C,J2*
X176669998Y-223670000D02*
X181869998Y-223670000D01*
X176669998Y-238970000D02*
X176669998Y-223670000D01*
X181869998Y-241570000D02*
X181869998Y-223670000D01*
X176669998Y-238970000D02*
X179269998Y-238970000D01*
X179269998Y-238970000D02*
X179269998Y-241570000D01*
X179269998Y-241570000D02*
X181869998Y-241570000D01*
X176669998Y-240240000D02*
X176669998Y-241570000D01*
X176669998Y-241570000D02*
X177999998Y-241570000D01*
G04 #@! TO.C,J18*
X125495998Y-274828000D02*
X125495998Y-273498000D01*
X126825998Y-274828000D02*
X125495998Y-274828000D01*
X128095998Y-274828000D02*
X128095998Y-272168000D01*
X128095998Y-272168000D02*
X176415998Y-272168000D01*
X128095998Y-274828000D02*
X176415998Y-274828000D01*
X176415998Y-274828000D02*
X176415998Y-272168000D01*
G04 #@! TO.C,J1*
X87770000Y-96230000D02*
X87770000Y-94900000D01*
X89100000Y-96230000D02*
X87770000Y-96230000D01*
X87770000Y-93630000D02*
X87770000Y-91030000D01*
X90370000Y-93630000D02*
X87770000Y-93630000D01*
X90370000Y-96230000D02*
X90370000Y-93630000D01*
X87770000Y-91030000D02*
X105670000Y-91030000D01*
X90370000Y-96230000D02*
X105670000Y-96230000D01*
X105670000Y-96230000D02*
X105670000Y-91030000D01*
G04 #@! TO.C,J23*
X38380000Y-73135000D02*
X38380000Y-71805000D01*
X39710000Y-73135000D02*
X38380000Y-73135000D01*
X40980000Y-73135000D02*
X40980000Y-70475000D01*
X40980000Y-70475000D02*
X46120000Y-70475000D01*
X40980000Y-73135000D02*
X46120000Y-73135000D01*
X46120000Y-73135000D02*
X46120000Y-70475000D01*
G04 #@! TD*
G04 #@! TO.C,U3*
D18*
X49672380Y-12908024D02*
X50672380Y-12574691D01*
X49672380Y-12241357D01*
X50577142Y-11336595D02*
X50624761Y-11384214D01*
X50672380Y-11527071D01*
X50672380Y-11622310D01*
X50624761Y-11765167D01*
X50529523Y-11860405D01*
X50434285Y-11908024D01*
X50243809Y-11955643D01*
X50100952Y-11955643D01*
X49910476Y-11908024D01*
X49815238Y-11860405D01*
X49720000Y-11765167D01*
X49672380Y-11622310D01*
X49672380Y-11527071D01*
X49720000Y-11384214D01*
X49767619Y-11336595D01*
X50577142Y-10336595D02*
X50624761Y-10384214D01*
X50672380Y-10527071D01*
X50672380Y-10622310D01*
X50624761Y-10765167D01*
X50529523Y-10860405D01*
X50434285Y-10908024D01*
X50243809Y-10955643D01*
X50100952Y-10955643D01*
X49910476Y-10908024D01*
X49815238Y-10860405D01*
X49720000Y-10765167D01*
X49672380Y-10622310D01*
X49672380Y-10527071D01*
X49720000Y-10384214D01*
X49767619Y-10336595D01*
X44640000Y-12431833D02*
X44592380Y-12527071D01*
X44592380Y-12669929D01*
X44640000Y-12812786D01*
X44735238Y-12908024D01*
X44830476Y-12955643D01*
X45020952Y-13003262D01*
X45163809Y-13003262D01*
X45354285Y-12955643D01*
X45449523Y-12908024D01*
X45544761Y-12812786D01*
X45592380Y-12669929D01*
X45592380Y-12574690D01*
X45544761Y-12431833D01*
X45497142Y-12384214D01*
X45163809Y-12384214D01*
X45163809Y-12574690D01*
X45592380Y-11955643D02*
X44592380Y-11955643D01*
X45592380Y-11384214D01*
X44592380Y-11384214D01*
X45592380Y-10908024D02*
X44592380Y-10908024D01*
X44592380Y-10669929D01*
X44640000Y-10527071D01*
X44735238Y-10431833D01*
X44830476Y-10384214D01*
X45020952Y-10336595D01*
X45163809Y-10336595D01*
X45354285Y-10384214D01*
X45449523Y-10431833D01*
X45544761Y-10527071D01*
X45592380Y-10669929D01*
X45592380Y-10908024D01*
X44690800Y-2771738D02*
X44643180Y-2866976D01*
X44643180Y-3009834D01*
X44690800Y-3152691D01*
X44786038Y-3247929D01*
X44881276Y-3295548D01*
X45071752Y-3343167D01*
X45214609Y-3343167D01*
X45405085Y-3295548D01*
X45500323Y-3247929D01*
X45595561Y-3152691D01*
X45643180Y-3009834D01*
X45643180Y-2914595D01*
X45595561Y-2771738D01*
X45547942Y-2724119D01*
X45214609Y-2724119D01*
X45214609Y-2914595D01*
X45643180Y-2295548D02*
X44643180Y-2295548D01*
X45643180Y-1724119D01*
X44643180Y-1724119D01*
X45643180Y-1247929D02*
X44643180Y-1247929D01*
X44643180Y-1009834D01*
X44690800Y-866976D01*
X44786038Y-771738D01*
X44881276Y-724119D01*
X45071752Y-676500D01*
X45214609Y-676500D01*
X45405085Y-724119D01*
X45500323Y-771738D01*
X45595561Y-866976D01*
X45643180Y-1009834D01*
X45643180Y-1247929D01*
X43055561Y-14574690D02*
X43103180Y-14431833D01*
X43103180Y-14193738D01*
X43055561Y-14098500D01*
X43007942Y-14050881D01*
X42912704Y-14003262D01*
X42817466Y-14003262D01*
X42722228Y-14050881D01*
X42674609Y-14098500D01*
X42626990Y-14193738D01*
X42579371Y-14384214D01*
X42531752Y-14479452D01*
X42484133Y-14527071D01*
X42388895Y-14574690D01*
X42293657Y-14574690D01*
X42198419Y-14527071D01*
X42150800Y-14479452D01*
X42103180Y-14384214D01*
X42103180Y-14146119D01*
X42150800Y-14003262D01*
X42103180Y-13669928D02*
X43103180Y-13431833D01*
X42388895Y-13241357D01*
X43103180Y-13050881D01*
X42103180Y-12812785D01*
X43103180Y-12431833D02*
X42103180Y-12431833D01*
X42103180Y-12193738D01*
X42150800Y-12050881D01*
X42246038Y-11955643D01*
X42341276Y-11908023D01*
X42531752Y-11860404D01*
X42674609Y-11860404D01*
X42865085Y-11908023D01*
X42960323Y-11955643D01*
X43055561Y-12050881D01*
X43103180Y-12193738D01*
X43103180Y-12431833D01*
X43103180Y-11431833D02*
X42103180Y-11431833D01*
X42103180Y-10765166D02*
X42103180Y-10574690D01*
X42150800Y-10479452D01*
X42246038Y-10384214D01*
X42436514Y-10336595D01*
X42769847Y-10336595D01*
X42960323Y-10384214D01*
X43055561Y-10479452D01*
X43103180Y-10574690D01*
X43103180Y-10765166D01*
X43055561Y-10860404D01*
X42960323Y-10955643D01*
X42769847Y-11003262D01*
X42436514Y-11003262D01*
X42246038Y-10955643D01*
X42150800Y-10860404D01*
X42103180Y-10765166D01*
X48084761Y-14860404D02*
X48132380Y-14717547D01*
X48132380Y-14479452D01*
X48084761Y-14384214D01*
X48037142Y-14336595D01*
X47941904Y-14288976D01*
X47846666Y-14288976D01*
X47751428Y-14336595D01*
X47703809Y-14384214D01*
X47656190Y-14479452D01*
X47608571Y-14669928D01*
X47560952Y-14765166D01*
X47513333Y-14812785D01*
X47418095Y-14860404D01*
X47322857Y-14860404D01*
X47227619Y-14812785D01*
X47180000Y-14765166D01*
X47132380Y-14669928D01*
X47132380Y-14431833D01*
X47180000Y-14288976D01*
X47132380Y-13955642D02*
X48132380Y-13717547D01*
X47418095Y-13527071D01*
X48132380Y-13336595D01*
X47132380Y-13098500D01*
X48037142Y-12146119D02*
X48084761Y-12193738D01*
X48132380Y-12336595D01*
X48132380Y-12431833D01*
X48084761Y-12574690D01*
X47989523Y-12669928D01*
X47894285Y-12717547D01*
X47703809Y-12765166D01*
X47560952Y-12765166D01*
X47370476Y-12717547D01*
X47275238Y-12669928D01*
X47180000Y-12574690D01*
X47132380Y-12431833D01*
X47132380Y-12336595D01*
X47180000Y-12193738D01*
X47227619Y-12146119D01*
X48132380Y-11241357D02*
X48132380Y-11717547D01*
X47132380Y-11717547D01*
X48132380Y-10908023D02*
X47132380Y-10908023D01*
X48132380Y-10336595D02*
X47560952Y-10765166D01*
X47132380Y-10336595D02*
X47703809Y-10908023D01*
X43103180Y-2724119D02*
X42626990Y-3057452D01*
X43103180Y-3295547D02*
X42103180Y-3295547D01*
X42103180Y-2914595D01*
X42150800Y-2819357D01*
X42198419Y-2771738D01*
X42293657Y-2724119D01*
X42436514Y-2724119D01*
X42531752Y-2771738D01*
X42579371Y-2819357D01*
X42626990Y-2914595D01*
X42626990Y-3295547D01*
X43055561Y-2343166D02*
X43103180Y-2200309D01*
X43103180Y-1962214D01*
X43055561Y-1866976D01*
X43007942Y-1819357D01*
X42912704Y-1771738D01*
X42817466Y-1771738D01*
X42722228Y-1819357D01*
X42674609Y-1866976D01*
X42626990Y-1962214D01*
X42579371Y-2152690D01*
X42531752Y-2247928D01*
X42484133Y-2295547D01*
X42388895Y-2343166D01*
X42293657Y-2343166D01*
X42198419Y-2295547D01*
X42150800Y-2247928D01*
X42103180Y-2152690D01*
X42103180Y-1914595D01*
X42150800Y-1771738D01*
X42103180Y-1486023D02*
X42103180Y-914595D01*
X43103180Y-1200309D02*
X42103180Y-1200309D01*
X48135561Y-3343166D02*
X48183180Y-3200309D01*
X48183180Y-2962214D01*
X48135561Y-2866976D01*
X48087942Y-2819357D01*
X47992704Y-2771738D01*
X47897466Y-2771738D01*
X47802228Y-2819357D01*
X47754609Y-2866976D01*
X47706990Y-2962214D01*
X47659371Y-3152690D01*
X47611752Y-3247928D01*
X47564133Y-3295547D01*
X47468895Y-3343166D01*
X47373657Y-3343166D01*
X47278419Y-3295547D01*
X47230800Y-3247928D01*
X47183180Y-3152690D01*
X47183180Y-2914595D01*
X47230800Y-2771738D01*
X47183180Y-2438404D02*
X48183180Y-2200309D01*
X47468895Y-2009833D01*
X48183180Y-1819357D01*
X47183180Y-1581261D01*
X48183180Y-1200309D02*
X47183180Y-1200309D01*
X48183180Y-724119D02*
X47183180Y-724119D01*
X47897466Y-390785D01*
X47183180Y-57452D01*
X48183180Y-57452D01*
X49723180Y-3438405D02*
X50723180Y-3105072D01*
X49723180Y-2771738D01*
X50627942Y-1866976D02*
X50675561Y-1914595D01*
X50723180Y-2057452D01*
X50723180Y-2152691D01*
X50675561Y-2295548D01*
X50580323Y-2390786D01*
X50485085Y-2438405D01*
X50294609Y-2486024D01*
X50151752Y-2486024D01*
X49961276Y-2438405D01*
X49866038Y-2390786D01*
X49770800Y-2295548D01*
X49723180Y-2152691D01*
X49723180Y-2057452D01*
X49770800Y-1914595D01*
X49818419Y-1866976D01*
X50627942Y-866976D02*
X50675561Y-914595D01*
X50723180Y-1057452D01*
X50723180Y-1152691D01*
X50675561Y-1295548D01*
X50580323Y-1390786D01*
X50485085Y-1438405D01*
X50294609Y-1486024D01*
X50151752Y-1486024D01*
X49961276Y-1438405D01*
X49866038Y-1390786D01*
X49770800Y-1295548D01*
X49723180Y-1152691D01*
X49723180Y-1057452D01*
X49770800Y-914595D01*
X49818419Y-866976D01*
G04 #@! TO.C,J16*
X2929238Y-169724761D02*
X3072095Y-169772380D01*
X3310190Y-169772380D01*
X3405428Y-169724761D01*
X3453047Y-169677142D01*
X3500666Y-169581904D01*
X3500666Y-169486666D01*
X3453047Y-169391428D01*
X3405428Y-169343809D01*
X3310190Y-169296190D01*
X3119714Y-169248571D01*
X3024476Y-169200952D01*
X2976857Y-169153333D01*
X2929238Y-169058095D01*
X2929238Y-168962857D01*
X2976857Y-168867619D01*
X3024476Y-168820000D01*
X3119714Y-168772380D01*
X3357809Y-168772380D01*
X3500666Y-168820000D01*
X3929238Y-169772380D02*
X3929238Y-168772380D01*
X3929238Y-169248571D02*
X4500666Y-169248571D01*
X4500666Y-169772380D02*
X4500666Y-168772380D01*
X4976857Y-169772380D02*
X4976857Y-168772380D01*
X5453047Y-169248571D02*
X5786380Y-169248571D01*
X5929238Y-169772380D02*
X5453047Y-169772380D01*
X5453047Y-168772380D01*
X5929238Y-168772380D01*
X6834000Y-169772380D02*
X6357809Y-169772380D01*
X6357809Y-168772380D01*
X7167333Y-169772380D02*
X7167333Y-168772380D01*
X7405428Y-168772380D01*
X7548285Y-168820000D01*
X7643523Y-168915238D01*
X7691142Y-169010476D01*
X7738761Y-169200952D01*
X7738761Y-169343809D01*
X7691142Y-169534285D01*
X7643523Y-169629523D01*
X7548285Y-169724761D01*
X7405428Y-169772380D01*
X7167333Y-169772380D01*
X2572095Y-172264761D02*
X2714952Y-172312380D01*
X2953047Y-172312380D01*
X3048285Y-172264761D01*
X3095904Y-172217142D01*
X3143523Y-172121904D01*
X3143523Y-172026666D01*
X3095904Y-171931428D01*
X3048285Y-171883809D01*
X2953047Y-171836190D01*
X2762571Y-171788571D01*
X2667333Y-171740952D01*
X2619714Y-171693333D01*
X2572095Y-171598095D01*
X2572095Y-171502857D01*
X2619714Y-171407619D01*
X2667333Y-171360000D01*
X2762571Y-171312380D01*
X3000666Y-171312380D01*
X3143523Y-171360000D01*
X3572095Y-171788571D02*
X3905428Y-171788571D01*
X4048285Y-172312380D02*
X3572095Y-172312380D01*
X3572095Y-171312380D01*
X4048285Y-171312380D01*
X4476857Y-172312380D02*
X4476857Y-171312380D01*
X5048285Y-172312380D01*
X5048285Y-171312380D01*
X5476857Y-172264761D02*
X5619714Y-172312380D01*
X5857809Y-172312380D01*
X5953047Y-172264761D01*
X6000666Y-172217142D01*
X6048285Y-172121904D01*
X6048285Y-172026666D01*
X6000666Y-171931428D01*
X5953047Y-171883809D01*
X5857809Y-171836190D01*
X5667333Y-171788571D01*
X5572095Y-171740952D01*
X5524476Y-171693333D01*
X5476857Y-171598095D01*
X5476857Y-171502857D01*
X5524476Y-171407619D01*
X5572095Y-171360000D01*
X5667333Y-171312380D01*
X5905428Y-171312380D01*
X6048285Y-171360000D01*
X6667333Y-171312380D02*
X6857809Y-171312380D01*
X6953047Y-171360000D01*
X7048285Y-171455238D01*
X7095904Y-171645714D01*
X7095904Y-171979047D01*
X7048285Y-172169523D01*
X6953047Y-172264761D01*
X6857809Y-172312380D01*
X6667333Y-172312380D01*
X6572095Y-172264761D01*
X6476857Y-172169523D01*
X6429238Y-171979047D01*
X6429238Y-171645714D01*
X6476857Y-171455238D01*
X6572095Y-171360000D01*
X6667333Y-171312380D01*
X8095904Y-172312380D02*
X7762571Y-171836190D01*
X7524476Y-172312380D02*
X7524476Y-171312380D01*
X7905428Y-171312380D01*
X8000666Y-171360000D01*
X8048285Y-171407619D01*
X8095904Y-171502857D01*
X8095904Y-171645714D01*
X8048285Y-171740952D01*
X8000666Y-171788571D01*
X7905428Y-171836190D01*
X7524476Y-171836190D01*
X5143523Y-173852380D02*
X4667333Y-173852380D01*
X4619714Y-174328571D01*
X4667333Y-174280952D01*
X4762571Y-174233333D01*
X5000666Y-174233333D01*
X5095904Y-174280952D01*
X5143523Y-174328571D01*
X5191142Y-174423809D01*
X5191142Y-174661904D01*
X5143523Y-174757142D01*
X5095904Y-174804761D01*
X5000666Y-174852380D01*
X4762571Y-174852380D01*
X4667333Y-174804761D01*
X4619714Y-174757142D01*
X5476857Y-173852380D02*
X5810190Y-174852380D01*
X6143523Y-173852380D01*
X4572095Y-176440000D02*
X4476857Y-176392380D01*
X4334000Y-176392380D01*
X4191142Y-176440000D01*
X4095904Y-176535238D01*
X4048285Y-176630476D01*
X4000666Y-176820952D01*
X4000666Y-176963809D01*
X4048285Y-177154285D01*
X4095904Y-177249523D01*
X4191142Y-177344761D01*
X4334000Y-177392380D01*
X4429238Y-177392380D01*
X4572095Y-177344761D01*
X4619714Y-177297142D01*
X4619714Y-176963809D01*
X4429238Y-176963809D01*
X5048285Y-177392380D02*
X5048285Y-176392380D01*
X5619714Y-177392380D01*
X5619714Y-176392380D01*
X6095904Y-177392380D02*
X6095904Y-176392380D01*
X6334000Y-176392380D01*
X6476857Y-176440000D01*
X6572095Y-176535238D01*
X6619714Y-176630476D01*
X6667333Y-176820952D01*
X6667333Y-176963809D01*
X6619714Y-177154285D01*
X6572095Y-177249523D01*
X6476857Y-177344761D01*
X6334000Y-177392380D01*
X6095904Y-177392380D01*
G04 #@! TO.C,J15*
X4572095Y-189440000D02*
X4476857Y-189392380D01*
X4334000Y-189392380D01*
X4191142Y-189440000D01*
X4095904Y-189535238D01*
X4048285Y-189630476D01*
X4000666Y-189820952D01*
X4000666Y-189963809D01*
X4048285Y-190154285D01*
X4095904Y-190249523D01*
X4191142Y-190344761D01*
X4334000Y-190392380D01*
X4429238Y-190392380D01*
X4572095Y-190344761D01*
X4619714Y-190297142D01*
X4619714Y-189963809D01*
X4429238Y-189963809D01*
X5048285Y-190392380D02*
X5048285Y-189392380D01*
X5619714Y-190392380D01*
X5619714Y-189392380D01*
X6095904Y-190392380D02*
X6095904Y-189392380D01*
X6334000Y-189392380D01*
X6476857Y-189440000D01*
X6572095Y-189535238D01*
X6619714Y-189630476D01*
X6667333Y-189820952D01*
X6667333Y-189963809D01*
X6619714Y-190154285D01*
X6572095Y-190249523D01*
X6476857Y-190344761D01*
X6334000Y-190392380D01*
X6095904Y-190392380D01*
X5143523Y-186852380D02*
X4667333Y-186852380D01*
X4619714Y-187328571D01*
X4667333Y-187280952D01*
X4762571Y-187233333D01*
X5000666Y-187233333D01*
X5095904Y-187280952D01*
X5143523Y-187328571D01*
X5191142Y-187423809D01*
X5191142Y-187661904D01*
X5143523Y-187757142D01*
X5095904Y-187804761D01*
X5000666Y-187852380D01*
X4762571Y-187852380D01*
X4667333Y-187804761D01*
X4619714Y-187757142D01*
X5476857Y-186852380D02*
X5810190Y-187852380D01*
X6143523Y-186852380D01*
X2572095Y-185264761D02*
X2714952Y-185312380D01*
X2953047Y-185312380D01*
X3048285Y-185264761D01*
X3095904Y-185217142D01*
X3143523Y-185121904D01*
X3143523Y-185026666D01*
X3095904Y-184931428D01*
X3048285Y-184883809D01*
X2953047Y-184836190D01*
X2762571Y-184788571D01*
X2667333Y-184740952D01*
X2619714Y-184693333D01*
X2572095Y-184598095D01*
X2572095Y-184502857D01*
X2619714Y-184407619D01*
X2667333Y-184360000D01*
X2762571Y-184312380D01*
X3000666Y-184312380D01*
X3143523Y-184360000D01*
X3572095Y-184788571D02*
X3905428Y-184788571D01*
X4048285Y-185312380D02*
X3572095Y-185312380D01*
X3572095Y-184312380D01*
X4048285Y-184312380D01*
X4476857Y-185312380D02*
X4476857Y-184312380D01*
X5048285Y-185312380D01*
X5048285Y-184312380D01*
X5476857Y-185264761D02*
X5619714Y-185312380D01*
X5857809Y-185312380D01*
X5953047Y-185264761D01*
X6000666Y-185217142D01*
X6048285Y-185121904D01*
X6048285Y-185026666D01*
X6000666Y-184931428D01*
X5953047Y-184883809D01*
X5857809Y-184836190D01*
X5667333Y-184788571D01*
X5572095Y-184740952D01*
X5524476Y-184693333D01*
X5476857Y-184598095D01*
X5476857Y-184502857D01*
X5524476Y-184407619D01*
X5572095Y-184360000D01*
X5667333Y-184312380D01*
X5905428Y-184312380D01*
X6048285Y-184360000D01*
X6667333Y-184312380D02*
X6857809Y-184312380D01*
X6953047Y-184360000D01*
X7048285Y-184455238D01*
X7095904Y-184645714D01*
X7095904Y-184979047D01*
X7048285Y-185169523D01*
X6953047Y-185264761D01*
X6857809Y-185312380D01*
X6667333Y-185312380D01*
X6572095Y-185264761D01*
X6476857Y-185169523D01*
X6429238Y-184979047D01*
X6429238Y-184645714D01*
X6476857Y-184455238D01*
X6572095Y-184360000D01*
X6667333Y-184312380D01*
X8095904Y-185312380D02*
X7762571Y-184836190D01*
X7524476Y-185312380D02*
X7524476Y-184312380D01*
X7905428Y-184312380D01*
X8000666Y-184360000D01*
X8048285Y-184407619D01*
X8095904Y-184502857D01*
X8095904Y-184645714D01*
X8048285Y-184740952D01*
X8000666Y-184788571D01*
X7905428Y-184836190D01*
X7524476Y-184836190D01*
X2929238Y-182724761D02*
X3072095Y-182772380D01*
X3310190Y-182772380D01*
X3405428Y-182724761D01*
X3453047Y-182677142D01*
X3500666Y-182581904D01*
X3500666Y-182486666D01*
X3453047Y-182391428D01*
X3405428Y-182343809D01*
X3310190Y-182296190D01*
X3119714Y-182248571D01*
X3024476Y-182200952D01*
X2976857Y-182153333D01*
X2929238Y-182058095D01*
X2929238Y-181962857D01*
X2976857Y-181867619D01*
X3024476Y-181820000D01*
X3119714Y-181772380D01*
X3357809Y-181772380D01*
X3500666Y-181820000D01*
X3929238Y-182772380D02*
X3929238Y-181772380D01*
X3929238Y-182248571D02*
X4500666Y-182248571D01*
X4500666Y-182772380D02*
X4500666Y-181772380D01*
X4976857Y-182772380D02*
X4976857Y-181772380D01*
X5453047Y-182248571D02*
X5786380Y-182248571D01*
X5929238Y-182772380D02*
X5453047Y-182772380D01*
X5453047Y-181772380D01*
X5929238Y-181772380D01*
X6834000Y-182772380D02*
X6357809Y-182772380D01*
X6357809Y-181772380D01*
X7167333Y-182772380D02*
X7167333Y-181772380D01*
X7405428Y-181772380D01*
X7548285Y-181820000D01*
X7643523Y-181915238D01*
X7691142Y-182010476D01*
X7738761Y-182200952D01*
X7738761Y-182343809D01*
X7691142Y-182534285D01*
X7643523Y-182629523D01*
X7548285Y-182724761D01*
X7405428Y-182772380D01*
X7167333Y-182772380D01*
G04 #@! TO.C,J13*
X4572095Y-204018000D02*
X4476857Y-203970380D01*
X4334000Y-203970380D01*
X4191142Y-204018000D01*
X4095904Y-204113238D01*
X4048285Y-204208476D01*
X4000666Y-204398952D01*
X4000666Y-204541809D01*
X4048285Y-204732285D01*
X4095904Y-204827523D01*
X4191142Y-204922761D01*
X4334000Y-204970380D01*
X4429238Y-204970380D01*
X4572095Y-204922761D01*
X4619714Y-204875142D01*
X4619714Y-204541809D01*
X4429238Y-204541809D01*
X5048285Y-204970380D02*
X5048285Y-203970380D01*
X5619714Y-204970380D01*
X5619714Y-203970380D01*
X6095904Y-204970380D02*
X6095904Y-203970380D01*
X6334000Y-203970380D01*
X6476857Y-204018000D01*
X6572095Y-204113238D01*
X6619714Y-204208476D01*
X6667333Y-204398952D01*
X6667333Y-204541809D01*
X6619714Y-204732285D01*
X6572095Y-204827523D01*
X6476857Y-204922761D01*
X6334000Y-204970380D01*
X6095904Y-204970380D01*
X4143523Y-201525619D02*
X4191142Y-201478000D01*
X4286380Y-201430380D01*
X4524476Y-201430380D01*
X4619714Y-201478000D01*
X4667333Y-201525619D01*
X4714952Y-201620857D01*
X4714952Y-201716095D01*
X4667333Y-201858952D01*
X4095904Y-202430380D01*
X4714952Y-202430380D01*
X5572095Y-201763714D02*
X5572095Y-202430380D01*
X5334000Y-201382761D02*
X5095904Y-202097047D01*
X5714952Y-202097047D01*
X5953047Y-201430380D02*
X6286380Y-202430380D01*
X6619714Y-201430380D01*
X3976857Y-199366571D02*
X3643523Y-199366571D01*
X3643523Y-199890380D02*
X3643523Y-198890380D01*
X4119714Y-198890380D01*
X4976857Y-199890380D02*
X4500666Y-199890380D01*
X4500666Y-198890380D01*
X5500666Y-198890380D02*
X5691142Y-198890380D01*
X5786380Y-198938000D01*
X5881619Y-199033238D01*
X5929238Y-199223714D01*
X5929238Y-199557047D01*
X5881619Y-199747523D01*
X5786380Y-199842761D01*
X5691142Y-199890380D01*
X5500666Y-199890380D01*
X5405428Y-199842761D01*
X5310190Y-199747523D01*
X5262571Y-199557047D01*
X5262571Y-199223714D01*
X5310190Y-199033238D01*
X5405428Y-198938000D01*
X5500666Y-198890380D01*
X6262571Y-198890380D02*
X6500666Y-199890380D01*
X6691142Y-199176095D01*
X6881619Y-199890380D01*
X7119714Y-198890380D01*
X2786380Y-197350380D02*
X2786380Y-196350380D01*
X3167333Y-196350380D01*
X3262571Y-196398000D01*
X3310190Y-196445619D01*
X3357809Y-196540857D01*
X3357809Y-196683714D01*
X3310190Y-196778952D01*
X3262571Y-196826571D01*
X3167333Y-196874190D01*
X2786380Y-196874190D01*
X4357809Y-197255142D02*
X4310190Y-197302761D01*
X4167333Y-197350380D01*
X4072095Y-197350380D01*
X3929238Y-197302761D01*
X3834000Y-197207523D01*
X3786380Y-197112285D01*
X3738761Y-196921809D01*
X3738761Y-196778952D01*
X3786380Y-196588476D01*
X3834000Y-196493238D01*
X3929238Y-196398000D01*
X4072095Y-196350380D01*
X4167333Y-196350380D01*
X4310190Y-196398000D01*
X4357809Y-196445619D01*
X4643523Y-196350380D02*
X5214952Y-196350380D01*
X4929238Y-197350380D02*
X4929238Y-196350380D01*
X5310190Y-197445619D02*
X6072095Y-197445619D01*
X6881619Y-197350380D02*
X6548285Y-196874190D01*
X6310190Y-197350380D02*
X6310190Y-196350380D01*
X6691142Y-196350380D01*
X6786380Y-196398000D01*
X6834000Y-196445619D01*
X6881619Y-196540857D01*
X6881619Y-196683714D01*
X6834000Y-196778952D01*
X6786380Y-196826571D01*
X6691142Y-196874190D01*
X6310190Y-196874190D01*
X7310190Y-197350380D02*
X7310190Y-196350380D01*
X7310190Y-196826571D02*
X7881619Y-196826571D01*
X7881619Y-197350380D02*
X7881619Y-196350380D01*
X2929238Y-194762761D02*
X3072095Y-194810380D01*
X3310190Y-194810380D01*
X3405428Y-194762761D01*
X3453047Y-194715142D01*
X3500666Y-194619904D01*
X3500666Y-194524666D01*
X3453047Y-194429428D01*
X3405428Y-194381809D01*
X3310190Y-194334190D01*
X3119714Y-194286571D01*
X3024476Y-194238952D01*
X2976857Y-194191333D01*
X2929238Y-194096095D01*
X2929238Y-194000857D01*
X2976857Y-193905619D01*
X3024476Y-193858000D01*
X3119714Y-193810380D01*
X3357809Y-193810380D01*
X3500666Y-193858000D01*
X3929238Y-194810380D02*
X3929238Y-193810380D01*
X3929238Y-194286571D02*
X4500666Y-194286571D01*
X4500666Y-194810380D02*
X4500666Y-193810380D01*
X4976857Y-194810380D02*
X4976857Y-193810380D01*
X5453047Y-194286571D02*
X5786380Y-194286571D01*
X5929238Y-194810380D02*
X5453047Y-194810380D01*
X5453047Y-193810380D01*
X5929238Y-193810380D01*
X6834000Y-194810380D02*
X6357809Y-194810380D01*
X6357809Y-193810380D01*
X7167333Y-194810380D02*
X7167333Y-193810380D01*
X7405428Y-193810380D01*
X7548285Y-193858000D01*
X7643523Y-193953238D01*
X7691142Y-194048476D01*
X7738761Y-194238952D01*
X7738761Y-194381809D01*
X7691142Y-194572285D01*
X7643523Y-194667523D01*
X7548285Y-194762761D01*
X7405428Y-194810380D01*
X7167333Y-194810380D01*
G04 #@! TD*
M02*
