G04 #@! TF.GenerationSoftware,KiCad,Pcbnew,5.0.2-bee76a0~70~ubuntu18.04.1*
G04 #@! TF.CreationDate,2018-11-29T20:18:26+08:00*
G04 #@! TF.ProjectId,backplane,6261636b-706c-4616-9e65-2e6b69636164,rev?*
G04 #@! TF.SameCoordinates,Original*
G04 #@! TF.FileFunction,Copper,L2,Bot*
G04 #@! TF.FilePolarity,Positive*
%FSLAX46Y46*%
G04 Gerber Fmt 4.6, Leading zero omitted, Abs format (unit mm)*
G04 Created by KiCad (PCBNEW 5.0.2-bee76a0~70~ubuntu18.04.1) date Thursday, November 29, 2018 PM08:18:26 HKT*
%MOMM*%
%LPD*%
G01*
G04 APERTURE LIST*
G04 #@! TA.AperFunction,NonConductor*
%ADD10C,1.000000*%
G04 #@! TD*
G04 #@! TA.AperFunction,ComponentPad*
%ADD11O,2.000000X2.000000*%
G04 #@! TD*
G04 #@! TA.AperFunction,ComponentPad*
%ADD12R,2.000000X2.000000*%
G04 #@! TD*
G04 #@! TA.AperFunction,ComponentPad*
%ADD13C,2.098040*%
G04 #@! TD*
G04 #@! TA.AperFunction,ComponentPad*
%ADD14C,4.196080*%
G04 #@! TD*
G04 #@! TA.AperFunction,ComponentPad*
%ADD15C,4.198620*%
G04 #@! TD*
G04 #@! TA.AperFunction,ComponentPad*
%ADD16O,1.700000X1.950000*%
G04 #@! TD*
G04 #@! TA.AperFunction,Conductor*
%ADD17C,0.020000*%
G04 #@! TD*
G04 #@! TA.AperFunction,ComponentPad*
%ADD18C,1.700000*%
G04 #@! TD*
G04 #@! TA.AperFunction,ComponentPad*
%ADD19O,1.700000X2.000000*%
G04 #@! TD*
G04 #@! TA.AperFunction,ComponentPad*
%ADD20O,3.000000X1.800000*%
G04 #@! TD*
G04 #@! TA.AperFunction,ComponentPad*
%ADD21R,3.000000X1.800000*%
G04 #@! TD*
G04 #@! TA.AperFunction,ComponentPad*
%ADD22O,1.500000X3.000000*%
G04 #@! TD*
G04 #@! TA.AperFunction,ComponentPad*
%ADD23R,1.500000X3.000000*%
G04 #@! TD*
G04 #@! TA.AperFunction,ComponentPad*
%ADD24O,1.800000X3.500000*%
G04 #@! TD*
G04 #@! TA.AperFunction,ComponentPad*
%ADD25C,4.000000*%
G04 #@! TD*
G04 #@! TA.AperFunction,ComponentPad*
%ADD26O,1.950000X1.700000*%
G04 #@! TD*
G04 #@! TA.AperFunction,ComponentPad*
%ADD27O,2.000000X1.700000*%
G04 #@! TD*
G04 #@! TA.AperFunction,ComponentPad*
%ADD28C,5.000000*%
G04 #@! TD*
G04 #@! TA.AperFunction,ComponentPad*
%ADD29R,1.800000X1.800000*%
G04 #@! TD*
G04 #@! TA.AperFunction,ComponentPad*
%ADD30O,1.800000X1.800000*%
G04 #@! TD*
G04 #@! TA.AperFunction,ComponentPad*
%ADD31O,1.800000X2.500000*%
G04 #@! TD*
G04 #@! TA.AperFunction,ComponentPad*
%ADD32R,1.800000X2.500000*%
G04 #@! TD*
G04 #@! TA.AperFunction,ViaPad*
%ADD33C,3.000000*%
G04 #@! TD*
G04 #@! TA.AperFunction,ViaPad*
%ADD34C,0.600000*%
G04 #@! TD*
G04 #@! TA.AperFunction,ViaPad*
%ADD35C,1.200000*%
G04 #@! TD*
G04 #@! TA.AperFunction,ViaPad*
%ADD36C,1.000000*%
G04 #@! TD*
G04 #@! TA.AperFunction,ViaPad*
%ADD37C,0.500000*%
G04 #@! TD*
G04 #@! TA.AperFunction,ViaPad*
%ADD38C,1.500000*%
G04 #@! TD*
G04 #@! TA.AperFunction,Conductor*
%ADD39C,1.000000*%
G04 #@! TD*
G04 #@! TA.AperFunction,Conductor*
%ADD40C,4.000000*%
G04 #@! TD*
G04 #@! TA.AperFunction,Conductor*
%ADD41C,1.200000*%
G04 #@! TD*
G04 #@! TA.AperFunction,Conductor*
%ADD42C,0.750000*%
G04 #@! TD*
G04 #@! TA.AperFunction,Conductor*
%ADD43C,0.500000*%
G04 #@! TD*
G04 #@! TA.AperFunction,Conductor*
%ADD44C,0.400000*%
G04 #@! TD*
G04 #@! TA.AperFunction,Conductor*
%ADD45C,0.250000*%
G04 #@! TD*
G04 #@! TA.AperFunction,Conductor*
%ADD46C,0.254000*%
G04 #@! TD*
G04 APERTURE END LIST*
D10*
X73110000Y-264100000D02*
G75*
G02X74110000Y-265100000I0J-1000000D01*
G01*
X73109999Y-294100001D02*
G75*
G02X72110000Y-293100000I1J1000000D01*
G01*
X72110000Y-293100000D02*
X72110000Y-265100000D01*
X74110000Y-265100000D02*
X74110000Y-293100000D01*
X74109998Y-293100001D02*
G75*
G02X73110000Y-294099999I-999998J0D01*
G01*
X72110000Y-265100000D02*
G75*
G02X73110000Y-264100000I1000000J0D01*
G01*
X15100000Y-234300000D02*
G75*
G02X14100000Y-233300000I0J1000000D01*
G01*
X14100000Y-233300000D02*
G75*
G02X15100000Y-232300000I1000000J0D01*
G01*
X44100000Y-233300000D02*
G75*
G02X43100000Y-234300000I-1000000J0D01*
G01*
X43100000Y-232300000D02*
G75*
G02X44100000Y-233300000I0J-1000000D01*
G01*
X43100000Y-234300000D02*
X15100000Y-234300000D01*
X15100000Y-232300000D02*
X43100000Y-232300000D01*
X0Y-5000000D02*
G75*
G02X5000000Y0I5000000J0D01*
G01*
X195000000Y0D02*
G75*
G02X200000000Y-5000000I0J-5000000D01*
G01*
X200000000Y-295000000D02*
G75*
G02X195000000Y-300000000I-5000000J0D01*
G01*
X5000000Y-300000000D02*
G75*
G02X0Y-295000000I0J5000000D01*
G01*
X0Y-5000000D02*
X0Y-295000000D01*
X5000000Y-300000000D02*
X195000000Y-300000000D01*
X200000000Y-5000000D02*
X200000000Y-295000000D01*
X5000000Y0D02*
X195000000Y0D01*
D11*
G04 #@! TO.P,U3,8*
G04 #@! TO.N,+3V3*
X50220000Y-8090000D03*
G04 #@! TO.P,U3,7*
X50220000Y-5550000D03*
G04 #@! TO.P,U3,6*
G04 #@! TO.N,/stm32_board/STM32_CORE/SWCLK*
X47680000Y-8090000D03*
G04 #@! TO.P,U3,5*
G04 #@! TO.N,/stm32_board/STM32_CORE/SWIM*
X47680000Y-5550000D03*
G04 #@! TO.P,U3,4*
G04 #@! TO.N,GND*
X45140000Y-8090000D03*
G04 #@! TO.P,U3,3*
X45140000Y-5550000D03*
G04 #@! TO.P,U3,2*
G04 #@! TO.N,/stm32_board/STM32_CORE/SWIO*
X42600000Y-8090000D03*
D12*
G04 #@! TO.P,U3,1*
G04 #@! TO.N,/stm32_board/STM32_CORE/RST*
X42600000Y-5550000D03*
G04 #@! TD*
D13*
G04 #@! TO.P,K1,2*
G04 #@! TO.N,RELAY_N*
X23981340Y-227158540D03*
D14*
G04 #@! TO.P,K1,4*
G04 #@! TO.N,PWR_SOURCE_SSR_L_1*
X20168800Y-242396000D03*
G04 #@! TO.P,K1,5*
G04 #@! TO.N,Net-(K1-Pad5)*
X20168800Y-250016000D03*
D15*
G04 #@! TO.P,K1,3*
G04 #@! TO.N,SSR_PCB2_L_2*
X37946260Y-239856000D03*
D13*
G04 #@! TO.P,K1,1*
G04 #@! TO.N,RELAY_P*
X34138800Y-227158540D03*
G04 #@! TD*
D16*
G04 #@! TO.P,J7,3*
G04 #@! TO.N,/stm32_board/WS2812_PWM_TERMINAL*
X115100000Y-8090000D03*
G04 #@! TO.P,J7,2*
G04 #@! TO.N,GND*
X117600000Y-8090000D03*
D17*
G04 #@! TD*
G04 #@! TO.N,VWS2812*
G04 #@! TO.C,J7*
G36*
X120724504Y-7116204D02*
X120748773Y-7119804D01*
X120772571Y-7125765D01*
X120795671Y-7134030D01*
X120817849Y-7144520D01*
X120838893Y-7157133D01*
X120858598Y-7171747D01*
X120876777Y-7188223D01*
X120893253Y-7206402D01*
X120907867Y-7226107D01*
X120920480Y-7247151D01*
X120930970Y-7269329D01*
X120939235Y-7292429D01*
X120945196Y-7316227D01*
X120948796Y-7340496D01*
X120950000Y-7365000D01*
X120950000Y-8815000D01*
X120948796Y-8839504D01*
X120945196Y-8863773D01*
X120939235Y-8887571D01*
X120930970Y-8910671D01*
X120920480Y-8932849D01*
X120907867Y-8953893D01*
X120893253Y-8973598D01*
X120876777Y-8991777D01*
X120858598Y-9008253D01*
X120838893Y-9022867D01*
X120817849Y-9035480D01*
X120795671Y-9045970D01*
X120772571Y-9054235D01*
X120748773Y-9060196D01*
X120724504Y-9063796D01*
X120700000Y-9065000D01*
X119500000Y-9065000D01*
X119475496Y-9063796D01*
X119451227Y-9060196D01*
X119427429Y-9054235D01*
X119404329Y-9045970D01*
X119382151Y-9035480D01*
X119361107Y-9022867D01*
X119341402Y-9008253D01*
X119323223Y-8991777D01*
X119306747Y-8973598D01*
X119292133Y-8953893D01*
X119279520Y-8932849D01*
X119269030Y-8910671D01*
X119260765Y-8887571D01*
X119254804Y-8863773D01*
X119251204Y-8839504D01*
X119250000Y-8815000D01*
X119250000Y-7365000D01*
X119251204Y-7340496D01*
X119254804Y-7316227D01*
X119260765Y-7292429D01*
X119269030Y-7269329D01*
X119279520Y-7247151D01*
X119292133Y-7226107D01*
X119306747Y-7206402D01*
X119323223Y-7188223D01*
X119341402Y-7171747D01*
X119361107Y-7157133D01*
X119382151Y-7144520D01*
X119404329Y-7134030D01*
X119427429Y-7125765D01*
X119451227Y-7119804D01*
X119475496Y-7116204D01*
X119500000Y-7115000D01*
X120700000Y-7115000D01*
X120724504Y-7116204D01*
X120724504Y-7116204D01*
G37*
D18*
G04 #@! TO.P,J7,1*
G04 #@! TO.N,VWS2812*
X120100000Y-8090000D03*
G04 #@! TD*
D16*
G04 #@! TO.P,J11,4*
G04 #@! TO.N,/stm32_board/FAN_PWM_OUTPUT*
X90350000Y-8090000D03*
G04 #@! TO.P,J11,3*
G04 #@! TO.N,/stm32_board/FAN_RPM*
X92850000Y-8090000D03*
G04 #@! TO.P,J11,2*
G04 #@! TO.N,/stm32_board/FAN_48V*
X95350000Y-8090000D03*
D17*
G04 #@! TD*
G04 #@! TO.N,GND*
G04 #@! TO.C,J11*
G36*
X98474504Y-7116204D02*
X98498773Y-7119804D01*
X98522571Y-7125765D01*
X98545671Y-7134030D01*
X98567849Y-7144520D01*
X98588893Y-7157133D01*
X98608598Y-7171747D01*
X98626777Y-7188223D01*
X98643253Y-7206402D01*
X98657867Y-7226107D01*
X98670480Y-7247151D01*
X98680970Y-7269329D01*
X98689235Y-7292429D01*
X98695196Y-7316227D01*
X98698796Y-7340496D01*
X98700000Y-7365000D01*
X98700000Y-8815000D01*
X98698796Y-8839504D01*
X98695196Y-8863773D01*
X98689235Y-8887571D01*
X98680970Y-8910671D01*
X98670480Y-8932849D01*
X98657867Y-8953893D01*
X98643253Y-8973598D01*
X98626777Y-8991777D01*
X98608598Y-9008253D01*
X98588893Y-9022867D01*
X98567849Y-9035480D01*
X98545671Y-9045970D01*
X98522571Y-9054235D01*
X98498773Y-9060196D01*
X98474504Y-9063796D01*
X98450000Y-9065000D01*
X97250000Y-9065000D01*
X97225496Y-9063796D01*
X97201227Y-9060196D01*
X97177429Y-9054235D01*
X97154329Y-9045970D01*
X97132151Y-9035480D01*
X97111107Y-9022867D01*
X97091402Y-9008253D01*
X97073223Y-8991777D01*
X97056747Y-8973598D01*
X97042133Y-8953893D01*
X97029520Y-8932849D01*
X97019030Y-8910671D01*
X97010765Y-8887571D01*
X97004804Y-8863773D01*
X97001204Y-8839504D01*
X97000000Y-8815000D01*
X97000000Y-7365000D01*
X97001204Y-7340496D01*
X97004804Y-7316227D01*
X97010765Y-7292429D01*
X97019030Y-7269329D01*
X97029520Y-7247151D01*
X97042133Y-7226107D01*
X97056747Y-7206402D01*
X97073223Y-7188223D01*
X97091402Y-7171747D01*
X97111107Y-7157133D01*
X97132151Y-7144520D01*
X97154329Y-7134030D01*
X97177429Y-7125765D01*
X97201227Y-7119804D01*
X97225496Y-7116204D01*
X97250000Y-7115000D01*
X98450000Y-7115000D01*
X98474504Y-7116204D01*
X98474504Y-7116204D01*
G37*
D18*
G04 #@! TO.P,J11,1*
G04 #@! TO.N,GND*
X97850000Y-8090000D03*
G04 #@! TD*
D19*
G04 #@! TO.P,J6,2*
G04 #@! TO.N,/stm32_board/FAN_48V*
X79100000Y-8090000D03*
D17*
G04 #@! TD*
G04 #@! TO.N,GND*
G04 #@! TO.C,J6*
G36*
X82224504Y-7091204D02*
X82248773Y-7094804D01*
X82272571Y-7100765D01*
X82295671Y-7109030D01*
X82317849Y-7119520D01*
X82338893Y-7132133D01*
X82358598Y-7146747D01*
X82376777Y-7163223D01*
X82393253Y-7181402D01*
X82407867Y-7201107D01*
X82420480Y-7222151D01*
X82430970Y-7244329D01*
X82439235Y-7267429D01*
X82445196Y-7291227D01*
X82448796Y-7315496D01*
X82450000Y-7340000D01*
X82450000Y-8840000D01*
X82448796Y-8864504D01*
X82445196Y-8888773D01*
X82439235Y-8912571D01*
X82430970Y-8935671D01*
X82420480Y-8957849D01*
X82407867Y-8978893D01*
X82393253Y-8998598D01*
X82376777Y-9016777D01*
X82358598Y-9033253D01*
X82338893Y-9047867D01*
X82317849Y-9060480D01*
X82295671Y-9070970D01*
X82272571Y-9079235D01*
X82248773Y-9085196D01*
X82224504Y-9088796D01*
X82200000Y-9090000D01*
X81000000Y-9090000D01*
X80975496Y-9088796D01*
X80951227Y-9085196D01*
X80927429Y-9079235D01*
X80904329Y-9070970D01*
X80882151Y-9060480D01*
X80861107Y-9047867D01*
X80841402Y-9033253D01*
X80823223Y-9016777D01*
X80806747Y-8998598D01*
X80792133Y-8978893D01*
X80779520Y-8957849D01*
X80769030Y-8935671D01*
X80760765Y-8912571D01*
X80754804Y-8888773D01*
X80751204Y-8864504D01*
X80750000Y-8840000D01*
X80750000Y-7340000D01*
X80751204Y-7315496D01*
X80754804Y-7291227D01*
X80760765Y-7267429D01*
X80769030Y-7244329D01*
X80779520Y-7222151D01*
X80792133Y-7201107D01*
X80806747Y-7181402D01*
X80823223Y-7163223D01*
X80841402Y-7146747D01*
X80861107Y-7132133D01*
X80882151Y-7119520D01*
X80904329Y-7109030D01*
X80927429Y-7100765D01*
X80951227Y-7094804D01*
X80975496Y-7091204D01*
X81000000Y-7090000D01*
X82200000Y-7090000D01*
X82224504Y-7091204D01*
X82224504Y-7091204D01*
G37*
D18*
G04 #@! TO.P,J6,1*
G04 #@! TO.N,GND*
X81600000Y-8090000D03*
G04 #@! TD*
D16*
G04 #@! TO.P,J22,3*
G04 #@! TO.N,+3V3*
X32600000Y-8090000D03*
G04 #@! TO.P,J22,2*
G04 #@! TO.N,+5V*
X35100000Y-8090000D03*
D17*
G04 #@! TD*
G04 #@! TO.N,GND*
G04 #@! TO.C,J22*
G36*
X38224504Y-7116204D02*
X38248773Y-7119804D01*
X38272571Y-7125765D01*
X38295671Y-7134030D01*
X38317849Y-7144520D01*
X38338893Y-7157133D01*
X38358598Y-7171747D01*
X38376777Y-7188223D01*
X38393253Y-7206402D01*
X38407867Y-7226107D01*
X38420480Y-7247151D01*
X38430970Y-7269329D01*
X38439235Y-7292429D01*
X38445196Y-7316227D01*
X38448796Y-7340496D01*
X38450000Y-7365000D01*
X38450000Y-8815000D01*
X38448796Y-8839504D01*
X38445196Y-8863773D01*
X38439235Y-8887571D01*
X38430970Y-8910671D01*
X38420480Y-8932849D01*
X38407867Y-8953893D01*
X38393253Y-8973598D01*
X38376777Y-8991777D01*
X38358598Y-9008253D01*
X38338893Y-9022867D01*
X38317849Y-9035480D01*
X38295671Y-9045970D01*
X38272571Y-9054235D01*
X38248773Y-9060196D01*
X38224504Y-9063796D01*
X38200000Y-9065000D01*
X37000000Y-9065000D01*
X36975496Y-9063796D01*
X36951227Y-9060196D01*
X36927429Y-9054235D01*
X36904329Y-9045970D01*
X36882151Y-9035480D01*
X36861107Y-9022867D01*
X36841402Y-9008253D01*
X36823223Y-8991777D01*
X36806747Y-8973598D01*
X36792133Y-8953893D01*
X36779520Y-8932849D01*
X36769030Y-8910671D01*
X36760765Y-8887571D01*
X36754804Y-8863773D01*
X36751204Y-8839504D01*
X36750000Y-8815000D01*
X36750000Y-7365000D01*
X36751204Y-7340496D01*
X36754804Y-7316227D01*
X36760765Y-7292429D01*
X36769030Y-7269329D01*
X36779520Y-7247151D01*
X36792133Y-7226107D01*
X36806747Y-7206402D01*
X36823223Y-7188223D01*
X36841402Y-7171747D01*
X36861107Y-7157133D01*
X36882151Y-7144520D01*
X36904329Y-7134030D01*
X36927429Y-7125765D01*
X36951227Y-7119804D01*
X36975496Y-7116204D01*
X37000000Y-7115000D01*
X38200000Y-7115000D01*
X38224504Y-7116204D01*
X38224504Y-7116204D01*
G37*
D18*
G04 #@! TO.P,J22,1*
G04 #@! TO.N,GND*
X37600000Y-8090000D03*
G04 #@! TD*
D20*
G04 #@! TO.P,J16,4*
G04 #@! TO.N,/AQ1_SHIELD*
X11684000Y-169320000D03*
D21*
G04 #@! TO.P,J16,1*
G04 #@! TO.N,/AQ1_GND*
X11684000Y-176940000D03*
D20*
G04 #@! TO.P,J16,2*
G04 #@! TO.N,/AQ1_5V*
X11684000Y-174400000D03*
G04 #@! TO.P,J16,3*
G04 #@! TO.N,/AQ1_SENSOR*
X11684000Y-171860000D03*
G04 #@! TD*
G04 #@! TO.P,J15,3*
G04 #@! TO.N,/AQ2_SENSOR*
X11684000Y-184860000D03*
G04 #@! TO.P,J15,2*
G04 #@! TO.N,/AQ2_5V*
X11684000Y-187400000D03*
D21*
G04 #@! TO.P,J15,1*
G04 #@! TO.N,/AQ2_GND*
X11684000Y-189940000D03*
D20*
G04 #@! TO.P,J15,4*
G04 #@! TO.N,/AQ2_SHIELD*
X11684000Y-182320000D03*
G04 #@! TD*
G04 #@! TO.P,J13,4*
G04 #@! TO.N,/flow_sensor_\0025RH*
X11684000Y-196898000D03*
D21*
G04 #@! TO.P,J13,1*
G04 #@! TO.N,/flow_sensor_GND*
X11684000Y-204518000D03*
D20*
G04 #@! TO.P,J13,2*
G04 #@! TO.N,/flow_sensor_24V*
X11684000Y-201978000D03*
G04 #@! TO.P,J13,3*
G04 #@! TO.N,/flow_sensor_FLOW*
X11684000Y-199438000D03*
G04 #@! TO.P,J13,5*
G04 #@! TO.N,/flow_sensor_shield*
X11684000Y-194358000D03*
G04 #@! TD*
G04 #@! TO.P,J17,4*
G04 #@! TO.N,/O3_1_SHIELD*
X11684000Y-154320000D03*
D21*
G04 #@! TO.P,J17,1*
G04 #@! TO.N,/O3_1_GND*
X11684000Y-161940000D03*
D20*
G04 #@! TO.P,J17,2*
G04 #@! TO.N,/O3_1_24V*
X11684000Y-159400000D03*
G04 #@! TO.P,J17,3*
G04 #@! TO.N,/O3_1_SENSOR*
X11684000Y-156860000D03*
G04 #@! TD*
D22*
G04 #@! TO.P,J3,2*
G04 #@! TO.N,RELAY_P*
X38430000Y-125500000D03*
D23*
G04 #@! TO.P,J3,1*
G04 #@! TO.N,RELAY_N*
X40970000Y-125500000D03*
G04 #@! TD*
D24*
G04 #@! TO.P,U1,3*
G04 #@! TO.N,Net-(R9-Pad2)*
X34423594Y-116185398D03*
D25*
G04 #@! TO.P,U1,1*
G04 #@! TO.N,/stm32_board/SSR_CH1_OUTPUT2*
X16643594Y-116185398D03*
D24*
G04 #@! TO.P,U1,4*
G04 #@! TO.N,Net-(Q1-Pad3)*
X36963594Y-116185398D03*
D25*
G04 #@! TO.P,U1,2*
G04 #@! TO.N,/stm32_board/SSR_CH1_OUTPUT1*
X24263594Y-116185398D03*
G04 #@! TD*
D24*
G04 #@! TO.P,U2,3*
G04 #@! TO.N,Net-(R10-Pad2)*
X34423594Y-102907799D03*
D25*
G04 #@! TO.P,U2,1*
G04 #@! TO.N,/stm32_board/SSR_CH2_OUTPUT2*
X16643594Y-102907799D03*
D24*
G04 #@! TO.P,U2,4*
G04 #@! TO.N,Net-(Q2-Pad3)*
X36963594Y-102907799D03*
D25*
G04 #@! TO.P,U2,2*
G04 #@! TO.N,/stm32_board/SSR_CH2_OUTPUT1*
X24263594Y-102907799D03*
G04 #@! TD*
D26*
G04 #@! TO.P,J28,8*
G04 #@! TO.N,GND*
X9463501Y-97572770D03*
G04 #@! TO.P,J28,7*
G04 #@! TO.N,Net-(J28-Pad7)*
X9463501Y-95072770D03*
G04 #@! TO.P,J28,6*
G04 #@! TO.N,STM32_PMS7003S_SET*
X9463501Y-92572770D03*
G04 #@! TO.P,J28,5*
G04 #@! TO.N,STM32_PMS7003S_RXD*
X9463501Y-90072770D03*
G04 #@! TO.P,J28,4*
G04 #@! TO.N,STM32_PMS7003S_TXD*
X9463501Y-87572770D03*
G04 #@! TO.P,J28,3*
G04 #@! TO.N,STM32_PMS7003S_RESET*
X9463501Y-85072770D03*
G04 #@! TO.P,J28,2*
G04 #@! TO.N,GND*
X9463501Y-82572770D03*
D17*
G04 #@! TD*
G04 #@! TO.N,+5V*
G04 #@! TO.C,J28*
G36*
X10213005Y-79223974D02*
X10237274Y-79227574D01*
X10261072Y-79233535D01*
X10284172Y-79241800D01*
X10306350Y-79252290D01*
X10327394Y-79264903D01*
X10347099Y-79279517D01*
X10365278Y-79295993D01*
X10381754Y-79314172D01*
X10396368Y-79333877D01*
X10408981Y-79354921D01*
X10419471Y-79377099D01*
X10427736Y-79400199D01*
X10433697Y-79423997D01*
X10437297Y-79448266D01*
X10438501Y-79472770D01*
X10438501Y-80672770D01*
X10437297Y-80697274D01*
X10433697Y-80721543D01*
X10427736Y-80745341D01*
X10419471Y-80768441D01*
X10408981Y-80790619D01*
X10396368Y-80811663D01*
X10381754Y-80831368D01*
X10365278Y-80849547D01*
X10347099Y-80866023D01*
X10327394Y-80880637D01*
X10306350Y-80893250D01*
X10284172Y-80903740D01*
X10261072Y-80912005D01*
X10237274Y-80917966D01*
X10213005Y-80921566D01*
X10188501Y-80922770D01*
X8738501Y-80922770D01*
X8713997Y-80921566D01*
X8689728Y-80917966D01*
X8665930Y-80912005D01*
X8642830Y-80903740D01*
X8620652Y-80893250D01*
X8599608Y-80880637D01*
X8579903Y-80866023D01*
X8561724Y-80849547D01*
X8545248Y-80831368D01*
X8530634Y-80811663D01*
X8518021Y-80790619D01*
X8507531Y-80768441D01*
X8499266Y-80745341D01*
X8493305Y-80721543D01*
X8489705Y-80697274D01*
X8488501Y-80672770D01*
X8488501Y-79472770D01*
X8489705Y-79448266D01*
X8493305Y-79423997D01*
X8499266Y-79400199D01*
X8507531Y-79377099D01*
X8518021Y-79354921D01*
X8530634Y-79333877D01*
X8545248Y-79314172D01*
X8561724Y-79295993D01*
X8579903Y-79279517D01*
X8599608Y-79264903D01*
X8620652Y-79252290D01*
X8642830Y-79241800D01*
X8665930Y-79233535D01*
X8689728Y-79227574D01*
X8713997Y-79223974D01*
X8738501Y-79222770D01*
X10188501Y-79222770D01*
X10213005Y-79223974D01*
X10213005Y-79223974D01*
G37*
D18*
G04 #@! TO.P,J28,1*
G04 #@! TO.N,+5V*
X9463501Y-80072770D03*
G04 #@! TD*
D26*
G04 #@! TO.P,J4,8*
G04 #@! TO.N,+5V*
X9430000Y-47670000D03*
G04 #@! TO.P,J4,7*
G04 #@! TO.N,Net-(J4-Pad7)*
X9430000Y-45170000D03*
G04 #@! TO.P,J4,6*
G04 #@! TO.N,PCB1_ALARM_COM*
X9430000Y-42670000D03*
G04 #@! TO.P,J4,5*
G04 #@! TO.N,IONAIR_TX*
X9430000Y-40170000D03*
G04 #@! TO.P,J4,4*
G04 #@! TO.N,IONAIR_RX*
X9430000Y-37670000D03*
G04 #@! TO.P,J4,3*
G04 #@! TO.N,RELAY_N*
X9430000Y-35170000D03*
G04 #@! TO.P,J4,2*
G04 #@! TO.N,RELAY_P*
X9430000Y-32670000D03*
D17*
G04 #@! TD*
G04 #@! TO.N,GND*
G04 #@! TO.C,J4*
G36*
X10179504Y-29321204D02*
X10203773Y-29324804D01*
X10227571Y-29330765D01*
X10250671Y-29339030D01*
X10272849Y-29349520D01*
X10293893Y-29362133D01*
X10313598Y-29376747D01*
X10331777Y-29393223D01*
X10348253Y-29411402D01*
X10362867Y-29431107D01*
X10375480Y-29452151D01*
X10385970Y-29474329D01*
X10394235Y-29497429D01*
X10400196Y-29521227D01*
X10403796Y-29545496D01*
X10405000Y-29570000D01*
X10405000Y-30770000D01*
X10403796Y-30794504D01*
X10400196Y-30818773D01*
X10394235Y-30842571D01*
X10385970Y-30865671D01*
X10375480Y-30887849D01*
X10362867Y-30908893D01*
X10348253Y-30928598D01*
X10331777Y-30946777D01*
X10313598Y-30963253D01*
X10293893Y-30977867D01*
X10272849Y-30990480D01*
X10250671Y-31000970D01*
X10227571Y-31009235D01*
X10203773Y-31015196D01*
X10179504Y-31018796D01*
X10155000Y-31020000D01*
X8705000Y-31020000D01*
X8680496Y-31018796D01*
X8656227Y-31015196D01*
X8632429Y-31009235D01*
X8609329Y-31000970D01*
X8587151Y-30990480D01*
X8566107Y-30977867D01*
X8546402Y-30963253D01*
X8528223Y-30946777D01*
X8511747Y-30928598D01*
X8497133Y-30908893D01*
X8484520Y-30887849D01*
X8474030Y-30865671D01*
X8465765Y-30842571D01*
X8459804Y-30818773D01*
X8456204Y-30794504D01*
X8455000Y-30770000D01*
X8455000Y-29570000D01*
X8456204Y-29545496D01*
X8459804Y-29521227D01*
X8465765Y-29497429D01*
X8474030Y-29474329D01*
X8484520Y-29452151D01*
X8497133Y-29431107D01*
X8511747Y-29411402D01*
X8528223Y-29393223D01*
X8546402Y-29376747D01*
X8566107Y-29362133D01*
X8587151Y-29349520D01*
X8609329Y-29339030D01*
X8632429Y-29330765D01*
X8656227Y-29324804D01*
X8680496Y-29321204D01*
X8705000Y-29320000D01*
X10155000Y-29320000D01*
X10179504Y-29321204D01*
X10179504Y-29321204D01*
G37*
D18*
G04 #@! TO.P,J4,1*
G04 #@! TO.N,GND*
X9430000Y-30170000D03*
G04 #@! TD*
D27*
G04 #@! TO.P,J9,2*
G04 #@! TO.N,/stm32_board/SSR_CH2_OUTPUT1*
X9513501Y-106467920D03*
D17*
G04 #@! TD*
G04 #@! TO.N,/stm32_board/SSR_CH2_OUTPUT2*
G04 #@! TO.C,J9*
G36*
X10288005Y-103119124D02*
X10312274Y-103122724D01*
X10336072Y-103128685D01*
X10359172Y-103136950D01*
X10381350Y-103147440D01*
X10402394Y-103160053D01*
X10422099Y-103174667D01*
X10440278Y-103191143D01*
X10456754Y-103209322D01*
X10471368Y-103229027D01*
X10483981Y-103250071D01*
X10494471Y-103272249D01*
X10502736Y-103295349D01*
X10508697Y-103319147D01*
X10512297Y-103343416D01*
X10513501Y-103367920D01*
X10513501Y-104567920D01*
X10512297Y-104592424D01*
X10508697Y-104616693D01*
X10502736Y-104640491D01*
X10494471Y-104663591D01*
X10483981Y-104685769D01*
X10471368Y-104706813D01*
X10456754Y-104726518D01*
X10440278Y-104744697D01*
X10422099Y-104761173D01*
X10402394Y-104775787D01*
X10381350Y-104788400D01*
X10359172Y-104798890D01*
X10336072Y-104807155D01*
X10312274Y-104813116D01*
X10288005Y-104816716D01*
X10263501Y-104817920D01*
X8763501Y-104817920D01*
X8738997Y-104816716D01*
X8714728Y-104813116D01*
X8690930Y-104807155D01*
X8667830Y-104798890D01*
X8645652Y-104788400D01*
X8624608Y-104775787D01*
X8604903Y-104761173D01*
X8586724Y-104744697D01*
X8570248Y-104726518D01*
X8555634Y-104706813D01*
X8543021Y-104685769D01*
X8532531Y-104663591D01*
X8524266Y-104640491D01*
X8518305Y-104616693D01*
X8514705Y-104592424D01*
X8513501Y-104567920D01*
X8513501Y-103367920D01*
X8514705Y-103343416D01*
X8518305Y-103319147D01*
X8524266Y-103295349D01*
X8532531Y-103272249D01*
X8543021Y-103250071D01*
X8555634Y-103229027D01*
X8570248Y-103209322D01*
X8586724Y-103191143D01*
X8604903Y-103174667D01*
X8624608Y-103160053D01*
X8645652Y-103147440D01*
X8667830Y-103136950D01*
X8690930Y-103128685D01*
X8714728Y-103122724D01*
X8738997Y-103119124D01*
X8763501Y-103117920D01*
X10263501Y-103117920D01*
X10288005Y-103119124D01*
X10288005Y-103119124D01*
G37*
D18*
G04 #@! TO.P,J9,1*
G04 #@! TO.N,/stm32_board/SSR_CH2_OUTPUT2*
X9513501Y-103967920D03*
G04 #@! TD*
D27*
G04 #@! TO.P,J8,2*
G04 #@! TO.N,/stm32_board/SSR_CH1_OUTPUT1*
X9513501Y-119587920D03*
D17*
G04 #@! TD*
G04 #@! TO.N,/stm32_board/SSR_CH1_OUTPUT2*
G04 #@! TO.C,J8*
G36*
X10288005Y-116239124D02*
X10312274Y-116242724D01*
X10336072Y-116248685D01*
X10359172Y-116256950D01*
X10381350Y-116267440D01*
X10402394Y-116280053D01*
X10422099Y-116294667D01*
X10440278Y-116311143D01*
X10456754Y-116329322D01*
X10471368Y-116349027D01*
X10483981Y-116370071D01*
X10494471Y-116392249D01*
X10502736Y-116415349D01*
X10508697Y-116439147D01*
X10512297Y-116463416D01*
X10513501Y-116487920D01*
X10513501Y-117687920D01*
X10512297Y-117712424D01*
X10508697Y-117736693D01*
X10502736Y-117760491D01*
X10494471Y-117783591D01*
X10483981Y-117805769D01*
X10471368Y-117826813D01*
X10456754Y-117846518D01*
X10440278Y-117864697D01*
X10422099Y-117881173D01*
X10402394Y-117895787D01*
X10381350Y-117908400D01*
X10359172Y-117918890D01*
X10336072Y-117927155D01*
X10312274Y-117933116D01*
X10288005Y-117936716D01*
X10263501Y-117937920D01*
X8763501Y-117937920D01*
X8738997Y-117936716D01*
X8714728Y-117933116D01*
X8690930Y-117927155D01*
X8667830Y-117918890D01*
X8645652Y-117908400D01*
X8624608Y-117895787D01*
X8604903Y-117881173D01*
X8586724Y-117864697D01*
X8570248Y-117846518D01*
X8555634Y-117826813D01*
X8543021Y-117805769D01*
X8532531Y-117783591D01*
X8524266Y-117760491D01*
X8518305Y-117736693D01*
X8514705Y-117712424D01*
X8513501Y-117687920D01*
X8513501Y-116487920D01*
X8514705Y-116463416D01*
X8518305Y-116439147D01*
X8524266Y-116415349D01*
X8532531Y-116392249D01*
X8543021Y-116370071D01*
X8555634Y-116349027D01*
X8570248Y-116329322D01*
X8586724Y-116311143D01*
X8604903Y-116294667D01*
X8624608Y-116280053D01*
X8645652Y-116267440D01*
X8667830Y-116256950D01*
X8690930Y-116248685D01*
X8714728Y-116242724D01*
X8738997Y-116239124D01*
X8763501Y-116237920D01*
X10263501Y-116237920D01*
X10288005Y-116239124D01*
X10288005Y-116239124D01*
G37*
D18*
G04 #@! TO.P,J8,1*
G04 #@! TO.N,/stm32_board/SSR_CH1_OUTPUT2*
X9513501Y-117087920D03*
G04 #@! TD*
D28*
G04 #@! TO.P,J25,1*
G04 #@! TO.N,PCB1_ALARM_COM*
X78994000Y-287020000D03*
D17*
G04 #@! TD*
G04 #@! TO.N,PCB1_ALARM_COM*
G04 #@! TO.C,J25*
G36*
X76494000Y-289520000D02*
X76494000Y-284520000D01*
X81494000Y-284520000D01*
X81494000Y-289520000D01*
X76494000Y-289520000D01*
X76494000Y-289520000D01*
G37*
D28*
G04 #@! TO.P,J25,2*
G04 #@! TO.N,GND*
X86614000Y-287020000D03*
G04 #@! TO.P,J25,3*
G04 #@! TO.N,+5V*
X94234000Y-287020000D03*
G04 #@! TD*
G04 #@! TO.P,J5,3*
G04 #@! TO.N,/COMMON_N*
X66603998Y-287020000D03*
G04 #@! TO.P,J5,2*
G04 #@! TO.N,/220V_GND*
X58983998Y-287020000D03*
G04 #@! TO.P,J5,1*
G04 #@! TO.N,PWR_SOURCE_SSR_L_1*
X51363998Y-287020000D03*
D17*
G04 #@! TD*
G04 #@! TO.N,PWR_SOURCE_SSR_L_1*
G04 #@! TO.C,J5*
G36*
X48863998Y-289520000D02*
X48863998Y-284520000D01*
X53863998Y-284520000D01*
X53863998Y-289520000D01*
X48863998Y-289520000D01*
X48863998Y-289520000D01*
G37*
D29*
G04 #@! TO.P,J2,1*
G04 #@! TO.N,/To_J1_P1*
X177999998Y-240240000D03*
D30*
G04 #@! TO.P,J2,2*
G04 #@! TO.N,/To_J1_P2*
X180539998Y-240240000D03*
G04 #@! TO.P,J2,3*
G04 #@! TO.N,/To_J1_P3*
X177999998Y-237700000D03*
G04 #@! TO.P,J2,4*
G04 #@! TO.N,/To_J1_P4*
X180539998Y-237700000D03*
G04 #@! TO.P,J2,5*
G04 #@! TO.N,/To_J1_P5*
X177999998Y-235160000D03*
G04 #@! TO.P,J2,6*
G04 #@! TO.N,/To_J1_P6*
X180539998Y-235160000D03*
G04 #@! TO.P,J2,7*
G04 #@! TO.N,/To_J1_P7*
X177999998Y-232620000D03*
G04 #@! TO.P,J2,8*
G04 #@! TO.N,/To_J1_P8*
X180539998Y-232620000D03*
G04 #@! TO.P,J2,9*
G04 #@! TO.N,/To_J1_P9*
X177999998Y-230080000D03*
G04 #@! TO.P,J2,10*
G04 #@! TO.N,/To_J1_P10*
X180539998Y-230080000D03*
G04 #@! TO.P,J2,11*
G04 #@! TO.N,/To_J1_P11*
X177999998Y-227540000D03*
G04 #@! TO.P,J2,12*
G04 #@! TO.N,/To_J1_P12*
X180539998Y-227540000D03*
G04 #@! TO.P,J2,13*
G04 #@! TO.N,/To_J1_P13*
X177999998Y-225000000D03*
G04 #@! TO.P,J2,14*
G04 #@! TO.N,/To_J1_P14*
X180539998Y-225000000D03*
G04 #@! TD*
G04 #@! TO.P,J18,20*
G04 #@! TO.N,N/C*
X175085998Y-273498000D03*
G04 #@! TO.P,J18,19*
X172545998Y-273498000D03*
G04 #@! TO.P,J18,18*
G04 #@! TO.N,Net-(J18-Pad18)*
X170005998Y-273498000D03*
G04 #@! TO.P,J18,17*
G04 #@! TO.N,/flow_sensor_GND*
X167465998Y-273498000D03*
G04 #@! TO.P,J18,16*
G04 #@! TO.N,/O3_1_GND*
X164925998Y-273498000D03*
G04 #@! TO.P,J18,15*
G04 #@! TO.N,/flow_sensor_24V*
X162385998Y-273498000D03*
G04 #@! TO.P,J18,14*
G04 #@! TO.N,/O3_1_24V*
X159845998Y-273498000D03*
G04 #@! TO.P,J18,13*
G04 #@! TO.N,/flow_sensor_FLOW*
X157305998Y-273498000D03*
G04 #@! TO.P,J18,12*
G04 #@! TO.N,/O3_1_SENSOR*
X154765998Y-273498000D03*
G04 #@! TO.P,J18,11*
G04 #@! TO.N,/flow_sensor_\0025RH*
X152225998Y-273498000D03*
G04 #@! TO.P,J18,10*
G04 #@! TO.N,/O3_1_SHIELD*
X149685998Y-273498000D03*
G04 #@! TO.P,J18,9*
G04 #@! TO.N,/flow_sensor_shield*
X147145998Y-273498000D03*
G04 #@! TO.P,J18,8*
G04 #@! TO.N,/AQ1_GND*
X144605998Y-273498000D03*
G04 #@! TO.P,J18,7*
G04 #@! TO.N,/AQ1_5V*
X142065998Y-273498000D03*
G04 #@! TO.P,J18,6*
G04 #@! TO.N,/AQ1_SENSOR*
X139525998Y-273498000D03*
G04 #@! TO.P,J18,5*
G04 #@! TO.N,/AQ1_SHIELD*
X136985998Y-273498000D03*
G04 #@! TO.P,J18,4*
G04 #@! TO.N,/AQ2_SHIELD*
X134445998Y-273498000D03*
G04 #@! TO.P,J18,3*
G04 #@! TO.N,/AQ2_SENSOR*
X131905998Y-273498000D03*
G04 #@! TO.P,J18,2*
G04 #@! TO.N,/AQ2_5V*
X129365998Y-273498000D03*
D29*
G04 #@! TO.P,J18,1*
G04 #@! TO.N,/AQ2_GND*
X126825998Y-273498000D03*
G04 #@! TD*
D30*
G04 #@! TO.P,J1,14*
G04 #@! TO.N,/To_J1_P14*
X104340000Y-92360000D03*
G04 #@! TO.P,J1,13*
G04 #@! TO.N,/To_J1_P13*
X104340000Y-94900000D03*
G04 #@! TO.P,J1,12*
G04 #@! TO.N,/To_J1_P12*
X101800000Y-92360000D03*
G04 #@! TO.P,J1,11*
G04 #@! TO.N,/To_J1_P11*
X101800000Y-94900000D03*
G04 #@! TO.P,J1,10*
G04 #@! TO.N,/To_J1_P10*
X99260000Y-92360000D03*
G04 #@! TO.P,J1,9*
G04 #@! TO.N,/To_J1_P9*
X99260000Y-94900000D03*
G04 #@! TO.P,J1,8*
G04 #@! TO.N,/To_J1_P8*
X96720000Y-92360000D03*
G04 #@! TO.P,J1,7*
G04 #@! TO.N,/To_J1_P7*
X96720000Y-94900000D03*
G04 #@! TO.P,J1,6*
G04 #@! TO.N,/To_J1_P6*
X94180000Y-92360000D03*
G04 #@! TO.P,J1,5*
G04 #@! TO.N,/To_J1_P5*
X94180000Y-94900000D03*
G04 #@! TO.P,J1,4*
G04 #@! TO.N,/To_J1_P4*
X91640000Y-92360000D03*
G04 #@! TO.P,J1,3*
G04 #@! TO.N,/To_J1_P3*
X91640000Y-94900000D03*
G04 #@! TO.P,J1,2*
G04 #@! TO.N,/To_J1_P2*
X89100000Y-92360000D03*
D29*
G04 #@! TO.P,J1,1*
G04 #@! TO.N,/To_J1_P1*
X89100000Y-94900000D03*
G04 #@! TD*
D31*
G04 #@! TO.P,J23,3*
G04 #@! TO.N,IONAIR_RX*
X44790000Y-71805000D03*
G04 #@! TO.P,J23,2*
G04 #@! TO.N,IONAIR_TX*
X42250000Y-71805000D03*
D32*
G04 #@! TO.P,J23,1*
G04 #@! TO.N,GND*
X39710000Y-71805000D03*
G04 #@! TD*
D28*
G04 #@! TO.P,J10,2*
G04 #@! TO.N,SSR_PCB2_L_2*
X32710000Y-260000000D03*
G04 #@! TO.P,J10,1*
G04 #@! TO.N,PWR_SOURCE_SSR_L_1*
X25090000Y-260000000D03*
D17*
G04 #@! TD*
G04 #@! TO.N,PWR_SOURCE_SSR_L_1*
G04 #@! TO.C,J10*
G36*
X22590000Y-262500000D02*
X22590000Y-257500000D01*
X27590000Y-257500000D01*
X27590000Y-262500000D01*
X22590000Y-262500000D01*
X22590000Y-262500000D01*
G37*
D28*
G04 #@! TO.P,J12,3*
G04 #@! TO.N,/COMMON_N*
X40596000Y-279130000D03*
G04 #@! TO.P,J12,2*
G04 #@! TO.N,/220V_GND*
X32976000Y-279130000D03*
G04 #@! TO.P,J12,1*
G04 #@! TO.N,SSR_PCB2_L_2*
X25356000Y-279130000D03*
D17*
G04 #@! TD*
G04 #@! TO.N,SSR_PCB2_L_2*
G04 #@! TO.C,J12*
G36*
X22856000Y-281630000D02*
X22856000Y-276630000D01*
X27856000Y-276630000D01*
X27856000Y-281630000D01*
X22856000Y-281630000D01*
X22856000Y-281630000D01*
G37*
D33*
G04 #@! TO.N,/AQ1_SHIELD*
X54686000Y-167800000D03*
G04 #@! TO.N,/AQ1_SENSOR*
X59626000Y-167740000D03*
G04 #@! TO.N,/AQ1_5V*
X64866000Y-167800000D03*
G04 #@! TO.N,/AQ1_GND*
X70206000Y-168110000D03*
G04 #@! TO.N,/O3_1_SHIELD*
X42856000Y-146970000D03*
G04 #@! TO.N,/O3_1_SENSOR*
X48244495Y-146869709D03*
G04 #@! TO.N,/O3_1_24V*
X53596000Y-146970000D03*
G04 #@! TO.N,/O3_1_GND*
X59036000Y-146970000D03*
D34*
G04 #@! TO.N,GND*
X70000000Y-144000000D03*
D35*
X43250001Y-109590000D03*
D36*
X16000000Y-37000000D03*
X20200000Y-26700000D03*
X31170220Y-25400000D03*
X14100000Y-48100000D03*
X30010000Y-85180000D03*
X40468549Y-57450048D03*
X43250002Y-91680000D03*
X37505000Y-29930000D03*
D34*
X47390000Y-28810000D03*
D36*
X43299984Y-24950000D03*
X63250000Y-117250000D03*
X85600000Y-21090000D03*
X82659966Y-17072543D03*
X50100000Y-114300000D03*
X14230000Y-71240000D03*
X21900000Y-68360000D03*
X7200000Y-25230000D03*
D34*
X13462000Y-24384000D03*
X22000000Y-179000000D03*
X22000000Y-164000000D03*
X24000000Y-164000000D03*
X26000000Y-164000000D03*
X28000000Y-164000000D03*
X30000000Y-164000000D03*
X22000000Y-167000000D03*
X24000000Y-167000000D03*
X26000000Y-167000000D03*
X28000000Y-167000000D03*
X30000000Y-167000000D03*
X40468549Y-42100000D03*
D37*
X74230000Y-20260000D03*
D34*
X8636000Y-52578000D03*
X12192000Y-52324000D03*
X47984000Y-35588000D03*
X48984000Y-35588000D03*
X49984000Y-35588000D03*
X47984000Y-36588000D03*
X48984000Y-36588000D03*
X49984000Y-36588000D03*
X47984000Y-37588000D03*
X48984000Y-37588000D03*
X49984000Y-37588000D03*
X36576000Y-75438000D03*
X38608000Y-75438000D03*
X40640000Y-75438000D03*
X36576000Y-80264000D03*
X40640000Y-80264000D03*
X38608000Y-80264000D03*
X46302395Y-76887605D03*
X43428713Y-79761287D03*
X44865554Y-78324446D03*
X30226000Y-77321210D03*
X33099682Y-80194892D03*
X31662841Y-78758051D03*
X34798000Y-80264000D03*
D36*
X15240000Y-89662000D03*
X19304000Y-86360000D03*
D34*
X24384000Y-208534000D03*
X32004000Y-208534000D03*
X32004000Y-209534000D03*
X32004000Y-210534000D03*
X32004000Y-211534000D03*
X32004000Y-212534000D03*
X32004000Y-213534000D03*
X32004000Y-214534000D03*
X32004000Y-215534000D03*
X32004000Y-216534000D03*
X32004000Y-217534000D03*
X24384000Y-209534000D03*
X24384000Y-210534000D03*
X24384000Y-211534000D03*
X24384000Y-212534000D03*
X24384000Y-213534000D03*
X24384000Y-214534000D03*
X24384000Y-215534000D03*
X24384000Y-216534000D03*
X24384000Y-217534000D03*
X37000000Y-164000000D03*
X37000000Y-167000000D03*
X37000000Y-165000000D03*
X37000000Y-166000000D03*
X26000000Y-152000000D03*
X22000000Y-152000000D03*
X30000000Y-152000000D03*
X28000000Y-152000000D03*
X24000000Y-152000000D03*
X24500000Y-192000000D03*
X32000000Y-192000000D03*
D36*
X37324072Y-27369998D03*
X27178000Y-43942000D03*
X21336000Y-41910000D03*
X23368000Y-37084000D03*
X2286000Y-29210000D03*
X17018000Y-27432000D03*
D34*
X14732000Y-7874000D03*
D36*
X2540000Y-19050000D03*
X50038000Y-11430000D03*
X60960000Y-19812000D03*
X74422000Y-24892000D03*
X66294000Y-34798000D03*
D34*
X61976000Y-40386000D03*
D36*
X102108000Y-10668000D03*
X111252000Y-10922000D03*
X101600000Y-3048000D03*
D34*
X45560000Y-53490000D03*
X43640000Y-60810000D03*
X45640000Y-60810000D03*
X47640000Y-60810000D03*
X21170000Y-51900000D03*
X24960000Y-59190000D03*
X35100000Y-61440000D03*
X60850000Y-42850000D03*
X41860000Y-13770000D03*
X43942000Y-11684000D03*
X38190000Y-12340000D03*
X56130000Y-40190000D03*
X58425010Y-31290000D03*
D36*
X55190000Y-28760000D03*
D34*
X52780000Y-46440000D03*
X52130000Y-46210000D03*
X52100000Y-47220000D03*
X44950000Y-28490000D03*
X54220000Y-80280000D03*
X54100000Y-90350000D03*
X52560000Y-88910000D03*
X80150000Y-14990000D03*
X101890000Y-16080000D03*
X101890000Y-19860000D03*
X103390000Y-16080000D03*
X104890000Y-16080000D03*
X106390000Y-16080000D03*
X107890000Y-16080000D03*
X109390000Y-16080000D03*
X110890000Y-16080000D03*
X103390000Y-19860000D03*
X104890000Y-19860000D03*
X106390000Y-19860000D03*
X107890000Y-19860000D03*
X109390000Y-19860000D03*
X110890000Y-19860000D03*
X11616000Y-65100000D03*
X11616000Y-67230000D03*
D36*
G04 #@! TO.N,+5V*
X17276000Y-23820000D03*
X27830000Y-90050000D03*
X30790000Y-109560000D03*
X28150000Y-22280000D03*
X15600000Y-55000000D03*
X30540000Y-13320000D03*
X40370000Y-114330000D03*
X19630000Y-67130000D03*
X52300000Y-124100000D03*
X65100000Y-124299992D03*
X21600000Y-123720000D03*
X89040000Y-11930000D03*
X62250000Y-4310000D03*
X74880000Y-11870000D03*
G04 #@! TO.N,/stm32_board/STM32_CORE/SWIO*
X58150000Y-29030002D03*
G04 #@! TO.N,/stm32_board/STM32_CORE/SWCLK*
X46450000Y-19500000D03*
X52290000Y-28630000D03*
G04 #@! TO.N,+3V3*
X23500000Y-26000000D03*
X25900000Y-35200000D03*
X43120000Y-32580000D03*
X17620000Y-74740000D03*
X41290000Y-25720000D03*
X42310627Y-38853707D03*
X53810000Y-30660000D03*
X54560981Y-41277176D03*
X18000000Y-46000000D03*
X33650000Y-20290000D03*
X43688000Y-51308000D03*
G04 #@! TO.N,STM32_PMS7003S_SET*
X59930000Y-31900000D03*
X35130000Y-63390000D03*
X17400000Y-82160000D03*
X57500000Y-42060000D03*
G04 #@! TO.N,STM32_PMS7003S_RXD*
X33000000Y-57084010D03*
G04 #@! TO.N,STM32_PMS7003S_TXD*
X31496000Y-56642000D03*
G04 #@! TO.N,STM32_PMS7003S_RESET*
X15140000Y-77100000D03*
X31100012Y-58890000D03*
X56040000Y-43460000D03*
X59600000Y-34130000D03*
D35*
G04 #@! TO.N,PCB1_ALARM_COM*
X61496000Y-131770000D03*
D36*
X5400000Y-34060000D03*
G04 #@! TO.N,/stm32_board/FAN_RPM*
X86100000Y-9590000D03*
X74700000Y-17640000D03*
X86038541Y-16401470D03*
G04 #@! TO.N,VWS2812*
X56300000Y-20100000D03*
G04 #@! TO.N,IONAIR-TTL-TX*
X36200000Y-43940000D03*
X28500000Y-51500000D03*
X26160000Y-67200000D03*
G04 #@! TO.N,IONAIR-TTL-RX*
X31500000Y-49500000D03*
X27700000Y-66080000D03*
G04 #@! TO.N,STM32_WS2812_OUTPUT*
X46930000Y-44160000D03*
X90960000Y-17110010D03*
G04 #@! TO.N,STM32_SSR2_OUTPUT*
X52350000Y-86380000D03*
X33020000Y-51816000D03*
G04 #@! TO.N,STM32_SSR1_OUTPUT*
X53650004Y-112300000D03*
X32004000Y-53086004D03*
G04 #@! TO.N,STM32_SSR-25-DA_OUTPUT*
X52580000Y-94880000D03*
X31496000Y-54610000D03*
G04 #@! TO.N,B2B_UART_TX*
X64900000Y-5300000D03*
X57510000Y-7400000D03*
G04 #@! TO.N,B2B_UART_RX*
X56500000Y-4300000D03*
X63900000Y-4300000D03*
G04 #@! TO.N,STM32_FAN_RPM*
X63510000Y-32120000D03*
X70550000Y-20320000D03*
G04 #@! TO.N,Net-(Q1-Pad3)*
X41100000Y-119180000D03*
G04 #@! TO.N,/stm32_board/STM32_CORE/BOOT1*
X49273490Y-46150244D03*
X47752000Y-52832000D03*
G04 #@! TO.N,/stm32_board/STM32_CORE/RESET*
X15900000Y-47300000D03*
X37080000Y-40660000D03*
G04 #@! TO.N,IONAIR_RX*
X18990000Y-63310000D03*
G04 #@! TO.N,IONAIR_TX*
X17900000Y-62012231D03*
G04 #@! TO.N,STM32_PCB1_ALARM_COM*
X56100006Y-108300000D03*
X33274000Y-50546000D03*
D38*
G04 #@! TO.N,RELAY_P*
X42550000Y-142450000D03*
X35800000Y-179900000D03*
D36*
X40750000Y-132080000D03*
X5010000Y-57030000D03*
D38*
G04 #@! TO.N,RELAY_N*
X55000000Y-115100000D03*
X49200000Y-106300000D03*
X33200000Y-179850000D03*
X43400000Y-139850000D03*
D36*
X42560000Y-132290000D03*
G04 #@! TD*
D39*
G04 #@! TO.N,/To_J1_P1*
X164709648Y-240240000D02*
X177999998Y-240240000D01*
X95504000Y-139192000D02*
X100876000Y-144564000D01*
X143491856Y-197612000D02*
X143491856Y-187179856D01*
X143491856Y-188024939D02*
X143491856Y-197612000D01*
X143491856Y-219022208D02*
X145703648Y-221234000D01*
X143491856Y-197612000D02*
X143491856Y-219022208D01*
X145703648Y-221234000D02*
X164709648Y-240240000D01*
X144336939Y-219867291D02*
X145703648Y-221234000D01*
X143491856Y-187179856D02*
X100876000Y-144564000D01*
X87120000Y-104180000D02*
X87120000Y-130808000D01*
X89100000Y-94900000D02*
X89100000Y-102200000D01*
X87120000Y-130808000D02*
X100876000Y-144564000D01*
X89100000Y-102200000D02*
X87120000Y-104180000D01*
G04 #@! TO.N,/To_J1_P2*
X128506010Y-88006242D02*
X117869726Y-77369958D01*
X180539998Y-240240000D02*
X184321000Y-240240000D01*
X128506010Y-130792010D02*
X128506010Y-88006242D01*
X89100000Y-84317558D02*
X89100000Y-92360000D01*
X117869726Y-77369958D02*
X96047599Y-77369959D01*
X180308011Y-199343569D02*
X180308011Y-182594011D01*
X96047599Y-77369959D02*
X89100000Y-84317558D01*
X180308011Y-182594011D02*
X128506010Y-130792010D01*
X194252611Y-230308389D02*
X194252611Y-213288169D01*
X184321000Y-240240000D02*
X194252611Y-230308389D01*
X194252611Y-213288169D02*
X180308011Y-199343569D01*
G04 #@! TO.N,/To_J1_P3*
X164998090Y-237700000D02*
X177999998Y-237700000D01*
X145632713Y-187196508D02*
X145632713Y-192278000D01*
X145632713Y-218334623D02*
X148278090Y-220980000D01*
X146336950Y-219038860D02*
X148278090Y-220980000D01*
X145632713Y-192278000D02*
X145632713Y-218334623D01*
X148278090Y-220980000D02*
X164998090Y-237700000D01*
X88670000Y-129310000D02*
X145632713Y-186272713D01*
X91640000Y-102050000D02*
X88670000Y-105020000D01*
X145632713Y-186272713D02*
X145632713Y-192278000D01*
X88670000Y-105020000D02*
X88670000Y-129310000D01*
X91640000Y-94900000D02*
X91640000Y-102050000D01*
G04 #@! TO.N,/To_J1_P4*
X178133175Y-183247617D02*
X178133175Y-187706000D01*
X178133175Y-183422442D02*
X178133175Y-187706000D01*
X91640000Y-84606000D02*
X91640000Y-92360000D01*
X96876031Y-79369969D02*
X91640000Y-84606000D01*
X117041295Y-79369969D02*
X96876031Y-79369969D01*
X126506000Y-88834674D02*
X117041295Y-79369969D01*
X126506000Y-131620442D02*
X178133175Y-183247617D01*
X126506000Y-88834674D02*
X126506000Y-131620442D01*
X184032558Y-237700000D02*
X180539998Y-237700000D01*
X178133175Y-199997175D02*
X192252600Y-214116600D01*
X192252600Y-229479958D02*
X184032558Y-237700000D01*
X178133175Y-187706000D02*
X178133175Y-199997175D01*
X192252600Y-214116600D02*
X192252600Y-229479958D01*
G04 #@! TO.N,/To_J1_P5*
X165286532Y-235160000D02*
X177999998Y-235160000D01*
X147773570Y-185201403D02*
X147773570Y-189230000D01*
X147773570Y-217647038D02*
X150852532Y-220726000D01*
X147773570Y-189230000D02*
X147773570Y-217647038D01*
X150852532Y-220726000D02*
X165286532Y-235160000D01*
X148336961Y-218210429D02*
X150852532Y-220726000D01*
X94180000Y-101690000D02*
X94180000Y-96172792D01*
X94180000Y-96172792D02*
X94180000Y-94900000D01*
X90290000Y-105580000D02*
X94180000Y-101690000D01*
X90290000Y-127154442D02*
X90290000Y-105580000D01*
X147773570Y-189230000D02*
X147773570Y-184638012D01*
X147773570Y-184638012D02*
X90290000Y-127154442D01*
G04 #@! TO.N,/To_J1_P6*
X172720000Y-180662884D02*
X175641000Y-183583884D01*
X94180000Y-85606000D02*
X94180000Y-92360000D01*
X98416021Y-81369979D02*
X94180000Y-85606000D01*
X116212863Y-81369979D02*
X98416021Y-81369979D01*
X124317116Y-132260000D02*
X124317116Y-89474232D01*
X124317116Y-89474232D02*
X116212863Y-81369979D01*
X124317116Y-132260000D02*
X172720000Y-180662884D01*
X183744116Y-235160000D02*
X180539998Y-235160000D01*
X190068200Y-228835916D02*
X183744116Y-235160000D01*
X190068200Y-215162200D02*
X190068200Y-228835916D01*
X175958340Y-201052340D02*
X190068200Y-215162200D01*
X172720000Y-180662884D02*
X175958340Y-183901224D01*
X175958340Y-183901224D02*
X175958340Y-201052340D01*
G04 #@! TO.N,/To_J1_P7*
X165574974Y-232620000D02*
X177999998Y-232620000D01*
X101346000Y-135382000D02*
X102870000Y-136906000D01*
X149914427Y-183950427D02*
X148336000Y-182372000D01*
X149914427Y-188468000D02*
X149914427Y-183950427D01*
X149914427Y-184372970D02*
X149914427Y-188468000D01*
X149914427Y-188468000D02*
X149914427Y-216959453D01*
X149914427Y-216959453D02*
X152918974Y-219964000D01*
X152918974Y-219964000D02*
X165574974Y-232620000D01*
X150336970Y-217381996D02*
X152918974Y-219964000D01*
X102870000Y-136906000D02*
X148336000Y-182372000D01*
X104140000Y-138176000D02*
X148336000Y-182372000D01*
X91940000Y-106050000D02*
X91940000Y-125976000D01*
X96720000Y-94900000D02*
X96720000Y-101270000D01*
X91940000Y-125976000D02*
X102870000Y-136906000D01*
X96720000Y-101270000D02*
X91940000Y-106050000D01*
G04 #@! TO.N,/To_J1_P8*
X187579000Y-228496674D02*
X183455674Y-232620000D01*
X183455674Y-232620000D02*
X180539998Y-232620000D01*
X170688000Y-181459326D02*
X173783505Y-184554831D01*
X170688000Y-181459326D02*
X173577969Y-184349295D01*
X173783505Y-184554831D02*
X173783505Y-187960000D01*
X173783505Y-187960000D02*
X173783505Y-201168000D01*
X115424431Y-83409989D02*
X99637569Y-83409989D01*
X99637569Y-83409989D02*
X96720000Y-86327558D01*
X96720000Y-86327558D02*
X96720000Y-92360000D01*
X122238674Y-90224232D02*
X115424431Y-83409989D01*
X122238674Y-133010000D02*
X122238674Y-90224232D01*
X122238674Y-133010000D02*
X170688000Y-181459326D01*
X173783505Y-201717505D02*
X173783505Y-187960000D01*
X187883800Y-215817800D02*
X173783505Y-201717505D01*
X183455674Y-232620000D02*
X187883800Y-228191874D01*
X187883800Y-228191874D02*
X187883800Y-215817800D01*
G04 #@! TO.N,/To_J1_P9*
X104469558Y-134730000D02*
X152146000Y-182406442D01*
X152146000Y-184912000D02*
X152146000Y-182406442D01*
X152146000Y-182688139D02*
X152146000Y-184912000D01*
X103346011Y-133606453D02*
X104469558Y-134730000D01*
X152146000Y-215350000D02*
X166876000Y-230080000D01*
X152146000Y-184912000D02*
X152146000Y-215350000D01*
X166876000Y-230080000D02*
X177999998Y-230080000D01*
X93390000Y-123650442D02*
X104469558Y-134730000D01*
X93390000Y-106890000D02*
X93390000Y-123650442D01*
X99260000Y-94900000D02*
X99260000Y-101020000D01*
X99260000Y-101020000D02*
X93390000Y-106890000D01*
G04 #@! TO.N,/To_J1_P10*
X185547000Y-227700232D02*
X183167232Y-230080000D01*
X183167232Y-230080000D02*
X180539998Y-230080000D01*
X168910000Y-182626000D02*
X171450000Y-185166000D01*
X185699400Y-227547832D02*
X183167232Y-230080000D01*
X185699400Y-216993400D02*
X185699400Y-227547832D01*
X171608670Y-202902670D02*
X185699400Y-216993400D01*
X168910000Y-182626000D02*
X171608670Y-185324670D01*
X171608670Y-185324670D02*
X171608670Y-202902670D01*
X99260000Y-86616000D02*
X99260000Y-92360000D01*
X100466000Y-85410000D02*
X99260000Y-86616000D01*
X114124442Y-85410000D02*
X100466000Y-85410000D01*
X120216000Y-91501558D02*
X114124442Y-85410000D01*
X168910000Y-182626000D02*
X120216000Y-133932000D01*
X120216000Y-133932000D02*
X120216000Y-91501558D01*
G04 #@! TO.N,/To_J1_P11*
X105346022Y-132778022D02*
X107188000Y-134620000D01*
X154196142Y-181628142D02*
X107188000Y-134620000D01*
X154196142Y-197612000D02*
X154196142Y-181628142D01*
X154196142Y-181768992D02*
X154196142Y-197612000D01*
X167406000Y-227540000D02*
X177999998Y-227540000D01*
X154196142Y-214330142D02*
X167406000Y-227540000D01*
X154196142Y-197612000D02*
X154196142Y-214330142D01*
X95230000Y-122662000D02*
X107188000Y-134620000D01*
X95230000Y-107080000D02*
X95230000Y-122662000D01*
X101800000Y-94900000D02*
X101800000Y-100510000D01*
X101800000Y-100510000D02*
X95230000Y-107080000D01*
G04 #@! TO.N,/To_J1_P12*
X183515000Y-226903790D02*
X182878790Y-227540000D01*
X182878790Y-227540000D02*
X180539998Y-227540000D01*
X183515000Y-219456000D02*
X183515000Y-220980000D01*
X183515000Y-220980000D02*
X183515000Y-226903790D01*
X166370000Y-183388000D02*
X169291000Y-186309000D01*
X101800000Y-88586000D02*
X102975990Y-87410010D01*
X101800000Y-92360000D02*
X101800000Y-88586000D01*
X102975990Y-87410010D02*
X113296010Y-87410010D01*
X118182000Y-135200000D02*
X118182000Y-92296000D01*
X113296010Y-87410010D02*
X118182000Y-92296000D01*
X118182000Y-135200000D02*
X166370000Y-183388000D01*
X183515000Y-217969000D02*
X183515000Y-220980000D01*
X169433835Y-203887835D02*
X183515000Y-217969000D01*
X166370000Y-183388000D02*
X169433835Y-186451835D01*
X169433835Y-186451835D02*
X169433835Y-203887835D01*
G04 #@! TO.N,/To_J1_P13*
X168286000Y-225000000D02*
X177999998Y-225000000D01*
X104340000Y-100180000D02*
X96590000Y-107930000D01*
X156337003Y-180467003D02*
X156337003Y-213051003D01*
X104340000Y-94900000D02*
X104340000Y-100180000D01*
X96590000Y-107930000D02*
X96590000Y-120720000D01*
X156337003Y-213051003D02*
X168286000Y-225000000D01*
X96590000Y-120720000D02*
X156337003Y-180467003D01*
G04 #@! TO.N,/To_J1_P14*
X104340000Y-90656000D02*
X104340000Y-92360000D01*
X105546000Y-89450000D02*
X104340000Y-90656000D01*
X180539998Y-218153998D02*
X167259000Y-204873000D01*
X167259000Y-204873000D02*
X167259000Y-187579000D01*
X111686000Y-89450000D02*
X105546000Y-89450000D01*
X180539998Y-225000000D02*
X180539998Y-218153998D01*
X167259000Y-187579000D02*
X115900000Y-136220000D01*
X115900000Y-136220000D02*
X115900000Y-93664000D01*
X115900000Y-93664000D02*
X111686000Y-89450000D01*
D40*
G04 #@! TO.N,/COMMON_N*
X66603998Y-287020000D02*
X66603998Y-270257998D01*
X66603998Y-287020000D02*
X66603998Y-270087998D01*
X66603998Y-270087998D02*
X61726000Y-265210000D01*
X61726000Y-265210000D02*
X45386000Y-265210000D01*
X40596000Y-270000000D02*
X40596000Y-279130000D01*
X45386000Y-265210000D02*
X40596000Y-270000000D01*
D39*
G04 #@! TO.N,/AQ2_SHIELD*
X136445998Y-239939998D02*
X128914666Y-232408666D01*
X60756000Y-182320000D02*
X11476000Y-182320000D01*
X128914666Y-232408666D02*
X111268432Y-232408666D01*
X64179766Y-182320000D02*
X60756000Y-182320000D01*
X60756000Y-182320000D02*
X83036000Y-182320000D01*
X93759766Y-193043766D02*
X93759766Y-214900000D01*
X83036000Y-182320000D02*
X93759766Y-193043766D01*
X111268432Y-232408666D02*
X93759766Y-214900000D01*
X134445998Y-262000000D02*
X136445998Y-260000000D01*
X134445998Y-273498000D02*
X134445998Y-262000000D01*
X136445998Y-260000000D02*
X136445998Y-239939998D01*
G04 #@! TO.N,/AQ2_SENSOR*
X128086235Y-234408675D02*
X110439999Y-234408675D01*
X133905998Y-240228438D02*
X128086235Y-234408675D01*
X82366000Y-184860000D02*
X91571324Y-194065324D01*
X11476000Y-184860000D02*
X82366000Y-184860000D01*
X110439999Y-234408675D02*
X91571324Y-215540000D01*
X91571324Y-194065324D02*
X91571324Y-215540000D01*
X131905998Y-261300000D02*
X133905998Y-259300000D01*
X131905998Y-273498000D02*
X131905998Y-261300000D01*
X133905998Y-259300000D02*
X133905998Y-240228438D01*
G04 #@! TO.N,/AQ2_5V*
X131365998Y-258600000D02*
X131365998Y-256079998D01*
X89752882Y-216550000D02*
X109611568Y-236408686D01*
X11476000Y-187400000D02*
X81696000Y-187400000D01*
X89759745Y-216543137D02*
X89752882Y-216550000D01*
X81696000Y-187400000D02*
X89759745Y-195463745D01*
X89759745Y-195463745D02*
X89759745Y-216543137D01*
X109611568Y-236408686D02*
X127257804Y-236408686D01*
X127257804Y-236408686D02*
X131365998Y-240516880D01*
X129365998Y-273498000D02*
X129365998Y-260700000D01*
X131365998Y-240516880D02*
X131365998Y-258700000D01*
X129365998Y-260700000D02*
X131365998Y-258700000D01*
G04 #@! TO.N,/AQ2_GND*
X63164665Y-189940000D02*
X62406000Y-189940000D01*
X62406000Y-189940000D02*
X11476000Y-189940000D01*
X126825998Y-259974002D02*
X126825998Y-273498000D01*
X128825998Y-257974002D02*
X126825998Y-259974002D01*
X128825998Y-240805322D02*
X128825998Y-257974002D01*
X81206000Y-189940000D02*
X87759736Y-196493736D01*
X62406000Y-189940000D02*
X81206000Y-189940000D01*
X87759736Y-196493736D02*
X87759736Y-217385296D01*
X87759736Y-217385296D02*
X108783137Y-238408697D01*
X108783137Y-238408697D02*
X126429373Y-238408697D01*
X126429373Y-238408697D02*
X128825998Y-240805322D01*
G04 #@! TO.N,/AQ1_SHIELD*
X54686000Y-167800000D02*
X61336000Y-174450000D01*
X63826000Y-176940000D02*
X54686000Y-167800000D01*
X126365000Y-225513900D02*
X126365000Y-199366324D01*
X89470674Y-176940000D02*
X63826000Y-176940000D01*
X126365000Y-199366324D02*
X108512708Y-181514032D01*
X138985998Y-238134898D02*
X126365000Y-225513900D01*
X108512708Y-181514032D02*
X94044707Y-181514032D01*
X94044707Y-181514032D02*
X89470674Y-176940000D01*
X136985998Y-262500000D02*
X138985998Y-260500000D01*
X136985998Y-273498000D02*
X136985998Y-262500000D01*
X138985998Y-260500000D02*
X138985998Y-238134898D01*
G04 #@! TO.N,/AQ1_SENSOR*
X130501542Y-226822000D02*
X134943611Y-231264069D01*
X128505857Y-200787000D02*
X128505857Y-208026000D01*
X128505857Y-224826315D02*
X141525998Y-237846456D01*
X128505857Y-208026000D02*
X128505857Y-224826315D01*
X128505857Y-198678739D02*
X128505857Y-208026000D01*
X59626000Y-167790000D02*
X66236000Y-174400000D01*
X59626000Y-167740000D02*
X59626000Y-167790000D01*
X66236000Y-174400000D02*
X89759116Y-174400000D01*
X89759116Y-174400000D02*
X94873138Y-179514021D01*
X94873138Y-179514021D02*
X109341139Y-179514021D01*
X109341139Y-179514021D02*
X128505857Y-198678739D01*
X139525998Y-262800000D02*
X141525998Y-260800000D01*
X139525998Y-273498000D02*
X139525998Y-262800000D01*
X141525998Y-260800000D02*
X141525998Y-237846456D01*
G04 #@! TO.N,/AQ1_5V*
X130646714Y-198882000D02*
X130646714Y-203708000D01*
X130646714Y-203708000D02*
X130646714Y-224138730D01*
X133858000Y-227350016D02*
X144065998Y-237558014D01*
X130646714Y-224138730D02*
X133858000Y-227350016D01*
X130646714Y-224138730D02*
X132842000Y-226334016D01*
X132842000Y-226334016D02*
X133858000Y-227350016D01*
X130810000Y-224302016D02*
X132842000Y-226334016D01*
X130646714Y-197991154D02*
X130646714Y-203708000D01*
X64866000Y-167960000D02*
X68766000Y-171860000D01*
X64866000Y-167800000D02*
X64866000Y-167960000D01*
X68766000Y-171860000D02*
X90047558Y-171860000D01*
X90047558Y-171860000D02*
X95701569Y-177514010D01*
X95701569Y-177514010D02*
X110169570Y-177514010D01*
X110169570Y-177514010D02*
X130646714Y-197991154D01*
X142065998Y-262600000D02*
X144065998Y-260600000D01*
X142065998Y-273498000D02*
X142065998Y-262600000D01*
X144065998Y-237558014D02*
X144065998Y-260600000D01*
G04 #@! TO.N,/AQ1_GND*
X132787571Y-197739000D02*
X132787571Y-201168000D01*
X132787571Y-223451145D02*
X136666426Y-227330000D01*
X132787571Y-201168000D02*
X132787571Y-223451145D01*
X136666426Y-227330000D02*
X146605998Y-237269572D01*
X132787571Y-223451145D02*
X135636000Y-226299574D01*
X133223000Y-223886574D02*
X135636000Y-226299574D01*
X135636000Y-226299574D02*
X136666426Y-227330000D01*
X70206000Y-168140000D02*
X70206000Y-168110000D01*
X132787571Y-197303571D02*
X110998000Y-175514000D01*
X96530000Y-175514000D02*
X90336000Y-169320000D01*
X90336000Y-169320000D02*
X71386000Y-169320000D01*
X132787571Y-201168000D02*
X132787571Y-197303571D01*
X110998000Y-175514000D02*
X96530000Y-175514000D01*
X71386000Y-169320000D02*
X70206000Y-168140000D01*
X144605998Y-262800000D02*
X146605998Y-260800000D01*
X144605998Y-273498000D02*
X144605998Y-262800000D01*
X146605998Y-237269572D02*
X146605998Y-260800000D01*
G04 #@! TO.N,/O3_1_SHIELD*
X134928428Y-195961000D02*
X134928428Y-203454000D01*
X134928428Y-222763560D02*
X138938000Y-226773132D01*
X134928428Y-203454000D02*
X134928428Y-222763560D01*
X134928428Y-222763560D02*
X136954868Y-224790000D01*
X136954868Y-224790000D02*
X138938000Y-226773132D01*
X135255000Y-223090132D02*
X136954868Y-224790000D01*
X134928428Y-193577752D02*
X134928428Y-203454000D01*
X112170708Y-170820032D02*
X134928428Y-193577752D01*
X86120674Y-158940000D02*
X98000707Y-170820032D01*
X98000707Y-170820032D02*
X112170708Y-170820032D01*
X54826000Y-158940000D02*
X42856000Y-146970000D01*
X86120674Y-158940000D02*
X54826000Y-158940000D01*
X149685998Y-237521130D02*
X138938000Y-226773132D01*
X149685998Y-273498000D02*
X149685998Y-237521130D01*
G04 #@! TO.N,/O3_1_SENSOR*
X137069285Y-200406000D02*
X137069285Y-194473285D01*
X137069285Y-200406000D02*
X137069285Y-194310000D01*
X137069285Y-204216000D02*
X137069285Y-200406000D01*
X137069285Y-222075975D02*
X140716000Y-225722690D01*
X137069285Y-204216000D02*
X137069285Y-222075975D01*
X137069285Y-222075975D02*
X138767310Y-223774000D01*
X138767310Y-223774000D02*
X137668000Y-222674690D01*
X140716000Y-225722690D02*
X138767310Y-223774000D01*
X152456011Y-237462701D02*
X140716000Y-225722690D01*
X152456011Y-264470011D02*
X152456011Y-237462701D01*
X98829136Y-168820020D02*
X86409116Y-156400000D01*
X57774786Y-156400000D02*
X48244495Y-146869709D01*
X112999139Y-168820021D02*
X98829136Y-168820020D01*
X137069285Y-192890167D02*
X112999139Y-168820021D01*
X137069285Y-204216000D02*
X137069285Y-192890167D01*
X86409116Y-156400000D02*
X57774786Y-156400000D01*
X154765998Y-266779998D02*
X152456011Y-264470011D01*
X154765998Y-273498000D02*
X154765998Y-266779998D01*
G04 #@! TO.N,/O3_1_24V*
X139210142Y-201168000D02*
X139210142Y-192278000D01*
X141693885Y-223520000D02*
X139954000Y-221780115D01*
X139210142Y-201168000D02*
X139210142Y-221036257D01*
X139210142Y-221036257D02*
X141693885Y-223520000D01*
X154456022Y-261390022D02*
X154456022Y-236282137D01*
X154456022Y-236282137D02*
X141693885Y-223520000D01*
X60486000Y-153860000D02*
X53596000Y-146970000D01*
X139210142Y-201168000D02*
X139210142Y-192202584D01*
X139210142Y-192202584D02*
X138928450Y-191920890D01*
X138928450Y-191920890D02*
X113827571Y-166820011D01*
X113827571Y-166820011D02*
X99657568Y-166820010D01*
X99657568Y-166820010D02*
X86697558Y-153860000D01*
X86697558Y-153860000D02*
X60486000Y-153860000D01*
X159845998Y-266779998D02*
X154456022Y-261390022D01*
X159845998Y-273498000D02*
X159845998Y-266779998D01*
G04 #@! TO.N,/O3_1_GND*
X156464000Y-258318000D02*
X156464000Y-235037411D01*
X141350999Y-219924410D02*
X143002000Y-221575411D01*
X141350999Y-206248000D02*
X141350999Y-219924410D01*
X143002000Y-221575411D02*
X142240000Y-220813411D01*
X156464000Y-235037411D02*
X143002000Y-221575411D01*
X141350999Y-206248000D02*
X141350999Y-199898000D01*
X63386000Y-151320000D02*
X59036000Y-146970000D01*
X100486000Y-164820000D02*
X86986000Y-151320000D01*
X86986000Y-151320000D02*
X63386000Y-151320000D01*
X114656000Y-164820000D02*
X100486000Y-164820000D01*
X141350999Y-191514999D02*
X114656000Y-164820000D01*
X141350999Y-206248000D02*
X141350999Y-191514999D01*
X164925998Y-266779998D02*
X156464000Y-258318000D01*
X164925998Y-273498000D02*
X164925998Y-266779998D01*
G04 #@! TO.N,/flow_sensor_shield*
X111760000Y-244214000D02*
X111760000Y-270764000D01*
X111760000Y-270764000D02*
X119380000Y-278384000D01*
X62506000Y-194358000D02*
X76114000Y-194358000D01*
X11476000Y-194358000D02*
X62506000Y-194358000D01*
X62506000Y-194358000D02*
X64904000Y-194358000D01*
X85276000Y-203520000D02*
X85276000Y-217730000D01*
X76114000Y-194358000D02*
X85276000Y-203520000D01*
X85276000Y-217730000D02*
X111760000Y-244214000D01*
X119380000Y-278384000D02*
X144816000Y-278384000D01*
X147145998Y-276054002D02*
X144816000Y-278384000D01*
X147145998Y-273498000D02*
X147145998Y-276054002D01*
G04 #@! TO.N,/flow_sensor_\0025RH*
X40476000Y-196898000D02*
X64476000Y-196898000D01*
X11476000Y-196898000D02*
X40476000Y-196898000D01*
X118583558Y-280416000D02*
X148621990Y-280416000D01*
X109632750Y-271465192D02*
X109632750Y-244915190D01*
X118583558Y-280416000D02*
X109632750Y-271465192D01*
X83287560Y-204811560D02*
X83287560Y-218570000D01*
X75374000Y-196898000D02*
X83287560Y-204811560D01*
X40476000Y-196898000D02*
X75374000Y-196898000D01*
X109632750Y-244915190D02*
X83287560Y-218570000D01*
X152225998Y-276811992D02*
X148621990Y-280416000D01*
X152225998Y-273498000D02*
X152225998Y-276811992D01*
G04 #@! TO.N,/flow_sensor_FLOW*
X140676000Y-282448000D02*
X151855546Y-282448000D01*
X107632740Y-272293623D02*
X107632740Y-269337241D01*
X117787117Y-282448000D02*
X107632740Y-272293623D01*
X130596000Y-282448000D02*
X128036000Y-282448000D01*
X128036000Y-282448000D02*
X117787117Y-282448000D01*
X107632740Y-272293623D02*
X107632740Y-245743622D01*
X107632740Y-245743622D02*
X107016000Y-245126882D01*
X107016000Y-245126882D02*
X107505500Y-245616382D01*
X81386000Y-205840000D02*
X81386000Y-219496882D01*
X74984000Y-199438000D02*
X81386000Y-205840000D01*
X11476000Y-199438000D02*
X74984000Y-199438000D01*
X81386000Y-219496882D02*
X107016000Y-245126882D01*
X157305998Y-277842002D02*
X152700000Y-282448000D01*
X157305998Y-273498000D02*
X157305998Y-277842002D01*
X128036000Y-282448000D02*
X152700000Y-282448000D01*
G04 #@! TO.N,/flow_sensor_24V*
X138276000Y-284480000D02*
X154649546Y-284480000D01*
X138276000Y-284480000D02*
X148336000Y-284480000D01*
X148726000Y-284480000D02*
X156476000Y-284480000D01*
X138276000Y-284480000D02*
X148726000Y-284480000D01*
X148726000Y-284480000D02*
X116990676Y-284480000D01*
X105632730Y-273122054D02*
X105632730Y-246572054D01*
X116990676Y-284480000D02*
X105632730Y-273122054D01*
X79376000Y-207300000D02*
X79376000Y-220315324D01*
X74054000Y-201978000D02*
X79376000Y-207300000D01*
X11476000Y-201978000D02*
X74054000Y-201978000D01*
X105632730Y-246572054D02*
X79376000Y-220315324D01*
X162385998Y-273498000D02*
X162385998Y-278570002D01*
X156476000Y-284480000D02*
X162385998Y-278570002D01*
G04 #@! TO.N,/flow_sensor_GND*
X103632720Y-247400486D02*
X103632720Y-274086720D01*
X103632720Y-274086720D02*
X116696000Y-287150000D01*
X116696000Y-287150000D02*
X157926000Y-287150000D01*
X157926000Y-287150000D02*
X166046000Y-279030000D01*
X77522234Y-208506234D02*
X77522234Y-221290000D01*
X73534000Y-204518000D02*
X77522234Y-208506234D01*
X11476000Y-204518000D02*
X73534000Y-204518000D01*
X77522234Y-221290000D02*
X103632720Y-247400486D01*
X166070000Y-279030000D02*
X166046000Y-279030000D01*
X167465998Y-273498000D02*
X167465998Y-277634002D01*
X167465998Y-277634002D02*
X166070000Y-279030000D01*
G04 #@! TO.N,GND*
X43250002Y-93510000D02*
X43250001Y-108741472D01*
X43250001Y-108741472D02*
X43250001Y-109590000D01*
X42530002Y-85180000D02*
X30010000Y-85180000D01*
X43250002Y-85900000D02*
X42530002Y-85180000D01*
X43250002Y-85900000D02*
X43250002Y-91680000D01*
X43250002Y-91680000D02*
X43250002Y-93510000D01*
X40468549Y-32893549D02*
X37505000Y-29930000D01*
X40468549Y-57450048D02*
X40468549Y-45466000D01*
X46250000Y-27900016D02*
X43299984Y-24950000D01*
X46250000Y-29366417D02*
X46250000Y-27900016D01*
X43250001Y-109590000D02*
X43250001Y-113400001D01*
X43250001Y-113400001D02*
X47100000Y-117250000D01*
X82659966Y-17072543D02*
X85600000Y-20012577D01*
X85600000Y-20012577D02*
X85600000Y-21090000D01*
X47100000Y-117250000D02*
X53420000Y-117250000D01*
X50420000Y-117250000D02*
X63250000Y-117250000D01*
X50208593Y-114408593D02*
X50100000Y-114300000D01*
X53420000Y-117250000D02*
X50208593Y-117250000D01*
X50208593Y-117250000D02*
X50208593Y-114408593D01*
X9463501Y-82572770D02*
X11438501Y-82572770D01*
X11438501Y-82572770D02*
X12170000Y-81841271D01*
X16000000Y-37000000D02*
X14640000Y-37000000D01*
X14100000Y-37540000D02*
X14100000Y-48100000D01*
X14640000Y-37000000D02*
X14100000Y-37540000D01*
X39710000Y-76889998D02*
X43250002Y-80430000D01*
X39710000Y-71805000D02*
X39710000Y-76889998D01*
X43250002Y-80430000D02*
X43250002Y-85900000D01*
X12170000Y-73300000D02*
X14230000Y-71240000D01*
X12170000Y-78920000D02*
X12170000Y-73300000D01*
X12170000Y-81841271D02*
X12170000Y-78920000D01*
X12170000Y-78920000D02*
X12170000Y-76430000D01*
X19470148Y-71240000D02*
X21450000Y-69260148D01*
X14230000Y-71240000D02*
X19470148Y-71240000D01*
X11470000Y-25230000D02*
X7907106Y-25230000D01*
X7907106Y-25230000D02*
X7200000Y-25230000D01*
X9430000Y-25240000D02*
X9440000Y-25230000D01*
X7200000Y-25230000D02*
X9440000Y-25230000D01*
X9430000Y-30170000D02*
X9430000Y-25240000D01*
X22150000Y-61600000D02*
X22150000Y-68560148D01*
X22150000Y-68560148D02*
X21450000Y-69260148D01*
X14100000Y-48100000D02*
X17110000Y-51110000D01*
X17110000Y-56560000D02*
X22150000Y-61600000D01*
X17110000Y-51110000D02*
X17110000Y-56560000D01*
X40468549Y-42100000D02*
X40468549Y-32893549D01*
X30270220Y-24500000D02*
X31170220Y-25400000D01*
X20200000Y-26700000D02*
X22400000Y-24500000D01*
X22400000Y-24500000D02*
X30270220Y-24500000D01*
X36616966Y-27369998D02*
X37324072Y-27369998D01*
X33140218Y-27369998D02*
X36616966Y-27369998D01*
X31170220Y-25400000D02*
X33140218Y-27369998D01*
X40468549Y-45466000D02*
X40468549Y-42100000D01*
X7488501Y-82572770D02*
X6350000Y-83711271D01*
X9463501Y-82572770D02*
X7488501Y-82572770D01*
X6350000Y-83711271D02*
X6350000Y-96774000D01*
X7148770Y-97572770D02*
X9463501Y-97572770D01*
X6350000Y-96774000D02*
X7148770Y-97572770D01*
X12606000Y-25240000D02*
X13462000Y-24384000D01*
X9430000Y-25240000D02*
X12606000Y-25240000D01*
D41*
G04 #@! TO.N,+5V*
X20720000Y-23820000D02*
X22260000Y-22280000D01*
X17276000Y-23820000D02*
X20720000Y-23820000D01*
X22260000Y-22280000D02*
X28150000Y-22280000D01*
D42*
X27830000Y-90050000D02*
X28800000Y-91020000D01*
X37115730Y-2350000D02*
X39000000Y-2350000D01*
X35108500Y-4357230D02*
X37115730Y-2350000D01*
X35108500Y-6357230D02*
X35108500Y-4357230D01*
X39000000Y-2350000D02*
X37900000Y-2350000D01*
X47100000Y-2350000D02*
X39000000Y-2350000D01*
X46000000Y-2350000D02*
X47100000Y-2350000D01*
D41*
X35108500Y-4378500D02*
X35108500Y-6357230D01*
X33430000Y-2700000D02*
X35108500Y-4378500D01*
X19600000Y-2700000D02*
X33430000Y-2700000D01*
X17276000Y-23820000D02*
X17276000Y-5024000D01*
X17276000Y-5024000D02*
X19600000Y-2700000D01*
X35108500Y-11091500D02*
X33379999Y-12820001D01*
X35108500Y-6357230D02*
X35108500Y-11091500D01*
X33379999Y-12820001D02*
X31039999Y-12820001D01*
X31039999Y-12820001D02*
X30540000Y-13320000D01*
D42*
X64900008Y-124100000D02*
X65100000Y-124299992D01*
X49300000Y-124100000D02*
X64900008Y-124100000D01*
X32350000Y-111120000D02*
X30790000Y-109560000D01*
X37160000Y-111120000D02*
X40370000Y-114330000D01*
X33540000Y-111120000D02*
X37160000Y-111120000D01*
X33540000Y-111120000D02*
X32350000Y-111120000D01*
X28800000Y-107570000D02*
X30790000Y-109560000D01*
X28800000Y-102480000D02*
X28800000Y-107570000D01*
X28800000Y-91020000D02*
X28800000Y-102480000D01*
X29740000Y-121380000D02*
X29740000Y-110610000D01*
X29740000Y-110610000D02*
X30790000Y-109560000D01*
X21600000Y-123720000D02*
X27400000Y-123720000D01*
X27400000Y-123720000D02*
X29740000Y-121380000D01*
X45030000Y-124100000D02*
X52300000Y-124100000D01*
X43437588Y-122507588D02*
X45030000Y-124100000D01*
X40280000Y-114332421D02*
X43437588Y-117490009D01*
X43437588Y-117490009D02*
X43437588Y-122507588D01*
X9463501Y-80072770D02*
X9463501Y-75607730D01*
D41*
X15600000Y-52600000D02*
X15600000Y-55000000D01*
X17276000Y-23820000D02*
X11668812Y-29427188D01*
X11668812Y-48668812D02*
X15600000Y-52600000D01*
X9463501Y-80072770D02*
X9463501Y-72607730D01*
X18670000Y-68090000D02*
X19630000Y-67130000D01*
X9463501Y-72607730D02*
X13981231Y-68090000D01*
X13981231Y-68090000D02*
X18670000Y-68090000D01*
X20649988Y-62838217D02*
X15600000Y-57788229D01*
X15600000Y-55707106D02*
X15600000Y-55000000D01*
X15600000Y-57788229D02*
X15600000Y-55707106D01*
X20649988Y-66110012D02*
X20649988Y-62838217D01*
X19630000Y-67130000D02*
X20649988Y-66110012D01*
D42*
X72560000Y-2350000D02*
X62730000Y-2350000D01*
X73630000Y-3420000D02*
X72560000Y-2350000D01*
X83770000Y-11930000D02*
X89040000Y-11930000D01*
X83760000Y-11940000D02*
X83770000Y-11930000D01*
X74910000Y-11940000D02*
X83760000Y-11940000D01*
X73630000Y-7470000D02*
X73630000Y-10660000D01*
X73630000Y-10660000D02*
X74910000Y-11940000D01*
X73630000Y-7470000D02*
X73630000Y-3420000D01*
X11658812Y-47670000D02*
X11668812Y-47660000D01*
X9430000Y-47670000D02*
X11658812Y-47670000D01*
D41*
X11668812Y-29427188D02*
X11668812Y-47660000D01*
X11668812Y-47660000D02*
X11668812Y-48668812D01*
D42*
X62250000Y-3602894D02*
X62250000Y-2350000D01*
X47100000Y-2350000D02*
X62250000Y-2350000D01*
X62250000Y-4310000D02*
X62250000Y-3602894D01*
X62250000Y-2350000D02*
X62730000Y-2350000D01*
D43*
G04 #@! TO.N,/stm32_board/STM32_CORE/SWIO*
X57650001Y-28530003D02*
X58150000Y-29030002D01*
X42600000Y-8090000D02*
X48300000Y-13790000D01*
X48300000Y-24670000D02*
X49590000Y-25960000D01*
X49590000Y-25960000D02*
X55079998Y-25960000D01*
X55079998Y-25960000D02*
X57650001Y-28530003D01*
X48300000Y-13790000D02*
X48300000Y-24670000D01*
G04 #@! TO.N,/stm32_board/STM32_CORE/SWCLK*
X49860000Y-28630000D02*
X52290000Y-28630000D01*
X46450000Y-25220000D02*
X49860000Y-28630000D01*
X46450000Y-25220000D02*
X46450000Y-19500000D01*
D41*
G04 #@! TO.N,+3V3*
X26500000Y-34600000D02*
X25900000Y-35200000D01*
D42*
X43120000Y-31426000D02*
X43120000Y-32580000D01*
X43146000Y-31400000D02*
X43120000Y-31426000D01*
X43146000Y-30750000D02*
X43146000Y-31400000D01*
X53810000Y-40526195D02*
X54060982Y-40777177D01*
X54060982Y-40777177D02*
X54560981Y-41277176D01*
X53810000Y-30660000D02*
X53810000Y-40526195D01*
X45190000Y-30660000D02*
X53810000Y-30660000D01*
X45100000Y-30750000D02*
X45190000Y-30660000D01*
X43146000Y-30750000D02*
X45100000Y-30750000D01*
X49584213Y-3500000D02*
X40350000Y-3500000D01*
X50220000Y-5550000D02*
X50220000Y-4135787D01*
X40350000Y-3500000D02*
X40000000Y-3850000D01*
X50220000Y-4135787D02*
X49584213Y-3500000D01*
D41*
X26500000Y-29000000D02*
X23500000Y-26000000D01*
X26500000Y-32000000D02*
X26500000Y-29000000D01*
X26500000Y-30600000D02*
X26500000Y-32000000D01*
X26500000Y-32000000D02*
X26500000Y-34600000D01*
D42*
X43146000Y-27576000D02*
X41290000Y-25720000D01*
X43146000Y-30240000D02*
X43146000Y-27576000D01*
X43146000Y-31400000D02*
X43146000Y-30240000D01*
X40000000Y-14870000D02*
X40000000Y-18290000D01*
X40000000Y-3850000D02*
X40000000Y-14870000D01*
X40000000Y-18290000D02*
X38000000Y-20290000D01*
X38000000Y-20290000D02*
X34920000Y-20290000D01*
X34920000Y-20290000D02*
X33650000Y-20290000D01*
X39050000Y-21740000D02*
X39050000Y-23480000D01*
X39050000Y-23480000D02*
X41290000Y-25720000D01*
X37600000Y-20290000D02*
X39050000Y-21740000D01*
X34920000Y-20290000D02*
X37600000Y-20290000D01*
X43688000Y-44598000D02*
X43688000Y-51308000D01*
X43010000Y-43920000D02*
X43688000Y-44598000D01*
X42810626Y-39353706D02*
X43010000Y-39553080D01*
X43146000Y-38018334D02*
X42310627Y-38853707D01*
X43146000Y-30750000D02*
X43146000Y-38018334D01*
X43010000Y-39553080D02*
X42310627Y-38853707D01*
X43010000Y-42980000D02*
X43010000Y-39553080D01*
X43010000Y-42980000D02*
X43010000Y-43920000D01*
D41*
X19120000Y-47120000D02*
X18000000Y-46000000D01*
X19120000Y-56250000D02*
X19120000Y-47120000D01*
X24290000Y-61420000D02*
X19120000Y-56250000D01*
X24290000Y-69690000D02*
X24290000Y-61420000D01*
X17620000Y-74740000D02*
X19240000Y-74740000D01*
X19240000Y-74740000D02*
X24290000Y-69690000D01*
D43*
G04 #@! TO.N,STM32_PMS7003S_SET*
X20357230Y-92572770D02*
X9463501Y-92572770D01*
X24347106Y-88582894D02*
X20357230Y-92572770D01*
X21210000Y-82160000D02*
X23297106Y-82160000D01*
X21210000Y-82160000D02*
X17400000Y-82160000D01*
X24347106Y-83207106D02*
X23300000Y-82160000D01*
X24347106Y-84540000D02*
X24347106Y-83207106D01*
X23300000Y-82160000D02*
X21210000Y-82160000D01*
X24347106Y-84540000D02*
X24347106Y-88582894D01*
X24347106Y-79100000D02*
X24347106Y-79540000D01*
X35130000Y-65962000D02*
X35130000Y-63390000D01*
X57680000Y-41880000D02*
X57500000Y-42060000D01*
X57680000Y-34150000D02*
X59930000Y-31900000D01*
X57680000Y-35140000D02*
X57680000Y-34150000D01*
X57680000Y-35140000D02*
X57680000Y-41880000D01*
X23297106Y-82160000D02*
X24347106Y-81110000D01*
X24347106Y-76744894D02*
X26360000Y-74732000D01*
X26360000Y-74732000D02*
X35130000Y-65962000D01*
X24347106Y-80630000D02*
X24347106Y-76744894D01*
X24347106Y-79540000D02*
X24347106Y-80630000D01*
X24347106Y-80630000D02*
X24347106Y-81110000D01*
G04 #@! TO.N,STM32_PMS7003S_RXD*
X33499999Y-65930001D02*
X33499999Y-57584009D01*
X9588501Y-90072770D02*
X15240000Y-84421271D01*
X9463501Y-90072770D02*
X9588501Y-90072770D01*
X33499999Y-57584009D02*
X33000000Y-57084010D01*
X15240000Y-84421271D02*
X15240000Y-81788000D01*
X15240000Y-81788000D02*
X16820969Y-80207031D01*
X16820969Y-80207031D02*
X19222969Y-80207031D01*
X19222969Y-80207031D02*
X33499999Y-65930001D01*
G04 #@! TO.N,STM32_PMS7003S_TXD*
X13970000Y-83191271D02*
X13970000Y-80813518D01*
X15711508Y-79072010D02*
X18757990Y-79072010D01*
X9463501Y-87572770D02*
X9588501Y-87572770D01*
X18757990Y-79072010D02*
X32390000Y-65440000D01*
X31496000Y-57349106D02*
X31496000Y-56642000D01*
X9588501Y-87572770D02*
X13970000Y-83191271D01*
X32390000Y-58243106D02*
X31496000Y-57349106D01*
X32390000Y-65440000D02*
X32390000Y-58243106D01*
X13970000Y-80813518D02*
X15711508Y-79072010D01*
G04 #@! TO.N,STM32_PMS7003S_RESET*
X31100012Y-64859988D02*
X31100012Y-58890000D01*
X18860000Y-77100000D02*
X31100012Y-64859988D01*
X15140000Y-77100000D02*
X18860000Y-77100000D01*
X59600000Y-34837106D02*
X59600000Y-34130000D01*
X59600000Y-41740000D02*
X59600000Y-34837106D01*
X57880000Y-43460000D02*
X59600000Y-41740000D01*
X56040000Y-43460000D02*
X57880000Y-43460000D01*
D39*
G04 #@! TO.N,PCB1_ALARM_COM*
X57285978Y-135980022D02*
X61496000Y-131770000D01*
X3210000Y-36250000D02*
X3210000Y-53350000D01*
X1200001Y-126620001D02*
X10560022Y-135980022D01*
X5400000Y-34060000D02*
X3210000Y-36250000D01*
X3210000Y-53350000D02*
X1200001Y-55359999D01*
X1200001Y-55359999D02*
X1200001Y-126620001D01*
X10560022Y-135980022D02*
X57285978Y-135980022D01*
G04 #@! TO.N,/stm32_board/FAN_48V*
X95350000Y-8090000D02*
X95350000Y-6000000D01*
X95350000Y-6000000D02*
X93150000Y-3800000D01*
X93150000Y-3800000D02*
X81240000Y-3800000D01*
X79100000Y-5940000D02*
X79100000Y-8090000D01*
X81240000Y-3800000D02*
X79100000Y-5940000D01*
D43*
G04 #@! TO.N,/stm32_board/FAN_RPM*
X86100000Y-9590000D02*
X86100000Y-5850000D01*
X86100000Y-5850000D02*
X86980000Y-4970000D01*
X86980000Y-4970000D02*
X91330000Y-4970000D01*
X92850000Y-6490000D02*
X92850000Y-8090000D01*
X91330000Y-4970000D02*
X92850000Y-6490000D01*
X81568529Y-15901471D02*
X85538542Y-15901471D01*
X85538542Y-15901471D02*
X86038541Y-16401470D01*
X74700000Y-17640000D02*
X79830000Y-17640000D01*
X79830000Y-17640000D02*
X81568529Y-15901471D01*
G04 #@! TO.N,VWS2812*
X120100000Y-10500000D02*
X120100000Y-9300000D01*
X118850000Y-13050000D02*
X120100000Y-11800000D01*
X56300000Y-20100000D02*
X56300000Y-19392894D01*
X120100000Y-11270000D02*
X120100000Y-8090000D01*
X120100000Y-11800000D02*
X120100000Y-11270000D01*
X120100000Y-11270000D02*
X120100000Y-10500000D01*
X62352894Y-13340000D02*
X60052894Y-15640000D01*
X71540000Y-13340000D02*
X62352894Y-13340000D01*
X56300000Y-19392894D02*
X60052894Y-15640000D01*
X63892894Y-13340000D02*
X71540000Y-13340000D01*
X118560000Y-13340000D02*
X120100000Y-11800000D01*
X99822000Y-13340000D02*
X118560000Y-13340000D01*
X71540000Y-13340000D02*
X99822000Y-13340000D01*
X99822000Y-13340000D02*
X101150000Y-13340000D01*
D39*
G04 #@! TO.N,/stm32_board/SSR_CH1_OUTPUT1*
X20861072Y-119587920D02*
X24263594Y-116185398D01*
X9513501Y-119587920D02*
X20861072Y-119587920D01*
G04 #@! TO.N,/stm32_board/SSR_CH1_OUTPUT2*
X15741072Y-117087920D02*
X16643594Y-116185398D01*
X9513501Y-117087920D02*
X15741072Y-117087920D01*
G04 #@! TO.N,/stm32_board/SSR_CH2_OUTPUT2*
X15583473Y-103967920D02*
X16643594Y-102907799D01*
X9513501Y-103967920D02*
X15583473Y-103967920D01*
G04 #@! TO.N,/stm32_board/SSR_CH2_OUTPUT1*
X20703473Y-106467920D02*
X9513501Y-106467920D01*
X24263594Y-102907799D02*
X20703473Y-106467920D01*
D43*
G04 #@! TO.N,IONAIR-TTL-TX*
X28200000Y-58223998D02*
X27153998Y-59270000D01*
X26643998Y-59780000D02*
X27153998Y-59270000D01*
X29360000Y-57063998D02*
X26643998Y-59780000D01*
X29360000Y-52360000D02*
X28500000Y-51500000D01*
X29360000Y-53500000D02*
X29360000Y-52360000D01*
X29360000Y-53500000D02*
X29360000Y-57063998D01*
X28500000Y-51500000D02*
X28500000Y-45922000D01*
X30482000Y-43940000D02*
X34798000Y-43940000D01*
X28500000Y-45922000D02*
X30482000Y-43940000D01*
X34798000Y-43940000D02*
X36200000Y-43940000D01*
X26160000Y-60263998D02*
X26160000Y-66492894D01*
X26160000Y-66492894D02*
X26160000Y-67200000D01*
X27153998Y-59270000D02*
X26160000Y-60263998D01*
G04 #@! TO.N,IONAIR-TTL-RX*
X30060011Y-50939989D02*
X30060011Y-63719989D01*
X28199999Y-65580001D02*
X27700000Y-66080000D01*
X30060011Y-63719989D02*
X28199999Y-65580001D01*
X31500000Y-49500000D02*
X30060011Y-50939989D01*
G04 #@! TO.N,STM32_WS2812_OUTPUT*
X90460001Y-17610009D02*
X90960000Y-17110010D01*
X81880010Y-24650000D02*
X86200000Y-24650000D01*
X61900010Y-44630000D02*
X81880010Y-24650000D01*
X86200000Y-24650000D02*
X88930000Y-21920000D01*
X88930000Y-19140010D02*
X90960000Y-17110010D01*
X88930000Y-21920000D02*
X88930000Y-19140010D01*
X52220000Y-44160000D02*
X46930000Y-44160000D01*
X52690000Y-44630000D02*
X52220000Y-44160000D01*
X52690000Y-44630000D02*
X61900010Y-44630000D01*
G04 #@! TO.N,STM32_SSR2_OUTPUT*
X52350000Y-74170000D02*
X37000000Y-58820000D01*
X52350000Y-86380000D02*
X52350000Y-74170000D01*
X33519999Y-52315999D02*
X33020000Y-51816000D01*
X37000000Y-58820000D02*
X37000000Y-55796000D01*
X37000000Y-55796000D02*
X33519999Y-52315999D01*
G04 #@! TO.N,STM32_SSR1_OUTPUT*
X32503999Y-53586003D02*
X32004000Y-53086004D01*
X36010000Y-59024031D02*
X36010000Y-57092004D01*
X50590000Y-89790000D02*
X50590000Y-73604031D01*
X36010000Y-57092004D02*
X32503999Y-53586003D01*
X53650004Y-92850004D02*
X50590000Y-89790000D01*
X53650004Y-112300000D02*
X53650004Y-92850004D01*
X50590000Y-73604031D02*
X36010000Y-59024031D01*
G04 #@! TO.N,STM32_SSR-25-DA_OUTPUT*
X34900000Y-58903996D02*
X34900000Y-57306894D01*
X49580000Y-91880000D02*
X49580000Y-73583996D01*
X34900000Y-57306894D02*
X32203106Y-54610000D01*
X49580000Y-73583996D02*
X34900000Y-58903996D01*
X52580000Y-94880000D02*
X49580000Y-91880000D01*
X32203106Y-54610000D02*
X31496000Y-54610000D01*
G04 #@! TO.N,B2B_UART_TX*
X58009999Y-6900001D02*
X57510000Y-7400000D01*
X58460000Y-6450000D02*
X58009999Y-6900001D01*
X64900000Y-5300000D02*
X63750000Y-6450000D01*
X63750000Y-6450000D02*
X58460000Y-6450000D01*
G04 #@! TO.N,B2B_UART_RX*
X62770000Y-5430000D02*
X63900000Y-4300000D01*
X56500000Y-4300000D02*
X57630000Y-5430000D01*
X57630000Y-5430000D02*
X62770000Y-5430000D01*
D44*
G04 #@! TO.N,STM32_FAN_RPM*
X70050001Y-20819999D02*
X70550000Y-20320000D01*
X63510000Y-27360000D02*
X70550000Y-20320000D01*
X63510000Y-32120000D02*
X63510000Y-29010000D01*
X63510000Y-29010000D02*
X63510000Y-27360000D01*
D43*
G04 #@! TO.N,Net-(Q1-Pad3)*
X41100000Y-117340000D02*
X39945398Y-116185398D01*
X39945398Y-116185398D02*
X36963594Y-116185398D01*
X41100000Y-119180000D02*
X41100000Y-117340000D01*
G04 #@! TO.N,/stm32_board/STM32_CORE/BOOT1*
X46803091Y-48620643D02*
X47671734Y-47752000D01*
X46803091Y-52070000D02*
X46803091Y-48620643D01*
X47671734Y-47752000D02*
X49273490Y-46150244D01*
X47752000Y-52832000D02*
X46803091Y-52070000D01*
D45*
G04 #@! TO.N,/stm32_board/STM32_CORE/RESET*
X36072894Y-39910000D02*
X36330000Y-39910000D01*
D43*
X36330000Y-39910000D02*
X37080000Y-40660000D01*
X27950000Y-39910000D02*
X36330000Y-39910000D01*
X27950000Y-39910000D02*
X36072894Y-39910000D01*
X17590000Y-39910000D02*
X27950000Y-39910000D01*
X15900000Y-47300000D02*
X15900000Y-41600000D01*
X15900000Y-41600000D02*
X17590000Y-39910000D01*
D45*
G04 #@! TO.N,IONAIR_RX*
X9430000Y-37670000D02*
X8130000Y-37670000D01*
X9430000Y-37670000D02*
X8205000Y-37670000D01*
D43*
X5990000Y-39400000D02*
X7720000Y-37670000D01*
X7720000Y-37670000D02*
X9430000Y-37670000D01*
X5990000Y-43870000D02*
X5990000Y-40880000D01*
X5990000Y-40880000D02*
X5990000Y-39400000D01*
X18282894Y-63310000D02*
X18990000Y-63310000D01*
X8954000Y-63310000D02*
X18282894Y-63310000D01*
X5990000Y-60346000D02*
X8954000Y-63310000D01*
X5990000Y-40880000D02*
X5990000Y-60346000D01*
G04 #@! TO.N,IONAIR_TX*
X6950000Y-42525000D02*
X9305000Y-40170000D01*
X9305000Y-40170000D02*
X9430000Y-40170000D01*
X6950000Y-59274000D02*
X6950000Y-42525000D01*
X17900000Y-62012231D02*
X9688231Y-62012231D01*
X9688231Y-62012231D02*
X6950000Y-59274000D01*
G04 #@! TO.N,STM32_PCB1_ALARM_COM*
X38020000Y-58720000D02*
X38020000Y-55292000D01*
X38020000Y-55292000D02*
X33773999Y-51045999D01*
X56100006Y-76800006D02*
X38020000Y-58720000D01*
X33773999Y-51045999D02*
X33274000Y-50546000D01*
X56100006Y-108300000D02*
X56100006Y-76800006D01*
D40*
G04 #@! TO.N,SSR_PCB2_L_2*
X25510000Y-278976000D02*
X25356000Y-279130000D01*
X37946260Y-254763740D02*
X32710000Y-260000000D01*
X37946260Y-239856000D02*
X37946260Y-254763740D01*
X32710000Y-266440000D02*
X32710000Y-260000000D01*
X25356000Y-279130000D02*
X25356000Y-273794000D01*
X25356000Y-273794000D02*
X32710000Y-266440000D01*
G04 #@! TO.N,PWR_SOURCE_SSR_L_1*
X22686000Y-290060000D02*
X17890000Y-285264000D01*
X48323998Y-290060000D02*
X22686000Y-290060000D01*
X51363998Y-287020000D02*
X48323998Y-290060000D01*
X25356000Y-260304000D02*
X25510000Y-260150000D01*
X17890000Y-267200000D02*
X25090000Y-260000000D01*
X17890000Y-285264000D02*
X17890000Y-267200000D01*
X24996000Y-242396000D02*
X20168800Y-242396000D01*
X26350000Y-243750000D02*
X24996000Y-242396000D01*
X26350000Y-253304000D02*
X26350000Y-243750000D01*
X25090000Y-260000000D02*
X25090000Y-254564000D01*
X25090000Y-254564000D02*
X26350000Y-253304000D01*
D39*
G04 #@! TO.N,RELAY_P*
X35210000Y-179610000D02*
X35210000Y-149790000D01*
X35800000Y-179900000D02*
X35500000Y-179900000D01*
X35210000Y-149790000D02*
X42550000Y-142450000D01*
X35500000Y-179900000D02*
X35210000Y-179610000D01*
X38430000Y-129760000D02*
X40750000Y-132080000D01*
X38430000Y-125500000D02*
X38430000Y-129760000D01*
X4510001Y-57529999D02*
X5010000Y-57030000D01*
X4240001Y-57799999D02*
X4510001Y-57529999D01*
X12080000Y-132080000D02*
X4240001Y-124240001D01*
X4240001Y-124240001D02*
X4240001Y-57799999D01*
X40750000Y-132080000D02*
X12080000Y-132080000D01*
G04 #@! TO.N,RELAY_N*
X33200000Y-179850000D02*
X33200000Y-148100000D01*
X33200000Y-148100000D02*
X41450000Y-139850000D01*
X41450000Y-139850000D02*
X43400000Y-139850000D01*
X49200000Y-106300000D02*
X49200000Y-110360660D01*
X53939340Y-115100000D02*
X55000000Y-115100000D01*
X49200000Y-110360660D02*
X53939340Y-115100000D01*
X40970000Y-128760000D02*
X40970000Y-129130000D01*
X40970000Y-128760000D02*
X40970000Y-125500000D01*
X42560000Y-130720000D02*
X42560000Y-132290000D01*
X40970000Y-129130000D02*
X42560000Y-130720000D01*
X7455000Y-35170000D02*
X9430000Y-35170000D01*
X40700000Y-134150000D02*
X11475764Y-134150000D01*
X4630009Y-37994991D02*
X7455000Y-35170000D01*
X11475764Y-134150000D02*
X2720000Y-125394236D01*
X42560000Y-132290000D02*
X40700000Y-134150000D01*
X2720000Y-125394236D02*
X2720000Y-56270000D01*
X2720000Y-56270000D02*
X4630009Y-54359991D01*
X4630009Y-54359991D02*
X4630009Y-37994991D01*
G04 #@! TD*
D46*
G04 #@! TO.N,GND*
G36*
X37373000Y-227947394D02*
X35447394Y-229873000D01*
X21552606Y-229873000D01*
X19627000Y-227947394D01*
X19627000Y-226725703D01*
X21805320Y-226725703D01*
X21805320Y-227591377D01*
X22136599Y-228391156D01*
X22748724Y-229003281D01*
X23548503Y-229334560D01*
X24414177Y-229334560D01*
X25213956Y-229003281D01*
X25826081Y-228391156D01*
X26157360Y-227591377D01*
X26157360Y-226725703D01*
X31962780Y-226725703D01*
X31962780Y-227591377D01*
X32294059Y-228391156D01*
X32906184Y-229003281D01*
X33705963Y-229334560D01*
X34571637Y-229334560D01*
X35371416Y-229003281D01*
X35983541Y-228391156D01*
X36314820Y-227591377D01*
X36314820Y-226725703D01*
X35983541Y-225925924D01*
X35371416Y-225313799D01*
X34571637Y-224982520D01*
X33705963Y-224982520D01*
X32906184Y-225313799D01*
X32294059Y-225925924D01*
X31962780Y-226725703D01*
X26157360Y-226725703D01*
X25826081Y-225925924D01*
X25213956Y-225313799D01*
X24414177Y-224982520D01*
X23548503Y-224982520D01*
X22748724Y-225313799D01*
X22136599Y-225925924D01*
X21805320Y-226725703D01*
X19627000Y-226725703D01*
X19627000Y-206145000D01*
X37373000Y-206145000D01*
X37373000Y-227947394D01*
X37373000Y-227947394D01*
G37*
X37373000Y-227947394D02*
X35447394Y-229873000D01*
X21552606Y-229873000D01*
X19627000Y-227947394D01*
X19627000Y-226725703D01*
X21805320Y-226725703D01*
X21805320Y-227591377D01*
X22136599Y-228391156D01*
X22748724Y-229003281D01*
X23548503Y-229334560D01*
X24414177Y-229334560D01*
X25213956Y-229003281D01*
X25826081Y-228391156D01*
X26157360Y-227591377D01*
X26157360Y-226725703D01*
X31962780Y-226725703D01*
X31962780Y-227591377D01*
X32294059Y-228391156D01*
X32906184Y-229003281D01*
X33705963Y-229334560D01*
X34571637Y-229334560D01*
X35371416Y-229003281D01*
X35983541Y-228391156D01*
X36314820Y-227591377D01*
X36314820Y-226725703D01*
X35983541Y-225925924D01*
X35371416Y-225313799D01*
X34571637Y-224982520D01*
X33705963Y-224982520D01*
X32906184Y-225313799D01*
X32294059Y-225925924D01*
X31962780Y-226725703D01*
X26157360Y-226725703D01*
X25826081Y-225925924D01*
X25213956Y-225313799D01*
X24414177Y-224982520D01*
X23548503Y-224982520D01*
X22748724Y-225313799D01*
X22136599Y-225925924D01*
X21805320Y-226725703D01*
X19627000Y-226725703D01*
X19627000Y-206145000D01*
X37373000Y-206145000D01*
X37373000Y-227947394D01*
G36*
X37373000Y-192731000D02*
X19627000Y-192731000D01*
X19627000Y-191567000D01*
X37373000Y-191567000D01*
X37373000Y-192731000D01*
X37373000Y-192731000D01*
G37*
X37373000Y-192731000D02*
X19627000Y-192731000D01*
X19627000Y-191567000D01*
X37373000Y-191567000D01*
X37373000Y-192731000D01*
G36*
X195596162Y-1686673D02*
X196173480Y-1844610D01*
X196713703Y-2102282D01*
X197199763Y-2451552D01*
X197616288Y-2881373D01*
X197950114Y-3378159D01*
X198190694Y-3926214D01*
X198333423Y-4520722D01*
X198373000Y-5059663D01*
X198373000Y-65947394D01*
X194447394Y-69873000D01*
X87000000Y-69873000D01*
X86951399Y-69882667D01*
X86910197Y-69910197D01*
X81910197Y-74910197D01*
X81882667Y-74951399D01*
X81873000Y-75000000D01*
X81873000Y-135442969D01*
X77415626Y-139405079D01*
X77414571Y-139406028D01*
X71950902Y-144373000D01*
X67000000Y-144373000D01*
X66997510Y-144373024D01*
X59963977Y-144510936D01*
X59558543Y-144343000D01*
X58513457Y-144343000D01*
X58015801Y-144549136D01*
X54769854Y-144612782D01*
X54118543Y-144343000D01*
X53073457Y-144343000D01*
X52305489Y-144661103D01*
X49800152Y-144710227D01*
X49732571Y-144642646D01*
X48767038Y-144242709D01*
X47721952Y-144242709D01*
X46756419Y-144642646D01*
X46626612Y-144772453D01*
X44416920Y-144815781D01*
X44344076Y-144742937D01*
X43378543Y-144343000D01*
X42957926Y-144343000D01*
X43009682Y-144291244D01*
X43613235Y-144041244D01*
X44141244Y-143513235D01*
X44427000Y-142823359D01*
X44427000Y-142076641D01*
X44207660Y-141547107D01*
X44463235Y-141441244D01*
X44991244Y-140913235D01*
X45277000Y-140223359D01*
X45277000Y-139476641D01*
X44991244Y-138786765D01*
X44463235Y-138258756D01*
X43773359Y-137973000D01*
X43026641Y-137973000D01*
X42423088Y-138223000D01*
X41610242Y-138223000D01*
X41450000Y-138191126D01*
X40815176Y-138317400D01*
X40412845Y-138586229D01*
X40412844Y-138586230D01*
X40276999Y-138676999D01*
X40186230Y-138812844D01*
X32162848Y-146836228D01*
X32027000Y-146926999D01*
X31936230Y-147062846D01*
X31667400Y-147465177D01*
X31541127Y-148100000D01*
X31573001Y-148260243D01*
X31573000Y-178873088D01*
X31323000Y-179476641D01*
X31323000Y-180223359D01*
X31517532Y-180693000D01*
X19627000Y-180693000D01*
X19627000Y-150000000D01*
X19617333Y-149951399D01*
X19589803Y-149910197D01*
X14589803Y-144910197D01*
X14548601Y-144882667D01*
X14500000Y-144873000D01*
X12727000Y-144873000D01*
X12727000Y-144457566D01*
X12311839Y-143455279D01*
X11544721Y-142688161D01*
X10542434Y-142273000D01*
X9457566Y-142273000D01*
X8455279Y-142688161D01*
X7688161Y-143455279D01*
X7273000Y-144457566D01*
X7273000Y-144873000D01*
X4552606Y-144873000D01*
X1627000Y-141947394D01*
X1627000Y-129347924D01*
X9296252Y-137017178D01*
X9387021Y-137153023D01*
X9522866Y-137243792D01*
X9522867Y-137243793D01*
X9925198Y-137512622D01*
X10560022Y-137638896D01*
X10720264Y-137607022D01*
X57125740Y-137607022D01*
X57285978Y-137638895D01*
X57446216Y-137607022D01*
X57446220Y-137607022D01*
X57920802Y-137512622D01*
X58458979Y-137153023D01*
X58549752Y-137017172D01*
X62232844Y-133334081D01*
X62474267Y-133234080D01*
X62960080Y-132748267D01*
X63223000Y-132113522D01*
X63223000Y-131426478D01*
X62960080Y-130791733D01*
X62474267Y-130305920D01*
X61839522Y-130043000D01*
X61152478Y-130043000D01*
X60517733Y-130305920D01*
X60031920Y-130791733D01*
X59931919Y-131033156D01*
X56612054Y-134353022D01*
X42797903Y-134353022D01*
X43481620Y-133669305D01*
X43481622Y-133669304D01*
X43597156Y-133553770D01*
X43733001Y-133463001D01*
X43823771Y-133327155D01*
X43939304Y-133211622D01*
X44001830Y-133060671D01*
X44092600Y-132924824D01*
X44124474Y-132764581D01*
X44187000Y-132613630D01*
X44187000Y-132450239D01*
X44218873Y-132290001D01*
X44187000Y-132129763D01*
X44187000Y-130880242D01*
X44218874Y-130720000D01*
X44092600Y-130085176D01*
X43823771Y-129682845D01*
X43823770Y-129682844D01*
X43733001Y-129546999D01*
X43597156Y-129456230D01*
X42597000Y-128456075D01*
X42597000Y-127716024D01*
X42781611Y-127439733D01*
X42869079Y-127000000D01*
X42869079Y-124063227D01*
X43863323Y-125057472D01*
X43947119Y-125182881D01*
X44072527Y-125266676D01*
X44443949Y-125514852D01*
X45030000Y-125631425D01*
X45177929Y-125602000D01*
X51674593Y-125602000D01*
X51976370Y-125727000D01*
X52623630Y-125727000D01*
X52925407Y-125602000D01*
X64101082Y-125602000D01*
X64178378Y-125679296D01*
X64776370Y-125926992D01*
X65423630Y-125926992D01*
X66021622Y-125679296D01*
X66479304Y-125221614D01*
X66571634Y-124998708D01*
X73973000Y-124998708D01*
X73973000Y-126501292D01*
X74548014Y-127889499D01*
X75610501Y-128951986D01*
X76998708Y-129527000D01*
X78501292Y-129527000D01*
X79889499Y-128951986D01*
X80951986Y-127889499D01*
X81527000Y-126501292D01*
X81527000Y-124998708D01*
X80951986Y-123610501D01*
X79889499Y-122548014D01*
X78501292Y-121973000D01*
X76998708Y-121973000D01*
X75610501Y-122548014D01*
X74548014Y-123610501D01*
X73973000Y-124998708D01*
X66571634Y-124998708D01*
X66727000Y-124623622D01*
X66727000Y-123976362D01*
X66479304Y-123378370D01*
X66021622Y-122920688D01*
X65540015Y-122721200D01*
X65486059Y-122685148D01*
X65047937Y-122598000D01*
X65047933Y-122598000D01*
X64900008Y-122568576D01*
X64752083Y-122598000D01*
X52925407Y-122598000D01*
X52623630Y-122473000D01*
X51976370Y-122473000D01*
X51674593Y-122598000D01*
X45652148Y-122598000D01*
X44939588Y-121885440D01*
X44939588Y-117637938D01*
X44969013Y-117490009D01*
X44852440Y-116903958D01*
X44604264Y-116532536D01*
X44520469Y-116407128D01*
X44395061Y-116323334D01*
X41939656Y-113867930D01*
X41749304Y-113408378D01*
X41291622Y-112950696D01*
X40989845Y-112825696D01*
X38326679Y-110162532D01*
X38242881Y-110037119D01*
X37746051Y-109705148D01*
X37307929Y-109618000D01*
X37307925Y-109618000D01*
X37160000Y-109588576D01*
X37012075Y-109618000D01*
X32972148Y-109618000D01*
X32294305Y-108940158D01*
X32169304Y-108638378D01*
X31711622Y-108180696D01*
X31409843Y-108055695D01*
X30302000Y-106947853D01*
X30302000Y-101858158D01*
X32396594Y-101858158D01*
X32396594Y-103957439D01*
X32514202Y-104548694D01*
X32962209Y-105219184D01*
X33632698Y-105667191D01*
X34423594Y-105824510D01*
X35214489Y-105667191D01*
X35693594Y-105347063D01*
X36172698Y-105667191D01*
X36963594Y-105824510D01*
X37754489Y-105667191D01*
X38424979Y-105219184D01*
X38872986Y-104548695D01*
X38990594Y-103957440D01*
X38990594Y-101858159D01*
X38872986Y-101266903D01*
X38424979Y-100596414D01*
X37754490Y-100148407D01*
X36963594Y-99991088D01*
X36172699Y-100148407D01*
X35693595Y-100468535D01*
X35214490Y-100148407D01*
X34423594Y-99991088D01*
X33632699Y-100148407D01*
X32962210Y-100596414D01*
X32514203Y-101266903D01*
X32396594Y-101858158D01*
X30302000Y-101858158D01*
X30302000Y-91167923D01*
X30331424Y-91019999D01*
X30302000Y-90872075D01*
X30302000Y-90872071D01*
X30214852Y-90433949D01*
X29882881Y-89937119D01*
X29757470Y-89853322D01*
X29334305Y-89430157D01*
X29209304Y-89128378D01*
X28751622Y-88670696D01*
X28153630Y-88423000D01*
X27506370Y-88423000D01*
X26908378Y-88670696D01*
X26450696Y-89128378D01*
X26203000Y-89726370D01*
X26203000Y-90373630D01*
X26450696Y-90971622D01*
X26908378Y-91429304D01*
X27210157Y-91554305D01*
X27298000Y-91642148D01*
X27298001Y-102062260D01*
X26914537Y-101136496D01*
X26034897Y-100256856D01*
X24885593Y-99780799D01*
X23641595Y-99780799D01*
X22492291Y-100256856D01*
X21612651Y-101136496D01*
X21136594Y-102285800D01*
X21136594Y-103529798D01*
X21196367Y-103674102D01*
X20029549Y-104840920D01*
X19132719Y-104840920D01*
X19294537Y-104679102D01*
X19770594Y-103529798D01*
X19770594Y-102285800D01*
X19294537Y-101136496D01*
X18414897Y-100256856D01*
X17265593Y-99780799D01*
X16021595Y-99780799D01*
X14872291Y-100256856D01*
X13992651Y-101136496D01*
X13516594Y-102285800D01*
X13516594Y-102340920D01*
X11196374Y-102340920D01*
X10798905Y-102075340D01*
X10263501Y-101968841D01*
X8763501Y-101968841D01*
X8228097Y-102075340D01*
X7774203Y-102378622D01*
X7470921Y-102832516D01*
X7364422Y-103367920D01*
X7364422Y-104567920D01*
X7470921Y-105103324D01*
X7684249Y-105422593D01*
X7501208Y-105696533D01*
X7347770Y-106467920D01*
X7501208Y-107239307D01*
X7938164Y-107893257D01*
X8592114Y-108330213D01*
X9168787Y-108444920D01*
X9858215Y-108444920D01*
X10434888Y-108330213D01*
X10787028Y-108094920D01*
X20543235Y-108094920D01*
X20703473Y-108126793D01*
X20863711Y-108094920D01*
X20863715Y-108094920D01*
X21338297Y-108000520D01*
X21876474Y-107640921D01*
X21967247Y-107505070D01*
X23497291Y-105975026D01*
X23641595Y-106034799D01*
X24885593Y-106034799D01*
X26034897Y-105558742D01*
X26914537Y-104679102D01*
X27298000Y-103753339D01*
X27298001Y-107422070D01*
X27268576Y-107570000D01*
X27385148Y-108156050D01*
X27401616Y-108180696D01*
X27717120Y-108652881D01*
X27842530Y-108736678D01*
X28647447Y-109541595D01*
X28538165Y-109705148D01*
X28325148Y-110023950D01*
X28208576Y-110610000D01*
X28238001Y-110757930D01*
X28238000Y-120757851D01*
X26777853Y-122218000D01*
X22225407Y-122218000D01*
X21923630Y-122093000D01*
X21276370Y-122093000D01*
X20678378Y-122340696D01*
X20220696Y-122798378D01*
X19973000Y-123396370D01*
X19973000Y-124043630D01*
X20220696Y-124641622D01*
X20678378Y-125099304D01*
X21276370Y-125347000D01*
X21923630Y-125347000D01*
X22225407Y-125222000D01*
X27252075Y-125222000D01*
X27400000Y-125251424D01*
X27547925Y-125222000D01*
X27547929Y-125222000D01*
X27986051Y-125134852D01*
X28482881Y-124802881D01*
X28566679Y-124677468D01*
X30697473Y-122546676D01*
X30822881Y-122462881D01*
X31154852Y-121966051D01*
X31242000Y-121527929D01*
X31242000Y-121527928D01*
X31271425Y-121380000D01*
X31242000Y-121232071D01*
X31242000Y-112165288D01*
X31267119Y-112202881D01*
X31763949Y-112534852D01*
X32202071Y-112622000D01*
X32202075Y-112622000D01*
X32349999Y-112651424D01*
X32497923Y-112622000D01*
X36537853Y-112622000D01*
X37239401Y-113323548D01*
X36963594Y-113268687D01*
X36172699Y-113426006D01*
X35693595Y-113746134D01*
X35214490Y-113426006D01*
X34423594Y-113268687D01*
X33632699Y-113426006D01*
X32962210Y-113874013D01*
X32514203Y-114544502D01*
X32396594Y-115135757D01*
X32396594Y-117235038D01*
X32514202Y-117826293D01*
X32962209Y-118496783D01*
X33632698Y-118944790D01*
X34423594Y-119102109D01*
X35214489Y-118944790D01*
X35693594Y-118624662D01*
X36172698Y-118944790D01*
X36963594Y-119102109D01*
X37754489Y-118944790D01*
X38424979Y-118496783D01*
X38872986Y-117826294D01*
X38925478Y-117562398D01*
X39375027Y-117562398D01*
X39723001Y-117910372D01*
X39723001Y-118256073D01*
X39720696Y-118258378D01*
X39473000Y-118856370D01*
X39473000Y-119503630D01*
X39720696Y-120101622D01*
X40178378Y-120559304D01*
X40776370Y-120807000D01*
X41423630Y-120807000D01*
X41935589Y-120594940D01*
X41935589Y-122359658D01*
X41906164Y-122507588D01*
X41984939Y-122903621D01*
X41720000Y-122850921D01*
X40220000Y-122850921D01*
X39780267Y-122938389D01*
X39438754Y-123166580D01*
X39162368Y-122981905D01*
X38430000Y-122836228D01*
X37697631Y-122981905D01*
X37076759Y-123396759D01*
X36661905Y-124017632D01*
X36553000Y-124565135D01*
X36553000Y-126434866D01*
X36661906Y-126982369D01*
X36803000Y-127193531D01*
X36803001Y-129599757D01*
X36771127Y-129760000D01*
X36897400Y-130394823D01*
X36936273Y-130453000D01*
X12753925Y-130453000D01*
X5867001Y-123566077D01*
X5867001Y-119587920D01*
X7347770Y-119587920D01*
X7501208Y-120359307D01*
X7938164Y-121013257D01*
X8592114Y-121450213D01*
X9168787Y-121564920D01*
X9858215Y-121564920D01*
X10434888Y-121450213D01*
X10787028Y-121214920D01*
X20700834Y-121214920D01*
X20861072Y-121246793D01*
X21021310Y-121214920D01*
X21021314Y-121214920D01*
X21495896Y-121120520D01*
X22034073Y-120760921D01*
X22124845Y-120625071D01*
X23497291Y-119252626D01*
X23641595Y-119312398D01*
X24885593Y-119312398D01*
X26034897Y-118836341D01*
X26914537Y-117956701D01*
X27390594Y-116807397D01*
X27390594Y-115563399D01*
X26914537Y-114414095D01*
X26034897Y-113534455D01*
X24885593Y-113058398D01*
X23641595Y-113058398D01*
X22492291Y-113534455D01*
X21612651Y-114414095D01*
X21136594Y-115563399D01*
X21136594Y-116807397D01*
X21196366Y-116951701D01*
X20187148Y-117960920D01*
X19290318Y-117960920D01*
X19294537Y-117956701D01*
X19770594Y-116807397D01*
X19770594Y-115563399D01*
X19294537Y-114414095D01*
X18414897Y-113534455D01*
X17265593Y-113058398D01*
X16021595Y-113058398D01*
X14872291Y-113534455D01*
X13992651Y-114414095D01*
X13559042Y-115460920D01*
X11196374Y-115460920D01*
X10798905Y-115195340D01*
X10263501Y-115088841D01*
X8763501Y-115088841D01*
X8228097Y-115195340D01*
X7774203Y-115498622D01*
X7470921Y-115952516D01*
X7364422Y-116487920D01*
X7364422Y-117687920D01*
X7470921Y-118223324D01*
X7684249Y-118542593D01*
X7501208Y-118816533D01*
X7347770Y-119587920D01*
X5867001Y-119587920D01*
X5867001Y-97929660D01*
X7897025Y-97929660D01*
X8136004Y-98443963D01*
X8560930Y-98837823D01*
X9104234Y-99039090D01*
X9336501Y-98898935D01*
X9336501Y-97699770D01*
X9590501Y-97699770D01*
X9590501Y-98898935D01*
X9822768Y-99039090D01*
X10366072Y-98837823D01*
X10790998Y-98443963D01*
X11029977Y-97929660D01*
X10908656Y-97699770D01*
X9590501Y-97699770D01*
X9336501Y-97699770D01*
X8018346Y-97699770D01*
X7897025Y-97929660D01*
X5867001Y-97929660D01*
X5867001Y-85072770D01*
X7322770Y-85072770D01*
X7476208Y-85844157D01*
X7796007Y-86322770D01*
X7476208Y-86801383D01*
X7322770Y-87572770D01*
X7476208Y-88344157D01*
X7796007Y-88822770D01*
X7476208Y-89301383D01*
X7322770Y-90072770D01*
X7476208Y-90844157D01*
X7796007Y-91322770D01*
X7476208Y-91801383D01*
X7322770Y-92572770D01*
X7476208Y-93344157D01*
X7796007Y-93822770D01*
X7476208Y-94301383D01*
X7322770Y-95072770D01*
X7476208Y-95844157D01*
X7913164Y-96498107D01*
X8170217Y-96669865D01*
X8136004Y-96701577D01*
X7897025Y-97215880D01*
X8018346Y-97445770D01*
X9336501Y-97445770D01*
X9336501Y-97425770D01*
X9590501Y-97425770D01*
X9590501Y-97445770D01*
X10908656Y-97445770D01*
X11029977Y-97215880D01*
X10790998Y-96701577D01*
X10756785Y-96669865D01*
X11013838Y-96498107D01*
X11450794Y-95844157D01*
X11604232Y-95072770D01*
X11450794Y-94301383D01*
X11215853Y-93949770D01*
X20221607Y-93949770D01*
X20357230Y-93976747D01*
X20492853Y-93949770D01*
X20894509Y-93869876D01*
X21349992Y-93565532D01*
X21426819Y-93450552D01*
X25224890Y-89652482D01*
X25339868Y-89575656D01*
X25644212Y-89120173D01*
X25724106Y-88718517D01*
X25751083Y-88582894D01*
X25724106Y-88447271D01*
X25724106Y-83342729D01*
X25751083Y-83207106D01*
X25644212Y-82669827D01*
X25633632Y-82653993D01*
X25339868Y-82214344D01*
X25256371Y-82158553D01*
X25339868Y-82102762D01*
X25644212Y-81647278D01*
X25723092Y-81250721D01*
X25751083Y-81110001D01*
X25724106Y-80974379D01*
X25724106Y-77315265D01*
X27429585Y-75609787D01*
X27429587Y-75609784D01*
X30948621Y-72090750D01*
X38175000Y-72090750D01*
X38175000Y-73181309D01*
X38271673Y-73414698D01*
X38450301Y-73593327D01*
X38683690Y-73690000D01*
X39424250Y-73690000D01*
X39583000Y-73531250D01*
X39583000Y-71932000D01*
X38333750Y-71932000D01*
X38175000Y-72090750D01*
X30948621Y-72090750D01*
X32610680Y-70428691D01*
X38175000Y-70428691D01*
X38175000Y-71519250D01*
X38333750Y-71678000D01*
X39583000Y-71678000D01*
X39583000Y-70078750D01*
X39424250Y-69920000D01*
X38683690Y-69920000D01*
X38450301Y-70016673D01*
X38271673Y-70195302D01*
X38175000Y-70428691D01*
X32610680Y-70428691D01*
X36007789Y-67031584D01*
X36122761Y-66954762D01*
X36199583Y-66839790D01*
X36199586Y-66839787D01*
X36427106Y-66499279D01*
X36533977Y-65962000D01*
X36507000Y-65826377D01*
X36507000Y-64313926D01*
X36509304Y-64311622D01*
X36757000Y-63713630D01*
X36757000Y-63066370D01*
X36509304Y-62468378D01*
X36051622Y-62010696D01*
X35453630Y-61763000D01*
X34876999Y-61763000D01*
X34876999Y-60828366D01*
X43756406Y-69707774D01*
X43520000Y-69865736D01*
X43040895Y-69545608D01*
X42250000Y-69388289D01*
X41459104Y-69545608D01*
X40836610Y-69961546D01*
X40736310Y-69920000D01*
X39995750Y-69920000D01*
X39837000Y-70078750D01*
X39837000Y-71678000D01*
X39857000Y-71678000D01*
X39857000Y-71932000D01*
X39837000Y-71932000D01*
X39837000Y-73531250D01*
X39995750Y-73690000D01*
X40736310Y-73690000D01*
X40836611Y-73648454D01*
X41459105Y-74064392D01*
X42250000Y-74221711D01*
X43040896Y-74064392D01*
X43520000Y-73744264D01*
X43999105Y-74064392D01*
X44790000Y-74221711D01*
X45580896Y-74064392D01*
X46251385Y-73616385D01*
X46699392Y-72945895D01*
X46748358Y-72699726D01*
X48203001Y-74154369D01*
X48203000Y-91744377D01*
X48176023Y-91880000D01*
X48226896Y-92135758D01*
X48282894Y-92417278D01*
X48587238Y-92872761D01*
X48702216Y-92949587D01*
X50953000Y-95200372D01*
X50953000Y-95203630D01*
X51200696Y-95801622D01*
X51658378Y-96259304D01*
X52256370Y-96507000D01*
X52273005Y-96507000D01*
X52273004Y-111132739D01*
X50827000Y-109686736D01*
X50827000Y-107276912D01*
X51077000Y-106673359D01*
X51077000Y-105926641D01*
X50791244Y-105236765D01*
X50263235Y-104708756D01*
X49573359Y-104423000D01*
X48826641Y-104423000D01*
X48136765Y-104708756D01*
X47608756Y-105236765D01*
X47323000Y-105926641D01*
X47323000Y-106673359D01*
X47573000Y-107276913D01*
X47573001Y-110200417D01*
X47541127Y-110360660D01*
X47667400Y-110995483D01*
X47667401Y-110995484D01*
X48027000Y-111533661D01*
X48162847Y-111624431D01*
X52675570Y-116137156D01*
X52766339Y-116273001D01*
X52902184Y-116363770D01*
X52902185Y-116363771D01*
X53087987Y-116487920D01*
X53304516Y-116632600D01*
X53779098Y-116727000D01*
X53779102Y-116727000D01*
X53939340Y-116758873D01*
X54047903Y-116737279D01*
X54626641Y-116977000D01*
X55373359Y-116977000D01*
X56063235Y-116691244D01*
X56591244Y-116163235D01*
X56877000Y-115473359D01*
X56877000Y-114726641D01*
X56591244Y-114036765D01*
X56063235Y-113508756D01*
X55373359Y-113223000D01*
X55027930Y-113223000D01*
X55029308Y-113221622D01*
X55277004Y-112623630D01*
X55277004Y-111976370D01*
X55029308Y-111378378D01*
X55027004Y-111376074D01*
X55027004Y-109527924D01*
X55178384Y-109679304D01*
X55776376Y-109927000D01*
X56423636Y-109927000D01*
X57021628Y-109679304D01*
X57479310Y-109221622D01*
X57727006Y-108623630D01*
X57727006Y-107976370D01*
X57479310Y-107378378D01*
X57477006Y-107376074D01*
X57477006Y-76935629D01*
X57503983Y-76800006D01*
X57397112Y-76262727D01*
X57353167Y-76196959D01*
X57092768Y-75807244D01*
X56977790Y-75730418D01*
X39397000Y-58149629D01*
X39397000Y-55427621D01*
X39423977Y-55291999D01*
X39364863Y-54994814D01*
X39317106Y-54754721D01*
X39012762Y-54299238D01*
X38897784Y-54222412D01*
X34901000Y-50225629D01*
X34901000Y-50222370D01*
X34653304Y-49624378D01*
X34195622Y-49166696D01*
X33597630Y-48919000D01*
X33020394Y-48919000D01*
X32879304Y-48578378D01*
X32421622Y-48120696D01*
X31823630Y-47873000D01*
X31176370Y-47873000D01*
X30578378Y-48120696D01*
X30120696Y-48578378D01*
X29877000Y-49166713D01*
X29877000Y-46492371D01*
X31052372Y-45317000D01*
X35276074Y-45317000D01*
X35278378Y-45319304D01*
X35876370Y-45567000D01*
X36523630Y-45567000D01*
X37121622Y-45319304D01*
X37579304Y-44861622D01*
X37827000Y-44263630D01*
X37827000Y-43616370D01*
X37579304Y-43018378D01*
X37121622Y-42560696D01*
X36523630Y-42313000D01*
X35876370Y-42313000D01*
X35278378Y-42560696D01*
X35276074Y-42563000D01*
X30617621Y-42563000D01*
X30481999Y-42536023D01*
X30346377Y-42563000D01*
X29944721Y-42642894D01*
X29489238Y-42947238D01*
X29412412Y-43062216D01*
X27622216Y-44852413D01*
X27507239Y-44929238D01*
X27401826Y-45087000D01*
X27202894Y-45384722D01*
X27096023Y-45922000D01*
X27123001Y-46057628D01*
X27123000Y-50576074D01*
X27120696Y-50578378D01*
X26873000Y-51176370D01*
X26873000Y-51823630D01*
X27120696Y-52421622D01*
X27578378Y-52879304D01*
X27983000Y-53046904D01*
X27983000Y-53364378D01*
X27983001Y-56493625D01*
X27322213Y-57154413D01*
X26688398Y-57788229D01*
X26276213Y-58200413D01*
X26276211Y-58200415D01*
X25282216Y-59194411D01*
X25167238Y-59271237D01*
X24933459Y-59621113D01*
X20847000Y-55534655D01*
X20847000Y-54407838D01*
X22023000Y-54407838D01*
X22023000Y-55592162D01*
X22476221Y-56686335D01*
X23313665Y-57523779D01*
X24407838Y-57977000D01*
X25592162Y-57977000D01*
X26686335Y-57523779D01*
X27523779Y-56686335D01*
X27977000Y-55592162D01*
X27977000Y-54407838D01*
X27523779Y-53313665D01*
X26686335Y-52476221D01*
X25592162Y-52023000D01*
X24407838Y-52023000D01*
X23313665Y-52476221D01*
X22476221Y-53313665D01*
X22023000Y-54407838D01*
X20847000Y-54407838D01*
X20847000Y-47290086D01*
X20880832Y-47119999D01*
X20847000Y-46949912D01*
X20847000Y-46949909D01*
X20746798Y-46446158D01*
X20365097Y-45874903D01*
X20220900Y-45778554D01*
X19100900Y-44658555D01*
X18673841Y-44373202D01*
X18000000Y-44239167D01*
X17326159Y-44373202D01*
X17277000Y-44406049D01*
X17277000Y-42170372D01*
X18160372Y-41287000D01*
X35578660Y-41287000D01*
X35700696Y-41581622D01*
X36158378Y-42039304D01*
X36756370Y-42287000D01*
X37403630Y-42287000D01*
X38001622Y-42039304D01*
X38459304Y-41581622D01*
X38707000Y-40983630D01*
X38707000Y-40336370D01*
X38459304Y-39738378D01*
X38001622Y-39280696D01*
X37403630Y-39033000D01*
X37400371Y-39033000D01*
X37399590Y-39032219D01*
X37322762Y-38917238D01*
X36867279Y-38612894D01*
X36465623Y-38533000D01*
X36330000Y-38506023D01*
X36194377Y-38533000D01*
X17725623Y-38533000D01*
X17590000Y-38506023D01*
X17454377Y-38533000D01*
X17052721Y-38612894D01*
X16597238Y-38917238D01*
X16520414Y-39032213D01*
X15022216Y-40530413D01*
X14907239Y-40607238D01*
X14720148Y-40887239D01*
X14602894Y-41062722D01*
X14496023Y-41600000D01*
X14523001Y-41735628D01*
X14523000Y-46376074D01*
X14520696Y-46378378D01*
X14273000Y-46976370D01*
X14273000Y-47623630D01*
X14520696Y-48221622D01*
X14978378Y-48679304D01*
X15576370Y-48927000D01*
X16223630Y-48927000D01*
X16821622Y-48679304D01*
X17279304Y-48221622D01*
X17393001Y-47947133D01*
X17393000Y-56079909D01*
X17359167Y-56250000D01*
X17393000Y-56420090D01*
X17493202Y-56923841D01*
X17874903Y-57495097D01*
X18019104Y-57591449D01*
X22563001Y-62135347D01*
X22563000Y-68974653D01*
X18524655Y-73013000D01*
X17449909Y-73013000D01*
X16946158Y-73113202D01*
X16374903Y-73494903D01*
X15993202Y-74066158D01*
X15859167Y-74740000D01*
X15993202Y-75413842D01*
X16199775Y-75723000D01*
X16063926Y-75723000D01*
X16061622Y-75720696D01*
X15463630Y-75473000D01*
X14816370Y-75473000D01*
X14218378Y-75720696D01*
X13760696Y-76178378D01*
X13513000Y-76776370D01*
X13513000Y-77423630D01*
X13760696Y-78021622D01*
X14218378Y-78479304D01*
X14316287Y-78519859D01*
X13092216Y-79743931D01*
X12977239Y-79820756D01*
X12805836Y-80077279D01*
X12672894Y-80276240D01*
X12566023Y-80813518D01*
X12593001Y-80949145D01*
X12593000Y-82620899D01*
X11235190Y-83978709D01*
X11013838Y-83647433D01*
X10756785Y-83475675D01*
X10790998Y-83443963D01*
X11029977Y-82929660D01*
X10908656Y-82699770D01*
X9590501Y-82699770D01*
X9590501Y-82719770D01*
X9336501Y-82719770D01*
X9336501Y-82699770D01*
X8018346Y-82699770D01*
X7897025Y-82929660D01*
X8136004Y-83443963D01*
X8170217Y-83475675D01*
X7913164Y-83647433D01*
X7476208Y-84301383D01*
X7322770Y-85072770D01*
X5867001Y-85072770D01*
X5867001Y-62170372D01*
X7884412Y-64187784D01*
X7961238Y-64302762D01*
X8402758Y-64597776D01*
X8416721Y-64607106D01*
X8954000Y-64713977D01*
X9089623Y-64687000D01*
X18066074Y-64687000D01*
X18068378Y-64689304D01*
X18666370Y-64937000D01*
X18922988Y-64937000D01*
X18922988Y-65394666D01*
X18529099Y-65788555D01*
X18529100Y-65788555D01*
X17954655Y-66363000D01*
X14151321Y-66363000D01*
X13981230Y-66329167D01*
X13460427Y-66432761D01*
X13307389Y-66463202D01*
X12736134Y-66844903D01*
X12639783Y-66989102D01*
X8362603Y-71266283D01*
X8218405Y-71362633D01*
X8113757Y-71519250D01*
X7836703Y-71933889D01*
X7702668Y-72607730D01*
X7736502Y-72777825D01*
X7736501Y-78502482D01*
X7445921Y-78937366D01*
X7339422Y-79472770D01*
X7339422Y-80672770D01*
X7445921Y-81208174D01*
X7749203Y-81662068D01*
X8058372Y-81868648D01*
X7897025Y-82215880D01*
X8018346Y-82445770D01*
X9336501Y-82445770D01*
X9336501Y-82425770D01*
X9590501Y-82425770D01*
X9590501Y-82445770D01*
X10908656Y-82445770D01*
X11029977Y-82215880D01*
X10868630Y-81868648D01*
X11177799Y-81662068D01*
X11481081Y-81208174D01*
X11587580Y-80672770D01*
X11587580Y-79472770D01*
X11481081Y-78937366D01*
X11190501Y-78502482D01*
X11190501Y-73323075D01*
X14696577Y-69817000D01*
X18499910Y-69817000D01*
X18670000Y-69850833D01*
X18840090Y-69817000D01*
X18840091Y-69817000D01*
X19343842Y-69716798D01*
X19915097Y-69335097D01*
X20011450Y-69190895D01*
X21750886Y-67451459D01*
X21895085Y-67355109D01*
X22276786Y-66783854D01*
X22376988Y-66280103D01*
X22376988Y-66280102D01*
X22410821Y-66110012D01*
X22376988Y-65939922D01*
X22376988Y-63008307D01*
X22410821Y-62838217D01*
X22276786Y-62164375D01*
X21991434Y-61737316D01*
X21895085Y-61593120D01*
X21750889Y-61496771D01*
X17327000Y-57072884D01*
X17327000Y-52770085D01*
X17360832Y-52599999D01*
X17327000Y-52429914D01*
X17327000Y-52429909D01*
X17226798Y-51926158D01*
X16845097Y-51354903D01*
X16700902Y-51258555D01*
X13395812Y-47953467D01*
X13395812Y-30142533D01*
X17538346Y-26000000D01*
X21739167Y-26000000D01*
X21873202Y-26673841D01*
X22158555Y-27100900D01*
X24773001Y-29715347D01*
X24773001Y-30429907D01*
X24773000Y-30429910D01*
X24773000Y-31829910D01*
X24773001Y-33884654D01*
X24558555Y-34099100D01*
X24273202Y-34526159D01*
X24139167Y-35200000D01*
X24273202Y-35873841D01*
X24654904Y-36445096D01*
X25226159Y-36826798D01*
X25900000Y-36960833D01*
X26573841Y-36826798D01*
X27000900Y-36541445D01*
X27600898Y-35941448D01*
X27745097Y-35845097D01*
X28126798Y-35273842D01*
X28227000Y-34770091D01*
X28227000Y-34770087D01*
X28260832Y-34600001D01*
X28227000Y-34429914D01*
X28227000Y-29170090D01*
X28260833Y-29000000D01*
X28126798Y-28326158D01*
X27841446Y-27899099D01*
X27745097Y-27754903D01*
X27600901Y-27658554D01*
X24600900Y-24658555D01*
X24173841Y-24373202D01*
X23500000Y-24239167D01*
X22826159Y-24373202D01*
X22254904Y-24754904D01*
X21873202Y-25326159D01*
X21739167Y-26000000D01*
X17538346Y-26000000D01*
X17991347Y-25547000D01*
X20549910Y-25547000D01*
X20720000Y-25580833D01*
X20890090Y-25547000D01*
X20890091Y-25547000D01*
X21393842Y-25446798D01*
X21965097Y-25065097D01*
X22061449Y-24920896D01*
X22975346Y-24007000D01*
X28320091Y-24007000D01*
X28823842Y-23906798D01*
X29395097Y-23525097D01*
X29776798Y-22953842D01*
X29910833Y-22280000D01*
X29776798Y-21606158D01*
X29395097Y-21034903D01*
X28823842Y-20653202D01*
X28320091Y-20553000D01*
X22430090Y-20553000D01*
X22260000Y-20519167D01*
X22089909Y-20553000D01*
X21586158Y-20653202D01*
X21014903Y-21034903D01*
X20918552Y-21179102D01*
X20004655Y-22093000D01*
X19003000Y-22093000D01*
X19003000Y-9407838D01*
X22023000Y-9407838D01*
X22023000Y-10592162D01*
X22476221Y-11686335D01*
X23313665Y-12523779D01*
X24407838Y-12977000D01*
X25592162Y-12977000D01*
X26686335Y-12523779D01*
X27523779Y-11686335D01*
X27977000Y-10592162D01*
X27977000Y-9407838D01*
X27523779Y-8313665D01*
X26686335Y-7476221D01*
X25592162Y-7023000D01*
X24407838Y-7023000D01*
X23313665Y-7476221D01*
X22476221Y-8313665D01*
X22023000Y-9407838D01*
X19003000Y-9407838D01*
X19003000Y-5739345D01*
X20315347Y-4427000D01*
X32714654Y-4427000D01*
X33381500Y-5093847D01*
X33381501Y-6109465D01*
X33371387Y-6102707D01*
X32600000Y-5949269D01*
X31828614Y-6102707D01*
X31174663Y-6539663D01*
X30737707Y-7193613D01*
X30623000Y-7770286D01*
X30623000Y-8409713D01*
X30737707Y-8986386D01*
X31174663Y-9640337D01*
X31828613Y-10077293D01*
X32600000Y-10230731D01*
X33371386Y-10077293D01*
X33381501Y-10070535D01*
X33381501Y-10376153D01*
X32664653Y-11093001D01*
X31210084Y-11093001D01*
X31039998Y-11059169D01*
X30869913Y-11093001D01*
X30869908Y-11093001D01*
X30366157Y-11193203D01*
X29794902Y-11574904D01*
X29698551Y-11719104D01*
X29198555Y-12219100D01*
X28913202Y-12646159D01*
X28779167Y-13320000D01*
X28913202Y-13993841D01*
X29294904Y-14565096D01*
X29866159Y-14946798D01*
X30540000Y-15080833D01*
X31213841Y-14946798D01*
X31640900Y-14661445D01*
X31755344Y-14547001D01*
X33209909Y-14547001D01*
X33379999Y-14580834D01*
X33550089Y-14547001D01*
X33550090Y-14547001D01*
X34053841Y-14446799D01*
X34625096Y-14065098D01*
X34721448Y-13920897D01*
X36209401Y-12432946D01*
X36353597Y-12336597D01*
X36463435Y-12172214D01*
X36735298Y-11765342D01*
X36806850Y-11405623D01*
X36835500Y-11261591D01*
X36869333Y-11091500D01*
X36835500Y-10921410D01*
X36835500Y-9700000D01*
X37314250Y-9700000D01*
X37473000Y-9541250D01*
X37473000Y-8217000D01*
X37453000Y-8217000D01*
X37453000Y-7963000D01*
X37473000Y-7963000D01*
X37473000Y-6638750D01*
X37314250Y-6480000D01*
X36835500Y-6480000D01*
X36835500Y-4754378D01*
X37737879Y-3852000D01*
X38468974Y-3852000D01*
X38498000Y-3997925D01*
X38498000Y-6480000D01*
X37885750Y-6480000D01*
X37727000Y-6638750D01*
X37727000Y-7963000D01*
X37747000Y-7963000D01*
X37747000Y-8217000D01*
X37727000Y-8217000D01*
X37727000Y-9541250D01*
X37885750Y-9700000D01*
X38498001Y-9700000D01*
X38498001Y-14722067D01*
X38498000Y-14722072D01*
X38498001Y-17667851D01*
X37377853Y-18788000D01*
X34275407Y-18788000D01*
X33973630Y-18663000D01*
X33326370Y-18663000D01*
X32728378Y-18910696D01*
X32270696Y-19368378D01*
X32023000Y-19966370D01*
X32023000Y-20613630D01*
X32270696Y-21211622D01*
X32728378Y-21669304D01*
X33326370Y-21917000D01*
X33973630Y-21917000D01*
X34275407Y-21792000D01*
X36977852Y-21792000D01*
X37548000Y-22362148D01*
X37548000Y-23332075D01*
X37518576Y-23480000D01*
X37548000Y-23627925D01*
X37548000Y-23627929D01*
X37585415Y-23816023D01*
X37635148Y-24066050D01*
X37691519Y-24150415D01*
X37967120Y-24562881D01*
X38092530Y-24646677D01*
X39785696Y-26339844D01*
X39910696Y-26641622D01*
X40368378Y-27099304D01*
X40670157Y-27224305D01*
X41644001Y-28198149D01*
X41644000Y-30092070D01*
X41644000Y-30602071D01*
X41614575Y-30750000D01*
X41644000Y-30897929D01*
X41644000Y-31147361D01*
X41618000Y-31278072D01*
X41618000Y-31278075D01*
X41588576Y-31426000D01*
X41618000Y-31573925D01*
X41618000Y-31954593D01*
X41493000Y-32256370D01*
X41493000Y-32903630D01*
X41644000Y-33268178D01*
X41644001Y-37368780D01*
X41389005Y-37474403D01*
X40931323Y-37932085D01*
X40683627Y-38530077D01*
X40683627Y-39177337D01*
X40931323Y-39775329D01*
X41389005Y-40233011D01*
X41508001Y-40282301D01*
X41508000Y-42832071D01*
X41508000Y-43772075D01*
X41478576Y-43920000D01*
X41508000Y-44067925D01*
X41508000Y-44067929D01*
X41595148Y-44506051D01*
X41927120Y-45002881D01*
X42052530Y-45086677D01*
X42186000Y-45220147D01*
X42186001Y-50682591D01*
X42061000Y-50984370D01*
X42061000Y-51631630D01*
X42308696Y-52229622D01*
X42766378Y-52687304D01*
X43364370Y-52935000D01*
X44011630Y-52935000D01*
X44609622Y-52687304D01*
X45067304Y-52229622D01*
X45315000Y-51631630D01*
X45315000Y-50984370D01*
X45190000Y-50682593D01*
X45190000Y-44745929D01*
X45219425Y-44598000D01*
X45102852Y-44011949D01*
X44950294Y-43783630D01*
X44770881Y-43515119D01*
X44645470Y-43431322D01*
X44512000Y-43297852D01*
X44512000Y-39701009D01*
X44541425Y-39553080D01*
X44424852Y-38967029D01*
X44371697Y-38887476D01*
X44560852Y-38604385D01*
X44648000Y-38166263D01*
X44677425Y-38018334D01*
X44648000Y-37870405D01*
X44648000Y-33142638D01*
X44747000Y-32903630D01*
X44747000Y-32256370D01*
X44745190Y-32252000D01*
X44952075Y-32252000D01*
X45100000Y-32281424D01*
X45247925Y-32252000D01*
X45247929Y-32252000D01*
X45686051Y-32164852D01*
X45690319Y-32162000D01*
X52308000Y-32162000D01*
X52308001Y-40378265D01*
X52278576Y-40526195D01*
X52395148Y-41112245D01*
X52455603Y-41202722D01*
X52727120Y-41609076D01*
X52852531Y-41692873D01*
X53056676Y-41897018D01*
X53181677Y-42198798D01*
X53639359Y-42656480D01*
X54237351Y-42904176D01*
X54509178Y-42904176D01*
X54413000Y-43136370D01*
X54413000Y-43253000D01*
X53270066Y-43253000D01*
X53212762Y-43167238D01*
X52757279Y-42862894D01*
X52355623Y-42783000D01*
X52220000Y-42756023D01*
X52084377Y-42783000D01*
X47853926Y-42783000D01*
X47851622Y-42780696D01*
X47253630Y-42533000D01*
X46606370Y-42533000D01*
X46008378Y-42780696D01*
X45550696Y-43238378D01*
X45303000Y-43836370D01*
X45303000Y-44483630D01*
X45550696Y-45081622D01*
X46008378Y-45539304D01*
X46606370Y-45787000D01*
X47253630Y-45787000D01*
X47747661Y-45582366D01*
X47646490Y-45826614D01*
X47646490Y-45829872D01*
X46793949Y-46682414D01*
X45925308Y-47551055D01*
X45810330Y-47627881D01*
X45670415Y-47837279D01*
X45505985Y-48083365D01*
X45399114Y-48620643D01*
X45426092Y-48756271D01*
X45426091Y-52009695D01*
X45407418Y-52222470D01*
X45467179Y-52412186D01*
X45505985Y-52607278D01*
X45548834Y-52671405D01*
X45572005Y-52744965D01*
X45699819Y-52897371D01*
X45810329Y-53062761D01*
X45987933Y-53181433D01*
X46209330Y-53359220D01*
X46372696Y-53753622D01*
X46830378Y-54211304D01*
X47428370Y-54459000D01*
X48075630Y-54459000D01*
X48199146Y-54407838D01*
X52023000Y-54407838D01*
X52023000Y-55592162D01*
X52476221Y-56686335D01*
X53313665Y-57523779D01*
X54407838Y-57977000D01*
X55592162Y-57977000D01*
X56686335Y-57523779D01*
X57523779Y-56686335D01*
X57977000Y-55592162D01*
X57977000Y-54407838D01*
X57523779Y-53313665D01*
X56686335Y-52476221D01*
X55592162Y-52023000D01*
X54407838Y-52023000D01*
X53313665Y-52476221D01*
X52476221Y-53313665D01*
X52023000Y-54407838D01*
X48199146Y-54407838D01*
X48673622Y-54211304D01*
X49131304Y-53753622D01*
X49379000Y-53155630D01*
X49379000Y-52508370D01*
X49131304Y-51910378D01*
X48673622Y-51452696D01*
X48180091Y-51248269D01*
X48180091Y-49191014D01*
X48741320Y-48629785D01*
X49593862Y-47777244D01*
X49597120Y-47777244D01*
X50195112Y-47529548D01*
X50652794Y-47071866D01*
X50900490Y-46473874D01*
X50900490Y-45826614D01*
X50780528Y-45537000D01*
X51639934Y-45537000D01*
X51697238Y-45622762D01*
X52152721Y-45927106D01*
X52554377Y-46007000D01*
X52689999Y-46033977D01*
X52825621Y-46007000D01*
X61764387Y-46007000D01*
X61900010Y-46033977D01*
X62035633Y-46007000D01*
X62437289Y-45927106D01*
X62892772Y-45622762D01*
X62969600Y-45507781D01*
X82450382Y-26027000D01*
X86064377Y-26027000D01*
X86200000Y-26053977D01*
X86335623Y-26027000D01*
X86737279Y-25947106D01*
X87192762Y-25642762D01*
X87269589Y-25527782D01*
X89807786Y-22989586D01*
X89922761Y-22912762D01*
X90227106Y-22457279D01*
X90304139Y-22070005D01*
X90333977Y-21920001D01*
X90307000Y-21784378D01*
X90307000Y-19710381D01*
X91280372Y-18737010D01*
X91283630Y-18737010D01*
X91881622Y-18489314D01*
X92339304Y-18031632D01*
X92587000Y-17433640D01*
X92587000Y-16786380D01*
X92339304Y-16188388D01*
X91881622Y-15730706D01*
X91283630Y-15483010D01*
X90636370Y-15483010D01*
X90038378Y-15730706D01*
X89580696Y-16188388D01*
X89333000Y-16786380D01*
X89333000Y-16789638D01*
X88052216Y-18070423D01*
X87937239Y-18147248D01*
X87768267Y-18400132D01*
X87632894Y-18602732D01*
X87526023Y-19140010D01*
X87553001Y-19275637D01*
X87553000Y-21349628D01*
X85629629Y-23273000D01*
X82015633Y-23273000D01*
X81880010Y-23246023D01*
X81744387Y-23273000D01*
X81342731Y-23352894D01*
X80887248Y-23657238D01*
X80810422Y-23772216D01*
X61329639Y-43253000D01*
X60034372Y-43253000D01*
X60477786Y-42809586D01*
X60592761Y-42732762D01*
X60897106Y-42277279D01*
X60977000Y-41875623D01*
X60977000Y-41875622D01*
X61003977Y-41740001D01*
X60977000Y-41604379D01*
X60977000Y-35053926D01*
X60979304Y-35051622D01*
X61227000Y-34453630D01*
X61227000Y-33806370D01*
X60979304Y-33208378D01*
X60950926Y-33180000D01*
X61309304Y-32821622D01*
X61557000Y-32223630D01*
X61557000Y-31796370D01*
X61883000Y-31796370D01*
X61883000Y-32443630D01*
X62130696Y-33041622D01*
X62588378Y-33499304D01*
X63186370Y-33747000D01*
X63833630Y-33747000D01*
X64431622Y-33499304D01*
X64889304Y-33041622D01*
X65137000Y-32443630D01*
X65137000Y-31796370D01*
X64889304Y-31198378D01*
X64837000Y-31146074D01*
X64837000Y-27909660D01*
X70799662Y-21947000D01*
X70873630Y-21947000D01*
X71471622Y-21699304D01*
X71929304Y-21241622D01*
X72177000Y-20643630D01*
X72177000Y-19996370D01*
X71929304Y-19398378D01*
X71471622Y-18940696D01*
X70873630Y-18693000D01*
X70226370Y-18693000D01*
X69628378Y-18940696D01*
X69170696Y-19398378D01*
X68923000Y-19996370D01*
X68923000Y-20070338D01*
X62664086Y-26329254D01*
X62553288Y-26403287D01*
X62479255Y-26514085D01*
X62479254Y-26514086D01*
X62259994Y-26842231D01*
X62230611Y-26989949D01*
X62183000Y-27229304D01*
X62183000Y-27229308D01*
X62157004Y-27360000D01*
X62183000Y-27490692D01*
X62183000Y-29140695D01*
X62183001Y-29140700D01*
X62183000Y-31146074D01*
X62130696Y-31198378D01*
X61883000Y-31796370D01*
X61557000Y-31796370D01*
X61557000Y-31576370D01*
X61309304Y-30978378D01*
X60851622Y-30520696D01*
X60253630Y-30273000D01*
X59606370Y-30273000D01*
X59008378Y-30520696D01*
X58550696Y-30978378D01*
X58303000Y-31576370D01*
X58303000Y-31579628D01*
X56802216Y-33080413D01*
X56687239Y-33157238D01*
X56382894Y-33612721D01*
X56353433Y-33760833D01*
X56276023Y-34150000D01*
X56303000Y-34285623D01*
X56303000Y-35004378D01*
X56303001Y-40956073D01*
X56187981Y-41071093D01*
X56187981Y-40953546D01*
X55940285Y-40355554D01*
X55482603Y-39897872D01*
X55312000Y-39827206D01*
X55312000Y-31285407D01*
X55437000Y-30983630D01*
X55437000Y-30336370D01*
X55189304Y-29738378D01*
X54731622Y-29280696D01*
X54133630Y-29033000D01*
X53884124Y-29033000D01*
X53917000Y-28953630D01*
X53917000Y-28306370D01*
X53669304Y-27708378D01*
X53297926Y-27337000D01*
X54509627Y-27337000D01*
X56523000Y-29350374D01*
X56523000Y-29353632D01*
X56770696Y-29951624D01*
X57228378Y-30409306D01*
X57826370Y-30657002D01*
X58473630Y-30657002D01*
X59071622Y-30409306D01*
X59529304Y-29951624D01*
X59777000Y-29353632D01*
X59777000Y-28706372D01*
X59529304Y-28108380D01*
X59071622Y-27650698D01*
X58473630Y-27403002D01*
X58470372Y-27403002D01*
X56149587Y-25082218D01*
X56072760Y-24967238D01*
X55617277Y-24662894D01*
X55215621Y-24583000D01*
X55079998Y-24556023D01*
X54944375Y-24583000D01*
X50160372Y-24583000D01*
X49677000Y-24099629D01*
X49677000Y-13925621D01*
X49703977Y-13789999D01*
X49663653Y-13587278D01*
X49627961Y-13407838D01*
X52023000Y-13407838D01*
X52023000Y-14592162D01*
X52476221Y-15686335D01*
X53313665Y-16523779D01*
X54407838Y-16977000D01*
X55592162Y-16977000D01*
X56686335Y-16523779D01*
X57523779Y-15686335D01*
X57977000Y-14592162D01*
X57977000Y-13407838D01*
X57523779Y-12313665D01*
X56686335Y-11476221D01*
X55592162Y-11023000D01*
X54407838Y-11023000D01*
X53313665Y-11476221D01*
X52476221Y-12313665D01*
X52023000Y-13407838D01*
X49627961Y-13407838D01*
X49597106Y-13252721D01*
X49292761Y-12797238D01*
X49177786Y-12720414D01*
X45956768Y-9499397D01*
X45995385Y-9483402D01*
X46030931Y-9450492D01*
X46146519Y-9623481D01*
X46850086Y-10093590D01*
X47470511Y-10217000D01*
X47889489Y-10217000D01*
X48509914Y-10093590D01*
X48950000Y-9799534D01*
X49390086Y-10093590D01*
X50010511Y-10217000D01*
X50429489Y-10217000D01*
X51049914Y-10093590D01*
X51753481Y-9623481D01*
X52223590Y-8919914D01*
X52388670Y-8090000D01*
X52223590Y-7260086D01*
X51929534Y-6820000D01*
X52223590Y-6379914D01*
X52388670Y-5550000D01*
X52223590Y-4720086D01*
X51753481Y-4016519D01*
X51723749Y-3996653D01*
X51694976Y-3852000D01*
X54924516Y-3852000D01*
X54873000Y-3976370D01*
X54873000Y-4623630D01*
X55120696Y-5221622D01*
X55578378Y-5679304D01*
X56176370Y-5927000D01*
X56179628Y-5927000D01*
X56430851Y-6178223D01*
X56130696Y-6478378D01*
X55883000Y-7076370D01*
X55883000Y-7723630D01*
X56130696Y-8321622D01*
X56588378Y-8779304D01*
X57186370Y-9027000D01*
X57833630Y-9027000D01*
X58431622Y-8779304D01*
X58889304Y-8321622D01*
X59094183Y-7827000D01*
X63614377Y-7827000D01*
X63750000Y-7853977D01*
X63885623Y-7827000D01*
X64287279Y-7747106D01*
X64742762Y-7442762D01*
X64819589Y-7327782D01*
X65220371Y-6927000D01*
X65223630Y-6927000D01*
X65821622Y-6679304D01*
X66279304Y-6221622D01*
X66527000Y-5623630D01*
X66527000Y-4976370D01*
X66279304Y-4378378D01*
X65821622Y-3920696D01*
X65655775Y-3852000D01*
X71937852Y-3852000D01*
X72128001Y-4042149D01*
X72128000Y-7322071D01*
X72128000Y-7322072D01*
X72128001Y-10512070D01*
X72098576Y-10660000D01*
X72215148Y-11246050D01*
X72215149Y-11246051D01*
X72547120Y-11742881D01*
X72672530Y-11826677D01*
X72808853Y-11963000D01*
X62488515Y-11963000D01*
X62352893Y-11936023D01*
X62217271Y-11963000D01*
X61815615Y-12042894D01*
X61360132Y-12347238D01*
X61283306Y-12462216D01*
X59175111Y-14570412D01*
X59175108Y-14570414D01*
X55422216Y-18323307D01*
X55307239Y-18400132D01*
X55002894Y-18855615D01*
X54965427Y-19043977D01*
X54943161Y-19155913D01*
X54920696Y-19178378D01*
X54673000Y-19776370D01*
X54673000Y-20423630D01*
X54920696Y-21021622D01*
X55378378Y-21479304D01*
X55976370Y-21727000D01*
X56623630Y-21727000D01*
X57221622Y-21479304D01*
X57679304Y-21021622D01*
X57927000Y-20423630D01*
X57927000Y-19776370D01*
X57908517Y-19731748D01*
X61122480Y-16517786D01*
X61122482Y-16517783D01*
X62923266Y-14717000D01*
X80862680Y-14717000D01*
X80575767Y-14908709D01*
X80498941Y-15023687D01*
X79259629Y-16263000D01*
X75623926Y-16263000D01*
X75621622Y-16260696D01*
X75023630Y-16013000D01*
X74376370Y-16013000D01*
X73778378Y-16260696D01*
X73320696Y-16718378D01*
X73073000Y-17316370D01*
X73073000Y-17963630D01*
X73320696Y-18561622D01*
X73778378Y-19019304D01*
X74376370Y-19267000D01*
X75023630Y-19267000D01*
X75621622Y-19019304D01*
X75623926Y-19017000D01*
X79694377Y-19017000D01*
X79830000Y-19043977D01*
X79965623Y-19017000D01*
X80367279Y-18937106D01*
X80822762Y-18632762D01*
X80899589Y-18517782D01*
X82138901Y-17278471D01*
X84640754Y-17278471D01*
X84659237Y-17323092D01*
X85116919Y-17780774D01*
X85714911Y-18028470D01*
X86362171Y-18028470D01*
X86960163Y-17780774D01*
X87417845Y-17323092D01*
X87665541Y-16725100D01*
X87665541Y-16077840D01*
X87417845Y-15479848D01*
X86960163Y-15022166D01*
X86362171Y-14774470D01*
X86330401Y-14774470D01*
X86244391Y-14717000D01*
X118424377Y-14717000D01*
X118560000Y-14743977D01*
X118695623Y-14717000D01*
X119097279Y-14637106D01*
X119365979Y-14457566D01*
X187273000Y-14457566D01*
X187273000Y-15542434D01*
X187688161Y-16544721D01*
X188455279Y-17311839D01*
X189457566Y-17727000D01*
X190542434Y-17727000D01*
X191544721Y-17311839D01*
X192311839Y-16544721D01*
X192727000Y-15542434D01*
X192727000Y-14457566D01*
X192311839Y-13455279D01*
X191544721Y-12688161D01*
X190542434Y-12273000D01*
X189457566Y-12273000D01*
X188455279Y-12688161D01*
X187688161Y-13455279D01*
X187273000Y-14457566D01*
X119365979Y-14457566D01*
X119552762Y-14332762D01*
X119629589Y-14217782D01*
X120977789Y-12869584D01*
X121092761Y-12792762D01*
X121169583Y-12677790D01*
X121169586Y-12677787D01*
X121397106Y-12337279D01*
X121503977Y-11800000D01*
X121477000Y-11664377D01*
X121477000Y-9946151D01*
X121689298Y-9804298D01*
X121992580Y-9350404D01*
X122099079Y-8815000D01*
X122099079Y-7365000D01*
X121992580Y-6829596D01*
X121689298Y-6375702D01*
X121235404Y-6072420D01*
X120864831Y-5998708D01*
X185473000Y-5998708D01*
X185473000Y-7501292D01*
X186048014Y-8889499D01*
X187110501Y-9951986D01*
X188498708Y-10527000D01*
X190001292Y-10527000D01*
X191389499Y-9951986D01*
X192451986Y-8889499D01*
X193027000Y-7501292D01*
X193027000Y-5998708D01*
X192451986Y-4610501D01*
X191389499Y-3548014D01*
X190001292Y-2973000D01*
X188498708Y-2973000D01*
X187110501Y-3548014D01*
X186048014Y-4610501D01*
X185473000Y-5998708D01*
X120864831Y-5998708D01*
X120700000Y-5965921D01*
X119500000Y-5965921D01*
X118964596Y-6072420D01*
X118510702Y-6375702D01*
X118304122Y-6684871D01*
X117956890Y-6523524D01*
X117727000Y-6644845D01*
X117727000Y-7963000D01*
X117747000Y-7963000D01*
X117747000Y-8217000D01*
X117727000Y-8217000D01*
X117727000Y-9535155D01*
X117956890Y-9656476D01*
X118304122Y-9495129D01*
X118510702Y-9804298D01*
X118723000Y-9946151D01*
X118723000Y-11229628D01*
X117989628Y-11963000D01*
X90667000Y-11963000D01*
X90667000Y-11606370D01*
X90419304Y-11008378D01*
X89961622Y-10550696D01*
X89363630Y-10303000D01*
X88716370Y-10303000D01*
X88414593Y-10428000D01*
X87513941Y-10428000D01*
X87727000Y-9913630D01*
X87727000Y-9266370D01*
X87479304Y-8668378D01*
X87477000Y-8666074D01*
X87477000Y-6420372D01*
X87550372Y-6347000D01*
X89213004Y-6347000D01*
X88924663Y-6539663D01*
X88487707Y-7193613D01*
X88373000Y-7770286D01*
X88373000Y-8409713D01*
X88487707Y-8986386D01*
X88924663Y-9640337D01*
X89578613Y-10077293D01*
X90350000Y-10230731D01*
X91121386Y-10077293D01*
X91600000Y-9757494D01*
X92078613Y-10077293D01*
X92850000Y-10230731D01*
X93621386Y-10077293D01*
X94100000Y-9757494D01*
X94578613Y-10077293D01*
X95350000Y-10230731D01*
X96121386Y-10077293D01*
X96757854Y-9652019D01*
X96873691Y-9700000D01*
X97564250Y-9700000D01*
X97723000Y-9541250D01*
X97723000Y-8217000D01*
X97977000Y-8217000D01*
X97977000Y-9541250D01*
X98135750Y-9700000D01*
X98826309Y-9700000D01*
X99059698Y-9603327D01*
X99238327Y-9424699D01*
X99335000Y-9191310D01*
X99335000Y-8375750D01*
X99176250Y-8217000D01*
X97977000Y-8217000D01*
X97723000Y-8217000D01*
X97703000Y-8217000D01*
X97703000Y-7963000D01*
X97723000Y-7963000D01*
X97723000Y-6638750D01*
X97977000Y-6638750D01*
X97977000Y-7963000D01*
X99176250Y-7963000D01*
X99335000Y-7804250D01*
X99335000Y-6988690D01*
X99238327Y-6755301D01*
X99059698Y-6576673D01*
X98826309Y-6480000D01*
X98135750Y-6480000D01*
X97977000Y-6638750D01*
X97723000Y-6638750D01*
X97564250Y-6480000D01*
X96977000Y-6480000D01*
X96977000Y-6160242D01*
X97008874Y-6000000D01*
X97008618Y-5998708D01*
X101973000Y-5998708D01*
X101973000Y-7501292D01*
X102548014Y-8889499D01*
X103610501Y-9951986D01*
X104998708Y-10527000D01*
X106501292Y-10527000D01*
X107889499Y-9951986D01*
X108951986Y-8889499D01*
X109415579Y-7770286D01*
X113123000Y-7770286D01*
X113123000Y-8409713D01*
X113237707Y-8986386D01*
X113674663Y-9640337D01*
X114328613Y-10077293D01*
X115100000Y-10230731D01*
X115871386Y-10077293D01*
X116525337Y-9640337D01*
X116697095Y-9383284D01*
X116728807Y-9417497D01*
X117243110Y-9656476D01*
X117473000Y-9535155D01*
X117473000Y-8217000D01*
X117453000Y-8217000D01*
X117453000Y-7963000D01*
X117473000Y-7963000D01*
X117473000Y-6644845D01*
X117243110Y-6523524D01*
X116728807Y-6762503D01*
X116697095Y-6796717D01*
X116525337Y-6539663D01*
X115871387Y-6102707D01*
X115100000Y-5949269D01*
X114328614Y-6102707D01*
X113674663Y-6539663D01*
X113237707Y-7193613D01*
X113123000Y-7770286D01*
X109415579Y-7770286D01*
X109527000Y-7501292D01*
X109527000Y-5998708D01*
X108951986Y-4610501D01*
X107889499Y-3548014D01*
X106501292Y-2973000D01*
X104998708Y-2973000D01*
X103610501Y-3548014D01*
X102548014Y-4610501D01*
X101973000Y-5998708D01*
X97008618Y-5998708D01*
X96882600Y-5365176D01*
X96613771Y-4962845D01*
X96613770Y-4962844D01*
X96523001Y-4826999D01*
X96387156Y-4736230D01*
X94413773Y-2762849D01*
X94323001Y-2626999D01*
X93784824Y-2267400D01*
X93310242Y-2173000D01*
X93310238Y-2173000D01*
X93150000Y-2141127D01*
X92989762Y-2173000D01*
X81400237Y-2173000D01*
X81239999Y-2141127D01*
X81079761Y-2173000D01*
X81079758Y-2173000D01*
X80605176Y-2267400D01*
X80066999Y-2626999D01*
X79976228Y-2762847D01*
X78062849Y-4676227D01*
X77926999Y-4766999D01*
X77567400Y-5305177D01*
X77473000Y-5779759D01*
X77473000Y-5779762D01*
X77441127Y-5940000D01*
X77473000Y-6100238D01*
X77473000Y-6816472D01*
X77237707Y-7168613D01*
X77123000Y-7745286D01*
X77123000Y-8434713D01*
X77237707Y-9011386D01*
X77674663Y-9665337D01*
X78328613Y-10102293D01*
X79100000Y-10255731D01*
X79871386Y-10102293D01*
X80507854Y-9677019D01*
X80623691Y-9725000D01*
X81314250Y-9725000D01*
X81473000Y-9566250D01*
X81473000Y-8217000D01*
X81727000Y-8217000D01*
X81727000Y-9566250D01*
X81885750Y-9725000D01*
X82576309Y-9725000D01*
X82809698Y-9628327D01*
X82988327Y-9449699D01*
X83085000Y-9216310D01*
X83085000Y-8375750D01*
X82926250Y-8217000D01*
X81727000Y-8217000D01*
X81473000Y-8217000D01*
X81453000Y-8217000D01*
X81453000Y-7963000D01*
X81473000Y-7963000D01*
X81473000Y-6613750D01*
X81727000Y-6613750D01*
X81727000Y-7963000D01*
X82926250Y-7963000D01*
X83085000Y-7804250D01*
X83085000Y-6963690D01*
X82988327Y-6730301D01*
X82809698Y-6551673D01*
X82576309Y-6455000D01*
X81885750Y-6455000D01*
X81727000Y-6613750D01*
X81473000Y-6613750D01*
X81314250Y-6455000D01*
X80885924Y-6455000D01*
X81913925Y-5427000D01*
X84780163Y-5427000D01*
X84696023Y-5850000D01*
X84723001Y-5985628D01*
X84723000Y-8666074D01*
X84720696Y-8668378D01*
X84473000Y-9266370D01*
X84473000Y-9913630D01*
X84686059Y-10428000D01*
X83917923Y-10428000D01*
X83769999Y-10398576D01*
X83622075Y-10428000D01*
X83622071Y-10428000D01*
X83571798Y-10438000D01*
X75674402Y-10438000D01*
X75431559Y-10337411D01*
X75132000Y-10037852D01*
X75132000Y-3567929D01*
X75161425Y-3420000D01*
X75044852Y-2833949D01*
X74796676Y-2462527D01*
X74712881Y-2337119D01*
X74587472Y-2253324D01*
X73961148Y-1627000D01*
X194927539Y-1627000D01*
X195596162Y-1686673D01*
X195596162Y-1686673D01*
G37*
X195596162Y-1686673D02*
X196173480Y-1844610D01*
X196713703Y-2102282D01*
X197199763Y-2451552D01*
X197616288Y-2881373D01*
X197950114Y-3378159D01*
X198190694Y-3926214D01*
X198333423Y-4520722D01*
X198373000Y-5059663D01*
X198373000Y-65947394D01*
X194447394Y-69873000D01*
X87000000Y-69873000D01*
X86951399Y-69882667D01*
X86910197Y-69910197D01*
X81910197Y-74910197D01*
X81882667Y-74951399D01*
X81873000Y-75000000D01*
X81873000Y-135442969D01*
X77415626Y-139405079D01*
X77414571Y-139406028D01*
X71950902Y-144373000D01*
X67000000Y-144373000D01*
X66997510Y-144373024D01*
X59963977Y-144510936D01*
X59558543Y-144343000D01*
X58513457Y-144343000D01*
X58015801Y-144549136D01*
X54769854Y-144612782D01*
X54118543Y-144343000D01*
X53073457Y-144343000D01*
X52305489Y-144661103D01*
X49800152Y-144710227D01*
X49732571Y-144642646D01*
X48767038Y-144242709D01*
X47721952Y-144242709D01*
X46756419Y-144642646D01*
X46626612Y-144772453D01*
X44416920Y-144815781D01*
X44344076Y-144742937D01*
X43378543Y-144343000D01*
X42957926Y-144343000D01*
X43009682Y-144291244D01*
X43613235Y-144041244D01*
X44141244Y-143513235D01*
X44427000Y-142823359D01*
X44427000Y-142076641D01*
X44207660Y-141547107D01*
X44463235Y-141441244D01*
X44991244Y-140913235D01*
X45277000Y-140223359D01*
X45277000Y-139476641D01*
X44991244Y-138786765D01*
X44463235Y-138258756D01*
X43773359Y-137973000D01*
X43026641Y-137973000D01*
X42423088Y-138223000D01*
X41610242Y-138223000D01*
X41450000Y-138191126D01*
X40815176Y-138317400D01*
X40412845Y-138586229D01*
X40412844Y-138586230D01*
X40276999Y-138676999D01*
X40186230Y-138812844D01*
X32162848Y-146836228D01*
X32027000Y-146926999D01*
X31936230Y-147062846D01*
X31667400Y-147465177D01*
X31541127Y-148100000D01*
X31573001Y-148260243D01*
X31573000Y-178873088D01*
X31323000Y-179476641D01*
X31323000Y-180223359D01*
X31517532Y-180693000D01*
X19627000Y-180693000D01*
X19627000Y-150000000D01*
X19617333Y-149951399D01*
X19589803Y-149910197D01*
X14589803Y-144910197D01*
X14548601Y-144882667D01*
X14500000Y-144873000D01*
X12727000Y-144873000D01*
X12727000Y-144457566D01*
X12311839Y-143455279D01*
X11544721Y-142688161D01*
X10542434Y-142273000D01*
X9457566Y-142273000D01*
X8455279Y-142688161D01*
X7688161Y-143455279D01*
X7273000Y-144457566D01*
X7273000Y-144873000D01*
X4552606Y-144873000D01*
X1627000Y-141947394D01*
X1627000Y-129347924D01*
X9296252Y-137017178D01*
X9387021Y-137153023D01*
X9522866Y-137243792D01*
X9522867Y-137243793D01*
X9925198Y-137512622D01*
X10560022Y-137638896D01*
X10720264Y-137607022D01*
X57125740Y-137607022D01*
X57285978Y-137638895D01*
X57446216Y-137607022D01*
X57446220Y-137607022D01*
X57920802Y-137512622D01*
X58458979Y-137153023D01*
X58549752Y-137017172D01*
X62232844Y-133334081D01*
X62474267Y-133234080D01*
X62960080Y-132748267D01*
X63223000Y-132113522D01*
X63223000Y-131426478D01*
X62960080Y-130791733D01*
X62474267Y-130305920D01*
X61839522Y-130043000D01*
X61152478Y-130043000D01*
X60517733Y-130305920D01*
X60031920Y-130791733D01*
X59931919Y-131033156D01*
X56612054Y-134353022D01*
X42797903Y-134353022D01*
X43481620Y-133669305D01*
X43481622Y-133669304D01*
X43597156Y-133553770D01*
X43733001Y-133463001D01*
X43823771Y-133327155D01*
X43939304Y-133211622D01*
X44001830Y-133060671D01*
X44092600Y-132924824D01*
X44124474Y-132764581D01*
X44187000Y-132613630D01*
X44187000Y-132450239D01*
X44218873Y-132290001D01*
X44187000Y-132129763D01*
X44187000Y-130880242D01*
X44218874Y-130720000D01*
X44092600Y-130085176D01*
X43823771Y-129682845D01*
X43823770Y-129682844D01*
X43733001Y-129546999D01*
X43597156Y-129456230D01*
X42597000Y-128456075D01*
X42597000Y-127716024D01*
X42781611Y-127439733D01*
X42869079Y-127000000D01*
X42869079Y-124063227D01*
X43863323Y-125057472D01*
X43947119Y-125182881D01*
X44072527Y-125266676D01*
X44443949Y-125514852D01*
X45030000Y-125631425D01*
X45177929Y-125602000D01*
X51674593Y-125602000D01*
X51976370Y-125727000D01*
X52623630Y-125727000D01*
X52925407Y-125602000D01*
X64101082Y-125602000D01*
X64178378Y-125679296D01*
X64776370Y-125926992D01*
X65423630Y-125926992D01*
X66021622Y-125679296D01*
X66479304Y-125221614D01*
X66571634Y-124998708D01*
X73973000Y-124998708D01*
X73973000Y-126501292D01*
X74548014Y-127889499D01*
X75610501Y-128951986D01*
X76998708Y-129527000D01*
X78501292Y-129527000D01*
X79889499Y-128951986D01*
X80951986Y-127889499D01*
X81527000Y-126501292D01*
X81527000Y-124998708D01*
X80951986Y-123610501D01*
X79889499Y-122548014D01*
X78501292Y-121973000D01*
X76998708Y-121973000D01*
X75610501Y-122548014D01*
X74548014Y-123610501D01*
X73973000Y-124998708D01*
X66571634Y-124998708D01*
X66727000Y-124623622D01*
X66727000Y-123976362D01*
X66479304Y-123378370D01*
X66021622Y-122920688D01*
X65540015Y-122721200D01*
X65486059Y-122685148D01*
X65047937Y-122598000D01*
X65047933Y-122598000D01*
X64900008Y-122568576D01*
X64752083Y-122598000D01*
X52925407Y-122598000D01*
X52623630Y-122473000D01*
X51976370Y-122473000D01*
X51674593Y-122598000D01*
X45652148Y-122598000D01*
X44939588Y-121885440D01*
X44939588Y-117637938D01*
X44969013Y-117490009D01*
X44852440Y-116903958D01*
X44604264Y-116532536D01*
X44520469Y-116407128D01*
X44395061Y-116323334D01*
X41939656Y-113867930D01*
X41749304Y-113408378D01*
X41291622Y-112950696D01*
X40989845Y-112825696D01*
X38326679Y-110162532D01*
X38242881Y-110037119D01*
X37746051Y-109705148D01*
X37307929Y-109618000D01*
X37307925Y-109618000D01*
X37160000Y-109588576D01*
X37012075Y-109618000D01*
X32972148Y-109618000D01*
X32294305Y-108940158D01*
X32169304Y-108638378D01*
X31711622Y-108180696D01*
X31409843Y-108055695D01*
X30302000Y-106947853D01*
X30302000Y-101858158D01*
X32396594Y-101858158D01*
X32396594Y-103957439D01*
X32514202Y-104548694D01*
X32962209Y-105219184D01*
X33632698Y-105667191D01*
X34423594Y-105824510D01*
X35214489Y-105667191D01*
X35693594Y-105347063D01*
X36172698Y-105667191D01*
X36963594Y-105824510D01*
X37754489Y-105667191D01*
X38424979Y-105219184D01*
X38872986Y-104548695D01*
X38990594Y-103957440D01*
X38990594Y-101858159D01*
X38872986Y-101266903D01*
X38424979Y-100596414D01*
X37754490Y-100148407D01*
X36963594Y-99991088D01*
X36172699Y-100148407D01*
X35693595Y-100468535D01*
X35214490Y-100148407D01*
X34423594Y-99991088D01*
X33632699Y-100148407D01*
X32962210Y-100596414D01*
X32514203Y-101266903D01*
X32396594Y-101858158D01*
X30302000Y-101858158D01*
X30302000Y-91167923D01*
X30331424Y-91019999D01*
X30302000Y-90872075D01*
X30302000Y-90872071D01*
X30214852Y-90433949D01*
X29882881Y-89937119D01*
X29757470Y-89853322D01*
X29334305Y-89430157D01*
X29209304Y-89128378D01*
X28751622Y-88670696D01*
X28153630Y-88423000D01*
X27506370Y-88423000D01*
X26908378Y-88670696D01*
X26450696Y-89128378D01*
X26203000Y-89726370D01*
X26203000Y-90373630D01*
X26450696Y-90971622D01*
X26908378Y-91429304D01*
X27210157Y-91554305D01*
X27298000Y-91642148D01*
X27298001Y-102062260D01*
X26914537Y-101136496D01*
X26034897Y-100256856D01*
X24885593Y-99780799D01*
X23641595Y-99780799D01*
X22492291Y-100256856D01*
X21612651Y-101136496D01*
X21136594Y-102285800D01*
X21136594Y-103529798D01*
X21196367Y-103674102D01*
X20029549Y-104840920D01*
X19132719Y-104840920D01*
X19294537Y-104679102D01*
X19770594Y-103529798D01*
X19770594Y-102285800D01*
X19294537Y-101136496D01*
X18414897Y-100256856D01*
X17265593Y-99780799D01*
X16021595Y-99780799D01*
X14872291Y-100256856D01*
X13992651Y-101136496D01*
X13516594Y-102285800D01*
X13516594Y-102340920D01*
X11196374Y-102340920D01*
X10798905Y-102075340D01*
X10263501Y-101968841D01*
X8763501Y-101968841D01*
X8228097Y-102075340D01*
X7774203Y-102378622D01*
X7470921Y-102832516D01*
X7364422Y-103367920D01*
X7364422Y-104567920D01*
X7470921Y-105103324D01*
X7684249Y-105422593D01*
X7501208Y-105696533D01*
X7347770Y-106467920D01*
X7501208Y-107239307D01*
X7938164Y-107893257D01*
X8592114Y-108330213D01*
X9168787Y-108444920D01*
X9858215Y-108444920D01*
X10434888Y-108330213D01*
X10787028Y-108094920D01*
X20543235Y-108094920D01*
X20703473Y-108126793D01*
X20863711Y-108094920D01*
X20863715Y-108094920D01*
X21338297Y-108000520D01*
X21876474Y-107640921D01*
X21967247Y-107505070D01*
X23497291Y-105975026D01*
X23641595Y-106034799D01*
X24885593Y-106034799D01*
X26034897Y-105558742D01*
X26914537Y-104679102D01*
X27298000Y-103753339D01*
X27298001Y-107422070D01*
X27268576Y-107570000D01*
X27385148Y-108156050D01*
X27401616Y-108180696D01*
X27717120Y-108652881D01*
X27842530Y-108736678D01*
X28647447Y-109541595D01*
X28538165Y-109705148D01*
X28325148Y-110023950D01*
X28208576Y-110610000D01*
X28238001Y-110757930D01*
X28238000Y-120757851D01*
X26777853Y-122218000D01*
X22225407Y-122218000D01*
X21923630Y-122093000D01*
X21276370Y-122093000D01*
X20678378Y-122340696D01*
X20220696Y-122798378D01*
X19973000Y-123396370D01*
X19973000Y-124043630D01*
X20220696Y-124641622D01*
X20678378Y-125099304D01*
X21276370Y-125347000D01*
X21923630Y-125347000D01*
X22225407Y-125222000D01*
X27252075Y-125222000D01*
X27400000Y-125251424D01*
X27547925Y-125222000D01*
X27547929Y-125222000D01*
X27986051Y-125134852D01*
X28482881Y-124802881D01*
X28566679Y-124677468D01*
X30697473Y-122546676D01*
X30822881Y-122462881D01*
X31154852Y-121966051D01*
X31242000Y-121527929D01*
X31242000Y-121527928D01*
X31271425Y-121380000D01*
X31242000Y-121232071D01*
X31242000Y-112165288D01*
X31267119Y-112202881D01*
X31763949Y-112534852D01*
X32202071Y-112622000D01*
X32202075Y-112622000D01*
X32349999Y-112651424D01*
X32497923Y-112622000D01*
X36537853Y-112622000D01*
X37239401Y-113323548D01*
X36963594Y-113268687D01*
X36172699Y-113426006D01*
X35693595Y-113746134D01*
X35214490Y-113426006D01*
X34423594Y-113268687D01*
X33632699Y-113426006D01*
X32962210Y-113874013D01*
X32514203Y-114544502D01*
X32396594Y-115135757D01*
X32396594Y-117235038D01*
X32514202Y-117826293D01*
X32962209Y-118496783D01*
X33632698Y-118944790D01*
X34423594Y-119102109D01*
X35214489Y-118944790D01*
X35693594Y-118624662D01*
X36172698Y-118944790D01*
X36963594Y-119102109D01*
X37754489Y-118944790D01*
X38424979Y-118496783D01*
X38872986Y-117826294D01*
X38925478Y-117562398D01*
X39375027Y-117562398D01*
X39723001Y-117910372D01*
X39723001Y-118256073D01*
X39720696Y-118258378D01*
X39473000Y-118856370D01*
X39473000Y-119503630D01*
X39720696Y-120101622D01*
X40178378Y-120559304D01*
X40776370Y-120807000D01*
X41423630Y-120807000D01*
X41935589Y-120594940D01*
X41935589Y-122359658D01*
X41906164Y-122507588D01*
X41984939Y-122903621D01*
X41720000Y-122850921D01*
X40220000Y-122850921D01*
X39780267Y-122938389D01*
X39438754Y-123166580D01*
X39162368Y-122981905D01*
X38430000Y-122836228D01*
X37697631Y-122981905D01*
X37076759Y-123396759D01*
X36661905Y-124017632D01*
X36553000Y-124565135D01*
X36553000Y-126434866D01*
X36661906Y-126982369D01*
X36803000Y-127193531D01*
X36803001Y-129599757D01*
X36771127Y-129760000D01*
X36897400Y-130394823D01*
X36936273Y-130453000D01*
X12753925Y-130453000D01*
X5867001Y-123566077D01*
X5867001Y-119587920D01*
X7347770Y-119587920D01*
X7501208Y-120359307D01*
X7938164Y-121013257D01*
X8592114Y-121450213D01*
X9168787Y-121564920D01*
X9858215Y-121564920D01*
X10434888Y-121450213D01*
X10787028Y-121214920D01*
X20700834Y-121214920D01*
X20861072Y-121246793D01*
X21021310Y-121214920D01*
X21021314Y-121214920D01*
X21495896Y-121120520D01*
X22034073Y-120760921D01*
X22124845Y-120625071D01*
X23497291Y-119252626D01*
X23641595Y-119312398D01*
X24885593Y-119312398D01*
X26034897Y-118836341D01*
X26914537Y-117956701D01*
X27390594Y-116807397D01*
X27390594Y-115563399D01*
X26914537Y-114414095D01*
X26034897Y-113534455D01*
X24885593Y-113058398D01*
X23641595Y-113058398D01*
X22492291Y-113534455D01*
X21612651Y-114414095D01*
X21136594Y-115563399D01*
X21136594Y-116807397D01*
X21196366Y-116951701D01*
X20187148Y-117960920D01*
X19290318Y-117960920D01*
X19294537Y-117956701D01*
X19770594Y-116807397D01*
X19770594Y-115563399D01*
X19294537Y-114414095D01*
X18414897Y-113534455D01*
X17265593Y-113058398D01*
X16021595Y-113058398D01*
X14872291Y-113534455D01*
X13992651Y-114414095D01*
X13559042Y-115460920D01*
X11196374Y-115460920D01*
X10798905Y-115195340D01*
X10263501Y-115088841D01*
X8763501Y-115088841D01*
X8228097Y-115195340D01*
X7774203Y-115498622D01*
X7470921Y-115952516D01*
X7364422Y-116487920D01*
X7364422Y-117687920D01*
X7470921Y-118223324D01*
X7684249Y-118542593D01*
X7501208Y-118816533D01*
X7347770Y-119587920D01*
X5867001Y-119587920D01*
X5867001Y-97929660D01*
X7897025Y-97929660D01*
X8136004Y-98443963D01*
X8560930Y-98837823D01*
X9104234Y-99039090D01*
X9336501Y-98898935D01*
X9336501Y-97699770D01*
X9590501Y-97699770D01*
X9590501Y-98898935D01*
X9822768Y-99039090D01*
X10366072Y-98837823D01*
X10790998Y-98443963D01*
X11029977Y-97929660D01*
X10908656Y-97699770D01*
X9590501Y-97699770D01*
X9336501Y-97699770D01*
X8018346Y-97699770D01*
X7897025Y-97929660D01*
X5867001Y-97929660D01*
X5867001Y-85072770D01*
X7322770Y-85072770D01*
X7476208Y-85844157D01*
X7796007Y-86322770D01*
X7476208Y-86801383D01*
X7322770Y-87572770D01*
X7476208Y-88344157D01*
X7796007Y-88822770D01*
X7476208Y-89301383D01*
X7322770Y-90072770D01*
X7476208Y-90844157D01*
X7796007Y-91322770D01*
X7476208Y-91801383D01*
X7322770Y-92572770D01*
X7476208Y-93344157D01*
X7796007Y-93822770D01*
X7476208Y-94301383D01*
X7322770Y-95072770D01*
X7476208Y-95844157D01*
X7913164Y-96498107D01*
X8170217Y-96669865D01*
X8136004Y-96701577D01*
X7897025Y-97215880D01*
X8018346Y-97445770D01*
X9336501Y-97445770D01*
X9336501Y-97425770D01*
X9590501Y-97425770D01*
X9590501Y-97445770D01*
X10908656Y-97445770D01*
X11029977Y-97215880D01*
X10790998Y-96701577D01*
X10756785Y-96669865D01*
X11013838Y-96498107D01*
X11450794Y-95844157D01*
X11604232Y-95072770D01*
X11450794Y-94301383D01*
X11215853Y-93949770D01*
X20221607Y-93949770D01*
X20357230Y-93976747D01*
X20492853Y-93949770D01*
X20894509Y-93869876D01*
X21349992Y-93565532D01*
X21426819Y-93450552D01*
X25224890Y-89652482D01*
X25339868Y-89575656D01*
X25644212Y-89120173D01*
X25724106Y-88718517D01*
X25751083Y-88582894D01*
X25724106Y-88447271D01*
X25724106Y-83342729D01*
X25751083Y-83207106D01*
X25644212Y-82669827D01*
X25633632Y-82653993D01*
X25339868Y-82214344D01*
X25256371Y-82158553D01*
X25339868Y-82102762D01*
X25644212Y-81647278D01*
X25723092Y-81250721D01*
X25751083Y-81110001D01*
X25724106Y-80974379D01*
X25724106Y-77315265D01*
X27429585Y-75609787D01*
X27429587Y-75609784D01*
X30948621Y-72090750D01*
X38175000Y-72090750D01*
X38175000Y-73181309D01*
X38271673Y-73414698D01*
X38450301Y-73593327D01*
X38683690Y-73690000D01*
X39424250Y-73690000D01*
X39583000Y-73531250D01*
X39583000Y-71932000D01*
X38333750Y-71932000D01*
X38175000Y-72090750D01*
X30948621Y-72090750D01*
X32610680Y-70428691D01*
X38175000Y-70428691D01*
X38175000Y-71519250D01*
X38333750Y-71678000D01*
X39583000Y-71678000D01*
X39583000Y-70078750D01*
X39424250Y-69920000D01*
X38683690Y-69920000D01*
X38450301Y-70016673D01*
X38271673Y-70195302D01*
X38175000Y-70428691D01*
X32610680Y-70428691D01*
X36007789Y-67031584D01*
X36122761Y-66954762D01*
X36199583Y-66839790D01*
X36199586Y-66839787D01*
X36427106Y-66499279D01*
X36533977Y-65962000D01*
X36507000Y-65826377D01*
X36507000Y-64313926D01*
X36509304Y-64311622D01*
X36757000Y-63713630D01*
X36757000Y-63066370D01*
X36509304Y-62468378D01*
X36051622Y-62010696D01*
X35453630Y-61763000D01*
X34876999Y-61763000D01*
X34876999Y-60828366D01*
X43756406Y-69707774D01*
X43520000Y-69865736D01*
X43040895Y-69545608D01*
X42250000Y-69388289D01*
X41459104Y-69545608D01*
X40836610Y-69961546D01*
X40736310Y-69920000D01*
X39995750Y-69920000D01*
X39837000Y-70078750D01*
X39837000Y-71678000D01*
X39857000Y-71678000D01*
X39857000Y-71932000D01*
X39837000Y-71932000D01*
X39837000Y-73531250D01*
X39995750Y-73690000D01*
X40736310Y-73690000D01*
X40836611Y-73648454D01*
X41459105Y-74064392D01*
X42250000Y-74221711D01*
X43040896Y-74064392D01*
X43520000Y-73744264D01*
X43999105Y-74064392D01*
X44790000Y-74221711D01*
X45580896Y-74064392D01*
X46251385Y-73616385D01*
X46699392Y-72945895D01*
X46748358Y-72699726D01*
X48203001Y-74154369D01*
X48203000Y-91744377D01*
X48176023Y-91880000D01*
X48226896Y-92135758D01*
X48282894Y-92417278D01*
X48587238Y-92872761D01*
X48702216Y-92949587D01*
X50953000Y-95200372D01*
X50953000Y-95203630D01*
X51200696Y-95801622D01*
X51658378Y-96259304D01*
X52256370Y-96507000D01*
X52273005Y-96507000D01*
X52273004Y-111132739D01*
X50827000Y-109686736D01*
X50827000Y-107276912D01*
X51077000Y-106673359D01*
X51077000Y-105926641D01*
X50791244Y-105236765D01*
X50263235Y-104708756D01*
X49573359Y-104423000D01*
X48826641Y-104423000D01*
X48136765Y-104708756D01*
X47608756Y-105236765D01*
X47323000Y-105926641D01*
X47323000Y-106673359D01*
X47573000Y-107276913D01*
X47573001Y-110200417D01*
X47541127Y-110360660D01*
X47667400Y-110995483D01*
X47667401Y-110995484D01*
X48027000Y-111533661D01*
X48162847Y-111624431D01*
X52675570Y-116137156D01*
X52766339Y-116273001D01*
X52902184Y-116363770D01*
X52902185Y-116363771D01*
X53087987Y-116487920D01*
X53304516Y-116632600D01*
X53779098Y-116727000D01*
X53779102Y-116727000D01*
X53939340Y-116758873D01*
X54047903Y-116737279D01*
X54626641Y-116977000D01*
X55373359Y-116977000D01*
X56063235Y-116691244D01*
X56591244Y-116163235D01*
X56877000Y-115473359D01*
X56877000Y-114726641D01*
X56591244Y-114036765D01*
X56063235Y-113508756D01*
X55373359Y-113223000D01*
X55027930Y-113223000D01*
X55029308Y-113221622D01*
X55277004Y-112623630D01*
X55277004Y-111976370D01*
X55029308Y-111378378D01*
X55027004Y-111376074D01*
X55027004Y-109527924D01*
X55178384Y-109679304D01*
X55776376Y-109927000D01*
X56423636Y-109927000D01*
X57021628Y-109679304D01*
X57479310Y-109221622D01*
X57727006Y-108623630D01*
X57727006Y-107976370D01*
X57479310Y-107378378D01*
X57477006Y-107376074D01*
X57477006Y-76935629D01*
X57503983Y-76800006D01*
X57397112Y-76262727D01*
X57353167Y-76196959D01*
X57092768Y-75807244D01*
X56977790Y-75730418D01*
X39397000Y-58149629D01*
X39397000Y-55427621D01*
X39423977Y-55291999D01*
X39364863Y-54994814D01*
X39317106Y-54754721D01*
X39012762Y-54299238D01*
X38897784Y-54222412D01*
X34901000Y-50225629D01*
X34901000Y-50222370D01*
X34653304Y-49624378D01*
X34195622Y-49166696D01*
X33597630Y-48919000D01*
X33020394Y-48919000D01*
X32879304Y-48578378D01*
X32421622Y-48120696D01*
X31823630Y-47873000D01*
X31176370Y-47873000D01*
X30578378Y-48120696D01*
X30120696Y-48578378D01*
X29877000Y-49166713D01*
X29877000Y-46492371D01*
X31052372Y-45317000D01*
X35276074Y-45317000D01*
X35278378Y-45319304D01*
X35876370Y-45567000D01*
X36523630Y-45567000D01*
X37121622Y-45319304D01*
X37579304Y-44861622D01*
X37827000Y-44263630D01*
X37827000Y-43616370D01*
X37579304Y-43018378D01*
X37121622Y-42560696D01*
X36523630Y-42313000D01*
X35876370Y-42313000D01*
X35278378Y-42560696D01*
X35276074Y-42563000D01*
X30617621Y-42563000D01*
X30481999Y-42536023D01*
X30346377Y-42563000D01*
X29944721Y-42642894D01*
X29489238Y-42947238D01*
X29412412Y-43062216D01*
X27622216Y-44852413D01*
X27507239Y-44929238D01*
X27401826Y-45087000D01*
X27202894Y-45384722D01*
X27096023Y-45922000D01*
X27123001Y-46057628D01*
X27123000Y-50576074D01*
X27120696Y-50578378D01*
X26873000Y-51176370D01*
X26873000Y-51823630D01*
X27120696Y-52421622D01*
X27578378Y-52879304D01*
X27983000Y-53046904D01*
X27983000Y-53364378D01*
X27983001Y-56493625D01*
X27322213Y-57154413D01*
X26688398Y-57788229D01*
X26276213Y-58200413D01*
X26276211Y-58200415D01*
X25282216Y-59194411D01*
X25167238Y-59271237D01*
X24933459Y-59621113D01*
X20847000Y-55534655D01*
X20847000Y-54407838D01*
X22023000Y-54407838D01*
X22023000Y-55592162D01*
X22476221Y-56686335D01*
X23313665Y-57523779D01*
X24407838Y-57977000D01*
X25592162Y-57977000D01*
X26686335Y-57523779D01*
X27523779Y-56686335D01*
X27977000Y-55592162D01*
X27977000Y-54407838D01*
X27523779Y-53313665D01*
X26686335Y-52476221D01*
X25592162Y-52023000D01*
X24407838Y-52023000D01*
X23313665Y-52476221D01*
X22476221Y-53313665D01*
X22023000Y-54407838D01*
X20847000Y-54407838D01*
X20847000Y-47290086D01*
X20880832Y-47119999D01*
X20847000Y-46949912D01*
X20847000Y-46949909D01*
X20746798Y-46446158D01*
X20365097Y-45874903D01*
X20220900Y-45778554D01*
X19100900Y-44658555D01*
X18673841Y-44373202D01*
X18000000Y-44239167D01*
X17326159Y-44373202D01*
X17277000Y-44406049D01*
X17277000Y-42170372D01*
X18160372Y-41287000D01*
X35578660Y-41287000D01*
X35700696Y-41581622D01*
X36158378Y-42039304D01*
X36756370Y-42287000D01*
X37403630Y-42287000D01*
X38001622Y-42039304D01*
X38459304Y-41581622D01*
X38707000Y-40983630D01*
X38707000Y-40336370D01*
X38459304Y-39738378D01*
X38001622Y-39280696D01*
X37403630Y-39033000D01*
X37400371Y-39033000D01*
X37399590Y-39032219D01*
X37322762Y-38917238D01*
X36867279Y-38612894D01*
X36465623Y-38533000D01*
X36330000Y-38506023D01*
X36194377Y-38533000D01*
X17725623Y-38533000D01*
X17590000Y-38506023D01*
X17454377Y-38533000D01*
X17052721Y-38612894D01*
X16597238Y-38917238D01*
X16520414Y-39032213D01*
X15022216Y-40530413D01*
X14907239Y-40607238D01*
X14720148Y-40887239D01*
X14602894Y-41062722D01*
X14496023Y-41600000D01*
X14523001Y-41735628D01*
X14523000Y-46376074D01*
X14520696Y-46378378D01*
X14273000Y-46976370D01*
X14273000Y-47623630D01*
X14520696Y-48221622D01*
X14978378Y-48679304D01*
X15576370Y-48927000D01*
X16223630Y-48927000D01*
X16821622Y-48679304D01*
X17279304Y-48221622D01*
X17393001Y-47947133D01*
X17393000Y-56079909D01*
X17359167Y-56250000D01*
X17393000Y-56420090D01*
X17493202Y-56923841D01*
X17874903Y-57495097D01*
X18019104Y-57591449D01*
X22563001Y-62135347D01*
X22563000Y-68974653D01*
X18524655Y-73013000D01*
X17449909Y-73013000D01*
X16946158Y-73113202D01*
X16374903Y-73494903D01*
X15993202Y-74066158D01*
X15859167Y-74740000D01*
X15993202Y-75413842D01*
X16199775Y-75723000D01*
X16063926Y-75723000D01*
X16061622Y-75720696D01*
X15463630Y-75473000D01*
X14816370Y-75473000D01*
X14218378Y-75720696D01*
X13760696Y-76178378D01*
X13513000Y-76776370D01*
X13513000Y-77423630D01*
X13760696Y-78021622D01*
X14218378Y-78479304D01*
X14316287Y-78519859D01*
X13092216Y-79743931D01*
X12977239Y-79820756D01*
X12805836Y-80077279D01*
X12672894Y-80276240D01*
X12566023Y-80813518D01*
X12593001Y-80949145D01*
X12593000Y-82620899D01*
X11235190Y-83978709D01*
X11013838Y-83647433D01*
X10756785Y-83475675D01*
X10790998Y-83443963D01*
X11029977Y-82929660D01*
X10908656Y-82699770D01*
X9590501Y-82699770D01*
X9590501Y-82719770D01*
X9336501Y-82719770D01*
X9336501Y-82699770D01*
X8018346Y-82699770D01*
X7897025Y-82929660D01*
X8136004Y-83443963D01*
X8170217Y-83475675D01*
X7913164Y-83647433D01*
X7476208Y-84301383D01*
X7322770Y-85072770D01*
X5867001Y-85072770D01*
X5867001Y-62170372D01*
X7884412Y-64187784D01*
X7961238Y-64302762D01*
X8402758Y-64597776D01*
X8416721Y-64607106D01*
X8954000Y-64713977D01*
X9089623Y-64687000D01*
X18066074Y-64687000D01*
X18068378Y-64689304D01*
X18666370Y-64937000D01*
X18922988Y-64937000D01*
X18922988Y-65394666D01*
X18529099Y-65788555D01*
X18529100Y-65788555D01*
X17954655Y-66363000D01*
X14151321Y-66363000D01*
X13981230Y-66329167D01*
X13460427Y-66432761D01*
X13307389Y-66463202D01*
X12736134Y-66844903D01*
X12639783Y-66989102D01*
X8362603Y-71266283D01*
X8218405Y-71362633D01*
X8113757Y-71519250D01*
X7836703Y-71933889D01*
X7702668Y-72607730D01*
X7736502Y-72777825D01*
X7736501Y-78502482D01*
X7445921Y-78937366D01*
X7339422Y-79472770D01*
X7339422Y-80672770D01*
X7445921Y-81208174D01*
X7749203Y-81662068D01*
X8058372Y-81868648D01*
X7897025Y-82215880D01*
X8018346Y-82445770D01*
X9336501Y-82445770D01*
X9336501Y-82425770D01*
X9590501Y-82425770D01*
X9590501Y-82445770D01*
X10908656Y-82445770D01*
X11029977Y-82215880D01*
X10868630Y-81868648D01*
X11177799Y-81662068D01*
X11481081Y-81208174D01*
X11587580Y-80672770D01*
X11587580Y-79472770D01*
X11481081Y-78937366D01*
X11190501Y-78502482D01*
X11190501Y-73323075D01*
X14696577Y-69817000D01*
X18499910Y-69817000D01*
X18670000Y-69850833D01*
X18840090Y-69817000D01*
X18840091Y-69817000D01*
X19343842Y-69716798D01*
X19915097Y-69335097D01*
X20011450Y-69190895D01*
X21750886Y-67451459D01*
X21895085Y-67355109D01*
X22276786Y-66783854D01*
X22376988Y-66280103D01*
X22376988Y-66280102D01*
X22410821Y-66110012D01*
X22376988Y-65939922D01*
X22376988Y-63008307D01*
X22410821Y-62838217D01*
X22276786Y-62164375D01*
X21991434Y-61737316D01*
X21895085Y-61593120D01*
X21750889Y-61496771D01*
X17327000Y-57072884D01*
X17327000Y-52770085D01*
X17360832Y-52599999D01*
X17327000Y-52429914D01*
X17327000Y-52429909D01*
X17226798Y-51926158D01*
X16845097Y-51354903D01*
X16700902Y-51258555D01*
X13395812Y-47953467D01*
X13395812Y-30142533D01*
X17538346Y-26000000D01*
X21739167Y-26000000D01*
X21873202Y-26673841D01*
X22158555Y-27100900D01*
X24773001Y-29715347D01*
X24773001Y-30429907D01*
X24773000Y-30429910D01*
X24773000Y-31829910D01*
X24773001Y-33884654D01*
X24558555Y-34099100D01*
X24273202Y-34526159D01*
X24139167Y-35200000D01*
X24273202Y-35873841D01*
X24654904Y-36445096D01*
X25226159Y-36826798D01*
X25900000Y-36960833D01*
X26573841Y-36826798D01*
X27000900Y-36541445D01*
X27600898Y-35941448D01*
X27745097Y-35845097D01*
X28126798Y-35273842D01*
X28227000Y-34770091D01*
X28227000Y-34770087D01*
X28260832Y-34600001D01*
X28227000Y-34429914D01*
X28227000Y-29170090D01*
X28260833Y-29000000D01*
X28126798Y-28326158D01*
X27841446Y-27899099D01*
X27745097Y-27754903D01*
X27600901Y-27658554D01*
X24600900Y-24658555D01*
X24173841Y-24373202D01*
X23500000Y-24239167D01*
X22826159Y-24373202D01*
X22254904Y-24754904D01*
X21873202Y-25326159D01*
X21739167Y-26000000D01*
X17538346Y-26000000D01*
X17991347Y-25547000D01*
X20549910Y-25547000D01*
X20720000Y-25580833D01*
X20890090Y-25547000D01*
X20890091Y-25547000D01*
X21393842Y-25446798D01*
X21965097Y-25065097D01*
X22061449Y-24920896D01*
X22975346Y-24007000D01*
X28320091Y-24007000D01*
X28823842Y-23906798D01*
X29395097Y-23525097D01*
X29776798Y-22953842D01*
X29910833Y-22280000D01*
X29776798Y-21606158D01*
X29395097Y-21034903D01*
X28823842Y-20653202D01*
X28320091Y-20553000D01*
X22430090Y-20553000D01*
X22260000Y-20519167D01*
X22089909Y-20553000D01*
X21586158Y-20653202D01*
X21014903Y-21034903D01*
X20918552Y-21179102D01*
X20004655Y-22093000D01*
X19003000Y-22093000D01*
X19003000Y-9407838D01*
X22023000Y-9407838D01*
X22023000Y-10592162D01*
X22476221Y-11686335D01*
X23313665Y-12523779D01*
X24407838Y-12977000D01*
X25592162Y-12977000D01*
X26686335Y-12523779D01*
X27523779Y-11686335D01*
X27977000Y-10592162D01*
X27977000Y-9407838D01*
X27523779Y-8313665D01*
X26686335Y-7476221D01*
X25592162Y-7023000D01*
X24407838Y-7023000D01*
X23313665Y-7476221D01*
X22476221Y-8313665D01*
X22023000Y-9407838D01*
X19003000Y-9407838D01*
X19003000Y-5739345D01*
X20315347Y-4427000D01*
X32714654Y-4427000D01*
X33381500Y-5093847D01*
X33381501Y-6109465D01*
X33371387Y-6102707D01*
X32600000Y-5949269D01*
X31828614Y-6102707D01*
X31174663Y-6539663D01*
X30737707Y-7193613D01*
X30623000Y-7770286D01*
X30623000Y-8409713D01*
X30737707Y-8986386D01*
X31174663Y-9640337D01*
X31828613Y-10077293D01*
X32600000Y-10230731D01*
X33371386Y-10077293D01*
X33381501Y-10070535D01*
X33381501Y-10376153D01*
X32664653Y-11093001D01*
X31210084Y-11093001D01*
X31039998Y-11059169D01*
X30869913Y-11093001D01*
X30869908Y-11093001D01*
X30366157Y-11193203D01*
X29794902Y-11574904D01*
X29698551Y-11719104D01*
X29198555Y-12219100D01*
X28913202Y-12646159D01*
X28779167Y-13320000D01*
X28913202Y-13993841D01*
X29294904Y-14565096D01*
X29866159Y-14946798D01*
X30540000Y-15080833D01*
X31213841Y-14946798D01*
X31640900Y-14661445D01*
X31755344Y-14547001D01*
X33209909Y-14547001D01*
X33379999Y-14580834D01*
X33550089Y-14547001D01*
X33550090Y-14547001D01*
X34053841Y-14446799D01*
X34625096Y-14065098D01*
X34721448Y-13920897D01*
X36209401Y-12432946D01*
X36353597Y-12336597D01*
X36463435Y-12172214D01*
X36735298Y-11765342D01*
X36806850Y-11405623D01*
X36835500Y-11261591D01*
X36869333Y-11091500D01*
X36835500Y-10921410D01*
X36835500Y-9700000D01*
X37314250Y-9700000D01*
X37473000Y-9541250D01*
X37473000Y-8217000D01*
X37453000Y-8217000D01*
X37453000Y-7963000D01*
X37473000Y-7963000D01*
X37473000Y-6638750D01*
X37314250Y-6480000D01*
X36835500Y-6480000D01*
X36835500Y-4754378D01*
X37737879Y-3852000D01*
X38468974Y-3852000D01*
X38498000Y-3997925D01*
X38498000Y-6480000D01*
X37885750Y-6480000D01*
X37727000Y-6638750D01*
X37727000Y-7963000D01*
X37747000Y-7963000D01*
X37747000Y-8217000D01*
X37727000Y-8217000D01*
X37727000Y-9541250D01*
X37885750Y-9700000D01*
X38498001Y-9700000D01*
X38498001Y-14722067D01*
X38498000Y-14722072D01*
X38498001Y-17667851D01*
X37377853Y-18788000D01*
X34275407Y-18788000D01*
X33973630Y-18663000D01*
X33326370Y-18663000D01*
X32728378Y-18910696D01*
X32270696Y-19368378D01*
X32023000Y-19966370D01*
X32023000Y-20613630D01*
X32270696Y-21211622D01*
X32728378Y-21669304D01*
X33326370Y-21917000D01*
X33973630Y-21917000D01*
X34275407Y-21792000D01*
X36977852Y-21792000D01*
X37548000Y-22362148D01*
X37548000Y-23332075D01*
X37518576Y-23480000D01*
X37548000Y-23627925D01*
X37548000Y-23627929D01*
X37585415Y-23816023D01*
X37635148Y-24066050D01*
X37691519Y-24150415D01*
X37967120Y-24562881D01*
X38092530Y-24646677D01*
X39785696Y-26339844D01*
X39910696Y-26641622D01*
X40368378Y-27099304D01*
X40670157Y-27224305D01*
X41644001Y-28198149D01*
X41644000Y-30092070D01*
X41644000Y-30602071D01*
X41614575Y-30750000D01*
X41644000Y-30897929D01*
X41644000Y-31147361D01*
X41618000Y-31278072D01*
X41618000Y-31278075D01*
X41588576Y-31426000D01*
X41618000Y-31573925D01*
X41618000Y-31954593D01*
X41493000Y-32256370D01*
X41493000Y-32903630D01*
X41644000Y-33268178D01*
X41644001Y-37368780D01*
X41389005Y-37474403D01*
X40931323Y-37932085D01*
X40683627Y-38530077D01*
X40683627Y-39177337D01*
X40931323Y-39775329D01*
X41389005Y-40233011D01*
X41508001Y-40282301D01*
X41508000Y-42832071D01*
X41508000Y-43772075D01*
X41478576Y-43920000D01*
X41508000Y-44067925D01*
X41508000Y-44067929D01*
X41595148Y-44506051D01*
X41927120Y-45002881D01*
X42052530Y-45086677D01*
X42186000Y-45220147D01*
X42186001Y-50682591D01*
X42061000Y-50984370D01*
X42061000Y-51631630D01*
X42308696Y-52229622D01*
X42766378Y-52687304D01*
X43364370Y-52935000D01*
X44011630Y-52935000D01*
X44609622Y-52687304D01*
X45067304Y-52229622D01*
X45315000Y-51631630D01*
X45315000Y-50984370D01*
X45190000Y-50682593D01*
X45190000Y-44745929D01*
X45219425Y-44598000D01*
X45102852Y-44011949D01*
X44950294Y-43783630D01*
X44770881Y-43515119D01*
X44645470Y-43431322D01*
X44512000Y-43297852D01*
X44512000Y-39701009D01*
X44541425Y-39553080D01*
X44424852Y-38967029D01*
X44371697Y-38887476D01*
X44560852Y-38604385D01*
X44648000Y-38166263D01*
X44677425Y-38018334D01*
X44648000Y-37870405D01*
X44648000Y-33142638D01*
X44747000Y-32903630D01*
X44747000Y-32256370D01*
X44745190Y-32252000D01*
X44952075Y-32252000D01*
X45100000Y-32281424D01*
X45247925Y-32252000D01*
X45247929Y-32252000D01*
X45686051Y-32164852D01*
X45690319Y-32162000D01*
X52308000Y-32162000D01*
X52308001Y-40378265D01*
X52278576Y-40526195D01*
X52395148Y-41112245D01*
X52455603Y-41202722D01*
X52727120Y-41609076D01*
X52852531Y-41692873D01*
X53056676Y-41897018D01*
X53181677Y-42198798D01*
X53639359Y-42656480D01*
X54237351Y-42904176D01*
X54509178Y-42904176D01*
X54413000Y-43136370D01*
X54413000Y-43253000D01*
X53270066Y-43253000D01*
X53212762Y-43167238D01*
X52757279Y-42862894D01*
X52355623Y-42783000D01*
X52220000Y-42756023D01*
X52084377Y-42783000D01*
X47853926Y-42783000D01*
X47851622Y-42780696D01*
X47253630Y-42533000D01*
X46606370Y-42533000D01*
X46008378Y-42780696D01*
X45550696Y-43238378D01*
X45303000Y-43836370D01*
X45303000Y-44483630D01*
X45550696Y-45081622D01*
X46008378Y-45539304D01*
X46606370Y-45787000D01*
X47253630Y-45787000D01*
X47747661Y-45582366D01*
X47646490Y-45826614D01*
X47646490Y-45829872D01*
X46793949Y-46682414D01*
X45925308Y-47551055D01*
X45810330Y-47627881D01*
X45670415Y-47837279D01*
X45505985Y-48083365D01*
X45399114Y-48620643D01*
X45426092Y-48756271D01*
X45426091Y-52009695D01*
X45407418Y-52222470D01*
X45467179Y-52412186D01*
X45505985Y-52607278D01*
X45548834Y-52671405D01*
X45572005Y-52744965D01*
X45699819Y-52897371D01*
X45810329Y-53062761D01*
X45987933Y-53181433D01*
X46209330Y-53359220D01*
X46372696Y-53753622D01*
X46830378Y-54211304D01*
X47428370Y-54459000D01*
X48075630Y-54459000D01*
X48199146Y-54407838D01*
X52023000Y-54407838D01*
X52023000Y-55592162D01*
X52476221Y-56686335D01*
X53313665Y-57523779D01*
X54407838Y-57977000D01*
X55592162Y-57977000D01*
X56686335Y-57523779D01*
X57523779Y-56686335D01*
X57977000Y-55592162D01*
X57977000Y-54407838D01*
X57523779Y-53313665D01*
X56686335Y-52476221D01*
X55592162Y-52023000D01*
X54407838Y-52023000D01*
X53313665Y-52476221D01*
X52476221Y-53313665D01*
X52023000Y-54407838D01*
X48199146Y-54407838D01*
X48673622Y-54211304D01*
X49131304Y-53753622D01*
X49379000Y-53155630D01*
X49379000Y-52508370D01*
X49131304Y-51910378D01*
X48673622Y-51452696D01*
X48180091Y-51248269D01*
X48180091Y-49191014D01*
X48741320Y-48629785D01*
X49593862Y-47777244D01*
X49597120Y-47777244D01*
X50195112Y-47529548D01*
X50652794Y-47071866D01*
X50900490Y-46473874D01*
X50900490Y-45826614D01*
X50780528Y-45537000D01*
X51639934Y-45537000D01*
X51697238Y-45622762D01*
X52152721Y-45927106D01*
X52554377Y-46007000D01*
X52689999Y-46033977D01*
X52825621Y-46007000D01*
X61764387Y-46007000D01*
X61900010Y-46033977D01*
X62035633Y-46007000D01*
X62437289Y-45927106D01*
X62892772Y-45622762D01*
X62969600Y-45507781D01*
X82450382Y-26027000D01*
X86064377Y-26027000D01*
X86200000Y-26053977D01*
X86335623Y-26027000D01*
X86737279Y-25947106D01*
X87192762Y-25642762D01*
X87269589Y-25527782D01*
X89807786Y-22989586D01*
X89922761Y-22912762D01*
X90227106Y-22457279D01*
X90304139Y-22070005D01*
X90333977Y-21920001D01*
X90307000Y-21784378D01*
X90307000Y-19710381D01*
X91280372Y-18737010D01*
X91283630Y-18737010D01*
X91881622Y-18489314D01*
X92339304Y-18031632D01*
X92587000Y-17433640D01*
X92587000Y-16786380D01*
X92339304Y-16188388D01*
X91881622Y-15730706D01*
X91283630Y-15483010D01*
X90636370Y-15483010D01*
X90038378Y-15730706D01*
X89580696Y-16188388D01*
X89333000Y-16786380D01*
X89333000Y-16789638D01*
X88052216Y-18070423D01*
X87937239Y-18147248D01*
X87768267Y-18400132D01*
X87632894Y-18602732D01*
X87526023Y-19140010D01*
X87553001Y-19275637D01*
X87553000Y-21349628D01*
X85629629Y-23273000D01*
X82015633Y-23273000D01*
X81880010Y-23246023D01*
X81744387Y-23273000D01*
X81342731Y-23352894D01*
X80887248Y-23657238D01*
X80810422Y-23772216D01*
X61329639Y-43253000D01*
X60034372Y-43253000D01*
X60477786Y-42809586D01*
X60592761Y-42732762D01*
X60897106Y-42277279D01*
X60977000Y-41875623D01*
X60977000Y-41875622D01*
X61003977Y-41740001D01*
X60977000Y-41604379D01*
X60977000Y-35053926D01*
X60979304Y-35051622D01*
X61227000Y-34453630D01*
X61227000Y-33806370D01*
X60979304Y-33208378D01*
X60950926Y-33180000D01*
X61309304Y-32821622D01*
X61557000Y-32223630D01*
X61557000Y-31796370D01*
X61883000Y-31796370D01*
X61883000Y-32443630D01*
X62130696Y-33041622D01*
X62588378Y-33499304D01*
X63186370Y-33747000D01*
X63833630Y-33747000D01*
X64431622Y-33499304D01*
X64889304Y-33041622D01*
X65137000Y-32443630D01*
X65137000Y-31796370D01*
X64889304Y-31198378D01*
X64837000Y-31146074D01*
X64837000Y-27909660D01*
X70799662Y-21947000D01*
X70873630Y-21947000D01*
X71471622Y-21699304D01*
X71929304Y-21241622D01*
X72177000Y-20643630D01*
X72177000Y-19996370D01*
X71929304Y-19398378D01*
X71471622Y-18940696D01*
X70873630Y-18693000D01*
X70226370Y-18693000D01*
X69628378Y-18940696D01*
X69170696Y-19398378D01*
X68923000Y-19996370D01*
X68923000Y-20070338D01*
X62664086Y-26329254D01*
X62553288Y-26403287D01*
X62479255Y-26514085D01*
X62479254Y-26514086D01*
X62259994Y-26842231D01*
X62230611Y-26989949D01*
X62183000Y-27229304D01*
X62183000Y-27229308D01*
X62157004Y-27360000D01*
X62183000Y-27490692D01*
X62183000Y-29140695D01*
X62183001Y-29140700D01*
X62183000Y-31146074D01*
X62130696Y-31198378D01*
X61883000Y-31796370D01*
X61557000Y-31796370D01*
X61557000Y-31576370D01*
X61309304Y-30978378D01*
X60851622Y-30520696D01*
X60253630Y-30273000D01*
X59606370Y-30273000D01*
X59008378Y-30520696D01*
X58550696Y-30978378D01*
X58303000Y-31576370D01*
X58303000Y-31579628D01*
X56802216Y-33080413D01*
X56687239Y-33157238D01*
X56382894Y-33612721D01*
X56353433Y-33760833D01*
X56276023Y-34150000D01*
X56303000Y-34285623D01*
X56303000Y-35004378D01*
X56303001Y-40956073D01*
X56187981Y-41071093D01*
X56187981Y-40953546D01*
X55940285Y-40355554D01*
X55482603Y-39897872D01*
X55312000Y-39827206D01*
X55312000Y-31285407D01*
X55437000Y-30983630D01*
X55437000Y-30336370D01*
X55189304Y-29738378D01*
X54731622Y-29280696D01*
X54133630Y-29033000D01*
X53884124Y-29033000D01*
X53917000Y-28953630D01*
X53917000Y-28306370D01*
X53669304Y-27708378D01*
X53297926Y-27337000D01*
X54509627Y-27337000D01*
X56523000Y-29350374D01*
X56523000Y-29353632D01*
X56770696Y-29951624D01*
X57228378Y-30409306D01*
X57826370Y-30657002D01*
X58473630Y-30657002D01*
X59071622Y-30409306D01*
X59529304Y-29951624D01*
X59777000Y-29353632D01*
X59777000Y-28706372D01*
X59529304Y-28108380D01*
X59071622Y-27650698D01*
X58473630Y-27403002D01*
X58470372Y-27403002D01*
X56149587Y-25082218D01*
X56072760Y-24967238D01*
X55617277Y-24662894D01*
X55215621Y-24583000D01*
X55079998Y-24556023D01*
X54944375Y-24583000D01*
X50160372Y-24583000D01*
X49677000Y-24099629D01*
X49677000Y-13925621D01*
X49703977Y-13789999D01*
X49663653Y-13587278D01*
X49627961Y-13407838D01*
X52023000Y-13407838D01*
X52023000Y-14592162D01*
X52476221Y-15686335D01*
X53313665Y-16523779D01*
X54407838Y-16977000D01*
X55592162Y-16977000D01*
X56686335Y-16523779D01*
X57523779Y-15686335D01*
X57977000Y-14592162D01*
X57977000Y-13407838D01*
X57523779Y-12313665D01*
X56686335Y-11476221D01*
X55592162Y-11023000D01*
X54407838Y-11023000D01*
X53313665Y-11476221D01*
X52476221Y-12313665D01*
X52023000Y-13407838D01*
X49627961Y-13407838D01*
X49597106Y-13252721D01*
X49292761Y-12797238D01*
X49177786Y-12720414D01*
X45956768Y-9499397D01*
X45995385Y-9483402D01*
X46030931Y-9450492D01*
X46146519Y-9623481D01*
X46850086Y-10093590D01*
X47470511Y-10217000D01*
X47889489Y-10217000D01*
X48509914Y-10093590D01*
X48950000Y-9799534D01*
X49390086Y-10093590D01*
X50010511Y-10217000D01*
X50429489Y-10217000D01*
X51049914Y-10093590D01*
X51753481Y-9623481D01*
X52223590Y-8919914D01*
X52388670Y-8090000D01*
X52223590Y-7260086D01*
X51929534Y-6820000D01*
X52223590Y-6379914D01*
X52388670Y-5550000D01*
X52223590Y-4720086D01*
X51753481Y-4016519D01*
X51723749Y-3996653D01*
X51694976Y-3852000D01*
X54924516Y-3852000D01*
X54873000Y-3976370D01*
X54873000Y-4623630D01*
X55120696Y-5221622D01*
X55578378Y-5679304D01*
X56176370Y-5927000D01*
X56179628Y-5927000D01*
X56430851Y-6178223D01*
X56130696Y-6478378D01*
X55883000Y-7076370D01*
X55883000Y-7723630D01*
X56130696Y-8321622D01*
X56588378Y-8779304D01*
X57186370Y-9027000D01*
X57833630Y-9027000D01*
X58431622Y-8779304D01*
X58889304Y-8321622D01*
X59094183Y-7827000D01*
X63614377Y-7827000D01*
X63750000Y-7853977D01*
X63885623Y-7827000D01*
X64287279Y-7747106D01*
X64742762Y-7442762D01*
X64819589Y-7327782D01*
X65220371Y-6927000D01*
X65223630Y-6927000D01*
X65821622Y-6679304D01*
X66279304Y-6221622D01*
X66527000Y-5623630D01*
X66527000Y-4976370D01*
X66279304Y-4378378D01*
X65821622Y-3920696D01*
X65655775Y-3852000D01*
X71937852Y-3852000D01*
X72128001Y-4042149D01*
X72128000Y-7322071D01*
X72128000Y-7322072D01*
X72128001Y-10512070D01*
X72098576Y-10660000D01*
X72215148Y-11246050D01*
X72215149Y-11246051D01*
X72547120Y-11742881D01*
X72672530Y-11826677D01*
X72808853Y-11963000D01*
X62488515Y-11963000D01*
X62352893Y-11936023D01*
X62217271Y-11963000D01*
X61815615Y-12042894D01*
X61360132Y-12347238D01*
X61283306Y-12462216D01*
X59175111Y-14570412D01*
X59175108Y-14570414D01*
X55422216Y-18323307D01*
X55307239Y-18400132D01*
X55002894Y-18855615D01*
X54965427Y-19043977D01*
X54943161Y-19155913D01*
X54920696Y-19178378D01*
X54673000Y-19776370D01*
X54673000Y-20423630D01*
X54920696Y-21021622D01*
X55378378Y-21479304D01*
X55976370Y-21727000D01*
X56623630Y-21727000D01*
X57221622Y-21479304D01*
X57679304Y-21021622D01*
X57927000Y-20423630D01*
X57927000Y-19776370D01*
X57908517Y-19731748D01*
X61122480Y-16517786D01*
X61122482Y-16517783D01*
X62923266Y-14717000D01*
X80862680Y-14717000D01*
X80575767Y-14908709D01*
X80498941Y-15023687D01*
X79259629Y-16263000D01*
X75623926Y-16263000D01*
X75621622Y-16260696D01*
X75023630Y-16013000D01*
X74376370Y-16013000D01*
X73778378Y-16260696D01*
X73320696Y-16718378D01*
X73073000Y-17316370D01*
X73073000Y-17963630D01*
X73320696Y-18561622D01*
X73778378Y-19019304D01*
X74376370Y-19267000D01*
X75023630Y-19267000D01*
X75621622Y-19019304D01*
X75623926Y-19017000D01*
X79694377Y-19017000D01*
X79830000Y-19043977D01*
X79965623Y-19017000D01*
X80367279Y-18937106D01*
X80822762Y-18632762D01*
X80899589Y-18517782D01*
X82138901Y-17278471D01*
X84640754Y-17278471D01*
X84659237Y-17323092D01*
X85116919Y-17780774D01*
X85714911Y-18028470D01*
X86362171Y-18028470D01*
X86960163Y-17780774D01*
X87417845Y-17323092D01*
X87665541Y-16725100D01*
X87665541Y-16077840D01*
X87417845Y-15479848D01*
X86960163Y-15022166D01*
X86362171Y-14774470D01*
X86330401Y-14774470D01*
X86244391Y-14717000D01*
X118424377Y-14717000D01*
X118560000Y-14743977D01*
X118695623Y-14717000D01*
X119097279Y-14637106D01*
X119365979Y-14457566D01*
X187273000Y-14457566D01*
X187273000Y-15542434D01*
X187688161Y-16544721D01*
X188455279Y-17311839D01*
X189457566Y-17727000D01*
X190542434Y-17727000D01*
X191544721Y-17311839D01*
X192311839Y-16544721D01*
X192727000Y-15542434D01*
X192727000Y-14457566D01*
X192311839Y-13455279D01*
X191544721Y-12688161D01*
X190542434Y-12273000D01*
X189457566Y-12273000D01*
X188455279Y-12688161D01*
X187688161Y-13455279D01*
X187273000Y-14457566D01*
X119365979Y-14457566D01*
X119552762Y-14332762D01*
X119629589Y-14217782D01*
X120977789Y-12869584D01*
X121092761Y-12792762D01*
X121169583Y-12677790D01*
X121169586Y-12677787D01*
X121397106Y-12337279D01*
X121503977Y-11800000D01*
X121477000Y-11664377D01*
X121477000Y-9946151D01*
X121689298Y-9804298D01*
X121992580Y-9350404D01*
X122099079Y-8815000D01*
X122099079Y-7365000D01*
X121992580Y-6829596D01*
X121689298Y-6375702D01*
X121235404Y-6072420D01*
X120864831Y-5998708D01*
X185473000Y-5998708D01*
X185473000Y-7501292D01*
X186048014Y-8889499D01*
X187110501Y-9951986D01*
X188498708Y-10527000D01*
X190001292Y-10527000D01*
X191389499Y-9951986D01*
X192451986Y-8889499D01*
X193027000Y-7501292D01*
X193027000Y-5998708D01*
X192451986Y-4610501D01*
X191389499Y-3548014D01*
X190001292Y-2973000D01*
X188498708Y-2973000D01*
X187110501Y-3548014D01*
X186048014Y-4610501D01*
X185473000Y-5998708D01*
X120864831Y-5998708D01*
X120700000Y-5965921D01*
X119500000Y-5965921D01*
X118964596Y-6072420D01*
X118510702Y-6375702D01*
X118304122Y-6684871D01*
X117956890Y-6523524D01*
X117727000Y-6644845D01*
X117727000Y-7963000D01*
X117747000Y-7963000D01*
X117747000Y-8217000D01*
X117727000Y-8217000D01*
X117727000Y-9535155D01*
X117956890Y-9656476D01*
X118304122Y-9495129D01*
X118510702Y-9804298D01*
X118723000Y-9946151D01*
X118723000Y-11229628D01*
X117989628Y-11963000D01*
X90667000Y-11963000D01*
X90667000Y-11606370D01*
X90419304Y-11008378D01*
X89961622Y-10550696D01*
X89363630Y-10303000D01*
X88716370Y-10303000D01*
X88414593Y-10428000D01*
X87513941Y-10428000D01*
X87727000Y-9913630D01*
X87727000Y-9266370D01*
X87479304Y-8668378D01*
X87477000Y-8666074D01*
X87477000Y-6420372D01*
X87550372Y-6347000D01*
X89213004Y-6347000D01*
X88924663Y-6539663D01*
X88487707Y-7193613D01*
X88373000Y-7770286D01*
X88373000Y-8409713D01*
X88487707Y-8986386D01*
X88924663Y-9640337D01*
X89578613Y-10077293D01*
X90350000Y-10230731D01*
X91121386Y-10077293D01*
X91600000Y-9757494D01*
X92078613Y-10077293D01*
X92850000Y-10230731D01*
X93621386Y-10077293D01*
X94100000Y-9757494D01*
X94578613Y-10077293D01*
X95350000Y-10230731D01*
X96121386Y-10077293D01*
X96757854Y-9652019D01*
X96873691Y-9700000D01*
X97564250Y-9700000D01*
X97723000Y-9541250D01*
X97723000Y-8217000D01*
X97977000Y-8217000D01*
X97977000Y-9541250D01*
X98135750Y-9700000D01*
X98826309Y-9700000D01*
X99059698Y-9603327D01*
X99238327Y-9424699D01*
X99335000Y-9191310D01*
X99335000Y-8375750D01*
X99176250Y-8217000D01*
X97977000Y-8217000D01*
X97723000Y-8217000D01*
X97703000Y-8217000D01*
X97703000Y-7963000D01*
X97723000Y-7963000D01*
X97723000Y-6638750D01*
X97977000Y-6638750D01*
X97977000Y-7963000D01*
X99176250Y-7963000D01*
X99335000Y-7804250D01*
X99335000Y-6988690D01*
X99238327Y-6755301D01*
X99059698Y-6576673D01*
X98826309Y-6480000D01*
X98135750Y-6480000D01*
X97977000Y-6638750D01*
X97723000Y-6638750D01*
X97564250Y-6480000D01*
X96977000Y-6480000D01*
X96977000Y-6160242D01*
X97008874Y-6000000D01*
X97008618Y-5998708D01*
X101973000Y-5998708D01*
X101973000Y-7501292D01*
X102548014Y-8889499D01*
X103610501Y-9951986D01*
X104998708Y-10527000D01*
X106501292Y-10527000D01*
X107889499Y-9951986D01*
X108951986Y-8889499D01*
X109415579Y-7770286D01*
X113123000Y-7770286D01*
X113123000Y-8409713D01*
X113237707Y-8986386D01*
X113674663Y-9640337D01*
X114328613Y-10077293D01*
X115100000Y-10230731D01*
X115871386Y-10077293D01*
X116525337Y-9640337D01*
X116697095Y-9383284D01*
X116728807Y-9417497D01*
X117243110Y-9656476D01*
X117473000Y-9535155D01*
X117473000Y-8217000D01*
X117453000Y-8217000D01*
X117453000Y-7963000D01*
X117473000Y-7963000D01*
X117473000Y-6644845D01*
X117243110Y-6523524D01*
X116728807Y-6762503D01*
X116697095Y-6796717D01*
X116525337Y-6539663D01*
X115871387Y-6102707D01*
X115100000Y-5949269D01*
X114328614Y-6102707D01*
X113674663Y-6539663D01*
X113237707Y-7193613D01*
X113123000Y-7770286D01*
X109415579Y-7770286D01*
X109527000Y-7501292D01*
X109527000Y-5998708D01*
X108951986Y-4610501D01*
X107889499Y-3548014D01*
X106501292Y-2973000D01*
X104998708Y-2973000D01*
X103610501Y-3548014D01*
X102548014Y-4610501D01*
X101973000Y-5998708D01*
X97008618Y-5998708D01*
X96882600Y-5365176D01*
X96613771Y-4962845D01*
X96613770Y-4962844D01*
X96523001Y-4826999D01*
X96387156Y-4736230D01*
X94413773Y-2762849D01*
X94323001Y-2626999D01*
X93784824Y-2267400D01*
X93310242Y-2173000D01*
X93310238Y-2173000D01*
X93150000Y-2141127D01*
X92989762Y-2173000D01*
X81400237Y-2173000D01*
X81239999Y-2141127D01*
X81079761Y-2173000D01*
X81079758Y-2173000D01*
X80605176Y-2267400D01*
X80066999Y-2626999D01*
X79976228Y-2762847D01*
X78062849Y-4676227D01*
X77926999Y-4766999D01*
X77567400Y-5305177D01*
X77473000Y-5779759D01*
X77473000Y-5779762D01*
X77441127Y-5940000D01*
X77473000Y-6100238D01*
X77473000Y-6816472D01*
X77237707Y-7168613D01*
X77123000Y-7745286D01*
X77123000Y-8434713D01*
X77237707Y-9011386D01*
X77674663Y-9665337D01*
X78328613Y-10102293D01*
X79100000Y-10255731D01*
X79871386Y-10102293D01*
X80507854Y-9677019D01*
X80623691Y-9725000D01*
X81314250Y-9725000D01*
X81473000Y-9566250D01*
X81473000Y-8217000D01*
X81727000Y-8217000D01*
X81727000Y-9566250D01*
X81885750Y-9725000D01*
X82576309Y-9725000D01*
X82809698Y-9628327D01*
X82988327Y-9449699D01*
X83085000Y-9216310D01*
X83085000Y-8375750D01*
X82926250Y-8217000D01*
X81727000Y-8217000D01*
X81473000Y-8217000D01*
X81453000Y-8217000D01*
X81453000Y-7963000D01*
X81473000Y-7963000D01*
X81473000Y-6613750D01*
X81727000Y-6613750D01*
X81727000Y-7963000D01*
X82926250Y-7963000D01*
X83085000Y-7804250D01*
X83085000Y-6963690D01*
X82988327Y-6730301D01*
X82809698Y-6551673D01*
X82576309Y-6455000D01*
X81885750Y-6455000D01*
X81727000Y-6613750D01*
X81473000Y-6613750D01*
X81314250Y-6455000D01*
X80885924Y-6455000D01*
X81913925Y-5427000D01*
X84780163Y-5427000D01*
X84696023Y-5850000D01*
X84723001Y-5985628D01*
X84723000Y-8666074D01*
X84720696Y-8668378D01*
X84473000Y-9266370D01*
X84473000Y-9913630D01*
X84686059Y-10428000D01*
X83917923Y-10428000D01*
X83769999Y-10398576D01*
X83622075Y-10428000D01*
X83622071Y-10428000D01*
X83571798Y-10438000D01*
X75674402Y-10438000D01*
X75431559Y-10337411D01*
X75132000Y-10037852D01*
X75132000Y-3567929D01*
X75161425Y-3420000D01*
X75044852Y-2833949D01*
X74796676Y-2462527D01*
X74712881Y-2337119D01*
X74587472Y-2253324D01*
X73961148Y-1627000D01*
X194927539Y-1627000D01*
X195596162Y-1686673D01*
G36*
X54723007Y-77370379D02*
X54723007Y-91977330D01*
X54642766Y-91857242D01*
X54527788Y-91780416D01*
X51967000Y-89219629D01*
X51967000Y-87982408D01*
X52026370Y-88007000D01*
X52673630Y-88007000D01*
X53271622Y-87759304D01*
X53729304Y-87301622D01*
X53977000Y-86703630D01*
X53977000Y-86056370D01*
X53729304Y-85458378D01*
X53727000Y-85456074D01*
X53727000Y-76374372D01*
X54723007Y-77370379D01*
X54723007Y-77370379D01*
G37*
X54723007Y-77370379D02*
X54723007Y-91977330D01*
X54642766Y-91857242D01*
X54527788Y-91780416D01*
X51967000Y-89219629D01*
X51967000Y-87982408D01*
X52026370Y-88007000D01*
X52673630Y-88007000D01*
X53271622Y-87759304D01*
X53729304Y-87301622D01*
X53977000Y-86703630D01*
X53977000Y-86056370D01*
X53729304Y-85458378D01*
X53727000Y-85456074D01*
X53727000Y-76374372D01*
X54723007Y-77370379D01*
G36*
X22970106Y-83777478D02*
X22970106Y-84404378D01*
X22970107Y-88012521D01*
X19786859Y-91195770D01*
X11215853Y-91195770D01*
X11450794Y-90844157D01*
X11604232Y-90072770D01*
X11592890Y-90015752D01*
X16117786Y-85490857D01*
X16232761Y-85414033D01*
X16537106Y-84958550D01*
X16617000Y-84556894D01*
X16617000Y-84556893D01*
X16643977Y-84421271D01*
X16617000Y-84285648D01*
X16617000Y-83596723D01*
X17076370Y-83787000D01*
X17723630Y-83787000D01*
X18321622Y-83539304D01*
X18323926Y-83537000D01*
X22729629Y-83537000D01*
X22970106Y-83777478D01*
X22970106Y-83777478D01*
G37*
X22970106Y-83777478D02*
X22970106Y-84404378D01*
X22970107Y-88012521D01*
X19786859Y-91195770D01*
X11215853Y-91195770D01*
X11450794Y-90844157D01*
X11604232Y-90072770D01*
X11592890Y-90015752D01*
X16117786Y-85490857D01*
X16232761Y-85414033D01*
X16537106Y-84958550D01*
X16617000Y-84556894D01*
X16617000Y-84556893D01*
X16643977Y-84421271D01*
X16617000Y-84285648D01*
X16617000Y-83596723D01*
X17076370Y-83787000D01*
X17723630Y-83787000D01*
X18321622Y-83539304D01*
X18323926Y-83537000D01*
X22729629Y-83537000D01*
X22970106Y-83777478D01*
G36*
X37400830Y-149920664D02*
X37382667Y-149951399D01*
X37373000Y-150000000D01*
X37373000Y-178818521D01*
X36863235Y-178308756D01*
X36837000Y-178297889D01*
X36837000Y-150463924D01*
X37483109Y-149817816D01*
X37400830Y-149920664D01*
X37400830Y-149920664D01*
G37*
X37400830Y-149920664D02*
X37382667Y-149951399D01*
X37373000Y-150000000D01*
X37373000Y-178818521D01*
X36863235Y-178308756D01*
X36837000Y-178297889D01*
X36837000Y-150463924D01*
X37483109Y-149817816D01*
X37400830Y-149920664D01*
G36*
X8533613Y-49532293D02*
X9110286Y-49647000D01*
X9749714Y-49647000D01*
X10187223Y-49559974D01*
X10423716Y-49913909D01*
X10567914Y-50010259D01*
X13873000Y-53315347D01*
X13873001Y-54829905D01*
X13873000Y-54829909D01*
X13873000Y-55877196D01*
X13873001Y-55877200D01*
X13873000Y-57618138D01*
X13839167Y-57788229D01*
X13873000Y-57958319D01*
X13973202Y-58462070D01*
X14354903Y-59033326D01*
X14499104Y-59129678D01*
X16004656Y-60635231D01*
X10258603Y-60635231D01*
X8327000Y-58703629D01*
X8327000Y-49394238D01*
X8533613Y-49532293D01*
X8533613Y-49532293D01*
G37*
X8533613Y-49532293D02*
X9110286Y-49647000D01*
X9749714Y-49647000D01*
X10187223Y-49559974D01*
X10423716Y-49913909D01*
X10567914Y-50010259D01*
X13873000Y-53315347D01*
X13873001Y-54829905D01*
X13873000Y-54829909D01*
X13873000Y-55877196D01*
X13873001Y-55877200D01*
X13873000Y-57618138D01*
X13839167Y-57788229D01*
X13873000Y-57958319D01*
X13973202Y-58462070D01*
X14354903Y-59033326D01*
X14499104Y-59129678D01*
X16004656Y-60635231D01*
X10258603Y-60635231D01*
X8327000Y-58703629D01*
X8327000Y-49394238D01*
X8533613Y-49532293D01*
G36*
X16175102Y-3682553D02*
X16030904Y-3778903D01*
X15843255Y-4059739D01*
X15649202Y-4350159D01*
X15515167Y-5024000D01*
X15549001Y-5194095D01*
X15549000Y-23104653D01*
X10567916Y-28085739D01*
X10423715Y-28182091D01*
X10124432Y-28630000D01*
X10087682Y-28685000D01*
X9715750Y-28685000D01*
X9557000Y-28843750D01*
X9557000Y-30043000D01*
X9577000Y-30043000D01*
X9577000Y-30297000D01*
X9557000Y-30297000D01*
X9557000Y-30317000D01*
X9303000Y-30317000D01*
X9303000Y-30297000D01*
X7978750Y-30297000D01*
X7820000Y-30455750D01*
X7820000Y-31146309D01*
X7867981Y-31262146D01*
X7442707Y-31898613D01*
X7289269Y-32670000D01*
X7442707Y-33441387D01*
X7494564Y-33518996D01*
X7455000Y-33511126D01*
X7294758Y-33543000D01*
X7044793Y-33592721D01*
X6973382Y-33606925D01*
X6964474Y-33585419D01*
X6932600Y-33425177D01*
X6841831Y-33289331D01*
X6779304Y-33138378D01*
X6663769Y-33022843D01*
X6573001Y-32886999D01*
X6437157Y-32796231D01*
X6321622Y-32680696D01*
X6170669Y-32618169D01*
X6034823Y-32527400D01*
X5874581Y-32495526D01*
X5723630Y-32433000D01*
X5560242Y-32433000D01*
X5400000Y-32401126D01*
X5239758Y-32433000D01*
X5076370Y-32433000D01*
X4925419Y-32495526D01*
X4765176Y-32527400D01*
X4629329Y-32618170D01*
X4478378Y-32680696D01*
X4362845Y-32796229D01*
X2172849Y-34986227D01*
X2036999Y-35076999D01*
X1677400Y-35615177D01*
X1627000Y-35868556D01*
X1627000Y-29193691D01*
X7820000Y-29193691D01*
X7820000Y-29884250D01*
X7978750Y-30043000D01*
X9303000Y-30043000D01*
X9303000Y-28843750D01*
X9144250Y-28685000D01*
X8328690Y-28685000D01*
X8095301Y-28781673D01*
X7916673Y-28960302D01*
X7820000Y-29193691D01*
X1627000Y-29193691D01*
X1627000Y-14457566D01*
X7273000Y-14457566D01*
X7273000Y-15542434D01*
X7688161Y-16544721D01*
X8455279Y-17311839D01*
X9457566Y-17727000D01*
X10542434Y-17727000D01*
X11544721Y-17311839D01*
X12311839Y-16544721D01*
X12727000Y-15542434D01*
X12727000Y-14457566D01*
X12311839Y-13455279D01*
X11544721Y-12688161D01*
X10542434Y-12273000D01*
X9457566Y-12273000D01*
X8455279Y-12688161D01*
X7688161Y-13455279D01*
X7273000Y-14457566D01*
X1627000Y-14457566D01*
X1627000Y-5072461D01*
X1686673Y-4403838D01*
X1844610Y-3826520D01*
X2102282Y-3286297D01*
X2451552Y-2800237D01*
X2881373Y-2383712D01*
X3378159Y-2049886D01*
X3926214Y-1809306D01*
X4520722Y-1666577D01*
X5059663Y-1627000D01*
X18230653Y-1627000D01*
X16175102Y-3682553D01*
X16175102Y-3682553D01*
G37*
X16175102Y-3682553D02*
X16030904Y-3778903D01*
X15843255Y-4059739D01*
X15649202Y-4350159D01*
X15515167Y-5024000D01*
X15549001Y-5194095D01*
X15549000Y-23104653D01*
X10567916Y-28085739D01*
X10423715Y-28182091D01*
X10124432Y-28630000D01*
X10087682Y-28685000D01*
X9715750Y-28685000D01*
X9557000Y-28843750D01*
X9557000Y-30043000D01*
X9577000Y-30043000D01*
X9577000Y-30297000D01*
X9557000Y-30297000D01*
X9557000Y-30317000D01*
X9303000Y-30317000D01*
X9303000Y-30297000D01*
X7978750Y-30297000D01*
X7820000Y-30455750D01*
X7820000Y-31146309D01*
X7867981Y-31262146D01*
X7442707Y-31898613D01*
X7289269Y-32670000D01*
X7442707Y-33441387D01*
X7494564Y-33518996D01*
X7455000Y-33511126D01*
X7294758Y-33543000D01*
X7044793Y-33592721D01*
X6973382Y-33606925D01*
X6964474Y-33585419D01*
X6932600Y-33425177D01*
X6841831Y-33289331D01*
X6779304Y-33138378D01*
X6663769Y-33022843D01*
X6573001Y-32886999D01*
X6437157Y-32796231D01*
X6321622Y-32680696D01*
X6170669Y-32618169D01*
X6034823Y-32527400D01*
X5874581Y-32495526D01*
X5723630Y-32433000D01*
X5560242Y-32433000D01*
X5400000Y-32401126D01*
X5239758Y-32433000D01*
X5076370Y-32433000D01*
X4925419Y-32495526D01*
X4765176Y-32527400D01*
X4629329Y-32618170D01*
X4478378Y-32680696D01*
X4362845Y-32796229D01*
X2172849Y-34986227D01*
X2036999Y-35076999D01*
X1677400Y-35615177D01*
X1627000Y-35868556D01*
X1627000Y-29193691D01*
X7820000Y-29193691D01*
X7820000Y-29884250D01*
X7978750Y-30043000D01*
X9303000Y-30043000D01*
X9303000Y-28843750D01*
X9144250Y-28685000D01*
X8328690Y-28685000D01*
X8095301Y-28781673D01*
X7916673Y-28960302D01*
X7820000Y-29193691D01*
X1627000Y-29193691D01*
X1627000Y-14457566D01*
X7273000Y-14457566D01*
X7273000Y-15542434D01*
X7688161Y-16544721D01*
X8455279Y-17311839D01*
X9457566Y-17727000D01*
X10542434Y-17727000D01*
X11544721Y-17311839D01*
X12311839Y-16544721D01*
X12727000Y-15542434D01*
X12727000Y-14457566D01*
X12311839Y-13455279D01*
X11544721Y-12688161D01*
X10542434Y-12273000D01*
X9457566Y-12273000D01*
X8455279Y-12688161D01*
X7688161Y-13455279D01*
X7273000Y-14457566D01*
X1627000Y-14457566D01*
X1627000Y-5072461D01*
X1686673Y-4403838D01*
X1844610Y-3826520D01*
X2102282Y-3286297D01*
X2451552Y-2800237D01*
X2881373Y-2383712D01*
X3378159Y-2049886D01*
X3926214Y-1809306D01*
X4520722Y-1666577D01*
X5059663Y-1627000D01*
X18230653Y-1627000D01*
X16175102Y-3682553D01*
G36*
X41770086Y-10093590D02*
X42390511Y-10217000D01*
X42779629Y-10217000D01*
X46923000Y-14360372D01*
X46923000Y-17934871D01*
X46773630Y-17873000D01*
X46126370Y-17873000D01*
X45528378Y-18120696D01*
X45070696Y-18578378D01*
X44823000Y-19176370D01*
X44823000Y-19823630D01*
X45070696Y-20421622D01*
X45073001Y-20423927D01*
X45073000Y-25084377D01*
X45046023Y-25220000D01*
X45086347Y-25422721D01*
X45152894Y-25757278D01*
X45457238Y-26212761D01*
X45572216Y-26289587D01*
X48440628Y-29158000D01*
X45337923Y-29158000D01*
X45189999Y-29128576D01*
X45042075Y-29158000D01*
X45042071Y-29158000D01*
X44648000Y-29236386D01*
X44648000Y-27723923D01*
X44677424Y-27575999D01*
X44648000Y-27428075D01*
X44648000Y-27428071D01*
X44560852Y-26989949D01*
X44228881Y-26493119D01*
X44103473Y-26409324D01*
X42794305Y-25100157D01*
X42669304Y-24798378D01*
X42211622Y-24340696D01*
X41909844Y-24215696D01*
X40552000Y-22857853D01*
X40552000Y-21887929D01*
X40581425Y-21740000D01*
X40464852Y-21153949D01*
X40216676Y-20782527D01*
X40132881Y-20657119D01*
X40007473Y-20573324D01*
X39924148Y-20489999D01*
X40957470Y-19456678D01*
X41082881Y-19372881D01*
X41414852Y-18876051D01*
X41502000Y-18437929D01*
X41502000Y-18437925D01*
X41531424Y-18290001D01*
X41502000Y-18142077D01*
X41502000Y-9914460D01*
X41770086Y-10093590D01*
X41770086Y-10093590D01*
G37*
X41770086Y-10093590D02*
X42390511Y-10217000D01*
X42779629Y-10217000D01*
X46923000Y-14360372D01*
X46923000Y-17934871D01*
X46773630Y-17873000D01*
X46126370Y-17873000D01*
X45528378Y-18120696D01*
X45070696Y-18578378D01*
X44823000Y-19176370D01*
X44823000Y-19823630D01*
X45070696Y-20421622D01*
X45073001Y-20423927D01*
X45073000Y-25084377D01*
X45046023Y-25220000D01*
X45086347Y-25422721D01*
X45152894Y-25757278D01*
X45457238Y-26212761D01*
X45572216Y-26289587D01*
X48440628Y-29158000D01*
X45337923Y-29158000D01*
X45189999Y-29128576D01*
X45042075Y-29158000D01*
X45042071Y-29158000D01*
X44648000Y-29236386D01*
X44648000Y-27723923D01*
X44677424Y-27575999D01*
X44648000Y-27428075D01*
X44648000Y-27428071D01*
X44560852Y-26989949D01*
X44228881Y-26493119D01*
X44103473Y-26409324D01*
X42794305Y-25100157D01*
X42669304Y-24798378D01*
X42211622Y-24340696D01*
X41909844Y-24215696D01*
X40552000Y-22857853D01*
X40552000Y-21887929D01*
X40581425Y-21740000D01*
X40464852Y-21153949D01*
X40216676Y-20782527D01*
X40132881Y-20657119D01*
X40007473Y-20573324D01*
X39924148Y-20489999D01*
X40957470Y-19456678D01*
X41082881Y-19372881D01*
X41414852Y-18876051D01*
X41502000Y-18437929D01*
X41502000Y-18437925D01*
X41531424Y-18290001D01*
X41502000Y-18142077D01*
X41502000Y-9914460D01*
X41770086Y-10093590D01*
G36*
X45267000Y-5423000D02*
X45287000Y-5423000D01*
X45287000Y-5677000D01*
X45267000Y-5677000D01*
X45267000Y-7963000D01*
X45287000Y-7963000D01*
X45287000Y-8217000D01*
X45267000Y-8217000D01*
X45267000Y-8237000D01*
X45013000Y-8237000D01*
X45013000Y-8217000D01*
X44993000Y-8217000D01*
X44993000Y-7963000D01*
X45013000Y-7963000D01*
X45013000Y-5677000D01*
X44993000Y-5677000D01*
X44993000Y-5423000D01*
X45013000Y-5423000D01*
X45013000Y-5403000D01*
X45267000Y-5403000D01*
X45267000Y-5423000D01*
X45267000Y-5423000D01*
G37*
X45267000Y-5423000D02*
X45287000Y-5423000D01*
X45287000Y-5677000D01*
X45267000Y-5677000D01*
X45267000Y-7963000D01*
X45287000Y-7963000D01*
X45287000Y-8217000D01*
X45267000Y-8217000D01*
X45267000Y-8237000D01*
X45013000Y-8237000D01*
X45013000Y-8217000D01*
X44993000Y-8217000D01*
X44993000Y-7963000D01*
X45013000Y-7963000D01*
X45013000Y-5677000D01*
X44993000Y-5677000D01*
X44993000Y-5423000D01*
X45013000Y-5423000D01*
X45013000Y-5403000D01*
X45267000Y-5403000D01*
X45267000Y-5423000D01*
G04 #@! TD*
M02*
