M48
;DRILL file {KiCad 5.0.2-bee76a0~70~ubuntu18.04.1} date Thursday, November 29, 2018 PM08:18:30 HKT
;FORMAT={3:3/ absolute / metric / suppress leading zeros}
FMAT,2
METRIC,TZ
T1C3.200
T2C3.700
T3C5.300
%
G90
G05
T1
X190000Y-15000
X10000Y-285000
X190000Y-285000
X10000Y-145000
X190000Y-145000
X10000Y-15000
T2
X25000Y-10000
X55000Y-14000
X25000Y-55000
X55000Y-55000
T3
X189250Y-6750
X77750Y-125750
X195750Y-150250
X105750Y-6750
X119250Y-259750
X189250Y-107750
X105750Y-107750
X98500Y-202000
X195750Y-205750
X184250Y-259750
T0
M30
