M48
;DRILL file {KiCad 5.0.2-bee76a0~70~ubuntu18.04.1} date Thursday, November 29, 2018 PM08:18:30 HKT
;FORMAT={3:3/ absolute / metric / suppress leading zeros}
FMAT,2
METRIC,TZ
T1C0.400
T2C0.800
T3C0.900
T4C0.950
T5C1.000
T6C1.097
T7C1.100
T8C1.100
T9C1.200
T10C1.999
T11C2.098
%
G90
G05
T1
X2286Y-29210
X2540Y-19050
X5010Y-57030
X5400Y-34060
X7200Y-25230
X8636Y-52578
X11616Y-65100
X11616Y-67230
X12192Y-52324
X13462Y-24384
X14100Y-48100
X14230Y-71240
X14732Y-7874
X15140Y-77100
X15240Y-89662
X15600Y-55000
X15900Y-47300
X16000Y-37000
X17018Y-27432
X17276Y-23820
X17400Y-82160
X17620Y-74740
X17900Y-62012
X18000Y-46000
X18990Y-63310
X19304Y-86360
X19630Y-67130
X20200Y-26700
X21170Y-51900
X21336Y-41910
X21600Y-123720
X21900Y-68360
X22000Y-152000
X22000Y-164000
X22000Y-167000
X22000Y-179000
X23368Y-37084
X23500Y-26000
X24000Y-152000
X24000Y-164000
X24000Y-167000
X24384Y-208534
X24384Y-209534
X24384Y-210534
X24384Y-211534
X24384Y-212534
X24384Y-213534
X24384Y-214534
X24384Y-215534
X24384Y-216534
X24384Y-217534
X24500Y-192000
X24960Y-59190
X25900Y-35200
X26000Y-152000
X26000Y-164000
X26000Y-167000
X26160Y-67200
X27178Y-43942
X27700Y-66080
X27830Y-90050
X28000Y-152000
X28000Y-164000
X28000Y-167000
X28150Y-22280
X28500Y-51500
X30000Y-152000
X30000Y-164000
X30000Y-167000
X30010Y-85180
X30226Y-77321
X30540Y-13320
X30790Y-109560
X31100Y-58890
X31170Y-25400
X31496Y-54610
X31496Y-56642
X31500Y-49500
X31663Y-78758
X32000Y-192000
X32004Y-53086
X32004Y-208534
X32004Y-209534
X32004Y-210534
X32004Y-211534
X32004Y-212534
X32004Y-213534
X32004Y-214534
X32004Y-215534
X32004Y-216534
X32004Y-217534
X33000Y-57084
X33020Y-51816
X33100Y-80195
X33200Y-179850
X33274Y-50546
X33650Y-20290
X34798Y-80264
X35100Y-61440
X35130Y-63390
X35800Y-179900
X36200Y-43940
X36576Y-75438
X36576Y-80264
X37000Y-164000
X37000Y-165000
X37000Y-166000
X37000Y-167000
X37080Y-40660
X37324Y-27370
X37505Y-29930
X38190Y-12340
X38608Y-75438
X38608Y-80264
X40370Y-114330
X40469Y-42100
X40469Y-57450
X40640Y-75438
X40640Y-80264
X40750Y-132080
X41100Y-119180
X41290Y-25720
X41860Y-13770
X42311Y-38854
X42550Y-142450
X42560Y-132290
X42856Y-146970
X43120Y-32580
X43250Y-109590
X43250Y-91680
X43300Y-24950
X43400Y-139850
X43429Y-79761
X43640Y-60810
X43688Y-51308
X43942Y-11684
X44866Y-78324
X44950Y-28490
X45560Y-53490
X45640Y-60810
X46302Y-76888
X46450Y-19500
X46930Y-44160
X47390Y-28810
X47640Y-60810
X47752Y-52832
X47984Y-35588
X47984Y-36588
X47984Y-37588
X48244Y-146870
X48984Y-35588
X48984Y-36588
X48984Y-37588
X49200Y-106300
X49273Y-46150
X49984Y-35588
X49984Y-36588
X49984Y-37588
X50038Y-11430
X50100Y-114300
X52100Y-47220
X52130Y-46210
X52290Y-28630
X52300Y-124100
X52350Y-86380
X52560Y-88910
X52580Y-94880
X52780Y-46440
X53596Y-146970
X53650Y-112300
X53810Y-30660
X54100Y-90350
X54220Y-80280
X54561Y-41277
X54686Y-167800
X55000Y-115100
X55190Y-28760
X56040Y-43460
X56100Y-108300
X56130Y-40190
X56300Y-20100
X56500Y-4300
X57500Y-42060
X57510Y-7400
X58150Y-29030
X58425Y-31290
X59036Y-146970
X59600Y-34130
X59626Y-167740
X59930Y-31900
X60850Y-42850
X60960Y-19812
X61496Y-131770
X61976Y-40386
X62250Y-4310
X63250Y-117250
X63510Y-32120
X63900Y-4300
X64866Y-167800
X64900Y-5300
X65100Y-124300
X66294Y-34798
X70000Y-144000
X70206Y-168110
X70550Y-20320
X74230Y-20260
X74422Y-24892
X74700Y-17640
X74880Y-11870
X80150Y-14990
X82660Y-17073
X85600Y-21090
X86039Y-16401
X86100Y-9590
X89040Y-11930
X90960Y-17110
X101600Y-3048
X101890Y-16080
X101890Y-19860
X102108Y-10668
X103390Y-16080
X103390Y-19860
X104890Y-16080
X104890Y-19860
X106390Y-16080
X106390Y-19860
X107890Y-16080
X107890Y-19860
X109390Y-16080
X109390Y-19860
X110890Y-16080
X110890Y-19860
X111252Y-10922
T2
X34424Y-102908
X36964Y-102908
X126826Y-273498
X129366Y-273498
X131906Y-273498
X134446Y-273498
X136986Y-273498
X139526Y-273498
X142066Y-273498
X144606Y-273498
X147146Y-273498
X149686Y-273498
X152226Y-273498
X154766Y-273498
X157306Y-273498
X159846Y-273498
X162386Y-273498
X164926Y-273498
X167466Y-273498
X170006Y-273498
X172546Y-273498
X175086Y-273498
X39710Y-71805
X42250Y-71805
X44790Y-71805
X178000Y-225000
X178000Y-227540
X178000Y-230080
X178000Y-232620
X178000Y-235160
X178000Y-237700
X178000Y-240240
X180540Y-225000
X180540Y-227540
X180540Y-230080
X180540Y-232620
X180540Y-235160
X180540Y-237700
X180540Y-240240
X34424Y-116185
X36964Y-116185
T3
X89100Y-92360
X91640Y-92360
X91640Y-94900
X94180Y-92360
X94180Y-94900
X96720Y-92360
X96720Y-94900
X99260Y-92360
X99260Y-94900
X101800Y-92360
X101800Y-94900
X104340Y-92360
X104340Y-94900
T4
X32600Y-8090
X35100Y-8090
X37600Y-8090
X9464Y-80073
X9464Y-82573
X9464Y-85073
X9464Y-87573
X9464Y-90073
X9464Y-92573
X9464Y-95073
X9464Y-97573
X115100Y-8090
X117600Y-8090
X120100Y-8090
X90350Y-8090
X92850Y-8090
X95350Y-8090
X97850Y-8090
X9430Y-30170
X9430Y-32670
X9430Y-35170
X9430Y-37670
X9430Y-40170
X9430Y-42670
X9430Y-45170
X9430Y-47670
T5
X9514Y-117088
X9514Y-119588
X9514Y-103968
X9514Y-106468
X42600Y-5550
X42600Y-8090
X45140Y-5550
X45140Y-8090
X47680Y-5550
X47680Y-8090
X50220Y-5550
X50220Y-8090
X79100Y-8090
X81600Y-8090
T6
X11684Y-194358
X11684Y-196898
X11684Y-199438
X11684Y-201978
X11684Y-204518
X11684Y-182320
X11684Y-184860
X11684Y-187400
X11684Y-189940
X11684Y-154320
X11684Y-156860
X11684Y-159400
X11684Y-161940
X11684Y-169320
X11684Y-171860
X11684Y-174400
X11684Y-176940
X38430Y-125500
X40970Y-125500
T7
X23981Y-227159
X34139Y-227159
T8
X16644Y-102908
X24264Y-102908
X16644Y-116185
X24264Y-116185
T9
X25090Y-260000
X32710Y-260000
X25356Y-279130
X32976Y-279130
X40596Y-279130
X89100Y-94900
X51364Y-287020
X58984Y-287020
X66604Y-287020
X78994Y-287020
X86614Y-287020
X94234Y-287020
T10
X37946Y-239856
T11
X20169Y-242396
X20169Y-250016
T0
M30
