G04 #@! TF.GenerationSoftware,KiCad,Pcbnew,5.0.2-bee76a0~70~ubuntu18.04.1*
G04 #@! TF.CreationDate,2018-11-29T20:18:27+08:00*
G04 #@! TF.ProjectId,backplane,6261636b-706c-4616-9e65-2e6b69636164,rev?*
G04 #@! TF.SameCoordinates,Original*
G04 #@! TF.FileFunction,Soldermask,Bot*
G04 #@! TF.FilePolarity,Negative*
%FSLAX46Y46*%
G04 Gerber Fmt 4.6, Leading zero omitted, Abs format (unit mm)*
G04 Created by KiCad (PCBNEW 5.0.2-bee76a0~70~ubuntu18.04.1) date Thursday, November 29, 2018 PM08:18:27 HKT*
%MOMM*%
%LPD*%
G01*
G04 APERTURE LIST*
%ADD10C,1.000000*%
%ADD11C,0.020000*%
G04 APERTURE END LIST*
D10*
X73110000Y-264100000D02*
G75*
G02X74110000Y-265100000I0J-1000000D01*
G01*
X73109999Y-294100001D02*
G75*
G02X72110000Y-293100000I1J1000000D01*
G01*
X72110000Y-293100000D02*
X72110000Y-265100000D01*
X74110000Y-265100000D02*
X74110000Y-293100000D01*
X74109998Y-293100001D02*
G75*
G02X73110000Y-294099999I-999998J0D01*
G01*
X72110000Y-265100000D02*
G75*
G02X73110000Y-264100000I1000000J0D01*
G01*
X15100000Y-234300000D02*
G75*
G02X14100000Y-233300000I0J1000000D01*
G01*
X14100000Y-233300000D02*
G75*
G02X15100000Y-232300000I1000000J0D01*
G01*
X44100000Y-233300000D02*
G75*
G02X43100000Y-234300000I-1000000J0D01*
G01*
X43100000Y-232300000D02*
G75*
G02X44100000Y-233300000I0J-1000000D01*
G01*
X43100000Y-234300000D02*
X15100000Y-234300000D01*
X15100000Y-232300000D02*
X43100000Y-232300000D01*
X0Y-5000000D02*
G75*
G02X5000000Y0I5000000J0D01*
G01*
X195000000Y0D02*
G75*
G02X200000000Y-5000000I0J-5000000D01*
G01*
X200000000Y-295000000D02*
G75*
G02X195000000Y-300000000I-5000000J0D01*
G01*
X5000000Y-300000000D02*
G75*
G02X0Y-295000000I0J5000000D01*
G01*
X0Y-5000000D02*
X0Y-295000000D01*
X5000000Y-300000000D02*
X195000000Y-300000000D01*
X200000000Y-5000000D02*
X200000000Y-295000000D01*
X5000000Y0D02*
X195000000Y0D01*
D11*
G36*
X81694000Y-289720000D02*
X76294000Y-289720000D01*
X76294000Y-284320000D01*
X81694000Y-284320000D01*
X81694000Y-289720000D01*
X81694000Y-289720000D01*
G37*
G36*
X87401560Y-284423759D02*
X87892928Y-284627290D01*
X87892930Y-284627291D01*
X88185401Y-284822714D01*
X88335153Y-284922775D01*
X88711225Y-285298847D01*
X89006710Y-285741072D01*
X89210241Y-286232440D01*
X89314000Y-286754072D01*
X89314000Y-287285928D01*
X89210241Y-287807560D01*
X89006710Y-288298928D01*
X88711225Y-288741153D01*
X88335153Y-289117225D01*
X88335150Y-289117227D01*
X87892930Y-289412709D01*
X87892929Y-289412710D01*
X87892928Y-289412710D01*
X87401560Y-289616241D01*
X86879928Y-289720000D01*
X86348072Y-289720000D01*
X85826440Y-289616241D01*
X85335072Y-289412710D01*
X85335071Y-289412710D01*
X85335070Y-289412709D01*
X84892850Y-289117227D01*
X84892847Y-289117225D01*
X84516775Y-288741153D01*
X84221290Y-288298928D01*
X84017759Y-287807560D01*
X83914000Y-287285928D01*
X83914000Y-286754072D01*
X84017759Y-286232440D01*
X84221290Y-285741072D01*
X84516775Y-285298847D01*
X84892847Y-284922775D01*
X85042599Y-284822714D01*
X85335070Y-284627291D01*
X85335072Y-284627290D01*
X85826440Y-284423759D01*
X86348072Y-284320000D01*
X86879928Y-284320000D01*
X87401560Y-284423759D01*
X87401560Y-284423759D01*
G37*
G36*
X54063998Y-289720000D02*
X48663998Y-289720000D01*
X48663998Y-284320000D01*
X54063998Y-284320000D01*
X54063998Y-289720000D01*
X54063998Y-289720000D01*
G37*
G36*
X59771558Y-284423759D02*
X60262926Y-284627290D01*
X60262928Y-284627291D01*
X60555399Y-284822714D01*
X60705151Y-284922775D01*
X61081223Y-285298847D01*
X61376708Y-285741072D01*
X61580239Y-286232440D01*
X61683998Y-286754072D01*
X61683998Y-287285928D01*
X61580239Y-287807560D01*
X61376708Y-288298928D01*
X61081223Y-288741153D01*
X60705151Y-289117225D01*
X60705148Y-289117227D01*
X60262928Y-289412709D01*
X60262927Y-289412710D01*
X60262926Y-289412710D01*
X59771558Y-289616241D01*
X59249926Y-289720000D01*
X58718070Y-289720000D01*
X58196438Y-289616241D01*
X57705070Y-289412710D01*
X57705069Y-289412710D01*
X57705068Y-289412709D01*
X57262848Y-289117227D01*
X57262845Y-289117225D01*
X56886773Y-288741153D01*
X56591288Y-288298928D01*
X56387757Y-287807560D01*
X56283998Y-287285928D01*
X56283998Y-286754072D01*
X56387757Y-286232440D01*
X56591288Y-285741072D01*
X56886773Y-285298847D01*
X57262845Y-284922775D01*
X57412597Y-284822714D01*
X57705068Y-284627291D01*
X57705070Y-284627290D01*
X58196438Y-284423759D01*
X58718070Y-284320000D01*
X59249926Y-284320000D01*
X59771558Y-284423759D01*
X59771558Y-284423759D01*
G37*
G36*
X95021560Y-284423759D02*
X95512928Y-284627290D01*
X95512930Y-284627291D01*
X95805401Y-284822714D01*
X95955153Y-284922775D01*
X96331225Y-285298847D01*
X96626710Y-285741072D01*
X96830241Y-286232440D01*
X96934000Y-286754072D01*
X96934000Y-287285928D01*
X96830241Y-287807560D01*
X96626710Y-288298928D01*
X96331225Y-288741153D01*
X95955153Y-289117225D01*
X95955150Y-289117227D01*
X95512930Y-289412709D01*
X95512929Y-289412710D01*
X95512928Y-289412710D01*
X95021560Y-289616241D01*
X94499928Y-289720000D01*
X93968072Y-289720000D01*
X93446440Y-289616241D01*
X92955072Y-289412710D01*
X92955071Y-289412710D01*
X92955070Y-289412709D01*
X92512850Y-289117227D01*
X92512847Y-289117225D01*
X92136775Y-288741153D01*
X91841290Y-288298928D01*
X91637759Y-287807560D01*
X91534000Y-287285928D01*
X91534000Y-286754072D01*
X91637759Y-286232440D01*
X91841290Y-285741072D01*
X92136775Y-285298847D01*
X92512847Y-284922775D01*
X92662599Y-284822714D01*
X92955070Y-284627291D01*
X92955072Y-284627290D01*
X93446440Y-284423759D01*
X93968072Y-284320000D01*
X94499928Y-284320000D01*
X95021560Y-284423759D01*
X95021560Y-284423759D01*
G37*
G36*
X67391558Y-284423759D02*
X67882926Y-284627290D01*
X67882928Y-284627291D01*
X68175399Y-284822714D01*
X68325151Y-284922775D01*
X68701223Y-285298847D01*
X68996708Y-285741072D01*
X69200239Y-286232440D01*
X69303998Y-286754072D01*
X69303998Y-287285928D01*
X69200239Y-287807560D01*
X68996708Y-288298928D01*
X68701223Y-288741153D01*
X68325151Y-289117225D01*
X68325148Y-289117227D01*
X67882928Y-289412709D01*
X67882927Y-289412710D01*
X67882926Y-289412710D01*
X67391558Y-289616241D01*
X66869926Y-289720000D01*
X66338070Y-289720000D01*
X65816438Y-289616241D01*
X65325070Y-289412710D01*
X65325069Y-289412710D01*
X65325068Y-289412709D01*
X64882848Y-289117227D01*
X64882845Y-289117225D01*
X64506773Y-288741153D01*
X64211288Y-288298928D01*
X64007757Y-287807560D01*
X63903998Y-287285928D01*
X63903998Y-286754072D01*
X64007757Y-286232440D01*
X64211288Y-285741072D01*
X64506773Y-285298847D01*
X64882845Y-284922775D01*
X65032597Y-284822714D01*
X65325068Y-284627291D01*
X65325070Y-284627290D01*
X65816438Y-284423759D01*
X66338070Y-284320000D01*
X66869926Y-284320000D01*
X67391558Y-284423759D01*
X67391558Y-284423759D01*
G37*
G36*
X190409122Y-283246115D02*
X190525041Y-283269173D01*
X190852620Y-283404861D01*
X191143511Y-283599228D01*
X191147436Y-283601851D01*
X191398149Y-283852564D01*
X191398151Y-283852567D01*
X191595139Y-284147380D01*
X191709620Y-284423760D01*
X191730827Y-284474960D01*
X191800000Y-284822714D01*
X191800000Y-285177286D01*
X191730827Y-285525040D01*
X191595140Y-285852618D01*
X191398149Y-286147436D01*
X191147436Y-286398149D01*
X191147433Y-286398151D01*
X190852620Y-286595139D01*
X190525041Y-286730827D01*
X190409122Y-286753885D01*
X190177286Y-286800000D01*
X189822714Y-286800000D01*
X189590878Y-286753885D01*
X189474959Y-286730827D01*
X189147380Y-286595139D01*
X188852567Y-286398151D01*
X188852564Y-286398149D01*
X188601851Y-286147436D01*
X188404860Y-285852618D01*
X188269173Y-285525040D01*
X188200000Y-285177286D01*
X188200000Y-284822714D01*
X188269173Y-284474960D01*
X188290381Y-284423760D01*
X188404861Y-284147380D01*
X188601849Y-283852567D01*
X188601851Y-283852564D01*
X188852564Y-283601851D01*
X188856489Y-283599228D01*
X189147380Y-283404861D01*
X189474959Y-283269173D01*
X189590878Y-283246115D01*
X189822714Y-283200000D01*
X190177286Y-283200000D01*
X190409122Y-283246115D01*
X190409122Y-283246115D01*
G37*
G36*
X10409122Y-283246115D02*
X10525041Y-283269173D01*
X10852620Y-283404861D01*
X11143511Y-283599228D01*
X11147436Y-283601851D01*
X11398149Y-283852564D01*
X11398151Y-283852567D01*
X11595139Y-284147380D01*
X11709620Y-284423760D01*
X11730827Y-284474960D01*
X11800000Y-284822714D01*
X11800000Y-285177286D01*
X11730827Y-285525040D01*
X11595140Y-285852618D01*
X11398149Y-286147436D01*
X11147436Y-286398149D01*
X11147433Y-286398151D01*
X10852620Y-286595139D01*
X10525041Y-286730827D01*
X10409122Y-286753885D01*
X10177286Y-286800000D01*
X9822714Y-286800000D01*
X9590878Y-286753885D01*
X9474959Y-286730827D01*
X9147380Y-286595139D01*
X8852567Y-286398151D01*
X8852564Y-286398149D01*
X8601851Y-286147436D01*
X8404860Y-285852618D01*
X8269173Y-285525040D01*
X8200000Y-285177286D01*
X8200000Y-284822714D01*
X8269173Y-284474960D01*
X8290381Y-284423760D01*
X8404861Y-284147380D01*
X8601849Y-283852567D01*
X8601851Y-283852564D01*
X8852564Y-283601851D01*
X8856489Y-283599228D01*
X9147380Y-283404861D01*
X9474959Y-283269173D01*
X9590878Y-283246115D01*
X9822714Y-283200000D01*
X10177286Y-283200000D01*
X10409122Y-283246115D01*
X10409122Y-283246115D01*
G37*
G36*
X33763560Y-276533759D02*
X34254928Y-276737290D01*
X34254930Y-276737291D01*
X34691268Y-277028843D01*
X34697153Y-277032775D01*
X35073225Y-277408847D01*
X35368710Y-277851072D01*
X35572241Y-278342440D01*
X35676000Y-278864072D01*
X35676000Y-279395928D01*
X35572241Y-279917560D01*
X35368710Y-280408928D01*
X35073225Y-280851153D01*
X34697153Y-281227225D01*
X34697150Y-281227227D01*
X34254930Y-281522709D01*
X34254929Y-281522710D01*
X34254928Y-281522710D01*
X33763560Y-281726241D01*
X33241928Y-281830000D01*
X32710072Y-281830000D01*
X32188440Y-281726241D01*
X31697072Y-281522710D01*
X31697071Y-281522710D01*
X31697070Y-281522709D01*
X31254850Y-281227227D01*
X31254847Y-281227225D01*
X30878775Y-280851153D01*
X30583290Y-280408928D01*
X30379759Y-279917560D01*
X30276000Y-279395928D01*
X30276000Y-278864072D01*
X30379759Y-278342440D01*
X30583290Y-277851072D01*
X30878775Y-277408847D01*
X31254847Y-277032775D01*
X31260732Y-277028843D01*
X31697070Y-276737291D01*
X31697072Y-276737290D01*
X32188440Y-276533759D01*
X32710072Y-276430000D01*
X33241928Y-276430000D01*
X33763560Y-276533759D01*
X33763560Y-276533759D01*
G37*
G36*
X41383560Y-276533759D02*
X41874928Y-276737290D01*
X41874930Y-276737291D01*
X42311268Y-277028843D01*
X42317153Y-277032775D01*
X42693225Y-277408847D01*
X42988710Y-277851072D01*
X43192241Y-278342440D01*
X43296000Y-278864072D01*
X43296000Y-279395928D01*
X43192241Y-279917560D01*
X42988710Y-280408928D01*
X42693225Y-280851153D01*
X42317153Y-281227225D01*
X42317150Y-281227227D01*
X41874930Y-281522709D01*
X41874929Y-281522710D01*
X41874928Y-281522710D01*
X41383560Y-281726241D01*
X40861928Y-281830000D01*
X40330072Y-281830000D01*
X39808440Y-281726241D01*
X39317072Y-281522710D01*
X39317071Y-281522710D01*
X39317070Y-281522709D01*
X38874850Y-281227227D01*
X38874847Y-281227225D01*
X38498775Y-280851153D01*
X38203290Y-280408928D01*
X37999759Y-279917560D01*
X37896000Y-279395928D01*
X37896000Y-278864072D01*
X37999759Y-278342440D01*
X38203290Y-277851072D01*
X38498775Y-277408847D01*
X38874847Y-277032775D01*
X38880732Y-277028843D01*
X39317070Y-276737291D01*
X39317072Y-276737290D01*
X39808440Y-276533759D01*
X40330072Y-276430000D01*
X40861928Y-276430000D01*
X41383560Y-276533759D01*
X41383560Y-276533759D01*
G37*
G36*
X28056000Y-281830000D02*
X22656000Y-281830000D01*
X22656000Y-276430000D01*
X28056000Y-276430000D01*
X28056000Y-281830000D01*
X28056000Y-281830000D01*
G37*
G36*
X144821637Y-272413916D02*
X145028984Y-272476815D01*
X145028986Y-272476816D01*
X145220082Y-272578958D01*
X145387579Y-272716419D01*
X145525040Y-272883916D01*
X145627182Y-273075012D01*
X145690082Y-273282362D01*
X145711320Y-273498000D01*
X145690082Y-273713638D01*
X145627182Y-273920988D01*
X145525040Y-274112084D01*
X145387579Y-274279581D01*
X145220082Y-274417042D01*
X145028986Y-274519184D01*
X145028984Y-274519185D01*
X144821637Y-274582084D01*
X144660036Y-274598000D01*
X144551960Y-274598000D01*
X144390359Y-274582084D01*
X144183012Y-274519185D01*
X144183010Y-274519184D01*
X143991914Y-274417042D01*
X143824417Y-274279581D01*
X143686956Y-274112084D01*
X143584814Y-273920988D01*
X143521914Y-273713638D01*
X143500676Y-273498000D01*
X143521914Y-273282362D01*
X143584814Y-273075012D01*
X143686956Y-272883916D01*
X143824417Y-272716419D01*
X143991914Y-272578958D01*
X144183010Y-272476816D01*
X144183012Y-272476815D01*
X144390359Y-272413916D01*
X144551960Y-272398000D01*
X144660036Y-272398000D01*
X144821637Y-272413916D01*
X144821637Y-272413916D01*
G37*
G36*
X127925998Y-274598000D02*
X125725998Y-274598000D01*
X125725998Y-272398000D01*
X127925998Y-272398000D01*
X127925998Y-274598000D01*
X127925998Y-274598000D01*
G37*
G36*
X129581637Y-272413916D02*
X129788984Y-272476815D01*
X129788986Y-272476816D01*
X129980082Y-272578958D01*
X130147579Y-272716419D01*
X130285040Y-272883916D01*
X130387182Y-273075012D01*
X130450082Y-273282362D01*
X130471320Y-273498000D01*
X130450082Y-273713638D01*
X130387182Y-273920988D01*
X130285040Y-274112084D01*
X130147579Y-274279581D01*
X129980082Y-274417042D01*
X129788986Y-274519184D01*
X129788984Y-274519185D01*
X129581637Y-274582084D01*
X129420036Y-274598000D01*
X129311960Y-274598000D01*
X129150359Y-274582084D01*
X128943012Y-274519185D01*
X128943010Y-274519184D01*
X128751914Y-274417042D01*
X128584417Y-274279581D01*
X128446956Y-274112084D01*
X128344814Y-273920988D01*
X128281914Y-273713638D01*
X128260676Y-273498000D01*
X128281914Y-273282362D01*
X128344814Y-273075012D01*
X128446956Y-272883916D01*
X128584417Y-272716419D01*
X128751914Y-272578958D01*
X128943010Y-272476816D01*
X128943012Y-272476815D01*
X129150359Y-272413916D01*
X129311960Y-272398000D01*
X129420036Y-272398000D01*
X129581637Y-272413916D01*
X129581637Y-272413916D01*
G37*
G36*
X132121637Y-272413916D02*
X132328984Y-272476815D01*
X132328986Y-272476816D01*
X132520082Y-272578958D01*
X132687579Y-272716419D01*
X132825040Y-272883916D01*
X132927182Y-273075012D01*
X132990082Y-273282362D01*
X133011320Y-273498000D01*
X132990082Y-273713638D01*
X132927182Y-273920988D01*
X132825040Y-274112084D01*
X132687579Y-274279581D01*
X132520082Y-274417042D01*
X132328986Y-274519184D01*
X132328984Y-274519185D01*
X132121637Y-274582084D01*
X131960036Y-274598000D01*
X131851960Y-274598000D01*
X131690359Y-274582084D01*
X131483012Y-274519185D01*
X131483010Y-274519184D01*
X131291914Y-274417042D01*
X131124417Y-274279581D01*
X130986956Y-274112084D01*
X130884814Y-273920988D01*
X130821914Y-273713638D01*
X130800676Y-273498000D01*
X130821914Y-273282362D01*
X130884814Y-273075012D01*
X130986956Y-272883916D01*
X131124417Y-272716419D01*
X131291914Y-272578958D01*
X131483010Y-272476816D01*
X131483012Y-272476815D01*
X131690359Y-272413916D01*
X131851960Y-272398000D01*
X131960036Y-272398000D01*
X132121637Y-272413916D01*
X132121637Y-272413916D01*
G37*
G36*
X134661637Y-272413916D02*
X134868984Y-272476815D01*
X134868986Y-272476816D01*
X135060082Y-272578958D01*
X135227579Y-272716419D01*
X135365040Y-272883916D01*
X135467182Y-273075012D01*
X135530082Y-273282362D01*
X135551320Y-273498000D01*
X135530082Y-273713638D01*
X135467182Y-273920988D01*
X135365040Y-274112084D01*
X135227579Y-274279581D01*
X135060082Y-274417042D01*
X134868986Y-274519184D01*
X134868984Y-274519185D01*
X134661637Y-274582084D01*
X134500036Y-274598000D01*
X134391960Y-274598000D01*
X134230359Y-274582084D01*
X134023012Y-274519185D01*
X134023010Y-274519184D01*
X133831914Y-274417042D01*
X133664417Y-274279581D01*
X133526956Y-274112084D01*
X133424814Y-273920988D01*
X133361914Y-273713638D01*
X133340676Y-273498000D01*
X133361914Y-273282362D01*
X133424814Y-273075012D01*
X133526956Y-272883916D01*
X133664417Y-272716419D01*
X133831914Y-272578958D01*
X134023010Y-272476816D01*
X134023012Y-272476815D01*
X134230359Y-272413916D01*
X134391960Y-272398000D01*
X134500036Y-272398000D01*
X134661637Y-272413916D01*
X134661637Y-272413916D01*
G37*
G36*
X137201637Y-272413916D02*
X137408984Y-272476815D01*
X137408986Y-272476816D01*
X137600082Y-272578958D01*
X137767579Y-272716419D01*
X137905040Y-272883916D01*
X138007182Y-273075012D01*
X138070082Y-273282362D01*
X138091320Y-273498000D01*
X138070082Y-273713638D01*
X138007182Y-273920988D01*
X137905040Y-274112084D01*
X137767579Y-274279581D01*
X137600082Y-274417042D01*
X137408986Y-274519184D01*
X137408984Y-274519185D01*
X137201637Y-274582084D01*
X137040036Y-274598000D01*
X136931960Y-274598000D01*
X136770359Y-274582084D01*
X136563012Y-274519185D01*
X136563010Y-274519184D01*
X136371914Y-274417042D01*
X136204417Y-274279581D01*
X136066956Y-274112084D01*
X135964814Y-273920988D01*
X135901914Y-273713638D01*
X135880676Y-273498000D01*
X135901914Y-273282362D01*
X135964814Y-273075012D01*
X136066956Y-272883916D01*
X136204417Y-272716419D01*
X136371914Y-272578958D01*
X136563010Y-272476816D01*
X136563012Y-272476815D01*
X136770359Y-272413916D01*
X136931960Y-272398000D01*
X137040036Y-272398000D01*
X137201637Y-272413916D01*
X137201637Y-272413916D01*
G37*
G36*
X139741637Y-272413916D02*
X139948984Y-272476815D01*
X139948986Y-272476816D01*
X140140082Y-272578958D01*
X140307579Y-272716419D01*
X140445040Y-272883916D01*
X140547182Y-273075012D01*
X140610082Y-273282362D01*
X140631320Y-273498000D01*
X140610082Y-273713638D01*
X140547182Y-273920988D01*
X140445040Y-274112084D01*
X140307579Y-274279581D01*
X140140082Y-274417042D01*
X139948986Y-274519184D01*
X139948984Y-274519185D01*
X139741637Y-274582084D01*
X139580036Y-274598000D01*
X139471960Y-274598000D01*
X139310359Y-274582084D01*
X139103012Y-274519185D01*
X139103010Y-274519184D01*
X138911914Y-274417042D01*
X138744417Y-274279581D01*
X138606956Y-274112084D01*
X138504814Y-273920988D01*
X138441914Y-273713638D01*
X138420676Y-273498000D01*
X138441914Y-273282362D01*
X138504814Y-273075012D01*
X138606956Y-272883916D01*
X138744417Y-272716419D01*
X138911914Y-272578958D01*
X139103010Y-272476816D01*
X139103012Y-272476815D01*
X139310359Y-272413916D01*
X139471960Y-272398000D01*
X139580036Y-272398000D01*
X139741637Y-272413916D01*
X139741637Y-272413916D01*
G37*
G36*
X142281637Y-272413916D02*
X142488984Y-272476815D01*
X142488986Y-272476816D01*
X142680082Y-272578958D01*
X142847579Y-272716419D01*
X142985040Y-272883916D01*
X143087182Y-273075012D01*
X143150082Y-273282362D01*
X143171320Y-273498000D01*
X143150082Y-273713638D01*
X143087182Y-273920988D01*
X142985040Y-274112084D01*
X142847579Y-274279581D01*
X142680082Y-274417042D01*
X142488986Y-274519184D01*
X142488984Y-274519185D01*
X142281637Y-274582084D01*
X142120036Y-274598000D01*
X142011960Y-274598000D01*
X141850359Y-274582084D01*
X141643012Y-274519185D01*
X141643010Y-274519184D01*
X141451914Y-274417042D01*
X141284417Y-274279581D01*
X141146956Y-274112084D01*
X141044814Y-273920988D01*
X140981914Y-273713638D01*
X140960676Y-273498000D01*
X140981914Y-273282362D01*
X141044814Y-273075012D01*
X141146956Y-272883916D01*
X141284417Y-272716419D01*
X141451914Y-272578958D01*
X141643010Y-272476816D01*
X141643012Y-272476815D01*
X141850359Y-272413916D01*
X142011960Y-272398000D01*
X142120036Y-272398000D01*
X142281637Y-272413916D01*
X142281637Y-272413916D01*
G37*
G36*
X147361637Y-272413916D02*
X147568984Y-272476815D01*
X147568986Y-272476816D01*
X147760082Y-272578958D01*
X147927579Y-272716419D01*
X148065040Y-272883916D01*
X148167182Y-273075012D01*
X148230082Y-273282362D01*
X148251320Y-273498000D01*
X148230082Y-273713638D01*
X148167182Y-273920988D01*
X148065040Y-274112084D01*
X147927579Y-274279581D01*
X147760082Y-274417042D01*
X147568986Y-274519184D01*
X147568984Y-274519185D01*
X147361637Y-274582084D01*
X147200036Y-274598000D01*
X147091960Y-274598000D01*
X146930359Y-274582084D01*
X146723012Y-274519185D01*
X146723010Y-274519184D01*
X146531914Y-274417042D01*
X146364417Y-274279581D01*
X146226956Y-274112084D01*
X146124814Y-273920988D01*
X146061914Y-273713638D01*
X146040676Y-273498000D01*
X146061914Y-273282362D01*
X146124814Y-273075012D01*
X146226956Y-272883916D01*
X146364417Y-272716419D01*
X146531914Y-272578958D01*
X146723010Y-272476816D01*
X146723012Y-272476815D01*
X146930359Y-272413916D01*
X147091960Y-272398000D01*
X147200036Y-272398000D01*
X147361637Y-272413916D01*
X147361637Y-272413916D01*
G37*
G36*
X149901637Y-272413916D02*
X150108984Y-272476815D01*
X150108986Y-272476816D01*
X150300082Y-272578958D01*
X150467579Y-272716419D01*
X150605040Y-272883916D01*
X150707182Y-273075012D01*
X150770082Y-273282362D01*
X150791320Y-273498000D01*
X150770082Y-273713638D01*
X150707182Y-273920988D01*
X150605040Y-274112084D01*
X150467579Y-274279581D01*
X150300082Y-274417042D01*
X150108986Y-274519184D01*
X150108984Y-274519185D01*
X149901637Y-274582084D01*
X149740036Y-274598000D01*
X149631960Y-274598000D01*
X149470359Y-274582084D01*
X149263012Y-274519185D01*
X149263010Y-274519184D01*
X149071914Y-274417042D01*
X148904417Y-274279581D01*
X148766956Y-274112084D01*
X148664814Y-273920988D01*
X148601914Y-273713638D01*
X148580676Y-273498000D01*
X148601914Y-273282362D01*
X148664814Y-273075012D01*
X148766956Y-272883916D01*
X148904417Y-272716419D01*
X149071914Y-272578958D01*
X149263010Y-272476816D01*
X149263012Y-272476815D01*
X149470359Y-272413916D01*
X149631960Y-272398000D01*
X149740036Y-272398000D01*
X149901637Y-272413916D01*
X149901637Y-272413916D01*
G37*
G36*
X152441637Y-272413916D02*
X152648984Y-272476815D01*
X152648986Y-272476816D01*
X152840082Y-272578958D01*
X153007579Y-272716419D01*
X153145040Y-272883916D01*
X153247182Y-273075012D01*
X153310082Y-273282362D01*
X153331320Y-273498000D01*
X153310082Y-273713638D01*
X153247182Y-273920988D01*
X153145040Y-274112084D01*
X153007579Y-274279581D01*
X152840082Y-274417042D01*
X152648986Y-274519184D01*
X152648984Y-274519185D01*
X152441637Y-274582084D01*
X152280036Y-274598000D01*
X152171960Y-274598000D01*
X152010359Y-274582084D01*
X151803012Y-274519185D01*
X151803010Y-274519184D01*
X151611914Y-274417042D01*
X151444417Y-274279581D01*
X151306956Y-274112084D01*
X151204814Y-273920988D01*
X151141914Y-273713638D01*
X151120676Y-273498000D01*
X151141914Y-273282362D01*
X151204814Y-273075012D01*
X151306956Y-272883916D01*
X151444417Y-272716419D01*
X151611914Y-272578958D01*
X151803010Y-272476816D01*
X151803012Y-272476815D01*
X152010359Y-272413916D01*
X152171960Y-272398000D01*
X152280036Y-272398000D01*
X152441637Y-272413916D01*
X152441637Y-272413916D01*
G37*
G36*
X175301637Y-272413916D02*
X175508984Y-272476815D01*
X175508986Y-272476816D01*
X175700082Y-272578958D01*
X175867579Y-272716419D01*
X176005040Y-272883916D01*
X176107182Y-273075012D01*
X176170082Y-273282362D01*
X176191320Y-273498000D01*
X176170082Y-273713638D01*
X176107182Y-273920988D01*
X176005040Y-274112084D01*
X175867579Y-274279581D01*
X175700082Y-274417042D01*
X175508986Y-274519184D01*
X175508984Y-274519185D01*
X175301637Y-274582084D01*
X175140036Y-274598000D01*
X175031960Y-274598000D01*
X174870359Y-274582084D01*
X174663012Y-274519185D01*
X174663010Y-274519184D01*
X174471914Y-274417042D01*
X174304417Y-274279581D01*
X174166956Y-274112084D01*
X174064814Y-273920988D01*
X174001914Y-273713638D01*
X173980676Y-273498000D01*
X174001914Y-273282362D01*
X174064814Y-273075012D01*
X174166956Y-272883916D01*
X174304417Y-272716419D01*
X174471914Y-272578958D01*
X174663010Y-272476816D01*
X174663012Y-272476815D01*
X174870359Y-272413916D01*
X175031960Y-272398000D01*
X175140036Y-272398000D01*
X175301637Y-272413916D01*
X175301637Y-272413916D01*
G37*
G36*
X172761637Y-272413916D02*
X172968984Y-272476815D01*
X172968986Y-272476816D01*
X173160082Y-272578958D01*
X173327579Y-272716419D01*
X173465040Y-272883916D01*
X173567182Y-273075012D01*
X173630082Y-273282362D01*
X173651320Y-273498000D01*
X173630082Y-273713638D01*
X173567182Y-273920988D01*
X173465040Y-274112084D01*
X173327579Y-274279581D01*
X173160082Y-274417042D01*
X172968986Y-274519184D01*
X172968984Y-274519185D01*
X172761637Y-274582084D01*
X172600036Y-274598000D01*
X172491960Y-274598000D01*
X172330359Y-274582084D01*
X172123012Y-274519185D01*
X172123010Y-274519184D01*
X171931914Y-274417042D01*
X171764417Y-274279581D01*
X171626956Y-274112084D01*
X171524814Y-273920988D01*
X171461914Y-273713638D01*
X171440676Y-273498000D01*
X171461914Y-273282362D01*
X171524814Y-273075012D01*
X171626956Y-272883916D01*
X171764417Y-272716419D01*
X171931914Y-272578958D01*
X172123010Y-272476816D01*
X172123012Y-272476815D01*
X172330359Y-272413916D01*
X172491960Y-272398000D01*
X172600036Y-272398000D01*
X172761637Y-272413916D01*
X172761637Y-272413916D01*
G37*
G36*
X170221637Y-272413916D02*
X170428984Y-272476815D01*
X170428986Y-272476816D01*
X170620082Y-272578958D01*
X170787579Y-272716419D01*
X170925040Y-272883916D01*
X171027182Y-273075012D01*
X171090082Y-273282362D01*
X171111320Y-273498000D01*
X171090082Y-273713638D01*
X171027182Y-273920988D01*
X170925040Y-274112084D01*
X170787579Y-274279581D01*
X170620082Y-274417042D01*
X170428986Y-274519184D01*
X170428984Y-274519185D01*
X170221637Y-274582084D01*
X170060036Y-274598000D01*
X169951960Y-274598000D01*
X169790359Y-274582084D01*
X169583012Y-274519185D01*
X169583010Y-274519184D01*
X169391914Y-274417042D01*
X169224417Y-274279581D01*
X169086956Y-274112084D01*
X168984814Y-273920988D01*
X168921914Y-273713638D01*
X168900676Y-273498000D01*
X168921914Y-273282362D01*
X168984814Y-273075012D01*
X169086956Y-272883916D01*
X169224417Y-272716419D01*
X169391914Y-272578958D01*
X169583010Y-272476816D01*
X169583012Y-272476815D01*
X169790359Y-272413916D01*
X169951960Y-272398000D01*
X170060036Y-272398000D01*
X170221637Y-272413916D01*
X170221637Y-272413916D01*
G37*
G36*
X167681637Y-272413916D02*
X167888984Y-272476815D01*
X167888986Y-272476816D01*
X168080082Y-272578958D01*
X168247579Y-272716419D01*
X168385040Y-272883916D01*
X168487182Y-273075012D01*
X168550082Y-273282362D01*
X168571320Y-273498000D01*
X168550082Y-273713638D01*
X168487182Y-273920988D01*
X168385040Y-274112084D01*
X168247579Y-274279581D01*
X168080082Y-274417042D01*
X167888986Y-274519184D01*
X167888984Y-274519185D01*
X167681637Y-274582084D01*
X167520036Y-274598000D01*
X167411960Y-274598000D01*
X167250359Y-274582084D01*
X167043012Y-274519185D01*
X167043010Y-274519184D01*
X166851914Y-274417042D01*
X166684417Y-274279581D01*
X166546956Y-274112084D01*
X166444814Y-273920988D01*
X166381914Y-273713638D01*
X166360676Y-273498000D01*
X166381914Y-273282362D01*
X166444814Y-273075012D01*
X166546956Y-272883916D01*
X166684417Y-272716419D01*
X166851914Y-272578958D01*
X167043010Y-272476816D01*
X167043012Y-272476815D01*
X167250359Y-272413916D01*
X167411960Y-272398000D01*
X167520036Y-272398000D01*
X167681637Y-272413916D01*
X167681637Y-272413916D01*
G37*
G36*
X165141637Y-272413916D02*
X165348984Y-272476815D01*
X165348986Y-272476816D01*
X165540082Y-272578958D01*
X165707579Y-272716419D01*
X165845040Y-272883916D01*
X165947182Y-273075012D01*
X166010082Y-273282362D01*
X166031320Y-273498000D01*
X166010082Y-273713638D01*
X165947182Y-273920988D01*
X165845040Y-274112084D01*
X165707579Y-274279581D01*
X165540082Y-274417042D01*
X165348986Y-274519184D01*
X165348984Y-274519185D01*
X165141637Y-274582084D01*
X164980036Y-274598000D01*
X164871960Y-274598000D01*
X164710359Y-274582084D01*
X164503012Y-274519185D01*
X164503010Y-274519184D01*
X164311914Y-274417042D01*
X164144417Y-274279581D01*
X164006956Y-274112084D01*
X163904814Y-273920988D01*
X163841914Y-273713638D01*
X163820676Y-273498000D01*
X163841914Y-273282362D01*
X163904814Y-273075012D01*
X164006956Y-272883916D01*
X164144417Y-272716419D01*
X164311914Y-272578958D01*
X164503010Y-272476816D01*
X164503012Y-272476815D01*
X164710359Y-272413916D01*
X164871960Y-272398000D01*
X164980036Y-272398000D01*
X165141637Y-272413916D01*
X165141637Y-272413916D01*
G37*
G36*
X162601637Y-272413916D02*
X162808984Y-272476815D01*
X162808986Y-272476816D01*
X163000082Y-272578958D01*
X163167579Y-272716419D01*
X163305040Y-272883916D01*
X163407182Y-273075012D01*
X163470082Y-273282362D01*
X163491320Y-273498000D01*
X163470082Y-273713638D01*
X163407182Y-273920988D01*
X163305040Y-274112084D01*
X163167579Y-274279581D01*
X163000082Y-274417042D01*
X162808986Y-274519184D01*
X162808984Y-274519185D01*
X162601637Y-274582084D01*
X162440036Y-274598000D01*
X162331960Y-274598000D01*
X162170359Y-274582084D01*
X161963012Y-274519185D01*
X161963010Y-274519184D01*
X161771914Y-274417042D01*
X161604417Y-274279581D01*
X161466956Y-274112084D01*
X161364814Y-273920988D01*
X161301914Y-273713638D01*
X161280676Y-273498000D01*
X161301914Y-273282362D01*
X161364814Y-273075012D01*
X161466956Y-272883916D01*
X161604417Y-272716419D01*
X161771914Y-272578958D01*
X161963010Y-272476816D01*
X161963012Y-272476815D01*
X162170359Y-272413916D01*
X162331960Y-272398000D01*
X162440036Y-272398000D01*
X162601637Y-272413916D01*
X162601637Y-272413916D01*
G37*
G36*
X160061637Y-272413916D02*
X160268984Y-272476815D01*
X160268986Y-272476816D01*
X160460082Y-272578958D01*
X160627579Y-272716419D01*
X160765040Y-272883916D01*
X160867182Y-273075012D01*
X160930082Y-273282362D01*
X160951320Y-273498000D01*
X160930082Y-273713638D01*
X160867182Y-273920988D01*
X160765040Y-274112084D01*
X160627579Y-274279581D01*
X160460082Y-274417042D01*
X160268986Y-274519184D01*
X160268984Y-274519185D01*
X160061637Y-274582084D01*
X159900036Y-274598000D01*
X159791960Y-274598000D01*
X159630359Y-274582084D01*
X159423012Y-274519185D01*
X159423010Y-274519184D01*
X159231914Y-274417042D01*
X159064417Y-274279581D01*
X158926956Y-274112084D01*
X158824814Y-273920988D01*
X158761914Y-273713638D01*
X158740676Y-273498000D01*
X158761914Y-273282362D01*
X158824814Y-273075012D01*
X158926956Y-272883916D01*
X159064417Y-272716419D01*
X159231914Y-272578958D01*
X159423010Y-272476816D01*
X159423012Y-272476815D01*
X159630359Y-272413916D01*
X159791960Y-272398000D01*
X159900036Y-272398000D01*
X160061637Y-272413916D01*
X160061637Y-272413916D01*
G37*
G36*
X157521637Y-272413916D02*
X157728984Y-272476815D01*
X157728986Y-272476816D01*
X157920082Y-272578958D01*
X158087579Y-272716419D01*
X158225040Y-272883916D01*
X158327182Y-273075012D01*
X158390082Y-273282362D01*
X158411320Y-273498000D01*
X158390082Y-273713638D01*
X158327182Y-273920988D01*
X158225040Y-274112084D01*
X158087579Y-274279581D01*
X157920082Y-274417042D01*
X157728986Y-274519184D01*
X157728984Y-274519185D01*
X157521637Y-274582084D01*
X157360036Y-274598000D01*
X157251960Y-274598000D01*
X157090359Y-274582084D01*
X156883012Y-274519185D01*
X156883010Y-274519184D01*
X156691914Y-274417042D01*
X156524417Y-274279581D01*
X156386956Y-274112084D01*
X156284814Y-273920988D01*
X156221914Y-273713638D01*
X156200676Y-273498000D01*
X156221914Y-273282362D01*
X156284814Y-273075012D01*
X156386956Y-272883916D01*
X156524417Y-272716419D01*
X156691914Y-272578958D01*
X156883010Y-272476816D01*
X156883012Y-272476815D01*
X157090359Y-272413916D01*
X157251960Y-272398000D01*
X157360036Y-272398000D01*
X157521637Y-272413916D01*
X157521637Y-272413916D01*
G37*
G36*
X154981637Y-272413916D02*
X155188984Y-272476815D01*
X155188986Y-272476816D01*
X155380082Y-272578958D01*
X155547579Y-272716419D01*
X155685040Y-272883916D01*
X155787182Y-273075012D01*
X155850082Y-273282362D01*
X155871320Y-273498000D01*
X155850082Y-273713638D01*
X155787182Y-273920988D01*
X155685040Y-274112084D01*
X155547579Y-274279581D01*
X155380082Y-274417042D01*
X155188986Y-274519184D01*
X155188984Y-274519185D01*
X154981637Y-274582084D01*
X154820036Y-274598000D01*
X154711960Y-274598000D01*
X154550359Y-274582084D01*
X154343012Y-274519185D01*
X154343010Y-274519184D01*
X154151914Y-274417042D01*
X153984417Y-274279581D01*
X153846956Y-274112084D01*
X153744814Y-273920988D01*
X153681914Y-273713638D01*
X153660676Y-273498000D01*
X153681914Y-273282362D01*
X153744814Y-273075012D01*
X153846956Y-272883916D01*
X153984417Y-272716419D01*
X154151914Y-272578958D01*
X154343010Y-272476816D01*
X154343012Y-272476815D01*
X154550359Y-272413916D01*
X154711960Y-272398000D01*
X154820036Y-272398000D01*
X154981637Y-272413916D01*
X154981637Y-272413916D01*
G37*
G36*
X27790000Y-262700000D02*
X22390000Y-262700000D01*
X22390000Y-257300000D01*
X27790000Y-257300000D01*
X27790000Y-262700000D01*
X27790000Y-262700000D01*
G37*
G36*
X33497560Y-257403759D02*
X33988928Y-257607290D01*
X33988930Y-257607291D01*
X34425268Y-257898843D01*
X34431153Y-257902775D01*
X34807225Y-258278847D01*
X34807227Y-258278850D01*
X34888190Y-258400019D01*
X35102710Y-258721072D01*
X35306241Y-259212440D01*
X35410000Y-259734072D01*
X35410000Y-260265928D01*
X35306241Y-260787560D01*
X35102710Y-261278928D01*
X34807225Y-261721153D01*
X34431153Y-262097225D01*
X34431150Y-262097227D01*
X33988930Y-262392709D01*
X33988929Y-262392710D01*
X33988928Y-262392710D01*
X33497560Y-262596241D01*
X32975928Y-262700000D01*
X32444072Y-262700000D01*
X31922440Y-262596241D01*
X31431072Y-262392710D01*
X31431071Y-262392710D01*
X31431070Y-262392709D01*
X30988850Y-262097227D01*
X30988847Y-262097225D01*
X30612775Y-261721153D01*
X30317290Y-261278928D01*
X30113759Y-260787560D01*
X30010000Y-260265928D01*
X30010000Y-259734072D01*
X30113759Y-259212440D01*
X30317290Y-258721072D01*
X30531811Y-258400019D01*
X30612773Y-258278850D01*
X30612775Y-258278847D01*
X30988847Y-257902775D01*
X30994732Y-257898843D01*
X31431070Y-257607291D01*
X31431072Y-257607290D01*
X31922440Y-257403759D01*
X32444072Y-257300000D01*
X32975928Y-257300000D01*
X33497560Y-257403759D01*
X33497560Y-257403759D01*
G37*
G36*
X120081312Y-257009523D02*
X120599982Y-257224363D01*
X121066772Y-257536262D01*
X121463738Y-257933228D01*
X121775637Y-258400018D01*
X121990477Y-258918688D01*
X122100000Y-259469298D01*
X122100000Y-260030702D01*
X121990477Y-260581312D01*
X121775637Y-261099982D01*
X121463738Y-261566772D01*
X121066772Y-261963738D01*
X120599982Y-262275637D01*
X120081312Y-262490477D01*
X119530702Y-262600000D01*
X118969298Y-262600000D01*
X118418688Y-262490477D01*
X117900018Y-262275637D01*
X117433228Y-261963738D01*
X117036262Y-261566772D01*
X116724363Y-261099982D01*
X116509523Y-260581312D01*
X116400000Y-260030702D01*
X116400000Y-259469298D01*
X116509523Y-258918688D01*
X116724363Y-258400018D01*
X117036262Y-257933228D01*
X117433228Y-257536262D01*
X117900018Y-257224363D01*
X118418688Y-257009523D01*
X118969298Y-256900000D01*
X119530702Y-256900000D01*
X120081312Y-257009523D01*
X120081312Y-257009523D01*
G37*
G36*
X185081310Y-257009523D02*
X185599980Y-257224363D01*
X186066770Y-257536262D01*
X186463736Y-257933228D01*
X186775635Y-258400018D01*
X186990475Y-258918688D01*
X187099998Y-259469298D01*
X187099998Y-260030702D01*
X186990475Y-260581312D01*
X186775635Y-261099982D01*
X186463736Y-261566772D01*
X186066770Y-261963738D01*
X185599980Y-262275637D01*
X185081310Y-262490477D01*
X184530700Y-262600000D01*
X183969296Y-262600000D01*
X183418686Y-262490477D01*
X182900016Y-262275637D01*
X182433226Y-261963738D01*
X182036260Y-261566772D01*
X181724361Y-261099982D01*
X181509521Y-260581312D01*
X181399998Y-260030702D01*
X181399998Y-259469298D01*
X181509521Y-258918688D01*
X181724361Y-258400018D01*
X182036260Y-257933228D01*
X182433226Y-257536262D01*
X182900016Y-257224363D01*
X183418686Y-257009523D01*
X183969296Y-256900000D01*
X184530700Y-256900000D01*
X185081310Y-257009523D01*
X185081310Y-257009523D01*
G37*
G36*
X20839113Y-247806272D02*
X21257329Y-247979503D01*
X21633718Y-248230998D01*
X21953802Y-248551082D01*
X22205297Y-248927471D01*
X22378528Y-249345687D01*
X22466840Y-249789661D01*
X22466840Y-250242339D01*
X22378528Y-250686313D01*
X22205297Y-251104529D01*
X21953802Y-251480918D01*
X21633718Y-251801002D01*
X21257329Y-252052497D01*
X20839113Y-252225728D01*
X20395139Y-252314040D01*
X19942461Y-252314040D01*
X19498487Y-252225728D01*
X19080271Y-252052497D01*
X18703882Y-251801002D01*
X18383798Y-251480918D01*
X18132303Y-251104529D01*
X17959072Y-250686313D01*
X17870760Y-250242339D01*
X17870760Y-249789661D01*
X17959072Y-249345687D01*
X18132303Y-248927471D01*
X18383798Y-248551082D01*
X18703882Y-248230998D01*
X19080271Y-247979503D01*
X19498487Y-247806272D01*
X19942461Y-247717960D01*
X20395139Y-247717960D01*
X20839113Y-247806272D01*
X20839113Y-247806272D01*
G37*
G36*
X20839113Y-240186272D02*
X21257329Y-240359503D01*
X21633718Y-240610998D01*
X21953802Y-240931082D01*
X22205297Y-241307471D01*
X22378528Y-241725687D01*
X22466840Y-242169661D01*
X22466840Y-242622339D01*
X22378528Y-243066313D01*
X22205297Y-243484529D01*
X21953802Y-243860918D01*
X21633718Y-244181002D01*
X21257329Y-244432497D01*
X20839113Y-244605728D01*
X20395139Y-244694040D01*
X19942461Y-244694040D01*
X19498487Y-244605728D01*
X19080271Y-244432497D01*
X18703882Y-244181002D01*
X18383798Y-243860918D01*
X18132303Y-243484529D01*
X17959072Y-243066313D01*
X17870760Y-242622339D01*
X17870760Y-242169661D01*
X17959072Y-241725687D01*
X18132303Y-241307471D01*
X18383798Y-240931082D01*
X18703882Y-240610998D01*
X19080271Y-240359503D01*
X19498487Y-240186272D01*
X19942461Y-240097960D01*
X20395139Y-240097960D01*
X20839113Y-240186272D01*
X20839113Y-240186272D01*
G37*
G36*
X38616941Y-237645051D02*
X38616943Y-237645052D01*
X38616944Y-237645052D01*
X39035392Y-237818378D01*
X39410283Y-238068873D01*
X39411987Y-238070012D01*
X39732248Y-238390273D01*
X39732250Y-238390276D01*
X39983882Y-238766868D01*
X40145030Y-239155916D01*
X40157209Y-239185319D01*
X40245570Y-239629536D01*
X40245570Y-240082464D01*
X40190463Y-240359504D01*
X40157208Y-240526684D01*
X39983882Y-240945132D01*
X39840951Y-241159042D01*
X39732248Y-241321727D01*
X39411987Y-241641988D01*
X39411984Y-241641990D01*
X39035392Y-241893622D01*
X38616944Y-242066948D01*
X38616943Y-242066948D01*
X38616941Y-242066949D01*
X38172724Y-242155310D01*
X37719796Y-242155310D01*
X37275579Y-242066949D01*
X37275577Y-242066948D01*
X37275576Y-242066948D01*
X36857128Y-241893622D01*
X36480536Y-241641990D01*
X36480533Y-241641988D01*
X36160272Y-241321727D01*
X36051569Y-241159042D01*
X35908638Y-240945132D01*
X35735312Y-240526684D01*
X35702058Y-240359504D01*
X35646950Y-240082464D01*
X35646950Y-239629536D01*
X35735311Y-239185319D01*
X35747490Y-239155916D01*
X35908638Y-238766868D01*
X36160270Y-238390276D01*
X36160272Y-238390273D01*
X36480533Y-238070012D01*
X36482237Y-238068873D01*
X36857128Y-237818378D01*
X37275576Y-237645052D01*
X37275577Y-237645052D01*
X37275579Y-237645051D01*
X37719796Y-237556690D01*
X38172724Y-237556690D01*
X38616941Y-237645051D01*
X38616941Y-237645051D01*
G37*
G36*
X179099998Y-241340000D02*
X176899998Y-241340000D01*
X176899998Y-239140000D01*
X179099998Y-239140000D01*
X179099998Y-241340000D01*
X179099998Y-241340000D01*
G37*
G36*
X180755637Y-239155916D02*
X180962984Y-239218815D01*
X180962986Y-239218816D01*
X181154082Y-239320958D01*
X181321579Y-239458419D01*
X181459040Y-239625916D01*
X181561182Y-239817012D01*
X181561183Y-239817014D01*
X181624082Y-240024361D01*
X181645320Y-240240000D01*
X181624082Y-240455639D01*
X181576954Y-240610998D01*
X181561182Y-240662988D01*
X181459040Y-240854084D01*
X181321579Y-241021581D01*
X181154082Y-241159042D01*
X180962986Y-241261184D01*
X180962984Y-241261185D01*
X180755637Y-241324084D01*
X180594036Y-241340000D01*
X180485960Y-241340000D01*
X180324359Y-241324084D01*
X180117012Y-241261185D01*
X180117010Y-241261184D01*
X179925914Y-241159042D01*
X179758417Y-241021581D01*
X179620956Y-240854084D01*
X179518814Y-240662988D01*
X179503043Y-240610998D01*
X179455914Y-240455639D01*
X179434676Y-240240000D01*
X179455914Y-240024361D01*
X179518813Y-239817014D01*
X179518814Y-239817012D01*
X179620956Y-239625916D01*
X179758417Y-239458419D01*
X179925914Y-239320958D01*
X180117010Y-239218816D01*
X180117012Y-239218815D01*
X180324359Y-239155916D01*
X180485960Y-239140000D01*
X180594036Y-239140000D01*
X180755637Y-239155916D01*
X180755637Y-239155916D01*
G37*
G36*
X180755637Y-236615916D02*
X180962984Y-236678815D01*
X180962986Y-236678816D01*
X181154082Y-236780958D01*
X181321579Y-236918419D01*
X181459040Y-237085916D01*
X181561182Y-237277012D01*
X181561183Y-237277014D01*
X181624082Y-237484361D01*
X181645320Y-237700000D01*
X181624082Y-237915639D01*
X181577253Y-238070012D01*
X181561182Y-238122988D01*
X181459040Y-238314084D01*
X181321579Y-238481581D01*
X181154082Y-238619042D01*
X180962986Y-238721184D01*
X180962984Y-238721185D01*
X180755637Y-238784084D01*
X180594036Y-238800000D01*
X180485960Y-238800000D01*
X180324359Y-238784084D01*
X180117012Y-238721185D01*
X180117010Y-238721184D01*
X179925914Y-238619042D01*
X179758417Y-238481581D01*
X179620956Y-238314084D01*
X179518814Y-238122988D01*
X179502744Y-238070012D01*
X179455914Y-237915639D01*
X179434676Y-237700000D01*
X179455914Y-237484361D01*
X179518813Y-237277014D01*
X179518814Y-237277012D01*
X179620956Y-237085916D01*
X179758417Y-236918419D01*
X179925914Y-236780958D01*
X180117010Y-236678816D01*
X180117012Y-236678815D01*
X180324359Y-236615916D01*
X180485960Y-236600000D01*
X180594036Y-236600000D01*
X180755637Y-236615916D01*
X180755637Y-236615916D01*
G37*
G36*
X178215637Y-236615916D02*
X178422984Y-236678815D01*
X178422986Y-236678816D01*
X178614082Y-236780958D01*
X178781579Y-236918419D01*
X178919040Y-237085916D01*
X179021182Y-237277012D01*
X179021183Y-237277014D01*
X179084082Y-237484361D01*
X179105320Y-237700000D01*
X179084082Y-237915639D01*
X179037253Y-238070012D01*
X179021182Y-238122988D01*
X178919040Y-238314084D01*
X178781579Y-238481581D01*
X178614082Y-238619042D01*
X178422986Y-238721184D01*
X178422984Y-238721185D01*
X178215637Y-238784084D01*
X178054036Y-238800000D01*
X177945960Y-238800000D01*
X177784359Y-238784084D01*
X177577012Y-238721185D01*
X177577010Y-238721184D01*
X177385914Y-238619042D01*
X177218417Y-238481581D01*
X177080956Y-238314084D01*
X176978814Y-238122988D01*
X176962744Y-238070012D01*
X176915914Y-237915639D01*
X176894676Y-237700000D01*
X176915914Y-237484361D01*
X176978813Y-237277014D01*
X176978814Y-237277012D01*
X177080956Y-237085916D01*
X177218417Y-236918419D01*
X177385914Y-236780958D01*
X177577010Y-236678816D01*
X177577012Y-236678815D01*
X177784359Y-236615916D01*
X177945960Y-236600000D01*
X178054036Y-236600000D01*
X178215637Y-236615916D01*
X178215637Y-236615916D01*
G37*
G36*
X178215637Y-234075916D02*
X178422984Y-234138815D01*
X178422986Y-234138816D01*
X178614082Y-234240958D01*
X178781579Y-234378419D01*
X178919040Y-234545916D01*
X179021182Y-234737012D01*
X179084082Y-234944362D01*
X179105320Y-235160000D01*
X179084082Y-235375638D01*
X179021182Y-235582988D01*
X178919040Y-235774084D01*
X178781579Y-235941581D01*
X178614082Y-236079042D01*
X178422986Y-236181184D01*
X178422984Y-236181185D01*
X178215637Y-236244084D01*
X178054036Y-236260000D01*
X177945960Y-236260000D01*
X177784359Y-236244084D01*
X177577012Y-236181185D01*
X177577010Y-236181184D01*
X177385914Y-236079042D01*
X177218417Y-235941581D01*
X177080956Y-235774084D01*
X176978814Y-235582988D01*
X176915914Y-235375638D01*
X176894676Y-235160000D01*
X176915914Y-234944362D01*
X176978814Y-234737012D01*
X177080956Y-234545916D01*
X177218417Y-234378419D01*
X177385914Y-234240958D01*
X177577010Y-234138816D01*
X177577012Y-234138815D01*
X177784359Y-234075916D01*
X177945960Y-234060000D01*
X178054036Y-234060000D01*
X178215637Y-234075916D01*
X178215637Y-234075916D01*
G37*
G36*
X180755637Y-234075916D02*
X180962984Y-234138815D01*
X180962986Y-234138816D01*
X181154082Y-234240958D01*
X181321579Y-234378419D01*
X181459040Y-234545916D01*
X181561182Y-234737012D01*
X181624082Y-234944362D01*
X181645320Y-235160000D01*
X181624082Y-235375638D01*
X181561182Y-235582988D01*
X181459040Y-235774084D01*
X181321579Y-235941581D01*
X181154082Y-236079042D01*
X180962986Y-236181184D01*
X180962984Y-236181185D01*
X180755637Y-236244084D01*
X180594036Y-236260000D01*
X180485960Y-236260000D01*
X180324359Y-236244084D01*
X180117012Y-236181185D01*
X180117010Y-236181184D01*
X179925914Y-236079042D01*
X179758417Y-235941581D01*
X179620956Y-235774084D01*
X179518814Y-235582988D01*
X179455914Y-235375638D01*
X179434676Y-235160000D01*
X179455914Y-234944362D01*
X179518814Y-234737012D01*
X179620956Y-234545916D01*
X179758417Y-234378419D01*
X179925914Y-234240958D01*
X180117010Y-234138816D01*
X180117012Y-234138815D01*
X180324359Y-234075916D01*
X180485960Y-234060000D01*
X180594036Y-234060000D01*
X180755637Y-234075916D01*
X180755637Y-234075916D01*
G37*
G36*
X178215637Y-231535916D02*
X178422984Y-231598815D01*
X178422986Y-231598816D01*
X178614082Y-231700958D01*
X178781579Y-231838419D01*
X178919040Y-232005916D01*
X179021182Y-232197012D01*
X179084082Y-232404362D01*
X179105320Y-232620000D01*
X179084082Y-232835638D01*
X179021182Y-233042988D01*
X178919040Y-233234084D01*
X178781579Y-233401581D01*
X178614082Y-233539042D01*
X178422986Y-233641184D01*
X178422984Y-233641185D01*
X178215637Y-233704084D01*
X178054036Y-233720000D01*
X177945960Y-233720000D01*
X177784359Y-233704084D01*
X177577012Y-233641185D01*
X177577010Y-233641184D01*
X177385914Y-233539042D01*
X177218417Y-233401581D01*
X177080956Y-233234084D01*
X176978814Y-233042988D01*
X176915914Y-232835638D01*
X176894676Y-232620000D01*
X176915914Y-232404362D01*
X176978814Y-232197012D01*
X177080956Y-232005916D01*
X177218417Y-231838419D01*
X177385914Y-231700958D01*
X177577010Y-231598816D01*
X177577012Y-231598815D01*
X177784359Y-231535916D01*
X177945960Y-231520000D01*
X178054036Y-231520000D01*
X178215637Y-231535916D01*
X178215637Y-231535916D01*
G37*
G36*
X180755637Y-231535916D02*
X180962984Y-231598815D01*
X180962986Y-231598816D01*
X181154082Y-231700958D01*
X181321579Y-231838419D01*
X181459040Y-232005916D01*
X181561182Y-232197012D01*
X181624082Y-232404362D01*
X181645320Y-232620000D01*
X181624082Y-232835638D01*
X181561182Y-233042988D01*
X181459040Y-233234084D01*
X181321579Y-233401581D01*
X181154082Y-233539042D01*
X180962986Y-233641184D01*
X180962984Y-233641185D01*
X180755637Y-233704084D01*
X180594036Y-233720000D01*
X180485960Y-233720000D01*
X180324359Y-233704084D01*
X180117012Y-233641185D01*
X180117010Y-233641184D01*
X179925914Y-233539042D01*
X179758417Y-233401581D01*
X179620956Y-233234084D01*
X179518814Y-233042988D01*
X179455914Y-232835638D01*
X179434676Y-232620000D01*
X179455914Y-232404362D01*
X179518814Y-232197012D01*
X179620956Y-232005916D01*
X179758417Y-231838419D01*
X179925914Y-231700958D01*
X180117010Y-231598816D01*
X180117012Y-231598815D01*
X180324359Y-231535916D01*
X180485960Y-231520000D01*
X180594036Y-231520000D01*
X180755637Y-231535916D01*
X180755637Y-231535916D01*
G37*
G36*
X178215637Y-228995916D02*
X178422984Y-229058815D01*
X178422986Y-229058816D01*
X178614082Y-229160958D01*
X178781579Y-229298419D01*
X178919040Y-229465916D01*
X179021182Y-229657012D01*
X179084082Y-229864362D01*
X179105320Y-230080000D01*
X179084082Y-230295638D01*
X179021182Y-230502988D01*
X178919040Y-230694084D01*
X178781579Y-230861581D01*
X178614082Y-230999042D01*
X178422986Y-231101184D01*
X178422984Y-231101185D01*
X178215637Y-231164084D01*
X178054036Y-231180000D01*
X177945960Y-231180000D01*
X177784359Y-231164084D01*
X177577012Y-231101185D01*
X177577010Y-231101184D01*
X177385914Y-230999042D01*
X177218417Y-230861581D01*
X177080956Y-230694084D01*
X176978814Y-230502988D01*
X176915914Y-230295638D01*
X176894676Y-230080000D01*
X176915914Y-229864362D01*
X176978814Y-229657012D01*
X177080956Y-229465916D01*
X177218417Y-229298419D01*
X177385914Y-229160958D01*
X177577010Y-229058816D01*
X177577012Y-229058815D01*
X177784359Y-228995916D01*
X177945960Y-228980000D01*
X178054036Y-228980000D01*
X178215637Y-228995916D01*
X178215637Y-228995916D01*
G37*
G36*
X180755637Y-228995916D02*
X180962984Y-229058815D01*
X180962986Y-229058816D01*
X181154082Y-229160958D01*
X181321579Y-229298419D01*
X181459040Y-229465916D01*
X181561182Y-229657012D01*
X181624082Y-229864362D01*
X181645320Y-230080000D01*
X181624082Y-230295638D01*
X181561182Y-230502988D01*
X181459040Y-230694084D01*
X181321579Y-230861581D01*
X181154082Y-230999042D01*
X180962986Y-231101184D01*
X180962984Y-231101185D01*
X180755637Y-231164084D01*
X180594036Y-231180000D01*
X180485960Y-231180000D01*
X180324359Y-231164084D01*
X180117012Y-231101185D01*
X180117010Y-231101184D01*
X179925914Y-230999042D01*
X179758417Y-230861581D01*
X179620956Y-230694084D01*
X179518814Y-230502988D01*
X179455914Y-230295638D01*
X179434676Y-230080000D01*
X179455914Y-229864362D01*
X179518814Y-229657012D01*
X179620956Y-229465916D01*
X179758417Y-229298419D01*
X179925914Y-229160958D01*
X180117010Y-229058816D01*
X180117012Y-229058815D01*
X180324359Y-228995916D01*
X180485960Y-228980000D01*
X180594036Y-228980000D01*
X180755637Y-228995916D01*
X180755637Y-228995916D01*
G37*
G36*
X178215637Y-226455916D02*
X178422984Y-226518815D01*
X178422986Y-226518816D01*
X178614082Y-226620958D01*
X178781579Y-226758419D01*
X178919040Y-226925916D01*
X178977625Y-227035522D01*
X179021183Y-227117014D01*
X179071098Y-227281559D01*
X179084082Y-227324362D01*
X179105320Y-227540000D01*
X179084082Y-227755638D01*
X179021182Y-227962988D01*
X178919040Y-228154084D01*
X178781579Y-228321581D01*
X178614082Y-228459042D01*
X178422986Y-228561184D01*
X178422984Y-228561185D01*
X178215637Y-228624084D01*
X178054036Y-228640000D01*
X177945960Y-228640000D01*
X177784359Y-228624084D01*
X177577012Y-228561185D01*
X177577010Y-228561184D01*
X177385914Y-228459042D01*
X177218417Y-228321581D01*
X177080956Y-228154084D01*
X176978814Y-227962988D01*
X176915914Y-227755638D01*
X176894676Y-227540000D01*
X176915914Y-227324362D01*
X176928898Y-227281559D01*
X176978813Y-227117014D01*
X177022371Y-227035522D01*
X177080956Y-226925916D01*
X177218417Y-226758419D01*
X177385914Y-226620958D01*
X177577010Y-226518816D01*
X177577012Y-226518815D01*
X177784359Y-226455916D01*
X177945960Y-226440000D01*
X178054036Y-226440000D01*
X178215637Y-226455916D01*
X178215637Y-226455916D01*
G37*
G36*
X180755637Y-226455916D02*
X180962984Y-226518815D01*
X180962986Y-226518816D01*
X181154082Y-226620958D01*
X181321579Y-226758419D01*
X181459040Y-226925916D01*
X181517625Y-227035522D01*
X181561183Y-227117014D01*
X181611098Y-227281559D01*
X181624082Y-227324362D01*
X181645320Y-227540000D01*
X181624082Y-227755638D01*
X181561182Y-227962988D01*
X181459040Y-228154084D01*
X181321579Y-228321581D01*
X181154082Y-228459042D01*
X180962986Y-228561184D01*
X180962984Y-228561185D01*
X180755637Y-228624084D01*
X180594036Y-228640000D01*
X180485960Y-228640000D01*
X180324359Y-228624084D01*
X180117012Y-228561185D01*
X180117010Y-228561184D01*
X179925914Y-228459042D01*
X179758417Y-228321581D01*
X179620956Y-228154084D01*
X179518814Y-227962988D01*
X179455914Y-227755638D01*
X179434676Y-227540000D01*
X179455914Y-227324362D01*
X179468898Y-227281559D01*
X179518813Y-227117014D01*
X179562371Y-227035522D01*
X179620956Y-226925916D01*
X179758417Y-226758419D01*
X179925914Y-226620958D01*
X180117010Y-226518816D01*
X180117012Y-226518815D01*
X180324359Y-226455916D01*
X180485960Y-226440000D01*
X180594036Y-226440000D01*
X180755637Y-226455916D01*
X180755637Y-226455916D01*
G37*
G36*
X34503123Y-225957519D02*
X34503125Y-225957520D01*
X34503126Y-225957520D01*
X34730433Y-226051673D01*
X34934083Y-226187748D01*
X34935007Y-226188365D01*
X35108975Y-226362333D01*
X35108977Y-226362336D01*
X35245667Y-226566907D01*
X35339820Y-226794214D01*
X35387820Y-227035522D01*
X35387820Y-227281558D01*
X35339820Y-227522866D01*
X35245667Y-227750173D01*
X35109592Y-227953823D01*
X35108975Y-227954747D01*
X34935007Y-228128715D01*
X34935004Y-228128717D01*
X34730433Y-228265407D01*
X34503126Y-228359560D01*
X34503125Y-228359560D01*
X34503123Y-228359561D01*
X34261819Y-228407560D01*
X34015781Y-228407560D01*
X33774477Y-228359561D01*
X33774475Y-228359560D01*
X33774474Y-228359560D01*
X33547167Y-228265407D01*
X33342596Y-228128717D01*
X33342593Y-228128715D01*
X33168625Y-227954747D01*
X33168008Y-227953823D01*
X33031933Y-227750173D01*
X32937780Y-227522866D01*
X32889780Y-227281558D01*
X32889780Y-227035522D01*
X32937780Y-226794214D01*
X33031933Y-226566907D01*
X33168623Y-226362336D01*
X33168625Y-226362333D01*
X33342593Y-226188365D01*
X33343517Y-226187748D01*
X33547167Y-226051673D01*
X33774474Y-225957520D01*
X33774475Y-225957520D01*
X33774477Y-225957519D01*
X34015781Y-225909520D01*
X34261819Y-225909520D01*
X34503123Y-225957519D01*
X34503123Y-225957519D01*
G37*
G36*
X24345663Y-225957519D02*
X24345665Y-225957520D01*
X24345666Y-225957520D01*
X24572973Y-226051673D01*
X24776623Y-226187748D01*
X24777547Y-226188365D01*
X24951515Y-226362333D01*
X24951517Y-226362336D01*
X25088207Y-226566907D01*
X25182360Y-226794214D01*
X25230360Y-227035522D01*
X25230360Y-227281558D01*
X25182360Y-227522866D01*
X25088207Y-227750173D01*
X24952132Y-227953823D01*
X24951515Y-227954747D01*
X24777547Y-228128715D01*
X24777544Y-228128717D01*
X24572973Y-228265407D01*
X24345666Y-228359560D01*
X24345665Y-228359560D01*
X24345663Y-228359561D01*
X24104359Y-228407560D01*
X23858321Y-228407560D01*
X23617017Y-228359561D01*
X23617015Y-228359560D01*
X23617014Y-228359560D01*
X23389707Y-228265407D01*
X23185136Y-228128717D01*
X23185133Y-228128715D01*
X23011165Y-227954747D01*
X23010548Y-227953823D01*
X22874473Y-227750173D01*
X22780320Y-227522866D01*
X22732320Y-227281558D01*
X22732320Y-227035522D01*
X22780320Y-226794214D01*
X22874473Y-226566907D01*
X23011163Y-226362336D01*
X23011165Y-226362333D01*
X23185133Y-226188365D01*
X23186057Y-226187748D01*
X23389707Y-226051673D01*
X23617014Y-225957520D01*
X23617015Y-225957520D01*
X23617017Y-225957519D01*
X23858321Y-225909520D01*
X24104359Y-225909520D01*
X24345663Y-225957519D01*
X24345663Y-225957519D01*
G37*
G36*
X178215637Y-223915916D02*
X178422984Y-223978815D01*
X178422986Y-223978816D01*
X178614082Y-224080958D01*
X178781579Y-224218419D01*
X178919040Y-224385916D01*
X179021182Y-224577012D01*
X179084082Y-224784362D01*
X179105320Y-225000000D01*
X179084082Y-225215638D01*
X179021182Y-225422988D01*
X178919040Y-225614084D01*
X178781579Y-225781581D01*
X178614082Y-225919042D01*
X178422986Y-226021184D01*
X178422984Y-226021185D01*
X178215637Y-226084084D01*
X178054036Y-226100000D01*
X177945960Y-226100000D01*
X177784359Y-226084084D01*
X177577012Y-226021185D01*
X177577010Y-226021184D01*
X177385914Y-225919042D01*
X177218417Y-225781581D01*
X177080956Y-225614084D01*
X176978814Y-225422988D01*
X176915914Y-225215638D01*
X176894676Y-225000000D01*
X176915914Y-224784362D01*
X176978814Y-224577012D01*
X177080956Y-224385916D01*
X177218417Y-224218419D01*
X177385914Y-224080958D01*
X177577010Y-223978816D01*
X177577012Y-223978815D01*
X177784359Y-223915916D01*
X177945960Y-223900000D01*
X178054036Y-223900000D01*
X178215637Y-223915916D01*
X178215637Y-223915916D01*
G37*
G36*
X180755637Y-223915916D02*
X180962984Y-223978815D01*
X180962986Y-223978816D01*
X181154082Y-224080958D01*
X181321579Y-224218419D01*
X181459040Y-224385916D01*
X181561182Y-224577012D01*
X181624082Y-224784362D01*
X181645320Y-225000000D01*
X181624082Y-225215638D01*
X181561182Y-225422988D01*
X181459040Y-225614084D01*
X181321579Y-225781581D01*
X181154082Y-225919042D01*
X180962986Y-226021184D01*
X180962984Y-226021185D01*
X180755637Y-226084084D01*
X180594036Y-226100000D01*
X180485960Y-226100000D01*
X180324359Y-226084084D01*
X180117012Y-226021185D01*
X180117010Y-226021184D01*
X179925914Y-225919042D01*
X179758417Y-225781581D01*
X179620956Y-225614084D01*
X179518814Y-225422988D01*
X179455914Y-225215638D01*
X179434676Y-225000000D01*
X179455914Y-224784362D01*
X179518814Y-224577012D01*
X179620956Y-224385916D01*
X179758417Y-224218419D01*
X179925914Y-224080958D01*
X180117010Y-223978816D01*
X180117012Y-223978815D01*
X180324359Y-223915916D01*
X180485960Y-223900000D01*
X180594036Y-223900000D01*
X180755637Y-223915916D01*
X180755637Y-223915916D01*
G37*
G36*
X196581312Y-203009523D02*
X197099982Y-203224363D01*
X197566772Y-203536262D01*
X197963738Y-203933228D01*
X198275637Y-204400018D01*
X198490477Y-204918688D01*
X198600000Y-205469298D01*
X198600000Y-206030702D01*
X198490477Y-206581312D01*
X198275637Y-207099982D01*
X197963738Y-207566772D01*
X197566772Y-207963738D01*
X197099982Y-208275637D01*
X196581312Y-208490477D01*
X196030702Y-208600000D01*
X195469298Y-208600000D01*
X194918688Y-208490477D01*
X194400018Y-208275637D01*
X193933228Y-207963738D01*
X193536262Y-207566772D01*
X193224363Y-207099982D01*
X193009523Y-206581312D01*
X192900000Y-206030702D01*
X192900000Y-205469298D01*
X193009523Y-204918688D01*
X193224363Y-204400018D01*
X193536262Y-203933228D01*
X193933228Y-203536262D01*
X194400018Y-203224363D01*
X194918688Y-203009523D01*
X195469298Y-202900000D01*
X196030702Y-202900000D01*
X196581312Y-203009523D01*
X196581312Y-203009523D01*
G37*
G36*
X13384000Y-205618000D02*
X9984000Y-205618000D01*
X9984000Y-203418000D01*
X13384000Y-203418000D01*
X13384000Y-205618000D01*
X13384000Y-205618000D01*
G37*
G36*
X99331312Y-199259523D02*
X99849982Y-199474363D01*
X100316772Y-199786262D01*
X100713738Y-200183228D01*
X101025637Y-200650018D01*
X101240477Y-201168688D01*
X101350000Y-201719298D01*
X101350000Y-202280702D01*
X101240477Y-202831312D01*
X101025637Y-203349982D01*
X100713738Y-203816772D01*
X100316772Y-204213738D01*
X99849982Y-204525637D01*
X99331312Y-204740477D01*
X98780702Y-204850000D01*
X98219298Y-204850000D01*
X97668688Y-204740477D01*
X97150018Y-204525637D01*
X96683228Y-204213738D01*
X96286262Y-203816772D01*
X95974363Y-203349982D01*
X95759523Y-202831312D01*
X95650000Y-202280702D01*
X95650000Y-201719298D01*
X95759523Y-201168688D01*
X95974363Y-200650018D01*
X96286262Y-200183228D01*
X96683228Y-199786262D01*
X97150018Y-199474363D01*
X97668688Y-199259523D01*
X98219298Y-199150000D01*
X98780702Y-199150000D01*
X99331312Y-199259523D01*
X99331312Y-199259523D01*
G37*
G36*
X12499639Y-200893916D02*
X12706986Y-200956815D01*
X12706988Y-200956816D01*
X12898084Y-201058958D01*
X13065581Y-201196419D01*
X13203042Y-201363916D01*
X13305184Y-201555012D01*
X13305185Y-201555014D01*
X13368084Y-201762361D01*
X13389322Y-201978000D01*
X13368084Y-202193639D01*
X13341674Y-202280701D01*
X13305184Y-202400988D01*
X13203042Y-202592084D01*
X13065581Y-202759581D01*
X12898084Y-202897042D01*
X12706988Y-202999184D01*
X12706986Y-202999185D01*
X12499639Y-203062084D01*
X12338038Y-203078000D01*
X11029962Y-203078000D01*
X10868361Y-203062084D01*
X10661014Y-202999185D01*
X10661012Y-202999184D01*
X10469916Y-202897042D01*
X10302419Y-202759581D01*
X10164958Y-202592084D01*
X10062816Y-202400988D01*
X10026327Y-202280701D01*
X9999916Y-202193639D01*
X9978678Y-201978000D01*
X9999916Y-201762361D01*
X10062815Y-201555014D01*
X10062816Y-201555012D01*
X10164958Y-201363916D01*
X10302419Y-201196419D01*
X10469916Y-201058958D01*
X10661012Y-200956816D01*
X10661014Y-200956815D01*
X10868361Y-200893916D01*
X11029962Y-200878000D01*
X12338038Y-200878000D01*
X12499639Y-200893916D01*
X12499639Y-200893916D01*
G37*
G36*
X12499639Y-198353916D02*
X12706986Y-198416815D01*
X12706988Y-198416816D01*
X12898084Y-198518958D01*
X13065581Y-198656419D01*
X13203042Y-198823916D01*
X13305184Y-199015012D01*
X13305185Y-199015014D01*
X13368084Y-199222361D01*
X13389322Y-199438000D01*
X13368084Y-199653639D01*
X13327853Y-199786262D01*
X13305184Y-199860988D01*
X13203042Y-200052084D01*
X13065581Y-200219581D01*
X12898084Y-200357042D01*
X12706988Y-200459184D01*
X12706986Y-200459185D01*
X12499639Y-200522084D01*
X12338038Y-200538000D01*
X11029962Y-200538000D01*
X10868361Y-200522084D01*
X10661014Y-200459185D01*
X10661012Y-200459184D01*
X10469916Y-200357042D01*
X10302419Y-200219581D01*
X10164958Y-200052084D01*
X10062816Y-199860988D01*
X10040148Y-199786262D01*
X9999916Y-199653639D01*
X9978678Y-199438000D01*
X9999916Y-199222361D01*
X10062815Y-199015014D01*
X10062816Y-199015012D01*
X10164958Y-198823916D01*
X10302419Y-198656419D01*
X10469916Y-198518958D01*
X10661012Y-198416816D01*
X10661014Y-198416815D01*
X10868361Y-198353916D01*
X11029962Y-198338000D01*
X12338038Y-198338000D01*
X12499639Y-198353916D01*
X12499639Y-198353916D01*
G37*
G36*
X12499639Y-195813916D02*
X12706986Y-195876815D01*
X12706988Y-195876816D01*
X12898084Y-195978958D01*
X13065581Y-196116419D01*
X13203042Y-196283916D01*
X13305184Y-196475012D01*
X13368084Y-196682362D01*
X13389322Y-196898000D01*
X13368084Y-197113638D01*
X13305184Y-197320988D01*
X13203042Y-197512084D01*
X13065581Y-197679581D01*
X12898084Y-197817042D01*
X12706988Y-197919184D01*
X12706986Y-197919185D01*
X12499639Y-197982084D01*
X12338038Y-197998000D01*
X11029962Y-197998000D01*
X10868361Y-197982084D01*
X10661014Y-197919185D01*
X10661012Y-197919184D01*
X10469916Y-197817042D01*
X10302419Y-197679581D01*
X10164958Y-197512084D01*
X10062816Y-197320988D01*
X9999916Y-197113638D01*
X9978678Y-196898000D01*
X9999916Y-196682362D01*
X10062816Y-196475012D01*
X10164958Y-196283916D01*
X10302419Y-196116419D01*
X10469916Y-195978958D01*
X10661012Y-195876816D01*
X10661014Y-195876815D01*
X10868361Y-195813916D01*
X11029962Y-195798000D01*
X12338038Y-195798000D01*
X12499639Y-195813916D01*
X12499639Y-195813916D01*
G37*
G36*
X12499639Y-193273916D02*
X12706986Y-193336815D01*
X12706988Y-193336816D01*
X12898084Y-193438958D01*
X13065581Y-193576419D01*
X13203042Y-193743916D01*
X13305184Y-193935012D01*
X13368084Y-194142362D01*
X13389322Y-194358000D01*
X13368084Y-194573638D01*
X13305184Y-194780988D01*
X13203042Y-194972084D01*
X13065581Y-195139581D01*
X12898084Y-195277042D01*
X12706988Y-195379184D01*
X12706986Y-195379185D01*
X12499639Y-195442084D01*
X12338038Y-195458000D01*
X11029962Y-195458000D01*
X10868361Y-195442084D01*
X10661014Y-195379185D01*
X10661012Y-195379184D01*
X10469916Y-195277042D01*
X10302419Y-195139581D01*
X10164958Y-194972084D01*
X10062816Y-194780988D01*
X9999916Y-194573638D01*
X9978678Y-194358000D01*
X9999916Y-194142362D01*
X10062816Y-193935012D01*
X10164958Y-193743916D01*
X10302419Y-193576419D01*
X10469916Y-193438958D01*
X10661012Y-193336816D01*
X10661014Y-193336815D01*
X10868361Y-193273916D01*
X11029962Y-193258000D01*
X12338038Y-193258000D01*
X12499639Y-193273916D01*
X12499639Y-193273916D01*
G37*
G36*
X13384000Y-191040000D02*
X9984000Y-191040000D01*
X9984000Y-188840000D01*
X13384000Y-188840000D01*
X13384000Y-191040000D01*
X13384000Y-191040000D01*
G37*
G36*
X12499639Y-186315916D02*
X12706986Y-186378815D01*
X12706988Y-186378816D01*
X12898084Y-186480958D01*
X13065581Y-186618419D01*
X13203042Y-186785916D01*
X13305184Y-186977012D01*
X13368084Y-187184362D01*
X13389322Y-187400000D01*
X13368084Y-187615638D01*
X13305184Y-187822988D01*
X13203042Y-188014084D01*
X13065581Y-188181581D01*
X12898084Y-188319042D01*
X12706988Y-188421184D01*
X12706986Y-188421185D01*
X12499639Y-188484084D01*
X12338038Y-188500000D01*
X11029962Y-188500000D01*
X10868361Y-188484084D01*
X10661014Y-188421185D01*
X10661012Y-188421184D01*
X10469916Y-188319042D01*
X10302419Y-188181581D01*
X10164958Y-188014084D01*
X10062816Y-187822988D01*
X9999916Y-187615638D01*
X9978678Y-187400000D01*
X9999916Y-187184362D01*
X10062816Y-186977012D01*
X10164958Y-186785916D01*
X10302419Y-186618419D01*
X10469916Y-186480958D01*
X10661012Y-186378816D01*
X10661014Y-186378815D01*
X10868361Y-186315916D01*
X11029962Y-186300000D01*
X12338038Y-186300000D01*
X12499639Y-186315916D01*
X12499639Y-186315916D01*
G37*
G36*
X12499639Y-183775916D02*
X12706986Y-183838815D01*
X12706988Y-183838816D01*
X12898084Y-183940958D01*
X13065581Y-184078419D01*
X13203042Y-184245916D01*
X13305184Y-184437012D01*
X13368084Y-184644362D01*
X13389322Y-184860000D01*
X13368084Y-185075638D01*
X13305184Y-185282988D01*
X13203042Y-185474084D01*
X13065581Y-185641581D01*
X12898084Y-185779042D01*
X12706988Y-185881184D01*
X12706986Y-185881185D01*
X12499639Y-185944084D01*
X12338038Y-185960000D01*
X11029962Y-185960000D01*
X10868361Y-185944084D01*
X10661014Y-185881185D01*
X10661012Y-185881184D01*
X10469916Y-185779042D01*
X10302419Y-185641581D01*
X10164958Y-185474084D01*
X10062816Y-185282988D01*
X9999916Y-185075638D01*
X9978678Y-184860000D01*
X9999916Y-184644362D01*
X10062816Y-184437012D01*
X10164958Y-184245916D01*
X10302419Y-184078419D01*
X10469916Y-183940958D01*
X10661012Y-183838816D01*
X10661014Y-183838815D01*
X10868361Y-183775916D01*
X11029962Y-183760000D01*
X12338038Y-183760000D01*
X12499639Y-183775916D01*
X12499639Y-183775916D01*
G37*
G36*
X12499639Y-181235916D02*
X12706986Y-181298815D01*
X12706988Y-181298816D01*
X12898084Y-181400958D01*
X13065581Y-181538419D01*
X13203042Y-181705916D01*
X13305184Y-181897012D01*
X13368084Y-182104362D01*
X13389322Y-182320000D01*
X13368084Y-182535638D01*
X13305184Y-182742988D01*
X13203042Y-182934084D01*
X13065581Y-183101581D01*
X12898084Y-183239042D01*
X12706988Y-183341184D01*
X12706986Y-183341185D01*
X12499639Y-183404084D01*
X12338038Y-183420000D01*
X11029962Y-183420000D01*
X10868361Y-183404084D01*
X10661014Y-183341185D01*
X10661012Y-183341184D01*
X10469916Y-183239042D01*
X10302419Y-183101581D01*
X10164958Y-182934084D01*
X10062816Y-182742988D01*
X9999916Y-182535638D01*
X9978678Y-182320000D01*
X9999916Y-182104362D01*
X10062816Y-181897012D01*
X10164958Y-181705916D01*
X10302419Y-181538419D01*
X10469916Y-181400958D01*
X10661012Y-181298816D01*
X10661014Y-181298815D01*
X10868361Y-181235916D01*
X11029962Y-181220000D01*
X12338038Y-181220000D01*
X12499639Y-181235916D01*
X12499639Y-181235916D01*
G37*
G36*
X13384000Y-178040000D02*
X9984000Y-178040000D01*
X9984000Y-175840000D01*
X13384000Y-175840000D01*
X13384000Y-178040000D01*
X13384000Y-178040000D01*
G37*
G36*
X12499639Y-173315916D02*
X12706986Y-173378815D01*
X12706988Y-173378816D01*
X12898084Y-173480958D01*
X13065581Y-173618419D01*
X13203042Y-173785916D01*
X13305184Y-173977012D01*
X13368084Y-174184362D01*
X13389322Y-174400000D01*
X13368084Y-174615638D01*
X13305184Y-174822988D01*
X13203042Y-175014084D01*
X13065581Y-175181581D01*
X12898084Y-175319042D01*
X12706988Y-175421184D01*
X12706986Y-175421185D01*
X12499639Y-175484084D01*
X12338038Y-175500000D01*
X11029962Y-175500000D01*
X10868361Y-175484084D01*
X10661014Y-175421185D01*
X10661012Y-175421184D01*
X10469916Y-175319042D01*
X10302419Y-175181581D01*
X10164958Y-175014084D01*
X10062816Y-174822988D01*
X9999916Y-174615638D01*
X9978678Y-174400000D01*
X9999916Y-174184362D01*
X10062816Y-173977012D01*
X10164958Y-173785916D01*
X10302419Y-173618419D01*
X10469916Y-173480958D01*
X10661012Y-173378816D01*
X10661014Y-173378815D01*
X10868361Y-173315916D01*
X11029962Y-173300000D01*
X12338038Y-173300000D01*
X12499639Y-173315916D01*
X12499639Y-173315916D01*
G37*
G36*
X12499639Y-170775916D02*
X12706986Y-170838815D01*
X12706988Y-170838816D01*
X12898084Y-170940958D01*
X13065581Y-171078419D01*
X13203042Y-171245916D01*
X13305184Y-171437012D01*
X13368084Y-171644362D01*
X13389322Y-171860000D01*
X13368084Y-172075638D01*
X13305184Y-172282988D01*
X13203042Y-172474084D01*
X13065581Y-172641581D01*
X12898084Y-172779042D01*
X12706988Y-172881184D01*
X12706986Y-172881185D01*
X12499639Y-172944084D01*
X12338038Y-172960000D01*
X11029962Y-172960000D01*
X10868361Y-172944084D01*
X10661014Y-172881185D01*
X10661012Y-172881184D01*
X10469916Y-172779042D01*
X10302419Y-172641581D01*
X10164958Y-172474084D01*
X10062816Y-172282988D01*
X9999916Y-172075638D01*
X9978678Y-171860000D01*
X9999916Y-171644362D01*
X10062816Y-171437012D01*
X10164958Y-171245916D01*
X10302419Y-171078419D01*
X10469916Y-170940958D01*
X10661012Y-170838816D01*
X10661014Y-170838815D01*
X10868361Y-170775916D01*
X11029962Y-170760000D01*
X12338038Y-170760000D01*
X12499639Y-170775916D01*
X12499639Y-170775916D01*
G37*
G36*
X12499639Y-168235916D02*
X12706986Y-168298815D01*
X12706988Y-168298816D01*
X12898084Y-168400958D01*
X13065581Y-168538419D01*
X13203042Y-168705916D01*
X13305184Y-168897012D01*
X13368084Y-169104362D01*
X13389322Y-169320000D01*
X13368084Y-169535638D01*
X13305184Y-169742988D01*
X13203042Y-169934084D01*
X13065581Y-170101581D01*
X12898084Y-170239042D01*
X12706988Y-170341184D01*
X12706986Y-170341185D01*
X12499639Y-170404084D01*
X12338038Y-170420000D01*
X11029962Y-170420000D01*
X10868361Y-170404084D01*
X10661014Y-170341185D01*
X10661012Y-170341184D01*
X10469916Y-170239042D01*
X10302419Y-170101581D01*
X10164958Y-169934084D01*
X10062816Y-169742988D01*
X9999916Y-169535638D01*
X9978678Y-169320000D01*
X9999916Y-169104362D01*
X10062816Y-168897012D01*
X10164958Y-168705916D01*
X10302419Y-168538419D01*
X10469916Y-168400958D01*
X10661012Y-168298816D01*
X10661014Y-168298815D01*
X10868361Y-168235916D01*
X11029962Y-168220000D01*
X12338038Y-168220000D01*
X12499639Y-168235916D01*
X12499639Y-168235916D01*
G37*
G36*
X13384000Y-163040000D02*
X9984000Y-163040000D01*
X9984000Y-160840000D01*
X13384000Y-160840000D01*
X13384000Y-163040000D01*
X13384000Y-163040000D01*
G37*
G36*
X12499639Y-158315916D02*
X12706986Y-158378815D01*
X12706988Y-158378816D01*
X12898084Y-158480958D01*
X13065581Y-158618419D01*
X13203042Y-158785916D01*
X13305184Y-158977012D01*
X13368084Y-159184362D01*
X13389322Y-159400000D01*
X13368084Y-159615638D01*
X13305184Y-159822988D01*
X13203042Y-160014084D01*
X13065581Y-160181581D01*
X12898084Y-160319042D01*
X12706988Y-160421184D01*
X12706986Y-160421185D01*
X12499639Y-160484084D01*
X12338038Y-160500000D01*
X11029962Y-160500000D01*
X10868361Y-160484084D01*
X10661014Y-160421185D01*
X10661012Y-160421184D01*
X10469916Y-160319042D01*
X10302419Y-160181581D01*
X10164958Y-160014084D01*
X10062816Y-159822988D01*
X9999916Y-159615638D01*
X9978678Y-159400000D01*
X9999916Y-159184362D01*
X10062816Y-158977012D01*
X10164958Y-158785916D01*
X10302419Y-158618419D01*
X10469916Y-158480958D01*
X10661012Y-158378816D01*
X10661014Y-158378815D01*
X10868361Y-158315916D01*
X11029962Y-158300000D01*
X12338038Y-158300000D01*
X12499639Y-158315916D01*
X12499639Y-158315916D01*
G37*
G36*
X12499639Y-155775916D02*
X12706986Y-155838815D01*
X12706988Y-155838816D01*
X12898084Y-155940958D01*
X13065581Y-156078419D01*
X13203042Y-156245916D01*
X13305184Y-156437012D01*
X13368084Y-156644362D01*
X13389322Y-156860000D01*
X13368084Y-157075638D01*
X13305184Y-157282988D01*
X13203042Y-157474084D01*
X13065581Y-157641581D01*
X12898084Y-157779042D01*
X12706988Y-157881184D01*
X12706986Y-157881185D01*
X12499639Y-157944084D01*
X12338038Y-157960000D01*
X11029962Y-157960000D01*
X10868361Y-157944084D01*
X10661014Y-157881185D01*
X10661012Y-157881184D01*
X10469916Y-157779042D01*
X10302419Y-157641581D01*
X10164958Y-157474084D01*
X10062816Y-157282988D01*
X9999916Y-157075638D01*
X9978678Y-156860000D01*
X9999916Y-156644362D01*
X10062816Y-156437012D01*
X10164958Y-156245916D01*
X10302419Y-156078419D01*
X10469916Y-155940958D01*
X10661012Y-155838816D01*
X10661014Y-155838815D01*
X10868361Y-155775916D01*
X11029962Y-155760000D01*
X12338038Y-155760000D01*
X12499639Y-155775916D01*
X12499639Y-155775916D01*
G37*
G36*
X12499639Y-153235916D02*
X12706986Y-153298815D01*
X12706988Y-153298816D01*
X12898084Y-153400958D01*
X13065581Y-153538419D01*
X13203042Y-153705916D01*
X13305184Y-153897012D01*
X13368084Y-154104362D01*
X13389322Y-154320000D01*
X13368084Y-154535638D01*
X13305184Y-154742988D01*
X13203042Y-154934084D01*
X13065581Y-155101581D01*
X12898084Y-155239042D01*
X12706988Y-155341184D01*
X12706986Y-155341185D01*
X12499639Y-155404084D01*
X12338038Y-155420000D01*
X11029962Y-155420000D01*
X10868361Y-155404084D01*
X10661014Y-155341185D01*
X10661012Y-155341184D01*
X10469916Y-155239042D01*
X10302419Y-155101581D01*
X10164958Y-154934084D01*
X10062816Y-154742988D01*
X9999916Y-154535638D01*
X9978678Y-154320000D01*
X9999916Y-154104362D01*
X10062816Y-153897012D01*
X10164958Y-153705916D01*
X10302419Y-153538419D01*
X10469916Y-153400958D01*
X10661012Y-153298816D01*
X10661014Y-153298815D01*
X10868361Y-153235916D01*
X11029962Y-153220000D01*
X12338038Y-153220000D01*
X12499639Y-153235916D01*
X12499639Y-153235916D01*
G37*
G36*
X196581312Y-147509523D02*
X197099982Y-147724363D01*
X197566772Y-148036262D01*
X197963738Y-148433228D01*
X198275637Y-148900018D01*
X198490477Y-149418688D01*
X198600000Y-149969298D01*
X198600000Y-150530702D01*
X198490477Y-151081312D01*
X198275637Y-151599982D01*
X197963738Y-152066772D01*
X197566772Y-152463738D01*
X197099982Y-152775637D01*
X196581312Y-152990477D01*
X196030702Y-153100000D01*
X195469298Y-153100000D01*
X194918688Y-152990477D01*
X194400018Y-152775637D01*
X193933228Y-152463738D01*
X193536262Y-152066772D01*
X193224363Y-151599982D01*
X193009523Y-151081312D01*
X192900000Y-150530702D01*
X192900000Y-149969298D01*
X193009523Y-149418688D01*
X193224363Y-148900018D01*
X193536262Y-148433228D01*
X193933228Y-148036262D01*
X194400018Y-147724363D01*
X194918688Y-147509523D01*
X195469298Y-147400000D01*
X196030702Y-147400000D01*
X196581312Y-147509523D01*
X196581312Y-147509523D01*
G37*
G36*
X190409122Y-143246115D02*
X190525041Y-143269173D01*
X190852620Y-143404861D01*
X191143511Y-143599228D01*
X191147436Y-143601851D01*
X191398149Y-143852564D01*
X191595140Y-144147382D01*
X191730827Y-144474960D01*
X191800000Y-144822714D01*
X191800000Y-145177286D01*
X191730827Y-145525040D01*
X191595140Y-145852618D01*
X191398149Y-146147436D01*
X191147436Y-146398149D01*
X191147433Y-146398151D01*
X190852620Y-146595139D01*
X190525041Y-146730827D01*
X190409122Y-146753885D01*
X190177286Y-146800000D01*
X189822714Y-146800000D01*
X189590878Y-146753885D01*
X189474959Y-146730827D01*
X189147380Y-146595139D01*
X188852567Y-146398151D01*
X188852564Y-146398149D01*
X188601851Y-146147436D01*
X188404860Y-145852618D01*
X188269173Y-145525040D01*
X188200000Y-145177286D01*
X188200000Y-144822714D01*
X188269173Y-144474960D01*
X188404860Y-144147382D01*
X188601851Y-143852564D01*
X188852564Y-143601851D01*
X188856489Y-143599228D01*
X189147380Y-143404861D01*
X189474959Y-143269173D01*
X189590878Y-143246115D01*
X189822714Y-143200000D01*
X190177286Y-143200000D01*
X190409122Y-143246115D01*
X190409122Y-143246115D01*
G37*
G36*
X10409122Y-143246115D02*
X10525041Y-143269173D01*
X10852620Y-143404861D01*
X11143511Y-143599228D01*
X11147436Y-143601851D01*
X11398149Y-143852564D01*
X11595140Y-144147382D01*
X11730827Y-144474960D01*
X11800000Y-144822714D01*
X11800000Y-145177286D01*
X11730827Y-145525040D01*
X11595140Y-145852618D01*
X11398149Y-146147436D01*
X11147436Y-146398149D01*
X11147433Y-146398151D01*
X10852620Y-146595139D01*
X10525041Y-146730827D01*
X10409122Y-146753885D01*
X10177286Y-146800000D01*
X9822714Y-146800000D01*
X9590878Y-146753885D01*
X9474959Y-146730827D01*
X9147380Y-146595139D01*
X8852567Y-146398151D01*
X8852564Y-146398149D01*
X8601851Y-146147436D01*
X8404860Y-145852618D01*
X8269173Y-145525040D01*
X8200000Y-145177286D01*
X8200000Y-144822714D01*
X8269173Y-144474960D01*
X8404860Y-144147382D01*
X8601851Y-143852564D01*
X8852564Y-143601851D01*
X8856489Y-143599228D01*
X9147380Y-143404861D01*
X9474959Y-143269173D01*
X9590878Y-143246115D01*
X9822714Y-143200000D01*
X10177286Y-143200000D01*
X10409122Y-143246115D01*
X10409122Y-143246115D01*
G37*
G36*
X78581312Y-123009523D02*
X79099982Y-123224363D01*
X79566772Y-123536262D01*
X79963738Y-123933228D01*
X80275637Y-124400018D01*
X80490477Y-124918688D01*
X80600000Y-125469298D01*
X80600000Y-126030702D01*
X80490477Y-126581312D01*
X80275637Y-127099982D01*
X79963738Y-127566772D01*
X79566772Y-127963738D01*
X79099982Y-128275637D01*
X78581312Y-128490477D01*
X78030702Y-128600000D01*
X77469298Y-128600000D01*
X76918688Y-128490477D01*
X76400018Y-128275637D01*
X75933228Y-127963738D01*
X75536262Y-127566772D01*
X75224363Y-127099982D01*
X75009523Y-126581312D01*
X74900000Y-126030702D01*
X74900000Y-125469298D01*
X75009523Y-124918688D01*
X75224363Y-124400018D01*
X75536262Y-123933228D01*
X75933228Y-123536262D01*
X76400018Y-123224363D01*
X76918688Y-123009523D01*
X77469298Y-122900000D01*
X78030702Y-122900000D01*
X78581312Y-123009523D01*
X78581312Y-123009523D01*
G37*
G36*
X38616231Y-123813746D02*
X38705769Y-123840907D01*
X38795308Y-123868068D01*
X38960347Y-123956283D01*
X39105001Y-124074999D01*
X39223717Y-124219653D01*
X39311932Y-124384691D01*
X39366254Y-124563769D01*
X39380000Y-124703334D01*
X39380000Y-126296666D01*
X39366254Y-126436231D01*
X39311932Y-126615309D01*
X39223717Y-126780347D01*
X39105001Y-126925001D01*
X38960347Y-127043717D01*
X38795309Y-127131932D01*
X38705770Y-127159093D01*
X38616232Y-127186254D01*
X38430000Y-127204596D01*
X38243769Y-127186254D01*
X38154231Y-127159093D01*
X38064692Y-127131932D01*
X37899654Y-127043717D01*
X37755000Y-126925001D01*
X37636284Y-126780347D01*
X37548068Y-126615306D01*
X37493746Y-126436234D01*
X37480000Y-126296666D01*
X37480000Y-124703335D01*
X37493746Y-124563770D01*
X37493747Y-124563768D01*
X37548068Y-124384693D01*
X37548068Y-124384692D01*
X37636283Y-124219653D01*
X37754999Y-124074999D01*
X37899653Y-123956283D01*
X38064691Y-123868068D01*
X38154230Y-123840907D01*
X38243768Y-123813746D01*
X38430000Y-123795404D01*
X38616231Y-123813746D01*
X38616231Y-123813746D01*
G37*
G36*
X41920000Y-127200000D02*
X40020000Y-127200000D01*
X40020000Y-123800000D01*
X41920000Y-123800000D01*
X41920000Y-127200000D01*
X41920000Y-127200000D01*
G37*
G36*
X9792208Y-118545516D02*
X9869337Y-118553113D01*
X10001288Y-118593140D01*
X10067264Y-118613153D01*
X10249673Y-118710653D01*
X10409555Y-118841866D01*
X10540768Y-119001748D01*
X10638268Y-119184157D01*
X10638268Y-119184158D01*
X10698308Y-119382084D01*
X10718581Y-119587920D01*
X10698308Y-119793756D01*
X10658281Y-119925707D01*
X10638268Y-119991683D01*
X10540768Y-120174092D01*
X10409555Y-120333974D01*
X10249673Y-120465187D01*
X10067264Y-120562687D01*
X10001288Y-120582700D01*
X9869337Y-120622727D01*
X9792208Y-120630324D01*
X9715081Y-120637920D01*
X9311921Y-120637920D01*
X9234794Y-120630324D01*
X9157665Y-120622727D01*
X9025714Y-120582700D01*
X8959738Y-120562687D01*
X8777329Y-120465187D01*
X8617447Y-120333974D01*
X8486234Y-120174092D01*
X8388734Y-119991683D01*
X8368721Y-119925707D01*
X8328694Y-119793756D01*
X8308421Y-119587920D01*
X8328694Y-119382084D01*
X8388734Y-119184158D01*
X8388734Y-119184157D01*
X8486234Y-119001748D01*
X8617447Y-118841866D01*
X8777329Y-118710653D01*
X8959738Y-118613153D01*
X9025714Y-118593140D01*
X9157665Y-118553113D01*
X9234794Y-118545516D01*
X9311921Y-118537920D01*
X9715081Y-118537920D01*
X9792208Y-118545516D01*
X9792208Y-118545516D01*
G37*
G36*
X24905310Y-114069942D02*
X25305684Y-114235782D01*
X25666015Y-114476548D01*
X25972444Y-114782977D01*
X26213210Y-115143308D01*
X26379050Y-115543682D01*
X26463594Y-115968715D01*
X26463594Y-116402081D01*
X26379050Y-116827114D01*
X26213210Y-117227488D01*
X25972444Y-117587819D01*
X25666015Y-117894248D01*
X25305684Y-118135014D01*
X24905310Y-118300854D01*
X24480277Y-118385398D01*
X24046911Y-118385398D01*
X23621878Y-118300854D01*
X23221504Y-118135014D01*
X22861173Y-117894248D01*
X22554744Y-117587819D01*
X22313978Y-117227488D01*
X22148138Y-116827114D01*
X22063594Y-116402081D01*
X22063594Y-115968715D01*
X22148138Y-115543682D01*
X22313978Y-115143308D01*
X22554744Y-114782977D01*
X22861173Y-114476548D01*
X23221504Y-114235782D01*
X23621878Y-114069942D01*
X24046911Y-113985398D01*
X24480277Y-113985398D01*
X24905310Y-114069942D01*
X24905310Y-114069942D01*
G37*
G36*
X17285310Y-114069942D02*
X17685684Y-114235782D01*
X18046015Y-114476548D01*
X18352444Y-114782977D01*
X18593210Y-115143308D01*
X18759050Y-115543682D01*
X18843594Y-115968715D01*
X18843594Y-116402081D01*
X18759050Y-116827114D01*
X18593210Y-117227488D01*
X18352444Y-117587819D01*
X18046015Y-117894248D01*
X17685684Y-118135014D01*
X17285310Y-118300854D01*
X16860277Y-118385398D01*
X16426911Y-118385398D01*
X16001878Y-118300854D01*
X15601504Y-118135014D01*
X15241173Y-117894248D01*
X14934744Y-117587819D01*
X14693978Y-117227488D01*
X14528138Y-116827114D01*
X14443594Y-116402081D01*
X14443594Y-115968715D01*
X14528138Y-115543682D01*
X14693978Y-115143308D01*
X14934744Y-114782977D01*
X15241173Y-114476548D01*
X15601504Y-114235782D01*
X16001878Y-114069942D01*
X16426911Y-113985398D01*
X16860277Y-113985398D01*
X17285310Y-114069942D01*
X17285310Y-114069942D01*
G37*
G36*
X34639233Y-114251314D02*
X34846580Y-114314213D01*
X34846582Y-114314214D01*
X35037678Y-114416356D01*
X35205175Y-114553817D01*
X35342636Y-114721314D01*
X35444778Y-114912410D01*
X35507678Y-115119760D01*
X35523594Y-115281362D01*
X35523594Y-117089434D01*
X35507678Y-117251036D01*
X35444778Y-117458386D01*
X35342636Y-117649482D01*
X35205175Y-117816979D01*
X35037678Y-117954440D01*
X34863632Y-118047468D01*
X34846579Y-118056583D01*
X34639232Y-118119482D01*
X34423594Y-118140720D01*
X34207955Y-118119482D01*
X34000608Y-118056583D01*
X33983555Y-118047468D01*
X33809510Y-117954440D01*
X33642013Y-117816979D01*
X33504552Y-117649482D01*
X33402410Y-117458385D01*
X33339511Y-117251037D01*
X33339510Y-117251036D01*
X33323594Y-117089435D01*
X33323594Y-115281361D01*
X33339511Y-115119759D01*
X33402410Y-114912412D01*
X33402411Y-114912410D01*
X33504553Y-114721314D01*
X33642014Y-114553817D01*
X33809511Y-114416356D01*
X34000607Y-114314214D01*
X34000609Y-114314213D01*
X34207956Y-114251314D01*
X34423594Y-114230076D01*
X34639233Y-114251314D01*
X34639233Y-114251314D01*
G37*
G36*
X37179233Y-114251314D02*
X37386580Y-114314213D01*
X37386582Y-114314214D01*
X37577678Y-114416356D01*
X37745175Y-114553817D01*
X37882636Y-114721314D01*
X37984778Y-114912410D01*
X38047678Y-115119760D01*
X38063594Y-115281362D01*
X38063594Y-117089434D01*
X38047678Y-117251036D01*
X37984778Y-117458386D01*
X37882636Y-117649482D01*
X37745175Y-117816979D01*
X37577678Y-117954440D01*
X37403632Y-118047468D01*
X37386579Y-118056583D01*
X37179232Y-118119482D01*
X36963594Y-118140720D01*
X36747955Y-118119482D01*
X36540608Y-118056583D01*
X36523555Y-118047468D01*
X36349510Y-117954440D01*
X36182013Y-117816979D01*
X36044552Y-117649482D01*
X35942410Y-117458385D01*
X35879511Y-117251037D01*
X35879510Y-117251036D01*
X35863594Y-117089435D01*
X35863594Y-115281361D01*
X35879511Y-115119759D01*
X35942410Y-114912412D01*
X35942411Y-114912410D01*
X36044553Y-114721314D01*
X36182014Y-114553817D01*
X36349511Y-114416356D01*
X36540607Y-114314214D01*
X36540609Y-114314213D01*
X36747956Y-114251314D01*
X36963594Y-114230076D01*
X37179233Y-114251314D01*
X37179233Y-114251314D01*
G37*
G36*
X10535826Y-116042751D02*
X10577099Y-116055271D01*
X10615130Y-116075599D01*
X10648465Y-116102956D01*
X10675822Y-116136291D01*
X10696150Y-116174322D01*
X10708670Y-116215595D01*
X10713501Y-116264646D01*
X10713501Y-117911194D01*
X10708670Y-117960245D01*
X10696150Y-118001518D01*
X10675822Y-118039549D01*
X10648465Y-118072884D01*
X10615130Y-118100241D01*
X10577099Y-118120569D01*
X10535826Y-118133089D01*
X10486775Y-118137920D01*
X8540227Y-118137920D01*
X8491176Y-118133089D01*
X8449903Y-118120569D01*
X8411872Y-118100241D01*
X8378537Y-118072884D01*
X8351180Y-118039549D01*
X8330852Y-118001518D01*
X8318332Y-117960245D01*
X8313501Y-117911194D01*
X8313501Y-116264646D01*
X8318332Y-116215595D01*
X8330852Y-116174322D01*
X8351180Y-116136291D01*
X8378537Y-116102956D01*
X8411872Y-116075599D01*
X8449903Y-116055271D01*
X8491176Y-116042751D01*
X8540227Y-116037920D01*
X10486775Y-116037920D01*
X10535826Y-116042751D01*
X10535826Y-116042751D01*
G37*
G36*
X190081312Y-105009523D02*
X190599982Y-105224363D01*
X191066772Y-105536262D01*
X191463738Y-105933228D01*
X191775637Y-106400018D01*
X191990477Y-106918688D01*
X192100000Y-107469298D01*
X192100000Y-108030702D01*
X191990477Y-108581312D01*
X191775637Y-109099982D01*
X191463738Y-109566772D01*
X191066772Y-109963738D01*
X190599982Y-110275637D01*
X190081312Y-110490477D01*
X189530702Y-110600000D01*
X188969298Y-110600000D01*
X188418688Y-110490477D01*
X187900018Y-110275637D01*
X187433228Y-109963738D01*
X187036262Y-109566772D01*
X186724363Y-109099982D01*
X186509523Y-108581312D01*
X186400000Y-108030702D01*
X186400000Y-107469298D01*
X186509523Y-106918688D01*
X186724363Y-106400018D01*
X187036262Y-105933228D01*
X187433228Y-105536262D01*
X187900018Y-105224363D01*
X188418688Y-105009523D01*
X188969298Y-104900000D01*
X189530702Y-104900000D01*
X190081312Y-105009523D01*
X190081312Y-105009523D01*
G37*
G36*
X106581312Y-105009523D02*
X107099982Y-105224363D01*
X107566772Y-105536262D01*
X107963738Y-105933228D01*
X108275637Y-106400018D01*
X108490477Y-106918688D01*
X108600000Y-107469298D01*
X108600000Y-108030702D01*
X108490477Y-108581312D01*
X108275637Y-109099982D01*
X107963738Y-109566772D01*
X107566772Y-109963738D01*
X107099982Y-110275637D01*
X106581312Y-110490477D01*
X106030702Y-110600000D01*
X105469298Y-110600000D01*
X104918688Y-110490477D01*
X104400018Y-110275637D01*
X103933228Y-109963738D01*
X103536262Y-109566772D01*
X103224363Y-109099982D01*
X103009523Y-108581312D01*
X102900000Y-108030702D01*
X102900000Y-107469298D01*
X103009523Y-106918688D01*
X103224363Y-106400018D01*
X103536262Y-105933228D01*
X103933228Y-105536262D01*
X104400018Y-105224363D01*
X104918688Y-105009523D01*
X105469298Y-104900000D01*
X106030702Y-104900000D01*
X106581312Y-105009523D01*
X106581312Y-105009523D01*
G37*
G36*
X9792208Y-105425516D02*
X9869337Y-105433113D01*
X10001288Y-105473140D01*
X10067264Y-105493153D01*
X10249673Y-105590653D01*
X10409555Y-105721866D01*
X10540768Y-105881748D01*
X10638268Y-106064157D01*
X10638268Y-106064158D01*
X10698308Y-106262084D01*
X10718581Y-106467920D01*
X10698308Y-106673756D01*
X10658281Y-106805707D01*
X10638268Y-106871683D01*
X10540768Y-107054092D01*
X10409555Y-107213974D01*
X10249673Y-107345187D01*
X10067264Y-107442687D01*
X10001288Y-107462700D01*
X9869337Y-107502727D01*
X9792208Y-107510323D01*
X9715081Y-107517920D01*
X9311921Y-107517920D01*
X9234794Y-107510323D01*
X9157665Y-107502727D01*
X9025714Y-107462700D01*
X8959738Y-107442687D01*
X8777329Y-107345187D01*
X8617447Y-107213974D01*
X8486234Y-107054092D01*
X8388734Y-106871683D01*
X8368721Y-106805707D01*
X8328694Y-106673756D01*
X8308421Y-106467920D01*
X8328694Y-106262084D01*
X8388734Y-106064158D01*
X8388734Y-106064157D01*
X8486234Y-105881748D01*
X8617447Y-105721866D01*
X8777329Y-105590653D01*
X8959738Y-105493153D01*
X9025714Y-105473140D01*
X9157665Y-105433113D01*
X9234794Y-105425516D01*
X9311921Y-105417920D01*
X9715081Y-105417920D01*
X9792208Y-105425516D01*
X9792208Y-105425516D01*
G37*
G36*
X17285310Y-100792343D02*
X17685684Y-100958183D01*
X18046015Y-101198949D01*
X18352444Y-101505378D01*
X18593210Y-101865709D01*
X18759050Y-102266083D01*
X18843594Y-102691116D01*
X18843594Y-103124482D01*
X18759050Y-103549515D01*
X18593210Y-103949889D01*
X18352444Y-104310220D01*
X18046015Y-104616649D01*
X17685684Y-104857415D01*
X17285310Y-105023255D01*
X16860277Y-105107799D01*
X16426911Y-105107799D01*
X16001878Y-105023255D01*
X15601504Y-104857415D01*
X15241173Y-104616649D01*
X14934744Y-104310220D01*
X14693978Y-103949889D01*
X14528138Y-103549515D01*
X14443594Y-103124482D01*
X14443594Y-102691116D01*
X14528138Y-102266083D01*
X14693978Y-101865709D01*
X14934744Y-101505378D01*
X15241173Y-101198949D01*
X15601504Y-100958183D01*
X16001878Y-100792343D01*
X16426911Y-100707799D01*
X16860277Y-100707799D01*
X17285310Y-100792343D01*
X17285310Y-100792343D01*
G37*
G36*
X24905310Y-100792343D02*
X25305684Y-100958183D01*
X25666015Y-101198949D01*
X25972444Y-101505378D01*
X26213210Y-101865709D01*
X26379050Y-102266083D01*
X26463594Y-102691116D01*
X26463594Y-103124482D01*
X26379050Y-103549515D01*
X26213210Y-103949889D01*
X25972444Y-104310220D01*
X25666015Y-104616649D01*
X25305684Y-104857415D01*
X24905310Y-105023255D01*
X24480277Y-105107799D01*
X24046911Y-105107799D01*
X23621878Y-105023255D01*
X23221504Y-104857415D01*
X22861173Y-104616649D01*
X22554744Y-104310220D01*
X22313978Y-103949889D01*
X22148138Y-103549515D01*
X22063594Y-103124482D01*
X22063594Y-102691116D01*
X22148138Y-102266083D01*
X22313978Y-101865709D01*
X22554744Y-101505378D01*
X22861173Y-101198949D01*
X23221504Y-100958183D01*
X23621878Y-100792343D01*
X24046911Y-100707799D01*
X24480277Y-100707799D01*
X24905310Y-100792343D01*
X24905310Y-100792343D01*
G37*
G36*
X10535826Y-102922751D02*
X10577099Y-102935271D01*
X10615130Y-102955599D01*
X10648465Y-102982956D01*
X10675822Y-103016291D01*
X10696150Y-103054322D01*
X10708670Y-103095595D01*
X10713501Y-103144646D01*
X10713501Y-104791194D01*
X10708670Y-104840245D01*
X10696150Y-104881518D01*
X10675822Y-104919549D01*
X10648465Y-104952884D01*
X10615130Y-104980241D01*
X10577099Y-105000569D01*
X10535826Y-105013089D01*
X10486775Y-105017920D01*
X8540227Y-105017920D01*
X8491176Y-105013089D01*
X8449903Y-105000569D01*
X8411872Y-104980241D01*
X8378537Y-104952884D01*
X8351180Y-104919549D01*
X8330852Y-104881518D01*
X8318332Y-104840245D01*
X8313501Y-104791194D01*
X8313501Y-103144646D01*
X8318332Y-103095595D01*
X8330852Y-103054322D01*
X8351180Y-103016291D01*
X8378537Y-102982956D01*
X8411872Y-102955599D01*
X8449903Y-102935271D01*
X8491176Y-102922751D01*
X8540227Y-102917920D01*
X10486775Y-102917920D01*
X10535826Y-102922751D01*
X10535826Y-102922751D01*
G37*
G36*
X34639233Y-100973715D02*
X34846580Y-101036614D01*
X34846582Y-101036615D01*
X35037678Y-101138757D01*
X35205175Y-101276218D01*
X35342636Y-101443715D01*
X35444778Y-101634811D01*
X35507678Y-101842161D01*
X35523594Y-102003763D01*
X35523594Y-103811835D01*
X35507678Y-103973437D01*
X35444778Y-104180787D01*
X35342636Y-104371883D01*
X35205175Y-104539380D01*
X35037678Y-104676841D01*
X34846581Y-104778983D01*
X34846579Y-104778984D01*
X34639232Y-104841883D01*
X34423594Y-104863121D01*
X34207955Y-104841883D01*
X34000608Y-104778984D01*
X34000606Y-104778983D01*
X33809510Y-104676841D01*
X33642013Y-104539380D01*
X33504552Y-104371883D01*
X33402410Y-104180786D01*
X33339511Y-103973438D01*
X33339510Y-103973437D01*
X33323594Y-103811836D01*
X33323594Y-102003762D01*
X33339511Y-101842160D01*
X33402410Y-101634813D01*
X33402411Y-101634811D01*
X33504553Y-101443715D01*
X33642014Y-101276218D01*
X33809511Y-101138757D01*
X34000607Y-101036615D01*
X34000609Y-101036614D01*
X34207956Y-100973715D01*
X34423594Y-100952477D01*
X34639233Y-100973715D01*
X34639233Y-100973715D01*
G37*
G36*
X37179233Y-100973715D02*
X37386580Y-101036614D01*
X37386582Y-101036615D01*
X37577678Y-101138757D01*
X37745175Y-101276218D01*
X37882636Y-101443715D01*
X37984778Y-101634811D01*
X38047678Y-101842161D01*
X38063594Y-102003763D01*
X38063594Y-103811835D01*
X38047678Y-103973437D01*
X37984778Y-104180787D01*
X37882636Y-104371883D01*
X37745175Y-104539380D01*
X37577678Y-104676841D01*
X37386581Y-104778983D01*
X37386579Y-104778984D01*
X37179232Y-104841883D01*
X36963594Y-104863121D01*
X36747955Y-104841883D01*
X36540608Y-104778984D01*
X36540606Y-104778983D01*
X36349510Y-104676841D01*
X36182013Y-104539380D01*
X36044552Y-104371883D01*
X35942410Y-104180786D01*
X35879511Y-103973438D01*
X35879510Y-103973437D01*
X35863594Y-103811836D01*
X35863594Y-102003762D01*
X35879511Y-101842160D01*
X35942410Y-101634813D01*
X35942411Y-101634811D01*
X36044553Y-101443715D01*
X36182014Y-101276218D01*
X36349511Y-101138757D01*
X36540607Y-101036615D01*
X36540609Y-101036614D01*
X36747956Y-100973715D01*
X36963594Y-100952477D01*
X37179233Y-100973715D01*
X37179233Y-100973715D01*
G37*
G36*
X9717208Y-96530367D02*
X9794337Y-96537963D01*
X9926288Y-96577990D01*
X9992264Y-96598003D01*
X10174673Y-96695503D01*
X10334555Y-96826716D01*
X10465768Y-96986598D01*
X10563268Y-97169007D01*
X10563268Y-97169008D01*
X10623308Y-97366934D01*
X10643581Y-97572770D01*
X10623308Y-97778606D01*
X10583281Y-97910557D01*
X10563268Y-97976533D01*
X10465768Y-98158942D01*
X10334555Y-98318824D01*
X10174673Y-98450037D01*
X9992264Y-98547537D01*
X9926288Y-98567550D01*
X9794337Y-98607577D01*
X9717208Y-98615174D01*
X9640081Y-98622770D01*
X9286921Y-98622770D01*
X9209794Y-98615174D01*
X9132665Y-98607577D01*
X9000714Y-98567550D01*
X8934738Y-98547537D01*
X8752329Y-98450037D01*
X8592447Y-98318824D01*
X8461234Y-98158942D01*
X8363734Y-97976533D01*
X8343721Y-97910557D01*
X8303694Y-97778606D01*
X8283421Y-97572770D01*
X8303694Y-97366934D01*
X8363734Y-97169008D01*
X8363734Y-97169007D01*
X8461234Y-96986598D01*
X8592447Y-96826716D01*
X8752329Y-96695503D01*
X8934738Y-96598003D01*
X9000714Y-96577990D01*
X9132665Y-96537963D01*
X9209794Y-96530367D01*
X9286921Y-96522770D01*
X9640081Y-96522770D01*
X9717208Y-96530367D01*
X9717208Y-96530367D01*
G37*
G36*
X9717208Y-94030366D02*
X9794337Y-94037963D01*
X9926288Y-94077990D01*
X9992264Y-94098003D01*
X10174673Y-94195503D01*
X10334555Y-94326716D01*
X10465768Y-94486598D01*
X10563268Y-94669007D01*
X10563268Y-94669008D01*
X10623308Y-94866934D01*
X10643581Y-95072770D01*
X10623308Y-95278606D01*
X10609845Y-95322988D01*
X10563268Y-95476533D01*
X10465768Y-95658942D01*
X10334555Y-95818824D01*
X10174673Y-95950037D01*
X9992264Y-96047537D01*
X9926288Y-96067550D01*
X9794337Y-96107577D01*
X9717208Y-96115173D01*
X9640081Y-96122770D01*
X9286921Y-96122770D01*
X9209794Y-96115173D01*
X9132665Y-96107577D01*
X9000714Y-96067550D01*
X8934738Y-96047537D01*
X8752329Y-95950037D01*
X8592447Y-95818824D01*
X8461234Y-95658942D01*
X8363734Y-95476533D01*
X8317157Y-95322988D01*
X8303694Y-95278606D01*
X8283421Y-95072770D01*
X8303694Y-94866934D01*
X8363734Y-94669008D01*
X8363734Y-94669007D01*
X8461234Y-94486598D01*
X8592447Y-94326716D01*
X8752329Y-94195503D01*
X8934738Y-94098003D01*
X9000714Y-94077990D01*
X9132665Y-94037963D01*
X9209794Y-94030366D01*
X9286921Y-94022770D01*
X9640081Y-94022770D01*
X9717208Y-94030366D01*
X9717208Y-94030366D01*
G37*
G36*
X104555639Y-93815916D02*
X104762986Y-93878815D01*
X104762988Y-93878816D01*
X104954084Y-93980958D01*
X105121581Y-94118419D01*
X105259042Y-94285916D01*
X105361184Y-94477012D01*
X105361185Y-94477014D01*
X105424084Y-94684361D01*
X105445322Y-94900000D01*
X105424084Y-95115639D01*
X105374648Y-95278606D01*
X105361184Y-95322988D01*
X105259042Y-95514084D01*
X105121581Y-95681581D01*
X104954084Y-95819042D01*
X104762988Y-95921184D01*
X104762986Y-95921185D01*
X104555639Y-95984084D01*
X104394038Y-96000000D01*
X104285962Y-96000000D01*
X104124361Y-95984084D01*
X103917014Y-95921185D01*
X103917012Y-95921184D01*
X103725916Y-95819042D01*
X103558419Y-95681581D01*
X103420958Y-95514084D01*
X103318816Y-95322988D01*
X103305353Y-95278606D01*
X103255916Y-95115639D01*
X103234678Y-94900000D01*
X103255916Y-94684361D01*
X103318815Y-94477014D01*
X103318816Y-94477012D01*
X103420958Y-94285916D01*
X103558419Y-94118419D01*
X103725916Y-93980958D01*
X103917012Y-93878816D01*
X103917014Y-93878815D01*
X104124361Y-93815916D01*
X104285962Y-93800000D01*
X104394038Y-93800000D01*
X104555639Y-93815916D01*
X104555639Y-93815916D01*
G37*
G36*
X99475639Y-93815916D02*
X99682986Y-93878815D01*
X99682988Y-93878816D01*
X99874084Y-93980958D01*
X100041581Y-94118419D01*
X100179042Y-94285916D01*
X100281184Y-94477012D01*
X100281185Y-94477014D01*
X100344084Y-94684361D01*
X100365322Y-94900000D01*
X100344084Y-95115639D01*
X100294648Y-95278606D01*
X100281184Y-95322988D01*
X100179042Y-95514084D01*
X100041581Y-95681581D01*
X99874084Y-95819042D01*
X99682988Y-95921184D01*
X99682986Y-95921185D01*
X99475639Y-95984084D01*
X99314038Y-96000000D01*
X99205962Y-96000000D01*
X99044361Y-95984084D01*
X98837014Y-95921185D01*
X98837012Y-95921184D01*
X98645916Y-95819042D01*
X98478419Y-95681581D01*
X98340958Y-95514084D01*
X98238816Y-95322988D01*
X98225353Y-95278606D01*
X98175916Y-95115639D01*
X98154678Y-94900000D01*
X98175916Y-94684361D01*
X98238815Y-94477014D01*
X98238816Y-94477012D01*
X98340958Y-94285916D01*
X98478419Y-94118419D01*
X98645916Y-93980958D01*
X98837012Y-93878816D01*
X98837014Y-93878815D01*
X99044361Y-93815916D01*
X99205962Y-93800000D01*
X99314038Y-93800000D01*
X99475639Y-93815916D01*
X99475639Y-93815916D01*
G37*
G36*
X96935639Y-93815916D02*
X97142986Y-93878815D01*
X97142988Y-93878816D01*
X97334084Y-93980958D01*
X97501581Y-94118419D01*
X97639042Y-94285916D01*
X97741184Y-94477012D01*
X97741185Y-94477014D01*
X97804084Y-94684361D01*
X97825322Y-94900000D01*
X97804084Y-95115639D01*
X97754648Y-95278606D01*
X97741184Y-95322988D01*
X97639042Y-95514084D01*
X97501581Y-95681581D01*
X97334084Y-95819042D01*
X97142988Y-95921184D01*
X97142986Y-95921185D01*
X96935639Y-95984084D01*
X96774038Y-96000000D01*
X96665962Y-96000000D01*
X96504361Y-95984084D01*
X96297014Y-95921185D01*
X96297012Y-95921184D01*
X96105916Y-95819042D01*
X95938419Y-95681581D01*
X95800958Y-95514084D01*
X95698816Y-95322988D01*
X95685353Y-95278606D01*
X95635916Y-95115639D01*
X95614678Y-94900000D01*
X95635916Y-94684361D01*
X95698815Y-94477014D01*
X95698816Y-94477012D01*
X95800958Y-94285916D01*
X95938419Y-94118419D01*
X96105916Y-93980958D01*
X96297012Y-93878816D01*
X96297014Y-93878815D01*
X96504361Y-93815916D01*
X96665962Y-93800000D01*
X96774038Y-93800000D01*
X96935639Y-93815916D01*
X96935639Y-93815916D01*
G37*
G36*
X91855639Y-93815916D02*
X92062986Y-93878815D01*
X92062988Y-93878816D01*
X92254084Y-93980958D01*
X92421581Y-94118419D01*
X92559042Y-94285916D01*
X92661184Y-94477012D01*
X92661185Y-94477014D01*
X92724084Y-94684361D01*
X92745322Y-94900000D01*
X92724084Y-95115639D01*
X92674648Y-95278606D01*
X92661184Y-95322988D01*
X92559042Y-95514084D01*
X92421581Y-95681581D01*
X92254084Y-95819042D01*
X92062988Y-95921184D01*
X92062986Y-95921185D01*
X91855639Y-95984084D01*
X91694038Y-96000000D01*
X91585962Y-96000000D01*
X91424361Y-95984084D01*
X91217014Y-95921185D01*
X91217012Y-95921184D01*
X91025916Y-95819042D01*
X90858419Y-95681581D01*
X90720958Y-95514084D01*
X90618816Y-95322988D01*
X90605353Y-95278606D01*
X90555916Y-95115639D01*
X90534678Y-94900000D01*
X90555916Y-94684361D01*
X90618815Y-94477014D01*
X90618816Y-94477012D01*
X90720958Y-94285916D01*
X90858419Y-94118419D01*
X91025916Y-93980958D01*
X91217012Y-93878816D01*
X91217014Y-93878815D01*
X91424361Y-93815916D01*
X91585962Y-93800000D01*
X91694038Y-93800000D01*
X91855639Y-93815916D01*
X91855639Y-93815916D01*
G37*
G36*
X90200000Y-96000000D02*
X88000000Y-96000000D01*
X88000000Y-93800000D01*
X90200000Y-93800000D01*
X90200000Y-96000000D01*
X90200000Y-96000000D01*
G37*
G36*
X102015639Y-93815916D02*
X102222986Y-93878815D01*
X102222988Y-93878816D01*
X102414084Y-93980958D01*
X102581581Y-94118419D01*
X102719042Y-94285916D01*
X102821184Y-94477012D01*
X102821185Y-94477014D01*
X102884084Y-94684361D01*
X102905322Y-94900000D01*
X102884084Y-95115639D01*
X102834648Y-95278606D01*
X102821184Y-95322988D01*
X102719042Y-95514084D01*
X102581581Y-95681581D01*
X102414084Y-95819042D01*
X102222988Y-95921184D01*
X102222986Y-95921185D01*
X102015639Y-95984084D01*
X101854038Y-96000000D01*
X101745962Y-96000000D01*
X101584361Y-95984084D01*
X101377014Y-95921185D01*
X101377012Y-95921184D01*
X101185916Y-95819042D01*
X101018419Y-95681581D01*
X100880958Y-95514084D01*
X100778816Y-95322988D01*
X100765353Y-95278606D01*
X100715916Y-95115639D01*
X100694678Y-94900000D01*
X100715916Y-94684361D01*
X100778815Y-94477014D01*
X100778816Y-94477012D01*
X100880958Y-94285916D01*
X101018419Y-94118419D01*
X101185916Y-93980958D01*
X101377012Y-93878816D01*
X101377014Y-93878815D01*
X101584361Y-93815916D01*
X101745962Y-93800000D01*
X101854038Y-93800000D01*
X102015639Y-93815916D01*
X102015639Y-93815916D01*
G37*
G36*
X94395639Y-93815916D02*
X94602986Y-93878815D01*
X94602988Y-93878816D01*
X94794084Y-93980958D01*
X94961581Y-94118419D01*
X95099042Y-94285916D01*
X95201184Y-94477012D01*
X95201185Y-94477014D01*
X95264084Y-94684361D01*
X95285322Y-94900000D01*
X95264084Y-95115639D01*
X95214648Y-95278606D01*
X95201184Y-95322988D01*
X95099042Y-95514084D01*
X94961581Y-95681581D01*
X94794084Y-95819042D01*
X94602988Y-95921184D01*
X94602986Y-95921185D01*
X94395639Y-95984084D01*
X94234038Y-96000000D01*
X94125962Y-96000000D01*
X93964361Y-95984084D01*
X93757014Y-95921185D01*
X93757012Y-95921184D01*
X93565916Y-95819042D01*
X93398419Y-95681581D01*
X93260958Y-95514084D01*
X93158816Y-95322988D01*
X93145353Y-95278606D01*
X93095916Y-95115639D01*
X93074678Y-94900000D01*
X93095916Y-94684361D01*
X93158815Y-94477014D01*
X93158816Y-94477012D01*
X93260958Y-94285916D01*
X93398419Y-94118419D01*
X93565916Y-93980958D01*
X93757012Y-93878816D01*
X93757014Y-93878815D01*
X93964361Y-93815916D01*
X94125962Y-93800000D01*
X94234038Y-93800000D01*
X94395639Y-93815916D01*
X94395639Y-93815916D01*
G37*
G36*
X9717208Y-91530366D02*
X9794337Y-91537963D01*
X9926288Y-91577990D01*
X9992264Y-91598003D01*
X10174673Y-91695503D01*
X10334555Y-91826716D01*
X10465768Y-91986598D01*
X10563268Y-92169007D01*
X10563268Y-92169008D01*
X10623308Y-92366934D01*
X10643581Y-92572770D01*
X10623308Y-92778606D01*
X10583281Y-92910557D01*
X10563268Y-92976533D01*
X10465768Y-93158942D01*
X10334555Y-93318824D01*
X10174673Y-93450037D01*
X9992264Y-93547537D01*
X9926288Y-93567550D01*
X9794337Y-93607577D01*
X9717208Y-93615173D01*
X9640081Y-93622770D01*
X9286921Y-93622770D01*
X9209794Y-93615173D01*
X9132665Y-93607577D01*
X9000714Y-93567550D01*
X8934738Y-93547537D01*
X8752329Y-93450037D01*
X8592447Y-93318824D01*
X8461234Y-93158942D01*
X8363734Y-92976533D01*
X8343721Y-92910557D01*
X8303694Y-92778606D01*
X8283421Y-92572770D01*
X8303694Y-92366934D01*
X8363734Y-92169008D01*
X8363734Y-92169007D01*
X8461234Y-91986598D01*
X8592447Y-91826716D01*
X8752329Y-91695503D01*
X8934738Y-91598003D01*
X9000714Y-91577990D01*
X9132665Y-91537963D01*
X9209794Y-91530366D01*
X9286921Y-91522770D01*
X9640081Y-91522770D01*
X9717208Y-91530366D01*
X9717208Y-91530366D01*
G37*
G36*
X94395639Y-91275916D02*
X94602986Y-91338815D01*
X94602988Y-91338816D01*
X94794084Y-91440958D01*
X94961581Y-91578419D01*
X95099042Y-91745916D01*
X95201184Y-91937012D01*
X95201185Y-91937014D01*
X95264084Y-92144361D01*
X95285322Y-92360000D01*
X95264084Y-92575639D01*
X95202514Y-92778606D01*
X95201184Y-92782988D01*
X95099042Y-92974084D01*
X94961581Y-93141581D01*
X94794084Y-93279042D01*
X94602988Y-93381184D01*
X94602986Y-93381185D01*
X94395639Y-93444084D01*
X94234038Y-93460000D01*
X94125962Y-93460000D01*
X93964361Y-93444084D01*
X93757014Y-93381185D01*
X93757012Y-93381184D01*
X93565916Y-93279042D01*
X93398419Y-93141581D01*
X93260958Y-92974084D01*
X93158816Y-92782988D01*
X93157487Y-92778606D01*
X93095916Y-92575639D01*
X93074678Y-92360000D01*
X93095916Y-92144361D01*
X93158815Y-91937014D01*
X93158816Y-91937012D01*
X93260958Y-91745916D01*
X93398419Y-91578419D01*
X93565916Y-91440958D01*
X93757012Y-91338816D01*
X93757014Y-91338815D01*
X93964361Y-91275916D01*
X94125962Y-91260000D01*
X94234038Y-91260000D01*
X94395639Y-91275916D01*
X94395639Y-91275916D01*
G37*
G36*
X89315639Y-91275916D02*
X89522986Y-91338815D01*
X89522988Y-91338816D01*
X89714084Y-91440958D01*
X89881581Y-91578419D01*
X90019042Y-91745916D01*
X90121184Y-91937012D01*
X90121185Y-91937014D01*
X90184084Y-92144361D01*
X90205322Y-92360000D01*
X90184084Y-92575639D01*
X90122514Y-92778606D01*
X90121184Y-92782988D01*
X90019042Y-92974084D01*
X89881581Y-93141581D01*
X89714084Y-93279042D01*
X89522988Y-93381184D01*
X89522986Y-93381185D01*
X89315639Y-93444084D01*
X89154038Y-93460000D01*
X89045962Y-93460000D01*
X88884361Y-93444084D01*
X88677014Y-93381185D01*
X88677012Y-93381184D01*
X88485916Y-93279042D01*
X88318419Y-93141581D01*
X88180958Y-92974084D01*
X88078816Y-92782988D01*
X88077487Y-92778606D01*
X88015916Y-92575639D01*
X87994678Y-92360000D01*
X88015916Y-92144361D01*
X88078815Y-91937014D01*
X88078816Y-91937012D01*
X88180958Y-91745916D01*
X88318419Y-91578419D01*
X88485916Y-91440958D01*
X88677012Y-91338816D01*
X88677014Y-91338815D01*
X88884361Y-91275916D01*
X89045962Y-91260000D01*
X89154038Y-91260000D01*
X89315639Y-91275916D01*
X89315639Y-91275916D01*
G37*
G36*
X96935639Y-91275916D02*
X97142986Y-91338815D01*
X97142988Y-91338816D01*
X97334084Y-91440958D01*
X97501581Y-91578419D01*
X97639042Y-91745916D01*
X97741184Y-91937012D01*
X97741185Y-91937014D01*
X97804084Y-92144361D01*
X97825322Y-92360000D01*
X97804084Y-92575639D01*
X97742514Y-92778606D01*
X97741184Y-92782988D01*
X97639042Y-92974084D01*
X97501581Y-93141581D01*
X97334084Y-93279042D01*
X97142988Y-93381184D01*
X97142986Y-93381185D01*
X96935639Y-93444084D01*
X96774038Y-93460000D01*
X96665962Y-93460000D01*
X96504361Y-93444084D01*
X96297014Y-93381185D01*
X96297012Y-93381184D01*
X96105916Y-93279042D01*
X95938419Y-93141581D01*
X95800958Y-92974084D01*
X95698816Y-92782988D01*
X95697487Y-92778606D01*
X95635916Y-92575639D01*
X95614678Y-92360000D01*
X95635916Y-92144361D01*
X95698815Y-91937014D01*
X95698816Y-91937012D01*
X95800958Y-91745916D01*
X95938419Y-91578419D01*
X96105916Y-91440958D01*
X96297012Y-91338816D01*
X96297014Y-91338815D01*
X96504361Y-91275916D01*
X96665962Y-91260000D01*
X96774038Y-91260000D01*
X96935639Y-91275916D01*
X96935639Y-91275916D01*
G37*
G36*
X104555639Y-91275916D02*
X104762986Y-91338815D01*
X104762988Y-91338816D01*
X104954084Y-91440958D01*
X105121581Y-91578419D01*
X105259042Y-91745916D01*
X105361184Y-91937012D01*
X105361185Y-91937014D01*
X105424084Y-92144361D01*
X105445322Y-92360000D01*
X105424084Y-92575639D01*
X105362514Y-92778606D01*
X105361184Y-92782988D01*
X105259042Y-92974084D01*
X105121581Y-93141581D01*
X104954084Y-93279042D01*
X104762988Y-93381184D01*
X104762986Y-93381185D01*
X104555639Y-93444084D01*
X104394038Y-93460000D01*
X104285962Y-93460000D01*
X104124361Y-93444084D01*
X103917014Y-93381185D01*
X103917012Y-93381184D01*
X103725916Y-93279042D01*
X103558419Y-93141581D01*
X103420958Y-92974084D01*
X103318816Y-92782988D01*
X103317487Y-92778606D01*
X103255916Y-92575639D01*
X103234678Y-92360000D01*
X103255916Y-92144361D01*
X103318815Y-91937014D01*
X103318816Y-91937012D01*
X103420958Y-91745916D01*
X103558419Y-91578419D01*
X103725916Y-91440958D01*
X103917012Y-91338816D01*
X103917014Y-91338815D01*
X104124361Y-91275916D01*
X104285962Y-91260000D01*
X104394038Y-91260000D01*
X104555639Y-91275916D01*
X104555639Y-91275916D01*
G37*
G36*
X102015639Y-91275916D02*
X102222986Y-91338815D01*
X102222988Y-91338816D01*
X102414084Y-91440958D01*
X102581581Y-91578419D01*
X102719042Y-91745916D01*
X102821184Y-91937012D01*
X102821185Y-91937014D01*
X102884084Y-92144361D01*
X102905322Y-92360000D01*
X102884084Y-92575639D01*
X102822514Y-92778606D01*
X102821184Y-92782988D01*
X102719042Y-92974084D01*
X102581581Y-93141581D01*
X102414084Y-93279042D01*
X102222988Y-93381184D01*
X102222986Y-93381185D01*
X102015639Y-93444084D01*
X101854038Y-93460000D01*
X101745962Y-93460000D01*
X101584361Y-93444084D01*
X101377014Y-93381185D01*
X101377012Y-93381184D01*
X101185916Y-93279042D01*
X101018419Y-93141581D01*
X100880958Y-92974084D01*
X100778816Y-92782988D01*
X100777487Y-92778606D01*
X100715916Y-92575639D01*
X100694678Y-92360000D01*
X100715916Y-92144361D01*
X100778815Y-91937014D01*
X100778816Y-91937012D01*
X100880958Y-91745916D01*
X101018419Y-91578419D01*
X101185916Y-91440958D01*
X101377012Y-91338816D01*
X101377014Y-91338815D01*
X101584361Y-91275916D01*
X101745962Y-91260000D01*
X101854038Y-91260000D01*
X102015639Y-91275916D01*
X102015639Y-91275916D01*
G37*
G36*
X91855639Y-91275916D02*
X92062986Y-91338815D01*
X92062988Y-91338816D01*
X92254084Y-91440958D01*
X92421581Y-91578419D01*
X92559042Y-91745916D01*
X92661184Y-91937012D01*
X92661185Y-91937014D01*
X92724084Y-92144361D01*
X92745322Y-92360000D01*
X92724084Y-92575639D01*
X92662514Y-92778606D01*
X92661184Y-92782988D01*
X92559042Y-92974084D01*
X92421581Y-93141581D01*
X92254084Y-93279042D01*
X92062988Y-93381184D01*
X92062986Y-93381185D01*
X91855639Y-93444084D01*
X91694038Y-93460000D01*
X91585962Y-93460000D01*
X91424361Y-93444084D01*
X91217014Y-93381185D01*
X91217012Y-93381184D01*
X91025916Y-93279042D01*
X90858419Y-93141581D01*
X90720958Y-92974084D01*
X90618816Y-92782988D01*
X90617487Y-92778606D01*
X90555916Y-92575639D01*
X90534678Y-92360000D01*
X90555916Y-92144361D01*
X90618815Y-91937014D01*
X90618816Y-91937012D01*
X90720958Y-91745916D01*
X90858419Y-91578419D01*
X91025916Y-91440958D01*
X91217012Y-91338816D01*
X91217014Y-91338815D01*
X91424361Y-91275916D01*
X91585962Y-91260000D01*
X91694038Y-91260000D01*
X91855639Y-91275916D01*
X91855639Y-91275916D01*
G37*
G36*
X99475639Y-91275916D02*
X99682986Y-91338815D01*
X99682988Y-91338816D01*
X99874084Y-91440958D01*
X100041581Y-91578419D01*
X100179042Y-91745916D01*
X100281184Y-91937012D01*
X100281185Y-91937014D01*
X100344084Y-92144361D01*
X100365322Y-92360000D01*
X100344084Y-92575639D01*
X100282514Y-92778606D01*
X100281184Y-92782988D01*
X100179042Y-92974084D01*
X100041581Y-93141581D01*
X99874084Y-93279042D01*
X99682988Y-93381184D01*
X99682986Y-93381185D01*
X99475639Y-93444084D01*
X99314038Y-93460000D01*
X99205962Y-93460000D01*
X99044361Y-93444084D01*
X98837014Y-93381185D01*
X98837012Y-93381184D01*
X98645916Y-93279042D01*
X98478419Y-93141581D01*
X98340958Y-92974084D01*
X98238816Y-92782988D01*
X98237487Y-92778606D01*
X98175916Y-92575639D01*
X98154678Y-92360000D01*
X98175916Y-92144361D01*
X98238815Y-91937014D01*
X98238816Y-91937012D01*
X98340958Y-91745916D01*
X98478419Y-91578419D01*
X98645916Y-91440958D01*
X98837012Y-91338816D01*
X98837014Y-91338815D01*
X99044361Y-91275916D01*
X99205962Y-91260000D01*
X99314038Y-91260000D01*
X99475639Y-91275916D01*
X99475639Y-91275916D01*
G37*
G36*
X9717208Y-89030367D02*
X9794337Y-89037963D01*
X9926288Y-89077990D01*
X9992264Y-89098003D01*
X10174673Y-89195503D01*
X10334555Y-89326716D01*
X10465768Y-89486598D01*
X10563268Y-89669007D01*
X10563268Y-89669008D01*
X10623308Y-89866934D01*
X10643581Y-90072770D01*
X10623308Y-90278606D01*
X10583281Y-90410557D01*
X10563268Y-90476533D01*
X10465768Y-90658942D01*
X10334555Y-90818824D01*
X10174673Y-90950037D01*
X9992264Y-91047537D01*
X9926288Y-91067550D01*
X9794337Y-91107577D01*
X9717208Y-91115174D01*
X9640081Y-91122770D01*
X9286921Y-91122770D01*
X9209794Y-91115174D01*
X9132665Y-91107577D01*
X9000714Y-91067550D01*
X8934738Y-91047537D01*
X8752329Y-90950037D01*
X8592447Y-90818824D01*
X8461234Y-90658942D01*
X8363734Y-90476533D01*
X8343721Y-90410557D01*
X8303694Y-90278606D01*
X8283421Y-90072770D01*
X8303694Y-89866934D01*
X8363734Y-89669008D01*
X8363734Y-89669007D01*
X8461234Y-89486598D01*
X8592447Y-89326716D01*
X8752329Y-89195503D01*
X8934738Y-89098003D01*
X9000714Y-89077990D01*
X9132665Y-89037963D01*
X9209794Y-89030367D01*
X9286921Y-89022770D01*
X9640081Y-89022770D01*
X9717208Y-89030367D01*
X9717208Y-89030367D01*
G37*
G36*
X9717208Y-86530366D02*
X9794337Y-86537963D01*
X9926288Y-86577990D01*
X9992264Y-86598003D01*
X10174673Y-86695503D01*
X10334555Y-86826716D01*
X10465768Y-86986598D01*
X10563268Y-87169007D01*
X10563268Y-87169008D01*
X10623308Y-87366934D01*
X10643581Y-87572770D01*
X10623308Y-87778606D01*
X10583281Y-87910557D01*
X10563268Y-87976533D01*
X10465768Y-88158942D01*
X10334555Y-88318824D01*
X10174673Y-88450037D01*
X9992264Y-88547537D01*
X9926288Y-88567550D01*
X9794337Y-88607577D01*
X9717208Y-88615173D01*
X9640081Y-88622770D01*
X9286921Y-88622770D01*
X9209794Y-88615173D01*
X9132665Y-88607577D01*
X9000714Y-88567550D01*
X8934738Y-88547537D01*
X8752329Y-88450037D01*
X8592447Y-88318824D01*
X8461234Y-88158942D01*
X8363734Y-87976533D01*
X8343721Y-87910557D01*
X8303694Y-87778606D01*
X8283421Y-87572770D01*
X8303694Y-87366934D01*
X8363734Y-87169008D01*
X8363734Y-87169007D01*
X8461234Y-86986598D01*
X8592447Y-86826716D01*
X8752329Y-86695503D01*
X8934738Y-86598003D01*
X9000714Y-86577990D01*
X9132665Y-86537963D01*
X9209794Y-86530366D01*
X9286921Y-86522770D01*
X9640081Y-86522770D01*
X9717208Y-86530366D01*
X9717208Y-86530366D01*
G37*
G36*
X9717208Y-84030366D02*
X9794337Y-84037963D01*
X9926288Y-84077990D01*
X9992264Y-84098003D01*
X10174673Y-84195503D01*
X10334555Y-84326716D01*
X10465768Y-84486598D01*
X10563268Y-84669007D01*
X10563268Y-84669008D01*
X10623308Y-84866934D01*
X10643581Y-85072770D01*
X10623308Y-85278606D01*
X10583281Y-85410557D01*
X10563268Y-85476533D01*
X10465768Y-85658942D01*
X10334555Y-85818824D01*
X10174673Y-85950037D01*
X9992264Y-86047537D01*
X9926288Y-86067550D01*
X9794337Y-86107577D01*
X9717208Y-86115173D01*
X9640081Y-86122770D01*
X9286921Y-86122770D01*
X9209794Y-86115173D01*
X9132665Y-86107577D01*
X9000714Y-86067550D01*
X8934738Y-86047537D01*
X8752329Y-85950037D01*
X8592447Y-85818824D01*
X8461234Y-85658942D01*
X8363734Y-85476533D01*
X8343721Y-85410557D01*
X8303694Y-85278606D01*
X8283421Y-85072770D01*
X8303694Y-84866934D01*
X8363734Y-84669008D01*
X8363734Y-84669007D01*
X8461234Y-84486598D01*
X8592447Y-84326716D01*
X8752329Y-84195503D01*
X8934738Y-84098003D01*
X9000714Y-84077990D01*
X9132665Y-84037963D01*
X9209794Y-84030366D01*
X9286921Y-84022770D01*
X9640081Y-84022770D01*
X9717208Y-84030366D01*
X9717208Y-84030366D01*
G37*
G36*
X9717208Y-81530366D02*
X9794337Y-81537963D01*
X9926288Y-81577990D01*
X9992264Y-81598003D01*
X10174673Y-81695503D01*
X10334555Y-81826716D01*
X10465768Y-81986598D01*
X10563268Y-82169007D01*
X10563268Y-82169008D01*
X10623308Y-82366934D01*
X10643581Y-82572770D01*
X10623308Y-82778606D01*
X10583281Y-82910557D01*
X10563268Y-82976533D01*
X10465768Y-83158942D01*
X10334555Y-83318824D01*
X10174673Y-83450037D01*
X9992264Y-83547537D01*
X9926288Y-83567550D01*
X9794337Y-83607577D01*
X9717208Y-83615173D01*
X9640081Y-83622770D01*
X9286921Y-83622770D01*
X9209794Y-83615173D01*
X9132665Y-83607577D01*
X9000714Y-83567550D01*
X8934738Y-83547537D01*
X8752329Y-83450037D01*
X8592447Y-83318824D01*
X8461234Y-83158942D01*
X8363734Y-82976533D01*
X8343721Y-82910557D01*
X8303694Y-82778606D01*
X8283421Y-82572770D01*
X8303694Y-82366934D01*
X8363734Y-82169008D01*
X8363734Y-82169007D01*
X8461234Y-81986598D01*
X8592447Y-81826716D01*
X8752329Y-81695503D01*
X8934738Y-81598003D01*
X9000714Y-81577990D01*
X9132665Y-81537963D01*
X9209794Y-81530366D01*
X9286921Y-81522770D01*
X9640081Y-81522770D01*
X9717208Y-81530366D01*
X9717208Y-81530366D01*
G37*
G36*
X10460826Y-79027601D02*
X10502099Y-79040121D01*
X10540130Y-79060449D01*
X10573465Y-79087806D01*
X10600822Y-79121141D01*
X10621150Y-79159172D01*
X10633670Y-79200445D01*
X10638501Y-79249496D01*
X10638501Y-80896044D01*
X10633670Y-80945095D01*
X10621150Y-80986368D01*
X10600822Y-81024399D01*
X10573465Y-81057734D01*
X10540130Y-81085091D01*
X10502099Y-81105419D01*
X10460826Y-81117939D01*
X10411775Y-81122770D01*
X8515227Y-81122770D01*
X8466176Y-81117939D01*
X8424903Y-81105419D01*
X8386872Y-81085091D01*
X8353537Y-81057734D01*
X8326180Y-81024399D01*
X8305852Y-80986368D01*
X8293332Y-80945095D01*
X8288501Y-80896044D01*
X8288501Y-79249496D01*
X8293332Y-79200445D01*
X8305852Y-79159172D01*
X8326180Y-79121141D01*
X8353537Y-79087806D01*
X8386872Y-79060449D01*
X8424903Y-79040121D01*
X8466176Y-79027601D01*
X8515227Y-79022770D01*
X10411775Y-79022770D01*
X10460826Y-79027601D01*
X10460826Y-79027601D01*
G37*
G36*
X42465638Y-70370916D02*
X42672985Y-70433815D01*
X42672987Y-70433816D01*
X42864084Y-70535958D01*
X43031581Y-70673419D01*
X43169042Y-70840916D01*
X43271184Y-71032012D01*
X43334084Y-71239362D01*
X43350000Y-71400964D01*
X43350000Y-72209035D01*
X43334084Y-72370637D01*
X43271184Y-72577988D01*
X43169042Y-72769084D01*
X43031581Y-72936581D01*
X42864084Y-73074042D01*
X42672988Y-73176184D01*
X42672986Y-73176185D01*
X42465639Y-73239084D01*
X42250000Y-73260322D01*
X42034362Y-73239084D01*
X41827015Y-73176185D01*
X41827013Y-73176184D01*
X41635917Y-73074042D01*
X41468420Y-72936581D01*
X41330959Y-72769084D01*
X41276362Y-72666940D01*
X41228815Y-72577986D01*
X41165916Y-72370639D01*
X41150000Y-72209038D01*
X41150000Y-71400963D01*
X41165916Y-71239362D01*
X41228815Y-71032015D01*
X41228817Y-71032012D01*
X41330958Y-70840916D01*
X41468419Y-70673419D01*
X41635916Y-70535958D01*
X41827012Y-70433816D01*
X41827014Y-70433815D01*
X42034361Y-70370916D01*
X42250000Y-70349678D01*
X42465638Y-70370916D01*
X42465638Y-70370916D01*
G37*
G36*
X45005638Y-70370916D02*
X45212985Y-70433815D01*
X45212987Y-70433816D01*
X45404084Y-70535958D01*
X45571581Y-70673419D01*
X45709042Y-70840916D01*
X45811184Y-71032012D01*
X45874084Y-71239362D01*
X45890000Y-71400964D01*
X45890000Y-72209035D01*
X45874084Y-72370637D01*
X45811184Y-72577988D01*
X45709042Y-72769084D01*
X45571581Y-72936581D01*
X45404084Y-73074042D01*
X45212988Y-73176184D01*
X45212986Y-73176185D01*
X45005639Y-73239084D01*
X44790000Y-73260322D01*
X44574362Y-73239084D01*
X44367015Y-73176185D01*
X44367013Y-73176184D01*
X44175917Y-73074042D01*
X44008420Y-72936581D01*
X43870959Y-72769084D01*
X43816362Y-72666940D01*
X43768815Y-72577986D01*
X43705916Y-72370639D01*
X43690000Y-72209038D01*
X43690000Y-71400963D01*
X43705916Y-71239362D01*
X43768815Y-71032015D01*
X43768817Y-71032012D01*
X43870958Y-70840916D01*
X44008419Y-70673419D01*
X44175916Y-70535958D01*
X44367012Y-70433816D01*
X44367014Y-70433815D01*
X44574361Y-70370916D01*
X44790000Y-70349678D01*
X45005638Y-70370916D01*
X45005638Y-70370916D01*
G37*
G36*
X40810000Y-73255000D02*
X38610000Y-73255000D01*
X38610000Y-70355000D01*
X40810000Y-70355000D01*
X40810000Y-73255000D01*
X40810000Y-73255000D01*
G37*
G36*
X55465944Y-53002520D02*
X55597963Y-53028780D01*
X55752496Y-53092790D01*
X55971038Y-53183313D01*
X56306802Y-53407663D01*
X56592337Y-53693198D01*
X56816687Y-54028962D01*
X56971220Y-54402038D01*
X57050000Y-54798091D01*
X57050000Y-55201909D01*
X56971220Y-55597962D01*
X56816687Y-55971038D01*
X56592337Y-56306802D01*
X56306802Y-56592337D01*
X55971038Y-56816687D01*
X55752496Y-56907210D01*
X55597963Y-56971220D01*
X55465944Y-56997480D01*
X55201909Y-57050000D01*
X54798091Y-57050000D01*
X54534056Y-56997480D01*
X54402037Y-56971220D01*
X54247504Y-56907210D01*
X54028962Y-56816687D01*
X53693198Y-56592337D01*
X53407663Y-56306802D01*
X53183313Y-55971038D01*
X53028780Y-55597962D01*
X52950000Y-55201909D01*
X52950000Y-54798091D01*
X53028780Y-54402038D01*
X53183313Y-54028962D01*
X53407663Y-53693198D01*
X53693198Y-53407663D01*
X54028962Y-53183313D01*
X54247504Y-53092790D01*
X54402037Y-53028780D01*
X54534056Y-53002520D01*
X54798091Y-52950000D01*
X55201909Y-52950000D01*
X55465944Y-53002520D01*
X55465944Y-53002520D01*
G37*
G36*
X25465944Y-53002520D02*
X25597963Y-53028780D01*
X25752496Y-53092790D01*
X25971038Y-53183313D01*
X26306802Y-53407663D01*
X26592337Y-53693198D01*
X26816687Y-54028962D01*
X26971220Y-54402038D01*
X27050000Y-54798091D01*
X27050000Y-55201909D01*
X26971220Y-55597962D01*
X26816687Y-55971038D01*
X26592337Y-56306802D01*
X26306802Y-56592337D01*
X25971038Y-56816687D01*
X25752496Y-56907210D01*
X25597963Y-56971220D01*
X25465944Y-56997480D01*
X25201909Y-57050000D01*
X24798091Y-57050000D01*
X24534056Y-56997480D01*
X24402037Y-56971220D01*
X24247504Y-56907210D01*
X24028962Y-56816687D01*
X23693198Y-56592337D01*
X23407663Y-56306802D01*
X23183313Y-55971038D01*
X23028780Y-55597962D01*
X22950000Y-55201909D01*
X22950000Y-54798091D01*
X23028780Y-54402038D01*
X23183313Y-54028962D01*
X23407663Y-53693198D01*
X23693198Y-53407663D01*
X24028962Y-53183313D01*
X24247504Y-53092790D01*
X24402037Y-53028780D01*
X24534056Y-53002520D01*
X24798091Y-52950000D01*
X25201909Y-52950000D01*
X25465944Y-53002520D01*
X25465944Y-53002520D01*
G37*
G36*
X9683707Y-46627597D02*
X9760836Y-46635193D01*
X9892787Y-46675220D01*
X9958763Y-46695233D01*
X10141172Y-46792733D01*
X10301054Y-46923946D01*
X10432267Y-47083828D01*
X10529767Y-47266237D01*
X10529767Y-47266238D01*
X10589807Y-47464164D01*
X10610080Y-47670000D01*
X10589807Y-47875836D01*
X10549780Y-48007787D01*
X10529767Y-48073763D01*
X10432267Y-48256172D01*
X10301054Y-48416054D01*
X10141172Y-48547267D01*
X9958763Y-48644767D01*
X9892787Y-48664780D01*
X9760836Y-48704807D01*
X9683707Y-48712403D01*
X9606580Y-48720000D01*
X9253420Y-48720000D01*
X9176293Y-48712403D01*
X9099164Y-48704807D01*
X8967213Y-48664780D01*
X8901237Y-48644767D01*
X8718828Y-48547267D01*
X8558946Y-48416054D01*
X8427733Y-48256172D01*
X8330233Y-48073763D01*
X8310220Y-48007787D01*
X8270193Y-47875836D01*
X8249920Y-47670000D01*
X8270193Y-47464164D01*
X8330233Y-47266238D01*
X8330233Y-47266237D01*
X8427733Y-47083828D01*
X8558946Y-46923946D01*
X8718828Y-46792733D01*
X8901237Y-46695233D01*
X8967213Y-46675220D01*
X9099164Y-46635193D01*
X9176293Y-46627597D01*
X9253420Y-46620000D01*
X9606580Y-46620000D01*
X9683707Y-46627597D01*
X9683707Y-46627597D01*
G37*
G36*
X9683707Y-44127596D02*
X9760836Y-44135193D01*
X9892787Y-44175220D01*
X9958763Y-44195233D01*
X10141172Y-44292733D01*
X10301054Y-44423946D01*
X10432267Y-44583828D01*
X10529767Y-44766237D01*
X10529767Y-44766238D01*
X10589807Y-44964164D01*
X10610080Y-45170000D01*
X10589807Y-45375836D01*
X10549780Y-45507787D01*
X10529767Y-45573763D01*
X10432267Y-45756172D01*
X10301054Y-45916054D01*
X10141172Y-46047267D01*
X9958763Y-46144767D01*
X9892787Y-46164780D01*
X9760836Y-46204807D01*
X9683707Y-46212403D01*
X9606580Y-46220000D01*
X9253420Y-46220000D01*
X9176293Y-46212403D01*
X9099164Y-46204807D01*
X8967213Y-46164780D01*
X8901237Y-46144767D01*
X8718828Y-46047267D01*
X8558946Y-45916054D01*
X8427733Y-45756172D01*
X8330233Y-45573763D01*
X8310220Y-45507787D01*
X8270193Y-45375836D01*
X8249920Y-45170000D01*
X8270193Y-44964164D01*
X8330233Y-44766238D01*
X8330233Y-44766237D01*
X8427733Y-44583828D01*
X8558946Y-44423946D01*
X8718828Y-44292733D01*
X8901237Y-44195233D01*
X8967213Y-44175220D01*
X9099164Y-44135193D01*
X9176293Y-44127596D01*
X9253420Y-44120000D01*
X9606580Y-44120000D01*
X9683707Y-44127596D01*
X9683707Y-44127596D01*
G37*
G36*
X9683707Y-41627597D02*
X9760836Y-41635193D01*
X9892787Y-41675220D01*
X9958763Y-41695233D01*
X10141172Y-41792733D01*
X10301054Y-41923946D01*
X10432267Y-42083828D01*
X10529767Y-42266237D01*
X10529767Y-42266238D01*
X10589807Y-42464164D01*
X10610080Y-42670000D01*
X10589807Y-42875836D01*
X10549780Y-43007787D01*
X10529767Y-43073763D01*
X10432267Y-43256172D01*
X10301054Y-43416054D01*
X10141172Y-43547267D01*
X9958763Y-43644767D01*
X9892787Y-43664780D01*
X9760836Y-43704807D01*
X9683707Y-43712403D01*
X9606580Y-43720000D01*
X9253420Y-43720000D01*
X9176293Y-43712403D01*
X9099164Y-43704807D01*
X8967213Y-43664780D01*
X8901237Y-43644767D01*
X8718828Y-43547267D01*
X8558946Y-43416054D01*
X8427733Y-43256172D01*
X8330233Y-43073763D01*
X8310220Y-43007787D01*
X8270193Y-42875836D01*
X8249920Y-42670000D01*
X8270193Y-42464164D01*
X8330233Y-42266238D01*
X8330233Y-42266237D01*
X8427733Y-42083828D01*
X8558946Y-41923946D01*
X8718828Y-41792733D01*
X8901237Y-41695233D01*
X8967213Y-41675220D01*
X9099164Y-41635193D01*
X9176293Y-41627597D01*
X9253420Y-41620000D01*
X9606580Y-41620000D01*
X9683707Y-41627597D01*
X9683707Y-41627597D01*
G37*
G36*
X9683707Y-39127597D02*
X9760836Y-39135193D01*
X9892787Y-39175220D01*
X9958763Y-39195233D01*
X10141172Y-39292733D01*
X10301054Y-39423946D01*
X10432267Y-39583828D01*
X10529767Y-39766237D01*
X10529767Y-39766238D01*
X10589807Y-39964164D01*
X10610080Y-40170000D01*
X10589807Y-40375836D01*
X10549780Y-40507787D01*
X10529767Y-40573763D01*
X10432267Y-40756172D01*
X10301054Y-40916054D01*
X10141172Y-41047267D01*
X9958763Y-41144767D01*
X9892787Y-41164780D01*
X9760836Y-41204807D01*
X9683707Y-41212404D01*
X9606580Y-41220000D01*
X9253420Y-41220000D01*
X9176293Y-41212404D01*
X9099164Y-41204807D01*
X8967213Y-41164780D01*
X8901237Y-41144767D01*
X8718828Y-41047267D01*
X8558946Y-40916054D01*
X8427733Y-40756172D01*
X8330233Y-40573763D01*
X8310220Y-40507787D01*
X8270193Y-40375836D01*
X8249920Y-40170000D01*
X8270193Y-39964164D01*
X8330233Y-39766238D01*
X8330233Y-39766237D01*
X8427733Y-39583828D01*
X8558946Y-39423946D01*
X8718828Y-39292733D01*
X8901237Y-39195233D01*
X8967213Y-39175220D01*
X9099164Y-39135193D01*
X9176293Y-39127597D01*
X9253420Y-39120000D01*
X9606580Y-39120000D01*
X9683707Y-39127597D01*
X9683707Y-39127597D01*
G37*
G36*
X9683707Y-36627597D02*
X9760836Y-36635193D01*
X9892787Y-36675220D01*
X9958763Y-36695233D01*
X10141172Y-36792733D01*
X10301054Y-36923946D01*
X10432267Y-37083828D01*
X10529767Y-37266237D01*
X10529767Y-37266238D01*
X10589807Y-37464164D01*
X10610080Y-37670000D01*
X10589807Y-37875836D01*
X10549780Y-38007787D01*
X10529767Y-38073763D01*
X10432267Y-38256172D01*
X10301054Y-38416054D01*
X10141172Y-38547267D01*
X9958763Y-38644767D01*
X9892787Y-38664780D01*
X9760836Y-38704807D01*
X9683707Y-38712403D01*
X9606580Y-38720000D01*
X9253420Y-38720000D01*
X9176293Y-38712403D01*
X9099164Y-38704807D01*
X8967213Y-38664780D01*
X8901237Y-38644767D01*
X8718828Y-38547267D01*
X8558946Y-38416054D01*
X8427733Y-38256172D01*
X8330233Y-38073763D01*
X8310220Y-38007787D01*
X8270193Y-37875836D01*
X8249920Y-37670000D01*
X8270193Y-37464164D01*
X8330233Y-37266238D01*
X8330233Y-37266237D01*
X8427733Y-37083828D01*
X8558946Y-36923946D01*
X8718828Y-36792733D01*
X8901237Y-36695233D01*
X8967213Y-36675220D01*
X9099164Y-36635193D01*
X9176293Y-36627597D01*
X9253420Y-36620000D01*
X9606580Y-36620000D01*
X9683707Y-36627597D01*
X9683707Y-36627597D01*
G37*
G36*
X9683707Y-34127597D02*
X9760836Y-34135193D01*
X9892787Y-34175220D01*
X9958763Y-34195233D01*
X10141172Y-34292733D01*
X10301054Y-34423946D01*
X10432267Y-34583828D01*
X10529767Y-34766237D01*
X10529767Y-34766238D01*
X10589807Y-34964164D01*
X10610080Y-35170000D01*
X10589807Y-35375836D01*
X10549780Y-35507787D01*
X10529767Y-35573763D01*
X10432267Y-35756172D01*
X10301054Y-35916054D01*
X10141172Y-36047267D01*
X9958763Y-36144767D01*
X9892787Y-36164780D01*
X9760836Y-36204807D01*
X9683707Y-36212404D01*
X9606580Y-36220000D01*
X9253420Y-36220000D01*
X9176293Y-36212404D01*
X9099164Y-36204807D01*
X8967213Y-36164780D01*
X8901237Y-36144767D01*
X8718828Y-36047267D01*
X8558946Y-35916054D01*
X8427733Y-35756172D01*
X8330233Y-35573763D01*
X8310220Y-35507787D01*
X8270193Y-35375836D01*
X8249920Y-35170000D01*
X8270193Y-34964164D01*
X8330233Y-34766238D01*
X8330233Y-34766237D01*
X8427733Y-34583828D01*
X8558946Y-34423946D01*
X8718828Y-34292733D01*
X8901237Y-34195233D01*
X8967213Y-34175220D01*
X9099164Y-34135193D01*
X9176293Y-34127597D01*
X9253420Y-34120000D01*
X9606580Y-34120000D01*
X9683707Y-34127597D01*
X9683707Y-34127597D01*
G37*
G36*
X9683707Y-31627596D02*
X9760836Y-31635193D01*
X9892787Y-31675220D01*
X9958763Y-31695233D01*
X10141172Y-31792733D01*
X10301054Y-31923946D01*
X10432267Y-32083828D01*
X10529767Y-32266237D01*
X10529767Y-32266238D01*
X10589807Y-32464164D01*
X10610080Y-32670000D01*
X10589807Y-32875836D01*
X10549780Y-33007787D01*
X10529767Y-33073763D01*
X10432267Y-33256172D01*
X10301054Y-33416054D01*
X10141172Y-33547267D01*
X9958763Y-33644767D01*
X9892787Y-33664780D01*
X9760836Y-33704807D01*
X9683707Y-33712403D01*
X9606580Y-33720000D01*
X9253420Y-33720000D01*
X9176293Y-33712403D01*
X9099164Y-33704807D01*
X8967213Y-33664780D01*
X8901237Y-33644767D01*
X8718828Y-33547267D01*
X8558946Y-33416054D01*
X8427733Y-33256172D01*
X8330233Y-33073763D01*
X8310220Y-33007787D01*
X8270193Y-32875836D01*
X8249920Y-32670000D01*
X8270193Y-32464164D01*
X8330233Y-32266238D01*
X8330233Y-32266237D01*
X8427733Y-32083828D01*
X8558946Y-31923946D01*
X8718828Y-31792733D01*
X8901237Y-31695233D01*
X8967213Y-31675220D01*
X9099164Y-31635193D01*
X9176293Y-31627596D01*
X9253420Y-31620000D01*
X9606580Y-31620000D01*
X9683707Y-31627596D01*
X9683707Y-31627596D01*
G37*
G36*
X10427325Y-29124831D02*
X10468598Y-29137351D01*
X10506629Y-29157679D01*
X10539964Y-29185036D01*
X10567321Y-29218371D01*
X10587649Y-29256402D01*
X10600169Y-29297675D01*
X10605000Y-29346726D01*
X10605000Y-30993274D01*
X10600169Y-31042325D01*
X10587649Y-31083598D01*
X10567321Y-31121629D01*
X10539964Y-31154964D01*
X10506629Y-31182321D01*
X10468598Y-31202649D01*
X10427325Y-31215169D01*
X10378274Y-31220000D01*
X8481726Y-31220000D01*
X8432675Y-31215169D01*
X8391402Y-31202649D01*
X8353371Y-31182321D01*
X8320036Y-31154964D01*
X8292679Y-31121629D01*
X8272351Y-31083598D01*
X8259831Y-31042325D01*
X8255000Y-30993274D01*
X8255000Y-29346726D01*
X8259831Y-29297675D01*
X8272351Y-29256402D01*
X8292679Y-29218371D01*
X8320036Y-29185036D01*
X8353371Y-29157679D01*
X8391402Y-29137351D01*
X8432675Y-29124831D01*
X8481726Y-29120000D01*
X10378274Y-29120000D01*
X10427325Y-29124831D01*
X10427325Y-29124831D01*
G37*
G36*
X10409122Y-13246115D02*
X10525041Y-13269173D01*
X10756674Y-13365119D01*
X10845803Y-13402037D01*
X10852620Y-13404861D01*
X11143511Y-13599228D01*
X11147436Y-13601851D01*
X11398149Y-13852564D01*
X11595140Y-14147382D01*
X11730827Y-14474960D01*
X11800000Y-14822714D01*
X11800000Y-15177286D01*
X11730827Y-15525040D01*
X11595140Y-15852618D01*
X11398149Y-16147436D01*
X11147436Y-16398149D01*
X11147433Y-16398151D01*
X10852620Y-16595139D01*
X10525041Y-16730827D01*
X10409122Y-16753885D01*
X10177286Y-16800000D01*
X9822714Y-16800000D01*
X9590878Y-16753885D01*
X9474959Y-16730827D01*
X9147380Y-16595139D01*
X8852567Y-16398151D01*
X8852564Y-16398149D01*
X8601851Y-16147436D01*
X8404860Y-15852618D01*
X8269173Y-15525040D01*
X8200000Y-15177286D01*
X8200000Y-14822714D01*
X8269173Y-14474960D01*
X8404860Y-14147382D01*
X8601851Y-13852564D01*
X8852564Y-13601851D01*
X8856489Y-13599228D01*
X9147380Y-13404861D01*
X9154198Y-13402037D01*
X9243326Y-13365119D01*
X9474959Y-13269173D01*
X9590878Y-13246115D01*
X9822714Y-13200000D01*
X10177286Y-13200000D01*
X10409122Y-13246115D01*
X10409122Y-13246115D01*
G37*
G36*
X190409122Y-13246115D02*
X190525041Y-13269173D01*
X190756674Y-13365119D01*
X190845803Y-13402037D01*
X190852620Y-13404861D01*
X191143511Y-13599228D01*
X191147436Y-13601851D01*
X191398149Y-13852564D01*
X191595140Y-14147382D01*
X191730827Y-14474960D01*
X191800000Y-14822714D01*
X191800000Y-15177286D01*
X191730827Y-15525040D01*
X191595140Y-15852618D01*
X191398149Y-16147436D01*
X191147436Y-16398149D01*
X191147433Y-16398151D01*
X190852620Y-16595139D01*
X190525041Y-16730827D01*
X190409122Y-16753885D01*
X190177286Y-16800000D01*
X189822714Y-16800000D01*
X189590878Y-16753885D01*
X189474959Y-16730827D01*
X189147380Y-16595139D01*
X188852567Y-16398151D01*
X188852564Y-16398149D01*
X188601851Y-16147436D01*
X188404860Y-15852618D01*
X188269173Y-15525040D01*
X188200000Y-15177286D01*
X188200000Y-14822714D01*
X188269173Y-14474960D01*
X188404860Y-14147382D01*
X188601851Y-13852564D01*
X188852564Y-13601851D01*
X188856489Y-13599228D01*
X189147380Y-13404861D01*
X189154198Y-13402037D01*
X189243326Y-13365119D01*
X189474959Y-13269173D01*
X189590878Y-13246115D01*
X189822714Y-13200000D01*
X190177286Y-13200000D01*
X190409122Y-13246115D01*
X190409122Y-13246115D01*
G37*
G36*
X55465944Y-12002520D02*
X55597963Y-12028780D01*
X55649192Y-12050000D01*
X55971038Y-12183313D01*
X56306802Y-12407663D01*
X56592337Y-12693198D01*
X56816687Y-13028962D01*
X56887533Y-13200000D01*
X56971220Y-13402037D01*
X56971782Y-13404861D01*
X57050000Y-13798091D01*
X57050000Y-14201909D01*
X56971220Y-14597962D01*
X56816687Y-14971038D01*
X56592337Y-15306802D01*
X56306802Y-15592337D01*
X55971038Y-15816687D01*
X55752496Y-15907210D01*
X55597963Y-15971220D01*
X55465944Y-15997480D01*
X55201909Y-16050000D01*
X54798091Y-16050000D01*
X54534056Y-15997480D01*
X54402037Y-15971220D01*
X54247504Y-15907210D01*
X54028962Y-15816687D01*
X53693198Y-15592337D01*
X53407663Y-15306802D01*
X53183313Y-14971038D01*
X53028780Y-14597962D01*
X52950000Y-14201909D01*
X52950000Y-13798091D01*
X53028218Y-13404861D01*
X53028780Y-13402037D01*
X53112467Y-13200000D01*
X53183313Y-13028962D01*
X53407663Y-12693198D01*
X53693198Y-12407663D01*
X54028962Y-12183313D01*
X54350808Y-12050000D01*
X54402037Y-12028780D01*
X54534056Y-12002520D01*
X54798091Y-11950000D01*
X55201909Y-11950000D01*
X55465944Y-12002520D01*
X55465944Y-12002520D01*
G37*
G36*
X25465944Y-8002520D02*
X25597963Y-8028780D01*
X25745760Y-8090000D01*
X25971038Y-8183313D01*
X26306802Y-8407663D01*
X26592337Y-8693198D01*
X26816687Y-9028962D01*
X26884066Y-9191629D01*
X26971220Y-9402037D01*
X26988812Y-9490477D01*
X27050000Y-9798091D01*
X27050000Y-10201909D01*
X26971220Y-10597962D01*
X26816687Y-10971038D01*
X26592337Y-11306802D01*
X26306802Y-11592337D01*
X25971038Y-11816687D01*
X25752496Y-11907210D01*
X25597963Y-11971220D01*
X25465944Y-11997480D01*
X25201909Y-12050000D01*
X24798091Y-12050000D01*
X24534056Y-11997480D01*
X24402037Y-11971220D01*
X24247504Y-11907210D01*
X24028962Y-11816687D01*
X23693198Y-11592337D01*
X23407663Y-11306802D01*
X23183313Y-10971038D01*
X23028780Y-10597962D01*
X22950000Y-10201909D01*
X22950000Y-9798091D01*
X23011188Y-9490477D01*
X23028780Y-9402037D01*
X23115934Y-9191629D01*
X23183313Y-9028962D01*
X23407663Y-8693198D01*
X23693198Y-8407663D01*
X24028962Y-8183313D01*
X24254240Y-8090000D01*
X24402037Y-8028780D01*
X24534056Y-8002520D01*
X24798091Y-7950000D01*
X25201909Y-7950000D01*
X25465944Y-8002520D01*
X25465944Y-8002520D01*
G37*
G36*
X106581312Y-4009523D02*
X107099982Y-4224363D01*
X107566772Y-4536262D01*
X107963738Y-4933228D01*
X108275637Y-5400018D01*
X108490477Y-5918688D01*
X108600000Y-6469298D01*
X108600000Y-7030702D01*
X108490477Y-7581312D01*
X108275637Y-8099982D01*
X107963738Y-8566772D01*
X107566772Y-8963738D01*
X107099982Y-9275637D01*
X106581312Y-9490477D01*
X106030702Y-9600000D01*
X105469298Y-9600000D01*
X104918688Y-9490477D01*
X104400018Y-9275637D01*
X103933228Y-8963738D01*
X103536262Y-8566772D01*
X103224363Y-8099982D01*
X103009523Y-7581312D01*
X102900000Y-7030702D01*
X102900000Y-6469298D01*
X103009523Y-5918688D01*
X103224363Y-5400018D01*
X103536262Y-4933228D01*
X103933228Y-4536262D01*
X104400018Y-4224363D01*
X104918688Y-4009523D01*
X105469298Y-3900000D01*
X106030702Y-3900000D01*
X106581312Y-4009523D01*
X106581312Y-4009523D01*
G37*
G36*
X190081312Y-4009523D02*
X190599982Y-4224363D01*
X191066772Y-4536262D01*
X191463738Y-4933228D01*
X191775637Y-5400018D01*
X191990477Y-5918688D01*
X192100000Y-6469298D01*
X192100000Y-7030702D01*
X191990477Y-7581312D01*
X191775637Y-8099982D01*
X191463738Y-8566772D01*
X191066772Y-8963738D01*
X190599982Y-9275637D01*
X190081312Y-9490477D01*
X189530702Y-9600000D01*
X188969298Y-9600000D01*
X188418688Y-9490477D01*
X187900018Y-9275637D01*
X187433228Y-8963738D01*
X187036262Y-8566772D01*
X186724363Y-8099982D01*
X186509523Y-7581312D01*
X186400000Y-7030702D01*
X186400000Y-6469298D01*
X186509523Y-5918688D01*
X186724363Y-5400018D01*
X187036262Y-4933228D01*
X187433228Y-4536262D01*
X187900018Y-4224363D01*
X188418688Y-4009523D01*
X188969298Y-3900000D01*
X189530702Y-3900000D01*
X190081312Y-4009523D01*
X190081312Y-4009523D01*
G37*
G36*
X79305836Y-6905193D02*
X79415661Y-6938508D01*
X79503763Y-6965233D01*
X79686172Y-7062733D01*
X79782424Y-7141726D01*
X79846054Y-7193946D01*
X79977267Y-7353829D01*
X80012684Y-7420090D01*
X80074767Y-7536238D01*
X80082351Y-7561239D01*
X80134807Y-7734165D01*
X80134807Y-7734167D01*
X80150000Y-7888421D01*
X80150000Y-8291580D01*
X80144420Y-8348236D01*
X80134807Y-8445836D01*
X80102772Y-8551442D01*
X80074767Y-8643763D01*
X79977267Y-8826172D01*
X79866571Y-8961054D01*
X79846054Y-8986054D01*
X79686171Y-9117267D01*
X79567300Y-9180805D01*
X79503762Y-9214767D01*
X79470146Y-9224964D01*
X79305835Y-9274807D01*
X79100000Y-9295080D01*
X78894164Y-9274807D01*
X78729853Y-9224964D01*
X78696237Y-9214767D01*
X78513828Y-9117267D01*
X78353946Y-8986054D01*
X78318312Y-8942634D01*
X78222733Y-8826171D01*
X78151659Y-8693201D01*
X78125233Y-8643762D01*
X78097230Y-8551446D01*
X78065193Y-8445835D01*
X78055110Y-8343456D01*
X78050000Y-8291579D01*
X78050000Y-7888420D01*
X78061558Y-7771071D01*
X78065193Y-7734164D01*
X78117649Y-7561238D01*
X78125233Y-7536237D01*
X78209369Y-7378831D01*
X78222733Y-7353829D01*
X78353947Y-7193946D01*
X78417577Y-7141726D01*
X78513829Y-7062733D01*
X78696238Y-6965233D01*
X78784340Y-6938508D01*
X78894165Y-6905193D01*
X79100000Y-6884920D01*
X79305836Y-6905193D01*
X79305836Y-6905193D01*
G37*
G36*
X82472325Y-6894831D02*
X82513598Y-6907351D01*
X82551629Y-6927679D01*
X82584964Y-6955036D01*
X82612321Y-6988371D01*
X82632649Y-7026402D01*
X82645169Y-7067675D01*
X82650000Y-7116726D01*
X82650000Y-9063274D01*
X82645169Y-9112325D01*
X82632649Y-9153598D01*
X82612321Y-9191629D01*
X82584964Y-9224964D01*
X82551629Y-9252321D01*
X82513598Y-9272649D01*
X82472325Y-9285169D01*
X82423274Y-9290000D01*
X80776726Y-9290000D01*
X80727675Y-9285169D01*
X80686402Y-9272649D01*
X80648371Y-9252321D01*
X80615036Y-9224964D01*
X80587679Y-9191629D01*
X80567351Y-9153598D01*
X80554831Y-9112325D01*
X80550000Y-9063274D01*
X80550000Y-7116726D01*
X80554831Y-7067675D01*
X80567351Y-7026402D01*
X80587679Y-6988371D01*
X80615036Y-6955036D01*
X80648371Y-6927679D01*
X80686402Y-6907351D01*
X80727675Y-6894831D01*
X80776726Y-6890000D01*
X82423274Y-6890000D01*
X82472325Y-6894831D01*
X82472325Y-6894831D01*
G37*
G36*
X43800000Y-5012310D02*
X43802402Y-5036696D01*
X43809515Y-5060145D01*
X43821066Y-5081756D01*
X43836612Y-5100698D01*
X43855554Y-5116244D01*
X43877165Y-5127795D01*
X43900614Y-5134908D01*
X43925000Y-5137310D01*
X43949386Y-5134908D01*
X43972835Y-5127795D01*
X43994446Y-5116244D01*
X44013388Y-5100698D01*
X44028934Y-5081756D01*
X44035240Y-5071234D01*
X44137408Y-4880090D01*
X44287366Y-4697366D01*
X44470090Y-4547408D01*
X44678553Y-4435983D01*
X44678556Y-4435982D01*
X44678558Y-4435981D01*
X44904759Y-4367363D01*
X45045792Y-4353473D01*
X45081049Y-4350000D01*
X45198951Y-4350000D01*
X45234208Y-4353473D01*
X45375241Y-4367363D01*
X45601442Y-4435981D01*
X45601444Y-4435982D01*
X45601447Y-4435983D01*
X45809910Y-4547408D01*
X45992634Y-4697366D01*
X46142592Y-4880090D01*
X46254018Y-5088554D01*
X46290382Y-5208431D01*
X46299760Y-5231071D01*
X46313374Y-5251445D01*
X46330701Y-5268772D01*
X46351075Y-5282386D01*
X46373714Y-5291764D01*
X46397748Y-5296544D01*
X46422252Y-5296544D01*
X46446285Y-5291764D01*
X46468925Y-5282386D01*
X46489299Y-5268772D01*
X46506626Y-5251445D01*
X46520240Y-5231071D01*
X46529618Y-5208431D01*
X46565982Y-5088554D01*
X46677408Y-4880090D01*
X46827366Y-4697366D01*
X47010090Y-4547408D01*
X47218553Y-4435983D01*
X47218556Y-4435982D01*
X47218558Y-4435981D01*
X47444759Y-4367363D01*
X47585792Y-4353473D01*
X47621049Y-4350000D01*
X47738951Y-4350000D01*
X47774208Y-4353473D01*
X47915241Y-4367363D01*
X48141442Y-4435981D01*
X48141444Y-4435982D01*
X48141447Y-4435983D01*
X48349910Y-4547408D01*
X48532634Y-4697366D01*
X48682592Y-4880090D01*
X48794018Y-5088554D01*
X48830382Y-5208431D01*
X48839760Y-5231071D01*
X48853374Y-5251445D01*
X48870701Y-5268772D01*
X48891075Y-5282386D01*
X48913714Y-5291764D01*
X48937748Y-5296544D01*
X48962252Y-5296544D01*
X48986285Y-5291764D01*
X49008925Y-5282386D01*
X49029299Y-5268772D01*
X49046626Y-5251445D01*
X49060240Y-5231071D01*
X49069618Y-5208431D01*
X49105982Y-5088554D01*
X49217408Y-4880090D01*
X49367366Y-4697366D01*
X49550090Y-4547408D01*
X49758553Y-4435983D01*
X49758556Y-4435982D01*
X49758558Y-4435981D01*
X49984759Y-4367363D01*
X50125792Y-4353473D01*
X50161049Y-4350000D01*
X50278951Y-4350000D01*
X50314208Y-4353473D01*
X50455241Y-4367363D01*
X50681442Y-4435981D01*
X50681444Y-4435982D01*
X50681447Y-4435983D01*
X50889910Y-4547408D01*
X51072634Y-4697366D01*
X51222592Y-4880090D01*
X51334017Y-5088553D01*
X51334017Y-5088554D01*
X51334019Y-5088558D01*
X51402637Y-5314759D01*
X51425806Y-5550000D01*
X51402637Y-5785241D01*
X51334019Y-6011442D01*
X51334017Y-6011447D01*
X51222592Y-6219910D01*
X51072634Y-6402634D01*
X50889910Y-6552592D01*
X50681446Y-6664018D01*
X50642034Y-6675973D01*
X50561565Y-6700384D01*
X50538929Y-6709760D01*
X50518555Y-6723374D01*
X50501228Y-6740701D01*
X50487614Y-6761075D01*
X50478236Y-6783714D01*
X50473456Y-6807748D01*
X50473456Y-6832252D01*
X50478236Y-6856285D01*
X50487614Y-6878925D01*
X50501228Y-6899299D01*
X50518555Y-6916626D01*
X50538929Y-6930240D01*
X50561565Y-6939616D01*
X50612396Y-6955036D01*
X50681446Y-6975982D01*
X50889910Y-7087408D01*
X51072634Y-7237366D01*
X51222592Y-7420090D01*
X51334017Y-7628553D01*
X51334017Y-7628554D01*
X51334019Y-7628558D01*
X51402637Y-7854759D01*
X51425806Y-8090000D01*
X51402637Y-8325241D01*
X51334019Y-8551442D01*
X51334017Y-8551447D01*
X51222592Y-8759910D01*
X51072634Y-8942634D01*
X50889910Y-9092592D01*
X50681447Y-9204017D01*
X50681444Y-9204018D01*
X50681442Y-9204019D01*
X50455241Y-9272637D01*
X50339199Y-9284066D01*
X50278951Y-9290000D01*
X50161049Y-9290000D01*
X50100801Y-9284066D01*
X49984759Y-9272637D01*
X49758558Y-9204019D01*
X49758556Y-9204018D01*
X49758553Y-9204017D01*
X49550090Y-9092592D01*
X49367366Y-8942634D01*
X49217408Y-8759910D01*
X49105982Y-8551446D01*
X49094027Y-8512034D01*
X49069616Y-8431565D01*
X49060240Y-8408929D01*
X49046626Y-8388555D01*
X49029299Y-8371228D01*
X49008925Y-8357614D01*
X48986286Y-8348236D01*
X48962252Y-8343456D01*
X48937748Y-8343456D01*
X48913715Y-8348236D01*
X48891075Y-8357614D01*
X48870701Y-8371228D01*
X48853374Y-8388555D01*
X48839760Y-8408929D01*
X48830384Y-8431565D01*
X48805973Y-8512034D01*
X48794018Y-8551446D01*
X48682592Y-8759910D01*
X48532634Y-8942634D01*
X48349910Y-9092592D01*
X48141447Y-9204017D01*
X48141444Y-9204018D01*
X48141442Y-9204019D01*
X47915241Y-9272637D01*
X47799199Y-9284066D01*
X47738951Y-9290000D01*
X47621049Y-9290000D01*
X47560801Y-9284066D01*
X47444759Y-9272637D01*
X47218558Y-9204019D01*
X47218556Y-9204018D01*
X47218553Y-9204017D01*
X47010090Y-9092592D01*
X46827366Y-8942634D01*
X46677408Y-8759910D01*
X46565982Y-8551446D01*
X46554027Y-8512034D01*
X46529616Y-8431565D01*
X46520240Y-8408929D01*
X46506626Y-8388555D01*
X46489299Y-8371228D01*
X46468925Y-8357614D01*
X46446286Y-8348236D01*
X46422252Y-8343456D01*
X46397748Y-8343456D01*
X46373715Y-8348236D01*
X46351075Y-8357614D01*
X46330701Y-8371228D01*
X46313374Y-8388555D01*
X46299760Y-8408929D01*
X46290384Y-8431565D01*
X46265973Y-8512034D01*
X46254018Y-8551446D01*
X46142592Y-8759910D01*
X45992634Y-8942634D01*
X45809910Y-9092592D01*
X45601447Y-9204017D01*
X45601444Y-9204018D01*
X45601442Y-9204019D01*
X45375241Y-9272637D01*
X45259199Y-9284066D01*
X45198951Y-9290000D01*
X45081049Y-9290000D01*
X45020801Y-9284066D01*
X44904759Y-9272637D01*
X44678558Y-9204019D01*
X44678556Y-9204018D01*
X44678553Y-9204017D01*
X44470090Y-9092592D01*
X44287366Y-8942634D01*
X44137408Y-8759910D01*
X44025982Y-8551446D01*
X44014027Y-8512034D01*
X43989616Y-8431565D01*
X43980240Y-8408929D01*
X43966626Y-8388555D01*
X43949299Y-8371228D01*
X43928925Y-8357614D01*
X43906286Y-8348236D01*
X43882252Y-8343456D01*
X43857748Y-8343456D01*
X43833715Y-8348236D01*
X43811075Y-8357614D01*
X43790701Y-8371228D01*
X43773374Y-8388555D01*
X43759760Y-8408929D01*
X43750384Y-8431565D01*
X43725973Y-8512034D01*
X43714018Y-8551446D01*
X43602592Y-8759910D01*
X43452634Y-8942634D01*
X43269910Y-9092592D01*
X43061447Y-9204017D01*
X43061444Y-9204018D01*
X43061442Y-9204019D01*
X42835241Y-9272637D01*
X42719199Y-9284066D01*
X42658951Y-9290000D01*
X42541049Y-9290000D01*
X42480801Y-9284066D01*
X42364759Y-9272637D01*
X42138558Y-9204019D01*
X42138556Y-9204018D01*
X42138553Y-9204017D01*
X41930090Y-9092592D01*
X41747366Y-8942634D01*
X41597408Y-8759910D01*
X41485983Y-8551447D01*
X41485981Y-8551442D01*
X41417363Y-8325241D01*
X41394194Y-8090000D01*
X41417363Y-7854759D01*
X41485981Y-7628558D01*
X41485983Y-7628554D01*
X41485983Y-7628553D01*
X41597408Y-7420090D01*
X41747366Y-7237366D01*
X41930090Y-7087408D01*
X42121234Y-6985240D01*
X42141609Y-6971626D01*
X42158936Y-6954299D01*
X42172550Y-6933925D01*
X42181927Y-6911286D01*
X42186708Y-6887252D01*
X42186708Y-6875000D01*
X43012690Y-6875000D01*
X43015092Y-6899386D01*
X43022205Y-6922835D01*
X43033756Y-6944446D01*
X43049302Y-6963388D01*
X43068244Y-6978934D01*
X43078766Y-6985240D01*
X43269910Y-7087408D01*
X43452634Y-7237366D01*
X43602592Y-7420090D01*
X43714018Y-7628554D01*
X43714019Y-7628558D01*
X43746055Y-7734165D01*
X43750382Y-7748431D01*
X43759760Y-7771071D01*
X43773374Y-7791445D01*
X43790701Y-7808772D01*
X43811075Y-7822386D01*
X43833714Y-7831764D01*
X43857748Y-7836544D01*
X43882252Y-7836544D01*
X43906285Y-7831764D01*
X43928925Y-7822386D01*
X43949299Y-7808772D01*
X43966626Y-7791445D01*
X43980240Y-7771071D01*
X43989618Y-7748431D01*
X43993946Y-7734165D01*
X44025981Y-7628558D01*
X44025982Y-7628554D01*
X44137408Y-7420090D01*
X44287366Y-7237366D01*
X44470090Y-7087408D01*
X44678554Y-6975982D01*
X44747604Y-6955036D01*
X44798435Y-6939616D01*
X44821071Y-6930240D01*
X44841445Y-6916626D01*
X44858772Y-6899299D01*
X44872386Y-6878925D01*
X44881764Y-6856286D01*
X44886544Y-6832252D01*
X44886544Y-6807748D01*
X45393456Y-6807748D01*
X45393456Y-6832252D01*
X45398236Y-6856285D01*
X45407614Y-6878925D01*
X45421228Y-6899299D01*
X45438555Y-6916626D01*
X45458929Y-6930240D01*
X45481565Y-6939616D01*
X45532396Y-6955036D01*
X45601446Y-6975982D01*
X45809910Y-7087408D01*
X45992634Y-7237366D01*
X46142592Y-7420090D01*
X46254018Y-7628554D01*
X46254019Y-7628558D01*
X46286055Y-7734165D01*
X46290382Y-7748431D01*
X46299760Y-7771071D01*
X46313374Y-7791445D01*
X46330701Y-7808772D01*
X46351075Y-7822386D01*
X46373714Y-7831764D01*
X46397748Y-7836544D01*
X46422252Y-7836544D01*
X46446285Y-7831764D01*
X46468925Y-7822386D01*
X46489299Y-7808772D01*
X46506626Y-7791445D01*
X46520240Y-7771071D01*
X46529618Y-7748431D01*
X46533946Y-7734165D01*
X46565981Y-7628558D01*
X46565982Y-7628554D01*
X46677408Y-7420090D01*
X46827366Y-7237366D01*
X47010090Y-7087408D01*
X47218554Y-6975982D01*
X47287604Y-6955036D01*
X47338435Y-6939616D01*
X47361071Y-6930240D01*
X47381445Y-6916626D01*
X47398772Y-6899299D01*
X47412386Y-6878925D01*
X47421764Y-6856286D01*
X47426544Y-6832252D01*
X47426544Y-6807748D01*
X47933456Y-6807748D01*
X47933456Y-6832252D01*
X47938236Y-6856285D01*
X47947614Y-6878925D01*
X47961228Y-6899299D01*
X47978555Y-6916626D01*
X47998929Y-6930240D01*
X48021565Y-6939616D01*
X48072396Y-6955036D01*
X48141446Y-6975982D01*
X48349910Y-7087408D01*
X48532634Y-7237366D01*
X48682592Y-7420090D01*
X48794018Y-7628554D01*
X48794019Y-7628558D01*
X48826055Y-7734165D01*
X48830382Y-7748431D01*
X48839760Y-7771071D01*
X48853374Y-7791445D01*
X48870701Y-7808772D01*
X48891075Y-7822386D01*
X48913714Y-7831764D01*
X48937748Y-7836544D01*
X48962252Y-7836544D01*
X48986285Y-7831764D01*
X49008925Y-7822386D01*
X49029299Y-7808772D01*
X49046626Y-7791445D01*
X49060240Y-7771071D01*
X49069618Y-7748431D01*
X49073946Y-7734165D01*
X49105981Y-7628558D01*
X49105982Y-7628554D01*
X49217408Y-7420090D01*
X49367366Y-7237366D01*
X49550090Y-7087408D01*
X49758554Y-6975982D01*
X49827604Y-6955036D01*
X49878435Y-6939616D01*
X49901071Y-6930240D01*
X49921445Y-6916626D01*
X49938772Y-6899299D01*
X49952386Y-6878925D01*
X49961764Y-6856286D01*
X49966544Y-6832252D01*
X49966544Y-6807748D01*
X49961764Y-6783715D01*
X49952386Y-6761075D01*
X49938772Y-6740701D01*
X49921445Y-6723374D01*
X49901071Y-6709760D01*
X49878435Y-6700384D01*
X49797966Y-6675973D01*
X49758554Y-6664018D01*
X49550090Y-6552592D01*
X49367366Y-6402634D01*
X49217408Y-6219910D01*
X49105982Y-6011446D01*
X49077844Y-5918688D01*
X49069616Y-5891565D01*
X49060240Y-5868929D01*
X49046626Y-5848555D01*
X49029299Y-5831228D01*
X49008925Y-5817614D01*
X48986286Y-5808236D01*
X48962252Y-5803456D01*
X48937748Y-5803456D01*
X48913715Y-5808236D01*
X48891075Y-5817614D01*
X48870701Y-5831228D01*
X48853374Y-5848555D01*
X48839760Y-5868929D01*
X48830384Y-5891565D01*
X48822156Y-5918688D01*
X48794018Y-6011446D01*
X48682592Y-6219910D01*
X48532634Y-6402634D01*
X48349910Y-6552592D01*
X48141446Y-6664018D01*
X48102034Y-6675973D01*
X48021565Y-6700384D01*
X47998929Y-6709760D01*
X47978555Y-6723374D01*
X47961228Y-6740701D01*
X47947614Y-6761075D01*
X47938236Y-6783714D01*
X47933456Y-6807748D01*
X47426544Y-6807748D01*
X47421764Y-6783715D01*
X47412386Y-6761075D01*
X47398772Y-6740701D01*
X47381445Y-6723374D01*
X47361071Y-6709760D01*
X47338435Y-6700384D01*
X47257966Y-6675973D01*
X47218554Y-6664018D01*
X47010090Y-6552592D01*
X46827366Y-6402634D01*
X46677408Y-6219910D01*
X46565982Y-6011446D01*
X46537844Y-5918688D01*
X46529616Y-5891565D01*
X46520240Y-5868929D01*
X46506626Y-5848555D01*
X46489299Y-5831228D01*
X46468925Y-5817614D01*
X46446286Y-5808236D01*
X46422252Y-5803456D01*
X46397748Y-5803456D01*
X46373715Y-5808236D01*
X46351075Y-5817614D01*
X46330701Y-5831228D01*
X46313374Y-5848555D01*
X46299760Y-5868929D01*
X46290384Y-5891565D01*
X46282156Y-5918688D01*
X46254018Y-6011446D01*
X46142592Y-6219910D01*
X45992634Y-6402634D01*
X45809910Y-6552592D01*
X45601446Y-6664018D01*
X45562034Y-6675973D01*
X45481565Y-6700384D01*
X45458929Y-6709760D01*
X45438555Y-6723374D01*
X45421228Y-6740701D01*
X45407614Y-6761075D01*
X45398236Y-6783714D01*
X45393456Y-6807748D01*
X44886544Y-6807748D01*
X44881764Y-6783715D01*
X44872386Y-6761075D01*
X44858772Y-6740701D01*
X44841445Y-6723374D01*
X44821071Y-6709760D01*
X44798435Y-6700384D01*
X44717966Y-6675973D01*
X44678554Y-6664018D01*
X44470090Y-6552592D01*
X44287366Y-6402634D01*
X44137408Y-6219910D01*
X44035240Y-6028766D01*
X44021626Y-6008391D01*
X44004299Y-5991064D01*
X43983925Y-5977450D01*
X43961286Y-5968073D01*
X43937252Y-5963292D01*
X43912748Y-5963292D01*
X43888715Y-5968072D01*
X43866076Y-5977450D01*
X43845701Y-5991064D01*
X43828374Y-6008391D01*
X43814760Y-6028765D01*
X43805383Y-6051404D01*
X43800602Y-6075438D01*
X43800000Y-6087690D01*
X43800000Y-6750000D01*
X43137690Y-6750000D01*
X43113304Y-6752402D01*
X43089855Y-6759515D01*
X43068244Y-6771066D01*
X43049302Y-6786612D01*
X43033756Y-6805554D01*
X43022205Y-6827165D01*
X43015092Y-6850614D01*
X43012690Y-6875000D01*
X42186708Y-6875000D01*
X42186708Y-6862748D01*
X42181928Y-6838715D01*
X42172550Y-6816076D01*
X42158936Y-6795701D01*
X42141609Y-6778374D01*
X42121235Y-6764760D01*
X42098596Y-6755383D01*
X42074562Y-6750602D01*
X42062310Y-6750000D01*
X41400000Y-6750000D01*
X41400000Y-4350000D01*
X43800000Y-4350000D01*
X43800000Y-5012310D01*
X43800000Y-5012310D01*
G37*
G36*
X32805836Y-6930193D02*
X32921348Y-6965233D01*
X33003763Y-6990233D01*
X33186172Y-7087733D01*
X33315592Y-7193946D01*
X33346054Y-7218946D01*
X33477267Y-7378829D01*
X33499321Y-7420090D01*
X33574767Y-7561238D01*
X33574767Y-7561239D01*
X33634807Y-7759165D01*
X33637986Y-7791445D01*
X33647538Y-7888420D01*
X33650000Y-7913423D01*
X33650000Y-8266578D01*
X33634807Y-8420836D01*
X33627223Y-8445836D01*
X33574767Y-8618763D01*
X33477267Y-8801172D01*
X33361171Y-8942634D01*
X33346054Y-8961054D01*
X33186171Y-9092267D01*
X33067300Y-9155805D01*
X33003762Y-9189767D01*
X32937786Y-9209780D01*
X32805835Y-9249807D01*
X32600000Y-9270080D01*
X32394164Y-9249807D01*
X32262213Y-9209780D01*
X32196237Y-9189767D01*
X32013828Y-9092267D01*
X31853946Y-8961054D01*
X31838829Y-8942634D01*
X31722733Y-8801171D01*
X31659195Y-8682300D01*
X31625233Y-8618762D01*
X31572777Y-8445835D01*
X31565193Y-8420835D01*
X31555777Y-8325237D01*
X31550000Y-8266579D01*
X31550000Y-7913420D01*
X31565193Y-7759166D01*
X31565193Y-7759164D01*
X31619143Y-7581314D01*
X31625233Y-7561237D01*
X31722732Y-7378831D01*
X31722733Y-7378829D01*
X31853947Y-7218946D01*
X31853949Y-7218944D01*
X32013829Y-7087733D01*
X32196238Y-6990233D01*
X32278653Y-6965233D01*
X32394165Y-6930193D01*
X32600000Y-6909920D01*
X32805836Y-6930193D01*
X32805836Y-6930193D01*
G37*
G36*
X35305836Y-6930193D02*
X35421348Y-6965233D01*
X35503763Y-6990233D01*
X35686172Y-7087733D01*
X35815592Y-7193946D01*
X35846054Y-7218946D01*
X35977267Y-7378829D01*
X35999321Y-7420090D01*
X36074767Y-7561238D01*
X36074767Y-7561239D01*
X36134807Y-7759165D01*
X36137986Y-7791445D01*
X36147538Y-7888420D01*
X36150000Y-7913423D01*
X36150000Y-8266578D01*
X36134807Y-8420836D01*
X36127223Y-8445836D01*
X36074767Y-8618763D01*
X35977267Y-8801172D01*
X35861171Y-8942634D01*
X35846054Y-8961054D01*
X35686171Y-9092267D01*
X35567300Y-9155805D01*
X35503762Y-9189767D01*
X35437786Y-9209780D01*
X35305835Y-9249807D01*
X35100000Y-9270080D01*
X34894164Y-9249807D01*
X34762213Y-9209780D01*
X34696237Y-9189767D01*
X34513828Y-9092267D01*
X34353946Y-8961054D01*
X34338829Y-8942634D01*
X34222733Y-8801171D01*
X34159195Y-8682300D01*
X34125233Y-8618762D01*
X34072777Y-8445835D01*
X34065193Y-8420835D01*
X34055777Y-8325237D01*
X34050000Y-8266579D01*
X34050000Y-7913420D01*
X34065193Y-7759166D01*
X34065193Y-7759164D01*
X34119143Y-7581314D01*
X34125233Y-7561237D01*
X34222732Y-7378831D01*
X34222733Y-7378829D01*
X34353947Y-7218946D01*
X34353949Y-7218944D01*
X34513829Y-7087733D01*
X34696238Y-6990233D01*
X34778653Y-6965233D01*
X34894165Y-6930193D01*
X35100000Y-6909920D01*
X35305836Y-6930193D01*
X35305836Y-6930193D01*
G37*
G36*
X117805836Y-6930193D02*
X117921348Y-6965233D01*
X118003763Y-6990233D01*
X118186172Y-7087733D01*
X118315592Y-7193946D01*
X118346054Y-7218946D01*
X118477267Y-7378829D01*
X118499321Y-7420090D01*
X118574767Y-7561238D01*
X118574767Y-7561239D01*
X118634807Y-7759165D01*
X118637986Y-7791445D01*
X118647538Y-7888420D01*
X118650000Y-7913423D01*
X118650000Y-8266578D01*
X118634807Y-8420836D01*
X118627223Y-8445836D01*
X118574767Y-8618763D01*
X118477267Y-8801172D01*
X118361171Y-8942634D01*
X118346054Y-8961054D01*
X118186171Y-9092267D01*
X118067300Y-9155805D01*
X118003762Y-9189767D01*
X117937786Y-9209780D01*
X117805835Y-9249807D01*
X117600000Y-9270080D01*
X117394164Y-9249807D01*
X117262213Y-9209780D01*
X117196237Y-9189767D01*
X117013828Y-9092267D01*
X116853946Y-8961054D01*
X116838829Y-8942634D01*
X116722733Y-8801171D01*
X116659195Y-8682300D01*
X116625233Y-8618762D01*
X116572777Y-8445835D01*
X116565193Y-8420835D01*
X116555777Y-8325237D01*
X116550000Y-8266579D01*
X116550000Y-7913420D01*
X116565193Y-7759166D01*
X116565193Y-7759164D01*
X116619143Y-7581314D01*
X116625233Y-7561237D01*
X116722732Y-7378831D01*
X116722733Y-7378829D01*
X116853947Y-7218946D01*
X116853949Y-7218944D01*
X117013829Y-7087733D01*
X117196238Y-6990233D01*
X117278653Y-6965233D01*
X117394165Y-6930193D01*
X117600000Y-6909920D01*
X117805836Y-6930193D01*
X117805836Y-6930193D01*
G37*
G36*
X115305836Y-6930193D02*
X115421348Y-6965233D01*
X115503763Y-6990233D01*
X115686172Y-7087733D01*
X115815592Y-7193946D01*
X115846054Y-7218946D01*
X115977267Y-7378829D01*
X115999321Y-7420090D01*
X116074767Y-7561238D01*
X116074767Y-7561239D01*
X116134807Y-7759165D01*
X116137986Y-7791445D01*
X116147538Y-7888420D01*
X116150000Y-7913423D01*
X116150000Y-8266578D01*
X116134807Y-8420836D01*
X116127223Y-8445836D01*
X116074767Y-8618763D01*
X115977267Y-8801172D01*
X115861171Y-8942634D01*
X115846054Y-8961054D01*
X115686171Y-9092267D01*
X115567300Y-9155805D01*
X115503762Y-9189767D01*
X115437786Y-9209780D01*
X115305835Y-9249807D01*
X115100000Y-9270080D01*
X114894164Y-9249807D01*
X114762213Y-9209780D01*
X114696237Y-9189767D01*
X114513828Y-9092267D01*
X114353946Y-8961054D01*
X114338829Y-8942634D01*
X114222733Y-8801171D01*
X114159195Y-8682300D01*
X114125233Y-8618762D01*
X114072777Y-8445835D01*
X114065193Y-8420835D01*
X114055777Y-8325237D01*
X114050000Y-8266579D01*
X114050000Y-7913420D01*
X114065193Y-7759166D01*
X114065193Y-7759164D01*
X114119143Y-7581314D01*
X114125233Y-7561237D01*
X114222732Y-7378831D01*
X114222733Y-7378829D01*
X114353947Y-7218946D01*
X114353949Y-7218944D01*
X114513829Y-7087733D01*
X114696238Y-6990233D01*
X114778653Y-6965233D01*
X114894165Y-6930193D01*
X115100000Y-6909920D01*
X115305836Y-6930193D01*
X115305836Y-6930193D01*
G37*
G36*
X95555836Y-6930193D02*
X95671348Y-6965233D01*
X95753763Y-6990233D01*
X95936172Y-7087733D01*
X96065592Y-7193946D01*
X96096054Y-7218946D01*
X96227267Y-7378829D01*
X96249321Y-7420090D01*
X96324767Y-7561238D01*
X96324767Y-7561239D01*
X96384807Y-7759165D01*
X96387986Y-7791445D01*
X96397538Y-7888420D01*
X96400000Y-7913423D01*
X96400000Y-8266578D01*
X96384807Y-8420836D01*
X96377223Y-8445836D01*
X96324767Y-8618763D01*
X96227267Y-8801172D01*
X96111171Y-8942634D01*
X96096054Y-8961054D01*
X95936171Y-9092267D01*
X95817300Y-9155805D01*
X95753762Y-9189767D01*
X95687786Y-9209780D01*
X95555835Y-9249807D01*
X95350000Y-9270080D01*
X95144164Y-9249807D01*
X95012213Y-9209780D01*
X94946237Y-9189767D01*
X94763828Y-9092267D01*
X94603946Y-8961054D01*
X94588829Y-8942634D01*
X94472733Y-8801171D01*
X94409195Y-8682300D01*
X94375233Y-8618762D01*
X94322777Y-8445835D01*
X94315193Y-8420835D01*
X94305777Y-8325237D01*
X94300000Y-8266579D01*
X94300000Y-7913420D01*
X94315193Y-7759166D01*
X94315193Y-7759164D01*
X94369143Y-7581314D01*
X94375233Y-7561237D01*
X94472732Y-7378831D01*
X94472733Y-7378829D01*
X94603947Y-7218946D01*
X94603949Y-7218944D01*
X94763829Y-7087733D01*
X94946238Y-6990233D01*
X95028653Y-6965233D01*
X95144165Y-6930193D01*
X95350000Y-6909920D01*
X95555836Y-6930193D01*
X95555836Y-6930193D01*
G37*
G36*
X93055836Y-6930193D02*
X93171348Y-6965233D01*
X93253763Y-6990233D01*
X93436172Y-7087733D01*
X93565592Y-7193946D01*
X93596054Y-7218946D01*
X93727267Y-7378829D01*
X93749321Y-7420090D01*
X93824767Y-7561238D01*
X93824767Y-7561239D01*
X93884807Y-7759165D01*
X93887986Y-7791445D01*
X93897538Y-7888420D01*
X93900000Y-7913423D01*
X93900000Y-8266578D01*
X93884807Y-8420836D01*
X93877223Y-8445836D01*
X93824767Y-8618763D01*
X93727267Y-8801172D01*
X93611171Y-8942634D01*
X93596054Y-8961054D01*
X93436171Y-9092267D01*
X93317300Y-9155805D01*
X93253762Y-9189767D01*
X93187786Y-9209780D01*
X93055835Y-9249807D01*
X92850000Y-9270080D01*
X92644164Y-9249807D01*
X92512213Y-9209780D01*
X92446237Y-9189767D01*
X92263828Y-9092267D01*
X92103946Y-8961054D01*
X92088829Y-8942634D01*
X91972733Y-8801171D01*
X91909195Y-8682300D01*
X91875233Y-8618762D01*
X91822777Y-8445835D01*
X91815193Y-8420835D01*
X91805777Y-8325237D01*
X91800000Y-8266579D01*
X91800000Y-7913420D01*
X91815193Y-7759166D01*
X91815193Y-7759164D01*
X91869143Y-7581314D01*
X91875233Y-7561237D01*
X91972732Y-7378831D01*
X91972733Y-7378829D01*
X92103947Y-7218946D01*
X92103949Y-7218944D01*
X92263829Y-7087733D01*
X92446238Y-6990233D01*
X92528653Y-6965233D01*
X92644165Y-6930193D01*
X92850000Y-6909920D01*
X93055836Y-6930193D01*
X93055836Y-6930193D01*
G37*
G36*
X90555836Y-6930193D02*
X90671348Y-6965233D01*
X90753763Y-6990233D01*
X90936172Y-7087733D01*
X91065592Y-7193946D01*
X91096054Y-7218946D01*
X91227267Y-7378829D01*
X91249321Y-7420090D01*
X91324767Y-7561238D01*
X91324767Y-7561239D01*
X91384807Y-7759165D01*
X91387986Y-7791445D01*
X91397538Y-7888420D01*
X91400000Y-7913423D01*
X91400000Y-8266578D01*
X91384807Y-8420836D01*
X91377223Y-8445836D01*
X91324767Y-8618763D01*
X91227267Y-8801172D01*
X91111171Y-8942634D01*
X91096054Y-8961054D01*
X90936171Y-9092267D01*
X90817300Y-9155805D01*
X90753762Y-9189767D01*
X90687786Y-9209780D01*
X90555835Y-9249807D01*
X90350000Y-9270080D01*
X90144164Y-9249807D01*
X90012213Y-9209780D01*
X89946237Y-9189767D01*
X89763828Y-9092267D01*
X89603946Y-8961054D01*
X89588829Y-8942634D01*
X89472733Y-8801171D01*
X89409195Y-8682300D01*
X89375233Y-8618762D01*
X89322777Y-8445835D01*
X89315193Y-8420835D01*
X89305777Y-8325237D01*
X89300000Y-8266579D01*
X89300000Y-7913420D01*
X89315193Y-7759166D01*
X89315193Y-7759164D01*
X89369143Y-7581314D01*
X89375233Y-7561237D01*
X89472732Y-7378831D01*
X89472733Y-7378829D01*
X89603947Y-7218946D01*
X89603949Y-7218944D01*
X89763829Y-7087733D01*
X89946238Y-6990233D01*
X90028653Y-6965233D01*
X90144165Y-6930193D01*
X90350000Y-6909920D01*
X90555836Y-6930193D01*
X90555836Y-6930193D01*
G37*
G36*
X120972325Y-6919831D02*
X121013598Y-6932351D01*
X121051629Y-6952679D01*
X121084964Y-6980036D01*
X121112321Y-7013371D01*
X121132649Y-7051402D01*
X121145169Y-7092675D01*
X121150000Y-7141726D01*
X121150000Y-9038274D01*
X121145169Y-9087325D01*
X121132649Y-9128598D01*
X121112321Y-9166629D01*
X121084964Y-9199964D01*
X121051629Y-9227321D01*
X121013598Y-9247649D01*
X120972325Y-9260169D01*
X120923274Y-9265000D01*
X119276726Y-9265000D01*
X119227675Y-9260169D01*
X119186402Y-9247649D01*
X119148371Y-9227321D01*
X119115036Y-9199964D01*
X119087679Y-9166629D01*
X119067351Y-9128598D01*
X119054831Y-9087325D01*
X119050000Y-9038274D01*
X119050000Y-7141726D01*
X119054831Y-7092675D01*
X119067351Y-7051402D01*
X119087679Y-7013371D01*
X119115036Y-6980036D01*
X119148371Y-6952679D01*
X119186402Y-6932351D01*
X119227675Y-6919831D01*
X119276726Y-6915000D01*
X120923274Y-6915000D01*
X120972325Y-6919831D01*
X120972325Y-6919831D01*
G37*
G36*
X98722325Y-6919831D02*
X98763598Y-6932351D01*
X98801629Y-6952679D01*
X98834964Y-6980036D01*
X98862321Y-7013371D01*
X98882649Y-7051402D01*
X98895169Y-7092675D01*
X98900000Y-7141726D01*
X98900000Y-9038274D01*
X98895169Y-9087325D01*
X98882649Y-9128598D01*
X98862321Y-9166629D01*
X98834964Y-9199964D01*
X98801629Y-9227321D01*
X98763598Y-9247649D01*
X98722325Y-9260169D01*
X98673274Y-9265000D01*
X97026726Y-9265000D01*
X96977675Y-9260169D01*
X96936402Y-9247649D01*
X96898371Y-9227321D01*
X96865036Y-9199964D01*
X96837679Y-9166629D01*
X96817351Y-9128598D01*
X96804831Y-9087325D01*
X96800000Y-9038274D01*
X96800000Y-7141726D01*
X96804831Y-7092675D01*
X96817351Y-7051402D01*
X96837679Y-7013371D01*
X96865036Y-6980036D01*
X96898371Y-6952679D01*
X96936402Y-6932351D01*
X96977675Y-6919831D01*
X97026726Y-6915000D01*
X98673274Y-6915000D01*
X98722325Y-6919831D01*
X98722325Y-6919831D01*
G37*
G36*
X38472325Y-6919831D02*
X38513598Y-6932351D01*
X38551629Y-6952679D01*
X38584964Y-6980036D01*
X38612321Y-7013371D01*
X38632649Y-7051402D01*
X38645169Y-7092675D01*
X38650000Y-7141726D01*
X38650000Y-9038274D01*
X38645169Y-9087325D01*
X38632649Y-9128598D01*
X38612321Y-9166629D01*
X38584964Y-9199964D01*
X38551629Y-9227321D01*
X38513598Y-9247649D01*
X38472325Y-9260169D01*
X38423274Y-9265000D01*
X36776726Y-9265000D01*
X36727675Y-9260169D01*
X36686402Y-9247649D01*
X36648371Y-9227321D01*
X36615036Y-9199964D01*
X36587679Y-9166629D01*
X36567351Y-9128598D01*
X36554831Y-9087325D01*
X36550000Y-9038274D01*
X36550000Y-7141726D01*
X36554831Y-7092675D01*
X36567351Y-7051402D01*
X36587679Y-7013371D01*
X36615036Y-6980036D01*
X36648371Y-6952679D01*
X36686402Y-6932351D01*
X36727675Y-6919831D01*
X36776726Y-6915000D01*
X38423274Y-6915000D01*
X38472325Y-6919831D01*
X38472325Y-6919831D01*
G37*
M02*
