G04 #@! TF.GenerationSoftware,KiCad,Pcbnew,5.0.2-bee76a0~70~ubuntu18.04.1*
G04 #@! TF.CreationDate,2018-11-29T20:18:26+08:00*
G04 #@! TF.ProjectId,backplane,6261636b-706c-4616-9e65-2e6b69636164,rev?*
G04 #@! TF.SameCoordinates,Original*
G04 #@! TF.FileFunction,Paste,Top*
G04 #@! TF.FilePolarity,Positive*
%FSLAX46Y46*%
G04 Gerber Fmt 4.6, Leading zero omitted, Abs format (unit mm)*
G04 Created by KiCad (PCBNEW 5.0.2-bee76a0~70~ubuntu18.04.1) date Thursday, November 29, 2018 PM08:18:26 HKT*
%MOMM*%
%LPD*%
G01*
G04 APERTURE LIST*
%ADD10C,1.000000*%
%ADD11R,1.998980X5.499100*%
%ADD12C,0.020000*%
%ADD13C,0.950000*%
%ADD14R,0.900000X1.200000*%
%ADD15R,1.560000X0.650000*%
%ADD16R,1.000000X1.000000*%
%ADD17R,1.300000X0.250000*%
%ADD18R,0.250000X1.300000*%
%ADD19R,1.300000X1.550000*%
%ADD20R,4.400000X2.500000*%
%ADD21R,3.500000X1.600000*%
%ADD22C,1.150000*%
%ADD23C,1.350000*%
%ADD24R,2.680000X3.600000*%
%ADD25R,0.610000X2.000000*%
%ADD26R,3.800000X2.000000*%
%ADD27R,1.500000X2.000000*%
%ADD28R,0.800000X1.900000*%
%ADD29R,1.900000X0.800000*%
%ADD30R,1.300000X1.900000*%
%ADD31R,3.000000X0.600000*%
G04 APERTURE END LIST*
D10*
X73110000Y-264100000D02*
G75*
G02X74110000Y-265100000I0J-1000000D01*
G01*
X73109999Y-294100001D02*
G75*
G02X72110000Y-293100000I1J1000000D01*
G01*
X72110000Y-293100000D02*
X72110000Y-265100000D01*
X74110000Y-265100000D02*
X74110000Y-293100000D01*
X74109998Y-293100001D02*
G75*
G02X73110000Y-294099999I-999998J0D01*
G01*
X72110000Y-265100000D02*
G75*
G02X73110000Y-264100000I1000000J0D01*
G01*
X15100000Y-234300000D02*
G75*
G02X14100000Y-233300000I0J1000000D01*
G01*
X14100000Y-233300000D02*
G75*
G02X15100000Y-232300000I1000000J0D01*
G01*
X44100000Y-233300000D02*
G75*
G02X43100000Y-234300000I-1000000J0D01*
G01*
X43100000Y-232300000D02*
G75*
G02X44100000Y-233300000I0J-1000000D01*
G01*
X43100000Y-234300000D02*
X15100000Y-234300000D01*
X15100000Y-232300000D02*
X43100000Y-232300000D01*
X0Y-5000000D02*
G75*
G02X5000000Y0I5000000J0D01*
G01*
X195000000Y0D02*
G75*
G02X200000000Y-5000000I0J-5000000D01*
G01*
X200000000Y-295000000D02*
G75*
G02X195000000Y-300000000I-5000000J0D01*
G01*
X5000000Y-300000000D02*
G75*
G02X0Y-295000000I0J5000000D01*
G01*
X0Y-5000000D02*
X0Y-295000000D01*
X5000000Y-300000000D02*
X195000000Y-300000000D01*
X200000000Y-5000000D02*
X200000000Y-295000000D01*
X5000000Y0D02*
X195000000Y0D01*
D11*
G04 #@! TO.C,Y1*
X33548500Y-34587430D03*
X33548500Y-44087030D03*
G04 #@! TD*
D12*
G04 #@! TO.C,R14*
G36*
X49235779Y-124176144D02*
X49258834Y-124179563D01*
X49281443Y-124185227D01*
X49303387Y-124193079D01*
X49324457Y-124203044D01*
X49344448Y-124215026D01*
X49363168Y-124228910D01*
X49380438Y-124244562D01*
X49396090Y-124261832D01*
X49409974Y-124280552D01*
X49421956Y-124300543D01*
X49431921Y-124321613D01*
X49439773Y-124343557D01*
X49445437Y-124366166D01*
X49448856Y-124389221D01*
X49450000Y-124412500D01*
X49450000Y-124887500D01*
X49448856Y-124910779D01*
X49445437Y-124933834D01*
X49439773Y-124956443D01*
X49431921Y-124978387D01*
X49421956Y-124999457D01*
X49409974Y-125019448D01*
X49396090Y-125038168D01*
X49380438Y-125055438D01*
X49363168Y-125071090D01*
X49344448Y-125084974D01*
X49324457Y-125096956D01*
X49303387Y-125106921D01*
X49281443Y-125114773D01*
X49258834Y-125120437D01*
X49235779Y-125123856D01*
X49212500Y-125125000D01*
X48637500Y-125125000D01*
X48614221Y-125123856D01*
X48591166Y-125120437D01*
X48568557Y-125114773D01*
X48546613Y-125106921D01*
X48525543Y-125096956D01*
X48505552Y-125084974D01*
X48486832Y-125071090D01*
X48469562Y-125055438D01*
X48453910Y-125038168D01*
X48440026Y-125019448D01*
X48428044Y-124999457D01*
X48418079Y-124978387D01*
X48410227Y-124956443D01*
X48404563Y-124933834D01*
X48401144Y-124910779D01*
X48400000Y-124887500D01*
X48400000Y-124412500D01*
X48401144Y-124389221D01*
X48404563Y-124366166D01*
X48410227Y-124343557D01*
X48418079Y-124321613D01*
X48428044Y-124300543D01*
X48440026Y-124280552D01*
X48453910Y-124261832D01*
X48469562Y-124244562D01*
X48486832Y-124228910D01*
X48505552Y-124215026D01*
X48525543Y-124203044D01*
X48546613Y-124193079D01*
X48568557Y-124185227D01*
X48591166Y-124179563D01*
X48614221Y-124176144D01*
X48637500Y-124175000D01*
X49212500Y-124175000D01*
X49235779Y-124176144D01*
X49235779Y-124176144D01*
G37*
D13*
X48925000Y-124650000D03*
D12*
G36*
X47485779Y-124176144D02*
X47508834Y-124179563D01*
X47531443Y-124185227D01*
X47553387Y-124193079D01*
X47574457Y-124203044D01*
X47594448Y-124215026D01*
X47613168Y-124228910D01*
X47630438Y-124244562D01*
X47646090Y-124261832D01*
X47659974Y-124280552D01*
X47671956Y-124300543D01*
X47681921Y-124321613D01*
X47689773Y-124343557D01*
X47695437Y-124366166D01*
X47698856Y-124389221D01*
X47700000Y-124412500D01*
X47700000Y-124887500D01*
X47698856Y-124910779D01*
X47695437Y-124933834D01*
X47689773Y-124956443D01*
X47681921Y-124978387D01*
X47671956Y-124999457D01*
X47659974Y-125019448D01*
X47646090Y-125038168D01*
X47630438Y-125055438D01*
X47613168Y-125071090D01*
X47594448Y-125084974D01*
X47574457Y-125096956D01*
X47553387Y-125106921D01*
X47531443Y-125114773D01*
X47508834Y-125120437D01*
X47485779Y-125123856D01*
X47462500Y-125125000D01*
X46887500Y-125125000D01*
X46864221Y-125123856D01*
X46841166Y-125120437D01*
X46818557Y-125114773D01*
X46796613Y-125106921D01*
X46775543Y-125096956D01*
X46755552Y-125084974D01*
X46736832Y-125071090D01*
X46719562Y-125055438D01*
X46703910Y-125038168D01*
X46690026Y-125019448D01*
X46678044Y-124999457D01*
X46668079Y-124978387D01*
X46660227Y-124956443D01*
X46654563Y-124933834D01*
X46651144Y-124910779D01*
X46650000Y-124887500D01*
X46650000Y-124412500D01*
X46651144Y-124389221D01*
X46654563Y-124366166D01*
X46660227Y-124343557D01*
X46668079Y-124321613D01*
X46678044Y-124300543D01*
X46690026Y-124280552D01*
X46703910Y-124261832D01*
X46719562Y-124244562D01*
X46736832Y-124228910D01*
X46755552Y-124215026D01*
X46775543Y-124203044D01*
X46796613Y-124193079D01*
X46818557Y-124185227D01*
X46841166Y-124179563D01*
X46864221Y-124176144D01*
X46887500Y-124175000D01*
X47462500Y-124175000D01*
X47485779Y-124176144D01*
X47485779Y-124176144D01*
G37*
D13*
X47175000Y-124650000D03*
G04 #@! TD*
D14*
G04 #@! TO.C,D11*
X40750000Y-135300000D03*
X44050000Y-135300000D03*
G04 #@! TD*
D12*
G04 #@! TO.C,R18*
G36*
X37795779Y-33836144D02*
X37818834Y-33839563D01*
X37841443Y-33845227D01*
X37863387Y-33853079D01*
X37884457Y-33863044D01*
X37904448Y-33875026D01*
X37923168Y-33888910D01*
X37940438Y-33904562D01*
X37956090Y-33921832D01*
X37969974Y-33940552D01*
X37981956Y-33960543D01*
X37991921Y-33981613D01*
X37999773Y-34003557D01*
X38005437Y-34026166D01*
X38008856Y-34049221D01*
X38010000Y-34072500D01*
X38010000Y-34547500D01*
X38008856Y-34570779D01*
X38005437Y-34593834D01*
X37999773Y-34616443D01*
X37991921Y-34638387D01*
X37981956Y-34659457D01*
X37969974Y-34679448D01*
X37956090Y-34698168D01*
X37940438Y-34715438D01*
X37923168Y-34731090D01*
X37904448Y-34744974D01*
X37884457Y-34756956D01*
X37863387Y-34766921D01*
X37841443Y-34774773D01*
X37818834Y-34780437D01*
X37795779Y-34783856D01*
X37772500Y-34785000D01*
X37197500Y-34785000D01*
X37174221Y-34783856D01*
X37151166Y-34780437D01*
X37128557Y-34774773D01*
X37106613Y-34766921D01*
X37085543Y-34756956D01*
X37065552Y-34744974D01*
X37046832Y-34731090D01*
X37029562Y-34715438D01*
X37013910Y-34698168D01*
X37000026Y-34679448D01*
X36988044Y-34659457D01*
X36978079Y-34638387D01*
X36970227Y-34616443D01*
X36964563Y-34593834D01*
X36961144Y-34570779D01*
X36960000Y-34547500D01*
X36960000Y-34072500D01*
X36961144Y-34049221D01*
X36964563Y-34026166D01*
X36970227Y-34003557D01*
X36978079Y-33981613D01*
X36988044Y-33960543D01*
X37000026Y-33940552D01*
X37013910Y-33921832D01*
X37029562Y-33904562D01*
X37046832Y-33888910D01*
X37065552Y-33875026D01*
X37085543Y-33863044D01*
X37106613Y-33853079D01*
X37128557Y-33845227D01*
X37151166Y-33839563D01*
X37174221Y-33836144D01*
X37197500Y-33835000D01*
X37772500Y-33835000D01*
X37795779Y-33836144D01*
X37795779Y-33836144D01*
G37*
D13*
X37485000Y-34310000D03*
D12*
G36*
X39545779Y-33836144D02*
X39568834Y-33839563D01*
X39591443Y-33845227D01*
X39613387Y-33853079D01*
X39634457Y-33863044D01*
X39654448Y-33875026D01*
X39673168Y-33888910D01*
X39690438Y-33904562D01*
X39706090Y-33921832D01*
X39719974Y-33940552D01*
X39731956Y-33960543D01*
X39741921Y-33981613D01*
X39749773Y-34003557D01*
X39755437Y-34026166D01*
X39758856Y-34049221D01*
X39760000Y-34072500D01*
X39760000Y-34547500D01*
X39758856Y-34570779D01*
X39755437Y-34593834D01*
X39749773Y-34616443D01*
X39741921Y-34638387D01*
X39731956Y-34659457D01*
X39719974Y-34679448D01*
X39706090Y-34698168D01*
X39690438Y-34715438D01*
X39673168Y-34731090D01*
X39654448Y-34744974D01*
X39634457Y-34756956D01*
X39613387Y-34766921D01*
X39591443Y-34774773D01*
X39568834Y-34780437D01*
X39545779Y-34783856D01*
X39522500Y-34785000D01*
X38947500Y-34785000D01*
X38924221Y-34783856D01*
X38901166Y-34780437D01*
X38878557Y-34774773D01*
X38856613Y-34766921D01*
X38835543Y-34756956D01*
X38815552Y-34744974D01*
X38796832Y-34731090D01*
X38779562Y-34715438D01*
X38763910Y-34698168D01*
X38750026Y-34679448D01*
X38738044Y-34659457D01*
X38728079Y-34638387D01*
X38720227Y-34616443D01*
X38714563Y-34593834D01*
X38711144Y-34570779D01*
X38710000Y-34547500D01*
X38710000Y-34072500D01*
X38711144Y-34049221D01*
X38714563Y-34026166D01*
X38720227Y-34003557D01*
X38728079Y-33981613D01*
X38738044Y-33960543D01*
X38750026Y-33940552D01*
X38763910Y-33921832D01*
X38779562Y-33904562D01*
X38796832Y-33888910D01*
X38815552Y-33875026D01*
X38835543Y-33863044D01*
X38856613Y-33853079D01*
X38878557Y-33845227D01*
X38901166Y-33839563D01*
X38924221Y-33836144D01*
X38947500Y-33835000D01*
X39522500Y-33835000D01*
X39545779Y-33836144D01*
X39545779Y-33836144D01*
G37*
D13*
X39235000Y-34310000D03*
G04 #@! TD*
D15*
G04 #@! TO.C,U6*
X95350000Y-16090000D03*
X95350000Y-17040000D03*
X95350000Y-17990000D03*
X98050000Y-17990000D03*
X98050000Y-16090000D03*
G04 #@! TD*
D16*
G04 #@! TO.C,D10*
X45850000Y-110485896D03*
X48350000Y-110485896D03*
G04 #@! TD*
D12*
G04 #@! TO.C,R28*
G36*
X46185779Y-113066144D02*
X46208834Y-113069563D01*
X46231443Y-113075227D01*
X46253387Y-113083079D01*
X46274457Y-113093044D01*
X46294448Y-113105026D01*
X46313168Y-113118910D01*
X46330438Y-113134562D01*
X46346090Y-113151832D01*
X46359974Y-113170552D01*
X46371956Y-113190543D01*
X46381921Y-113211613D01*
X46389773Y-113233557D01*
X46395437Y-113256166D01*
X46398856Y-113279221D01*
X46400000Y-113302500D01*
X46400000Y-113777500D01*
X46398856Y-113800779D01*
X46395437Y-113823834D01*
X46389773Y-113846443D01*
X46381921Y-113868387D01*
X46371956Y-113889457D01*
X46359974Y-113909448D01*
X46346090Y-113928168D01*
X46330438Y-113945438D01*
X46313168Y-113961090D01*
X46294448Y-113974974D01*
X46274457Y-113986956D01*
X46253387Y-113996921D01*
X46231443Y-114004773D01*
X46208834Y-114010437D01*
X46185779Y-114013856D01*
X46162500Y-114015000D01*
X45587500Y-114015000D01*
X45564221Y-114013856D01*
X45541166Y-114010437D01*
X45518557Y-114004773D01*
X45496613Y-113996921D01*
X45475543Y-113986956D01*
X45455552Y-113974974D01*
X45436832Y-113961090D01*
X45419562Y-113945438D01*
X45403910Y-113928168D01*
X45390026Y-113909448D01*
X45378044Y-113889457D01*
X45368079Y-113868387D01*
X45360227Y-113846443D01*
X45354563Y-113823834D01*
X45351144Y-113800779D01*
X45350000Y-113777500D01*
X45350000Y-113302500D01*
X45351144Y-113279221D01*
X45354563Y-113256166D01*
X45360227Y-113233557D01*
X45368079Y-113211613D01*
X45378044Y-113190543D01*
X45390026Y-113170552D01*
X45403910Y-113151832D01*
X45419562Y-113134562D01*
X45436832Y-113118910D01*
X45455552Y-113105026D01*
X45475543Y-113093044D01*
X45496613Y-113083079D01*
X45518557Y-113075227D01*
X45541166Y-113069563D01*
X45564221Y-113066144D01*
X45587500Y-113065000D01*
X46162500Y-113065000D01*
X46185779Y-113066144D01*
X46185779Y-113066144D01*
G37*
D13*
X45875000Y-113540000D03*
D12*
G36*
X47935779Y-113066144D02*
X47958834Y-113069563D01*
X47981443Y-113075227D01*
X48003387Y-113083079D01*
X48024457Y-113093044D01*
X48044448Y-113105026D01*
X48063168Y-113118910D01*
X48080438Y-113134562D01*
X48096090Y-113151832D01*
X48109974Y-113170552D01*
X48121956Y-113190543D01*
X48131921Y-113211613D01*
X48139773Y-113233557D01*
X48145437Y-113256166D01*
X48148856Y-113279221D01*
X48150000Y-113302500D01*
X48150000Y-113777500D01*
X48148856Y-113800779D01*
X48145437Y-113823834D01*
X48139773Y-113846443D01*
X48131921Y-113868387D01*
X48121956Y-113889457D01*
X48109974Y-113909448D01*
X48096090Y-113928168D01*
X48080438Y-113945438D01*
X48063168Y-113961090D01*
X48044448Y-113974974D01*
X48024457Y-113986956D01*
X48003387Y-113996921D01*
X47981443Y-114004773D01*
X47958834Y-114010437D01*
X47935779Y-114013856D01*
X47912500Y-114015000D01*
X47337500Y-114015000D01*
X47314221Y-114013856D01*
X47291166Y-114010437D01*
X47268557Y-114004773D01*
X47246613Y-113996921D01*
X47225543Y-113986956D01*
X47205552Y-113974974D01*
X47186832Y-113961090D01*
X47169562Y-113945438D01*
X47153910Y-113928168D01*
X47140026Y-113909448D01*
X47128044Y-113889457D01*
X47118079Y-113868387D01*
X47110227Y-113846443D01*
X47104563Y-113823834D01*
X47101144Y-113800779D01*
X47100000Y-113777500D01*
X47100000Y-113302500D01*
X47101144Y-113279221D01*
X47104563Y-113256166D01*
X47110227Y-113233557D01*
X47118079Y-113211613D01*
X47128044Y-113190543D01*
X47140026Y-113170552D01*
X47153910Y-113151832D01*
X47169562Y-113134562D01*
X47186832Y-113118910D01*
X47205552Y-113105026D01*
X47225543Y-113093044D01*
X47246613Y-113083079D01*
X47268557Y-113075227D01*
X47291166Y-113069563D01*
X47314221Y-113066144D01*
X47337500Y-113065000D01*
X47912500Y-113065000D01*
X47935779Y-113066144D01*
X47935779Y-113066144D01*
G37*
D13*
X47625000Y-113540000D03*
G04 #@! TD*
D17*
G04 #@! TO.C,U4*
X44498500Y-33687230D03*
X44498500Y-34187230D03*
X44498500Y-34687230D03*
X44498500Y-35187230D03*
X44498500Y-35687230D03*
X44498500Y-36187230D03*
X44498500Y-36687230D03*
X44498500Y-37187230D03*
X44498500Y-37687230D03*
X44498500Y-38187230D03*
X44498500Y-38687230D03*
X44498500Y-39187230D03*
D18*
X46098500Y-40787230D03*
X46598500Y-40787230D03*
X47098500Y-40787230D03*
X47598500Y-40787230D03*
X48098500Y-40787230D03*
X48598500Y-40787230D03*
X49098500Y-40787230D03*
X49598500Y-40787230D03*
X50098500Y-40787230D03*
X50598500Y-40787230D03*
X51098500Y-40787230D03*
X51598500Y-40787230D03*
D17*
X53198500Y-39187230D03*
X53198500Y-38687230D03*
X53198500Y-38187230D03*
X53198500Y-37687230D03*
X53198500Y-37187230D03*
X53198500Y-36687230D03*
X53198500Y-36187230D03*
X53198500Y-35687230D03*
X53198500Y-35187230D03*
X53198500Y-34687230D03*
X53198500Y-34187230D03*
X53198500Y-33687230D03*
D18*
X51598500Y-32087230D03*
X51098500Y-32087230D03*
X50598500Y-32087230D03*
X50098500Y-32087230D03*
X49598500Y-32087230D03*
X49098500Y-32087230D03*
X48598500Y-32087230D03*
X48098500Y-32087230D03*
X47598500Y-32087230D03*
X47098500Y-32087230D03*
X46598500Y-32087230D03*
X46098500Y-32087230D03*
G04 #@! TD*
D19*
G04 #@! TO.C,SW1*
X13882769Y-32158500D03*
X18382769Y-32158500D03*
X18382769Y-40118500D03*
X13882769Y-40118500D03*
G04 #@! TD*
D20*
G04 #@! TO.C,C7*
X39000000Y-18100000D03*
X30600000Y-18100000D03*
G04 #@! TD*
G04 #@! TO.C,C1*
X51700000Y-22700000D03*
X43300000Y-22700000D03*
G04 #@! TD*
D21*
G04 #@! TO.C,C21*
X21210000Y-96120000D03*
X15610000Y-96120000D03*
G04 #@! TD*
D12*
G04 #@! TO.C,C4*
G36*
X41375779Y-38526144D02*
X41398834Y-38529563D01*
X41421443Y-38535227D01*
X41443387Y-38543079D01*
X41464457Y-38553044D01*
X41484448Y-38565026D01*
X41503168Y-38578910D01*
X41520438Y-38594562D01*
X41536090Y-38611832D01*
X41549974Y-38630552D01*
X41561956Y-38650543D01*
X41571921Y-38671613D01*
X41579773Y-38693557D01*
X41585437Y-38716166D01*
X41588856Y-38739221D01*
X41590000Y-38762500D01*
X41590000Y-39237500D01*
X41588856Y-39260779D01*
X41585437Y-39283834D01*
X41579773Y-39306443D01*
X41571921Y-39328387D01*
X41561956Y-39349457D01*
X41549974Y-39369448D01*
X41536090Y-39388168D01*
X41520438Y-39405438D01*
X41503168Y-39421090D01*
X41484448Y-39434974D01*
X41464457Y-39446956D01*
X41443387Y-39456921D01*
X41421443Y-39464773D01*
X41398834Y-39470437D01*
X41375779Y-39473856D01*
X41352500Y-39475000D01*
X40777500Y-39475000D01*
X40754221Y-39473856D01*
X40731166Y-39470437D01*
X40708557Y-39464773D01*
X40686613Y-39456921D01*
X40665543Y-39446956D01*
X40645552Y-39434974D01*
X40626832Y-39421090D01*
X40609562Y-39405438D01*
X40593910Y-39388168D01*
X40580026Y-39369448D01*
X40568044Y-39349457D01*
X40558079Y-39328387D01*
X40550227Y-39306443D01*
X40544563Y-39283834D01*
X40541144Y-39260779D01*
X40540000Y-39237500D01*
X40540000Y-38762500D01*
X40541144Y-38739221D01*
X40544563Y-38716166D01*
X40550227Y-38693557D01*
X40558079Y-38671613D01*
X40568044Y-38650543D01*
X40580026Y-38630552D01*
X40593910Y-38611832D01*
X40609562Y-38594562D01*
X40626832Y-38578910D01*
X40645552Y-38565026D01*
X40665543Y-38553044D01*
X40686613Y-38543079D01*
X40708557Y-38535227D01*
X40731166Y-38529563D01*
X40754221Y-38526144D01*
X40777500Y-38525000D01*
X41352500Y-38525000D01*
X41375779Y-38526144D01*
X41375779Y-38526144D01*
G37*
D13*
X41065000Y-39000000D03*
D12*
G36*
X39625779Y-38526144D02*
X39648834Y-38529563D01*
X39671443Y-38535227D01*
X39693387Y-38543079D01*
X39714457Y-38553044D01*
X39734448Y-38565026D01*
X39753168Y-38578910D01*
X39770438Y-38594562D01*
X39786090Y-38611832D01*
X39799974Y-38630552D01*
X39811956Y-38650543D01*
X39821921Y-38671613D01*
X39829773Y-38693557D01*
X39835437Y-38716166D01*
X39838856Y-38739221D01*
X39840000Y-38762500D01*
X39840000Y-39237500D01*
X39838856Y-39260779D01*
X39835437Y-39283834D01*
X39829773Y-39306443D01*
X39821921Y-39328387D01*
X39811956Y-39349457D01*
X39799974Y-39369448D01*
X39786090Y-39388168D01*
X39770438Y-39405438D01*
X39753168Y-39421090D01*
X39734448Y-39434974D01*
X39714457Y-39446956D01*
X39693387Y-39456921D01*
X39671443Y-39464773D01*
X39648834Y-39470437D01*
X39625779Y-39473856D01*
X39602500Y-39475000D01*
X39027500Y-39475000D01*
X39004221Y-39473856D01*
X38981166Y-39470437D01*
X38958557Y-39464773D01*
X38936613Y-39456921D01*
X38915543Y-39446956D01*
X38895552Y-39434974D01*
X38876832Y-39421090D01*
X38859562Y-39405438D01*
X38843910Y-39388168D01*
X38830026Y-39369448D01*
X38818044Y-39349457D01*
X38808079Y-39328387D01*
X38800227Y-39306443D01*
X38794563Y-39283834D01*
X38791144Y-39260779D01*
X38790000Y-39237500D01*
X38790000Y-38762500D01*
X38791144Y-38739221D01*
X38794563Y-38716166D01*
X38800227Y-38693557D01*
X38808079Y-38671613D01*
X38818044Y-38650543D01*
X38830026Y-38630552D01*
X38843910Y-38611832D01*
X38859562Y-38594562D01*
X38876832Y-38578910D01*
X38895552Y-38565026D01*
X38915543Y-38553044D01*
X38936613Y-38543079D01*
X38958557Y-38535227D01*
X38981166Y-38529563D01*
X39004221Y-38526144D01*
X39027500Y-38525000D01*
X39602500Y-38525000D01*
X39625779Y-38526144D01*
X39625779Y-38526144D01*
G37*
D13*
X39315000Y-39000000D03*
G04 #@! TD*
D12*
G04 #@! TO.C,C6*
G36*
X53309279Y-42488374D02*
X53332334Y-42491793D01*
X53354943Y-42497457D01*
X53376887Y-42505309D01*
X53397957Y-42515274D01*
X53417948Y-42527256D01*
X53436668Y-42541140D01*
X53453938Y-42556792D01*
X53469590Y-42574062D01*
X53483474Y-42592782D01*
X53495456Y-42612773D01*
X53505421Y-42633843D01*
X53513273Y-42655787D01*
X53518937Y-42678396D01*
X53522356Y-42701451D01*
X53523500Y-42724730D01*
X53523500Y-43299730D01*
X53522356Y-43323009D01*
X53518937Y-43346064D01*
X53513273Y-43368673D01*
X53505421Y-43390617D01*
X53495456Y-43411687D01*
X53483474Y-43431678D01*
X53469590Y-43450398D01*
X53453938Y-43467668D01*
X53436668Y-43483320D01*
X53417948Y-43497204D01*
X53397957Y-43509186D01*
X53376887Y-43519151D01*
X53354943Y-43527003D01*
X53332334Y-43532667D01*
X53309279Y-43536086D01*
X53286000Y-43537230D01*
X52811000Y-43537230D01*
X52787721Y-43536086D01*
X52764666Y-43532667D01*
X52742057Y-43527003D01*
X52720113Y-43519151D01*
X52699043Y-43509186D01*
X52679052Y-43497204D01*
X52660332Y-43483320D01*
X52643062Y-43467668D01*
X52627410Y-43450398D01*
X52613526Y-43431678D01*
X52601544Y-43411687D01*
X52591579Y-43390617D01*
X52583727Y-43368673D01*
X52578063Y-43346064D01*
X52574644Y-43323009D01*
X52573500Y-43299730D01*
X52573500Y-42724730D01*
X52574644Y-42701451D01*
X52578063Y-42678396D01*
X52583727Y-42655787D01*
X52591579Y-42633843D01*
X52601544Y-42612773D01*
X52613526Y-42592782D01*
X52627410Y-42574062D01*
X52643062Y-42556792D01*
X52660332Y-42541140D01*
X52679052Y-42527256D01*
X52699043Y-42515274D01*
X52720113Y-42505309D01*
X52742057Y-42497457D01*
X52764666Y-42491793D01*
X52787721Y-42488374D01*
X52811000Y-42487230D01*
X53286000Y-42487230D01*
X53309279Y-42488374D01*
X53309279Y-42488374D01*
G37*
D13*
X53048500Y-43012230D03*
D12*
G36*
X53309279Y-40738374D02*
X53332334Y-40741793D01*
X53354943Y-40747457D01*
X53376887Y-40755309D01*
X53397957Y-40765274D01*
X53417948Y-40777256D01*
X53436668Y-40791140D01*
X53453938Y-40806792D01*
X53469590Y-40824062D01*
X53483474Y-40842782D01*
X53495456Y-40862773D01*
X53505421Y-40883843D01*
X53513273Y-40905787D01*
X53518937Y-40928396D01*
X53522356Y-40951451D01*
X53523500Y-40974730D01*
X53523500Y-41549730D01*
X53522356Y-41573009D01*
X53518937Y-41596064D01*
X53513273Y-41618673D01*
X53505421Y-41640617D01*
X53495456Y-41661687D01*
X53483474Y-41681678D01*
X53469590Y-41700398D01*
X53453938Y-41717668D01*
X53436668Y-41733320D01*
X53417948Y-41747204D01*
X53397957Y-41759186D01*
X53376887Y-41769151D01*
X53354943Y-41777003D01*
X53332334Y-41782667D01*
X53309279Y-41786086D01*
X53286000Y-41787230D01*
X52811000Y-41787230D01*
X52787721Y-41786086D01*
X52764666Y-41782667D01*
X52742057Y-41777003D01*
X52720113Y-41769151D01*
X52699043Y-41759186D01*
X52679052Y-41747204D01*
X52660332Y-41733320D01*
X52643062Y-41717668D01*
X52627410Y-41700398D01*
X52613526Y-41681678D01*
X52601544Y-41661687D01*
X52591579Y-41640617D01*
X52583727Y-41618673D01*
X52578063Y-41596064D01*
X52574644Y-41573009D01*
X52573500Y-41549730D01*
X52573500Y-40974730D01*
X52574644Y-40951451D01*
X52578063Y-40928396D01*
X52583727Y-40905787D01*
X52591579Y-40883843D01*
X52601544Y-40862773D01*
X52613526Y-40842782D01*
X52627410Y-40824062D01*
X52643062Y-40806792D01*
X52660332Y-40791140D01*
X52679052Y-40777256D01*
X52699043Y-40765274D01*
X52720113Y-40755309D01*
X52742057Y-40747457D01*
X52764666Y-40741793D01*
X52787721Y-40738374D01*
X52811000Y-40737230D01*
X53286000Y-40737230D01*
X53309279Y-40738374D01*
X53309279Y-40738374D01*
G37*
D13*
X53048500Y-41262230D03*
G04 #@! TD*
D12*
G04 #@! TO.C,C10*
G36*
X24185779Y-30426144D02*
X24208834Y-30429563D01*
X24231443Y-30435227D01*
X24253387Y-30443079D01*
X24274457Y-30453044D01*
X24294448Y-30465026D01*
X24313168Y-30478910D01*
X24330438Y-30494562D01*
X24346090Y-30511832D01*
X24359974Y-30530552D01*
X24371956Y-30550543D01*
X24381921Y-30571613D01*
X24389773Y-30593557D01*
X24395437Y-30616166D01*
X24398856Y-30639221D01*
X24400000Y-30662500D01*
X24400000Y-31137500D01*
X24398856Y-31160779D01*
X24395437Y-31183834D01*
X24389773Y-31206443D01*
X24381921Y-31228387D01*
X24371956Y-31249457D01*
X24359974Y-31269448D01*
X24346090Y-31288168D01*
X24330438Y-31305438D01*
X24313168Y-31321090D01*
X24294448Y-31334974D01*
X24274457Y-31346956D01*
X24253387Y-31356921D01*
X24231443Y-31364773D01*
X24208834Y-31370437D01*
X24185779Y-31373856D01*
X24162500Y-31375000D01*
X23587500Y-31375000D01*
X23564221Y-31373856D01*
X23541166Y-31370437D01*
X23518557Y-31364773D01*
X23496613Y-31356921D01*
X23475543Y-31346956D01*
X23455552Y-31334974D01*
X23436832Y-31321090D01*
X23419562Y-31305438D01*
X23403910Y-31288168D01*
X23390026Y-31269448D01*
X23378044Y-31249457D01*
X23368079Y-31228387D01*
X23360227Y-31206443D01*
X23354563Y-31183834D01*
X23351144Y-31160779D01*
X23350000Y-31137500D01*
X23350000Y-30662500D01*
X23351144Y-30639221D01*
X23354563Y-30616166D01*
X23360227Y-30593557D01*
X23368079Y-30571613D01*
X23378044Y-30550543D01*
X23390026Y-30530552D01*
X23403910Y-30511832D01*
X23419562Y-30494562D01*
X23436832Y-30478910D01*
X23455552Y-30465026D01*
X23475543Y-30453044D01*
X23496613Y-30443079D01*
X23518557Y-30435227D01*
X23541166Y-30429563D01*
X23564221Y-30426144D01*
X23587500Y-30425000D01*
X24162500Y-30425000D01*
X24185779Y-30426144D01*
X24185779Y-30426144D01*
G37*
D13*
X23875000Y-30900000D03*
D12*
G36*
X22435779Y-30426144D02*
X22458834Y-30429563D01*
X22481443Y-30435227D01*
X22503387Y-30443079D01*
X22524457Y-30453044D01*
X22544448Y-30465026D01*
X22563168Y-30478910D01*
X22580438Y-30494562D01*
X22596090Y-30511832D01*
X22609974Y-30530552D01*
X22621956Y-30550543D01*
X22631921Y-30571613D01*
X22639773Y-30593557D01*
X22645437Y-30616166D01*
X22648856Y-30639221D01*
X22650000Y-30662500D01*
X22650000Y-31137500D01*
X22648856Y-31160779D01*
X22645437Y-31183834D01*
X22639773Y-31206443D01*
X22631921Y-31228387D01*
X22621956Y-31249457D01*
X22609974Y-31269448D01*
X22596090Y-31288168D01*
X22580438Y-31305438D01*
X22563168Y-31321090D01*
X22544448Y-31334974D01*
X22524457Y-31346956D01*
X22503387Y-31356921D01*
X22481443Y-31364773D01*
X22458834Y-31370437D01*
X22435779Y-31373856D01*
X22412500Y-31375000D01*
X21837500Y-31375000D01*
X21814221Y-31373856D01*
X21791166Y-31370437D01*
X21768557Y-31364773D01*
X21746613Y-31356921D01*
X21725543Y-31346956D01*
X21705552Y-31334974D01*
X21686832Y-31321090D01*
X21669562Y-31305438D01*
X21653910Y-31288168D01*
X21640026Y-31269448D01*
X21628044Y-31249457D01*
X21618079Y-31228387D01*
X21610227Y-31206443D01*
X21604563Y-31183834D01*
X21601144Y-31160779D01*
X21600000Y-31137500D01*
X21600000Y-30662500D01*
X21601144Y-30639221D01*
X21604563Y-30616166D01*
X21610227Y-30593557D01*
X21618079Y-30571613D01*
X21628044Y-30550543D01*
X21640026Y-30530552D01*
X21653910Y-30511832D01*
X21669562Y-30494562D01*
X21686832Y-30478910D01*
X21705552Y-30465026D01*
X21725543Y-30453044D01*
X21746613Y-30443079D01*
X21768557Y-30435227D01*
X21791166Y-30429563D01*
X21814221Y-30426144D01*
X21837500Y-30425000D01*
X22412500Y-30425000D01*
X22435779Y-30426144D01*
X22435779Y-30426144D01*
G37*
D13*
X22125000Y-30900000D03*
G04 #@! TD*
D12*
G04 #@! TO.C,C11*
G36*
X17518549Y-41864644D02*
X17541604Y-41868063D01*
X17564213Y-41873727D01*
X17586157Y-41881579D01*
X17607227Y-41891544D01*
X17627218Y-41903526D01*
X17645938Y-41917410D01*
X17663208Y-41933062D01*
X17678860Y-41950332D01*
X17692744Y-41969052D01*
X17704726Y-41989043D01*
X17714691Y-42010113D01*
X17722543Y-42032057D01*
X17728207Y-42054666D01*
X17731626Y-42077721D01*
X17732770Y-42101000D01*
X17732770Y-42576000D01*
X17731626Y-42599279D01*
X17728207Y-42622334D01*
X17722543Y-42644943D01*
X17714691Y-42666887D01*
X17704726Y-42687957D01*
X17692744Y-42707948D01*
X17678860Y-42726668D01*
X17663208Y-42743938D01*
X17645938Y-42759590D01*
X17627218Y-42773474D01*
X17607227Y-42785456D01*
X17586157Y-42795421D01*
X17564213Y-42803273D01*
X17541604Y-42808937D01*
X17518549Y-42812356D01*
X17495270Y-42813500D01*
X16920270Y-42813500D01*
X16896991Y-42812356D01*
X16873936Y-42808937D01*
X16851327Y-42803273D01*
X16829383Y-42795421D01*
X16808313Y-42785456D01*
X16788322Y-42773474D01*
X16769602Y-42759590D01*
X16752332Y-42743938D01*
X16736680Y-42726668D01*
X16722796Y-42707948D01*
X16710814Y-42687957D01*
X16700849Y-42666887D01*
X16692997Y-42644943D01*
X16687333Y-42622334D01*
X16683914Y-42599279D01*
X16682770Y-42576000D01*
X16682770Y-42101000D01*
X16683914Y-42077721D01*
X16687333Y-42054666D01*
X16692997Y-42032057D01*
X16700849Y-42010113D01*
X16710814Y-41989043D01*
X16722796Y-41969052D01*
X16736680Y-41950332D01*
X16752332Y-41933062D01*
X16769602Y-41917410D01*
X16788322Y-41903526D01*
X16808313Y-41891544D01*
X16829383Y-41881579D01*
X16851327Y-41873727D01*
X16873936Y-41868063D01*
X16896991Y-41864644D01*
X16920270Y-41863500D01*
X17495270Y-41863500D01*
X17518549Y-41864644D01*
X17518549Y-41864644D01*
G37*
D13*
X17207770Y-42338500D03*
D12*
G36*
X15768549Y-41864644D02*
X15791604Y-41868063D01*
X15814213Y-41873727D01*
X15836157Y-41881579D01*
X15857227Y-41891544D01*
X15877218Y-41903526D01*
X15895938Y-41917410D01*
X15913208Y-41933062D01*
X15928860Y-41950332D01*
X15942744Y-41969052D01*
X15954726Y-41989043D01*
X15964691Y-42010113D01*
X15972543Y-42032057D01*
X15978207Y-42054666D01*
X15981626Y-42077721D01*
X15982770Y-42101000D01*
X15982770Y-42576000D01*
X15981626Y-42599279D01*
X15978207Y-42622334D01*
X15972543Y-42644943D01*
X15964691Y-42666887D01*
X15954726Y-42687957D01*
X15942744Y-42707948D01*
X15928860Y-42726668D01*
X15913208Y-42743938D01*
X15895938Y-42759590D01*
X15877218Y-42773474D01*
X15857227Y-42785456D01*
X15836157Y-42795421D01*
X15814213Y-42803273D01*
X15791604Y-42808937D01*
X15768549Y-42812356D01*
X15745270Y-42813500D01*
X15170270Y-42813500D01*
X15146991Y-42812356D01*
X15123936Y-42808937D01*
X15101327Y-42803273D01*
X15079383Y-42795421D01*
X15058313Y-42785456D01*
X15038322Y-42773474D01*
X15019602Y-42759590D01*
X15002332Y-42743938D01*
X14986680Y-42726668D01*
X14972796Y-42707948D01*
X14960814Y-42687957D01*
X14950849Y-42666887D01*
X14942997Y-42644943D01*
X14937333Y-42622334D01*
X14933914Y-42599279D01*
X14932770Y-42576000D01*
X14932770Y-42101000D01*
X14933914Y-42077721D01*
X14937333Y-42054666D01*
X14942997Y-42032057D01*
X14950849Y-42010113D01*
X14960814Y-41989043D01*
X14972796Y-41969052D01*
X14986680Y-41950332D01*
X15002332Y-41933062D01*
X15019602Y-41917410D01*
X15038322Y-41903526D01*
X15058313Y-41891544D01*
X15079383Y-41881579D01*
X15101327Y-41873727D01*
X15123936Y-41868063D01*
X15146991Y-41864644D01*
X15170270Y-41863500D01*
X15745270Y-41863500D01*
X15768549Y-41864644D01*
X15768549Y-41864644D01*
G37*
D13*
X15457770Y-42338500D03*
G04 #@! TD*
D12*
G04 #@! TO.C,C2*
G36*
X39505779Y-24136144D02*
X39528834Y-24139563D01*
X39551443Y-24145227D01*
X39573387Y-24153079D01*
X39594457Y-24163044D01*
X39614448Y-24175026D01*
X39633168Y-24188910D01*
X39650438Y-24204562D01*
X39666090Y-24221832D01*
X39679974Y-24240552D01*
X39691956Y-24260543D01*
X39701921Y-24281613D01*
X39709773Y-24303557D01*
X39715437Y-24326166D01*
X39718856Y-24349221D01*
X39720000Y-24372500D01*
X39720000Y-24847500D01*
X39718856Y-24870779D01*
X39715437Y-24893834D01*
X39709773Y-24916443D01*
X39701921Y-24938387D01*
X39691956Y-24959457D01*
X39679974Y-24979448D01*
X39666090Y-24998168D01*
X39650438Y-25015438D01*
X39633168Y-25031090D01*
X39614448Y-25044974D01*
X39594457Y-25056956D01*
X39573387Y-25066921D01*
X39551443Y-25074773D01*
X39528834Y-25080437D01*
X39505779Y-25083856D01*
X39482500Y-25085000D01*
X38907500Y-25085000D01*
X38884221Y-25083856D01*
X38861166Y-25080437D01*
X38838557Y-25074773D01*
X38816613Y-25066921D01*
X38795543Y-25056956D01*
X38775552Y-25044974D01*
X38756832Y-25031090D01*
X38739562Y-25015438D01*
X38723910Y-24998168D01*
X38710026Y-24979448D01*
X38698044Y-24959457D01*
X38688079Y-24938387D01*
X38680227Y-24916443D01*
X38674563Y-24893834D01*
X38671144Y-24870779D01*
X38670000Y-24847500D01*
X38670000Y-24372500D01*
X38671144Y-24349221D01*
X38674563Y-24326166D01*
X38680227Y-24303557D01*
X38688079Y-24281613D01*
X38698044Y-24260543D01*
X38710026Y-24240552D01*
X38723910Y-24221832D01*
X38739562Y-24204562D01*
X38756832Y-24188910D01*
X38775552Y-24175026D01*
X38795543Y-24163044D01*
X38816613Y-24153079D01*
X38838557Y-24145227D01*
X38861166Y-24139563D01*
X38884221Y-24136144D01*
X38907500Y-24135000D01*
X39482500Y-24135000D01*
X39505779Y-24136144D01*
X39505779Y-24136144D01*
G37*
D13*
X39195000Y-24610000D03*
D12*
G36*
X37755779Y-24136144D02*
X37778834Y-24139563D01*
X37801443Y-24145227D01*
X37823387Y-24153079D01*
X37844457Y-24163044D01*
X37864448Y-24175026D01*
X37883168Y-24188910D01*
X37900438Y-24204562D01*
X37916090Y-24221832D01*
X37929974Y-24240552D01*
X37941956Y-24260543D01*
X37951921Y-24281613D01*
X37959773Y-24303557D01*
X37965437Y-24326166D01*
X37968856Y-24349221D01*
X37970000Y-24372500D01*
X37970000Y-24847500D01*
X37968856Y-24870779D01*
X37965437Y-24893834D01*
X37959773Y-24916443D01*
X37951921Y-24938387D01*
X37941956Y-24959457D01*
X37929974Y-24979448D01*
X37916090Y-24998168D01*
X37900438Y-25015438D01*
X37883168Y-25031090D01*
X37864448Y-25044974D01*
X37844457Y-25056956D01*
X37823387Y-25066921D01*
X37801443Y-25074773D01*
X37778834Y-25080437D01*
X37755779Y-25083856D01*
X37732500Y-25085000D01*
X37157500Y-25085000D01*
X37134221Y-25083856D01*
X37111166Y-25080437D01*
X37088557Y-25074773D01*
X37066613Y-25066921D01*
X37045543Y-25056956D01*
X37025552Y-25044974D01*
X37006832Y-25031090D01*
X36989562Y-25015438D01*
X36973910Y-24998168D01*
X36960026Y-24979448D01*
X36948044Y-24959457D01*
X36938079Y-24938387D01*
X36930227Y-24916443D01*
X36924563Y-24893834D01*
X36921144Y-24870779D01*
X36920000Y-24847500D01*
X36920000Y-24372500D01*
X36921144Y-24349221D01*
X36924563Y-24326166D01*
X36930227Y-24303557D01*
X36938079Y-24281613D01*
X36948044Y-24260543D01*
X36960026Y-24240552D01*
X36973910Y-24221832D01*
X36989562Y-24204562D01*
X37006832Y-24188910D01*
X37025552Y-24175026D01*
X37045543Y-24163044D01*
X37066613Y-24153079D01*
X37088557Y-24145227D01*
X37111166Y-24139563D01*
X37134221Y-24136144D01*
X37157500Y-24135000D01*
X37732500Y-24135000D01*
X37755779Y-24136144D01*
X37755779Y-24136144D01*
G37*
D13*
X37445000Y-24610000D03*
G04 #@! TD*
D12*
G04 #@! TO.C,C3*
G36*
X44909279Y-29338374D02*
X44932334Y-29341793D01*
X44954943Y-29347457D01*
X44976887Y-29355309D01*
X44997957Y-29365274D01*
X45017948Y-29377256D01*
X45036668Y-29391140D01*
X45053938Y-29406792D01*
X45069590Y-29424062D01*
X45083474Y-29442782D01*
X45095456Y-29462773D01*
X45105421Y-29483843D01*
X45113273Y-29505787D01*
X45118937Y-29528396D01*
X45122356Y-29551451D01*
X45123500Y-29574730D01*
X45123500Y-30149730D01*
X45122356Y-30173009D01*
X45118937Y-30196064D01*
X45113273Y-30218673D01*
X45105421Y-30240617D01*
X45095456Y-30261687D01*
X45083474Y-30281678D01*
X45069590Y-30300398D01*
X45053938Y-30317668D01*
X45036668Y-30333320D01*
X45017948Y-30347204D01*
X44997957Y-30359186D01*
X44976887Y-30369151D01*
X44954943Y-30377003D01*
X44932334Y-30382667D01*
X44909279Y-30386086D01*
X44886000Y-30387230D01*
X44411000Y-30387230D01*
X44387721Y-30386086D01*
X44364666Y-30382667D01*
X44342057Y-30377003D01*
X44320113Y-30369151D01*
X44299043Y-30359186D01*
X44279052Y-30347204D01*
X44260332Y-30333320D01*
X44243062Y-30317668D01*
X44227410Y-30300398D01*
X44213526Y-30281678D01*
X44201544Y-30261687D01*
X44191579Y-30240617D01*
X44183727Y-30218673D01*
X44178063Y-30196064D01*
X44174644Y-30173009D01*
X44173500Y-30149730D01*
X44173500Y-29574730D01*
X44174644Y-29551451D01*
X44178063Y-29528396D01*
X44183727Y-29505787D01*
X44191579Y-29483843D01*
X44201544Y-29462773D01*
X44213526Y-29442782D01*
X44227410Y-29424062D01*
X44243062Y-29406792D01*
X44260332Y-29391140D01*
X44279052Y-29377256D01*
X44299043Y-29365274D01*
X44320113Y-29355309D01*
X44342057Y-29347457D01*
X44364666Y-29341793D01*
X44387721Y-29338374D01*
X44411000Y-29337230D01*
X44886000Y-29337230D01*
X44909279Y-29338374D01*
X44909279Y-29338374D01*
G37*
D13*
X44648500Y-29862230D03*
D12*
G36*
X44909279Y-31088374D02*
X44932334Y-31091793D01*
X44954943Y-31097457D01*
X44976887Y-31105309D01*
X44997957Y-31115274D01*
X45017948Y-31127256D01*
X45036668Y-31141140D01*
X45053938Y-31156792D01*
X45069590Y-31174062D01*
X45083474Y-31192782D01*
X45095456Y-31212773D01*
X45105421Y-31233843D01*
X45113273Y-31255787D01*
X45118937Y-31278396D01*
X45122356Y-31301451D01*
X45123500Y-31324730D01*
X45123500Y-31899730D01*
X45122356Y-31923009D01*
X45118937Y-31946064D01*
X45113273Y-31968673D01*
X45105421Y-31990617D01*
X45095456Y-32011687D01*
X45083474Y-32031678D01*
X45069590Y-32050398D01*
X45053938Y-32067668D01*
X45036668Y-32083320D01*
X45017948Y-32097204D01*
X44997957Y-32109186D01*
X44976887Y-32119151D01*
X44954943Y-32127003D01*
X44932334Y-32132667D01*
X44909279Y-32136086D01*
X44886000Y-32137230D01*
X44411000Y-32137230D01*
X44387721Y-32136086D01*
X44364666Y-32132667D01*
X44342057Y-32127003D01*
X44320113Y-32119151D01*
X44299043Y-32109186D01*
X44279052Y-32097204D01*
X44260332Y-32083320D01*
X44243062Y-32067668D01*
X44227410Y-32050398D01*
X44213526Y-32031678D01*
X44201544Y-32011687D01*
X44191579Y-31990617D01*
X44183727Y-31968673D01*
X44178063Y-31946064D01*
X44174644Y-31923009D01*
X44173500Y-31899730D01*
X44173500Y-31324730D01*
X44174644Y-31301451D01*
X44178063Y-31278396D01*
X44183727Y-31255787D01*
X44191579Y-31233843D01*
X44201544Y-31212773D01*
X44213526Y-31192782D01*
X44227410Y-31174062D01*
X44243062Y-31156792D01*
X44260332Y-31141140D01*
X44279052Y-31127256D01*
X44299043Y-31115274D01*
X44320113Y-31105309D01*
X44342057Y-31097457D01*
X44364666Y-31091793D01*
X44387721Y-31088374D01*
X44411000Y-31087230D01*
X44886000Y-31087230D01*
X44909279Y-31088374D01*
X44909279Y-31088374D01*
G37*
D13*
X44648500Y-31612230D03*
G04 #@! TD*
D12*
G04 #@! TO.C,C13*
G36*
X30609279Y-35038374D02*
X30632334Y-35041793D01*
X30654943Y-35047457D01*
X30676887Y-35055309D01*
X30697957Y-35065274D01*
X30717948Y-35077256D01*
X30736668Y-35091140D01*
X30753938Y-35106792D01*
X30769590Y-35124062D01*
X30783474Y-35142782D01*
X30795456Y-35162773D01*
X30805421Y-35183843D01*
X30813273Y-35205787D01*
X30818937Y-35228396D01*
X30822356Y-35251451D01*
X30823500Y-35274730D01*
X30823500Y-35849730D01*
X30822356Y-35873009D01*
X30818937Y-35896064D01*
X30813273Y-35918673D01*
X30805421Y-35940617D01*
X30795456Y-35961687D01*
X30783474Y-35981678D01*
X30769590Y-36000398D01*
X30753938Y-36017668D01*
X30736668Y-36033320D01*
X30717948Y-36047204D01*
X30697957Y-36059186D01*
X30676887Y-36069151D01*
X30654943Y-36077003D01*
X30632334Y-36082667D01*
X30609279Y-36086086D01*
X30586000Y-36087230D01*
X30111000Y-36087230D01*
X30087721Y-36086086D01*
X30064666Y-36082667D01*
X30042057Y-36077003D01*
X30020113Y-36069151D01*
X29999043Y-36059186D01*
X29979052Y-36047204D01*
X29960332Y-36033320D01*
X29943062Y-36017668D01*
X29927410Y-36000398D01*
X29913526Y-35981678D01*
X29901544Y-35961687D01*
X29891579Y-35940617D01*
X29883727Y-35918673D01*
X29878063Y-35896064D01*
X29874644Y-35873009D01*
X29873500Y-35849730D01*
X29873500Y-35274730D01*
X29874644Y-35251451D01*
X29878063Y-35228396D01*
X29883727Y-35205787D01*
X29891579Y-35183843D01*
X29901544Y-35162773D01*
X29913526Y-35142782D01*
X29927410Y-35124062D01*
X29943062Y-35106792D01*
X29960332Y-35091140D01*
X29979052Y-35077256D01*
X29999043Y-35065274D01*
X30020113Y-35055309D01*
X30042057Y-35047457D01*
X30064666Y-35041793D01*
X30087721Y-35038374D01*
X30111000Y-35037230D01*
X30586000Y-35037230D01*
X30609279Y-35038374D01*
X30609279Y-35038374D01*
G37*
D13*
X30348500Y-35562230D03*
D12*
G36*
X30609279Y-36788374D02*
X30632334Y-36791793D01*
X30654943Y-36797457D01*
X30676887Y-36805309D01*
X30697957Y-36815274D01*
X30717948Y-36827256D01*
X30736668Y-36841140D01*
X30753938Y-36856792D01*
X30769590Y-36874062D01*
X30783474Y-36892782D01*
X30795456Y-36912773D01*
X30805421Y-36933843D01*
X30813273Y-36955787D01*
X30818937Y-36978396D01*
X30822356Y-37001451D01*
X30823500Y-37024730D01*
X30823500Y-37599730D01*
X30822356Y-37623009D01*
X30818937Y-37646064D01*
X30813273Y-37668673D01*
X30805421Y-37690617D01*
X30795456Y-37711687D01*
X30783474Y-37731678D01*
X30769590Y-37750398D01*
X30753938Y-37767668D01*
X30736668Y-37783320D01*
X30717948Y-37797204D01*
X30697957Y-37809186D01*
X30676887Y-37819151D01*
X30654943Y-37827003D01*
X30632334Y-37832667D01*
X30609279Y-37836086D01*
X30586000Y-37837230D01*
X30111000Y-37837230D01*
X30087721Y-37836086D01*
X30064666Y-37832667D01*
X30042057Y-37827003D01*
X30020113Y-37819151D01*
X29999043Y-37809186D01*
X29979052Y-37797204D01*
X29960332Y-37783320D01*
X29943062Y-37767668D01*
X29927410Y-37750398D01*
X29913526Y-37731678D01*
X29901544Y-37711687D01*
X29891579Y-37690617D01*
X29883727Y-37668673D01*
X29878063Y-37646064D01*
X29874644Y-37623009D01*
X29873500Y-37599730D01*
X29873500Y-37024730D01*
X29874644Y-37001451D01*
X29878063Y-36978396D01*
X29883727Y-36955787D01*
X29891579Y-36933843D01*
X29901544Y-36912773D01*
X29913526Y-36892782D01*
X29927410Y-36874062D01*
X29943062Y-36856792D01*
X29960332Y-36841140D01*
X29979052Y-36827256D01*
X29999043Y-36815274D01*
X30020113Y-36805309D01*
X30042057Y-36797457D01*
X30064666Y-36791793D01*
X30087721Y-36788374D01*
X30111000Y-36787230D01*
X30586000Y-36787230D01*
X30609279Y-36788374D01*
X30609279Y-36788374D01*
G37*
D13*
X30348500Y-37312230D03*
G04 #@! TD*
D12*
G04 #@! TO.C,C14*
G36*
X31480999Y-29930684D02*
X31504054Y-29934103D01*
X31526663Y-29939767D01*
X31548607Y-29947619D01*
X31569677Y-29957584D01*
X31589668Y-29969566D01*
X31608388Y-29983450D01*
X31625658Y-29999102D01*
X31641310Y-30016372D01*
X31655194Y-30035092D01*
X31667176Y-30055083D01*
X31677141Y-30076153D01*
X31684993Y-30098097D01*
X31690657Y-30120706D01*
X31694076Y-30143761D01*
X31695220Y-30167040D01*
X31695220Y-30642040D01*
X31694076Y-30665319D01*
X31690657Y-30688374D01*
X31684993Y-30710983D01*
X31677141Y-30732927D01*
X31667176Y-30753997D01*
X31655194Y-30773988D01*
X31641310Y-30792708D01*
X31625658Y-30809978D01*
X31608388Y-30825630D01*
X31589668Y-30839514D01*
X31569677Y-30851496D01*
X31548607Y-30861461D01*
X31526663Y-30869313D01*
X31504054Y-30874977D01*
X31480999Y-30878396D01*
X31457720Y-30879540D01*
X30882720Y-30879540D01*
X30859441Y-30878396D01*
X30836386Y-30874977D01*
X30813777Y-30869313D01*
X30791833Y-30861461D01*
X30770763Y-30851496D01*
X30750772Y-30839514D01*
X30732052Y-30825630D01*
X30714782Y-30809978D01*
X30699130Y-30792708D01*
X30685246Y-30773988D01*
X30673264Y-30753997D01*
X30663299Y-30732927D01*
X30655447Y-30710983D01*
X30649783Y-30688374D01*
X30646364Y-30665319D01*
X30645220Y-30642040D01*
X30645220Y-30167040D01*
X30646364Y-30143761D01*
X30649783Y-30120706D01*
X30655447Y-30098097D01*
X30663299Y-30076153D01*
X30673264Y-30055083D01*
X30685246Y-30035092D01*
X30699130Y-30016372D01*
X30714782Y-29999102D01*
X30732052Y-29983450D01*
X30750772Y-29969566D01*
X30770763Y-29957584D01*
X30791833Y-29947619D01*
X30813777Y-29939767D01*
X30836386Y-29934103D01*
X30859441Y-29930684D01*
X30882720Y-29929540D01*
X31457720Y-29929540D01*
X31480999Y-29930684D01*
X31480999Y-29930684D01*
G37*
D13*
X31170220Y-30404540D03*
D12*
G36*
X33230999Y-29930684D02*
X33254054Y-29934103D01*
X33276663Y-29939767D01*
X33298607Y-29947619D01*
X33319677Y-29957584D01*
X33339668Y-29969566D01*
X33358388Y-29983450D01*
X33375658Y-29999102D01*
X33391310Y-30016372D01*
X33405194Y-30035092D01*
X33417176Y-30055083D01*
X33427141Y-30076153D01*
X33434993Y-30098097D01*
X33440657Y-30120706D01*
X33444076Y-30143761D01*
X33445220Y-30167040D01*
X33445220Y-30642040D01*
X33444076Y-30665319D01*
X33440657Y-30688374D01*
X33434993Y-30710983D01*
X33427141Y-30732927D01*
X33417176Y-30753997D01*
X33405194Y-30773988D01*
X33391310Y-30792708D01*
X33375658Y-30809978D01*
X33358388Y-30825630D01*
X33339668Y-30839514D01*
X33319677Y-30851496D01*
X33298607Y-30861461D01*
X33276663Y-30869313D01*
X33254054Y-30874977D01*
X33230999Y-30878396D01*
X33207720Y-30879540D01*
X32632720Y-30879540D01*
X32609441Y-30878396D01*
X32586386Y-30874977D01*
X32563777Y-30869313D01*
X32541833Y-30861461D01*
X32520763Y-30851496D01*
X32500772Y-30839514D01*
X32482052Y-30825630D01*
X32464782Y-30809978D01*
X32449130Y-30792708D01*
X32435246Y-30773988D01*
X32423264Y-30753997D01*
X32413299Y-30732927D01*
X32405447Y-30710983D01*
X32399783Y-30688374D01*
X32396364Y-30665319D01*
X32395220Y-30642040D01*
X32395220Y-30167040D01*
X32396364Y-30143761D01*
X32399783Y-30120706D01*
X32405447Y-30098097D01*
X32413299Y-30076153D01*
X32423264Y-30055083D01*
X32435246Y-30035092D01*
X32449130Y-30016372D01*
X32464782Y-29999102D01*
X32482052Y-29983450D01*
X32500772Y-29969566D01*
X32520763Y-29957584D01*
X32541833Y-29947619D01*
X32563777Y-29939767D01*
X32586386Y-29934103D01*
X32609441Y-29930684D01*
X32632720Y-29929540D01*
X33207720Y-29929540D01*
X33230999Y-29930684D01*
X33230999Y-29930684D01*
G37*
D13*
X32920220Y-30404540D03*
G04 #@! TD*
D12*
G04 #@! TO.C,C15*
G36*
X33230999Y-24430684D02*
X33254054Y-24434103D01*
X33276663Y-24439767D01*
X33298607Y-24447619D01*
X33319677Y-24457584D01*
X33339668Y-24469566D01*
X33358388Y-24483450D01*
X33375658Y-24499102D01*
X33391310Y-24516372D01*
X33405194Y-24535092D01*
X33417176Y-24555083D01*
X33427141Y-24576153D01*
X33434993Y-24598097D01*
X33440657Y-24620706D01*
X33444076Y-24643761D01*
X33445220Y-24667040D01*
X33445220Y-25142040D01*
X33444076Y-25165319D01*
X33440657Y-25188374D01*
X33434993Y-25210983D01*
X33427141Y-25232927D01*
X33417176Y-25253997D01*
X33405194Y-25273988D01*
X33391310Y-25292708D01*
X33375658Y-25309978D01*
X33358388Y-25325630D01*
X33339668Y-25339514D01*
X33319677Y-25351496D01*
X33298607Y-25361461D01*
X33276663Y-25369313D01*
X33254054Y-25374977D01*
X33230999Y-25378396D01*
X33207720Y-25379540D01*
X32632720Y-25379540D01*
X32609441Y-25378396D01*
X32586386Y-25374977D01*
X32563777Y-25369313D01*
X32541833Y-25361461D01*
X32520763Y-25351496D01*
X32500772Y-25339514D01*
X32482052Y-25325630D01*
X32464782Y-25309978D01*
X32449130Y-25292708D01*
X32435246Y-25273988D01*
X32423264Y-25253997D01*
X32413299Y-25232927D01*
X32405447Y-25210983D01*
X32399783Y-25188374D01*
X32396364Y-25165319D01*
X32395220Y-25142040D01*
X32395220Y-24667040D01*
X32396364Y-24643761D01*
X32399783Y-24620706D01*
X32405447Y-24598097D01*
X32413299Y-24576153D01*
X32423264Y-24555083D01*
X32435246Y-24535092D01*
X32449130Y-24516372D01*
X32464782Y-24499102D01*
X32482052Y-24483450D01*
X32500772Y-24469566D01*
X32520763Y-24457584D01*
X32541833Y-24447619D01*
X32563777Y-24439767D01*
X32586386Y-24434103D01*
X32609441Y-24430684D01*
X32632720Y-24429540D01*
X33207720Y-24429540D01*
X33230999Y-24430684D01*
X33230999Y-24430684D01*
G37*
D13*
X32920220Y-24904540D03*
D12*
G36*
X31480999Y-24430684D02*
X31504054Y-24434103D01*
X31526663Y-24439767D01*
X31548607Y-24447619D01*
X31569677Y-24457584D01*
X31589668Y-24469566D01*
X31608388Y-24483450D01*
X31625658Y-24499102D01*
X31641310Y-24516372D01*
X31655194Y-24535092D01*
X31667176Y-24555083D01*
X31677141Y-24576153D01*
X31684993Y-24598097D01*
X31690657Y-24620706D01*
X31694076Y-24643761D01*
X31695220Y-24667040D01*
X31695220Y-25142040D01*
X31694076Y-25165319D01*
X31690657Y-25188374D01*
X31684993Y-25210983D01*
X31677141Y-25232927D01*
X31667176Y-25253997D01*
X31655194Y-25273988D01*
X31641310Y-25292708D01*
X31625658Y-25309978D01*
X31608388Y-25325630D01*
X31589668Y-25339514D01*
X31569677Y-25351496D01*
X31548607Y-25361461D01*
X31526663Y-25369313D01*
X31504054Y-25374977D01*
X31480999Y-25378396D01*
X31457720Y-25379540D01*
X30882720Y-25379540D01*
X30859441Y-25378396D01*
X30836386Y-25374977D01*
X30813777Y-25369313D01*
X30791833Y-25361461D01*
X30770763Y-25351496D01*
X30750772Y-25339514D01*
X30732052Y-25325630D01*
X30714782Y-25309978D01*
X30699130Y-25292708D01*
X30685246Y-25273988D01*
X30673264Y-25253997D01*
X30663299Y-25232927D01*
X30655447Y-25210983D01*
X30649783Y-25188374D01*
X30646364Y-25165319D01*
X30645220Y-25142040D01*
X30645220Y-24667040D01*
X30646364Y-24643761D01*
X30649783Y-24620706D01*
X30655447Y-24598097D01*
X30663299Y-24576153D01*
X30673264Y-24555083D01*
X30685246Y-24535092D01*
X30699130Y-24516372D01*
X30714782Y-24499102D01*
X30732052Y-24483450D01*
X30750772Y-24469566D01*
X30770763Y-24457584D01*
X30791833Y-24447619D01*
X30813777Y-24439767D01*
X30836386Y-24434103D01*
X30859441Y-24430684D01*
X30882720Y-24429540D01*
X31457720Y-24429540D01*
X31480999Y-24430684D01*
X31480999Y-24430684D01*
G37*
D13*
X31170220Y-24904540D03*
G04 #@! TD*
D12*
G04 #@! TO.C,C5*
G36*
X55834279Y-31363374D02*
X55857334Y-31366793D01*
X55879943Y-31372457D01*
X55901887Y-31380309D01*
X55922957Y-31390274D01*
X55942948Y-31402256D01*
X55961668Y-31416140D01*
X55978938Y-31431792D01*
X55994590Y-31449062D01*
X56008474Y-31467782D01*
X56020456Y-31487773D01*
X56030421Y-31508843D01*
X56038273Y-31530787D01*
X56043937Y-31553396D01*
X56047356Y-31576451D01*
X56048500Y-31599730D01*
X56048500Y-32074730D01*
X56047356Y-32098009D01*
X56043937Y-32121064D01*
X56038273Y-32143673D01*
X56030421Y-32165617D01*
X56020456Y-32186687D01*
X56008474Y-32206678D01*
X55994590Y-32225398D01*
X55978938Y-32242668D01*
X55961668Y-32258320D01*
X55942948Y-32272204D01*
X55922957Y-32284186D01*
X55901887Y-32294151D01*
X55879943Y-32302003D01*
X55857334Y-32307667D01*
X55834279Y-32311086D01*
X55811000Y-32312230D01*
X55236000Y-32312230D01*
X55212721Y-32311086D01*
X55189666Y-32307667D01*
X55167057Y-32302003D01*
X55145113Y-32294151D01*
X55124043Y-32284186D01*
X55104052Y-32272204D01*
X55085332Y-32258320D01*
X55068062Y-32242668D01*
X55052410Y-32225398D01*
X55038526Y-32206678D01*
X55026544Y-32186687D01*
X55016579Y-32165617D01*
X55008727Y-32143673D01*
X55003063Y-32121064D01*
X54999644Y-32098009D01*
X54998500Y-32074730D01*
X54998500Y-31599730D01*
X54999644Y-31576451D01*
X55003063Y-31553396D01*
X55008727Y-31530787D01*
X55016579Y-31508843D01*
X55026544Y-31487773D01*
X55038526Y-31467782D01*
X55052410Y-31449062D01*
X55068062Y-31431792D01*
X55085332Y-31416140D01*
X55104052Y-31402256D01*
X55124043Y-31390274D01*
X55145113Y-31380309D01*
X55167057Y-31372457D01*
X55189666Y-31366793D01*
X55212721Y-31363374D01*
X55236000Y-31362230D01*
X55811000Y-31362230D01*
X55834279Y-31363374D01*
X55834279Y-31363374D01*
G37*
D13*
X55523500Y-31837230D03*
D12*
G36*
X54084279Y-31363374D02*
X54107334Y-31366793D01*
X54129943Y-31372457D01*
X54151887Y-31380309D01*
X54172957Y-31390274D01*
X54192948Y-31402256D01*
X54211668Y-31416140D01*
X54228938Y-31431792D01*
X54244590Y-31449062D01*
X54258474Y-31467782D01*
X54270456Y-31487773D01*
X54280421Y-31508843D01*
X54288273Y-31530787D01*
X54293937Y-31553396D01*
X54297356Y-31576451D01*
X54298500Y-31599730D01*
X54298500Y-32074730D01*
X54297356Y-32098009D01*
X54293937Y-32121064D01*
X54288273Y-32143673D01*
X54280421Y-32165617D01*
X54270456Y-32186687D01*
X54258474Y-32206678D01*
X54244590Y-32225398D01*
X54228938Y-32242668D01*
X54211668Y-32258320D01*
X54192948Y-32272204D01*
X54172957Y-32284186D01*
X54151887Y-32294151D01*
X54129943Y-32302003D01*
X54107334Y-32307667D01*
X54084279Y-32311086D01*
X54061000Y-32312230D01*
X53486000Y-32312230D01*
X53462721Y-32311086D01*
X53439666Y-32307667D01*
X53417057Y-32302003D01*
X53395113Y-32294151D01*
X53374043Y-32284186D01*
X53354052Y-32272204D01*
X53335332Y-32258320D01*
X53318062Y-32242668D01*
X53302410Y-32225398D01*
X53288526Y-32206678D01*
X53276544Y-32186687D01*
X53266579Y-32165617D01*
X53258727Y-32143673D01*
X53253063Y-32121064D01*
X53249644Y-32098009D01*
X53248500Y-32074730D01*
X53248500Y-31599730D01*
X53249644Y-31576451D01*
X53253063Y-31553396D01*
X53258727Y-31530787D01*
X53266579Y-31508843D01*
X53276544Y-31487773D01*
X53288526Y-31467782D01*
X53302410Y-31449062D01*
X53318062Y-31431792D01*
X53335332Y-31416140D01*
X53354052Y-31402256D01*
X53374043Y-31390274D01*
X53395113Y-31380309D01*
X53417057Y-31372457D01*
X53439666Y-31366793D01*
X53462721Y-31363374D01*
X53486000Y-31362230D01*
X54061000Y-31362230D01*
X54084279Y-31363374D01*
X54084279Y-31363374D01*
G37*
D13*
X53773500Y-31837230D03*
G04 #@! TD*
D12*
G04 #@! TO.C,C12*
G36*
X30609279Y-41988374D02*
X30632334Y-41991793D01*
X30654943Y-41997457D01*
X30676887Y-42005309D01*
X30697957Y-42015274D01*
X30717948Y-42027256D01*
X30736668Y-42041140D01*
X30753938Y-42056792D01*
X30769590Y-42074062D01*
X30783474Y-42092782D01*
X30795456Y-42112773D01*
X30805421Y-42133843D01*
X30813273Y-42155787D01*
X30818937Y-42178396D01*
X30822356Y-42201451D01*
X30823500Y-42224730D01*
X30823500Y-42799730D01*
X30822356Y-42823009D01*
X30818937Y-42846064D01*
X30813273Y-42868673D01*
X30805421Y-42890617D01*
X30795456Y-42911687D01*
X30783474Y-42931678D01*
X30769590Y-42950398D01*
X30753938Y-42967668D01*
X30736668Y-42983320D01*
X30717948Y-42997204D01*
X30697957Y-43009186D01*
X30676887Y-43019151D01*
X30654943Y-43027003D01*
X30632334Y-43032667D01*
X30609279Y-43036086D01*
X30586000Y-43037230D01*
X30111000Y-43037230D01*
X30087721Y-43036086D01*
X30064666Y-43032667D01*
X30042057Y-43027003D01*
X30020113Y-43019151D01*
X29999043Y-43009186D01*
X29979052Y-42997204D01*
X29960332Y-42983320D01*
X29943062Y-42967668D01*
X29927410Y-42950398D01*
X29913526Y-42931678D01*
X29901544Y-42911687D01*
X29891579Y-42890617D01*
X29883727Y-42868673D01*
X29878063Y-42846064D01*
X29874644Y-42823009D01*
X29873500Y-42799730D01*
X29873500Y-42224730D01*
X29874644Y-42201451D01*
X29878063Y-42178396D01*
X29883727Y-42155787D01*
X29891579Y-42133843D01*
X29901544Y-42112773D01*
X29913526Y-42092782D01*
X29927410Y-42074062D01*
X29943062Y-42056792D01*
X29960332Y-42041140D01*
X29979052Y-42027256D01*
X29999043Y-42015274D01*
X30020113Y-42005309D01*
X30042057Y-41997457D01*
X30064666Y-41991793D01*
X30087721Y-41988374D01*
X30111000Y-41987230D01*
X30586000Y-41987230D01*
X30609279Y-41988374D01*
X30609279Y-41988374D01*
G37*
D13*
X30348500Y-42512230D03*
D12*
G36*
X30609279Y-40238374D02*
X30632334Y-40241793D01*
X30654943Y-40247457D01*
X30676887Y-40255309D01*
X30697957Y-40265274D01*
X30717948Y-40277256D01*
X30736668Y-40291140D01*
X30753938Y-40306792D01*
X30769590Y-40324062D01*
X30783474Y-40342782D01*
X30795456Y-40362773D01*
X30805421Y-40383843D01*
X30813273Y-40405787D01*
X30818937Y-40428396D01*
X30822356Y-40451451D01*
X30823500Y-40474730D01*
X30823500Y-41049730D01*
X30822356Y-41073009D01*
X30818937Y-41096064D01*
X30813273Y-41118673D01*
X30805421Y-41140617D01*
X30795456Y-41161687D01*
X30783474Y-41181678D01*
X30769590Y-41200398D01*
X30753938Y-41217668D01*
X30736668Y-41233320D01*
X30717948Y-41247204D01*
X30697957Y-41259186D01*
X30676887Y-41269151D01*
X30654943Y-41277003D01*
X30632334Y-41282667D01*
X30609279Y-41286086D01*
X30586000Y-41287230D01*
X30111000Y-41287230D01*
X30087721Y-41286086D01*
X30064666Y-41282667D01*
X30042057Y-41277003D01*
X30020113Y-41269151D01*
X29999043Y-41259186D01*
X29979052Y-41247204D01*
X29960332Y-41233320D01*
X29943062Y-41217668D01*
X29927410Y-41200398D01*
X29913526Y-41181678D01*
X29901544Y-41161687D01*
X29891579Y-41140617D01*
X29883727Y-41118673D01*
X29878063Y-41096064D01*
X29874644Y-41073009D01*
X29873500Y-41049730D01*
X29873500Y-40474730D01*
X29874644Y-40451451D01*
X29878063Y-40428396D01*
X29883727Y-40405787D01*
X29891579Y-40383843D01*
X29901544Y-40362773D01*
X29913526Y-40342782D01*
X29927410Y-40324062D01*
X29943062Y-40306792D01*
X29960332Y-40291140D01*
X29979052Y-40277256D01*
X29999043Y-40265274D01*
X30020113Y-40255309D01*
X30042057Y-40247457D01*
X30064666Y-40241793D01*
X30087721Y-40238374D01*
X30111000Y-40237230D01*
X30586000Y-40237230D01*
X30609279Y-40238374D01*
X30609279Y-40238374D01*
G37*
D13*
X30348500Y-40762230D03*
G04 #@! TD*
D12*
G04 #@! TO.C,C18*
G36*
X12224505Y-56801204D02*
X12248773Y-56804804D01*
X12272572Y-56810765D01*
X12295671Y-56819030D01*
X12317850Y-56829520D01*
X12338893Y-56842132D01*
X12358599Y-56856747D01*
X12376777Y-56873223D01*
X12393253Y-56891401D01*
X12407868Y-56911107D01*
X12420480Y-56932150D01*
X12430970Y-56954329D01*
X12439235Y-56977428D01*
X12445196Y-57001227D01*
X12448796Y-57025495D01*
X12450000Y-57049999D01*
X12450000Y-57950001D01*
X12448796Y-57974505D01*
X12445196Y-57998773D01*
X12439235Y-58022572D01*
X12430970Y-58045671D01*
X12420480Y-58067850D01*
X12407868Y-58088893D01*
X12393253Y-58108599D01*
X12376777Y-58126777D01*
X12358599Y-58143253D01*
X12338893Y-58157868D01*
X12317850Y-58170480D01*
X12295671Y-58180970D01*
X12272572Y-58189235D01*
X12248773Y-58195196D01*
X12224505Y-58198796D01*
X12200001Y-58200000D01*
X11549999Y-58200000D01*
X11525495Y-58198796D01*
X11501227Y-58195196D01*
X11477428Y-58189235D01*
X11454329Y-58180970D01*
X11432150Y-58170480D01*
X11411107Y-58157868D01*
X11391401Y-58143253D01*
X11373223Y-58126777D01*
X11356747Y-58108599D01*
X11342132Y-58088893D01*
X11329520Y-58067850D01*
X11319030Y-58045671D01*
X11310765Y-58022572D01*
X11304804Y-57998773D01*
X11301204Y-57974505D01*
X11300000Y-57950001D01*
X11300000Y-57049999D01*
X11301204Y-57025495D01*
X11304804Y-57001227D01*
X11310765Y-56977428D01*
X11319030Y-56954329D01*
X11329520Y-56932150D01*
X11342132Y-56911107D01*
X11356747Y-56891401D01*
X11373223Y-56873223D01*
X11391401Y-56856747D01*
X11411107Y-56842132D01*
X11432150Y-56829520D01*
X11454329Y-56819030D01*
X11477428Y-56810765D01*
X11501227Y-56804804D01*
X11525495Y-56801204D01*
X11549999Y-56800000D01*
X12200001Y-56800000D01*
X12224505Y-56801204D01*
X12224505Y-56801204D01*
G37*
D22*
X11875000Y-57500000D03*
D12*
G36*
X14274505Y-56801204D02*
X14298773Y-56804804D01*
X14322572Y-56810765D01*
X14345671Y-56819030D01*
X14367850Y-56829520D01*
X14388893Y-56842132D01*
X14408599Y-56856747D01*
X14426777Y-56873223D01*
X14443253Y-56891401D01*
X14457868Y-56911107D01*
X14470480Y-56932150D01*
X14480970Y-56954329D01*
X14489235Y-56977428D01*
X14495196Y-57001227D01*
X14498796Y-57025495D01*
X14500000Y-57049999D01*
X14500000Y-57950001D01*
X14498796Y-57974505D01*
X14495196Y-57998773D01*
X14489235Y-58022572D01*
X14480970Y-58045671D01*
X14470480Y-58067850D01*
X14457868Y-58088893D01*
X14443253Y-58108599D01*
X14426777Y-58126777D01*
X14408599Y-58143253D01*
X14388893Y-58157868D01*
X14367850Y-58170480D01*
X14345671Y-58180970D01*
X14322572Y-58189235D01*
X14298773Y-58195196D01*
X14274505Y-58198796D01*
X14250001Y-58200000D01*
X13599999Y-58200000D01*
X13575495Y-58198796D01*
X13551227Y-58195196D01*
X13527428Y-58189235D01*
X13504329Y-58180970D01*
X13482150Y-58170480D01*
X13461107Y-58157868D01*
X13441401Y-58143253D01*
X13423223Y-58126777D01*
X13406747Y-58108599D01*
X13392132Y-58088893D01*
X13379520Y-58067850D01*
X13369030Y-58045671D01*
X13360765Y-58022572D01*
X13354804Y-57998773D01*
X13351204Y-57974505D01*
X13350000Y-57950001D01*
X13350000Y-57049999D01*
X13351204Y-57025495D01*
X13354804Y-57001227D01*
X13360765Y-56977428D01*
X13369030Y-56954329D01*
X13379520Y-56932150D01*
X13392132Y-56911107D01*
X13406747Y-56891401D01*
X13423223Y-56873223D01*
X13441401Y-56856747D01*
X13461107Y-56842132D01*
X13482150Y-56829520D01*
X13504329Y-56819030D01*
X13527428Y-56810765D01*
X13551227Y-56804804D01*
X13575495Y-56801204D01*
X13599999Y-56800000D01*
X14250001Y-56800000D01*
X14274505Y-56801204D01*
X14274505Y-56801204D01*
G37*
D22*
X13925000Y-57500000D03*
G04 #@! TD*
D12*
G04 #@! TO.C,C16*
G36*
X4483005Y-60938434D02*
X4507273Y-60942034D01*
X4531072Y-60947995D01*
X4554171Y-60956260D01*
X4576350Y-60966750D01*
X4597393Y-60979362D01*
X4617099Y-60993977D01*
X4635277Y-61010453D01*
X4651753Y-61028631D01*
X4666368Y-61048337D01*
X4678980Y-61069380D01*
X4689470Y-61091559D01*
X4697735Y-61114658D01*
X4703696Y-61138457D01*
X4707296Y-61162725D01*
X4708500Y-61187229D01*
X4708500Y-61837231D01*
X4707296Y-61861735D01*
X4703696Y-61886003D01*
X4697735Y-61909802D01*
X4689470Y-61932901D01*
X4678980Y-61955080D01*
X4666368Y-61976123D01*
X4651753Y-61995829D01*
X4635277Y-62014007D01*
X4617099Y-62030483D01*
X4597393Y-62045098D01*
X4576350Y-62057710D01*
X4554171Y-62068200D01*
X4531072Y-62076465D01*
X4507273Y-62082426D01*
X4483005Y-62086026D01*
X4458501Y-62087230D01*
X3558499Y-62087230D01*
X3533995Y-62086026D01*
X3509727Y-62082426D01*
X3485928Y-62076465D01*
X3462829Y-62068200D01*
X3440650Y-62057710D01*
X3419607Y-62045098D01*
X3399901Y-62030483D01*
X3381723Y-62014007D01*
X3365247Y-61995829D01*
X3350632Y-61976123D01*
X3338020Y-61955080D01*
X3327530Y-61932901D01*
X3319265Y-61909802D01*
X3313304Y-61886003D01*
X3309704Y-61861735D01*
X3308500Y-61837231D01*
X3308500Y-61187229D01*
X3309704Y-61162725D01*
X3313304Y-61138457D01*
X3319265Y-61114658D01*
X3327530Y-61091559D01*
X3338020Y-61069380D01*
X3350632Y-61048337D01*
X3365247Y-61028631D01*
X3381723Y-61010453D01*
X3399901Y-60993977D01*
X3419607Y-60979362D01*
X3440650Y-60966750D01*
X3462829Y-60956260D01*
X3485928Y-60947995D01*
X3509727Y-60942034D01*
X3533995Y-60938434D01*
X3558499Y-60937230D01*
X4458501Y-60937230D01*
X4483005Y-60938434D01*
X4483005Y-60938434D01*
G37*
D22*
X4008500Y-61512230D03*
D12*
G36*
X4483005Y-58888434D02*
X4507273Y-58892034D01*
X4531072Y-58897995D01*
X4554171Y-58906260D01*
X4576350Y-58916750D01*
X4597393Y-58929362D01*
X4617099Y-58943977D01*
X4635277Y-58960453D01*
X4651753Y-58978631D01*
X4666368Y-58998337D01*
X4678980Y-59019380D01*
X4689470Y-59041559D01*
X4697735Y-59064658D01*
X4703696Y-59088457D01*
X4707296Y-59112725D01*
X4708500Y-59137229D01*
X4708500Y-59787231D01*
X4707296Y-59811735D01*
X4703696Y-59836003D01*
X4697735Y-59859802D01*
X4689470Y-59882901D01*
X4678980Y-59905080D01*
X4666368Y-59926123D01*
X4651753Y-59945829D01*
X4635277Y-59964007D01*
X4617099Y-59980483D01*
X4597393Y-59995098D01*
X4576350Y-60007710D01*
X4554171Y-60018200D01*
X4531072Y-60026465D01*
X4507273Y-60032426D01*
X4483005Y-60036026D01*
X4458501Y-60037230D01*
X3558499Y-60037230D01*
X3533995Y-60036026D01*
X3509727Y-60032426D01*
X3485928Y-60026465D01*
X3462829Y-60018200D01*
X3440650Y-60007710D01*
X3419607Y-59995098D01*
X3399901Y-59980483D01*
X3381723Y-59964007D01*
X3365247Y-59945829D01*
X3350632Y-59926123D01*
X3338020Y-59905080D01*
X3327530Y-59882901D01*
X3319265Y-59859802D01*
X3313304Y-59836003D01*
X3309704Y-59811735D01*
X3308500Y-59787231D01*
X3308500Y-59137229D01*
X3309704Y-59112725D01*
X3313304Y-59088457D01*
X3319265Y-59064658D01*
X3327530Y-59041559D01*
X3338020Y-59019380D01*
X3350632Y-58998337D01*
X3365247Y-58978631D01*
X3381723Y-58960453D01*
X3399901Y-58943977D01*
X3419607Y-58929362D01*
X3440650Y-58916750D01*
X3462829Y-58906260D01*
X3485928Y-58897995D01*
X3509727Y-58892034D01*
X3533995Y-58888434D01*
X3558499Y-58887230D01*
X4458501Y-58887230D01*
X4483005Y-58888434D01*
X4483005Y-58888434D01*
G37*
D22*
X4008500Y-59462230D03*
G04 #@! TD*
D12*
G04 #@! TO.C,C17*
G36*
X4474505Y-62726204D02*
X4498773Y-62729804D01*
X4522572Y-62735765D01*
X4545671Y-62744030D01*
X4567850Y-62754520D01*
X4588893Y-62767132D01*
X4608599Y-62781747D01*
X4626777Y-62798223D01*
X4643253Y-62816401D01*
X4657868Y-62836107D01*
X4670480Y-62857150D01*
X4680970Y-62879329D01*
X4689235Y-62902428D01*
X4695196Y-62926227D01*
X4698796Y-62950495D01*
X4700000Y-62974999D01*
X4700000Y-63625001D01*
X4698796Y-63649505D01*
X4695196Y-63673773D01*
X4689235Y-63697572D01*
X4680970Y-63720671D01*
X4670480Y-63742850D01*
X4657868Y-63763893D01*
X4643253Y-63783599D01*
X4626777Y-63801777D01*
X4608599Y-63818253D01*
X4588893Y-63832868D01*
X4567850Y-63845480D01*
X4545671Y-63855970D01*
X4522572Y-63864235D01*
X4498773Y-63870196D01*
X4474505Y-63873796D01*
X4450001Y-63875000D01*
X3549999Y-63875000D01*
X3525495Y-63873796D01*
X3501227Y-63870196D01*
X3477428Y-63864235D01*
X3454329Y-63855970D01*
X3432150Y-63845480D01*
X3411107Y-63832868D01*
X3391401Y-63818253D01*
X3373223Y-63801777D01*
X3356747Y-63783599D01*
X3342132Y-63763893D01*
X3329520Y-63742850D01*
X3319030Y-63720671D01*
X3310765Y-63697572D01*
X3304804Y-63673773D01*
X3301204Y-63649505D01*
X3300000Y-63625001D01*
X3300000Y-62974999D01*
X3301204Y-62950495D01*
X3304804Y-62926227D01*
X3310765Y-62902428D01*
X3319030Y-62879329D01*
X3329520Y-62857150D01*
X3342132Y-62836107D01*
X3356747Y-62816401D01*
X3373223Y-62798223D01*
X3391401Y-62781747D01*
X3411107Y-62767132D01*
X3432150Y-62754520D01*
X3454329Y-62744030D01*
X3477428Y-62735765D01*
X3501227Y-62729804D01*
X3525495Y-62726204D01*
X3549999Y-62725000D01*
X4450001Y-62725000D01*
X4474505Y-62726204D01*
X4474505Y-62726204D01*
G37*
D22*
X4000000Y-63300000D03*
D12*
G36*
X4474505Y-64776204D02*
X4498773Y-64779804D01*
X4522572Y-64785765D01*
X4545671Y-64794030D01*
X4567850Y-64804520D01*
X4588893Y-64817132D01*
X4608599Y-64831747D01*
X4626777Y-64848223D01*
X4643253Y-64866401D01*
X4657868Y-64886107D01*
X4670480Y-64907150D01*
X4680970Y-64929329D01*
X4689235Y-64952428D01*
X4695196Y-64976227D01*
X4698796Y-65000495D01*
X4700000Y-65024999D01*
X4700000Y-65675001D01*
X4698796Y-65699505D01*
X4695196Y-65723773D01*
X4689235Y-65747572D01*
X4680970Y-65770671D01*
X4670480Y-65792850D01*
X4657868Y-65813893D01*
X4643253Y-65833599D01*
X4626777Y-65851777D01*
X4608599Y-65868253D01*
X4588893Y-65882868D01*
X4567850Y-65895480D01*
X4545671Y-65905970D01*
X4522572Y-65914235D01*
X4498773Y-65920196D01*
X4474505Y-65923796D01*
X4450001Y-65925000D01*
X3549999Y-65925000D01*
X3525495Y-65923796D01*
X3501227Y-65920196D01*
X3477428Y-65914235D01*
X3454329Y-65905970D01*
X3432150Y-65895480D01*
X3411107Y-65882868D01*
X3391401Y-65868253D01*
X3373223Y-65851777D01*
X3356747Y-65833599D01*
X3342132Y-65813893D01*
X3329520Y-65792850D01*
X3319030Y-65770671D01*
X3310765Y-65747572D01*
X3304804Y-65723773D01*
X3301204Y-65699505D01*
X3300000Y-65675001D01*
X3300000Y-65024999D01*
X3301204Y-65000495D01*
X3304804Y-64976227D01*
X3310765Y-64952428D01*
X3319030Y-64929329D01*
X3329520Y-64907150D01*
X3342132Y-64886107D01*
X3356747Y-64866401D01*
X3373223Y-64848223D01*
X3391401Y-64831747D01*
X3411107Y-64817132D01*
X3432150Y-64804520D01*
X3454329Y-64794030D01*
X3477428Y-64785765D01*
X3501227Y-64779804D01*
X3525495Y-64776204D01*
X3549999Y-64775000D01*
X4450001Y-64775000D01*
X4474505Y-64776204D01*
X4474505Y-64776204D01*
G37*
D22*
X4000000Y-65350000D03*
G04 #@! TD*
D12*
G04 #@! TO.C,C19*
G36*
X7874505Y-57051204D02*
X7898773Y-57054804D01*
X7922572Y-57060765D01*
X7945671Y-57069030D01*
X7967850Y-57079520D01*
X7988893Y-57092132D01*
X8008599Y-57106747D01*
X8026777Y-57123223D01*
X8043253Y-57141401D01*
X8057868Y-57161107D01*
X8070480Y-57182150D01*
X8080970Y-57204329D01*
X8089235Y-57227428D01*
X8095196Y-57251227D01*
X8098796Y-57275495D01*
X8100000Y-57299999D01*
X8100000Y-57950001D01*
X8098796Y-57974505D01*
X8095196Y-57998773D01*
X8089235Y-58022572D01*
X8080970Y-58045671D01*
X8070480Y-58067850D01*
X8057868Y-58088893D01*
X8043253Y-58108599D01*
X8026777Y-58126777D01*
X8008599Y-58143253D01*
X7988893Y-58157868D01*
X7967850Y-58170480D01*
X7945671Y-58180970D01*
X7922572Y-58189235D01*
X7898773Y-58195196D01*
X7874505Y-58198796D01*
X7850001Y-58200000D01*
X6949999Y-58200000D01*
X6925495Y-58198796D01*
X6901227Y-58195196D01*
X6877428Y-58189235D01*
X6854329Y-58180970D01*
X6832150Y-58170480D01*
X6811107Y-58157868D01*
X6791401Y-58143253D01*
X6773223Y-58126777D01*
X6756747Y-58108599D01*
X6742132Y-58088893D01*
X6729520Y-58067850D01*
X6719030Y-58045671D01*
X6710765Y-58022572D01*
X6704804Y-57998773D01*
X6701204Y-57974505D01*
X6700000Y-57950001D01*
X6700000Y-57299999D01*
X6701204Y-57275495D01*
X6704804Y-57251227D01*
X6710765Y-57227428D01*
X6719030Y-57204329D01*
X6729520Y-57182150D01*
X6742132Y-57161107D01*
X6756747Y-57141401D01*
X6773223Y-57123223D01*
X6791401Y-57106747D01*
X6811107Y-57092132D01*
X6832150Y-57079520D01*
X6854329Y-57069030D01*
X6877428Y-57060765D01*
X6901227Y-57054804D01*
X6925495Y-57051204D01*
X6949999Y-57050000D01*
X7850001Y-57050000D01*
X7874505Y-57051204D01*
X7874505Y-57051204D01*
G37*
D22*
X7400000Y-57625000D03*
D12*
G36*
X7874505Y-55001204D02*
X7898773Y-55004804D01*
X7922572Y-55010765D01*
X7945671Y-55019030D01*
X7967850Y-55029520D01*
X7988893Y-55042132D01*
X8008599Y-55056747D01*
X8026777Y-55073223D01*
X8043253Y-55091401D01*
X8057868Y-55111107D01*
X8070480Y-55132150D01*
X8080970Y-55154329D01*
X8089235Y-55177428D01*
X8095196Y-55201227D01*
X8098796Y-55225495D01*
X8100000Y-55249999D01*
X8100000Y-55900001D01*
X8098796Y-55924505D01*
X8095196Y-55948773D01*
X8089235Y-55972572D01*
X8080970Y-55995671D01*
X8070480Y-56017850D01*
X8057868Y-56038893D01*
X8043253Y-56058599D01*
X8026777Y-56076777D01*
X8008599Y-56093253D01*
X7988893Y-56107868D01*
X7967850Y-56120480D01*
X7945671Y-56130970D01*
X7922572Y-56139235D01*
X7898773Y-56145196D01*
X7874505Y-56148796D01*
X7850001Y-56150000D01*
X6949999Y-56150000D01*
X6925495Y-56148796D01*
X6901227Y-56145196D01*
X6877428Y-56139235D01*
X6854329Y-56130970D01*
X6832150Y-56120480D01*
X6811107Y-56107868D01*
X6791401Y-56093253D01*
X6773223Y-56076777D01*
X6756747Y-56058599D01*
X6742132Y-56038893D01*
X6729520Y-56017850D01*
X6719030Y-55995671D01*
X6710765Y-55972572D01*
X6704804Y-55948773D01*
X6701204Y-55924505D01*
X6700000Y-55900001D01*
X6700000Y-55249999D01*
X6701204Y-55225495D01*
X6704804Y-55201227D01*
X6710765Y-55177428D01*
X6719030Y-55154329D01*
X6729520Y-55132150D01*
X6742132Y-55111107D01*
X6756747Y-55091401D01*
X6773223Y-55073223D01*
X6791401Y-55056747D01*
X6811107Y-55042132D01*
X6832150Y-55029520D01*
X6854329Y-55019030D01*
X6877428Y-55010765D01*
X6901227Y-55004804D01*
X6925495Y-55001204D01*
X6949999Y-55000000D01*
X7850001Y-55000000D01*
X7874505Y-55001204D01*
X7874505Y-55001204D01*
G37*
D22*
X7400000Y-55575000D03*
G04 #@! TD*
D12*
G04 #@! TO.C,C20*
G36*
X4474505Y-68651204D02*
X4498773Y-68654804D01*
X4522572Y-68660765D01*
X4545671Y-68669030D01*
X4567850Y-68679520D01*
X4588893Y-68692132D01*
X4608599Y-68706747D01*
X4626777Y-68723223D01*
X4643253Y-68741401D01*
X4657868Y-68761107D01*
X4670480Y-68782150D01*
X4680970Y-68804329D01*
X4689235Y-68827428D01*
X4695196Y-68851227D01*
X4698796Y-68875495D01*
X4700000Y-68899999D01*
X4700000Y-69550001D01*
X4698796Y-69574505D01*
X4695196Y-69598773D01*
X4689235Y-69622572D01*
X4680970Y-69645671D01*
X4670480Y-69667850D01*
X4657868Y-69688893D01*
X4643253Y-69708599D01*
X4626777Y-69726777D01*
X4608599Y-69743253D01*
X4588893Y-69757868D01*
X4567850Y-69770480D01*
X4545671Y-69780970D01*
X4522572Y-69789235D01*
X4498773Y-69795196D01*
X4474505Y-69798796D01*
X4450001Y-69800000D01*
X3549999Y-69800000D01*
X3525495Y-69798796D01*
X3501227Y-69795196D01*
X3477428Y-69789235D01*
X3454329Y-69780970D01*
X3432150Y-69770480D01*
X3411107Y-69757868D01*
X3391401Y-69743253D01*
X3373223Y-69726777D01*
X3356747Y-69708599D01*
X3342132Y-69688893D01*
X3329520Y-69667850D01*
X3319030Y-69645671D01*
X3310765Y-69622572D01*
X3304804Y-69598773D01*
X3301204Y-69574505D01*
X3300000Y-69550001D01*
X3300000Y-68899999D01*
X3301204Y-68875495D01*
X3304804Y-68851227D01*
X3310765Y-68827428D01*
X3319030Y-68804329D01*
X3329520Y-68782150D01*
X3342132Y-68761107D01*
X3356747Y-68741401D01*
X3373223Y-68723223D01*
X3391401Y-68706747D01*
X3411107Y-68692132D01*
X3432150Y-68679520D01*
X3454329Y-68669030D01*
X3477428Y-68660765D01*
X3501227Y-68654804D01*
X3525495Y-68651204D01*
X3549999Y-68650000D01*
X4450001Y-68650000D01*
X4474505Y-68651204D01*
X4474505Y-68651204D01*
G37*
D22*
X4000000Y-69225000D03*
D12*
G36*
X4474505Y-66601204D02*
X4498773Y-66604804D01*
X4522572Y-66610765D01*
X4545671Y-66619030D01*
X4567850Y-66629520D01*
X4588893Y-66642132D01*
X4608599Y-66656747D01*
X4626777Y-66673223D01*
X4643253Y-66691401D01*
X4657868Y-66711107D01*
X4670480Y-66732150D01*
X4680970Y-66754329D01*
X4689235Y-66777428D01*
X4695196Y-66801227D01*
X4698796Y-66825495D01*
X4700000Y-66849999D01*
X4700000Y-67500001D01*
X4698796Y-67524505D01*
X4695196Y-67548773D01*
X4689235Y-67572572D01*
X4680970Y-67595671D01*
X4670480Y-67617850D01*
X4657868Y-67638893D01*
X4643253Y-67658599D01*
X4626777Y-67676777D01*
X4608599Y-67693253D01*
X4588893Y-67707868D01*
X4567850Y-67720480D01*
X4545671Y-67730970D01*
X4522572Y-67739235D01*
X4498773Y-67745196D01*
X4474505Y-67748796D01*
X4450001Y-67750000D01*
X3549999Y-67750000D01*
X3525495Y-67748796D01*
X3501227Y-67745196D01*
X3477428Y-67739235D01*
X3454329Y-67730970D01*
X3432150Y-67720480D01*
X3411107Y-67707868D01*
X3391401Y-67693253D01*
X3373223Y-67676777D01*
X3356747Y-67658599D01*
X3342132Y-67638893D01*
X3329520Y-67617850D01*
X3319030Y-67595671D01*
X3310765Y-67572572D01*
X3304804Y-67548773D01*
X3301204Y-67524505D01*
X3300000Y-67500001D01*
X3300000Y-66849999D01*
X3301204Y-66825495D01*
X3304804Y-66801227D01*
X3310765Y-66777428D01*
X3319030Y-66754329D01*
X3329520Y-66732150D01*
X3342132Y-66711107D01*
X3356747Y-66691401D01*
X3373223Y-66673223D01*
X3391401Y-66656747D01*
X3411107Y-66642132D01*
X3432150Y-66629520D01*
X3454329Y-66619030D01*
X3477428Y-66610765D01*
X3501227Y-66604804D01*
X3525495Y-66601204D01*
X3549999Y-66600000D01*
X4450001Y-66600000D01*
X4474505Y-66601204D01*
X4474505Y-66601204D01*
G37*
D22*
X4000000Y-67175000D03*
G04 #@! TD*
D12*
G04 #@! TO.C,C8*
G36*
X22124505Y-32726204D02*
X22148773Y-32729804D01*
X22172572Y-32735765D01*
X22195671Y-32744030D01*
X22217850Y-32754520D01*
X22238893Y-32767132D01*
X22258599Y-32781747D01*
X22276777Y-32798223D01*
X22293253Y-32816401D01*
X22307868Y-32836107D01*
X22320480Y-32857150D01*
X22330970Y-32879329D01*
X22339235Y-32902428D01*
X22345196Y-32926227D01*
X22348796Y-32950495D01*
X22350000Y-32974999D01*
X22350000Y-33825001D01*
X22348796Y-33849505D01*
X22345196Y-33873773D01*
X22339235Y-33897572D01*
X22330970Y-33920671D01*
X22320480Y-33942850D01*
X22307868Y-33963893D01*
X22293253Y-33983599D01*
X22276777Y-34001777D01*
X22258599Y-34018253D01*
X22238893Y-34032868D01*
X22217850Y-34045480D01*
X22195671Y-34055970D01*
X22172572Y-34064235D01*
X22148773Y-34070196D01*
X22124505Y-34073796D01*
X22100001Y-34075000D01*
X21024999Y-34075000D01*
X21000495Y-34073796D01*
X20976227Y-34070196D01*
X20952428Y-34064235D01*
X20929329Y-34055970D01*
X20907150Y-34045480D01*
X20886107Y-34032868D01*
X20866401Y-34018253D01*
X20848223Y-34001777D01*
X20831747Y-33983599D01*
X20817132Y-33963893D01*
X20804520Y-33942850D01*
X20794030Y-33920671D01*
X20785765Y-33897572D01*
X20779804Y-33873773D01*
X20776204Y-33849505D01*
X20775000Y-33825001D01*
X20775000Y-32974999D01*
X20776204Y-32950495D01*
X20779804Y-32926227D01*
X20785765Y-32902428D01*
X20794030Y-32879329D01*
X20804520Y-32857150D01*
X20817132Y-32836107D01*
X20831747Y-32816401D01*
X20848223Y-32798223D01*
X20866401Y-32781747D01*
X20886107Y-32767132D01*
X20907150Y-32754520D01*
X20929329Y-32744030D01*
X20952428Y-32735765D01*
X20976227Y-32729804D01*
X21000495Y-32726204D01*
X21024999Y-32725000D01*
X22100001Y-32725000D01*
X22124505Y-32726204D01*
X22124505Y-32726204D01*
G37*
D23*
X21562500Y-33400000D03*
D12*
G36*
X24999505Y-32726204D02*
X25023773Y-32729804D01*
X25047572Y-32735765D01*
X25070671Y-32744030D01*
X25092850Y-32754520D01*
X25113893Y-32767132D01*
X25133599Y-32781747D01*
X25151777Y-32798223D01*
X25168253Y-32816401D01*
X25182868Y-32836107D01*
X25195480Y-32857150D01*
X25205970Y-32879329D01*
X25214235Y-32902428D01*
X25220196Y-32926227D01*
X25223796Y-32950495D01*
X25225000Y-32974999D01*
X25225000Y-33825001D01*
X25223796Y-33849505D01*
X25220196Y-33873773D01*
X25214235Y-33897572D01*
X25205970Y-33920671D01*
X25195480Y-33942850D01*
X25182868Y-33963893D01*
X25168253Y-33983599D01*
X25151777Y-34001777D01*
X25133599Y-34018253D01*
X25113893Y-34032868D01*
X25092850Y-34045480D01*
X25070671Y-34055970D01*
X25047572Y-34064235D01*
X25023773Y-34070196D01*
X24999505Y-34073796D01*
X24975001Y-34075000D01*
X23899999Y-34075000D01*
X23875495Y-34073796D01*
X23851227Y-34070196D01*
X23827428Y-34064235D01*
X23804329Y-34055970D01*
X23782150Y-34045480D01*
X23761107Y-34032868D01*
X23741401Y-34018253D01*
X23723223Y-34001777D01*
X23706747Y-33983599D01*
X23692132Y-33963893D01*
X23679520Y-33942850D01*
X23669030Y-33920671D01*
X23660765Y-33897572D01*
X23654804Y-33873773D01*
X23651204Y-33849505D01*
X23650000Y-33825001D01*
X23650000Y-32974999D01*
X23651204Y-32950495D01*
X23654804Y-32926227D01*
X23660765Y-32902428D01*
X23669030Y-32879329D01*
X23679520Y-32857150D01*
X23692132Y-32836107D01*
X23706747Y-32816401D01*
X23723223Y-32798223D01*
X23741401Y-32781747D01*
X23761107Y-32767132D01*
X23782150Y-32754520D01*
X23804329Y-32744030D01*
X23827428Y-32735765D01*
X23851227Y-32729804D01*
X23875495Y-32726204D01*
X23899999Y-32725000D01*
X24975001Y-32725000D01*
X24999505Y-32726204D01*
X24999505Y-32726204D01*
G37*
D23*
X24437500Y-33400000D03*
G04 #@! TD*
D12*
G04 #@! TO.C,C9*
G36*
X24999505Y-27926204D02*
X25023773Y-27929804D01*
X25047572Y-27935765D01*
X25070671Y-27944030D01*
X25092850Y-27954520D01*
X25113893Y-27967132D01*
X25133599Y-27981747D01*
X25151777Y-27998223D01*
X25168253Y-28016401D01*
X25182868Y-28036107D01*
X25195480Y-28057150D01*
X25205970Y-28079329D01*
X25214235Y-28102428D01*
X25220196Y-28126227D01*
X25223796Y-28150495D01*
X25225000Y-28174999D01*
X25225000Y-29025001D01*
X25223796Y-29049505D01*
X25220196Y-29073773D01*
X25214235Y-29097572D01*
X25205970Y-29120671D01*
X25195480Y-29142850D01*
X25182868Y-29163893D01*
X25168253Y-29183599D01*
X25151777Y-29201777D01*
X25133599Y-29218253D01*
X25113893Y-29232868D01*
X25092850Y-29245480D01*
X25070671Y-29255970D01*
X25047572Y-29264235D01*
X25023773Y-29270196D01*
X24999505Y-29273796D01*
X24975001Y-29275000D01*
X23899999Y-29275000D01*
X23875495Y-29273796D01*
X23851227Y-29270196D01*
X23827428Y-29264235D01*
X23804329Y-29255970D01*
X23782150Y-29245480D01*
X23761107Y-29232868D01*
X23741401Y-29218253D01*
X23723223Y-29201777D01*
X23706747Y-29183599D01*
X23692132Y-29163893D01*
X23679520Y-29142850D01*
X23669030Y-29120671D01*
X23660765Y-29097572D01*
X23654804Y-29073773D01*
X23651204Y-29049505D01*
X23650000Y-29025001D01*
X23650000Y-28174999D01*
X23651204Y-28150495D01*
X23654804Y-28126227D01*
X23660765Y-28102428D01*
X23669030Y-28079329D01*
X23679520Y-28057150D01*
X23692132Y-28036107D01*
X23706747Y-28016401D01*
X23723223Y-27998223D01*
X23741401Y-27981747D01*
X23761107Y-27967132D01*
X23782150Y-27954520D01*
X23804329Y-27944030D01*
X23827428Y-27935765D01*
X23851227Y-27929804D01*
X23875495Y-27926204D01*
X23899999Y-27925000D01*
X24975001Y-27925000D01*
X24999505Y-27926204D01*
X24999505Y-27926204D01*
G37*
D23*
X24437500Y-28600000D03*
D12*
G36*
X22124505Y-27926204D02*
X22148773Y-27929804D01*
X22172572Y-27935765D01*
X22195671Y-27944030D01*
X22217850Y-27954520D01*
X22238893Y-27967132D01*
X22258599Y-27981747D01*
X22276777Y-27998223D01*
X22293253Y-28016401D01*
X22307868Y-28036107D01*
X22320480Y-28057150D01*
X22330970Y-28079329D01*
X22339235Y-28102428D01*
X22345196Y-28126227D01*
X22348796Y-28150495D01*
X22350000Y-28174999D01*
X22350000Y-29025001D01*
X22348796Y-29049505D01*
X22345196Y-29073773D01*
X22339235Y-29097572D01*
X22330970Y-29120671D01*
X22320480Y-29142850D01*
X22307868Y-29163893D01*
X22293253Y-29183599D01*
X22276777Y-29201777D01*
X22258599Y-29218253D01*
X22238893Y-29232868D01*
X22217850Y-29245480D01*
X22195671Y-29255970D01*
X22172572Y-29264235D01*
X22148773Y-29270196D01*
X22124505Y-29273796D01*
X22100001Y-29275000D01*
X21024999Y-29275000D01*
X21000495Y-29273796D01*
X20976227Y-29270196D01*
X20952428Y-29264235D01*
X20929329Y-29255970D01*
X20907150Y-29245480D01*
X20886107Y-29232868D01*
X20866401Y-29218253D01*
X20848223Y-29201777D01*
X20831747Y-29183599D01*
X20817132Y-29163893D01*
X20804520Y-29142850D01*
X20794030Y-29120671D01*
X20785765Y-29097572D01*
X20779804Y-29073773D01*
X20776204Y-29049505D01*
X20775000Y-29025001D01*
X20775000Y-28174999D01*
X20776204Y-28150495D01*
X20779804Y-28126227D01*
X20785765Y-28102428D01*
X20794030Y-28079329D01*
X20804520Y-28057150D01*
X20817132Y-28036107D01*
X20831747Y-28016401D01*
X20848223Y-27998223D01*
X20866401Y-27981747D01*
X20886107Y-27967132D01*
X20907150Y-27954520D01*
X20929329Y-27944030D01*
X20952428Y-27935765D01*
X20976227Y-27929804D01*
X21000495Y-27926204D01*
X21024999Y-27925000D01*
X22100001Y-27925000D01*
X22124505Y-27926204D01*
X22124505Y-27926204D01*
G37*
D23*
X21562500Y-28600000D03*
G04 #@! TD*
D24*
G04 #@! TO.C,J14*
X59916000Y-5892530D03*
X72896000Y-5892530D03*
D25*
X62906000Y-8692530D03*
X63906000Y-8692530D03*
X64906000Y-8692530D03*
X65906000Y-8692530D03*
X66906000Y-8692530D03*
X67906000Y-8692530D03*
X68906000Y-8692530D03*
X69906000Y-8692530D03*
G04 #@! TD*
D16*
G04 #@! TO.C,D4*
X73188500Y-18487230D03*
X70688500Y-18487230D03*
G04 #@! TD*
D12*
G04 #@! TO.C,D5*
G36*
X37815779Y-32126144D02*
X37838834Y-32129563D01*
X37861443Y-32135227D01*
X37883387Y-32143079D01*
X37904457Y-32153044D01*
X37924448Y-32165026D01*
X37943168Y-32178910D01*
X37960438Y-32194562D01*
X37976090Y-32211832D01*
X37989974Y-32230552D01*
X38001956Y-32250543D01*
X38011921Y-32271613D01*
X38019773Y-32293557D01*
X38025437Y-32316166D01*
X38028856Y-32339221D01*
X38030000Y-32362500D01*
X38030000Y-32837500D01*
X38028856Y-32860779D01*
X38025437Y-32883834D01*
X38019773Y-32906443D01*
X38011921Y-32928387D01*
X38001956Y-32949457D01*
X37989974Y-32969448D01*
X37976090Y-32988168D01*
X37960438Y-33005438D01*
X37943168Y-33021090D01*
X37924448Y-33034974D01*
X37904457Y-33046956D01*
X37883387Y-33056921D01*
X37861443Y-33064773D01*
X37838834Y-33070437D01*
X37815779Y-33073856D01*
X37792500Y-33075000D01*
X37217500Y-33075000D01*
X37194221Y-33073856D01*
X37171166Y-33070437D01*
X37148557Y-33064773D01*
X37126613Y-33056921D01*
X37105543Y-33046956D01*
X37085552Y-33034974D01*
X37066832Y-33021090D01*
X37049562Y-33005438D01*
X37033910Y-32988168D01*
X37020026Y-32969448D01*
X37008044Y-32949457D01*
X36998079Y-32928387D01*
X36990227Y-32906443D01*
X36984563Y-32883834D01*
X36981144Y-32860779D01*
X36980000Y-32837500D01*
X36980000Y-32362500D01*
X36981144Y-32339221D01*
X36984563Y-32316166D01*
X36990227Y-32293557D01*
X36998079Y-32271613D01*
X37008044Y-32250543D01*
X37020026Y-32230552D01*
X37033910Y-32211832D01*
X37049562Y-32194562D01*
X37066832Y-32178910D01*
X37085552Y-32165026D01*
X37105543Y-32153044D01*
X37126613Y-32143079D01*
X37148557Y-32135227D01*
X37171166Y-32129563D01*
X37194221Y-32126144D01*
X37217500Y-32125000D01*
X37792500Y-32125000D01*
X37815779Y-32126144D01*
X37815779Y-32126144D01*
G37*
D13*
X37505000Y-32600000D03*
D12*
G36*
X39565779Y-32126144D02*
X39588834Y-32129563D01*
X39611443Y-32135227D01*
X39633387Y-32143079D01*
X39654457Y-32153044D01*
X39674448Y-32165026D01*
X39693168Y-32178910D01*
X39710438Y-32194562D01*
X39726090Y-32211832D01*
X39739974Y-32230552D01*
X39751956Y-32250543D01*
X39761921Y-32271613D01*
X39769773Y-32293557D01*
X39775437Y-32316166D01*
X39778856Y-32339221D01*
X39780000Y-32362500D01*
X39780000Y-32837500D01*
X39778856Y-32860779D01*
X39775437Y-32883834D01*
X39769773Y-32906443D01*
X39761921Y-32928387D01*
X39751956Y-32949457D01*
X39739974Y-32969448D01*
X39726090Y-32988168D01*
X39710438Y-33005438D01*
X39693168Y-33021090D01*
X39674448Y-33034974D01*
X39654457Y-33046956D01*
X39633387Y-33056921D01*
X39611443Y-33064773D01*
X39588834Y-33070437D01*
X39565779Y-33073856D01*
X39542500Y-33075000D01*
X38967500Y-33075000D01*
X38944221Y-33073856D01*
X38921166Y-33070437D01*
X38898557Y-33064773D01*
X38876613Y-33056921D01*
X38855543Y-33046956D01*
X38835552Y-33034974D01*
X38816832Y-33021090D01*
X38799562Y-33005438D01*
X38783910Y-32988168D01*
X38770026Y-32969448D01*
X38758044Y-32949457D01*
X38748079Y-32928387D01*
X38740227Y-32906443D01*
X38734563Y-32883834D01*
X38731144Y-32860779D01*
X38730000Y-32837500D01*
X38730000Y-32362500D01*
X38731144Y-32339221D01*
X38734563Y-32316166D01*
X38740227Y-32293557D01*
X38748079Y-32271613D01*
X38758044Y-32250543D01*
X38770026Y-32230552D01*
X38783910Y-32211832D01*
X38799562Y-32194562D01*
X38816832Y-32178910D01*
X38835552Y-32165026D01*
X38855543Y-32153044D01*
X38876613Y-32143079D01*
X38898557Y-32135227D01*
X38921166Y-32129563D01*
X38944221Y-32126144D01*
X38967500Y-32125000D01*
X39542500Y-32125000D01*
X39565779Y-32126144D01*
X39565779Y-32126144D01*
G37*
D13*
X39255000Y-32600000D03*
G04 #@! TD*
D12*
G04 #@! TO.C,D9*
G36*
X27233005Y-45888434D02*
X27257273Y-45892034D01*
X27281072Y-45897995D01*
X27304171Y-45906260D01*
X27326350Y-45916750D01*
X27347393Y-45929362D01*
X27367099Y-45943977D01*
X27385277Y-45960453D01*
X27401753Y-45978631D01*
X27416368Y-45998337D01*
X27428980Y-46019380D01*
X27439470Y-46041559D01*
X27447735Y-46064658D01*
X27453696Y-46088457D01*
X27457296Y-46112725D01*
X27458500Y-46137229D01*
X27458500Y-47037231D01*
X27457296Y-47061735D01*
X27453696Y-47086003D01*
X27447735Y-47109802D01*
X27439470Y-47132901D01*
X27428980Y-47155080D01*
X27416368Y-47176123D01*
X27401753Y-47195829D01*
X27385277Y-47214007D01*
X27367099Y-47230483D01*
X27347393Y-47245098D01*
X27326350Y-47257710D01*
X27304171Y-47268200D01*
X27281072Y-47276465D01*
X27257273Y-47282426D01*
X27233005Y-47286026D01*
X27208501Y-47287230D01*
X26558499Y-47287230D01*
X26533995Y-47286026D01*
X26509727Y-47282426D01*
X26485928Y-47276465D01*
X26462829Y-47268200D01*
X26440650Y-47257710D01*
X26419607Y-47245098D01*
X26399901Y-47230483D01*
X26381723Y-47214007D01*
X26365247Y-47195829D01*
X26350632Y-47176123D01*
X26338020Y-47155080D01*
X26327530Y-47132901D01*
X26319265Y-47109802D01*
X26313304Y-47086003D01*
X26309704Y-47061735D01*
X26308500Y-47037231D01*
X26308500Y-46137229D01*
X26309704Y-46112725D01*
X26313304Y-46088457D01*
X26319265Y-46064658D01*
X26327530Y-46041559D01*
X26338020Y-46019380D01*
X26350632Y-45998337D01*
X26365247Y-45978631D01*
X26381723Y-45960453D01*
X26399901Y-45943977D01*
X26419607Y-45929362D01*
X26440650Y-45916750D01*
X26462829Y-45906260D01*
X26485928Y-45897995D01*
X26509727Y-45892034D01*
X26533995Y-45888434D01*
X26558499Y-45887230D01*
X27208501Y-45887230D01*
X27233005Y-45888434D01*
X27233005Y-45888434D01*
G37*
D22*
X26883500Y-46587230D03*
D12*
G36*
X29283005Y-45888434D02*
X29307273Y-45892034D01*
X29331072Y-45897995D01*
X29354171Y-45906260D01*
X29376350Y-45916750D01*
X29397393Y-45929362D01*
X29417099Y-45943977D01*
X29435277Y-45960453D01*
X29451753Y-45978631D01*
X29466368Y-45998337D01*
X29478980Y-46019380D01*
X29489470Y-46041559D01*
X29497735Y-46064658D01*
X29503696Y-46088457D01*
X29507296Y-46112725D01*
X29508500Y-46137229D01*
X29508500Y-47037231D01*
X29507296Y-47061735D01*
X29503696Y-47086003D01*
X29497735Y-47109802D01*
X29489470Y-47132901D01*
X29478980Y-47155080D01*
X29466368Y-47176123D01*
X29451753Y-47195829D01*
X29435277Y-47214007D01*
X29417099Y-47230483D01*
X29397393Y-47245098D01*
X29376350Y-47257710D01*
X29354171Y-47268200D01*
X29331072Y-47276465D01*
X29307273Y-47282426D01*
X29283005Y-47286026D01*
X29258501Y-47287230D01*
X28608499Y-47287230D01*
X28583995Y-47286026D01*
X28559727Y-47282426D01*
X28535928Y-47276465D01*
X28512829Y-47268200D01*
X28490650Y-47257710D01*
X28469607Y-47245098D01*
X28449901Y-47230483D01*
X28431723Y-47214007D01*
X28415247Y-47195829D01*
X28400632Y-47176123D01*
X28388020Y-47155080D01*
X28377530Y-47132901D01*
X28369265Y-47109802D01*
X28363304Y-47086003D01*
X28359704Y-47061735D01*
X28358500Y-47037231D01*
X28358500Y-46137229D01*
X28359704Y-46112725D01*
X28363304Y-46088457D01*
X28369265Y-46064658D01*
X28377530Y-46041559D01*
X28388020Y-46019380D01*
X28400632Y-45998337D01*
X28415247Y-45978631D01*
X28431723Y-45960453D01*
X28449901Y-45943977D01*
X28469607Y-45929362D01*
X28490650Y-45916750D01*
X28512829Y-45906260D01*
X28535928Y-45897995D01*
X28559727Y-45892034D01*
X28583995Y-45888434D01*
X28608499Y-45887230D01*
X29258501Y-45887230D01*
X29283005Y-45888434D01*
X29283005Y-45888434D01*
G37*
D22*
X28933500Y-46587230D03*
G04 #@! TD*
D12*
G04 #@! TO.C,D8*
G36*
X29283005Y-48888434D02*
X29307273Y-48892034D01*
X29331072Y-48897995D01*
X29354171Y-48906260D01*
X29376350Y-48916750D01*
X29397393Y-48929362D01*
X29417099Y-48943977D01*
X29435277Y-48960453D01*
X29451753Y-48978631D01*
X29466368Y-48998337D01*
X29478980Y-49019380D01*
X29489470Y-49041559D01*
X29497735Y-49064658D01*
X29503696Y-49088457D01*
X29507296Y-49112725D01*
X29508500Y-49137229D01*
X29508500Y-50037231D01*
X29507296Y-50061735D01*
X29503696Y-50086003D01*
X29497735Y-50109802D01*
X29489470Y-50132901D01*
X29478980Y-50155080D01*
X29466368Y-50176123D01*
X29451753Y-50195829D01*
X29435277Y-50214007D01*
X29417099Y-50230483D01*
X29397393Y-50245098D01*
X29376350Y-50257710D01*
X29354171Y-50268200D01*
X29331072Y-50276465D01*
X29307273Y-50282426D01*
X29283005Y-50286026D01*
X29258501Y-50287230D01*
X28608499Y-50287230D01*
X28583995Y-50286026D01*
X28559727Y-50282426D01*
X28535928Y-50276465D01*
X28512829Y-50268200D01*
X28490650Y-50257710D01*
X28469607Y-50245098D01*
X28449901Y-50230483D01*
X28431723Y-50214007D01*
X28415247Y-50195829D01*
X28400632Y-50176123D01*
X28388020Y-50155080D01*
X28377530Y-50132901D01*
X28369265Y-50109802D01*
X28363304Y-50086003D01*
X28359704Y-50061735D01*
X28358500Y-50037231D01*
X28358500Y-49137229D01*
X28359704Y-49112725D01*
X28363304Y-49088457D01*
X28369265Y-49064658D01*
X28377530Y-49041559D01*
X28388020Y-49019380D01*
X28400632Y-48998337D01*
X28415247Y-48978631D01*
X28431723Y-48960453D01*
X28449901Y-48943977D01*
X28469607Y-48929362D01*
X28490650Y-48916750D01*
X28512829Y-48906260D01*
X28535928Y-48897995D01*
X28559727Y-48892034D01*
X28583995Y-48888434D01*
X28608499Y-48887230D01*
X29258501Y-48887230D01*
X29283005Y-48888434D01*
X29283005Y-48888434D01*
G37*
D22*
X28933500Y-49587230D03*
D12*
G36*
X27233005Y-48888434D02*
X27257273Y-48892034D01*
X27281072Y-48897995D01*
X27304171Y-48906260D01*
X27326350Y-48916750D01*
X27347393Y-48929362D01*
X27367099Y-48943977D01*
X27385277Y-48960453D01*
X27401753Y-48978631D01*
X27416368Y-48998337D01*
X27428980Y-49019380D01*
X27439470Y-49041559D01*
X27447735Y-49064658D01*
X27453696Y-49088457D01*
X27457296Y-49112725D01*
X27458500Y-49137229D01*
X27458500Y-50037231D01*
X27457296Y-50061735D01*
X27453696Y-50086003D01*
X27447735Y-50109802D01*
X27439470Y-50132901D01*
X27428980Y-50155080D01*
X27416368Y-50176123D01*
X27401753Y-50195829D01*
X27385277Y-50214007D01*
X27367099Y-50230483D01*
X27347393Y-50245098D01*
X27326350Y-50257710D01*
X27304171Y-50268200D01*
X27281072Y-50276465D01*
X27257273Y-50282426D01*
X27233005Y-50286026D01*
X27208501Y-50287230D01*
X26558499Y-50287230D01*
X26533995Y-50286026D01*
X26509727Y-50282426D01*
X26485928Y-50276465D01*
X26462829Y-50268200D01*
X26440650Y-50257710D01*
X26419607Y-50245098D01*
X26399901Y-50230483D01*
X26381723Y-50214007D01*
X26365247Y-50195829D01*
X26350632Y-50176123D01*
X26338020Y-50155080D01*
X26327530Y-50132901D01*
X26319265Y-50109802D01*
X26313304Y-50086003D01*
X26309704Y-50061735D01*
X26308500Y-50037231D01*
X26308500Y-49137229D01*
X26309704Y-49112725D01*
X26313304Y-49088457D01*
X26319265Y-49064658D01*
X26327530Y-49041559D01*
X26338020Y-49019380D01*
X26350632Y-48998337D01*
X26365247Y-48978631D01*
X26381723Y-48960453D01*
X26399901Y-48943977D01*
X26419607Y-48929362D01*
X26440650Y-48916750D01*
X26462829Y-48906260D01*
X26485928Y-48897995D01*
X26509727Y-48892034D01*
X26533995Y-48888434D01*
X26558499Y-48887230D01*
X27208501Y-48887230D01*
X27233005Y-48888434D01*
X27233005Y-48888434D01*
G37*
D22*
X26883500Y-49587230D03*
G04 #@! TD*
D12*
G04 #@! TO.C,D7*
G36*
X3233749Y-25336522D02*
X3258017Y-25340122D01*
X3281816Y-25346083D01*
X3304915Y-25354348D01*
X3327094Y-25364838D01*
X3348137Y-25377450D01*
X3367843Y-25392065D01*
X3386021Y-25408541D01*
X3402497Y-25426719D01*
X3417112Y-25446425D01*
X3429724Y-25467468D01*
X3440214Y-25489647D01*
X3448479Y-25512746D01*
X3454440Y-25536545D01*
X3458040Y-25560813D01*
X3459244Y-25585317D01*
X3459244Y-26235319D01*
X3458040Y-26259823D01*
X3454440Y-26284091D01*
X3448479Y-26307890D01*
X3440214Y-26330989D01*
X3429724Y-26353168D01*
X3417112Y-26374211D01*
X3402497Y-26393917D01*
X3386021Y-26412095D01*
X3367843Y-26428571D01*
X3348137Y-26443186D01*
X3327094Y-26455798D01*
X3304915Y-26466288D01*
X3281816Y-26474553D01*
X3258017Y-26480514D01*
X3233749Y-26484114D01*
X3209245Y-26485318D01*
X2309243Y-26485318D01*
X2284739Y-26484114D01*
X2260471Y-26480514D01*
X2236672Y-26474553D01*
X2213573Y-26466288D01*
X2191394Y-26455798D01*
X2170351Y-26443186D01*
X2150645Y-26428571D01*
X2132467Y-26412095D01*
X2115991Y-26393917D01*
X2101376Y-26374211D01*
X2088764Y-26353168D01*
X2078274Y-26330989D01*
X2070009Y-26307890D01*
X2064048Y-26284091D01*
X2060448Y-26259823D01*
X2059244Y-26235319D01*
X2059244Y-25585317D01*
X2060448Y-25560813D01*
X2064048Y-25536545D01*
X2070009Y-25512746D01*
X2078274Y-25489647D01*
X2088764Y-25467468D01*
X2101376Y-25446425D01*
X2115991Y-25426719D01*
X2132467Y-25408541D01*
X2150645Y-25392065D01*
X2170351Y-25377450D01*
X2191394Y-25364838D01*
X2213573Y-25354348D01*
X2236672Y-25346083D01*
X2260471Y-25340122D01*
X2284739Y-25336522D01*
X2309243Y-25335318D01*
X3209245Y-25335318D01*
X3233749Y-25336522D01*
X3233749Y-25336522D01*
G37*
D22*
X2759244Y-25910318D03*
D12*
G36*
X3233749Y-23286522D02*
X3258017Y-23290122D01*
X3281816Y-23296083D01*
X3304915Y-23304348D01*
X3327094Y-23314838D01*
X3348137Y-23327450D01*
X3367843Y-23342065D01*
X3386021Y-23358541D01*
X3402497Y-23376719D01*
X3417112Y-23396425D01*
X3429724Y-23417468D01*
X3440214Y-23439647D01*
X3448479Y-23462746D01*
X3454440Y-23486545D01*
X3458040Y-23510813D01*
X3459244Y-23535317D01*
X3459244Y-24185319D01*
X3458040Y-24209823D01*
X3454440Y-24234091D01*
X3448479Y-24257890D01*
X3440214Y-24280989D01*
X3429724Y-24303168D01*
X3417112Y-24324211D01*
X3402497Y-24343917D01*
X3386021Y-24362095D01*
X3367843Y-24378571D01*
X3348137Y-24393186D01*
X3327094Y-24405798D01*
X3304915Y-24416288D01*
X3281816Y-24424553D01*
X3258017Y-24430514D01*
X3233749Y-24434114D01*
X3209245Y-24435318D01*
X2309243Y-24435318D01*
X2284739Y-24434114D01*
X2260471Y-24430514D01*
X2236672Y-24424553D01*
X2213573Y-24416288D01*
X2191394Y-24405798D01*
X2170351Y-24393186D01*
X2150645Y-24378571D01*
X2132467Y-24362095D01*
X2115991Y-24343917D01*
X2101376Y-24324211D01*
X2088764Y-24303168D01*
X2078274Y-24280989D01*
X2070009Y-24257890D01*
X2064048Y-24234091D01*
X2060448Y-24209823D01*
X2059244Y-24185319D01*
X2059244Y-23535317D01*
X2060448Y-23510813D01*
X2064048Y-23486545D01*
X2070009Y-23462746D01*
X2078274Y-23439647D01*
X2088764Y-23417468D01*
X2101376Y-23396425D01*
X2115991Y-23376719D01*
X2132467Y-23358541D01*
X2150645Y-23342065D01*
X2170351Y-23327450D01*
X2191394Y-23314838D01*
X2213573Y-23304348D01*
X2236672Y-23296083D01*
X2260471Y-23290122D01*
X2284739Y-23286522D01*
X2309243Y-23285318D01*
X3209245Y-23285318D01*
X3233749Y-23286522D01*
X3233749Y-23286522D01*
G37*
D22*
X2759244Y-23860318D03*
G04 #@! TD*
D12*
G04 #@! TO.C,D6*
G36*
X9647496Y-23286522D02*
X9671764Y-23290122D01*
X9695563Y-23296083D01*
X9718662Y-23304348D01*
X9740841Y-23314838D01*
X9761884Y-23327450D01*
X9781590Y-23342065D01*
X9799768Y-23358541D01*
X9816244Y-23376719D01*
X9830859Y-23396425D01*
X9843471Y-23417468D01*
X9853961Y-23439647D01*
X9862226Y-23462746D01*
X9868187Y-23486545D01*
X9871787Y-23510813D01*
X9872991Y-23535317D01*
X9872991Y-24185319D01*
X9871787Y-24209823D01*
X9868187Y-24234091D01*
X9862226Y-24257890D01*
X9853961Y-24280989D01*
X9843471Y-24303168D01*
X9830859Y-24324211D01*
X9816244Y-24343917D01*
X9799768Y-24362095D01*
X9781590Y-24378571D01*
X9761884Y-24393186D01*
X9740841Y-24405798D01*
X9718662Y-24416288D01*
X9695563Y-24424553D01*
X9671764Y-24430514D01*
X9647496Y-24434114D01*
X9622992Y-24435318D01*
X8722990Y-24435318D01*
X8698486Y-24434114D01*
X8674218Y-24430514D01*
X8650419Y-24424553D01*
X8627320Y-24416288D01*
X8605141Y-24405798D01*
X8584098Y-24393186D01*
X8564392Y-24378571D01*
X8546214Y-24362095D01*
X8529738Y-24343917D01*
X8515123Y-24324211D01*
X8502511Y-24303168D01*
X8492021Y-24280989D01*
X8483756Y-24257890D01*
X8477795Y-24234091D01*
X8474195Y-24209823D01*
X8472991Y-24185319D01*
X8472991Y-23535317D01*
X8474195Y-23510813D01*
X8477795Y-23486545D01*
X8483756Y-23462746D01*
X8492021Y-23439647D01*
X8502511Y-23417468D01*
X8515123Y-23396425D01*
X8529738Y-23376719D01*
X8546214Y-23358541D01*
X8564392Y-23342065D01*
X8584098Y-23327450D01*
X8605141Y-23314838D01*
X8627320Y-23304348D01*
X8650419Y-23296083D01*
X8674218Y-23290122D01*
X8698486Y-23286522D01*
X8722990Y-23285318D01*
X9622992Y-23285318D01*
X9647496Y-23286522D01*
X9647496Y-23286522D01*
G37*
D22*
X9172991Y-23860318D03*
D12*
G36*
X9647496Y-25336522D02*
X9671764Y-25340122D01*
X9695563Y-25346083D01*
X9718662Y-25354348D01*
X9740841Y-25364838D01*
X9761884Y-25377450D01*
X9781590Y-25392065D01*
X9799768Y-25408541D01*
X9816244Y-25426719D01*
X9830859Y-25446425D01*
X9843471Y-25467468D01*
X9853961Y-25489647D01*
X9862226Y-25512746D01*
X9868187Y-25536545D01*
X9871787Y-25560813D01*
X9872991Y-25585317D01*
X9872991Y-26235319D01*
X9871787Y-26259823D01*
X9868187Y-26284091D01*
X9862226Y-26307890D01*
X9853961Y-26330989D01*
X9843471Y-26353168D01*
X9830859Y-26374211D01*
X9816244Y-26393917D01*
X9799768Y-26412095D01*
X9781590Y-26428571D01*
X9761884Y-26443186D01*
X9740841Y-26455798D01*
X9718662Y-26466288D01*
X9695563Y-26474553D01*
X9671764Y-26480514D01*
X9647496Y-26484114D01*
X9622992Y-26485318D01*
X8722990Y-26485318D01*
X8698486Y-26484114D01*
X8674218Y-26480514D01*
X8650419Y-26474553D01*
X8627320Y-26466288D01*
X8605141Y-26455798D01*
X8584098Y-26443186D01*
X8564392Y-26428571D01*
X8546214Y-26412095D01*
X8529738Y-26393917D01*
X8515123Y-26374211D01*
X8502511Y-26353168D01*
X8492021Y-26330989D01*
X8483756Y-26307890D01*
X8477795Y-26284091D01*
X8474195Y-26259823D01*
X8472991Y-26235319D01*
X8472991Y-25585317D01*
X8474195Y-25560813D01*
X8477795Y-25536545D01*
X8483756Y-25512746D01*
X8492021Y-25489647D01*
X8502511Y-25467468D01*
X8515123Y-25446425D01*
X8529738Y-25426719D01*
X8546214Y-25408541D01*
X8564392Y-25392065D01*
X8584098Y-25377450D01*
X8605141Y-25364838D01*
X8627320Y-25354348D01*
X8650419Y-25346083D01*
X8674218Y-25340122D01*
X8698486Y-25336522D01*
X8722990Y-25335318D01*
X9622992Y-25335318D01*
X9647496Y-25336522D01*
X9647496Y-25336522D01*
G37*
D22*
X9172991Y-25910318D03*
G04 #@! TD*
D12*
G04 #@! TO.C,D3*
G36*
X47624505Y-126201204D02*
X47648773Y-126204804D01*
X47672572Y-126210765D01*
X47695671Y-126219030D01*
X47717850Y-126229520D01*
X47738893Y-126242132D01*
X47758599Y-126256747D01*
X47776777Y-126273223D01*
X47793253Y-126291401D01*
X47807868Y-126311107D01*
X47820480Y-126332150D01*
X47830970Y-126354329D01*
X47839235Y-126377428D01*
X47845196Y-126401227D01*
X47848796Y-126425495D01*
X47850000Y-126449999D01*
X47850000Y-127350001D01*
X47848796Y-127374505D01*
X47845196Y-127398773D01*
X47839235Y-127422572D01*
X47830970Y-127445671D01*
X47820480Y-127467850D01*
X47807868Y-127488893D01*
X47793253Y-127508599D01*
X47776777Y-127526777D01*
X47758599Y-127543253D01*
X47738893Y-127557868D01*
X47717850Y-127570480D01*
X47695671Y-127580970D01*
X47672572Y-127589235D01*
X47648773Y-127595196D01*
X47624505Y-127598796D01*
X47600001Y-127600000D01*
X46949999Y-127600000D01*
X46925495Y-127598796D01*
X46901227Y-127595196D01*
X46877428Y-127589235D01*
X46854329Y-127580970D01*
X46832150Y-127570480D01*
X46811107Y-127557868D01*
X46791401Y-127543253D01*
X46773223Y-127526777D01*
X46756747Y-127508599D01*
X46742132Y-127488893D01*
X46729520Y-127467850D01*
X46719030Y-127445671D01*
X46710765Y-127422572D01*
X46704804Y-127398773D01*
X46701204Y-127374505D01*
X46700000Y-127350001D01*
X46700000Y-126449999D01*
X46701204Y-126425495D01*
X46704804Y-126401227D01*
X46710765Y-126377428D01*
X46719030Y-126354329D01*
X46729520Y-126332150D01*
X46742132Y-126311107D01*
X46756747Y-126291401D01*
X46773223Y-126273223D01*
X46791401Y-126256747D01*
X46811107Y-126242132D01*
X46832150Y-126229520D01*
X46854329Y-126219030D01*
X46877428Y-126210765D01*
X46901227Y-126204804D01*
X46925495Y-126201204D01*
X46949999Y-126200000D01*
X47600001Y-126200000D01*
X47624505Y-126201204D01*
X47624505Y-126201204D01*
G37*
D22*
X47275000Y-126900000D03*
D12*
G36*
X49674505Y-126201204D02*
X49698773Y-126204804D01*
X49722572Y-126210765D01*
X49745671Y-126219030D01*
X49767850Y-126229520D01*
X49788893Y-126242132D01*
X49808599Y-126256747D01*
X49826777Y-126273223D01*
X49843253Y-126291401D01*
X49857868Y-126311107D01*
X49870480Y-126332150D01*
X49880970Y-126354329D01*
X49889235Y-126377428D01*
X49895196Y-126401227D01*
X49898796Y-126425495D01*
X49900000Y-126449999D01*
X49900000Y-127350001D01*
X49898796Y-127374505D01*
X49895196Y-127398773D01*
X49889235Y-127422572D01*
X49880970Y-127445671D01*
X49870480Y-127467850D01*
X49857868Y-127488893D01*
X49843253Y-127508599D01*
X49826777Y-127526777D01*
X49808599Y-127543253D01*
X49788893Y-127557868D01*
X49767850Y-127570480D01*
X49745671Y-127580970D01*
X49722572Y-127589235D01*
X49698773Y-127595196D01*
X49674505Y-127598796D01*
X49650001Y-127600000D01*
X48999999Y-127600000D01*
X48975495Y-127598796D01*
X48951227Y-127595196D01*
X48927428Y-127589235D01*
X48904329Y-127580970D01*
X48882150Y-127570480D01*
X48861107Y-127557868D01*
X48841401Y-127543253D01*
X48823223Y-127526777D01*
X48806747Y-127508599D01*
X48792132Y-127488893D01*
X48779520Y-127467850D01*
X48769030Y-127445671D01*
X48760765Y-127422572D01*
X48754804Y-127398773D01*
X48751204Y-127374505D01*
X48750000Y-127350001D01*
X48750000Y-126449999D01*
X48751204Y-126425495D01*
X48754804Y-126401227D01*
X48760765Y-126377428D01*
X48769030Y-126354329D01*
X48779520Y-126332150D01*
X48792132Y-126311107D01*
X48806747Y-126291401D01*
X48823223Y-126273223D01*
X48841401Y-126256747D01*
X48861107Y-126242132D01*
X48882150Y-126229520D01*
X48904329Y-126219030D01*
X48927428Y-126210765D01*
X48951227Y-126204804D01*
X48975495Y-126201204D01*
X48999999Y-126200000D01*
X49650001Y-126200000D01*
X49674505Y-126201204D01*
X49674505Y-126201204D01*
G37*
D22*
X49325000Y-126900000D03*
G04 #@! TD*
D12*
G04 #@! TO.C,D1*
G36*
X18484925Y-123237703D02*
X18509193Y-123241303D01*
X18532992Y-123247264D01*
X18556091Y-123255529D01*
X18578270Y-123266019D01*
X18599313Y-123278631D01*
X18619019Y-123293246D01*
X18637197Y-123309722D01*
X18653673Y-123327900D01*
X18668288Y-123347606D01*
X18680900Y-123368649D01*
X18691390Y-123390828D01*
X18699655Y-123413927D01*
X18705616Y-123437726D01*
X18709216Y-123461994D01*
X18710420Y-123486498D01*
X18710420Y-124386500D01*
X18709216Y-124411004D01*
X18705616Y-124435272D01*
X18699655Y-124459071D01*
X18691390Y-124482170D01*
X18680900Y-124504349D01*
X18668288Y-124525392D01*
X18653673Y-124545098D01*
X18637197Y-124563276D01*
X18619019Y-124579752D01*
X18599313Y-124594367D01*
X18578270Y-124606979D01*
X18556091Y-124617469D01*
X18532992Y-124625734D01*
X18509193Y-124631695D01*
X18484925Y-124635295D01*
X18460421Y-124636499D01*
X17810419Y-124636499D01*
X17785915Y-124635295D01*
X17761647Y-124631695D01*
X17737848Y-124625734D01*
X17714749Y-124617469D01*
X17692570Y-124606979D01*
X17671527Y-124594367D01*
X17651821Y-124579752D01*
X17633643Y-124563276D01*
X17617167Y-124545098D01*
X17602552Y-124525392D01*
X17589940Y-124504349D01*
X17579450Y-124482170D01*
X17571185Y-124459071D01*
X17565224Y-124435272D01*
X17561624Y-124411004D01*
X17560420Y-124386500D01*
X17560420Y-123486498D01*
X17561624Y-123461994D01*
X17565224Y-123437726D01*
X17571185Y-123413927D01*
X17579450Y-123390828D01*
X17589940Y-123368649D01*
X17602552Y-123347606D01*
X17617167Y-123327900D01*
X17633643Y-123309722D01*
X17651821Y-123293246D01*
X17671527Y-123278631D01*
X17692570Y-123266019D01*
X17714749Y-123255529D01*
X17737848Y-123247264D01*
X17761647Y-123241303D01*
X17785915Y-123237703D01*
X17810419Y-123236499D01*
X18460421Y-123236499D01*
X18484925Y-123237703D01*
X18484925Y-123237703D01*
G37*
D22*
X18135420Y-123936499D03*
D12*
G36*
X16434925Y-123237703D02*
X16459193Y-123241303D01*
X16482992Y-123247264D01*
X16506091Y-123255529D01*
X16528270Y-123266019D01*
X16549313Y-123278631D01*
X16569019Y-123293246D01*
X16587197Y-123309722D01*
X16603673Y-123327900D01*
X16618288Y-123347606D01*
X16630900Y-123368649D01*
X16641390Y-123390828D01*
X16649655Y-123413927D01*
X16655616Y-123437726D01*
X16659216Y-123461994D01*
X16660420Y-123486498D01*
X16660420Y-124386500D01*
X16659216Y-124411004D01*
X16655616Y-124435272D01*
X16649655Y-124459071D01*
X16641390Y-124482170D01*
X16630900Y-124504349D01*
X16618288Y-124525392D01*
X16603673Y-124545098D01*
X16587197Y-124563276D01*
X16569019Y-124579752D01*
X16549313Y-124594367D01*
X16528270Y-124606979D01*
X16506091Y-124617469D01*
X16482992Y-124625734D01*
X16459193Y-124631695D01*
X16434925Y-124635295D01*
X16410421Y-124636499D01*
X15760419Y-124636499D01*
X15735915Y-124635295D01*
X15711647Y-124631695D01*
X15687848Y-124625734D01*
X15664749Y-124617469D01*
X15642570Y-124606979D01*
X15621527Y-124594367D01*
X15601821Y-124579752D01*
X15583643Y-124563276D01*
X15567167Y-124545098D01*
X15552552Y-124525392D01*
X15539940Y-124504349D01*
X15529450Y-124482170D01*
X15521185Y-124459071D01*
X15515224Y-124435272D01*
X15511624Y-124411004D01*
X15510420Y-124386500D01*
X15510420Y-123486498D01*
X15511624Y-123461994D01*
X15515224Y-123437726D01*
X15521185Y-123413927D01*
X15529450Y-123390828D01*
X15539940Y-123368649D01*
X15552552Y-123347606D01*
X15567167Y-123327900D01*
X15583643Y-123309722D01*
X15601821Y-123293246D01*
X15621527Y-123278631D01*
X15642570Y-123266019D01*
X15664749Y-123255529D01*
X15687848Y-123247264D01*
X15711647Y-123241303D01*
X15735915Y-123237703D01*
X15760419Y-123236499D01*
X16410421Y-123236499D01*
X16434925Y-123237703D01*
X16434925Y-123237703D01*
G37*
D22*
X16085420Y-123936499D03*
G04 #@! TD*
D12*
G04 #@! TO.C,D2*
G36*
X16434925Y-110067703D02*
X16459193Y-110071303D01*
X16482992Y-110077264D01*
X16506091Y-110085529D01*
X16528270Y-110096019D01*
X16549313Y-110108631D01*
X16569019Y-110123246D01*
X16587197Y-110139722D01*
X16603673Y-110157900D01*
X16618288Y-110177606D01*
X16630900Y-110198649D01*
X16641390Y-110220828D01*
X16649655Y-110243927D01*
X16655616Y-110267726D01*
X16659216Y-110291994D01*
X16660420Y-110316498D01*
X16660420Y-111216500D01*
X16659216Y-111241004D01*
X16655616Y-111265272D01*
X16649655Y-111289071D01*
X16641390Y-111312170D01*
X16630900Y-111334349D01*
X16618288Y-111355392D01*
X16603673Y-111375098D01*
X16587197Y-111393276D01*
X16569019Y-111409752D01*
X16549313Y-111424367D01*
X16528270Y-111436979D01*
X16506091Y-111447469D01*
X16482992Y-111455734D01*
X16459193Y-111461695D01*
X16434925Y-111465295D01*
X16410421Y-111466499D01*
X15760419Y-111466499D01*
X15735915Y-111465295D01*
X15711647Y-111461695D01*
X15687848Y-111455734D01*
X15664749Y-111447469D01*
X15642570Y-111436979D01*
X15621527Y-111424367D01*
X15601821Y-111409752D01*
X15583643Y-111393276D01*
X15567167Y-111375098D01*
X15552552Y-111355392D01*
X15539940Y-111334349D01*
X15529450Y-111312170D01*
X15521185Y-111289071D01*
X15515224Y-111265272D01*
X15511624Y-111241004D01*
X15510420Y-111216500D01*
X15510420Y-110316498D01*
X15511624Y-110291994D01*
X15515224Y-110267726D01*
X15521185Y-110243927D01*
X15529450Y-110220828D01*
X15539940Y-110198649D01*
X15552552Y-110177606D01*
X15567167Y-110157900D01*
X15583643Y-110139722D01*
X15601821Y-110123246D01*
X15621527Y-110108631D01*
X15642570Y-110096019D01*
X15664749Y-110085529D01*
X15687848Y-110077264D01*
X15711647Y-110071303D01*
X15735915Y-110067703D01*
X15760419Y-110066499D01*
X16410421Y-110066499D01*
X16434925Y-110067703D01*
X16434925Y-110067703D01*
G37*
D22*
X16085420Y-110766499D03*
D12*
G36*
X18484925Y-110067703D02*
X18509193Y-110071303D01*
X18532992Y-110077264D01*
X18556091Y-110085529D01*
X18578270Y-110096019D01*
X18599313Y-110108631D01*
X18619019Y-110123246D01*
X18637197Y-110139722D01*
X18653673Y-110157900D01*
X18668288Y-110177606D01*
X18680900Y-110198649D01*
X18691390Y-110220828D01*
X18699655Y-110243927D01*
X18705616Y-110267726D01*
X18709216Y-110291994D01*
X18710420Y-110316498D01*
X18710420Y-111216500D01*
X18709216Y-111241004D01*
X18705616Y-111265272D01*
X18699655Y-111289071D01*
X18691390Y-111312170D01*
X18680900Y-111334349D01*
X18668288Y-111355392D01*
X18653673Y-111375098D01*
X18637197Y-111393276D01*
X18619019Y-111409752D01*
X18599313Y-111424367D01*
X18578270Y-111436979D01*
X18556091Y-111447469D01*
X18532992Y-111455734D01*
X18509193Y-111461695D01*
X18484925Y-111465295D01*
X18460421Y-111466499D01*
X17810419Y-111466499D01*
X17785915Y-111465295D01*
X17761647Y-111461695D01*
X17737848Y-111455734D01*
X17714749Y-111447469D01*
X17692570Y-111436979D01*
X17671527Y-111424367D01*
X17651821Y-111409752D01*
X17633643Y-111393276D01*
X17617167Y-111375098D01*
X17602552Y-111355392D01*
X17589940Y-111334349D01*
X17579450Y-111312170D01*
X17571185Y-111289071D01*
X17565224Y-111265272D01*
X17561624Y-111241004D01*
X17560420Y-111216500D01*
X17560420Y-110316498D01*
X17561624Y-110291994D01*
X17565224Y-110267726D01*
X17571185Y-110243927D01*
X17579450Y-110220828D01*
X17589940Y-110198649D01*
X17602552Y-110177606D01*
X17617167Y-110157900D01*
X17633643Y-110139722D01*
X17651821Y-110123246D01*
X17671527Y-110108631D01*
X17692570Y-110096019D01*
X17714749Y-110085529D01*
X17737848Y-110077264D01*
X17761647Y-110071303D01*
X17785915Y-110067703D01*
X17810419Y-110066499D01*
X18460421Y-110066499D01*
X18484925Y-110067703D01*
X18484925Y-110067703D01*
G37*
D22*
X18135420Y-110766499D03*
G04 #@! TD*
D26*
G04 #@! TO.C,U5*
X23500000Y-16150000D03*
D27*
X23500000Y-22450000D03*
X25800000Y-22450000D03*
X21200000Y-22450000D03*
G04 #@! TD*
D28*
G04 #@! TO.C,Q3*
X47206530Y-105972500D03*
X46256530Y-102972500D03*
X48156530Y-102972500D03*
G04 #@! TD*
D29*
G04 #@! TO.C,Q2*
X33193593Y-89287799D03*
X33193593Y-87387799D03*
X30193593Y-88337799D03*
G04 #@! TD*
G04 #@! TO.C,Q1*
X43783593Y-118527800D03*
X46783593Y-117577800D03*
X46783593Y-119477800D03*
G04 #@! TD*
D28*
G04 #@! TO.C,Q4*
X80310000Y-21700000D03*
X82210000Y-21700000D03*
X81260000Y-18700000D03*
G04 #@! TD*
D12*
G04 #@! TO.C,R7*
G36*
X16546199Y-121462643D02*
X16569254Y-121466062D01*
X16591863Y-121471726D01*
X16613807Y-121479578D01*
X16634877Y-121489543D01*
X16654868Y-121501525D01*
X16673588Y-121515409D01*
X16690858Y-121531061D01*
X16706510Y-121548331D01*
X16720394Y-121567051D01*
X16732376Y-121587042D01*
X16742341Y-121608112D01*
X16750193Y-121630056D01*
X16755857Y-121652665D01*
X16759276Y-121675720D01*
X16760420Y-121698999D01*
X16760420Y-122173999D01*
X16759276Y-122197278D01*
X16755857Y-122220333D01*
X16750193Y-122242942D01*
X16742341Y-122264886D01*
X16732376Y-122285956D01*
X16720394Y-122305947D01*
X16706510Y-122324667D01*
X16690858Y-122341937D01*
X16673588Y-122357589D01*
X16654868Y-122371473D01*
X16634877Y-122383455D01*
X16613807Y-122393420D01*
X16591863Y-122401272D01*
X16569254Y-122406936D01*
X16546199Y-122410355D01*
X16522920Y-122411499D01*
X15947920Y-122411499D01*
X15924641Y-122410355D01*
X15901586Y-122406936D01*
X15878977Y-122401272D01*
X15857033Y-122393420D01*
X15835963Y-122383455D01*
X15815972Y-122371473D01*
X15797252Y-122357589D01*
X15779982Y-122341937D01*
X15764330Y-122324667D01*
X15750446Y-122305947D01*
X15738464Y-122285956D01*
X15728499Y-122264886D01*
X15720647Y-122242942D01*
X15714983Y-122220333D01*
X15711564Y-122197278D01*
X15710420Y-122173999D01*
X15710420Y-121698999D01*
X15711564Y-121675720D01*
X15714983Y-121652665D01*
X15720647Y-121630056D01*
X15728499Y-121608112D01*
X15738464Y-121587042D01*
X15750446Y-121567051D01*
X15764330Y-121548331D01*
X15779982Y-121531061D01*
X15797252Y-121515409D01*
X15815972Y-121501525D01*
X15835963Y-121489543D01*
X15857033Y-121479578D01*
X15878977Y-121471726D01*
X15901586Y-121466062D01*
X15924641Y-121462643D01*
X15947920Y-121461499D01*
X16522920Y-121461499D01*
X16546199Y-121462643D01*
X16546199Y-121462643D01*
G37*
D13*
X16235420Y-121936499D03*
D12*
G36*
X18296199Y-121462643D02*
X18319254Y-121466062D01*
X18341863Y-121471726D01*
X18363807Y-121479578D01*
X18384877Y-121489543D01*
X18404868Y-121501525D01*
X18423588Y-121515409D01*
X18440858Y-121531061D01*
X18456510Y-121548331D01*
X18470394Y-121567051D01*
X18482376Y-121587042D01*
X18492341Y-121608112D01*
X18500193Y-121630056D01*
X18505857Y-121652665D01*
X18509276Y-121675720D01*
X18510420Y-121698999D01*
X18510420Y-122173999D01*
X18509276Y-122197278D01*
X18505857Y-122220333D01*
X18500193Y-122242942D01*
X18492341Y-122264886D01*
X18482376Y-122285956D01*
X18470394Y-122305947D01*
X18456510Y-122324667D01*
X18440858Y-122341937D01*
X18423588Y-122357589D01*
X18404868Y-122371473D01*
X18384877Y-122383455D01*
X18363807Y-122393420D01*
X18341863Y-122401272D01*
X18319254Y-122406936D01*
X18296199Y-122410355D01*
X18272920Y-122411499D01*
X17697920Y-122411499D01*
X17674641Y-122410355D01*
X17651586Y-122406936D01*
X17628977Y-122401272D01*
X17607033Y-122393420D01*
X17585963Y-122383455D01*
X17565972Y-122371473D01*
X17547252Y-122357589D01*
X17529982Y-122341937D01*
X17514330Y-122324667D01*
X17500446Y-122305947D01*
X17488464Y-122285956D01*
X17478499Y-122264886D01*
X17470647Y-122242942D01*
X17464983Y-122220333D01*
X17461564Y-122197278D01*
X17460420Y-122173999D01*
X17460420Y-121698999D01*
X17461564Y-121675720D01*
X17464983Y-121652665D01*
X17470647Y-121630056D01*
X17478499Y-121608112D01*
X17488464Y-121587042D01*
X17500446Y-121567051D01*
X17514330Y-121548331D01*
X17529982Y-121531061D01*
X17547252Y-121515409D01*
X17565972Y-121501525D01*
X17585963Y-121489543D01*
X17607033Y-121479578D01*
X17628977Y-121471726D01*
X17651586Y-121466062D01*
X17674641Y-121462643D01*
X17697920Y-121461499D01*
X18272920Y-121461499D01*
X18296199Y-121462643D01*
X18296199Y-121462643D01*
G37*
D13*
X17985420Y-121936499D03*
G04 #@! TD*
D12*
G04 #@! TO.C,R4*
G36*
X37981779Y-88996144D02*
X38004834Y-88999563D01*
X38027443Y-89005227D01*
X38049387Y-89013079D01*
X38070457Y-89023044D01*
X38090448Y-89035026D01*
X38109168Y-89048910D01*
X38126438Y-89064562D01*
X38142090Y-89081832D01*
X38155974Y-89100552D01*
X38167956Y-89120543D01*
X38177921Y-89141613D01*
X38185773Y-89163557D01*
X38191437Y-89186166D01*
X38194856Y-89209221D01*
X38196000Y-89232500D01*
X38196000Y-89707500D01*
X38194856Y-89730779D01*
X38191437Y-89753834D01*
X38185773Y-89776443D01*
X38177921Y-89798387D01*
X38167956Y-89819457D01*
X38155974Y-89839448D01*
X38142090Y-89858168D01*
X38126438Y-89875438D01*
X38109168Y-89891090D01*
X38090448Y-89904974D01*
X38070457Y-89916956D01*
X38049387Y-89926921D01*
X38027443Y-89934773D01*
X38004834Y-89940437D01*
X37981779Y-89943856D01*
X37958500Y-89945000D01*
X37383500Y-89945000D01*
X37360221Y-89943856D01*
X37337166Y-89940437D01*
X37314557Y-89934773D01*
X37292613Y-89926921D01*
X37271543Y-89916956D01*
X37251552Y-89904974D01*
X37232832Y-89891090D01*
X37215562Y-89875438D01*
X37199910Y-89858168D01*
X37186026Y-89839448D01*
X37174044Y-89819457D01*
X37164079Y-89798387D01*
X37156227Y-89776443D01*
X37150563Y-89753834D01*
X37147144Y-89730779D01*
X37146000Y-89707500D01*
X37146000Y-89232500D01*
X37147144Y-89209221D01*
X37150563Y-89186166D01*
X37156227Y-89163557D01*
X37164079Y-89141613D01*
X37174044Y-89120543D01*
X37186026Y-89100552D01*
X37199910Y-89081832D01*
X37215562Y-89064562D01*
X37232832Y-89048910D01*
X37251552Y-89035026D01*
X37271543Y-89023044D01*
X37292613Y-89013079D01*
X37314557Y-89005227D01*
X37337166Y-88999563D01*
X37360221Y-88996144D01*
X37383500Y-88995000D01*
X37958500Y-88995000D01*
X37981779Y-88996144D01*
X37981779Y-88996144D01*
G37*
D13*
X37671000Y-89470000D03*
D12*
G36*
X36231779Y-88996144D02*
X36254834Y-88999563D01*
X36277443Y-89005227D01*
X36299387Y-89013079D01*
X36320457Y-89023044D01*
X36340448Y-89035026D01*
X36359168Y-89048910D01*
X36376438Y-89064562D01*
X36392090Y-89081832D01*
X36405974Y-89100552D01*
X36417956Y-89120543D01*
X36427921Y-89141613D01*
X36435773Y-89163557D01*
X36441437Y-89186166D01*
X36444856Y-89209221D01*
X36446000Y-89232500D01*
X36446000Y-89707500D01*
X36444856Y-89730779D01*
X36441437Y-89753834D01*
X36435773Y-89776443D01*
X36427921Y-89798387D01*
X36417956Y-89819457D01*
X36405974Y-89839448D01*
X36392090Y-89858168D01*
X36376438Y-89875438D01*
X36359168Y-89891090D01*
X36340448Y-89904974D01*
X36320457Y-89916956D01*
X36299387Y-89926921D01*
X36277443Y-89934773D01*
X36254834Y-89940437D01*
X36231779Y-89943856D01*
X36208500Y-89945000D01*
X35633500Y-89945000D01*
X35610221Y-89943856D01*
X35587166Y-89940437D01*
X35564557Y-89934773D01*
X35542613Y-89926921D01*
X35521543Y-89916956D01*
X35501552Y-89904974D01*
X35482832Y-89891090D01*
X35465562Y-89875438D01*
X35449910Y-89858168D01*
X35436026Y-89839448D01*
X35424044Y-89819457D01*
X35414079Y-89798387D01*
X35406227Y-89776443D01*
X35400563Y-89753834D01*
X35397144Y-89730779D01*
X35396000Y-89707500D01*
X35396000Y-89232500D01*
X35397144Y-89209221D01*
X35400563Y-89186166D01*
X35406227Y-89163557D01*
X35414079Y-89141613D01*
X35424044Y-89120543D01*
X35436026Y-89100552D01*
X35449910Y-89081832D01*
X35465562Y-89064562D01*
X35482832Y-89048910D01*
X35501552Y-89035026D01*
X35521543Y-89023044D01*
X35542613Y-89013079D01*
X35564557Y-89005227D01*
X35587166Y-88999563D01*
X35610221Y-88996144D01*
X35633500Y-88995000D01*
X36208500Y-88995000D01*
X36231779Y-88996144D01*
X36231779Y-88996144D01*
G37*
D13*
X35921000Y-89470000D03*
G04 #@! TD*
D12*
G04 #@! TO.C,R8*
G36*
X16546198Y-108292643D02*
X16569253Y-108296062D01*
X16591862Y-108301726D01*
X16613806Y-108309578D01*
X16634876Y-108319543D01*
X16654867Y-108331525D01*
X16673587Y-108345409D01*
X16690857Y-108361061D01*
X16706509Y-108378331D01*
X16720393Y-108397051D01*
X16732375Y-108417042D01*
X16742340Y-108438112D01*
X16750192Y-108460056D01*
X16755856Y-108482665D01*
X16759275Y-108505720D01*
X16760419Y-108528999D01*
X16760419Y-109003999D01*
X16759275Y-109027278D01*
X16755856Y-109050333D01*
X16750192Y-109072942D01*
X16742340Y-109094886D01*
X16732375Y-109115956D01*
X16720393Y-109135947D01*
X16706509Y-109154667D01*
X16690857Y-109171937D01*
X16673587Y-109187589D01*
X16654867Y-109201473D01*
X16634876Y-109213455D01*
X16613806Y-109223420D01*
X16591862Y-109231272D01*
X16569253Y-109236936D01*
X16546198Y-109240355D01*
X16522919Y-109241499D01*
X15947919Y-109241499D01*
X15924640Y-109240355D01*
X15901585Y-109236936D01*
X15878976Y-109231272D01*
X15857032Y-109223420D01*
X15835962Y-109213455D01*
X15815971Y-109201473D01*
X15797251Y-109187589D01*
X15779981Y-109171937D01*
X15764329Y-109154667D01*
X15750445Y-109135947D01*
X15738463Y-109115956D01*
X15728498Y-109094886D01*
X15720646Y-109072942D01*
X15714982Y-109050333D01*
X15711563Y-109027278D01*
X15710419Y-109003999D01*
X15710419Y-108528999D01*
X15711563Y-108505720D01*
X15714982Y-108482665D01*
X15720646Y-108460056D01*
X15728498Y-108438112D01*
X15738463Y-108417042D01*
X15750445Y-108397051D01*
X15764329Y-108378331D01*
X15779981Y-108361061D01*
X15797251Y-108345409D01*
X15815971Y-108331525D01*
X15835962Y-108319543D01*
X15857032Y-108309578D01*
X15878976Y-108301726D01*
X15901585Y-108296062D01*
X15924640Y-108292643D01*
X15947919Y-108291499D01*
X16522919Y-108291499D01*
X16546198Y-108292643D01*
X16546198Y-108292643D01*
G37*
D13*
X16235419Y-108766499D03*
D12*
G36*
X18296198Y-108292643D02*
X18319253Y-108296062D01*
X18341862Y-108301726D01*
X18363806Y-108309578D01*
X18384876Y-108319543D01*
X18404867Y-108331525D01*
X18423587Y-108345409D01*
X18440857Y-108361061D01*
X18456509Y-108378331D01*
X18470393Y-108397051D01*
X18482375Y-108417042D01*
X18492340Y-108438112D01*
X18500192Y-108460056D01*
X18505856Y-108482665D01*
X18509275Y-108505720D01*
X18510419Y-108528999D01*
X18510419Y-109003999D01*
X18509275Y-109027278D01*
X18505856Y-109050333D01*
X18500192Y-109072942D01*
X18492340Y-109094886D01*
X18482375Y-109115956D01*
X18470393Y-109135947D01*
X18456509Y-109154667D01*
X18440857Y-109171937D01*
X18423587Y-109187589D01*
X18404867Y-109201473D01*
X18384876Y-109213455D01*
X18363806Y-109223420D01*
X18341862Y-109231272D01*
X18319253Y-109236936D01*
X18296198Y-109240355D01*
X18272919Y-109241499D01*
X17697919Y-109241499D01*
X17674640Y-109240355D01*
X17651585Y-109236936D01*
X17628976Y-109231272D01*
X17607032Y-109223420D01*
X17585962Y-109213455D01*
X17565971Y-109201473D01*
X17547251Y-109187589D01*
X17529981Y-109171937D01*
X17514329Y-109154667D01*
X17500445Y-109135947D01*
X17488463Y-109115956D01*
X17478498Y-109094886D01*
X17470646Y-109072942D01*
X17464982Y-109050333D01*
X17461563Y-109027278D01*
X17460419Y-109003999D01*
X17460419Y-108528999D01*
X17461563Y-108505720D01*
X17464982Y-108482665D01*
X17470646Y-108460056D01*
X17478498Y-108438112D01*
X17488463Y-108417042D01*
X17500445Y-108397051D01*
X17514329Y-108378331D01*
X17529981Y-108361061D01*
X17547251Y-108345409D01*
X17565971Y-108331525D01*
X17585962Y-108319543D01*
X17607032Y-108309578D01*
X17628976Y-108301726D01*
X17651585Y-108296062D01*
X17674640Y-108292643D01*
X17697919Y-108291499D01*
X18272919Y-108291499D01*
X18296198Y-108292643D01*
X18296198Y-108292643D01*
G37*
D13*
X17985419Y-108766499D03*
G04 #@! TD*
D12*
G04 #@! TO.C,R19*
G36*
X42223548Y-30359644D02*
X42246603Y-30363063D01*
X42269212Y-30368727D01*
X42291156Y-30376579D01*
X42312226Y-30386544D01*
X42332217Y-30398526D01*
X42350937Y-30412410D01*
X42368207Y-30428062D01*
X42383859Y-30445332D01*
X42397743Y-30464052D01*
X42409725Y-30484043D01*
X42419690Y-30505113D01*
X42427542Y-30527057D01*
X42433206Y-30549666D01*
X42436625Y-30572721D01*
X42437769Y-30596000D01*
X42437769Y-31171000D01*
X42436625Y-31194279D01*
X42433206Y-31217334D01*
X42427542Y-31239943D01*
X42419690Y-31261887D01*
X42409725Y-31282957D01*
X42397743Y-31302948D01*
X42383859Y-31321668D01*
X42368207Y-31338938D01*
X42350937Y-31354590D01*
X42332217Y-31368474D01*
X42312226Y-31380456D01*
X42291156Y-31390421D01*
X42269212Y-31398273D01*
X42246603Y-31403937D01*
X42223548Y-31407356D01*
X42200269Y-31408500D01*
X41725269Y-31408500D01*
X41701990Y-31407356D01*
X41678935Y-31403937D01*
X41656326Y-31398273D01*
X41634382Y-31390421D01*
X41613312Y-31380456D01*
X41593321Y-31368474D01*
X41574601Y-31354590D01*
X41557331Y-31338938D01*
X41541679Y-31321668D01*
X41527795Y-31302948D01*
X41515813Y-31282957D01*
X41505848Y-31261887D01*
X41497996Y-31239943D01*
X41492332Y-31217334D01*
X41488913Y-31194279D01*
X41487769Y-31171000D01*
X41487769Y-30596000D01*
X41488913Y-30572721D01*
X41492332Y-30549666D01*
X41497996Y-30527057D01*
X41505848Y-30505113D01*
X41515813Y-30484043D01*
X41527795Y-30464052D01*
X41541679Y-30445332D01*
X41557331Y-30428062D01*
X41574601Y-30412410D01*
X41593321Y-30398526D01*
X41613312Y-30386544D01*
X41634382Y-30376579D01*
X41656326Y-30368727D01*
X41678935Y-30363063D01*
X41701990Y-30359644D01*
X41725269Y-30358500D01*
X42200269Y-30358500D01*
X42223548Y-30359644D01*
X42223548Y-30359644D01*
G37*
D13*
X41962769Y-30883500D03*
D12*
G36*
X42223548Y-28609644D02*
X42246603Y-28613063D01*
X42269212Y-28618727D01*
X42291156Y-28626579D01*
X42312226Y-28636544D01*
X42332217Y-28648526D01*
X42350937Y-28662410D01*
X42368207Y-28678062D01*
X42383859Y-28695332D01*
X42397743Y-28714052D01*
X42409725Y-28734043D01*
X42419690Y-28755113D01*
X42427542Y-28777057D01*
X42433206Y-28799666D01*
X42436625Y-28822721D01*
X42437769Y-28846000D01*
X42437769Y-29421000D01*
X42436625Y-29444279D01*
X42433206Y-29467334D01*
X42427542Y-29489943D01*
X42419690Y-29511887D01*
X42409725Y-29532957D01*
X42397743Y-29552948D01*
X42383859Y-29571668D01*
X42368207Y-29588938D01*
X42350937Y-29604590D01*
X42332217Y-29618474D01*
X42312226Y-29630456D01*
X42291156Y-29640421D01*
X42269212Y-29648273D01*
X42246603Y-29653937D01*
X42223548Y-29657356D01*
X42200269Y-29658500D01*
X41725269Y-29658500D01*
X41701990Y-29657356D01*
X41678935Y-29653937D01*
X41656326Y-29648273D01*
X41634382Y-29640421D01*
X41613312Y-29630456D01*
X41593321Y-29618474D01*
X41574601Y-29604590D01*
X41557331Y-29588938D01*
X41541679Y-29571668D01*
X41527795Y-29552948D01*
X41515813Y-29532957D01*
X41505848Y-29511887D01*
X41497996Y-29489943D01*
X41492332Y-29467334D01*
X41488913Y-29444279D01*
X41487769Y-29421000D01*
X41487769Y-28846000D01*
X41488913Y-28822721D01*
X41492332Y-28799666D01*
X41497996Y-28777057D01*
X41505848Y-28755113D01*
X41515813Y-28734043D01*
X41527795Y-28714052D01*
X41541679Y-28695332D01*
X41557331Y-28678062D01*
X41574601Y-28662410D01*
X41593321Y-28648526D01*
X41613312Y-28636544D01*
X41634382Y-28626579D01*
X41656326Y-28618727D01*
X41678935Y-28613063D01*
X41701990Y-28609644D01*
X41725269Y-28608500D01*
X42200269Y-28608500D01*
X42223548Y-28609644D01*
X42223548Y-28609644D01*
G37*
D13*
X41962769Y-29133500D03*
G04 #@! TD*
D12*
G04 #@! TO.C,R3*
G36*
X52694373Y-119053945D02*
X52717428Y-119057364D01*
X52740037Y-119063028D01*
X52761981Y-119070880D01*
X52783051Y-119080845D01*
X52803042Y-119092827D01*
X52821762Y-119106711D01*
X52839032Y-119122363D01*
X52854684Y-119139633D01*
X52868568Y-119158353D01*
X52880550Y-119178344D01*
X52890515Y-119199414D01*
X52898367Y-119221358D01*
X52904031Y-119243967D01*
X52907450Y-119267022D01*
X52908594Y-119290301D01*
X52908594Y-119765301D01*
X52907450Y-119788580D01*
X52904031Y-119811635D01*
X52898367Y-119834244D01*
X52890515Y-119856188D01*
X52880550Y-119877258D01*
X52868568Y-119897249D01*
X52854684Y-119915969D01*
X52839032Y-119933239D01*
X52821762Y-119948891D01*
X52803042Y-119962775D01*
X52783051Y-119974757D01*
X52761981Y-119984722D01*
X52740037Y-119992574D01*
X52717428Y-119998238D01*
X52694373Y-120001657D01*
X52671094Y-120002801D01*
X52096094Y-120002801D01*
X52072815Y-120001657D01*
X52049760Y-119998238D01*
X52027151Y-119992574D01*
X52005207Y-119984722D01*
X51984137Y-119974757D01*
X51964146Y-119962775D01*
X51945426Y-119948891D01*
X51928156Y-119933239D01*
X51912504Y-119915969D01*
X51898620Y-119897249D01*
X51886638Y-119877258D01*
X51876673Y-119856188D01*
X51868821Y-119834244D01*
X51863157Y-119811635D01*
X51859738Y-119788580D01*
X51858594Y-119765301D01*
X51858594Y-119290301D01*
X51859738Y-119267022D01*
X51863157Y-119243967D01*
X51868821Y-119221358D01*
X51876673Y-119199414D01*
X51886638Y-119178344D01*
X51898620Y-119158353D01*
X51912504Y-119139633D01*
X51928156Y-119122363D01*
X51945426Y-119106711D01*
X51964146Y-119092827D01*
X51984137Y-119080845D01*
X52005207Y-119070880D01*
X52027151Y-119063028D01*
X52049760Y-119057364D01*
X52072815Y-119053945D01*
X52096094Y-119052801D01*
X52671094Y-119052801D01*
X52694373Y-119053945D01*
X52694373Y-119053945D01*
G37*
D13*
X52383594Y-119527801D03*
D12*
G36*
X50944373Y-119053945D02*
X50967428Y-119057364D01*
X50990037Y-119063028D01*
X51011981Y-119070880D01*
X51033051Y-119080845D01*
X51053042Y-119092827D01*
X51071762Y-119106711D01*
X51089032Y-119122363D01*
X51104684Y-119139633D01*
X51118568Y-119158353D01*
X51130550Y-119178344D01*
X51140515Y-119199414D01*
X51148367Y-119221358D01*
X51154031Y-119243967D01*
X51157450Y-119267022D01*
X51158594Y-119290301D01*
X51158594Y-119765301D01*
X51157450Y-119788580D01*
X51154031Y-119811635D01*
X51148367Y-119834244D01*
X51140515Y-119856188D01*
X51130550Y-119877258D01*
X51118568Y-119897249D01*
X51104684Y-119915969D01*
X51089032Y-119933239D01*
X51071762Y-119948891D01*
X51053042Y-119962775D01*
X51033051Y-119974757D01*
X51011981Y-119984722D01*
X50990037Y-119992574D01*
X50967428Y-119998238D01*
X50944373Y-120001657D01*
X50921094Y-120002801D01*
X50346094Y-120002801D01*
X50322815Y-120001657D01*
X50299760Y-119998238D01*
X50277151Y-119992574D01*
X50255207Y-119984722D01*
X50234137Y-119974757D01*
X50214146Y-119962775D01*
X50195426Y-119948891D01*
X50178156Y-119933239D01*
X50162504Y-119915969D01*
X50148620Y-119897249D01*
X50136638Y-119877258D01*
X50126673Y-119856188D01*
X50118821Y-119834244D01*
X50113157Y-119811635D01*
X50109738Y-119788580D01*
X50108594Y-119765301D01*
X50108594Y-119290301D01*
X50109738Y-119267022D01*
X50113157Y-119243967D01*
X50118821Y-119221358D01*
X50126673Y-119199414D01*
X50136638Y-119178344D01*
X50148620Y-119158353D01*
X50162504Y-119139633D01*
X50178156Y-119122363D01*
X50195426Y-119106711D01*
X50214146Y-119092827D01*
X50234137Y-119080845D01*
X50255207Y-119070880D01*
X50277151Y-119063028D01*
X50299760Y-119057364D01*
X50322815Y-119053945D01*
X50346094Y-119052801D01*
X50921094Y-119052801D01*
X50944373Y-119053945D01*
X50944373Y-119053945D01*
G37*
D13*
X50633594Y-119527801D03*
G04 #@! TD*
D12*
G04 #@! TO.C,R2*
G36*
X54314279Y-5823374D02*
X54337334Y-5826793D01*
X54359943Y-5832457D01*
X54381887Y-5840309D01*
X54402957Y-5850274D01*
X54422948Y-5862256D01*
X54441668Y-5876140D01*
X54458938Y-5891792D01*
X54474590Y-5909062D01*
X54488474Y-5927782D01*
X54500456Y-5947773D01*
X54510421Y-5968843D01*
X54518273Y-5990787D01*
X54523937Y-6013396D01*
X54527356Y-6036451D01*
X54528500Y-6059730D01*
X54528500Y-6534730D01*
X54527356Y-6558009D01*
X54523937Y-6581064D01*
X54518273Y-6603673D01*
X54510421Y-6625617D01*
X54500456Y-6646687D01*
X54488474Y-6666678D01*
X54474590Y-6685398D01*
X54458938Y-6702668D01*
X54441668Y-6718320D01*
X54422948Y-6732204D01*
X54402957Y-6744186D01*
X54381887Y-6754151D01*
X54359943Y-6762003D01*
X54337334Y-6767667D01*
X54314279Y-6771086D01*
X54291000Y-6772230D01*
X53716000Y-6772230D01*
X53692721Y-6771086D01*
X53669666Y-6767667D01*
X53647057Y-6762003D01*
X53625113Y-6754151D01*
X53604043Y-6744186D01*
X53584052Y-6732204D01*
X53565332Y-6718320D01*
X53548062Y-6702668D01*
X53532410Y-6685398D01*
X53518526Y-6666678D01*
X53506544Y-6646687D01*
X53496579Y-6625617D01*
X53488727Y-6603673D01*
X53483063Y-6581064D01*
X53479644Y-6558009D01*
X53478500Y-6534730D01*
X53478500Y-6059730D01*
X53479644Y-6036451D01*
X53483063Y-6013396D01*
X53488727Y-5990787D01*
X53496579Y-5968843D01*
X53506544Y-5947773D01*
X53518526Y-5927782D01*
X53532410Y-5909062D01*
X53548062Y-5891792D01*
X53565332Y-5876140D01*
X53584052Y-5862256D01*
X53604043Y-5850274D01*
X53625113Y-5840309D01*
X53647057Y-5832457D01*
X53669666Y-5826793D01*
X53692721Y-5823374D01*
X53716000Y-5822230D01*
X54291000Y-5822230D01*
X54314279Y-5823374D01*
X54314279Y-5823374D01*
G37*
D13*
X54003500Y-6297230D03*
D12*
G36*
X56064279Y-5823374D02*
X56087334Y-5826793D01*
X56109943Y-5832457D01*
X56131887Y-5840309D01*
X56152957Y-5850274D01*
X56172948Y-5862256D01*
X56191668Y-5876140D01*
X56208938Y-5891792D01*
X56224590Y-5909062D01*
X56238474Y-5927782D01*
X56250456Y-5947773D01*
X56260421Y-5968843D01*
X56268273Y-5990787D01*
X56273937Y-6013396D01*
X56277356Y-6036451D01*
X56278500Y-6059730D01*
X56278500Y-6534730D01*
X56277356Y-6558009D01*
X56273937Y-6581064D01*
X56268273Y-6603673D01*
X56260421Y-6625617D01*
X56250456Y-6646687D01*
X56238474Y-6666678D01*
X56224590Y-6685398D01*
X56208938Y-6702668D01*
X56191668Y-6718320D01*
X56172948Y-6732204D01*
X56152957Y-6744186D01*
X56131887Y-6754151D01*
X56109943Y-6762003D01*
X56087334Y-6767667D01*
X56064279Y-6771086D01*
X56041000Y-6772230D01*
X55466000Y-6772230D01*
X55442721Y-6771086D01*
X55419666Y-6767667D01*
X55397057Y-6762003D01*
X55375113Y-6754151D01*
X55354043Y-6744186D01*
X55334052Y-6732204D01*
X55315332Y-6718320D01*
X55298062Y-6702668D01*
X55282410Y-6685398D01*
X55268526Y-6666678D01*
X55256544Y-6646687D01*
X55246579Y-6625617D01*
X55238727Y-6603673D01*
X55233063Y-6581064D01*
X55229644Y-6558009D01*
X55228500Y-6534730D01*
X55228500Y-6059730D01*
X55229644Y-6036451D01*
X55233063Y-6013396D01*
X55238727Y-5990787D01*
X55246579Y-5968843D01*
X55256544Y-5947773D01*
X55268526Y-5927782D01*
X55282410Y-5909062D01*
X55298062Y-5891792D01*
X55315332Y-5876140D01*
X55334052Y-5862256D01*
X55354043Y-5850274D01*
X55375113Y-5840309D01*
X55397057Y-5832457D01*
X55419666Y-5826793D01*
X55442721Y-5823374D01*
X55466000Y-5822230D01*
X56041000Y-5822230D01*
X56064279Y-5823374D01*
X56064279Y-5823374D01*
G37*
D13*
X55753500Y-6297230D03*
G04 #@! TD*
D12*
G04 #@! TO.C,R17*
G36*
X78054279Y-15613374D02*
X78077334Y-15616793D01*
X78099943Y-15622457D01*
X78121887Y-15630309D01*
X78142957Y-15640274D01*
X78162948Y-15652256D01*
X78181668Y-15666140D01*
X78198938Y-15681792D01*
X78214590Y-15699062D01*
X78228474Y-15717782D01*
X78240456Y-15737773D01*
X78250421Y-15758843D01*
X78258273Y-15780787D01*
X78263937Y-15803396D01*
X78267356Y-15826451D01*
X78268500Y-15849730D01*
X78268500Y-16324730D01*
X78267356Y-16348009D01*
X78263937Y-16371064D01*
X78258273Y-16393673D01*
X78250421Y-16415617D01*
X78240456Y-16436687D01*
X78228474Y-16456678D01*
X78214590Y-16475398D01*
X78198938Y-16492668D01*
X78181668Y-16508320D01*
X78162948Y-16522204D01*
X78142957Y-16534186D01*
X78121887Y-16544151D01*
X78099943Y-16552003D01*
X78077334Y-16557667D01*
X78054279Y-16561086D01*
X78031000Y-16562230D01*
X77456000Y-16562230D01*
X77432721Y-16561086D01*
X77409666Y-16557667D01*
X77387057Y-16552003D01*
X77365113Y-16544151D01*
X77344043Y-16534186D01*
X77324052Y-16522204D01*
X77305332Y-16508320D01*
X77288062Y-16492668D01*
X77272410Y-16475398D01*
X77258526Y-16456678D01*
X77246544Y-16436687D01*
X77236579Y-16415617D01*
X77228727Y-16393673D01*
X77223063Y-16371064D01*
X77219644Y-16348009D01*
X77218500Y-16324730D01*
X77218500Y-15849730D01*
X77219644Y-15826451D01*
X77223063Y-15803396D01*
X77228727Y-15780787D01*
X77236579Y-15758843D01*
X77246544Y-15737773D01*
X77258526Y-15717782D01*
X77272410Y-15699062D01*
X77288062Y-15681792D01*
X77305332Y-15666140D01*
X77324052Y-15652256D01*
X77344043Y-15640274D01*
X77365113Y-15630309D01*
X77387057Y-15622457D01*
X77409666Y-15616793D01*
X77432721Y-15613374D01*
X77456000Y-15612230D01*
X78031000Y-15612230D01*
X78054279Y-15613374D01*
X78054279Y-15613374D01*
G37*
D13*
X77743500Y-16087230D03*
D12*
G36*
X76304279Y-15613374D02*
X76327334Y-15616793D01*
X76349943Y-15622457D01*
X76371887Y-15630309D01*
X76392957Y-15640274D01*
X76412948Y-15652256D01*
X76431668Y-15666140D01*
X76448938Y-15681792D01*
X76464590Y-15699062D01*
X76478474Y-15717782D01*
X76490456Y-15737773D01*
X76500421Y-15758843D01*
X76508273Y-15780787D01*
X76513937Y-15803396D01*
X76517356Y-15826451D01*
X76518500Y-15849730D01*
X76518500Y-16324730D01*
X76517356Y-16348009D01*
X76513937Y-16371064D01*
X76508273Y-16393673D01*
X76500421Y-16415617D01*
X76490456Y-16436687D01*
X76478474Y-16456678D01*
X76464590Y-16475398D01*
X76448938Y-16492668D01*
X76431668Y-16508320D01*
X76412948Y-16522204D01*
X76392957Y-16534186D01*
X76371887Y-16544151D01*
X76349943Y-16552003D01*
X76327334Y-16557667D01*
X76304279Y-16561086D01*
X76281000Y-16562230D01*
X75706000Y-16562230D01*
X75682721Y-16561086D01*
X75659666Y-16557667D01*
X75637057Y-16552003D01*
X75615113Y-16544151D01*
X75594043Y-16534186D01*
X75574052Y-16522204D01*
X75555332Y-16508320D01*
X75538062Y-16492668D01*
X75522410Y-16475398D01*
X75508526Y-16456678D01*
X75496544Y-16436687D01*
X75486579Y-16415617D01*
X75478727Y-16393673D01*
X75473063Y-16371064D01*
X75469644Y-16348009D01*
X75468500Y-16324730D01*
X75468500Y-15849730D01*
X75469644Y-15826451D01*
X75473063Y-15803396D01*
X75478727Y-15780787D01*
X75486579Y-15758843D01*
X75496544Y-15737773D01*
X75508526Y-15717782D01*
X75522410Y-15699062D01*
X75538062Y-15681792D01*
X75555332Y-15666140D01*
X75574052Y-15652256D01*
X75594043Y-15640274D01*
X75615113Y-15630309D01*
X75637057Y-15622457D01*
X75659666Y-15616793D01*
X75682721Y-15613374D01*
X75706000Y-15612230D01*
X76281000Y-15612230D01*
X76304279Y-15613374D01*
X76304279Y-15613374D01*
G37*
D13*
X75993500Y-16087230D03*
G04 #@! TD*
D12*
G04 #@! TO.C,R1*
G36*
X54314279Y-7703374D02*
X54337334Y-7706793D01*
X54359943Y-7712457D01*
X54381887Y-7720309D01*
X54402957Y-7730274D01*
X54422948Y-7742256D01*
X54441668Y-7756140D01*
X54458938Y-7771792D01*
X54474590Y-7789062D01*
X54488474Y-7807782D01*
X54500456Y-7827773D01*
X54510421Y-7848843D01*
X54518273Y-7870787D01*
X54523937Y-7893396D01*
X54527356Y-7916451D01*
X54528500Y-7939730D01*
X54528500Y-8414730D01*
X54527356Y-8438009D01*
X54523937Y-8461064D01*
X54518273Y-8483673D01*
X54510421Y-8505617D01*
X54500456Y-8526687D01*
X54488474Y-8546678D01*
X54474590Y-8565398D01*
X54458938Y-8582668D01*
X54441668Y-8598320D01*
X54422948Y-8612204D01*
X54402957Y-8624186D01*
X54381887Y-8634151D01*
X54359943Y-8642003D01*
X54337334Y-8647667D01*
X54314279Y-8651086D01*
X54291000Y-8652230D01*
X53716000Y-8652230D01*
X53692721Y-8651086D01*
X53669666Y-8647667D01*
X53647057Y-8642003D01*
X53625113Y-8634151D01*
X53604043Y-8624186D01*
X53584052Y-8612204D01*
X53565332Y-8598320D01*
X53548062Y-8582668D01*
X53532410Y-8565398D01*
X53518526Y-8546678D01*
X53506544Y-8526687D01*
X53496579Y-8505617D01*
X53488727Y-8483673D01*
X53483063Y-8461064D01*
X53479644Y-8438009D01*
X53478500Y-8414730D01*
X53478500Y-7939730D01*
X53479644Y-7916451D01*
X53483063Y-7893396D01*
X53488727Y-7870787D01*
X53496579Y-7848843D01*
X53506544Y-7827773D01*
X53518526Y-7807782D01*
X53532410Y-7789062D01*
X53548062Y-7771792D01*
X53565332Y-7756140D01*
X53584052Y-7742256D01*
X53604043Y-7730274D01*
X53625113Y-7720309D01*
X53647057Y-7712457D01*
X53669666Y-7706793D01*
X53692721Y-7703374D01*
X53716000Y-7702230D01*
X54291000Y-7702230D01*
X54314279Y-7703374D01*
X54314279Y-7703374D01*
G37*
D13*
X54003500Y-8177230D03*
D12*
G36*
X56064279Y-7703374D02*
X56087334Y-7706793D01*
X56109943Y-7712457D01*
X56131887Y-7720309D01*
X56152957Y-7730274D01*
X56172948Y-7742256D01*
X56191668Y-7756140D01*
X56208938Y-7771792D01*
X56224590Y-7789062D01*
X56238474Y-7807782D01*
X56250456Y-7827773D01*
X56260421Y-7848843D01*
X56268273Y-7870787D01*
X56273937Y-7893396D01*
X56277356Y-7916451D01*
X56278500Y-7939730D01*
X56278500Y-8414730D01*
X56277356Y-8438009D01*
X56273937Y-8461064D01*
X56268273Y-8483673D01*
X56260421Y-8505617D01*
X56250456Y-8526687D01*
X56238474Y-8546678D01*
X56224590Y-8565398D01*
X56208938Y-8582668D01*
X56191668Y-8598320D01*
X56172948Y-8612204D01*
X56152957Y-8624186D01*
X56131887Y-8634151D01*
X56109943Y-8642003D01*
X56087334Y-8647667D01*
X56064279Y-8651086D01*
X56041000Y-8652230D01*
X55466000Y-8652230D01*
X55442721Y-8651086D01*
X55419666Y-8647667D01*
X55397057Y-8642003D01*
X55375113Y-8634151D01*
X55354043Y-8624186D01*
X55334052Y-8612204D01*
X55315332Y-8598320D01*
X55298062Y-8582668D01*
X55282410Y-8565398D01*
X55268526Y-8546678D01*
X55256544Y-8526687D01*
X55246579Y-8505617D01*
X55238727Y-8483673D01*
X55233063Y-8461064D01*
X55229644Y-8438009D01*
X55228500Y-8414730D01*
X55228500Y-7939730D01*
X55229644Y-7916451D01*
X55233063Y-7893396D01*
X55238727Y-7870787D01*
X55246579Y-7848843D01*
X55256544Y-7827773D01*
X55268526Y-7807782D01*
X55282410Y-7789062D01*
X55298062Y-7771792D01*
X55315332Y-7756140D01*
X55334052Y-7742256D01*
X55354043Y-7730274D01*
X55375113Y-7720309D01*
X55397057Y-7712457D01*
X55419666Y-7706793D01*
X55442721Y-7703374D01*
X55466000Y-7702230D01*
X56041000Y-7702230D01*
X56064279Y-7703374D01*
X56064279Y-7703374D01*
G37*
D13*
X55753500Y-8177230D03*
G04 #@! TD*
D12*
G04 #@! TO.C,R16*
G36*
X71574279Y-15013374D02*
X71597334Y-15016793D01*
X71619943Y-15022457D01*
X71641887Y-15030309D01*
X71662957Y-15040274D01*
X71682948Y-15052256D01*
X71701668Y-15066140D01*
X71718938Y-15081792D01*
X71734590Y-15099062D01*
X71748474Y-15117782D01*
X71760456Y-15137773D01*
X71770421Y-15158843D01*
X71778273Y-15180787D01*
X71783937Y-15203396D01*
X71787356Y-15226451D01*
X71788500Y-15249730D01*
X71788500Y-15724730D01*
X71787356Y-15748009D01*
X71783937Y-15771064D01*
X71778273Y-15793673D01*
X71770421Y-15815617D01*
X71760456Y-15836687D01*
X71748474Y-15856678D01*
X71734590Y-15875398D01*
X71718938Y-15892668D01*
X71701668Y-15908320D01*
X71682948Y-15922204D01*
X71662957Y-15934186D01*
X71641887Y-15944151D01*
X71619943Y-15952003D01*
X71597334Y-15957667D01*
X71574279Y-15961086D01*
X71551000Y-15962230D01*
X70976000Y-15962230D01*
X70952721Y-15961086D01*
X70929666Y-15957667D01*
X70907057Y-15952003D01*
X70885113Y-15944151D01*
X70864043Y-15934186D01*
X70844052Y-15922204D01*
X70825332Y-15908320D01*
X70808062Y-15892668D01*
X70792410Y-15875398D01*
X70778526Y-15856678D01*
X70766544Y-15836687D01*
X70756579Y-15815617D01*
X70748727Y-15793673D01*
X70743063Y-15771064D01*
X70739644Y-15748009D01*
X70738500Y-15724730D01*
X70738500Y-15249730D01*
X70739644Y-15226451D01*
X70743063Y-15203396D01*
X70748727Y-15180787D01*
X70756579Y-15158843D01*
X70766544Y-15137773D01*
X70778526Y-15117782D01*
X70792410Y-15099062D01*
X70808062Y-15081792D01*
X70825332Y-15066140D01*
X70844052Y-15052256D01*
X70864043Y-15040274D01*
X70885113Y-15030309D01*
X70907057Y-15022457D01*
X70929666Y-15016793D01*
X70952721Y-15013374D01*
X70976000Y-15012230D01*
X71551000Y-15012230D01*
X71574279Y-15013374D01*
X71574279Y-15013374D01*
G37*
D13*
X71263500Y-15487230D03*
D12*
G36*
X73324279Y-15013374D02*
X73347334Y-15016793D01*
X73369943Y-15022457D01*
X73391887Y-15030309D01*
X73412957Y-15040274D01*
X73432948Y-15052256D01*
X73451668Y-15066140D01*
X73468938Y-15081792D01*
X73484590Y-15099062D01*
X73498474Y-15117782D01*
X73510456Y-15137773D01*
X73520421Y-15158843D01*
X73528273Y-15180787D01*
X73533937Y-15203396D01*
X73537356Y-15226451D01*
X73538500Y-15249730D01*
X73538500Y-15724730D01*
X73537356Y-15748009D01*
X73533937Y-15771064D01*
X73528273Y-15793673D01*
X73520421Y-15815617D01*
X73510456Y-15836687D01*
X73498474Y-15856678D01*
X73484590Y-15875398D01*
X73468938Y-15892668D01*
X73451668Y-15908320D01*
X73432948Y-15922204D01*
X73412957Y-15934186D01*
X73391887Y-15944151D01*
X73369943Y-15952003D01*
X73347334Y-15957667D01*
X73324279Y-15961086D01*
X73301000Y-15962230D01*
X72726000Y-15962230D01*
X72702721Y-15961086D01*
X72679666Y-15957667D01*
X72657057Y-15952003D01*
X72635113Y-15944151D01*
X72614043Y-15934186D01*
X72594052Y-15922204D01*
X72575332Y-15908320D01*
X72558062Y-15892668D01*
X72542410Y-15875398D01*
X72528526Y-15856678D01*
X72516544Y-15836687D01*
X72506579Y-15815617D01*
X72498727Y-15793673D01*
X72493063Y-15771064D01*
X72489644Y-15748009D01*
X72488500Y-15724730D01*
X72488500Y-15249730D01*
X72489644Y-15226451D01*
X72493063Y-15203396D01*
X72498727Y-15180787D01*
X72506579Y-15158843D01*
X72516544Y-15137773D01*
X72528526Y-15117782D01*
X72542410Y-15099062D01*
X72558062Y-15081792D01*
X72575332Y-15066140D01*
X72594052Y-15052256D01*
X72614043Y-15040274D01*
X72635113Y-15030309D01*
X72657057Y-15022457D01*
X72679666Y-15016793D01*
X72702721Y-15013374D01*
X72726000Y-15012230D01*
X73301000Y-15012230D01*
X73324279Y-15013374D01*
X73324279Y-15013374D01*
G37*
D13*
X73013500Y-15487230D03*
G04 #@! TD*
D12*
G04 #@! TO.C,R5*
G36*
X52269372Y-116753943D02*
X52292427Y-116757362D01*
X52315036Y-116763026D01*
X52336980Y-116770878D01*
X52358050Y-116780843D01*
X52378041Y-116792825D01*
X52396761Y-116806709D01*
X52414031Y-116822361D01*
X52429683Y-116839631D01*
X52443567Y-116858351D01*
X52455549Y-116878342D01*
X52465514Y-116899412D01*
X52473366Y-116921356D01*
X52479030Y-116943965D01*
X52482449Y-116967020D01*
X52483593Y-116990299D01*
X52483593Y-117465299D01*
X52482449Y-117488578D01*
X52479030Y-117511633D01*
X52473366Y-117534242D01*
X52465514Y-117556186D01*
X52455549Y-117577256D01*
X52443567Y-117597247D01*
X52429683Y-117615967D01*
X52414031Y-117633237D01*
X52396761Y-117648889D01*
X52378041Y-117662773D01*
X52358050Y-117674755D01*
X52336980Y-117684720D01*
X52315036Y-117692572D01*
X52292427Y-117698236D01*
X52269372Y-117701655D01*
X52246093Y-117702799D01*
X51671093Y-117702799D01*
X51647814Y-117701655D01*
X51624759Y-117698236D01*
X51602150Y-117692572D01*
X51580206Y-117684720D01*
X51559136Y-117674755D01*
X51539145Y-117662773D01*
X51520425Y-117648889D01*
X51503155Y-117633237D01*
X51487503Y-117615967D01*
X51473619Y-117597247D01*
X51461637Y-117577256D01*
X51451672Y-117556186D01*
X51443820Y-117534242D01*
X51438156Y-117511633D01*
X51434737Y-117488578D01*
X51433593Y-117465299D01*
X51433593Y-116990299D01*
X51434737Y-116967020D01*
X51438156Y-116943965D01*
X51443820Y-116921356D01*
X51451672Y-116899412D01*
X51461637Y-116878342D01*
X51473619Y-116858351D01*
X51487503Y-116839631D01*
X51503155Y-116822361D01*
X51520425Y-116806709D01*
X51539145Y-116792825D01*
X51559136Y-116780843D01*
X51580206Y-116770878D01*
X51602150Y-116763026D01*
X51624759Y-116757362D01*
X51647814Y-116753943D01*
X51671093Y-116752799D01*
X52246093Y-116752799D01*
X52269372Y-116753943D01*
X52269372Y-116753943D01*
G37*
D13*
X51958593Y-117227799D03*
D12*
G36*
X50519372Y-116753943D02*
X50542427Y-116757362D01*
X50565036Y-116763026D01*
X50586980Y-116770878D01*
X50608050Y-116780843D01*
X50628041Y-116792825D01*
X50646761Y-116806709D01*
X50664031Y-116822361D01*
X50679683Y-116839631D01*
X50693567Y-116858351D01*
X50705549Y-116878342D01*
X50715514Y-116899412D01*
X50723366Y-116921356D01*
X50729030Y-116943965D01*
X50732449Y-116967020D01*
X50733593Y-116990299D01*
X50733593Y-117465299D01*
X50732449Y-117488578D01*
X50729030Y-117511633D01*
X50723366Y-117534242D01*
X50715514Y-117556186D01*
X50705549Y-117577256D01*
X50693567Y-117597247D01*
X50679683Y-117615967D01*
X50664031Y-117633237D01*
X50646761Y-117648889D01*
X50628041Y-117662773D01*
X50608050Y-117674755D01*
X50586980Y-117684720D01*
X50565036Y-117692572D01*
X50542427Y-117698236D01*
X50519372Y-117701655D01*
X50496093Y-117702799D01*
X49921093Y-117702799D01*
X49897814Y-117701655D01*
X49874759Y-117698236D01*
X49852150Y-117692572D01*
X49830206Y-117684720D01*
X49809136Y-117674755D01*
X49789145Y-117662773D01*
X49770425Y-117648889D01*
X49753155Y-117633237D01*
X49737503Y-117615967D01*
X49723619Y-117597247D01*
X49711637Y-117577256D01*
X49701672Y-117556186D01*
X49693820Y-117534242D01*
X49688156Y-117511633D01*
X49684737Y-117488578D01*
X49683593Y-117465299D01*
X49683593Y-116990299D01*
X49684737Y-116967020D01*
X49688156Y-116943965D01*
X49693820Y-116921356D01*
X49701672Y-116899412D01*
X49711637Y-116878342D01*
X49723619Y-116858351D01*
X49737503Y-116839631D01*
X49753155Y-116822361D01*
X49770425Y-116806709D01*
X49789145Y-116792825D01*
X49809136Y-116780843D01*
X49830206Y-116770878D01*
X49852150Y-116763026D01*
X49874759Y-116757362D01*
X49897814Y-116753943D01*
X49921093Y-116752799D01*
X50496093Y-116752799D01*
X50519372Y-116753943D01*
X50519372Y-116753943D01*
G37*
D13*
X50208593Y-117227799D03*
G04 #@! TD*
D12*
G04 #@! TO.C,R15*
G36*
X76604279Y-19013374D02*
X76627334Y-19016793D01*
X76649943Y-19022457D01*
X76671887Y-19030309D01*
X76692957Y-19040274D01*
X76712948Y-19052256D01*
X76731668Y-19066140D01*
X76748938Y-19081792D01*
X76764590Y-19099062D01*
X76778474Y-19117782D01*
X76790456Y-19137773D01*
X76800421Y-19158843D01*
X76808273Y-19180787D01*
X76813937Y-19203396D01*
X76817356Y-19226451D01*
X76818500Y-19249730D01*
X76818500Y-19724730D01*
X76817356Y-19748009D01*
X76813937Y-19771064D01*
X76808273Y-19793673D01*
X76800421Y-19815617D01*
X76790456Y-19836687D01*
X76778474Y-19856678D01*
X76764590Y-19875398D01*
X76748938Y-19892668D01*
X76731668Y-19908320D01*
X76712948Y-19922204D01*
X76692957Y-19934186D01*
X76671887Y-19944151D01*
X76649943Y-19952003D01*
X76627334Y-19957667D01*
X76604279Y-19961086D01*
X76581000Y-19962230D01*
X76006000Y-19962230D01*
X75982721Y-19961086D01*
X75959666Y-19957667D01*
X75937057Y-19952003D01*
X75915113Y-19944151D01*
X75894043Y-19934186D01*
X75874052Y-19922204D01*
X75855332Y-19908320D01*
X75838062Y-19892668D01*
X75822410Y-19875398D01*
X75808526Y-19856678D01*
X75796544Y-19836687D01*
X75786579Y-19815617D01*
X75778727Y-19793673D01*
X75773063Y-19771064D01*
X75769644Y-19748009D01*
X75768500Y-19724730D01*
X75768500Y-19249730D01*
X75769644Y-19226451D01*
X75773063Y-19203396D01*
X75778727Y-19180787D01*
X75786579Y-19158843D01*
X75796544Y-19137773D01*
X75808526Y-19117782D01*
X75822410Y-19099062D01*
X75838062Y-19081792D01*
X75855332Y-19066140D01*
X75874052Y-19052256D01*
X75894043Y-19040274D01*
X75915113Y-19030309D01*
X75937057Y-19022457D01*
X75959666Y-19016793D01*
X75982721Y-19013374D01*
X76006000Y-19012230D01*
X76581000Y-19012230D01*
X76604279Y-19013374D01*
X76604279Y-19013374D01*
G37*
D13*
X76293500Y-19487230D03*
D12*
G36*
X78354279Y-19013374D02*
X78377334Y-19016793D01*
X78399943Y-19022457D01*
X78421887Y-19030309D01*
X78442957Y-19040274D01*
X78462948Y-19052256D01*
X78481668Y-19066140D01*
X78498938Y-19081792D01*
X78514590Y-19099062D01*
X78528474Y-19117782D01*
X78540456Y-19137773D01*
X78550421Y-19158843D01*
X78558273Y-19180787D01*
X78563937Y-19203396D01*
X78567356Y-19226451D01*
X78568500Y-19249730D01*
X78568500Y-19724730D01*
X78567356Y-19748009D01*
X78563937Y-19771064D01*
X78558273Y-19793673D01*
X78550421Y-19815617D01*
X78540456Y-19836687D01*
X78528474Y-19856678D01*
X78514590Y-19875398D01*
X78498938Y-19892668D01*
X78481668Y-19908320D01*
X78462948Y-19922204D01*
X78442957Y-19934186D01*
X78421887Y-19944151D01*
X78399943Y-19952003D01*
X78377334Y-19957667D01*
X78354279Y-19961086D01*
X78331000Y-19962230D01*
X77756000Y-19962230D01*
X77732721Y-19961086D01*
X77709666Y-19957667D01*
X77687057Y-19952003D01*
X77665113Y-19944151D01*
X77644043Y-19934186D01*
X77624052Y-19922204D01*
X77605332Y-19908320D01*
X77588062Y-19892668D01*
X77572410Y-19875398D01*
X77558526Y-19856678D01*
X77546544Y-19836687D01*
X77536579Y-19815617D01*
X77528727Y-19793673D01*
X77523063Y-19771064D01*
X77519644Y-19748009D01*
X77518500Y-19724730D01*
X77518500Y-19249730D01*
X77519644Y-19226451D01*
X77523063Y-19203396D01*
X77528727Y-19180787D01*
X77536579Y-19158843D01*
X77546544Y-19137773D01*
X77558526Y-19117782D01*
X77572410Y-19099062D01*
X77588062Y-19081792D01*
X77605332Y-19066140D01*
X77624052Y-19052256D01*
X77644043Y-19040274D01*
X77665113Y-19030309D01*
X77687057Y-19022457D01*
X77709666Y-19016793D01*
X77732721Y-19013374D01*
X77756000Y-19012230D01*
X78331000Y-19012230D01*
X78354279Y-19013374D01*
X78354279Y-19013374D01*
G37*
D13*
X78043500Y-19487230D03*
G04 #@! TD*
D12*
G04 #@! TO.C,R6*
G36*
X36441779Y-86566144D02*
X36464834Y-86569563D01*
X36487443Y-86575227D01*
X36509387Y-86583079D01*
X36530457Y-86593044D01*
X36550448Y-86605026D01*
X36569168Y-86618910D01*
X36586438Y-86634562D01*
X36602090Y-86651832D01*
X36615974Y-86670552D01*
X36627956Y-86690543D01*
X36637921Y-86711613D01*
X36645773Y-86733557D01*
X36651437Y-86756166D01*
X36654856Y-86779221D01*
X36656000Y-86802500D01*
X36656000Y-87277500D01*
X36654856Y-87300779D01*
X36651437Y-87323834D01*
X36645773Y-87346443D01*
X36637921Y-87368387D01*
X36627956Y-87389457D01*
X36615974Y-87409448D01*
X36602090Y-87428168D01*
X36586438Y-87445438D01*
X36569168Y-87461090D01*
X36550448Y-87474974D01*
X36530457Y-87486956D01*
X36509387Y-87496921D01*
X36487443Y-87504773D01*
X36464834Y-87510437D01*
X36441779Y-87513856D01*
X36418500Y-87515000D01*
X35843500Y-87515000D01*
X35820221Y-87513856D01*
X35797166Y-87510437D01*
X35774557Y-87504773D01*
X35752613Y-87496921D01*
X35731543Y-87486956D01*
X35711552Y-87474974D01*
X35692832Y-87461090D01*
X35675562Y-87445438D01*
X35659910Y-87428168D01*
X35646026Y-87409448D01*
X35634044Y-87389457D01*
X35624079Y-87368387D01*
X35616227Y-87346443D01*
X35610563Y-87323834D01*
X35607144Y-87300779D01*
X35606000Y-87277500D01*
X35606000Y-86802500D01*
X35607144Y-86779221D01*
X35610563Y-86756166D01*
X35616227Y-86733557D01*
X35624079Y-86711613D01*
X35634044Y-86690543D01*
X35646026Y-86670552D01*
X35659910Y-86651832D01*
X35675562Y-86634562D01*
X35692832Y-86618910D01*
X35711552Y-86605026D01*
X35731543Y-86593044D01*
X35752613Y-86583079D01*
X35774557Y-86575227D01*
X35797166Y-86569563D01*
X35820221Y-86566144D01*
X35843500Y-86565000D01*
X36418500Y-86565000D01*
X36441779Y-86566144D01*
X36441779Y-86566144D01*
G37*
D13*
X36131000Y-87040000D03*
D12*
G36*
X38191779Y-86566144D02*
X38214834Y-86569563D01*
X38237443Y-86575227D01*
X38259387Y-86583079D01*
X38280457Y-86593044D01*
X38300448Y-86605026D01*
X38319168Y-86618910D01*
X38336438Y-86634562D01*
X38352090Y-86651832D01*
X38365974Y-86670552D01*
X38377956Y-86690543D01*
X38387921Y-86711613D01*
X38395773Y-86733557D01*
X38401437Y-86756166D01*
X38404856Y-86779221D01*
X38406000Y-86802500D01*
X38406000Y-87277500D01*
X38404856Y-87300779D01*
X38401437Y-87323834D01*
X38395773Y-87346443D01*
X38387921Y-87368387D01*
X38377956Y-87389457D01*
X38365974Y-87409448D01*
X38352090Y-87428168D01*
X38336438Y-87445438D01*
X38319168Y-87461090D01*
X38300448Y-87474974D01*
X38280457Y-87486956D01*
X38259387Y-87496921D01*
X38237443Y-87504773D01*
X38214834Y-87510437D01*
X38191779Y-87513856D01*
X38168500Y-87515000D01*
X37593500Y-87515000D01*
X37570221Y-87513856D01*
X37547166Y-87510437D01*
X37524557Y-87504773D01*
X37502613Y-87496921D01*
X37481543Y-87486956D01*
X37461552Y-87474974D01*
X37442832Y-87461090D01*
X37425562Y-87445438D01*
X37409910Y-87428168D01*
X37396026Y-87409448D01*
X37384044Y-87389457D01*
X37374079Y-87368387D01*
X37366227Y-87346443D01*
X37360563Y-87323834D01*
X37357144Y-87300779D01*
X37356000Y-87277500D01*
X37356000Y-86802500D01*
X37357144Y-86779221D01*
X37360563Y-86756166D01*
X37366227Y-86733557D01*
X37374079Y-86711613D01*
X37384044Y-86690543D01*
X37396026Y-86670552D01*
X37409910Y-86651832D01*
X37425562Y-86634562D01*
X37442832Y-86618910D01*
X37461552Y-86605026D01*
X37481543Y-86593044D01*
X37502613Y-86583079D01*
X37524557Y-86575227D01*
X37547166Y-86569563D01*
X37570221Y-86566144D01*
X37593500Y-86565000D01*
X38168500Y-86565000D01*
X38191779Y-86566144D01*
X38191779Y-86566144D01*
G37*
D13*
X37881000Y-87040000D03*
G04 #@! TD*
D12*
G04 #@! TO.C,R23*
G36*
X5620023Y-25481462D02*
X5643078Y-25484881D01*
X5665687Y-25490545D01*
X5687631Y-25498397D01*
X5708701Y-25508362D01*
X5728692Y-25520344D01*
X5747412Y-25534228D01*
X5764682Y-25549880D01*
X5780334Y-25567150D01*
X5794218Y-25585870D01*
X5806200Y-25605861D01*
X5816165Y-25626931D01*
X5824017Y-25648875D01*
X5829681Y-25671484D01*
X5833100Y-25694539D01*
X5834244Y-25717818D01*
X5834244Y-26292818D01*
X5833100Y-26316097D01*
X5829681Y-26339152D01*
X5824017Y-26361761D01*
X5816165Y-26383705D01*
X5806200Y-26404775D01*
X5794218Y-26424766D01*
X5780334Y-26443486D01*
X5764682Y-26460756D01*
X5747412Y-26476408D01*
X5728692Y-26490292D01*
X5708701Y-26502274D01*
X5687631Y-26512239D01*
X5665687Y-26520091D01*
X5643078Y-26525755D01*
X5620023Y-26529174D01*
X5596744Y-26530318D01*
X5121744Y-26530318D01*
X5098465Y-26529174D01*
X5075410Y-26525755D01*
X5052801Y-26520091D01*
X5030857Y-26512239D01*
X5009787Y-26502274D01*
X4989796Y-26490292D01*
X4971076Y-26476408D01*
X4953806Y-26460756D01*
X4938154Y-26443486D01*
X4924270Y-26424766D01*
X4912288Y-26404775D01*
X4902323Y-26383705D01*
X4894471Y-26361761D01*
X4888807Y-26339152D01*
X4885388Y-26316097D01*
X4884244Y-26292818D01*
X4884244Y-25717818D01*
X4885388Y-25694539D01*
X4888807Y-25671484D01*
X4894471Y-25648875D01*
X4902323Y-25626931D01*
X4912288Y-25605861D01*
X4924270Y-25585870D01*
X4938154Y-25567150D01*
X4953806Y-25549880D01*
X4971076Y-25534228D01*
X4989796Y-25520344D01*
X5009787Y-25508362D01*
X5030857Y-25498397D01*
X5052801Y-25490545D01*
X5075410Y-25484881D01*
X5098465Y-25481462D01*
X5121744Y-25480318D01*
X5596744Y-25480318D01*
X5620023Y-25481462D01*
X5620023Y-25481462D01*
G37*
D13*
X5359244Y-26005318D03*
D12*
G36*
X5620023Y-23731462D02*
X5643078Y-23734881D01*
X5665687Y-23740545D01*
X5687631Y-23748397D01*
X5708701Y-23758362D01*
X5728692Y-23770344D01*
X5747412Y-23784228D01*
X5764682Y-23799880D01*
X5780334Y-23817150D01*
X5794218Y-23835870D01*
X5806200Y-23855861D01*
X5816165Y-23876931D01*
X5824017Y-23898875D01*
X5829681Y-23921484D01*
X5833100Y-23944539D01*
X5834244Y-23967818D01*
X5834244Y-24542818D01*
X5833100Y-24566097D01*
X5829681Y-24589152D01*
X5824017Y-24611761D01*
X5816165Y-24633705D01*
X5806200Y-24654775D01*
X5794218Y-24674766D01*
X5780334Y-24693486D01*
X5764682Y-24710756D01*
X5747412Y-24726408D01*
X5728692Y-24740292D01*
X5708701Y-24752274D01*
X5687631Y-24762239D01*
X5665687Y-24770091D01*
X5643078Y-24775755D01*
X5620023Y-24779174D01*
X5596744Y-24780318D01*
X5121744Y-24780318D01*
X5098465Y-24779174D01*
X5075410Y-24775755D01*
X5052801Y-24770091D01*
X5030857Y-24762239D01*
X5009787Y-24752274D01*
X4989796Y-24740292D01*
X4971076Y-24726408D01*
X4953806Y-24710756D01*
X4938154Y-24693486D01*
X4924270Y-24674766D01*
X4912288Y-24654775D01*
X4902323Y-24633705D01*
X4894471Y-24611761D01*
X4888807Y-24589152D01*
X4885388Y-24566097D01*
X4884244Y-24542818D01*
X4884244Y-23967818D01*
X4885388Y-23944539D01*
X4888807Y-23921484D01*
X4894471Y-23898875D01*
X4902323Y-23876931D01*
X4912288Y-23855861D01*
X4924270Y-23835870D01*
X4938154Y-23817150D01*
X4953806Y-23799880D01*
X4971076Y-23784228D01*
X4989796Y-23770344D01*
X5009787Y-23758362D01*
X5030857Y-23748397D01*
X5052801Y-23740545D01*
X5075410Y-23734881D01*
X5098465Y-23731462D01*
X5121744Y-23730318D01*
X5596744Y-23730318D01*
X5620023Y-23731462D01*
X5620023Y-23731462D01*
G37*
D13*
X5359244Y-24255318D03*
G04 #@! TD*
D12*
G04 #@! TO.C,R24*
G36*
X22044279Y-49113374D02*
X22067334Y-49116793D01*
X22089943Y-49122457D01*
X22111887Y-49130309D01*
X22132957Y-49140274D01*
X22152948Y-49152256D01*
X22171668Y-49166140D01*
X22188938Y-49181792D01*
X22204590Y-49199062D01*
X22218474Y-49217782D01*
X22230456Y-49237773D01*
X22240421Y-49258843D01*
X22248273Y-49280787D01*
X22253937Y-49303396D01*
X22257356Y-49326451D01*
X22258500Y-49349730D01*
X22258500Y-49824730D01*
X22257356Y-49848009D01*
X22253937Y-49871064D01*
X22248273Y-49893673D01*
X22240421Y-49915617D01*
X22230456Y-49936687D01*
X22218474Y-49956678D01*
X22204590Y-49975398D01*
X22188938Y-49992668D01*
X22171668Y-50008320D01*
X22152948Y-50022204D01*
X22132957Y-50034186D01*
X22111887Y-50044151D01*
X22089943Y-50052003D01*
X22067334Y-50057667D01*
X22044279Y-50061086D01*
X22021000Y-50062230D01*
X21446000Y-50062230D01*
X21422721Y-50061086D01*
X21399666Y-50057667D01*
X21377057Y-50052003D01*
X21355113Y-50044151D01*
X21334043Y-50034186D01*
X21314052Y-50022204D01*
X21295332Y-50008320D01*
X21278062Y-49992668D01*
X21262410Y-49975398D01*
X21248526Y-49956678D01*
X21236544Y-49936687D01*
X21226579Y-49915617D01*
X21218727Y-49893673D01*
X21213063Y-49871064D01*
X21209644Y-49848009D01*
X21208500Y-49824730D01*
X21208500Y-49349730D01*
X21209644Y-49326451D01*
X21213063Y-49303396D01*
X21218727Y-49280787D01*
X21226579Y-49258843D01*
X21236544Y-49237773D01*
X21248526Y-49217782D01*
X21262410Y-49199062D01*
X21278062Y-49181792D01*
X21295332Y-49166140D01*
X21314052Y-49152256D01*
X21334043Y-49140274D01*
X21355113Y-49130309D01*
X21377057Y-49122457D01*
X21399666Y-49116793D01*
X21422721Y-49113374D01*
X21446000Y-49112230D01*
X22021000Y-49112230D01*
X22044279Y-49113374D01*
X22044279Y-49113374D01*
G37*
D13*
X21733500Y-49587230D03*
D12*
G36*
X23794279Y-49113374D02*
X23817334Y-49116793D01*
X23839943Y-49122457D01*
X23861887Y-49130309D01*
X23882957Y-49140274D01*
X23902948Y-49152256D01*
X23921668Y-49166140D01*
X23938938Y-49181792D01*
X23954590Y-49199062D01*
X23968474Y-49217782D01*
X23980456Y-49237773D01*
X23990421Y-49258843D01*
X23998273Y-49280787D01*
X24003937Y-49303396D01*
X24007356Y-49326451D01*
X24008500Y-49349730D01*
X24008500Y-49824730D01*
X24007356Y-49848009D01*
X24003937Y-49871064D01*
X23998273Y-49893673D01*
X23990421Y-49915617D01*
X23980456Y-49936687D01*
X23968474Y-49956678D01*
X23954590Y-49975398D01*
X23938938Y-49992668D01*
X23921668Y-50008320D01*
X23902948Y-50022204D01*
X23882957Y-50034186D01*
X23861887Y-50044151D01*
X23839943Y-50052003D01*
X23817334Y-50057667D01*
X23794279Y-50061086D01*
X23771000Y-50062230D01*
X23196000Y-50062230D01*
X23172721Y-50061086D01*
X23149666Y-50057667D01*
X23127057Y-50052003D01*
X23105113Y-50044151D01*
X23084043Y-50034186D01*
X23064052Y-50022204D01*
X23045332Y-50008320D01*
X23028062Y-49992668D01*
X23012410Y-49975398D01*
X22998526Y-49956678D01*
X22986544Y-49936687D01*
X22976579Y-49915617D01*
X22968727Y-49893673D01*
X22963063Y-49871064D01*
X22959644Y-49848009D01*
X22958500Y-49824730D01*
X22958500Y-49349730D01*
X22959644Y-49326451D01*
X22963063Y-49303396D01*
X22968727Y-49280787D01*
X22976579Y-49258843D01*
X22986544Y-49237773D01*
X22998526Y-49217782D01*
X23012410Y-49199062D01*
X23028062Y-49181792D01*
X23045332Y-49166140D01*
X23064052Y-49152256D01*
X23084043Y-49140274D01*
X23105113Y-49130309D01*
X23127057Y-49122457D01*
X23149666Y-49116793D01*
X23172721Y-49113374D01*
X23196000Y-49112230D01*
X23771000Y-49112230D01*
X23794279Y-49113374D01*
X23794279Y-49113374D01*
G37*
D13*
X23483500Y-49587230D03*
G04 #@! TD*
D12*
G04 #@! TO.C,R25*
G36*
X23794279Y-46113374D02*
X23817334Y-46116793D01*
X23839943Y-46122457D01*
X23861887Y-46130309D01*
X23882957Y-46140274D01*
X23902948Y-46152256D01*
X23921668Y-46166140D01*
X23938938Y-46181792D01*
X23954590Y-46199062D01*
X23968474Y-46217782D01*
X23980456Y-46237773D01*
X23990421Y-46258843D01*
X23998273Y-46280787D01*
X24003937Y-46303396D01*
X24007356Y-46326451D01*
X24008500Y-46349730D01*
X24008500Y-46824730D01*
X24007356Y-46848009D01*
X24003937Y-46871064D01*
X23998273Y-46893673D01*
X23990421Y-46915617D01*
X23980456Y-46936687D01*
X23968474Y-46956678D01*
X23954590Y-46975398D01*
X23938938Y-46992668D01*
X23921668Y-47008320D01*
X23902948Y-47022204D01*
X23882957Y-47034186D01*
X23861887Y-47044151D01*
X23839943Y-47052003D01*
X23817334Y-47057667D01*
X23794279Y-47061086D01*
X23771000Y-47062230D01*
X23196000Y-47062230D01*
X23172721Y-47061086D01*
X23149666Y-47057667D01*
X23127057Y-47052003D01*
X23105113Y-47044151D01*
X23084043Y-47034186D01*
X23064052Y-47022204D01*
X23045332Y-47008320D01*
X23028062Y-46992668D01*
X23012410Y-46975398D01*
X22998526Y-46956678D01*
X22986544Y-46936687D01*
X22976579Y-46915617D01*
X22968727Y-46893673D01*
X22963063Y-46871064D01*
X22959644Y-46848009D01*
X22958500Y-46824730D01*
X22958500Y-46349730D01*
X22959644Y-46326451D01*
X22963063Y-46303396D01*
X22968727Y-46280787D01*
X22976579Y-46258843D01*
X22986544Y-46237773D01*
X22998526Y-46217782D01*
X23012410Y-46199062D01*
X23028062Y-46181792D01*
X23045332Y-46166140D01*
X23064052Y-46152256D01*
X23084043Y-46140274D01*
X23105113Y-46130309D01*
X23127057Y-46122457D01*
X23149666Y-46116793D01*
X23172721Y-46113374D01*
X23196000Y-46112230D01*
X23771000Y-46112230D01*
X23794279Y-46113374D01*
X23794279Y-46113374D01*
G37*
D13*
X23483500Y-46587230D03*
D12*
G36*
X22044279Y-46113374D02*
X22067334Y-46116793D01*
X22089943Y-46122457D01*
X22111887Y-46130309D01*
X22132957Y-46140274D01*
X22152948Y-46152256D01*
X22171668Y-46166140D01*
X22188938Y-46181792D01*
X22204590Y-46199062D01*
X22218474Y-46217782D01*
X22230456Y-46237773D01*
X22240421Y-46258843D01*
X22248273Y-46280787D01*
X22253937Y-46303396D01*
X22257356Y-46326451D01*
X22258500Y-46349730D01*
X22258500Y-46824730D01*
X22257356Y-46848009D01*
X22253937Y-46871064D01*
X22248273Y-46893673D01*
X22240421Y-46915617D01*
X22230456Y-46936687D01*
X22218474Y-46956678D01*
X22204590Y-46975398D01*
X22188938Y-46992668D01*
X22171668Y-47008320D01*
X22152948Y-47022204D01*
X22132957Y-47034186D01*
X22111887Y-47044151D01*
X22089943Y-47052003D01*
X22067334Y-47057667D01*
X22044279Y-47061086D01*
X22021000Y-47062230D01*
X21446000Y-47062230D01*
X21422721Y-47061086D01*
X21399666Y-47057667D01*
X21377057Y-47052003D01*
X21355113Y-47044151D01*
X21334043Y-47034186D01*
X21314052Y-47022204D01*
X21295332Y-47008320D01*
X21278062Y-46992668D01*
X21262410Y-46975398D01*
X21248526Y-46956678D01*
X21236544Y-46936687D01*
X21226579Y-46915617D01*
X21218727Y-46893673D01*
X21213063Y-46871064D01*
X21209644Y-46848009D01*
X21208500Y-46824730D01*
X21208500Y-46349730D01*
X21209644Y-46326451D01*
X21213063Y-46303396D01*
X21218727Y-46280787D01*
X21226579Y-46258843D01*
X21236544Y-46237773D01*
X21248526Y-46217782D01*
X21262410Y-46199062D01*
X21278062Y-46181792D01*
X21295332Y-46166140D01*
X21314052Y-46152256D01*
X21334043Y-46140274D01*
X21355113Y-46130309D01*
X21377057Y-46122457D01*
X21399666Y-46116793D01*
X21422721Y-46113374D01*
X21446000Y-46112230D01*
X22021000Y-46112230D01*
X22044279Y-46113374D01*
X22044279Y-46113374D01*
G37*
D13*
X21733500Y-46587230D03*
G04 #@! TD*
D12*
G04 #@! TO.C,R26*
G36*
X19475779Y-83546144D02*
X19498834Y-83549563D01*
X19521443Y-83555227D01*
X19543387Y-83563079D01*
X19564457Y-83573044D01*
X19584448Y-83585026D01*
X19603168Y-83598910D01*
X19620438Y-83614562D01*
X19636090Y-83631832D01*
X19649974Y-83650552D01*
X19661956Y-83670543D01*
X19671921Y-83691613D01*
X19679773Y-83713557D01*
X19685437Y-83736166D01*
X19688856Y-83759221D01*
X19690000Y-83782500D01*
X19690000Y-84257500D01*
X19688856Y-84280779D01*
X19685437Y-84303834D01*
X19679773Y-84326443D01*
X19671921Y-84348387D01*
X19661956Y-84369457D01*
X19649974Y-84389448D01*
X19636090Y-84408168D01*
X19620438Y-84425438D01*
X19603168Y-84441090D01*
X19584448Y-84454974D01*
X19564457Y-84466956D01*
X19543387Y-84476921D01*
X19521443Y-84484773D01*
X19498834Y-84490437D01*
X19475779Y-84493856D01*
X19452500Y-84495000D01*
X18877500Y-84495000D01*
X18854221Y-84493856D01*
X18831166Y-84490437D01*
X18808557Y-84484773D01*
X18786613Y-84476921D01*
X18765543Y-84466956D01*
X18745552Y-84454974D01*
X18726832Y-84441090D01*
X18709562Y-84425438D01*
X18693910Y-84408168D01*
X18680026Y-84389448D01*
X18668044Y-84369457D01*
X18658079Y-84348387D01*
X18650227Y-84326443D01*
X18644563Y-84303834D01*
X18641144Y-84280779D01*
X18640000Y-84257500D01*
X18640000Y-83782500D01*
X18641144Y-83759221D01*
X18644563Y-83736166D01*
X18650227Y-83713557D01*
X18658079Y-83691613D01*
X18668044Y-83670543D01*
X18680026Y-83650552D01*
X18693910Y-83631832D01*
X18709562Y-83614562D01*
X18726832Y-83598910D01*
X18745552Y-83585026D01*
X18765543Y-83573044D01*
X18786613Y-83563079D01*
X18808557Y-83555227D01*
X18831166Y-83549563D01*
X18854221Y-83546144D01*
X18877500Y-83545000D01*
X19452500Y-83545000D01*
X19475779Y-83546144D01*
X19475779Y-83546144D01*
G37*
D13*
X19165000Y-84020000D03*
D12*
G36*
X17725779Y-83546144D02*
X17748834Y-83549563D01*
X17771443Y-83555227D01*
X17793387Y-83563079D01*
X17814457Y-83573044D01*
X17834448Y-83585026D01*
X17853168Y-83598910D01*
X17870438Y-83614562D01*
X17886090Y-83631832D01*
X17899974Y-83650552D01*
X17911956Y-83670543D01*
X17921921Y-83691613D01*
X17929773Y-83713557D01*
X17935437Y-83736166D01*
X17938856Y-83759221D01*
X17940000Y-83782500D01*
X17940000Y-84257500D01*
X17938856Y-84280779D01*
X17935437Y-84303834D01*
X17929773Y-84326443D01*
X17921921Y-84348387D01*
X17911956Y-84369457D01*
X17899974Y-84389448D01*
X17886090Y-84408168D01*
X17870438Y-84425438D01*
X17853168Y-84441090D01*
X17834448Y-84454974D01*
X17814457Y-84466956D01*
X17793387Y-84476921D01*
X17771443Y-84484773D01*
X17748834Y-84490437D01*
X17725779Y-84493856D01*
X17702500Y-84495000D01*
X17127500Y-84495000D01*
X17104221Y-84493856D01*
X17081166Y-84490437D01*
X17058557Y-84484773D01*
X17036613Y-84476921D01*
X17015543Y-84466956D01*
X16995552Y-84454974D01*
X16976832Y-84441090D01*
X16959562Y-84425438D01*
X16943910Y-84408168D01*
X16930026Y-84389448D01*
X16918044Y-84369457D01*
X16908079Y-84348387D01*
X16900227Y-84326443D01*
X16894563Y-84303834D01*
X16891144Y-84280779D01*
X16890000Y-84257500D01*
X16890000Y-83782500D01*
X16891144Y-83759221D01*
X16894563Y-83736166D01*
X16900227Y-83713557D01*
X16908079Y-83691613D01*
X16918044Y-83670543D01*
X16930026Y-83650552D01*
X16943910Y-83631832D01*
X16959562Y-83614562D01*
X16976832Y-83598910D01*
X16995552Y-83585026D01*
X17015543Y-83573044D01*
X17036613Y-83563079D01*
X17058557Y-83555227D01*
X17081166Y-83549563D01*
X17104221Y-83546144D01*
X17127500Y-83545000D01*
X17702500Y-83545000D01*
X17725779Y-83546144D01*
X17725779Y-83546144D01*
G37*
D13*
X17415000Y-84020000D03*
G04 #@! TD*
D12*
G04 #@! TO.C,R27*
G36*
X15635779Y-74716144D02*
X15658834Y-74719563D01*
X15681443Y-74725227D01*
X15703387Y-74733079D01*
X15724457Y-74743044D01*
X15744448Y-74755026D01*
X15763168Y-74768910D01*
X15780438Y-74784562D01*
X15796090Y-74801832D01*
X15809974Y-74820552D01*
X15821956Y-74840543D01*
X15831921Y-74861613D01*
X15839773Y-74883557D01*
X15845437Y-74906166D01*
X15848856Y-74929221D01*
X15850000Y-74952500D01*
X15850000Y-75427500D01*
X15848856Y-75450779D01*
X15845437Y-75473834D01*
X15839773Y-75496443D01*
X15831921Y-75518387D01*
X15821956Y-75539457D01*
X15809974Y-75559448D01*
X15796090Y-75578168D01*
X15780438Y-75595438D01*
X15763168Y-75611090D01*
X15744448Y-75624974D01*
X15724457Y-75636956D01*
X15703387Y-75646921D01*
X15681443Y-75654773D01*
X15658834Y-75660437D01*
X15635779Y-75663856D01*
X15612500Y-75665000D01*
X15037500Y-75665000D01*
X15014221Y-75663856D01*
X14991166Y-75660437D01*
X14968557Y-75654773D01*
X14946613Y-75646921D01*
X14925543Y-75636956D01*
X14905552Y-75624974D01*
X14886832Y-75611090D01*
X14869562Y-75595438D01*
X14853910Y-75578168D01*
X14840026Y-75559448D01*
X14828044Y-75539457D01*
X14818079Y-75518387D01*
X14810227Y-75496443D01*
X14804563Y-75473834D01*
X14801144Y-75450779D01*
X14800000Y-75427500D01*
X14800000Y-74952500D01*
X14801144Y-74929221D01*
X14804563Y-74906166D01*
X14810227Y-74883557D01*
X14818079Y-74861613D01*
X14828044Y-74840543D01*
X14840026Y-74820552D01*
X14853910Y-74801832D01*
X14869562Y-74784562D01*
X14886832Y-74768910D01*
X14905552Y-74755026D01*
X14925543Y-74743044D01*
X14946613Y-74733079D01*
X14968557Y-74725227D01*
X14991166Y-74719563D01*
X15014221Y-74716144D01*
X15037500Y-74715000D01*
X15612500Y-74715000D01*
X15635779Y-74716144D01*
X15635779Y-74716144D01*
G37*
D13*
X15325000Y-75190000D03*
D12*
G36*
X13885779Y-74716144D02*
X13908834Y-74719563D01*
X13931443Y-74725227D01*
X13953387Y-74733079D01*
X13974457Y-74743044D01*
X13994448Y-74755026D01*
X14013168Y-74768910D01*
X14030438Y-74784562D01*
X14046090Y-74801832D01*
X14059974Y-74820552D01*
X14071956Y-74840543D01*
X14081921Y-74861613D01*
X14089773Y-74883557D01*
X14095437Y-74906166D01*
X14098856Y-74929221D01*
X14100000Y-74952500D01*
X14100000Y-75427500D01*
X14098856Y-75450779D01*
X14095437Y-75473834D01*
X14089773Y-75496443D01*
X14081921Y-75518387D01*
X14071956Y-75539457D01*
X14059974Y-75559448D01*
X14046090Y-75578168D01*
X14030438Y-75595438D01*
X14013168Y-75611090D01*
X13994448Y-75624974D01*
X13974457Y-75636956D01*
X13953387Y-75646921D01*
X13931443Y-75654773D01*
X13908834Y-75660437D01*
X13885779Y-75663856D01*
X13862500Y-75665000D01*
X13287500Y-75665000D01*
X13264221Y-75663856D01*
X13241166Y-75660437D01*
X13218557Y-75654773D01*
X13196613Y-75646921D01*
X13175543Y-75636956D01*
X13155552Y-75624974D01*
X13136832Y-75611090D01*
X13119562Y-75595438D01*
X13103910Y-75578168D01*
X13090026Y-75559448D01*
X13078044Y-75539457D01*
X13068079Y-75518387D01*
X13060227Y-75496443D01*
X13054563Y-75473834D01*
X13051144Y-75450779D01*
X13050000Y-75427500D01*
X13050000Y-74952500D01*
X13051144Y-74929221D01*
X13054563Y-74906166D01*
X13060227Y-74883557D01*
X13068079Y-74861613D01*
X13078044Y-74840543D01*
X13090026Y-74820552D01*
X13103910Y-74801832D01*
X13119562Y-74784562D01*
X13136832Y-74768910D01*
X13155552Y-74755026D01*
X13175543Y-74743044D01*
X13196613Y-74733079D01*
X13218557Y-74725227D01*
X13241166Y-74719563D01*
X13264221Y-74716144D01*
X13287500Y-74715000D01*
X13862500Y-74715000D01*
X13885779Y-74716144D01*
X13885779Y-74716144D01*
G37*
D13*
X13575000Y-75190000D03*
G04 #@! TD*
D12*
G04 #@! TO.C,R22*
G36*
X15768549Y-43726144D02*
X15791604Y-43729563D01*
X15814213Y-43735227D01*
X15836157Y-43743079D01*
X15857227Y-43753044D01*
X15877218Y-43765026D01*
X15895938Y-43778910D01*
X15913208Y-43794562D01*
X15928860Y-43811832D01*
X15942744Y-43830552D01*
X15954726Y-43850543D01*
X15964691Y-43871613D01*
X15972543Y-43893557D01*
X15978207Y-43916166D01*
X15981626Y-43939221D01*
X15982770Y-43962500D01*
X15982770Y-44437500D01*
X15981626Y-44460779D01*
X15978207Y-44483834D01*
X15972543Y-44506443D01*
X15964691Y-44528387D01*
X15954726Y-44549457D01*
X15942744Y-44569448D01*
X15928860Y-44588168D01*
X15913208Y-44605438D01*
X15895938Y-44621090D01*
X15877218Y-44634974D01*
X15857227Y-44646956D01*
X15836157Y-44656921D01*
X15814213Y-44664773D01*
X15791604Y-44670437D01*
X15768549Y-44673856D01*
X15745270Y-44675000D01*
X15170270Y-44675000D01*
X15146991Y-44673856D01*
X15123936Y-44670437D01*
X15101327Y-44664773D01*
X15079383Y-44656921D01*
X15058313Y-44646956D01*
X15038322Y-44634974D01*
X15019602Y-44621090D01*
X15002332Y-44605438D01*
X14986680Y-44588168D01*
X14972796Y-44569448D01*
X14960814Y-44549457D01*
X14950849Y-44528387D01*
X14942997Y-44506443D01*
X14937333Y-44483834D01*
X14933914Y-44460779D01*
X14932770Y-44437500D01*
X14932770Y-43962500D01*
X14933914Y-43939221D01*
X14937333Y-43916166D01*
X14942997Y-43893557D01*
X14950849Y-43871613D01*
X14960814Y-43850543D01*
X14972796Y-43830552D01*
X14986680Y-43811832D01*
X15002332Y-43794562D01*
X15019602Y-43778910D01*
X15038322Y-43765026D01*
X15058313Y-43753044D01*
X15079383Y-43743079D01*
X15101327Y-43735227D01*
X15123936Y-43729563D01*
X15146991Y-43726144D01*
X15170270Y-43725000D01*
X15745270Y-43725000D01*
X15768549Y-43726144D01*
X15768549Y-43726144D01*
G37*
D13*
X15457770Y-44200000D03*
D12*
G36*
X17518549Y-43726144D02*
X17541604Y-43729563D01*
X17564213Y-43735227D01*
X17586157Y-43743079D01*
X17607227Y-43753044D01*
X17627218Y-43765026D01*
X17645938Y-43778910D01*
X17663208Y-43794562D01*
X17678860Y-43811832D01*
X17692744Y-43830552D01*
X17704726Y-43850543D01*
X17714691Y-43871613D01*
X17722543Y-43893557D01*
X17728207Y-43916166D01*
X17731626Y-43939221D01*
X17732770Y-43962500D01*
X17732770Y-44437500D01*
X17731626Y-44460779D01*
X17728207Y-44483834D01*
X17722543Y-44506443D01*
X17714691Y-44528387D01*
X17704726Y-44549457D01*
X17692744Y-44569448D01*
X17678860Y-44588168D01*
X17663208Y-44605438D01*
X17645938Y-44621090D01*
X17627218Y-44634974D01*
X17607227Y-44646956D01*
X17586157Y-44656921D01*
X17564213Y-44664773D01*
X17541604Y-44670437D01*
X17518549Y-44673856D01*
X17495270Y-44675000D01*
X16920270Y-44675000D01*
X16896991Y-44673856D01*
X16873936Y-44670437D01*
X16851327Y-44664773D01*
X16829383Y-44656921D01*
X16808313Y-44646956D01*
X16788322Y-44634974D01*
X16769602Y-44621090D01*
X16752332Y-44605438D01*
X16736680Y-44588168D01*
X16722796Y-44569448D01*
X16710814Y-44549457D01*
X16700849Y-44528387D01*
X16692997Y-44506443D01*
X16687333Y-44483834D01*
X16683914Y-44460779D01*
X16682770Y-44437500D01*
X16682770Y-43962500D01*
X16683914Y-43939221D01*
X16687333Y-43916166D01*
X16692997Y-43893557D01*
X16700849Y-43871613D01*
X16710814Y-43850543D01*
X16722796Y-43830552D01*
X16736680Y-43811832D01*
X16752332Y-43794562D01*
X16769602Y-43778910D01*
X16788322Y-43765026D01*
X16808313Y-43753044D01*
X16829383Y-43743079D01*
X16851327Y-43735227D01*
X16873936Y-43729563D01*
X16896991Y-43726144D01*
X16920270Y-43725000D01*
X17495270Y-43725000D01*
X17518549Y-43726144D01*
X17518549Y-43726144D01*
G37*
D13*
X17207770Y-44200000D03*
G04 #@! TD*
D12*
G04 #@! TO.C,R21*
G36*
X12033770Y-25481462D02*
X12056825Y-25484881D01*
X12079434Y-25490545D01*
X12101378Y-25498397D01*
X12122448Y-25508362D01*
X12142439Y-25520344D01*
X12161159Y-25534228D01*
X12178429Y-25549880D01*
X12194081Y-25567150D01*
X12207965Y-25585870D01*
X12219947Y-25605861D01*
X12229912Y-25626931D01*
X12237764Y-25648875D01*
X12243428Y-25671484D01*
X12246847Y-25694539D01*
X12247991Y-25717818D01*
X12247991Y-26292818D01*
X12246847Y-26316097D01*
X12243428Y-26339152D01*
X12237764Y-26361761D01*
X12229912Y-26383705D01*
X12219947Y-26404775D01*
X12207965Y-26424766D01*
X12194081Y-26443486D01*
X12178429Y-26460756D01*
X12161159Y-26476408D01*
X12142439Y-26490292D01*
X12122448Y-26502274D01*
X12101378Y-26512239D01*
X12079434Y-26520091D01*
X12056825Y-26525755D01*
X12033770Y-26529174D01*
X12010491Y-26530318D01*
X11535491Y-26530318D01*
X11512212Y-26529174D01*
X11489157Y-26525755D01*
X11466548Y-26520091D01*
X11444604Y-26512239D01*
X11423534Y-26502274D01*
X11403543Y-26490292D01*
X11384823Y-26476408D01*
X11367553Y-26460756D01*
X11351901Y-26443486D01*
X11338017Y-26424766D01*
X11326035Y-26404775D01*
X11316070Y-26383705D01*
X11308218Y-26361761D01*
X11302554Y-26339152D01*
X11299135Y-26316097D01*
X11297991Y-26292818D01*
X11297991Y-25717818D01*
X11299135Y-25694539D01*
X11302554Y-25671484D01*
X11308218Y-25648875D01*
X11316070Y-25626931D01*
X11326035Y-25605861D01*
X11338017Y-25585870D01*
X11351901Y-25567150D01*
X11367553Y-25549880D01*
X11384823Y-25534228D01*
X11403543Y-25520344D01*
X11423534Y-25508362D01*
X11444604Y-25498397D01*
X11466548Y-25490545D01*
X11489157Y-25484881D01*
X11512212Y-25481462D01*
X11535491Y-25480318D01*
X12010491Y-25480318D01*
X12033770Y-25481462D01*
X12033770Y-25481462D01*
G37*
D13*
X11772991Y-26005318D03*
D12*
G36*
X12033770Y-23731462D02*
X12056825Y-23734881D01*
X12079434Y-23740545D01*
X12101378Y-23748397D01*
X12122448Y-23758362D01*
X12142439Y-23770344D01*
X12161159Y-23784228D01*
X12178429Y-23799880D01*
X12194081Y-23817150D01*
X12207965Y-23835870D01*
X12219947Y-23855861D01*
X12229912Y-23876931D01*
X12237764Y-23898875D01*
X12243428Y-23921484D01*
X12246847Y-23944539D01*
X12247991Y-23967818D01*
X12247991Y-24542818D01*
X12246847Y-24566097D01*
X12243428Y-24589152D01*
X12237764Y-24611761D01*
X12229912Y-24633705D01*
X12219947Y-24654775D01*
X12207965Y-24674766D01*
X12194081Y-24693486D01*
X12178429Y-24710756D01*
X12161159Y-24726408D01*
X12142439Y-24740292D01*
X12122448Y-24752274D01*
X12101378Y-24762239D01*
X12079434Y-24770091D01*
X12056825Y-24775755D01*
X12033770Y-24779174D01*
X12010491Y-24780318D01*
X11535491Y-24780318D01*
X11512212Y-24779174D01*
X11489157Y-24775755D01*
X11466548Y-24770091D01*
X11444604Y-24762239D01*
X11423534Y-24752274D01*
X11403543Y-24740292D01*
X11384823Y-24726408D01*
X11367553Y-24710756D01*
X11351901Y-24693486D01*
X11338017Y-24674766D01*
X11326035Y-24654775D01*
X11316070Y-24633705D01*
X11308218Y-24611761D01*
X11302554Y-24589152D01*
X11299135Y-24566097D01*
X11297991Y-24542818D01*
X11297991Y-23967818D01*
X11299135Y-23944539D01*
X11302554Y-23921484D01*
X11308218Y-23898875D01*
X11316070Y-23876931D01*
X11326035Y-23855861D01*
X11338017Y-23835870D01*
X11351901Y-23817150D01*
X11367553Y-23799880D01*
X11384823Y-23784228D01*
X11403543Y-23770344D01*
X11423534Y-23758362D01*
X11444604Y-23748397D01*
X11466548Y-23740545D01*
X11489157Y-23734881D01*
X11512212Y-23731462D01*
X11535491Y-23730318D01*
X12010491Y-23730318D01*
X12033770Y-23731462D01*
X12033770Y-23731462D01*
G37*
D13*
X11772991Y-24255318D03*
G04 #@! TD*
D12*
G04 #@! TO.C,R9*
G36*
X41571779Y-111536144D02*
X41594834Y-111539563D01*
X41617443Y-111545227D01*
X41639387Y-111553079D01*
X41660457Y-111563044D01*
X41680448Y-111575026D01*
X41699168Y-111588910D01*
X41716438Y-111604562D01*
X41732090Y-111621832D01*
X41745974Y-111640552D01*
X41757956Y-111660543D01*
X41767921Y-111681613D01*
X41775773Y-111703557D01*
X41781437Y-111726166D01*
X41784856Y-111749221D01*
X41786000Y-111772500D01*
X41786000Y-112247500D01*
X41784856Y-112270779D01*
X41781437Y-112293834D01*
X41775773Y-112316443D01*
X41767921Y-112338387D01*
X41757956Y-112359457D01*
X41745974Y-112379448D01*
X41732090Y-112398168D01*
X41716438Y-112415438D01*
X41699168Y-112431090D01*
X41680448Y-112444974D01*
X41660457Y-112456956D01*
X41639387Y-112466921D01*
X41617443Y-112474773D01*
X41594834Y-112480437D01*
X41571779Y-112483856D01*
X41548500Y-112485000D01*
X40973500Y-112485000D01*
X40950221Y-112483856D01*
X40927166Y-112480437D01*
X40904557Y-112474773D01*
X40882613Y-112466921D01*
X40861543Y-112456956D01*
X40841552Y-112444974D01*
X40822832Y-112431090D01*
X40805562Y-112415438D01*
X40789910Y-112398168D01*
X40776026Y-112379448D01*
X40764044Y-112359457D01*
X40754079Y-112338387D01*
X40746227Y-112316443D01*
X40740563Y-112293834D01*
X40737144Y-112270779D01*
X40736000Y-112247500D01*
X40736000Y-111772500D01*
X40737144Y-111749221D01*
X40740563Y-111726166D01*
X40746227Y-111703557D01*
X40754079Y-111681613D01*
X40764044Y-111660543D01*
X40776026Y-111640552D01*
X40789910Y-111621832D01*
X40805562Y-111604562D01*
X40822832Y-111588910D01*
X40841552Y-111575026D01*
X40861543Y-111563044D01*
X40882613Y-111553079D01*
X40904557Y-111545227D01*
X40927166Y-111539563D01*
X40950221Y-111536144D01*
X40973500Y-111535000D01*
X41548500Y-111535000D01*
X41571779Y-111536144D01*
X41571779Y-111536144D01*
G37*
D13*
X41261000Y-112010000D03*
D12*
G36*
X43321779Y-111536144D02*
X43344834Y-111539563D01*
X43367443Y-111545227D01*
X43389387Y-111553079D01*
X43410457Y-111563044D01*
X43430448Y-111575026D01*
X43449168Y-111588910D01*
X43466438Y-111604562D01*
X43482090Y-111621832D01*
X43495974Y-111640552D01*
X43507956Y-111660543D01*
X43517921Y-111681613D01*
X43525773Y-111703557D01*
X43531437Y-111726166D01*
X43534856Y-111749221D01*
X43536000Y-111772500D01*
X43536000Y-112247500D01*
X43534856Y-112270779D01*
X43531437Y-112293834D01*
X43525773Y-112316443D01*
X43517921Y-112338387D01*
X43507956Y-112359457D01*
X43495974Y-112379448D01*
X43482090Y-112398168D01*
X43466438Y-112415438D01*
X43449168Y-112431090D01*
X43430448Y-112444974D01*
X43410457Y-112456956D01*
X43389387Y-112466921D01*
X43367443Y-112474773D01*
X43344834Y-112480437D01*
X43321779Y-112483856D01*
X43298500Y-112485000D01*
X42723500Y-112485000D01*
X42700221Y-112483856D01*
X42677166Y-112480437D01*
X42654557Y-112474773D01*
X42632613Y-112466921D01*
X42611543Y-112456956D01*
X42591552Y-112444974D01*
X42572832Y-112431090D01*
X42555562Y-112415438D01*
X42539910Y-112398168D01*
X42526026Y-112379448D01*
X42514044Y-112359457D01*
X42504079Y-112338387D01*
X42496227Y-112316443D01*
X42490563Y-112293834D01*
X42487144Y-112270779D01*
X42486000Y-112247500D01*
X42486000Y-111772500D01*
X42487144Y-111749221D01*
X42490563Y-111726166D01*
X42496227Y-111703557D01*
X42504079Y-111681613D01*
X42514044Y-111660543D01*
X42526026Y-111640552D01*
X42539910Y-111621832D01*
X42555562Y-111604562D01*
X42572832Y-111588910D01*
X42591552Y-111575026D01*
X42611543Y-111563044D01*
X42632613Y-111553079D01*
X42654557Y-111545227D01*
X42677166Y-111539563D01*
X42700221Y-111536144D01*
X42723500Y-111535000D01*
X43298500Y-111535000D01*
X43321779Y-111536144D01*
X43321779Y-111536144D01*
G37*
D13*
X43011000Y-112010000D03*
G04 #@! TD*
D12*
G04 #@! TO.C,R10*
G36*
X26331779Y-87186144D02*
X26354834Y-87189563D01*
X26377443Y-87195227D01*
X26399387Y-87203079D01*
X26420457Y-87213044D01*
X26440448Y-87225026D01*
X26459168Y-87238910D01*
X26476438Y-87254562D01*
X26492090Y-87271832D01*
X26505974Y-87290552D01*
X26517956Y-87310543D01*
X26527921Y-87331613D01*
X26535773Y-87353557D01*
X26541437Y-87376166D01*
X26544856Y-87399221D01*
X26546000Y-87422500D01*
X26546000Y-87897500D01*
X26544856Y-87920779D01*
X26541437Y-87943834D01*
X26535773Y-87966443D01*
X26527921Y-87988387D01*
X26517956Y-88009457D01*
X26505974Y-88029448D01*
X26492090Y-88048168D01*
X26476438Y-88065438D01*
X26459168Y-88081090D01*
X26440448Y-88094974D01*
X26420457Y-88106956D01*
X26399387Y-88116921D01*
X26377443Y-88124773D01*
X26354834Y-88130437D01*
X26331779Y-88133856D01*
X26308500Y-88135000D01*
X25733500Y-88135000D01*
X25710221Y-88133856D01*
X25687166Y-88130437D01*
X25664557Y-88124773D01*
X25642613Y-88116921D01*
X25621543Y-88106956D01*
X25601552Y-88094974D01*
X25582832Y-88081090D01*
X25565562Y-88065438D01*
X25549910Y-88048168D01*
X25536026Y-88029448D01*
X25524044Y-88009457D01*
X25514079Y-87988387D01*
X25506227Y-87966443D01*
X25500563Y-87943834D01*
X25497144Y-87920779D01*
X25496000Y-87897500D01*
X25496000Y-87422500D01*
X25497144Y-87399221D01*
X25500563Y-87376166D01*
X25506227Y-87353557D01*
X25514079Y-87331613D01*
X25524044Y-87310543D01*
X25536026Y-87290552D01*
X25549910Y-87271832D01*
X25565562Y-87254562D01*
X25582832Y-87238910D01*
X25601552Y-87225026D01*
X25621543Y-87213044D01*
X25642613Y-87203079D01*
X25664557Y-87195227D01*
X25687166Y-87189563D01*
X25710221Y-87186144D01*
X25733500Y-87185000D01*
X26308500Y-87185000D01*
X26331779Y-87186144D01*
X26331779Y-87186144D01*
G37*
D13*
X26021000Y-87660000D03*
D12*
G36*
X28081779Y-87186144D02*
X28104834Y-87189563D01*
X28127443Y-87195227D01*
X28149387Y-87203079D01*
X28170457Y-87213044D01*
X28190448Y-87225026D01*
X28209168Y-87238910D01*
X28226438Y-87254562D01*
X28242090Y-87271832D01*
X28255974Y-87290552D01*
X28267956Y-87310543D01*
X28277921Y-87331613D01*
X28285773Y-87353557D01*
X28291437Y-87376166D01*
X28294856Y-87399221D01*
X28296000Y-87422500D01*
X28296000Y-87897500D01*
X28294856Y-87920779D01*
X28291437Y-87943834D01*
X28285773Y-87966443D01*
X28277921Y-87988387D01*
X28267956Y-88009457D01*
X28255974Y-88029448D01*
X28242090Y-88048168D01*
X28226438Y-88065438D01*
X28209168Y-88081090D01*
X28190448Y-88094974D01*
X28170457Y-88106956D01*
X28149387Y-88116921D01*
X28127443Y-88124773D01*
X28104834Y-88130437D01*
X28081779Y-88133856D01*
X28058500Y-88135000D01*
X27483500Y-88135000D01*
X27460221Y-88133856D01*
X27437166Y-88130437D01*
X27414557Y-88124773D01*
X27392613Y-88116921D01*
X27371543Y-88106956D01*
X27351552Y-88094974D01*
X27332832Y-88081090D01*
X27315562Y-88065438D01*
X27299910Y-88048168D01*
X27286026Y-88029448D01*
X27274044Y-88009457D01*
X27264079Y-87988387D01*
X27256227Y-87966443D01*
X27250563Y-87943834D01*
X27247144Y-87920779D01*
X27246000Y-87897500D01*
X27246000Y-87422500D01*
X27247144Y-87399221D01*
X27250563Y-87376166D01*
X27256227Y-87353557D01*
X27264079Y-87331613D01*
X27274044Y-87310543D01*
X27286026Y-87290552D01*
X27299910Y-87271832D01*
X27315562Y-87254562D01*
X27332832Y-87238910D01*
X27351552Y-87225026D01*
X27371543Y-87213044D01*
X27392613Y-87203079D01*
X27414557Y-87195227D01*
X27437166Y-87189563D01*
X27460221Y-87186144D01*
X27483500Y-87185000D01*
X28058500Y-87185000D01*
X28081779Y-87186144D01*
X28081779Y-87186144D01*
G37*
D13*
X27771000Y-87660000D03*
G04 #@! TD*
D12*
G04 #@! TO.C,R11*
G36*
X52692307Y-103398644D02*
X52715362Y-103402063D01*
X52737971Y-103407727D01*
X52759915Y-103415579D01*
X52780985Y-103425544D01*
X52800976Y-103437526D01*
X52819696Y-103451410D01*
X52836966Y-103467062D01*
X52852618Y-103484332D01*
X52866502Y-103503052D01*
X52878484Y-103523043D01*
X52888449Y-103544113D01*
X52896301Y-103566057D01*
X52901965Y-103588666D01*
X52905384Y-103611721D01*
X52906528Y-103635000D01*
X52906528Y-104110000D01*
X52905384Y-104133279D01*
X52901965Y-104156334D01*
X52896301Y-104178943D01*
X52888449Y-104200887D01*
X52878484Y-104221957D01*
X52866502Y-104241948D01*
X52852618Y-104260668D01*
X52836966Y-104277938D01*
X52819696Y-104293590D01*
X52800976Y-104307474D01*
X52780985Y-104319456D01*
X52759915Y-104329421D01*
X52737971Y-104337273D01*
X52715362Y-104342937D01*
X52692307Y-104346356D01*
X52669028Y-104347500D01*
X52094028Y-104347500D01*
X52070749Y-104346356D01*
X52047694Y-104342937D01*
X52025085Y-104337273D01*
X52003141Y-104329421D01*
X51982071Y-104319456D01*
X51962080Y-104307474D01*
X51943360Y-104293590D01*
X51926090Y-104277938D01*
X51910438Y-104260668D01*
X51896554Y-104241948D01*
X51884572Y-104221957D01*
X51874607Y-104200887D01*
X51866755Y-104178943D01*
X51861091Y-104156334D01*
X51857672Y-104133279D01*
X51856528Y-104110000D01*
X51856528Y-103635000D01*
X51857672Y-103611721D01*
X51861091Y-103588666D01*
X51866755Y-103566057D01*
X51874607Y-103544113D01*
X51884572Y-103523043D01*
X51896554Y-103503052D01*
X51910438Y-103484332D01*
X51926090Y-103467062D01*
X51943360Y-103451410D01*
X51962080Y-103437526D01*
X51982071Y-103425544D01*
X52003141Y-103415579D01*
X52025085Y-103407727D01*
X52047694Y-103402063D01*
X52070749Y-103398644D01*
X52094028Y-103397500D01*
X52669028Y-103397500D01*
X52692307Y-103398644D01*
X52692307Y-103398644D01*
G37*
D13*
X52381528Y-103872500D03*
D12*
G36*
X50942307Y-103398644D02*
X50965362Y-103402063D01*
X50987971Y-103407727D01*
X51009915Y-103415579D01*
X51030985Y-103425544D01*
X51050976Y-103437526D01*
X51069696Y-103451410D01*
X51086966Y-103467062D01*
X51102618Y-103484332D01*
X51116502Y-103503052D01*
X51128484Y-103523043D01*
X51138449Y-103544113D01*
X51146301Y-103566057D01*
X51151965Y-103588666D01*
X51155384Y-103611721D01*
X51156528Y-103635000D01*
X51156528Y-104110000D01*
X51155384Y-104133279D01*
X51151965Y-104156334D01*
X51146301Y-104178943D01*
X51138449Y-104200887D01*
X51128484Y-104221957D01*
X51116502Y-104241948D01*
X51102618Y-104260668D01*
X51086966Y-104277938D01*
X51069696Y-104293590D01*
X51050976Y-104307474D01*
X51030985Y-104319456D01*
X51009915Y-104329421D01*
X50987971Y-104337273D01*
X50965362Y-104342937D01*
X50942307Y-104346356D01*
X50919028Y-104347500D01*
X50344028Y-104347500D01*
X50320749Y-104346356D01*
X50297694Y-104342937D01*
X50275085Y-104337273D01*
X50253141Y-104329421D01*
X50232071Y-104319456D01*
X50212080Y-104307474D01*
X50193360Y-104293590D01*
X50176090Y-104277938D01*
X50160438Y-104260668D01*
X50146554Y-104241948D01*
X50134572Y-104221957D01*
X50124607Y-104200887D01*
X50116755Y-104178943D01*
X50111091Y-104156334D01*
X50107672Y-104133279D01*
X50106528Y-104110000D01*
X50106528Y-103635000D01*
X50107672Y-103611721D01*
X50111091Y-103588666D01*
X50116755Y-103566057D01*
X50124607Y-103544113D01*
X50134572Y-103523043D01*
X50146554Y-103503052D01*
X50160438Y-103484332D01*
X50176090Y-103467062D01*
X50193360Y-103451410D01*
X50212080Y-103437526D01*
X50232071Y-103425544D01*
X50253141Y-103415579D01*
X50275085Y-103407727D01*
X50297694Y-103402063D01*
X50320749Y-103398644D01*
X50344028Y-103397500D01*
X50919028Y-103397500D01*
X50942307Y-103398644D01*
X50942307Y-103398644D01*
G37*
D13*
X50631528Y-103872500D03*
G04 #@! TD*
D12*
G04 #@! TO.C,R12*
G36*
X48392307Y-99498645D02*
X48415362Y-99502064D01*
X48437971Y-99507728D01*
X48459915Y-99515580D01*
X48480985Y-99525545D01*
X48500976Y-99537527D01*
X48519696Y-99551411D01*
X48536966Y-99567063D01*
X48552618Y-99584333D01*
X48566502Y-99603053D01*
X48578484Y-99623044D01*
X48588449Y-99644114D01*
X48596301Y-99666058D01*
X48601965Y-99688667D01*
X48605384Y-99711722D01*
X48606528Y-99735001D01*
X48606528Y-100210001D01*
X48605384Y-100233280D01*
X48601965Y-100256335D01*
X48596301Y-100278944D01*
X48588449Y-100300888D01*
X48578484Y-100321958D01*
X48566502Y-100341949D01*
X48552618Y-100360669D01*
X48536966Y-100377939D01*
X48519696Y-100393591D01*
X48500976Y-100407475D01*
X48480985Y-100419457D01*
X48459915Y-100429422D01*
X48437971Y-100437274D01*
X48415362Y-100442938D01*
X48392307Y-100446357D01*
X48369028Y-100447501D01*
X47794028Y-100447501D01*
X47770749Y-100446357D01*
X47747694Y-100442938D01*
X47725085Y-100437274D01*
X47703141Y-100429422D01*
X47682071Y-100419457D01*
X47662080Y-100407475D01*
X47643360Y-100393591D01*
X47626090Y-100377939D01*
X47610438Y-100360669D01*
X47596554Y-100341949D01*
X47584572Y-100321958D01*
X47574607Y-100300888D01*
X47566755Y-100278944D01*
X47561091Y-100256335D01*
X47557672Y-100233280D01*
X47556528Y-100210001D01*
X47556528Y-99735001D01*
X47557672Y-99711722D01*
X47561091Y-99688667D01*
X47566755Y-99666058D01*
X47574607Y-99644114D01*
X47584572Y-99623044D01*
X47596554Y-99603053D01*
X47610438Y-99584333D01*
X47626090Y-99567063D01*
X47643360Y-99551411D01*
X47662080Y-99537527D01*
X47682071Y-99525545D01*
X47703141Y-99515580D01*
X47725085Y-99507728D01*
X47747694Y-99502064D01*
X47770749Y-99498645D01*
X47794028Y-99497501D01*
X48369028Y-99497501D01*
X48392307Y-99498645D01*
X48392307Y-99498645D01*
G37*
D13*
X48081528Y-99972501D03*
D12*
G36*
X46642307Y-99498645D02*
X46665362Y-99502064D01*
X46687971Y-99507728D01*
X46709915Y-99515580D01*
X46730985Y-99525545D01*
X46750976Y-99537527D01*
X46769696Y-99551411D01*
X46786966Y-99567063D01*
X46802618Y-99584333D01*
X46816502Y-99603053D01*
X46828484Y-99623044D01*
X46838449Y-99644114D01*
X46846301Y-99666058D01*
X46851965Y-99688667D01*
X46855384Y-99711722D01*
X46856528Y-99735001D01*
X46856528Y-100210001D01*
X46855384Y-100233280D01*
X46851965Y-100256335D01*
X46846301Y-100278944D01*
X46838449Y-100300888D01*
X46828484Y-100321958D01*
X46816502Y-100341949D01*
X46802618Y-100360669D01*
X46786966Y-100377939D01*
X46769696Y-100393591D01*
X46750976Y-100407475D01*
X46730985Y-100419457D01*
X46709915Y-100429422D01*
X46687971Y-100437274D01*
X46665362Y-100442938D01*
X46642307Y-100446357D01*
X46619028Y-100447501D01*
X46044028Y-100447501D01*
X46020749Y-100446357D01*
X45997694Y-100442938D01*
X45975085Y-100437274D01*
X45953141Y-100429422D01*
X45932071Y-100419457D01*
X45912080Y-100407475D01*
X45893360Y-100393591D01*
X45876090Y-100377939D01*
X45860438Y-100360669D01*
X45846554Y-100341949D01*
X45834572Y-100321958D01*
X45824607Y-100300888D01*
X45816755Y-100278944D01*
X45811091Y-100256335D01*
X45807672Y-100233280D01*
X45806528Y-100210001D01*
X45806528Y-99735001D01*
X45807672Y-99711722D01*
X45811091Y-99688667D01*
X45816755Y-99666058D01*
X45824607Y-99644114D01*
X45834572Y-99623044D01*
X45846554Y-99603053D01*
X45860438Y-99584333D01*
X45876090Y-99567063D01*
X45893360Y-99551411D01*
X45912080Y-99537527D01*
X45932071Y-99525545D01*
X45953141Y-99515580D01*
X45975085Y-99507728D01*
X45997694Y-99502064D01*
X46020749Y-99498645D01*
X46044028Y-99497501D01*
X46619028Y-99497501D01*
X46642307Y-99498645D01*
X46642307Y-99498645D01*
G37*
D13*
X46331528Y-99972501D03*
G04 #@! TD*
D12*
G04 #@! TO.C,R20*
G36*
X46964010Y-54894644D02*
X46987065Y-54898063D01*
X47009674Y-54903727D01*
X47031618Y-54911579D01*
X47052688Y-54921544D01*
X47072679Y-54933526D01*
X47091399Y-54947410D01*
X47108669Y-54963062D01*
X47124321Y-54980332D01*
X47138205Y-54999052D01*
X47150187Y-55019043D01*
X47160152Y-55040113D01*
X47168004Y-55062057D01*
X47173668Y-55084666D01*
X47177087Y-55107721D01*
X47178231Y-55131000D01*
X47178231Y-55706000D01*
X47177087Y-55729279D01*
X47173668Y-55752334D01*
X47168004Y-55774943D01*
X47160152Y-55796887D01*
X47150187Y-55817957D01*
X47138205Y-55837948D01*
X47124321Y-55856668D01*
X47108669Y-55873938D01*
X47091399Y-55889590D01*
X47072679Y-55903474D01*
X47052688Y-55915456D01*
X47031618Y-55925421D01*
X47009674Y-55933273D01*
X46987065Y-55938937D01*
X46964010Y-55942356D01*
X46940731Y-55943500D01*
X46465731Y-55943500D01*
X46442452Y-55942356D01*
X46419397Y-55938937D01*
X46396788Y-55933273D01*
X46374844Y-55925421D01*
X46353774Y-55915456D01*
X46333783Y-55903474D01*
X46315063Y-55889590D01*
X46297793Y-55873938D01*
X46282141Y-55856668D01*
X46268257Y-55837948D01*
X46256275Y-55817957D01*
X46246310Y-55796887D01*
X46238458Y-55774943D01*
X46232794Y-55752334D01*
X46229375Y-55729279D01*
X46228231Y-55706000D01*
X46228231Y-55131000D01*
X46229375Y-55107721D01*
X46232794Y-55084666D01*
X46238458Y-55062057D01*
X46246310Y-55040113D01*
X46256275Y-55019043D01*
X46268257Y-54999052D01*
X46282141Y-54980332D01*
X46297793Y-54963062D01*
X46315063Y-54947410D01*
X46333783Y-54933526D01*
X46353774Y-54921544D01*
X46374844Y-54911579D01*
X46396788Y-54903727D01*
X46419397Y-54898063D01*
X46442452Y-54894644D01*
X46465731Y-54893500D01*
X46940731Y-54893500D01*
X46964010Y-54894644D01*
X46964010Y-54894644D01*
G37*
D13*
X46703231Y-55418500D03*
D12*
G36*
X46964010Y-56644644D02*
X46987065Y-56648063D01*
X47009674Y-56653727D01*
X47031618Y-56661579D01*
X47052688Y-56671544D01*
X47072679Y-56683526D01*
X47091399Y-56697410D01*
X47108669Y-56713062D01*
X47124321Y-56730332D01*
X47138205Y-56749052D01*
X47150187Y-56769043D01*
X47160152Y-56790113D01*
X47168004Y-56812057D01*
X47173668Y-56834666D01*
X47177087Y-56857721D01*
X47178231Y-56881000D01*
X47178231Y-57456000D01*
X47177087Y-57479279D01*
X47173668Y-57502334D01*
X47168004Y-57524943D01*
X47160152Y-57546887D01*
X47150187Y-57567957D01*
X47138205Y-57587948D01*
X47124321Y-57606668D01*
X47108669Y-57623938D01*
X47091399Y-57639590D01*
X47072679Y-57653474D01*
X47052688Y-57665456D01*
X47031618Y-57675421D01*
X47009674Y-57683273D01*
X46987065Y-57688937D01*
X46964010Y-57692356D01*
X46940731Y-57693500D01*
X46465731Y-57693500D01*
X46442452Y-57692356D01*
X46419397Y-57688937D01*
X46396788Y-57683273D01*
X46374844Y-57675421D01*
X46353774Y-57665456D01*
X46333783Y-57653474D01*
X46315063Y-57639590D01*
X46297793Y-57623938D01*
X46282141Y-57606668D01*
X46268257Y-57587948D01*
X46256275Y-57567957D01*
X46246310Y-57546887D01*
X46238458Y-57524943D01*
X46232794Y-57502334D01*
X46229375Y-57479279D01*
X46228231Y-57456000D01*
X46228231Y-56881000D01*
X46229375Y-56857721D01*
X46232794Y-56834666D01*
X46238458Y-56812057D01*
X46246310Y-56790113D01*
X46256275Y-56769043D01*
X46268257Y-56749052D01*
X46282141Y-56730332D01*
X46297793Y-56713062D01*
X46315063Y-56697410D01*
X46333783Y-56683526D01*
X46353774Y-56671544D01*
X46374844Y-56661579D01*
X46396788Y-56653727D01*
X46419397Y-56648063D01*
X46442452Y-56644644D01*
X46465731Y-56643500D01*
X46940731Y-56643500D01*
X46964010Y-56644644D01*
X46964010Y-56644644D01*
G37*
D13*
X46703231Y-57168500D03*
G04 #@! TD*
D12*
G04 #@! TO.C,R13*
G36*
X47535779Y-129026144D02*
X47558834Y-129029563D01*
X47581443Y-129035227D01*
X47603387Y-129043079D01*
X47624457Y-129053044D01*
X47644448Y-129065026D01*
X47663168Y-129078910D01*
X47680438Y-129094562D01*
X47696090Y-129111832D01*
X47709974Y-129130552D01*
X47721956Y-129150543D01*
X47731921Y-129171613D01*
X47739773Y-129193557D01*
X47745437Y-129216166D01*
X47748856Y-129239221D01*
X47750000Y-129262500D01*
X47750000Y-129737500D01*
X47748856Y-129760779D01*
X47745437Y-129783834D01*
X47739773Y-129806443D01*
X47731921Y-129828387D01*
X47721956Y-129849457D01*
X47709974Y-129869448D01*
X47696090Y-129888168D01*
X47680438Y-129905438D01*
X47663168Y-129921090D01*
X47644448Y-129934974D01*
X47624457Y-129946956D01*
X47603387Y-129956921D01*
X47581443Y-129964773D01*
X47558834Y-129970437D01*
X47535779Y-129973856D01*
X47512500Y-129975000D01*
X46937500Y-129975000D01*
X46914221Y-129973856D01*
X46891166Y-129970437D01*
X46868557Y-129964773D01*
X46846613Y-129956921D01*
X46825543Y-129946956D01*
X46805552Y-129934974D01*
X46786832Y-129921090D01*
X46769562Y-129905438D01*
X46753910Y-129888168D01*
X46740026Y-129869448D01*
X46728044Y-129849457D01*
X46718079Y-129828387D01*
X46710227Y-129806443D01*
X46704563Y-129783834D01*
X46701144Y-129760779D01*
X46700000Y-129737500D01*
X46700000Y-129262500D01*
X46701144Y-129239221D01*
X46704563Y-129216166D01*
X46710227Y-129193557D01*
X46718079Y-129171613D01*
X46728044Y-129150543D01*
X46740026Y-129130552D01*
X46753910Y-129111832D01*
X46769562Y-129094562D01*
X46786832Y-129078910D01*
X46805552Y-129065026D01*
X46825543Y-129053044D01*
X46846613Y-129043079D01*
X46868557Y-129035227D01*
X46891166Y-129029563D01*
X46914221Y-129026144D01*
X46937500Y-129025000D01*
X47512500Y-129025000D01*
X47535779Y-129026144D01*
X47535779Y-129026144D01*
G37*
D13*
X47225000Y-129500000D03*
D12*
G36*
X49285779Y-129026144D02*
X49308834Y-129029563D01*
X49331443Y-129035227D01*
X49353387Y-129043079D01*
X49374457Y-129053044D01*
X49394448Y-129065026D01*
X49413168Y-129078910D01*
X49430438Y-129094562D01*
X49446090Y-129111832D01*
X49459974Y-129130552D01*
X49471956Y-129150543D01*
X49481921Y-129171613D01*
X49489773Y-129193557D01*
X49495437Y-129216166D01*
X49498856Y-129239221D01*
X49500000Y-129262500D01*
X49500000Y-129737500D01*
X49498856Y-129760779D01*
X49495437Y-129783834D01*
X49489773Y-129806443D01*
X49481921Y-129828387D01*
X49471956Y-129849457D01*
X49459974Y-129869448D01*
X49446090Y-129888168D01*
X49430438Y-129905438D01*
X49413168Y-129921090D01*
X49394448Y-129934974D01*
X49374457Y-129946956D01*
X49353387Y-129956921D01*
X49331443Y-129964773D01*
X49308834Y-129970437D01*
X49285779Y-129973856D01*
X49262500Y-129975000D01*
X48687500Y-129975000D01*
X48664221Y-129973856D01*
X48641166Y-129970437D01*
X48618557Y-129964773D01*
X48596613Y-129956921D01*
X48575543Y-129946956D01*
X48555552Y-129934974D01*
X48536832Y-129921090D01*
X48519562Y-129905438D01*
X48503910Y-129888168D01*
X48490026Y-129869448D01*
X48478044Y-129849457D01*
X48468079Y-129828387D01*
X48460227Y-129806443D01*
X48454563Y-129783834D01*
X48451144Y-129760779D01*
X48450000Y-129737500D01*
X48450000Y-129262500D01*
X48451144Y-129239221D01*
X48454563Y-129216166D01*
X48460227Y-129193557D01*
X48468079Y-129171613D01*
X48478044Y-129150543D01*
X48490026Y-129130552D01*
X48503910Y-129111832D01*
X48519562Y-129094562D01*
X48536832Y-129078910D01*
X48555552Y-129065026D01*
X48575543Y-129053044D01*
X48596613Y-129043079D01*
X48618557Y-129035227D01*
X48641166Y-129029563D01*
X48664221Y-129026144D01*
X48687500Y-129025000D01*
X49262500Y-129025000D01*
X49285779Y-129026144D01*
X49285779Y-129026144D01*
G37*
D13*
X48975000Y-129500000D03*
G04 #@! TD*
D30*
G04 #@! TO.C,Y2*
X34770220Y-29254540D03*
X29270220Y-29254540D03*
X29270220Y-26054540D03*
X34770220Y-26054540D03*
G04 #@! TD*
D31*
G04 #@! TO.C,U7*
X8228500Y-59472231D03*
X8228500Y-60752231D03*
X8228500Y-62012231D03*
X8228500Y-63282231D03*
X8228500Y-64562231D03*
X8228500Y-65832231D03*
X8228500Y-67092231D03*
X8228500Y-68372231D03*
X14528500Y-68372231D03*
X14528500Y-67092231D03*
X14528500Y-65832231D03*
X14528500Y-64562231D03*
X14528500Y-63282231D03*
X14528500Y-62012231D03*
X14528500Y-60752231D03*
X14528500Y-59472231D03*
G04 #@! TD*
M02*
