M48
;DRILL file {KiCad 5.0.1-33cea8e~68~ubuntu18.04.1} date Wed 24 Oct 2018 11:08:19 PM HKT
;FORMAT={3:3/ absolute / metric / suppress leading zeros}
FMAT,2
METRIC,TZ
T1C0.650
T2C0.800
T3C1.000
T4C1.100
T5C1.300
%
G90
G05
M71
T1
X62639Y-79022
X63909Y-79022
X65179Y-79022
X66449Y-79022
X67719Y-79022
X68989Y-79022
X70259Y-79022
X71529Y-79022
X72799Y-79022
X74069Y-79022
X75339Y-79022
X76609Y-79022
X77879Y-79022
X79149Y-79022
X80419Y-79022
X87099Y-51666
X87099Y-52936
X87099Y-54206
X87099Y-55476
X87099Y-56746
X87099Y-58016
X87099Y-59286
X87099Y-60556
X87099Y-61826
X87099Y-63096
X87099Y-64366
X87099Y-65636
X63189Y-41894
X64459Y-41894
X65729Y-41894
X66999Y-41894
X68269Y-41894
X69539Y-41894
X70809Y-41894
X72079Y-41894
X73349Y-41894
X74619Y-41894
X75889Y-41894
X77159Y-41894
X78429Y-41894
X79699Y-41894
T2
X83840Y-91480
X86380Y-91480
T3
X51124Y-52115
X51336Y-48669
X53876Y-42776
X54003Y-54765
X54892Y-88040
X55116Y-85349
X55148Y-82649
X59591Y-47780
X60175Y-66576
X61217Y-51996
X62512Y-69116
X67084Y-46447
X69446Y-68748
X72736Y-83784
X75974Y-91341
X77879Y-68672
X78158Y-49380
X80356Y-63655
X80749Y-52123
X81308Y-68608
X82197Y-45748
X85372Y-85004
X87404Y-41811
X89309Y-85753
X90223Y-45950
X91468Y-50320
X92865Y-69751
X93246Y-46891
X95024Y-71910
X104803Y-60353
X105057Y-77498
X105311Y-66957
X107495Y-49583
X83315Y-34950
X85855Y-34950
X88395Y-34950
X90935Y-34950
X48720Y-39398
X51260Y-39398
X53800Y-39398
T4
X96540Y-91480
X104160Y-91480
T5
X118900Y-44201
X118900Y-49201
X118900Y-75720
X118900Y-80720
X61703Y-90325
X66703Y-90325
X71703Y-90325
X112500Y-90000
X117500Y-90000
X101200Y-40605
X106200Y-40605
X111200Y-40605
X118900Y-55500
X118900Y-60500
X118900Y-65500
X118900Y-70500
T0
M30
